<svg id="Layer_1" data-name="Layer 1" xmlns="http://www.w3.org/2000/svg" viewBox="0 0 241.165 122.489"><defs><style>.cls-1{fill:#ed1c24;stroke-width:0.5px;}.cls-1,.cls-4,.cls-5{stroke:#231f20;}.cls-1,.cls-3,.cls-4,.cls-5{stroke-miterlimit:10;}.cls-2{fill:#231f20;}.cls-3,.cls-5{fill:none;}.cls-3{stroke:#010101;stroke-width:1.9px;}.cls-4{fill:#fff;}</style></defs><rect class="cls-1" x="82.574" y="77.674" width="5.669" height="5.669"/><path class="cls-2" d="M77.81,92.026l1.534-3.943c.049-.126.049-.133.231-.133h1.183v.217H80.59c-.539,0-.553.077-.553.329v3.691c0,.252.014.329.553.329h.168v.217c-.259-.021-.728-.021-1-.021s-.75,0-1.009.021v-.217h.168c.54,0,.554-.077.554-.329v-4.02h-.007L77.74,92.6c-.028.077-.049.133-.126.133s-.105-.063-.14-.154l-1.688-4.356h-.007V92c0,.189,0,.518.721.518v.217c-.245-.007-.588-.021-.819-.021s-.575.014-.82.021v-.217c.721,0,.721-.329.721-.518V88.5c0-.252-.014-.329-.553-.329h-.168V87.95h1.184c.161,0,.182,0,.245.154Z" transform="translate(-1.101 -1.625)"/><path class="cls-2" d="M82,92.166a.946.946,0,0,0,.792.469.987.987,0,0,0,.946-.721c.013-.056.028-.1.091-.1a.081.081,0,0,1,.091.084,1.2,1.2,0,0,1-1.17.91,1.581,1.581,0,0,1-1.541-1.618,1.53,1.53,0,0,1,1.457-1.6,1.242,1.242,0,0,1,1.254,1.372c0,.148-.021.148-.175.148H81.791A2.038,2.038,0,0,0,82,92.166Zm1.457-1.2c0-.273-.069-1.218-.791-1.218-.238,0-.826.175-.869,1.218Z" transform="translate(-1.101 -1.625)"/><path class="cls-2" d="M85.333,91.879c0,.119,0,.756.47.756.259,0,.469-.266.469-.784v-.385h.175v.4c0,.448-.2.945-.693.945a.847.847,0,0,1-.9-.945V89.932h-.6v-.154c.686-.028.9-.778.9-1.352h.174v1.289h1v.217h-1Z" transform="translate(-1.101 -1.625)"/><path class="cls-2" d="M87.825,92.166a.944.944,0,0,0,.792.469.986.986,0,0,0,.945-.721c.014-.056.028-.1.091-.1a.082.082,0,0,1,.092.084,1.2,1.2,0,0,1-1.17.91,1.581,1.581,0,0,1-1.541-1.618,1.53,1.53,0,0,1,1.457-1.6,1.242,1.242,0,0,1,1.254,1.372c0,.148-.021.148-.176.148H87.615A2.038,2.038,0,0,0,87.825,92.166Zm1.457-1.2c0-.273-.07-1.218-.791-1.218-.239,0-.826.175-.868,1.218Z" transform="translate(-1.101 -1.625)"/><path class="cls-2" d="M91.977,89.638a.478.478,0,0,1,.518.427.294.294,0,0,1-.3.308.29.29,0,0,1-.3-.3.3.3,0,0,1,.161-.273.177.177,0,0,0-.077-.007c-.532,0-.827.623-.827,1.316v1.079c0,.252.015.329.533.329h.147v.217c-.28-.021-.609-.021-.89-.021-.2,0-.525.014-.8.021v-.217c.469,0,.546,0,.546-.315V90.324c0-.343-.056-.392-.546-.392v-.217l.973-.077v.77A.981.981,0,0,1,91.977,89.638Z" transform="translate(-1.101 -1.625)"/><path class="cls-2" d="M97.164,92.194a2.281,2.281,0,0,0,.665-.056,2.3,2.3,0,0,0,.154-.623h.175l-.2,1.218h-2.6c0-.168,0-.182.077-.259l1.345-1.5a2.508,2.508,0,0,0,.735-1.547c0-.575-.3-1.142-.939-1.142a1.009,1.009,0,0,0-.945.714.267.267,0,0,1,.091-.007.354.354,0,0,1,.371.364.368.368,0,1,1-.735-.021,1.293,1.293,0,0,1,1.309-1.267,1.376,1.376,0,0,1,1.485,1.359c0,.7-.42,1.078-1.513,2.045l-.742.721Z" transform="translate(-1.101 -1.625)"/><rect class="cls-1" x="224.767" y="39.009" width="5.669" height="5.669"/><path class="cls-2" d="M216.484,53.453c0,.253.014.329.553.329h.168V54c-.245-.021-.769-.021-1.036-.021s-.784,0-1.03.021v-.218h.168c.54,0,.553-.076.553-.329V49.762c0-.252-.013-.329-.553-.329h-.168v-.217h2.472a1.5,1.5,0,0,1,1.654,1.3,1.488,1.488,0,0,1-1.6,1.267h-1.184Zm.946-1.849c1.113,0,1.113-.756,1.113-1.085s0-1.086-1.113-1.086h-.623c-.33,0-.344.049-.344.281V51.6Z" transform="translate(-1.101 -1.625)"/><path class="cls-2" d="M220.186,52.319a.748.748,0,0,1-.3-.6c0-.392.265-.861,1.121-.861a1.08,1.08,0,0,1,.658.2.968.968,0,0,0,.119-.112c.091-.084.106-.084.14-.084.077,0,.077.049.077.168v.708c0,.132,0,.167-.091.167-.014,0-.077,0-.084-.062a.773.773,0,0,0-.819-.848c-.6,0-.785.287-.785.533,0,.406.469.5.861.574a1.427,1.427,0,0,1,.8.336.9.9,0,0,1,.295.665c0,.5-.323.974-1.129.974a1.047,1.047,0,0,1-.77-.3,1.274,1.274,0,0,0-.14.161c-.133.133-.14.14-.175.14-.077,0-.077-.049-.077-.168v-.925c0-.126,0-.175.092-.175.069,0,.076.028.1.119.133.6.385,1,.973,1,.547,0,.792-.281.792-.638,0-.5-.574-.616-.729-.644A1.834,1.834,0,0,1,220.186,52.319Z" transform="translate(-1.101 -1.625)"/><path class="cls-2" d="M223.4,53.432a.944.944,0,0,0,.792.47.987.987,0,0,0,.946-.722c.013-.056.027-.1.091-.1a.081.081,0,0,1,.09.084,1.2,1.2,0,0,1-1.17.911,1.582,1.582,0,0,1-1.54-1.618,1.53,1.53,0,0,1,1.456-1.6,1.242,1.242,0,0,1,1.254,1.373c0,.147-.02.147-.174.147h-1.955A2.038,2.038,0,0,0,223.4,53.432Zm1.457-1.2c0-.273-.069-1.219-.792-1.219-.238,0-.826.175-.868,1.219Z" transform="translate(-1.101 -1.625)"/><path class="cls-2" d="M227.355,54.077c-1.064,0-1.064-.637-1.064-1.184v-1.05c0-.624,0-.645-.547-.645v-.217l1.029-.077v2.325c0,.364.029.694.618.694.51,0,.846-.476.846-1.086V51.591c0-.344-.055-.393-.546-.393v-.217l1.03-.077V53.39c0,.344.056.392.547.392V54l-1.01.077v-.63A.955.955,0,0,1,227.355,54.077Z" transform="translate(-1.101 -1.625)"/><path class="cls-2" d="M231.128,54.077a1.54,1.54,0,0,1-1.485-1.583,1.584,1.584,0,0,1,1.562-1.59,1.119,1.119,0,0,1,.883.434V49.825c0-.343-.057-.392-.547-.392v-.217l1.008-.077V53.39c0,.344.056.392.547.392V54l-1.03.077v-.463A1.18,1.18,0,0,1,231.128,54.077Zm.861-2.6a.909.909,0,0,0-.757-.42.96.96,0,0,0-.791.449,2.414,2.414,0,0,0-.013,1.967.871.871,0,0,0,.734.449.975.975,0,0,0,.827-.491.334.334,0,0,0,.077-.259V51.738A.337.337,0,0,0,231.989,51.478Z" transform="translate(-1.101 -1.625)"/><path class="cls-2" d="M235.033,54.077a1.563,1.563,0,0,1-1.547-1.576,1.553,1.553,0,1,1,3.1,0A1.561,1.561,0,0,1,235.033,54.077Zm.82-.693a2.133,2.133,0,0,0,.154-.939,1.918,1.918,0,0,0-.183-.974.915.915,0,0,0-.791-.455.942.942,0,0,0-.8.47,2.007,2.007,0,0,0-.168.959,2.072,2.072,0,0,0,.176.987.915.915,0,0,0,.8.47A.9.9,0,0,0,235.853,53.384Z" transform="translate(-1.101 -1.625)"/><path class="cls-2" d="M241.271,53.461a2.281,2.281,0,0,0,.665-.056,2.312,2.312,0,0,0,.154-.624h.176l-.2,1.219h-2.6c0-.168,0-.182.077-.26l1.345-1.5a2.518,2.518,0,0,0,.735-1.548c0-.574-.3-1.142-.939-1.142a1.009,1.009,0,0,0-.945.715.238.238,0,0,1,.091-.008.355.355,0,0,1,.371.365.368.368,0,1,1-.735-.021,1.294,1.294,0,0,1,1.309-1.268,1.377,1.377,0,0,1,1.486,1.359c0,.7-.42,1.079-1.514,2.045l-.742.722Z" transform="translate(-1.101 -1.625)"/><rect class="cls-1" x="10.756" y="77.674" width="5.669" height="5.669"/><path class="cls-2" d="M2.445,92.04c0,.253.015.329.554.329h.168v.218c-.246-.021-.77-.021-1.037-.021s-.784,0-1.029.021v-.218h.168c.539,0,.553-.076.553-.329V88.349c0-.252-.014-.329-.553-.329H1.1V87.8H3.573a1.321,1.321,0,1,1,.056,2.57H2.445Zm.946-1.849c1.113,0,1.113-.756,1.113-1.085s0-1.086-1.113-1.086H2.768c-.329,0-.344.049-.344.281v1.89Z" transform="translate(-1.101 -1.625)"/><path class="cls-2" d="M6.147,90.906a.751.751,0,0,1-.3-.6c0-.392.266-.861,1.121-.861a1.083,1.083,0,0,1,.659.2,1.046,1.046,0,0,0,.119-.112c.09-.084.1-.084.139-.084.077,0,.077.049.077.168v.708c0,.133,0,.167-.09.167-.015,0-.078,0-.084-.063a.774.774,0,0,0-.82-.847c-.6,0-.784.287-.784.533,0,.406.469.5.861.574a1.427,1.427,0,0,1,.8.336.9.9,0,0,1,.3.665c0,.5-.323.974-1.128.974a1.046,1.046,0,0,1-.77-.3,1.274,1.274,0,0,0-.14.161c-.134.133-.14.14-.176.14-.077,0-.077-.049-.077-.168v-.925c0-.126,0-.175.092-.175.069,0,.077.028.1.119.132.6.385,1,.973,1,.546,0,.791-.281.791-.638,0-.5-.574-.616-.728-.644A1.843,1.843,0,0,1,6.147,90.906Z" transform="translate(-1.101 -1.625)"/><path class="cls-2" d="M9.361,92.019a.941.941,0,0,0,.791.47.987.987,0,0,0,.946-.722c.014-.056.028-.1.091-.1a.081.081,0,0,1,.091.084,1.2,1.2,0,0,1-1.17.911,1.581,1.581,0,0,1-1.54-1.618,1.53,1.53,0,0,1,1.456-1.6,1.242,1.242,0,0,1,1.254,1.373c0,.147-.021.147-.175.147H9.151A2.038,2.038,0,0,0,9.361,92.019Zm1.457-1.2c0-.273-.07-1.219-.792-1.219-.238,0-.826.175-.868,1.219Z" transform="translate(-1.101 -1.625)"/><path class="cls-2" d="M13.316,92.664c-1.064,0-1.064-.638-1.064-1.184V90.429c0-.623,0-.644-.546-.644v-.217l1.029-.077v2.325c0,.364.028.694.617.694.511,0,.847-.476.847-1.086V90.178c0-.344-.056-.393-.546-.393v-.217l1.029-.077v2.486c0,.344.056.392.547.392v.218l-1.009.077v-.63A.955.955,0,0,1,13.316,92.664Z" transform="translate(-1.101 -1.625)"/><path class="cls-2" d="M17.089,92.664a1.54,1.54,0,0,1-1.484-1.583,1.583,1.583,0,0,1,1.561-1.59,1.119,1.119,0,0,1,.883.434V88.412c0-.343-.056-.392-.547-.392V87.8l1.009-.077v4.251c0,.344.056.392.546.392v.218l-1.029.077V92.2A1.181,1.181,0,0,1,17.089,92.664Zm.862-2.6a.91.91,0,0,0-.757-.42.96.96,0,0,0-.791.449,2.409,2.409,0,0,0-.014,1.967.871.871,0,0,0,.735.449.976.976,0,0,0,.827-.491.334.334,0,0,0,.077-.259V90.325A.337.337,0,0,0,17.951,90.065Z" transform="translate(-1.101 -1.625)"/><path class="cls-2" d="M21,92.664a1.563,1.563,0,0,1-1.548-1.576,1.554,1.554,0,1,1,3.1,0A1.561,1.561,0,0,1,21,92.664Zm.819-.693a2.133,2.133,0,0,0,.154-.939,1.927,1.927,0,0,0-.182-.974A.917.917,0,0,0,21,89.6a.941.941,0,0,0-.8.47,2.007,2.007,0,0,0-.168.959,2.072,2.072,0,0,0,.176.987.9.9,0,0,0,1.61-.048Z" transform="translate(-1.101 -1.625)"/><path class="cls-2" d="M28.283,91.389a1.429,1.429,0,0,1-1.492,1.352,1.277,1.277,0,0,1-1.415-1.1.393.393,0,1,1,.785-.014.385.385,0,0,1-.463.386,1.276,1.276,0,0,0,1.072.532c.308,0,.792-.2.792-1.156,0-.686-.26-1.163-.834-1.163H26.42c-.119,0-.169,0-.169-.077s.05-.076.106-.084.217-.013.273-.021a.678.678,0,0,0,.623-.364,1.747,1.747,0,0,0,.2-.8c0-.631-.385-.785-.672-.785a1.136,1.136,0,0,0-.932.435c.106,0,.435,0,.435.35a.358.358,0,1,1-.715-.007c0-.532.533-.953,1.24-.953.673,0,1.289.392,1.289.966a1.348,1.348,0,0,1-.981,1.233A1.352,1.352,0,0,1,28.283,91.389Z" transform="translate(-1.101 -1.625)"/><path d="M152.139,75.209a1.467,1.467,0,0,1-1.6,1.312h-2.812V76.3h.172c.553,0,.567-.078.567-.336V72.181c0-.258-.014-.338-.567-.338h-.172v-.222h2.625a1.441,1.441,0,0,1,1.593,1.212c0,.531-.5.99-1.19,1.127A1.409,1.409,0,0,1,152.139,75.209ZM150.1,73.9a1.082,1.082,0,0,0,1.149-1.062.955.955,0,0,0-.948-.99h-.889c-.338,0-.352.051-.352.287V73.9Zm1.321,1.306a1.076,1.076,0,0,0-1.012-1.148h-1.349v1.959c0,.237.014.286.352.286h.9A1.084,1.084,0,0,0,151.422,75.2Z" transform="translate(-1.101 -1.625)"/><path d="M154.426,76.6c-1.09,0-1.09-.652-1.09-1.212V74.311c0-.638,0-.659-.559-.659v-.223l1.054-.079v2.382c0,.373.029.711.631.711.524,0,.868-.488.868-1.113V74.053c0-.351-.057-.4-.559-.4v-.223l1.054-.079V75.9c0,.352.058.4.56.4v.223l-1.033.079v-.645A.98.98,0,0,1,154.426,76.6Z" transform="translate(-1.101 -1.625)"/><path d="M157.073,74.8a.761.761,0,0,1-.308-.609c0-.4.273-.883,1.147-.883a1.1,1.1,0,0,1,.675.2.945.945,0,0,0,.122-.115c.093-.086.108-.086.143-.086.079,0,.079.05.079.173V74.2c0,.136,0,.172-.093.172a.077.077,0,0,1-.086-.065.791.791,0,0,0-.84-.867c-.616,0-.8.294-.8.545,0,.416.481.509.883.588a1.466,1.466,0,0,1,.818.344.934.934,0,0,1,.3.682c0,.516-.329,1-1.154,1a1.072,1.072,0,0,1-.79-.309,2.022,2.022,0,0,0-.143.166c-.136.136-.144.143-.179.143-.079,0-.079-.05-.079-.172v-.947c0-.129,0-.18.093-.18.072,0,.079.029.1.123.137.609.4,1.019,1,1.019.56,0,.811-.288.811-.654,0-.516-.589-.631-.747-.66A1.875,1.875,0,0,1,157.073,74.8Z" transform="translate(-1.101 -1.625)"/><path d="M161.943,75.337v-.222l2.2-3.364c.057-.087.079-.087.144-.087.114,0,.114.043.114.187v3.264h.718v.222H164.4v.625c0,.258.015.336.546.336h.15v.223c-.294-.021-.674-.021-.976-.021s-.674,0-.968.021V76.3h.151c.531,0,.545-.078.545-.336v-.625Zm1.952-2.9-1.751,2.676H163.9Z" transform="translate(-1.101 -1.625)"/><path d="M126.849,89.826a1.468,1.468,0,0,1-1.6,1.313h-2.812v-.223h.172c.552,0,.566-.079.566-.337V86.8c0-.258-.014-.337-.566-.337h-.172v-.222h2.625a1.44,1.44,0,0,1,1.593,1.212c0,.531-.5.99-1.191,1.126A1.411,1.411,0,0,1,126.849,89.826Zm-2.038-1.313a1.082,1.082,0,0,0,1.148-1.062.953.953,0,0,0-.947-.99h-.89c-.337,0-.351.05-.351.287v1.765Zm1.32,1.306a1.075,1.075,0,0,0-1.011-1.148h-1.349v1.958c0,.238.014.287.351.287h.9A1.084,1.084,0,0,0,126.131,89.819Z" transform="translate(-1.101 -1.625)"/><path d="M129.337,87.967a.49.49,0,0,1,.531.439.3.3,0,0,1-.309.315.3.3,0,0,1-.308-.308.311.311,0,0,1,.165-.28.186.186,0,0,0-.079-.007c-.545,0-.846.638-.846,1.348v1.1c0,.258.014.337.545.337h.15v.223c-.286-.022-.624-.022-.911-.022-.2,0-.538.015-.818.022v-.223c.481,0,.56,0,.56-.322V88.671c0-.352-.057-.4-.56-.4v-.222l1-.08v.79A1,1,0,0,1,129.337,87.967Z" transform="translate(-1.101 -1.625)"/><path d="M131.511,91.217c-.453,0-1.148-.179-1.148-.76a1.044,1.044,0,0,1,.717-.932,3.468,3.468,0,0,1,1.32-.259V89a.812.812,0,0,0-.76-.918,1,1,0,0,0-.775.331c.33.007.366.243.366.329a.33.33,0,1,1-.66-.007c0-.473.5-.81,1.083-.81a1.37,1.37,0,0,1,.983.394,1.062,1.062,0,0,1,.258.847V90.6c0,.036.029.358.266.358.079,0,.258-.043.258-.459v-.4h.179v.4a.609.609,0,0,1-.588.682.6.6,0,0,1-.56-.588A.991.991,0,0,1,131.511,91.217Zm-.6-.767a.618.618,0,0,0,.646.61.862.862,0,0,0,.839-.926v-.717C131.216,89.46,130.915,90.055,130.915,90.45Z" transform="translate(-1.101 -1.625)"/><path d="M133.878,88.269v-.222l1.011-.08v.754a1.131,1.131,0,0,1,1.062-.754.958.958,0,0,1,.753.266c.223.258.223.481.223,1.1V90.7c.007.215.186.215.559.215v.223c-.244-.007-.617-.022-.8-.022s-.56.015-.811.022v-.223c.481,0,.56,0,.56-.322V88.922c0-.409-.079-.8-.531-.8a1.047,1.047,0,0,0-.969,1.147v1.321c0,.322.079.322.56.322v.223c-.244-.007-.617-.022-.8-.022s-.559.015-.81.022v-.223c.48,0,.559,0,.559-.322V88.671C134.437,88.319,134.38,88.269,133.878,88.269Z" transform="translate(-1.101 -1.625)"/><path d="M139.48,91.038a.938.938,0,0,0,.94-.753c.014-.043.028-.072.093-.072.021,0,.093,0,.093.072a1.179,1.179,0,0,1-1.191.932,1.587,1.587,0,0,1-1.542-1.628,1.607,1.607,0,0,1,1.557-1.664c.552,0,1.1.279,1.1.768a.33.33,0,1,1-.66.006.325.325,0,0,1,.337-.33,1.175,1.175,0,0,0-.767-.265c-.38,0-.969.3-.969,1.47S139.1,91.038,139.48,91.038Z" transform="translate(-1.101 -1.625)"/><path d="M141.6,86.863c0-.352-.058-.4-.56-.4v-.222l1.033-.079v2.511a1.137,1.137,0,0,1,1.04-.7.961.961,0,0,1,.754.266c.222.258.222.481.222,1.1V90.7c.007.215.187.215.56.215v.223c-.244-.007-.617-.022-.8-.022s-.559.015-.81.022v-.223c.48,0,.559,0,.559-.322V88.922c0-.409-.079-.8-.531-.8a1.047,1.047,0,0,0-.968,1.147v1.321c0,.322.079.322.559.322v.223c-.243-.007-.617-.022-.8-.022s-.56.015-.811.022v-.223c.481,0,.56,0,.56-.322Z" transform="translate(-1.101 -1.625)"/><path d="M150.462,89.912a1.464,1.464,0,0,1-1.528,1.385,1.309,1.309,0,0,1-1.449-1.127.4.4,0,1,1,.8-.014.392.392,0,0,1-.473.394,1.305,1.305,0,0,0,1.1.546c.316,0,.811-.208.811-1.184,0-.7-.266-1.191-.854-1.191h-.315c-.122,0-.173,0-.173-.079s.051-.079.108-.086.222-.014.28-.021a.7.7,0,0,0,.638-.374,1.8,1.8,0,0,0,.2-.817c0-.646-.394-.8-.689-.8a1.165,1.165,0,0,0-.954.445c.108,0,.445,0,.445.359a.366.366,0,1,1-.732-.007c0-.546.546-.976,1.27-.976.689,0,1.32.4,1.32.99a1.382,1.382,0,0,1-1,1.263A1.383,1.383,0,0,1,150.462,89.912Z" transform="translate(-1.101 -1.625)"/><path d="M152.189,12.339a1.467,1.467,0,0,1-1.6,1.313h-2.812V13.43h.172c.553,0,.567-.079.567-.337V9.311c0-.257-.014-.336-.567-.336h-.172V8.752H150.4A1.441,1.441,0,0,1,152,9.965c0,.53-.5.99-1.191,1.126A1.408,1.408,0,0,1,152.189,12.339Zm-2.038-1.313A1.081,1.081,0,0,0,151.3,9.965a.953.953,0,0,0-.947-.99h-.889c-.337,0-.352.049-.352.286v1.765Zm1.321,1.306a1.075,1.075,0,0,0-1.012-1.148h-1.349v1.959c0,.237.015.287.352.287h.9A1.085,1.085,0,0,0,151.472,12.332Z" transform="translate(-1.101 -1.625)"/><path d="M154.476,13.731c-1.09,0-1.09-.652-1.09-1.212V11.443c0-.639,0-.661-.56-.661V10.56l1.055-.079v2.382c0,.373.029.711.631.711.524,0,.869-.488.869-1.113V11.184c0-.351-.058-.4-.56-.4V10.56l1.055-.079v2.547c0,.352.057.4.559.4v.222l-1.033.079v-.645A.98.98,0,0,1,154.476,13.731Z" transform="translate(-1.101 -1.625)"/><path d="M157.123,11.93a.766.766,0,0,1-.308-.609c0-.4.272-.883,1.147-.883a1.106,1.106,0,0,1,.675.2.884.884,0,0,0,.122-.115c.093-.086.108-.086.144-.086.078,0,.078.05.078.173v.724c0,.136,0,.172-.093.172-.014,0-.079,0-.086-.064a.792.792,0,0,0-.84-.869c-.617,0-.8.294-.8.546,0,.416.481.509.883.588a1.46,1.46,0,0,1,.817.344.925.925,0,0,1,.3.682c0,.516-.33,1-1.155,1a1.074,1.074,0,0,1-.79-.308,1.521,1.521,0,0,0-.143.165c-.136.136-.143.143-.179.143-.079,0-.079-.05-.079-.172v-.947c0-.13,0-.179.093-.179.072,0,.079.028.1.121.137.61.395,1.02,1,1.02.559,0,.81-.288.81-.653,0-.517-.588-.632-.746-.661A1.875,1.875,0,0,1,157.123,11.93Z" transform="translate(-1.101 -1.625)"/><path d="M165.071,12.426a1.463,1.463,0,0,1-1.528,1.384,1.309,1.309,0,0,1-1.449-1.126.4.4,0,1,1,.8-.015.393.393,0,0,1-.474.395,1.306,1.306,0,0,0,1.1.545c.315,0,.81-.208.81-1.183,0-.7-.265-1.192-.854-1.192h-.315c-.122,0-.172,0-.172-.078s.05-.08.107-.087.223-.014.28-.021a.7.7,0,0,0,.639-.373,1.8,1.8,0,0,0,.2-.818c0-.646-.394-.8-.688-.8a1.163,1.163,0,0,0-.954.444c.107,0,.444,0,.444.359a.366.366,0,1,1-.731-.007c0-.546.545-.976,1.27-.976.688,0,1.32.4,1.32.99a1.383,1.383,0,0,1-1,1.263A1.383,1.383,0,0,1,165.071,12.426Z" transform="translate(-1.101 -1.625)"/><path d="M10.593,43.836a1.467,1.467,0,0,1-1.6,1.312H6.181v-.222h.172c.552,0,.567-.079.567-.337V40.808c0-.258-.015-.337-.567-.337H6.181v-.222H8.806A1.44,1.44,0,0,1,10.4,41.461c0,.531-.495.99-1.191,1.127A1.408,1.408,0,0,1,10.593,43.836ZM8.555,42.523A1.082,1.082,0,0,0,9.7,41.461a.953.953,0,0,0-.947-.99H7.867c-.338,0-.352.05-.352.287v1.765Zm1.32,1.306A1.075,1.075,0,0,0,8.864,42.68H7.515v1.959c0,.237.014.287.352.287h.9A1.084,1.084,0,0,0,9.875,43.829Z" transform="translate(-1.101 -1.625)"/><path d="M12.88,45.227c-1.09,0-1.09-.652-1.09-1.212V42.939c0-.638,0-.66-.56-.66v-.222l1.055-.08v2.382c0,.373.029.711.631.711.524,0,.868-.488.868-1.112V42.68c0-.351-.057-.4-.559-.4v-.222l1.054-.08v2.548c0,.351.058.4.56.4v.222l-1.033.079v-.645A.978.978,0,0,1,12.88,45.227Z" transform="translate(-1.101 -1.625)"/><path d="M15.527,43.426a.761.761,0,0,1-.308-.609c0-.4.272-.883,1.147-.883a1.106,1.106,0,0,1,.675.2,1.011,1.011,0,0,0,.122-.114c.093-.087.108-.087.143-.087.079,0,.079.051.079.173v.725c0,.135,0,.172-.093.172a.077.077,0,0,1-.086-.065.792.792,0,0,0-.84-.868c-.617,0-.8.294-.8.545,0,.416.481.509.882.588a1.461,1.461,0,0,1,.818.345.925.925,0,0,1,.3.681c0,.517-.329,1-1.154,1a1.074,1.074,0,0,1-.79-.308,1.67,1.67,0,0,0-.143.165c-.136.136-.144.143-.179.143-.079,0-.079-.05-.079-.171v-.948c0-.129,0-.179.093-.179.072,0,.079.029.1.122.137.609.395,1.019,1,1.019.559,0,.81-.287.81-.653,0-.517-.588-.631-.746-.66A1.88,1.88,0,0,1,15.527,43.426Z" transform="translate(-1.101 -1.625)"/><path d="M22.306,44.582c0,.265.021.344.667.344H23.2v.222c-.251-.021-.875-.021-1.162-.021s-.911,0-1.162.021v-.222h.23c.645,0,.667-.086.667-.344V40.866a2.153,2.153,0,0,1-.94.186V40.83a1.773,1.773,0,0,0,1.306-.459c.165,0,.165.014.165.186Z" transform="translate(-1.101 -1.625)"/><line class="cls-3" x1="13.591" y1="45.921" x2="13.591" y2="75.855"/><path class="cls-2" d="M224.6,5.127a1.433,1.433,0,0,1-1.562,1.282h-2.746V6.191h.168c.54,0,.554-.076.554-.329V2.171c0-.252-.014-.329-.554-.329h-.168V1.625h2.563a1.406,1.406,0,0,1,1.555,1.184c0,.518-.483.966-1.162,1.1A1.376,1.376,0,0,1,224.6,5.127Zm-1.99-1.282a1.056,1.056,0,0,0,1.121-1.036.931.931,0,0,0-.924-.967h-.869c-.329,0-.343.049-.343.281V3.845ZM223.9,5.12A1.049,1.049,0,0,0,222.911,4h-1.317V5.912c0,.231.014.279.343.279h.875A1.058,1.058,0,0,0,223.9,5.12Z" transform="translate(-1.101 -1.625)"/><path class="cls-2" d="M226.83,6.486c-1.064,0-1.064-.638-1.064-1.184V4.251c0-.623,0-.644-.547-.644V3.39l1.03-.077V5.638c0,.364.028.694.616.694.511,0,.847-.477.847-1.086V4c0-.344-.055-.393-.546-.393V3.39l1.03-.077V5.8c0,.344.056.392.546.392v.218l-1.009.077V5.855A.954.954,0,0,1,226.83,6.486Z" transform="translate(-1.101 -1.625)"/><path class="cls-2" d="M229.412,4.728a.748.748,0,0,1-.3-.6c0-.392.266-.861,1.12-.861a1.079,1.079,0,0,1,.659.2.9.9,0,0,0,.119-.112c.091-.084.105-.084.14-.084.077,0,.077.049.077.168v.708c0,.133,0,.167-.091.167a.075.075,0,0,1-.084-.063.773.773,0,0,0-.82-.847c-.6,0-.784.287-.784.533,0,.406.469.5.862.574a1.427,1.427,0,0,1,.8.336.9.9,0,0,1,.294.665c0,.505-.322.974-1.128.974a1.047,1.047,0,0,1-.77-.3,1.585,1.585,0,0,0-.14.161c-.133.133-.14.14-.175.14-.077,0-.077-.049-.077-.168V5.393c0-.126,0-.175.091-.175.07,0,.077.028.1.119.133.6.386,1,.973,1,.547,0,.792-.281.792-.638,0-.5-.574-.616-.728-.644A1.839,1.839,0,0,1,229.412,4.728Z" transform="translate(-1.101 -1.625)"/><path class="cls-2" d="M235.586,6.563a1.286,1.286,0,0,1-1.267-1.282.347.347,0,1,1,.343.315.316.316,0,0,1-.119-.014,1.091,1.091,0,0,0,1.03.785.876.876,0,0,0,.749-.455,2.041,2.041,0,0,0,.168-.96,2.161,2.161,0,0,0-.126-.883.684.684,0,0,0-.595-.448,1.054,1.054,0,0,0-.9.49c-.028.042-.042.063-.091.063-.1,0-.1-.055-.1-.182V1.919c0-.112,0-.168.07-.168a.209.209,0,0,1,.084.021,2.274,2.274,0,0,0,.932.2,2.315,2.315,0,0,0,.952-.2.1.1,0,0,1,.056-.021.068.068,0,0,1,.07.077,1.526,1.526,0,0,1-1.351.729,2.226,2.226,0,0,1-.6-.091V3.824a1.233,1.233,0,0,1,.89-.357A1.437,1.437,0,0,1,237.113,5,1.547,1.547,0,0,1,235.586,6.563Z" transform="translate(-1.101 -1.625)"/><path class="cls-2" d="M224.571,82.372a1.433,1.433,0,0,1-1.563,1.282h-2.745v-.217h.168c.539,0,.554-.077.554-.329V79.417c0-.252-.015-.329-.554-.329h-.168v-.217h2.564a1.405,1.405,0,0,1,1.554,1.183c0,.519-.483.967-1.163,1.1A1.375,1.375,0,0,1,224.571,82.372Zm-1.989-1.281a1.056,1.056,0,0,0,1.12-1.037.93.93,0,0,0-.924-.966h-.869c-.329,0-.343.049-.343.28v1.723Zm1.288,1.275a1.049,1.049,0,0,0-.988-1.121h-1.316v1.912c0,.231.014.28.343.28h.876A1.058,1.058,0,0,0,223.87,82.366Z" transform="translate(-1.101 -1.625)"/><path class="cls-2" d="M226.8,83.731c-1.064,0-1.064-.637-1.064-1.183V81.5c0-.623,0-.645-.547-.645v-.216l1.03-.077v2.325c0,.364.028.693.616.693.511,0,.847-.476.847-1.085V81.245c0-.343-.056-.393-.546-.393v-.216l1.029-.077v2.486c0,.343.057.392.547.392v.217l-1.008.077V83.1A.957.957,0,0,1,226.8,83.731Z" transform="translate(-1.101 -1.625)"/><path class="cls-2" d="M229.384,81.974a.749.749,0,0,1-.3-.6c0-.392.266-.861,1.121-.861a1.079,1.079,0,0,1,.658.2.968.968,0,0,0,.119-.112c.091-.084.105-.084.14-.084.077,0,.077.048.077.168v.707c0,.133,0,.168-.091.168a.075.075,0,0,1-.084-.063.772.772,0,0,0-.819-.847c-.6,0-.785.287-.785.532,0,.406.469.5.862.574a1.427,1.427,0,0,1,.8.336.906.906,0,0,1,.295.666c0,.5-.323.973-1.128.973a1.048,1.048,0,0,1-.771-.3,1.585,1.585,0,0,0-.14.161c-.133.133-.14.14-.175.14-.077,0-.077-.049-.077-.168v-.924c0-.126,0-.175.091-.175.07,0,.077.028.1.118.133.6.386,1,.974,1,.545,0,.791-.28.791-.637,0-.5-.575-.616-.728-.645A1.846,1.846,0,0,1,229.384,81.974Z" transform="translate(-1.101 -1.625)"/><path class="cls-2" d="M235.741,80.664a1.468,1.468,0,0,1,1.4,1.562,1.5,1.5,0,0,1-1.442,1.583c-.652,0-1.464-.5-1.464-2.368,0-1.548.945-2.451,1.842-2.451.581,0,.889.336.889.756a.322.322,0,1,1-.644.014c0-.315.28-.315.386-.315a.725.725,0,0,0-.617-.28c-.357,0-1.226.252-1.226,2.024v.168A.968.968,0,0,1,235.741,80.664Zm.651,2.493a3.738,3.738,0,0,0-.007-1.9.676.676,0,0,0-.651-.434c-.631,0-.855.7-.855,1.246a3.423,3.423,0,0,0,.126,1.016.806.806,0,0,0,.694.525A.732.732,0,0,0,236.392,83.157Z" transform="translate(-1.101 -1.625)"/><path d="M49.051,58.65a1.467,1.467,0,0,1-1.6,1.312H44.639V59.74h.172c.553,0,.567-.078.567-.337V55.622c0-.258-.014-.337-.567-.337h-.172v-.222h2.626a1.44,1.44,0,0,1,1.592,1.212c0,.531-.495.99-1.191,1.127A1.407,1.407,0,0,1,49.051,58.65Zm-2.037-1.313a1.082,1.082,0,0,0,1.147-1.062.953.953,0,0,0-.947-.99h-.889c-.337,0-.352.05-.352.287v1.765Zm1.32,1.306a1.076,1.076,0,0,0-1.012-1.149H45.973v1.959c0,.237.015.287.352.287h.9A1.084,1.084,0,0,0,48.334,58.643Z" transform="translate(-1.101 -1.625)"/><path d="M51.54,56.791a.489.489,0,0,1,.53.438.3.3,0,0,1-.308.316.3.3,0,0,1-.309-.309.314.314,0,0,1,.165-.28.208.208,0,0,0-.078-.006c-.546,0-.847.638-.847,1.348v1.1c0,.259.014.337.545.337h.151v.222c-.287-.021-.624-.021-.911-.021-.2,0-.538.014-.818.021V59.74c.481,0,.559,0,.559-.323V57.494c0-.351-.057-.4-.559-.4v-.222l1-.08v.79A1.006,1.006,0,0,1,51.54,56.791Z" transform="translate(-1.101 -1.625)"/><path d="M53.713,60.041c-.452,0-1.148-.179-1.148-.76a1.043,1.043,0,0,1,.718-.932A3.482,3.482,0,0,1,54.6,58.09v-.265a.812.812,0,0,0-.76-.918,1.007,1.007,0,0,0-.775.329.325.325,0,0,1,.366.33.33.33,0,1,1-.66-.007c0-.473.495-.811,1.083-.811a1.369,1.369,0,0,1,.983.4,1.062,1.062,0,0,1,.258.846v1.436c0,.035.029.358.266.358.079,0,.258-.043.258-.459v-.4H55.8v.4a.608.608,0,0,1-.588.681.6.6,0,0,1-.559-.588A.993.993,0,0,1,53.713,60.041Zm-.6-.767a.618.618,0,0,0,.646.61.862.862,0,0,0,.839-.926V58.24C53.419,58.284,53.117,58.88,53.117,59.274Z" transform="translate(-1.101 -1.625)"/><path d="M56.08,57.093v-.222l1.011-.08v.754a1.133,1.133,0,0,1,1.062-.754.959.959,0,0,1,.754.266c.222.258.222.481.222,1.1v1.37c.007.215.186.215.559.215v.222c-.243-.007-.617-.021-.8-.021s-.56.014-.811.021V59.74c.481,0,.56,0,.56-.323V57.745c0-.408-.079-.795-.531-.795a1.047,1.047,0,0,0-.968,1.147v1.32c0,.323.078.323.559.323v.222c-.244-.007-.617-.021-.8-.021s-.56.014-.811.021V59.74c.481,0,.56,0,.56-.323V57.494C56.64,57.143,56.582,57.093,56.08,57.093Z" transform="translate(-1.101 -1.625)"/><path d="M61.682,59.862a.937.937,0,0,0,.94-.753c.014-.043.029-.072.093-.072.022,0,.094,0,.094.072a1.181,1.181,0,0,1-1.192.932,1.587,1.587,0,0,1-1.542-1.628,1.608,1.608,0,0,1,1.557-1.665c.552,0,1.1.28,1.1.768a.33.33,0,1,1-.659.007.323.323,0,0,1,.337-.33,1.17,1.17,0,0,0-.768-.265c-.38,0-.968.3-.968,1.471C60.671,59.554,61.3,59.862,61.682,59.862Z" transform="translate(-1.101 -1.625)"/><path d="M63.805,55.687c0-.352-.058-.4-.559-.4v-.222l1.033-.079v2.51a1.134,1.134,0,0,1,1.04-.7.955.955,0,0,1,.753.266c.223.258.223.481.223,1.1v1.37c.007.215.186.215.559.215v.222c-.244-.007-.617-.021-.8-.021s-.56.014-.811.021V59.74c.481,0,.56,0,.56-.323V57.745c0-.408-.079-.795-.531-.795A1.047,1.047,0,0,0,64.3,58.1v1.32c0,.323.079.323.56.323v.222c-.244-.007-.618-.021-.8-.021s-.559.014-.81.021V59.74c.48,0,.559,0,.559-.323Z" transform="translate(-1.101 -1.625)"/><path d="M71.5,59.4c0,.266.021.344.667.344h.229v.222c-.251-.021-.875-.021-1.162-.021s-.911,0-1.162.021V59.74h.23c.645,0,.667-.086.667-.344V55.68a2.156,2.156,0,0,1-.94.186v-.222a1.773,1.773,0,0,0,1.306-.459c.165,0,.165.014.165.186Z" transform="translate(-1.101 -1.625)"/><path d="M126.018,27.23a1.468,1.468,0,0,1-1.6,1.313h-2.812V28.32h.172c.552,0,.567-.079.567-.337V24.2c0-.258-.015-.337-.567-.337h-.172v-.222h2.625a1.44,1.44,0,0,1,1.593,1.212c0,.531-.5.99-1.191,1.126A1.41,1.41,0,0,1,126.018,27.23Zm-2.038-1.313a1.082,1.082,0,0,0,1.148-1.062.953.953,0,0,0-.947-.99h-.889c-.337,0-.352.051-.352.287v1.765Zm1.32,1.3a1.074,1.074,0,0,0-1.011-1.147H122.94v1.958c0,.237.015.287.352.287h.9A1.083,1.083,0,0,0,125.3,27.222Z" transform="translate(-1.101 -1.625)"/><path d="M128.506,25.372a.489.489,0,0,1,.531.437.3.3,0,0,1-.308.316.3.3,0,0,1-.309-.308.311.311,0,0,1,.165-.28c-.014-.008-.028-.008-.079-.008-.545,0-.846.639-.846,1.35v1.1c0,.258.014.337.545.337h.151v.223c-.287-.022-.624-.022-.911-.022-.2,0-.539.015-.818.022V28.32c.481,0,.559,0,.559-.323V26.075c0-.352-.057-.4-.559-.4V25.45l1-.078v.789A1.006,1.006,0,0,1,128.506,25.372Z" transform="translate(-1.101 -1.625)"/><path d="M130.68,28.622c-.452,0-1.148-.18-1.148-.761a1.046,1.046,0,0,1,.717-.933,3.507,3.507,0,0,1,1.32-.258v-.265a.813.813,0,0,0-.76-.919,1.006,1.006,0,0,0-.775.331c.33.007.366.243.366.33a.33.33,0,1,1-.66-.007c0-.474.5-.811,1.083-.811a1.368,1.368,0,0,1,.983.394,1.062,1.062,0,0,1,.258.847v1.435c0,.036.029.359.266.359.079,0,.258-.044.258-.46v-.4h.179v.4a.609.609,0,0,1-.588.682.6.6,0,0,1-.56-.589A.991.991,0,0,1,130.68,28.622Zm-.6-.768a.618.618,0,0,0,.646.61.862.862,0,0,0,.839-.926v-.717C130.385,26.864,130.084,27.459,130.084,27.854Z" transform="translate(-1.101 -1.625)"/><path d="M133.047,25.673V25.45l1.011-.078v.753a1.131,1.131,0,0,1,1.062-.753.955.955,0,0,1,.753.265c.223.259.223.481.223,1.1v1.37c.007.215.186.215.559.215v.223c-.243-.007-.617-.022-.8-.022s-.56.015-.811.022V28.32c.481,0,.56,0,.56-.323V26.326c0-.409-.079-.8-.531-.8a1.048,1.048,0,0,0-.969,1.148V28c0,.323.079.323.56.323v.223c-.244-.007-.617-.022-.8-.022s-.56.015-.811.022V28.32c.48,0,.559,0,.559-.323V26.075C133.606,25.723,133.549,25.673,133.047,25.673Z" transform="translate(-1.101 -1.625)"/><path d="M138.649,28.442a.937.937,0,0,0,.94-.753.082.082,0,0,1,.093-.071c.022,0,.093,0,.093.071a1.18,1.18,0,0,1-1.191.933,1.588,1.588,0,0,1-1.542-1.629,1.608,1.608,0,0,1,1.557-1.664c.552,0,1.1.28,1.1.767a.33.33,0,1,1-.66.008.325.325,0,0,1,.338-.331,1.172,1.172,0,0,0-.768-.265c-.38,0-.968.3-.968,1.47S138.269,28.442,138.649,28.442Z" transform="translate(-1.101 -1.625)"/><path d="M140.772,24.267c0-.351-.058-.4-.56-.4v-.222l1.034-.079v2.511a1.133,1.133,0,0,1,1.04-.7.957.957,0,0,1,.753.265c.223.259.223.481.223,1.1v1.37c.006.215.186.215.559.215v.223c-.244-.007-.617-.022-.8-.022s-.56.015-.811.022V28.32c.48,0,.56,0,.56-.323V26.326c0-.409-.08-.8-.531-.8a1.048,1.048,0,0,0-.969,1.148V28c0,.323.079.323.559.323v.223c-.243-.007-.617-.022-.8-.022s-.56.015-.811.022V28.32c.481,0,.56,0,.56-.323Z" transform="translate(-1.101 -1.625)"/><path d="M148.555,27.99a2.348,2.348,0,0,0,.681-.057,2.356,2.356,0,0,0,.158-.639h.179l-.2,1.249h-2.662c0-.172,0-.187.079-.266l1.378-1.535a2.574,2.574,0,0,0,.753-1.585c0-.589-.309-1.17-.962-1.17a1.033,1.033,0,0,0-.968.732.244.244,0,0,1,.093-.008.364.364,0,0,1,.38.374.377.377,0,1,1-.753-.022,1.326,1.326,0,0,1,1.342-1.3,1.409,1.409,0,0,1,1.52,1.393c0,.717-.43,1.1-1.549,2.094l-.76.739Z" transform="translate(-1.101 -1.625)"/><path class="cls-2" d="M174.981,97.28a1.433,1.433,0,0,1-1.562,1.282h-2.746v-.218h.168c.539,0,.554-.076.554-.329V94.324c0-.252-.015-.329-.554-.329h-.168v-.217h2.564a1.406,1.406,0,0,1,1.555,1.184c0,.518-.484.966-1.163,1.1A1.376,1.376,0,0,1,174.981,97.28ZM172.992,96a1.056,1.056,0,0,0,1.12-1.036.93.93,0,0,0-.924-.967h-.869c-.329,0-.343.049-.343.28V96Zm1.288,1.275a1.05,1.05,0,0,0-.987-1.121h-1.317v1.913c0,.231.014.279.343.279h.876A1.057,1.057,0,0,0,174.28,97.273Z" transform="translate(-1.101 -1.625)"/><path class="cls-2" d="M177.409,95.466a.477.477,0,0,1,.517.427.293.293,0,0,1-.3.308.289.289,0,0,1-.3-.3.3.3,0,0,1,.16-.273c-.014-.007-.027-.007-.076-.007-.532,0-.827.623-.827,1.317v1.078c0,.253.014.329.532.329h.147v.218c-.28-.021-.609-.021-.889-.021-.2,0-.526.014-.8.021v-.218c.469,0,.546,0,.546-.315V96.152c0-.343-.056-.392-.546-.392v-.217l.972-.077v.77A.983.983,0,0,1,177.409,95.466Z" transform="translate(-1.101 -1.625)"/><path class="cls-2" d="M179.529,98.639c-.441,0-1.121-.176-1.121-.743a1.021,1.021,0,0,1,.7-.91,3.39,3.39,0,0,1,1.288-.253v-.258a.793.793,0,0,0-.742-.9.983.983,0,0,0-.756.322.317.317,0,0,1,.356.322.322.322,0,1,1-.644-.007c0-.462.483-.791,1.058-.791a1.341,1.341,0,0,1,.96.385,1.038,1.038,0,0,1,.251.826v1.4c0,.035.029.35.26.35.076,0,.252-.042.252-.448v-.392h.175v.392a.6.6,0,0,1-.574.666.587.587,0,0,1-.547-.575A.969.969,0,0,1,179.529,98.639Zm-.581-.75a.6.6,0,0,0,.63.595.84.84,0,0,0,.819-.9v-.7C179.242,96.923,178.948,97.5,178.948,97.889Z" transform="translate(-1.101 -1.625)"/><path class="cls-2" d="M181.838,95.76v-.217l.988-.077V96.2a1.1,1.1,0,0,1,1.036-.735.932.932,0,0,1,.735.259c.218.252.218.469.218,1.071v1.338c.007.21.182.21.546.21v.218c-.238-.007-.6-.021-.784-.021s-.546.014-.791.021v-.218c.468,0,.546,0,.546-.315V96.4c0-.4-.078-.778-.519-.778a1.023,1.023,0,0,0-.945,1.121v1.288c0,.315.077.315.546.315v.218c-.238-.007-.6-.021-.785-.021s-.545.014-.791.021v-.218c.469,0,.546,0,.546-.315V96.152C182.384,95.809,182.329,95.76,181.838,95.76Z" transform="translate(-1.101 -1.625)"/><path class="cls-2" d="M187.306,98.463a.914.914,0,0,0,.917-.735c.014-.042.029-.07.091-.07.022,0,.092,0,.092.07a1.154,1.154,0,0,1-1.163.911,1.55,1.55,0,0,1-1.506-1.59,1.569,1.569,0,0,1,1.519-1.625c.54,0,1.073.273,1.073.749a.323.323,0,1,1-.645.007.316.316,0,0,1,.329-.322,1.141,1.141,0,0,0-.749-.259c-.372,0-.946.294-.946,1.436S186.934,98.463,187.306,98.463Z" transform="translate(-1.101 -1.625)"/><path class="cls-2" d="M189.378,94.387c0-.343-.057-.392-.547-.392v-.217l1.008-.077v2.451a1.109,1.109,0,0,1,1.016-.686.932.932,0,0,1,.735.259c.217.252.217.469.217,1.071v1.338c.007.21.183.21.547.21v.218c-.238-.007-.6-.021-.785-.021s-.546.014-.791.021v-.218c.47,0,.546,0,.546-.315V96.4c0-.4-.076-.778-.518-.778a1.023,1.023,0,0,0-.945,1.121v1.288c0,.315.076.315.546.315v.218c-.238-.007-.6-.021-.784-.021s-.547.014-.792.021v-.218c.469,0,.547,0,.547-.315Z" transform="translate(-1.101 -1.625)"/><path class="cls-2" d="M196.623,95.571a1.468,1.468,0,0,1,1.4,1.562,1.5,1.5,0,0,1-1.443,1.583c-.652,0-1.464-.5-1.464-2.368,0-1.548.946-2.451,1.843-2.451.581,0,.889.336.889.756a.322.322,0,1,1-.644.015c0-.316.28-.316.384-.316a.722.722,0,0,0-.616-.28c-.357,0-1.225.252-1.225,2.024v.168A.966.966,0,0,1,196.623,95.571Zm.651,2.494a3.742,3.742,0,0,0-.007-1.9.675.675,0,0,0-.651-.434c-.63,0-.855.7-.855,1.247a3.417,3.417,0,0,0,.126,1.015.808.808,0,0,0,.694.526A.734.734,0,0,0,197.274,98.065Z" transform="translate(-1.101 -1.625)"/><line class="cls-3" x1="85.409" y1="45.921" x2="85.409" y2="75.855"/><path d="M82.3,43.836a1.466,1.466,0,0,1-1.6,1.312H77.891v-.223h.172c.553,0,.567-.078.567-.336V40.808c0-.258-.014-.338-.567-.338h-.172v-.222h2.626a1.44,1.44,0,0,1,1.592,1.212c0,.531-.495.99-1.19,1.127A1.408,1.408,0,0,1,82.3,43.836Zm-2.037-1.314a1.082,1.082,0,0,0,1.148-1.062.954.954,0,0,0-.947-.99h-.89c-.337,0-.351.051-.351.287v1.765Zm1.32,1.306a1.075,1.075,0,0,0-1.012-1.148H79.226v1.959c0,.237.014.286.351.286h.9A1.083,1.083,0,0,0,81.586,43.828Z" transform="translate(-1.101 -1.625)"/><path d="M84.591,45.227c-1.09,0-1.09-.652-1.09-1.212V42.939c0-.639,0-.66-.56-.66v-.223L84,41.977v2.382c0,.373.028.711.631.711.523,0,.868-.488.868-1.113V42.68c0-.351-.058-.4-.56-.4v-.223l1.055-.079v2.547c0,.352.057.4.559.4v.223l-1.033.079v-.645A.978.978,0,0,1,84.591,45.227Z" transform="translate(-1.101 -1.625)"/><path d="M87.238,43.426a.762.762,0,0,1-.309-.609c0-.4.273-.883,1.148-.883a1.1,1.1,0,0,1,.674.2.831.831,0,0,0,.122-.115c.094-.086.108-.086.144-.086.079,0,.079.05.079.173v.724c0,.136,0,.172-.094.172-.014,0-.079,0-.086-.064a.791.791,0,0,0-.839-.868c-.617,0-.8.294-.8.545,0,.416.481.509.883.588a1.466,1.466,0,0,1,.818.344.93.93,0,0,1,.3.682c0,.516-.33,1-1.155,1a1.071,1.071,0,0,1-.789-.308,1.9,1.9,0,0,0-.144.165c-.136.136-.143.143-.179.143-.079,0-.079-.05-.079-.172v-.947c0-.129,0-.179.093-.179.072,0,.079.028.1.122.136.609.394,1.019,1,1.019.56,0,.811-.288.811-.654,0-.516-.589-.631-.747-.66A1.867,1.867,0,0,1,87.238,43.426Z" transform="translate(-1.101 -1.625)"/><path d="M94.11,44.6a2.312,2.312,0,0,0,.681-.058,2.357,2.357,0,0,0,.158-.638h.179l-.2,1.248H92.266c0-.172,0-.187.079-.265l1.377-1.535a2.569,2.569,0,0,0,.753-1.586c0-.588-.308-1.169-.961-1.169a1.033,1.033,0,0,0-.968.731.274.274,0,0,1,.093-.007.363.363,0,0,1,.38.373.377.377,0,1,1-.753-.021,1.326,1.326,0,0,1,1.341-1.3,1.409,1.409,0,0,1,1.521,1.392c0,.717-.43,1.1-1.549,2.095l-.761.739Z" transform="translate(-1.101 -1.625)"/><line class="cls-4" x1="13.591" y1="60.888" x2="85.54" y2="60.888"/><line class="cls-3" x1="155.324" y1="14.549" x2="155.324" y2="44.482"/><polyline class="cls-5" points="155.177 29.515 118.073 29.515 116.273 29.515 116.271 53.361 86.125 53.362"/><line class="cls-3" x1="227.602" y1="7.257" x2="227.602" y2="37.19"/><line class="cls-4" x1="155.653" y1="22.224" x2="227.602" y2="22.224"/><line class="cls-3" x1="155.324" y1="107.228" x2="155.324" y2="77.294"/><line class="cls-3" x1="227.602" y1="114.576" x2="227.602" y2="84.643"/><line class="cls-4" x1="155.653" y1="99.61" x2="227.602" y2="99.61"/><polyline class="cls-5" points="156.188 37.042 177.215 37.042 177.215 61.151 177.215 84.837 156.222 84.837"/><path d="M182.662,19.724a1.467,1.467,0,0,1-1.6,1.313H178.25v-.222h.172c.552,0,.566-.079.566-.338V16.7c0-.258-.014-.337-.566-.337h-.172v-.222h2.625a1.439,1.439,0,0,1,1.593,1.212c0,.531-.495.99-1.191,1.126A1.409,1.409,0,0,1,182.662,19.724Zm-2.038-1.312a1.082,1.082,0,0,0,1.148-1.062.953.953,0,0,0-.947-.99h-.889c-.338,0-.352.05-.352.287v1.765Zm1.32,1.3a1.075,1.075,0,0,0-1.011-1.148h-1.349v1.959c0,.237.014.287.352.287h.9A1.085,1.085,0,0,0,181.944,19.717Z" transform="translate(-1.101 -1.625)"/><path d="M185.151,17.866a.489.489,0,0,1,.53.438.3.3,0,0,1-.308.316.3.3,0,0,1-.309-.309.313.313,0,0,1,.165-.28.18.18,0,0,0-.078-.007c-.546,0-.847.639-.847,1.349v1.1c0,.259.014.338.545.338H185v.222c-.287-.021-.625-.021-.911-.021-.2,0-.539.014-.818.021v-.222c.48,0,.559,0,.559-.323V18.569c0-.352-.057-.4-.559-.4v-.223l1-.079v.79A1,1,0,0,1,185.151,17.866Z" transform="translate(-1.101 -1.625)"/><path d="M187.323,21.116c-.451,0-1.147-.18-1.147-.76a1.045,1.045,0,0,1,.717-.933,3.469,3.469,0,0,1,1.32-.258V18.9a.813.813,0,0,0-.76-.919,1.008,1.008,0,0,0-.775.33c.33.007.365.244.365.33a.33.33,0,1,1-.659-.007c0-.473.5-.811,1.083-.811a1.374,1.374,0,0,1,.983.394,1.064,1.064,0,0,1,.258.847V20.5c0,.036.029.359.266.359.079,0,.258-.043.258-.459V20h.18v.4a.609.609,0,0,1-.589.681.6.6,0,0,1-.56-.588A.991.991,0,0,1,187.323,21.116Zm-.595-.767a.618.618,0,0,0,.646.609.861.861,0,0,0,.839-.925v-.718C187.029,19.359,186.728,19.954,186.728,20.349Z" transform="translate(-1.101 -1.625)"/><path d="M189.691,18.168v-.223l1.012-.079v.754a1.13,1.13,0,0,1,1.061-.754.953.953,0,0,1,.753.266c.223.258.223.481.223,1.1V20.6c.007.215.186.215.559.215v.222c-.244-.007-.616-.021-.8-.021s-.56.014-.81.021v-.222c.48,0,.559,0,.559-.323V18.82c0-.408-.079-.8-.531-.8a1.048,1.048,0,0,0-.969,1.148v1.32c0,.323.079.323.559.323v.222c-.243-.007-.616-.021-.8-.021s-.559.014-.81.021v-.222c.48,0,.559,0,.559-.323V18.569C190.25,18.217,190.193,18.168,189.691,18.168Z" transform="translate(-1.101 -1.625)"/><path d="M195.293,20.936a.936.936,0,0,0,.94-.753c.014-.042.028-.071.093-.071.021,0,.093,0,.093.071a1.18,1.18,0,0,1-1.191.933,1.588,1.588,0,0,1-1.542-1.629,1.608,1.608,0,0,1,1.557-1.664c.552,0,1.1.28,1.1.768a.33.33,0,1,1-.659.007.323.323,0,0,1,.336-.33A1.172,1.172,0,0,0,195.25,18c-.381,0-.969.3-.969,1.471S194.913,20.936,195.293,20.936Z" transform="translate(-1.101 -1.625)"/><path d="M197.416,16.761c0-.351-.058-.4-.56-.4v-.222l1.034-.08v2.511a1.134,1.134,0,0,1,1.039-.7.959.959,0,0,1,.754.266c.222.258.222.481.222,1.1V20.6c.007.215.187.215.56.215v.222c-.244-.007-.618-.021-.8-.021s-.56.014-.812.021v-.222c.481,0,.56,0,.56-.323V18.82c0-.408-.079-.8-.53-.8a1.048,1.048,0,0,0-.969,1.148v1.32c0,.323.079.323.56.323v.222c-.244-.007-.618-.021-.8-.021s-.56.014-.811.021v-.222c.481,0,.56,0,.56-.323Z" transform="translate(-1.101 -1.625)"/><path d="M203.2,19.854v-.223l2.2-3.365c.058-.085.08-.085.144-.085.115,0,.115.042.115.186v3.264h.717v.223h-.717v.623c0,.259.014.338.546.338h.15v.222c-.294-.021-.675-.021-.976-.021s-.674,0-.969.021v-.222h.151c.531,0,.545-.079.545-.338v-.623Zm1.952-2.9L203.4,19.631h1.751Z" transform="translate(-1.101 -1.625)"/><polyline class="cls-5" points="154.559 92.261 117.455 92.261 115.655 92.261 115.653 68.415 85.507 68.414"/><rect class="cls-1" x="152.489" y="109.047" width="5.669" height="5.669"/><path class="cls-2" d="M147.7,123.252l1.534-3.943c.049-.126.049-.133.231-.133h1.184v.217h-.168c-.54,0-.554.078-.554.329v3.691c0,.253.014.329.554.329h.168v.218c-.26-.021-.729-.021-1-.021s-.749,0-1.008.021v-.218h.168c.539,0,.553-.076.553-.329v-4.02h-.007l-1.723,4.433c-.028.078-.048.134-.126.134s-.1-.063-.14-.155l-1.688-4.355h-.007v3.774c0,.189,0,.518.721.518v.218c-.245-.007-.588-.021-.819-.021s-.574.014-.82.021v-.218c.722,0,.722-.329.722-.518v-3.5c0-.251-.014-.329-.554-.329h-.168v-.217h1.184c.161,0,.183,0,.245.154Z" transform="translate(-1.101 -1.625)"/><path class="cls-2" d="M151.888,123.392a.943.943,0,0,0,.791.47.987.987,0,0,0,.946-.722c.014-.056.028-.1.091-.1a.081.081,0,0,1,.091.084,1.2,1.2,0,0,1-1.17.911,1.581,1.581,0,0,1-1.54-1.618,1.53,1.53,0,0,1,1.456-1.6,1.242,1.242,0,0,1,1.254,1.373c0,.147-.02.147-.175.147h-1.954A2.038,2.038,0,0,0,151.888,123.392Zm1.457-1.2c0-.273-.07-1.219-.792-1.219-.238,0-.826.175-.868,1.219Z" transform="translate(-1.101 -1.625)"/><path class="cls-2" d="M155.22,123.105c0,.119,0,.757.47.757.259,0,.469-.266.469-.785v-.385h.174v.4c0,.448-.195.946-.693.946a.847.847,0,0,1-.9-.946v-1.933h-.595V121c.686-.028.9-.777.9-1.351h.175v1.288h1v.217h-1Z" transform="translate(-1.101 -1.625)"/><path class="cls-2" d="M157.711,123.392a.943.943,0,0,0,.792.47.987.987,0,0,0,.946-.722c.013-.056.028-.1.09-.1a.082.082,0,0,1,.092.084,1.2,1.2,0,0,1-1.17.911,1.582,1.582,0,0,1-1.541-1.618,1.531,1.531,0,0,1,1.457-1.6,1.243,1.243,0,0,1,1.254,1.373c0,.147-.021.147-.176.147H157.5A2.038,2.038,0,0,0,157.711,123.392Zm1.457-1.2c0-.273-.069-1.219-.791-1.219-.238,0-.826.175-.868,1.219Z" transform="translate(-1.101 -1.625)"/><path class="cls-2" d="M161.864,120.864a.477.477,0,0,1,.517.427.294.294,0,0,1-.3.308.289.289,0,0,1-.3-.3.3.3,0,0,1,.16-.273c-.014-.007-.027-.007-.076-.007-.533,0-.827.623-.827,1.317v1.078c0,.253.014.329.532.329h.147v.218c-.28-.021-.609-.021-.889-.021-.2,0-.526.014-.8.021v-.218c.468,0,.546,0,.546-.314v-1.877c0-.344-.056-.393-.546-.393v-.217l.972-.077v.771A.983.983,0,0,1,161.864,120.864Z" transform="translate(-1.101 -1.625)"/><path class="cls-2" d="M168.1,122.762a1.43,1.43,0,0,1-1.492,1.352,1.277,1.277,0,0,1-1.415-1.1.393.393,0,1,1,.785-.014.385.385,0,0,1-.463.386,1.276,1.276,0,0,0,1.072.532c.308,0,.791-.2.791-1.156,0-.686-.258-1.163-.833-1.163h-.308c-.119,0-.168,0-.168-.077s.049-.076.105-.084.217-.013.273-.021a.68.68,0,0,0,.624-.364,1.756,1.756,0,0,0,.195-.8c0-.631-.385-.784-.672-.784a1.133,1.133,0,0,0-.932.434c.106,0,.435,0,.435.35a.358.358,0,1,1-.715-.007c0-.532.532-.953,1.24-.953.672,0,1.289.392,1.289.967a1.349,1.349,0,0,1-.981,1.232A1.351,1.351,0,0,1,168.1,122.762Z" transform="translate(-1.101 -1.625)"/><rect class="cls-1" x="25.809" y="58.189" width="5.669" height="5.669"/><path class="cls-2" d="M21.149,72.4l1.534-3.943c.049-.126.049-.133.231-.133H24.1v.217H23.93c-.539,0-.553.077-.553.329v3.691c0,.252.014.329.553.329H24.1v.217c-.259-.021-.728-.021-1-.021s-.75,0-1.009.021v-.217h.168c.539,0,.553-.077.553-.329v-4.02H22.8l-1.724,4.433c-.027.077-.048.133-.125.133s-.105-.063-.141-.154L19.125,68.6h-.006v3.775c0,.189,0,.518.721.518v.217c-.245-.007-.589-.021-.82-.021s-.574.014-.819.021v-.217c.721,0,.721-.329.721-.518v-3.5c0-.252-.014-.329-.553-.329H18.2v-.217h1.184c.161,0,.182,0,.245.154Z" transform="translate(-1.101 -1.625)"/><path class="cls-2" d="M25.341,72.542a.944.944,0,0,0,.792.469.988.988,0,0,0,.946-.721c.013-.056.027-.1.09-.1a.082.082,0,0,1,.092.084,1.2,1.2,0,0,1-1.17.91,1.581,1.581,0,0,1-1.541-1.618,1.53,1.53,0,0,1,1.457-1.6,1.242,1.242,0,0,1,1.254,1.372c0,.148-.021.148-.176.148H25.131A2.038,2.038,0,0,0,25.341,72.542Zm1.457-1.2c0-.273-.07-1.218-.791-1.218-.239,0-.826.175-.869,1.218Z" transform="translate(-1.101 -1.625)"/><path class="cls-2" d="M28.673,72.255c0,.119,0,.756.47.756.259,0,.469-.266.469-.784v-.385h.175v.4c0,.448-.2.945-.693.945a.848.848,0,0,1-.9-.945V70.307h-.6v-.153c.686-.028.9-.778.9-1.352h.175v1.289h1v.216h-1Z" transform="translate(-1.101 -1.625)"/><path class="cls-2" d="M31.165,72.542a.943.943,0,0,0,.791.469.987.987,0,0,0,.946-.721c.014-.056.028-.1.091-.1a.081.081,0,0,1,.091.084,1.2,1.2,0,0,1-1.17.91,1.581,1.581,0,0,1-1.54-1.618,1.53,1.53,0,0,1,1.456-1.6,1.242,1.242,0,0,1,1.254,1.372c0,.148-.021.148-.175.148H30.955A2.038,2.038,0,0,0,31.165,72.542Zm1.457-1.2c0-.273-.07-1.218-.792-1.218-.238,0-.826.175-.868,1.218Z" transform="translate(-1.101 -1.625)"/><path class="cls-2" d="M35.317,70.014a.478.478,0,0,1,.518.427.294.294,0,0,1-.3.308.29.29,0,0,1-.3-.3.3.3,0,0,1,.16-.273c-.013-.007-.027-.007-.076-.007-.532,0-.827.623-.827,1.316v1.079c0,.252.014.329.532.329h.147v.217c-.279-.021-.609-.021-.889-.021-.2,0-.525.014-.8.021v-.217c.469,0,.546,0,.546-.315V70.7c0-.343-.056-.393-.546-.393v-.216l.973-.077v.77A.981.981,0,0,1,35.317,70.014Z" transform="translate(-1.101 -1.625)"/><path class="cls-2" d="M40.412,72.556c0,.259.021.336.652.336h.224v.217c-.245-.021-.855-.021-1.135-.021s-.889,0-1.134.021v-.217h.224c.63,0,.651-.084.651-.336V68.928a2.1,2.1,0,0,1-.917.182v-.217a1.73,1.73,0,0,0,1.274-.448c.161,0,.161.014.161.182Z" transform="translate(-1.101 -1.625)"/><path class="cls-2" d="M204.639,110.981l1.535-3.943c.048-.126.048-.134.23-.134h1.184v.218h-.168c-.539,0-.553.077-.553.329v3.691c0,.252.014.329.553.329h.168v.217c-.259-.021-.728-.021-1-.021s-.75,0-1.009.021v-.217h.168c.539,0,.554-.077.554-.329v-4.02h-.007l-1.723,4.433c-.028.077-.049.133-.126.133s-.1-.063-.141-.154l-1.688-4.356h-.006v3.775c0,.189,0,.518.721.518v.217c-.245-.007-.589-.021-.82-.021s-.574.014-.819.021v-.217c.721,0,.721-.329.721-.518v-3.5c0-.252-.014-.329-.553-.329h-.168V106.9h1.184c.161,0,.182,0,.245.155Z" transform="translate(-1.101 -1.625)"/><path class="cls-2" d="M208.831,111.121a.944.944,0,0,0,.792.469.988.988,0,0,0,.946-.721c.013-.056.027-.1.09-.1a.082.082,0,0,1,.092.084,1.2,1.2,0,0,1-1.17.91,1.581,1.581,0,0,1-1.541-1.618,1.531,1.531,0,0,1,1.457-1.6,1.243,1.243,0,0,1,1.254,1.373c0,.147-.021.147-.176.147h-1.954A2.042,2.042,0,0,0,208.831,111.121Zm1.457-1.2c0-.273-.07-1.218-.791-1.218-.239,0-.826.175-.869,1.218Z" transform="translate(-1.101 -1.625)"/><path class="cls-2" d="M212.163,110.834c0,.119,0,.756.47.756.259,0,.469-.266.469-.784v-.385h.175v.4c0,.448-.2.945-.693.945a.848.848,0,0,1-.9-.945v-1.934h-.595v-.153c.686-.028.9-.778.9-1.352h.175v1.289h1v.216h-1Z" transform="translate(-1.101 -1.625)"/><path class="cls-2" d="M214.655,111.121a.943.943,0,0,0,.791.469.987.987,0,0,0,.946-.721c.014-.056.028-.1.091-.1a.081.081,0,0,1,.091.084,1.2,1.2,0,0,1-1.17.91,1.581,1.581,0,0,1-1.54-1.618,1.531,1.531,0,0,1,1.457-1.6,1.242,1.242,0,0,1,1.253,1.373c0,.147-.021.147-.175.147h-1.954A2.042,2.042,0,0,0,214.655,111.121Zm1.457-1.2c0-.273-.07-1.218-.791-1.218-.239,0-.827.175-.869,1.218Z" transform="translate(-1.101 -1.625)"/><path class="cls-2" d="M218.807,108.592a.478.478,0,0,1,.518.428.294.294,0,0,1-.3.308.29.29,0,0,1-.3-.3.3.3,0,0,1,.16-.273c-.013-.007-.027-.007-.076-.007-.532,0-.827.623-.827,1.316v1.079c0,.252.014.329.532.329h.147v.217c-.279-.021-.609-.021-.889-.021-.2,0-.525.014-.8.021v-.217c.469,0,.546,0,.546-.315v-1.877c0-.343-.056-.393-.546-.393v-.216l.973-.078v.771A.982.982,0,0,1,218.807,108.592Z" transform="translate(-1.101 -1.625)"/><path class="cls-2" d="M222.04,110.532v-.216l2.15-3.286c.056-.084.077-.084.14-.084.112,0,.112.042.112.183v3.187h.7v.216h-.7v.61c0,.252.014.329.532.329h.147v.217c-.287-.021-.658-.021-.952-.021s-.659,0-.946.021v-.217h.147c.518,0,.533-.077.533-.329v-.61Zm1.905-2.829-1.709,2.613h1.709Z" transform="translate(-1.101 -1.625)"/><rect class="cls-1" x="209.481" y="96.775" width="5.669" height="5.669"/><path class="cls-2" d="M182.577,53.224a1.432,1.432,0,0,1-1.282-1.561V48.917h.217v.169c0,.539.077.552.329.552h3.691c.252,0,.329-.013.329-.552v-.169h.218V51.48a1.406,1.406,0,0,1-1.184,1.555c-.519,0-.967-.483-1.1-1.162A1.374,1.374,0,0,1,182.577,53.224Zm1.281-1.989a1.057,1.057,0,0,0,1.037,1.121.93.93,0,0,0,.966-.925v-.868c0-.329-.048-.344-.28-.344h-1.723Zm-1.274,1.289a1.049,1.049,0,0,0,1.12-.987V50.219h-1.912c-.231,0-.28.015-.28.344v.875A1.058,1.058,0,0,0,182.584,52.524Z" transform="translate(-1.101 -1.625)"/><path class="cls-2" d="M184.391,55.652a.479.479,0,0,1-.428.519.294.294,0,0,1-.308-.3.29.29,0,0,1,.3-.3.3.3,0,0,1,.273.161.205.205,0,0,0,.006-.077c0-.532-.623-.826-1.316-.826h-1.079c-.252,0-.329.013-.329.532v.147H181.3c.021-.28.021-.609.021-.889,0-.2-.014-.526-.021-.8h.217c0,.47,0,.546.315.546H183.7c.343,0,.393-.056.393-.546h.217l.077.974h-.771A.98.98,0,0,1,184.391,55.652Z" transform="translate(-1.101 -1.625)"/><path class="cls-2" d="M181.218,57.772c0-.44.175-1.12.742-1.12a1.02,1.02,0,0,1,.911.7,3.415,3.415,0,0,1,.252,1.289h.259a.793.793,0,0,0,.9-.742.984.984,0,0,0-.321-.757.319.319,0,0,1-.323.358.323.323,0,1,1,.007-.645c.463,0,.792.483.792,1.058a1.338,1.338,0,0,1-.386.959,1.033,1.033,0,0,1-.826.253h-1.4c-.035,0-.35.027-.35.258,0,.078.042.252.448.252h.393v.175h-.393a.594.594,0,0,1-.665-.574.586.586,0,0,1,.574-.546A.969.969,0,0,1,181.218,57.772Zm.749-.581a.6.6,0,0,0-.595.631.841.841,0,0,0,.9.819h.7C182.934,57.485,182.353,57.191,181.967,57.191Z" transform="translate(-1.101 -1.625)"/><path class="cls-2" d="M184.1,60.082h.217l.077.987h-.736a1.1,1.1,0,0,1,.736,1.037.928.928,0,0,1-.26.735c-.252.217-.469.217-1.071.217h-1.338c-.21.007-.21.183-.21.547H181.3c.007-.238.021-.6.021-.785s-.014-.546-.021-.791h.217c0,.47,0,.546.315.546h1.632c.4,0,.777-.076.777-.518a1.022,1.022,0,0,0-1.12-.945h-1.289c-.315,0-.315.076-.315.546H181.3c.007-.238.021-.6.021-.784s-.014-.547-.021-.792h.217c0,.469,0,.547.315.547H183.7C184.047,60.629,184.1,60.572,184.1,60.082Z" transform="translate(-1.101 -1.625)"/><path class="cls-2" d="M181.393,65.549a.915.915,0,0,0,.735.918c.042.014.07.028.07.091,0,.021,0,.091-.07.091a1.152,1.152,0,0,1-.91-1.162,1.55,1.55,0,0,1,1.59-1.506,1.57,1.57,0,0,1,1.625,1.52c0,.539-.273,1.071-.75,1.071a.323.323,0,1,1-.007-.645.317.317,0,0,1,.323.329,1.137,1.137,0,0,0,.258-.749c0-.371-.294-.945-1.435-.945S181.393,65.178,181.393,65.549Z" transform="translate(-1.101 -1.625)"/><path class="cls-2" d="M185.469,67.621c.344,0,.392-.056.392-.546h.218l.077,1.008H183.7a1.108,1.108,0,0,1,.687,1.015.93.93,0,0,1-.26.736c-.252.217-.469.217-1.071.217h-1.338c-.21.007-.21.182-.21.546H181.3c.007-.238.021-.6.021-.784s-.014-.546-.021-.791h.217c0,.469,0,.546.315.546h1.632c.4,0,.777-.077.777-.519a1.022,1.022,0,0,0-1.12-.945h-1.289c-.315,0-.315.077-.315.546H181.3c.007-.237.021-.6.021-.784s-.014-.546-.021-.791h.217c0,.469,0,.546.315.546Z" transform="translate(-1.101 -1.625)"/><path class="cls-2" d="M181.141,74.684a1.285,1.285,0,0,1,1.281-1.267.347.347,0,1,1-.315.343.287.287,0,0,1,.015-.119,1.091,1.091,0,0,0-.785,1.03.876.876,0,0,0,.455.749,2.037,2.037,0,0,0,.96.168,2.171,2.171,0,0,0,.882-.125.688.688,0,0,0,.449-.6,1.053,1.053,0,0,0-.491-.9c-.042-.028-.063-.042-.063-.09,0-.1.056-.1.182-.1h2.073c.113,0,.169,0,.169.07a.206.206,0,0,1-.021.084,2.263,2.263,0,0,0-.2.932,2.311,2.311,0,0,0,.2.952.106.106,0,0,1,.02.056.068.068,0,0,1-.077.07,1.528,1.528,0,0,1-.728-1.351,2.226,2.226,0,0,1,.091-.6h-1.366a1.23,1.23,0,0,1,.357.889,1.437,1.437,0,0,1-1.533,1.332A1.548,1.548,0,0,1,181.141,74.684Z" transform="translate(-1.101 -1.625)"/></svg>