<svg id="Layer_1" data-name="Layer 1" xmlns="http://www.w3.org/2000/svg" viewBox="0 0 231.81 92.371"><defs><style>.cls-1,.cls-10,.cls-3,.cls-4,.cls-5,.cls-9{fill:none;}.cls-1,.cls-3{stroke:#010101;}.cls-1,.cls-10,.cls-2,.cls-3,.cls-4,.cls-5,.cls-7,.cls-9{stroke-miterlimit:10;}.cls-2{fill:#fff;}.cls-2,.cls-4,.cls-5{stroke:#231f20;}.cls-3{stroke-width:1.9px;}.cls-5{stroke-width:0.7px;}.cls-6{fill:#231f20;}.cls-7,.cls-8{fill:#be1e2d;}.cls-7{stroke:#be1e2d;}.cls-9{stroke:#000;}.cls-10{stroke:#ed1c24;}</style></defs><line class="cls-1" x1="155.449" y1="22.381" x2="159.159" y2="22.381"/><line class="cls-2" x1="128.962" y1="22.381" x2="132.061" y2="22.381"/><line class="cls-2" x1="63.986" y1="22.381" x2="108.739" y2="22.381"/><path class="cls-2" d="M74.441,23.967" transform="translate(-1.712 -1.586)"/><path class="cls-2" d="M62.883,23.967" transform="translate(-1.712 -1.586)"/><line class="cls-2" x1="41.117" y1="22.381" x2="43.763" y2="22.381"/><line class="cls-3" x1="40.6" y1="14.898" x2="40.6" y2="44.832"/><line class="cls-4" x1="43.857" y1="37.349" x2="40.463" y2="37.348"/><polyline class="cls-4" points="78.811 44.999 78.811 37.349 64.082 37.349"/><line class="cls-3" x1="71.327" y1="68.115" x2="101.261" y2="68.115"/><line class="cls-3" x1="132.057" y1="14.898" x2="132.057" y2="44.832"/><line class="cls-1" x1="132.965" y1="22.381" x2="135.299" y2="22.381"/><line class="cls-1" x1="207.971" y1="22.381" x2="212.165" y2="22.381"/><path d="M38.213,12.852a1.466,1.466,0,0,1-1.6,1.313H33.8v-.222h.172c.553,0,.567-.079.567-.338V9.825c0-.258-.014-.337-.567-.337H33.8V9.266h2.626a1.439,1.439,0,0,1,1.592,1.212c0,.531-.495.99-1.19,1.126A1.408,1.408,0,0,1,38.213,12.852ZM36.176,11.54a1.083,1.083,0,0,0,1.148-1.062.953.953,0,0,0-.948-.99h-.889c-.337,0-.352.05-.352.287V11.54Zm1.32,1.305A1.075,1.075,0,0,0,36.484,11.7H35.135v1.959c0,.237.015.287.352.287h.9A1.085,1.085,0,0,0,37.5,12.845Z" transform="translate(-1.712 -1.586)"/><path d="M40.5,14.244c-1.091,0-1.091-.653-1.091-1.212V11.956c0-.639,0-.66-.559-.66v-.223l1.054-.079v2.382c0,.373.029.71.631.71.524,0,.869-.488.869-1.111V11.7c0-.352-.058-.4-.56-.4v-.223l1.055-.079v2.547c0,.352.057.4.559.4v.222l-1.033.079V13.6A.979.979,0,0,1,40.5,14.244Z" transform="translate(-1.712 -1.586)"/><path d="M43.148,12.443a.764.764,0,0,1-.309-.61c0-.4.273-.882,1.148-.882a1.1,1.1,0,0,1,.674.2.887.887,0,0,0,.122-.115c.093-.086.108-.086.144-.086.078,0,.078.051.078.172v.725c0,.136,0,.172-.093.172-.014,0-.079,0-.086-.064a.791.791,0,0,0-.839-.869c-.617,0-.8.294-.8.546,0,.416.481.509.883.588a1.466,1.466,0,0,1,.818.344.925.925,0,0,1,.3.682c0,.517-.33,1-1.155,1a1.071,1.071,0,0,1-.789-.308,2.063,2.063,0,0,0-.144.164c-.136.137-.143.144-.179.144-.079,0-.079-.05-.079-.172v-.947c0-.129,0-.179.093-.179.072,0,.079.029.1.121.137.61.4,1.019,1,1.019.56,0,.811-.287.811-.652,0-.517-.589-.632-.747-.66A1.875,1.875,0,0,1,43.148,12.443Z" transform="translate(-1.712 -1.586)"/><path d="M49.926,13.6c0,.266.022.345.667.345h.23v.222c-.251-.021-.875-.021-1.163-.021s-.91,0-1.161.021v-.222h.229c.646,0,.667-.086.667-.345V9.882a2.143,2.143,0,0,1-.94.187V9.846a1.773,1.773,0,0,0,1.306-.459c.165,0,.165.014.165.187Z" transform="translate(-1.712 -1.586)"/><line class="cls-4" x1="152.972" y1="36.848" x2="152.972" y2="51.85"/><path class="cls-4" d="M162.043,60.857a7.088,7.088,0,1,0-7.088,7.087A7.087,7.087,0,0,0,162.043,60.857Z" transform="translate(-1.712 -1.586)"/><path class="cls-5" d="M159.915,60.857a4.96,4.96,0,1,0-4.96,4.96A4.959,4.959,0,0,0,159.915,60.857Z" transform="translate(-1.712 -1.586)"/><path class="cls-6" d="M156.493,63.252a3.272,3.272,0,0,1-1.352.243,2.393,2.393,0,0,1-2.53-2.59,2.549,2.549,0,0,1,2.675-2.689,2.749,2.749,0,0,1,1.215.228l-.16.539a2.411,2.411,0,0,0-1.033-.212,1.9,1.9,0,0,0-2,2.111,1.86,1.86,0,0,0,1.966,2.059,2.653,2.653,0,0,0,1.08-.213Z" transform="translate(-1.712 -1.586)"/><path d="M109.381,70.838a1.468,1.468,0,0,1-1.6,1.313h-2.812v-.223h.172c.553,0,.567-.079.567-.337V67.81c0-.258-.014-.337-.567-.337h-.172v-.222H107.6a1.44,1.44,0,0,1,1.592,1.212c0,.531-.5.99-1.19,1.126A1.41,1.41,0,0,1,109.381,70.838Zm-2.037-1.314a1.082,1.082,0,0,0,1.148-1.061.954.954,0,0,0-.948-.99h-.889c-.337,0-.352.05-.352.287v1.764Zm1.32,1.306a1.074,1.074,0,0,0-1.012-1.147H106.3v1.958c0,.237.015.287.352.287h.9A1.084,1.084,0,0,0,108.664,70.83Z" transform="translate(-1.712 -1.586)"/><path d="M111.669,72.229c-1.091,0-1.091-.652-1.091-1.212V69.941c0-.639,0-.66-.559-.66v-.223l1.054-.078v2.381c0,.373.029.711.631.711.524,0,.869-.488.869-1.112V69.683c0-.352-.058-.4-.56-.4v-.223l1.055-.078v2.546c0,.352.057.4.559.4v.223l-1.033.078v-.645A.979.979,0,0,1,111.669,72.229Z" transform="translate(-1.712 -1.586)"/><path d="M114.315,70.429a.767.767,0,0,1-.308-.61c0-.4.273-.882,1.148-.882a1.108,1.108,0,0,1,.674.2.831.831,0,0,0,.122-.115c.093-.085.108-.085.144-.085.079,0,.079.05.079.172v.724c0,.137,0,.172-.094.172-.014,0-.079,0-.086-.064a.791.791,0,0,0-.839-.868c-.617,0-.8.294-.8.545,0,.416.481.509.883.589a1.458,1.458,0,0,1,.818.343.93.93,0,0,1,.3.682c0,.516-.33,1-1.155,1a1.071,1.071,0,0,1-.789-.308,1.9,1.9,0,0,0-.144.165c-.136.136-.143.143-.179.143-.079,0-.079-.05-.079-.172V71.11c0-.129,0-.179.093-.179.072,0,.079.029.1.122.136.61.394,1.019,1,1.019.56,0,.811-.288.811-.653,0-.517-.589-.632-.747-.661A1.876,1.876,0,0,1,114.315,70.429Z" transform="translate(-1.712 -1.586)"/><path d="M121.188,71.6a2.312,2.312,0,0,0,.681-.058,2.338,2.338,0,0,0,.158-.638h.179l-.2,1.249h-2.661c0-.173,0-.187.079-.266L120.8,70.35a2.569,2.569,0,0,0,.753-1.586c0-.588-.308-1.169-.961-1.169a1.035,1.035,0,0,0-.969.731.285.285,0,0,1,.094-.007.363.363,0,0,1,.38.374.377.377,0,1,1-.753-.022,1.325,1.325,0,0,1,1.341-1.3,1.41,1.41,0,0,1,1.521,1.392c0,.718-.43,1.105-1.549,2.095l-.761.739Z" transform="translate(-1.712 -1.586)"/><path d="M129.506,12.773a1.467,1.467,0,0,1-1.6,1.313h-2.812v-.223h.172c.552,0,.566-.078.566-.336V9.745c0-.257-.014-.337-.566-.337h-.172V9.186h2.625a1.441,1.441,0,0,1,1.593,1.212c0,.531-.5.99-1.191,1.127A1.408,1.408,0,0,1,129.506,12.773Zm-2.038-1.313a1.083,1.083,0,0,0,1.148-1.062.953.953,0,0,0-.947-.99h-.89c-.337,0-.351.05-.351.287V11.46Zm1.32,1.306a1.075,1.075,0,0,0-1.011-1.148h-1.349v1.958c0,.237.014.287.351.287h.9A1.084,1.084,0,0,0,128.788,12.766Z" transform="translate(-1.712 -1.586)"/><path d="M131.793,14.165c-1.09,0-1.09-.653-1.09-1.212V11.876c0-.638,0-.66-.56-.66v-.222l1.055-.079V13.3c0,.373.028.71.631.71.524,0,.868-.487.868-1.112V11.618c0-.351-.057-.4-.559-.4v-.222l1.054-.079v2.547c0,.351.058.4.56.4v.223l-1.033.079V13.52A.98.98,0,0,1,131.793,14.165Z" transform="translate(-1.712 -1.586)"/><path d="M134.44,12.364a.764.764,0,0,1-.309-.609c0-.4.273-.883,1.148-.883a1.106,1.106,0,0,1,.675.2.945.945,0,0,0,.122-.115c.093-.086.107-.086.143-.086.079,0,.079.05.079.173v.724c0,.136,0,.172-.093.172a.077.077,0,0,1-.086-.065.792.792,0,0,0-.84-.868c-.617,0-.8.294-.8.546,0,.416.48.509.882.587a1.471,1.471,0,0,1,.818.345.925.925,0,0,1,.3.682c0,.516-.329,1-1.155,1a1.071,1.071,0,0,1-.789-.309,1.434,1.434,0,0,0-.143.166c-.137.136-.144.143-.179.143-.08,0-.08-.051-.08-.172v-.947c0-.13,0-.18.094-.18.072,0,.079.029.1.122.136.61.4,1.019,1,1.019.56,0,.811-.287.811-.653,0-.517-.588-.631-.746-.66A1.871,1.871,0,0,1,134.44,12.364Z" transform="translate(-1.712 -1.586)"/><path d="M142.388,12.859a1.464,1.464,0,0,1-1.528,1.385,1.309,1.309,0,0,1-1.449-1.127.4.4,0,1,1,.8-.014.393.393,0,0,1-.473.395,1.305,1.305,0,0,0,1.1.545c.316,0,.811-.208.811-1.184,0-.7-.265-1.191-.854-1.191h-.315c-.122,0-.172,0-.172-.079s.05-.079.107-.086.223-.014.28-.021a.7.7,0,0,0,.638-.373,1.787,1.787,0,0,0,.2-.818c0-.646-.394-.8-.688-.8a1.165,1.165,0,0,0-.955.444c.108,0,.445,0,.445.359a.366.366,0,1,1-.732-.007c0-.546.546-.976,1.27-.976.689,0,1.32.4,1.32.99a1.382,1.382,0,0,1-1,1.263A1.383,1.383,0,0,1,142.388,12.859Z" transform="translate(-1.712 -1.586)"/><path class="cls-6" d="M45.876,21.091v-.186l1.84-2.813c.048-.072.067-.072.121-.072.095,0,.095.036.095.156v2.729h.6v.186h-.6v.521c0,.216.012.282.456.282h.126v.186c-.246-.018-.563-.018-.815-.018s-.565,0-.81.018v-.186h.126c.444,0,.455-.066.455-.282v-.521Zm1.63-2.423-1.462,2.237h1.462Z" transform="translate(-1.712 -1.586)"/><path class="cls-6" d="M50.548,21.618a1.962,1.962,0,0,0,.571-.048,2.042,2.042,0,0,0,.132-.534H51.4l-.168,1.044H49.007c0-.144,0-.156.067-.222l1.151-1.284a2.148,2.148,0,0,0,.629-1.325c0-.491-.258-.977-.8-.977a.863.863,0,0,0-.809.612.218.218,0,0,1,.077-.006.3.3,0,0,1,.318.311.315.315,0,1,1-.63-.017,1.109,1.109,0,0,1,1.122-1.086A1.178,1.178,0,0,1,51.4,19.249c0,.6-.359.924-1.3,1.751l-.636.618Z" transform="translate(-1.712 -1.586)"/><path class="cls-6" d="M52.542,22.08a.318.318,0,1,1,.317-.318A.32.32,0,0,1,52.542,22.08Z" transform="translate(-1.712 -1.586)"/><path class="cls-6" d="M54.754,22.212a1.1,1.1,0,0,1-1.084-1.1.3.3,0,1,1,.293.27.26.26,0,0,1-.1-.012.933.933,0,0,0,.881.672.748.748,0,0,0,.641-.39,1.731,1.731,0,0,0,.145-.821,1.842,1.842,0,0,0-.109-.756.585.585,0,0,0-.509-.384.9.9,0,0,0-.774.42c-.024.036-.036.054-.078.054-.084,0-.084-.048-.084-.156V18.236c0-.1,0-.144.061-.144a.18.18,0,0,1,.071.018,1.948,1.948,0,0,0,.8.168,1.983,1.983,0,0,0,.815-.174.09.09,0,0,1,.048-.018.059.059,0,0,1,.061.066,1.308,1.308,0,0,1-1.158.624,1.844,1.844,0,0,1-.509-.079v1.17a1.052,1.052,0,0,1,.76-.306,1.23,1.23,0,0,1,1.14,1.313A1.325,1.325,0,0,1,54.754,22.212Z" transform="translate(-1.712 -1.586)"/><path class="cls-6" d="M57.911,19.519a1.257,1.257,0,0,1,1.2,1.338,1.283,1.283,0,0,1-1.235,1.355c-.558,0-1.253-.426-1.253-2.027,0-1.325.809-2.1,1.577-2.1.5,0,.762.288.762.648a.276.276,0,1,1-.552.012c0-.27.239-.27.33-.27a.62.62,0,0,0-.528-.24c-.306,0-1.049.216-1.049,1.733v.144A.828.828,0,0,1,57.911,19.519Zm.557,2.135a1.983,1.983,0,0,0,.1-.8,1.965,1.965,0,0,0-.109-.821.577.577,0,0,0-.557-.372c-.54,0-.732.6-.732,1.067a2.926,2.926,0,0,0,.108.87.69.69,0,0,0,.594.45A.625.625,0,0,0,58.468,21.654Z" transform="translate(-1.712 -1.586)"/><line class="cls-7" x1="44.163" y1="22.382" x2="60.393" y2="22.382"/><polygon class="cls-8" points="59.057 24.292 59.87 22.382 59.057 20.471 63.586 22.381 59.057 24.292"/><line class="cls-7" x1="109.138" y1="22.382" x2="125.368" y2="22.382"/><polygon class="cls-8" points="124.032 24.292 124.845 22.382 124.032 20.471 128.561 22.382 124.032 24.292"/><path class="cls-6" d="M110.851,21.091v-.186l1.841-2.813c.048-.072.066-.072.12-.072.1,0,.1.036.1.156v2.729h.6v.186h-.6v.521c0,.216.011.282.456.282h.126v.186c-.247-.018-.564-.018-.816-.018s-.564,0-.809.018v-.186h.126c.443,0,.455-.066.455-.282v-.521Zm1.631-2.423-1.463,2.237h1.463Z" transform="translate(-1.712 -1.586)"/><path class="cls-6" d="M115.524,21.618a1.955,1.955,0,0,0,.57-.048,1.965,1.965,0,0,0,.132-.534h.149l-.168,1.044h-2.224c0-.144,0-.156.066-.222l1.151-1.284a2.143,2.143,0,0,0,.629-1.325c0-.491-.257-.977-.8-.977a.864.864,0,0,0-.81.612.221.221,0,0,1,.077-.006.3.3,0,0,1,.319.311.315.315,0,1,1-.63-.017,1.108,1.108,0,0,1,1.121-1.086,1.178,1.178,0,0,1,1.271,1.163c0,.6-.359.924-1.3,1.751l-.635.618Z" transform="translate(-1.712 -1.586)"/><path class="cls-6" d="M117.517,22.08a.318.318,0,1,1,.317-.318A.319.319,0,0,1,117.517,22.08Z" transform="translate(-1.712 -1.586)"/><path class="cls-6" d="M120.881,21.516a1.12,1.12,0,0,1-2.032.09,3.037,3.037,0,0,1-.271-1.445A3.2,3.2,0,0,1,118.8,18.8a1.1,1.1,0,0,1,1.043-.714,1.113,1.113,0,0,1,1.02.672,3.207,3.207,0,0,1,.24,1.4A3.177,3.177,0,0,1,120.881,21.516Zm-.342-.186a7.3,7.3,0,0,0,.067-1.241,7.365,7.365,0,0,0-.06-1.169c-.114-.594-.51-.7-.708-.7-.149,0-.6.054-.714.768a8.025,8.025,0,0,0-.048,1.1,8.045,8.045,0,0,0,.067,1.265c.107.576.462.726.695.726C120.108,22.08,120.45,21.9,120.539,21.33Z" transform="translate(-1.712 -1.586)"/><path class="cls-6" d="M122.8,20.773a1.261,1.261,0,0,1-1.2-1.338,1.286,1.286,0,0,1,.384-.971,1.161,1.161,0,0,1,.882-.378c.533,0,1.222.408,1.222,2.021,0,1.289-.731,2.105-1.5,2.105-.509,0-.834-.246-.834-.648a.276.276,0,1,1,.552-.012c0,.1-.048.276-.311.276a.78.78,0,0,0,.588.216c.347,0,.971-.276.971-1.679v-.192A.82.82,0,0,1,122.8,20.773Zm.738-1.218a2.982,2.982,0,0,0-.1-.845.621.621,0,0,0-1.175-.1,1.685,1.685,0,0,0-.126.827,1.972,1.972,0,0,0,.107.816.578.578,0,0,0,.558.378C123.33,20.635,123.534,20.053,123.534,19.555Z" transform="translate(-1.712 -1.586)"/><path class="cls-6" d="M47.417,36.585a1.959,1.959,0,0,0,.57-.048A2.052,2.052,0,0,0,48.119,36h.149L48.1,37.047H45.876c0-.144,0-.156.066-.222l1.151-1.284a2.148,2.148,0,0,0,.629-1.325c0-.492-.258-.977-.8-.977a.865.865,0,0,0-.81.611.221.221,0,0,1,.077-.006.3.3,0,0,1,.318.312.315.315,0,1,1-.629-.018A1.108,1.108,0,0,1,47,33.053a1.178,1.178,0,0,1,1.271,1.163c0,.6-.359.924-1.3,1.751l-.636.618Z" transform="translate(-1.712 -1.586)"/><path class="cls-6" d="M49.41,37.047a.318.318,0,1,1,.317-.318A.32.32,0,0,1,49.41,37.047Z" transform="translate(-1.712 -1.586)"/><path class="cls-6" d="M51.623,37.178a1.1,1.1,0,0,1-1.085-1.1.3.3,0,1,1,.294.27.267.267,0,0,1-.1-.012.933.933,0,0,0,.881.671.75.75,0,0,0,.642-.389A1.742,1.742,0,0,0,52.4,35.8a1.857,1.857,0,0,0-.108-.756.588.588,0,0,0-.51-.384.9.9,0,0,0-.774.42c-.024.035-.036.054-.078.054-.084,0-.084-.048-.084-.156V33.2c0-.1,0-.144.061-.144a.176.176,0,0,1,.071.018,1.948,1.948,0,0,0,.8.168,1.983,1.983,0,0,0,.815-.174.09.09,0,0,1,.048-.018.059.059,0,0,1,.061.066,1.307,1.307,0,0,1-1.157.623,1.888,1.888,0,0,1-.51-.078v1.17a1.055,1.055,0,0,1,.761-.306,1.23,1.23,0,0,1,1.139,1.313A1.324,1.324,0,0,1,51.623,37.178Z" transform="translate(-1.712 -1.586)"/><path class="cls-6" d="M55.774,36.483a1.121,1.121,0,0,1-2.032.09,3.039,3.039,0,0,1-.271-1.445,3.209,3.209,0,0,1,.223-1.362,1.1,1.1,0,0,1,1.043-.713,1.111,1.111,0,0,1,1.019.671,4.219,4.219,0,0,1,.018,2.759Zm-.342-.186a7.31,7.31,0,0,0,.067-1.241,7.378,7.378,0,0,0-.06-1.17c-.114-.593-.51-.7-.708-.7-.149,0-.6.054-.714.767a8.048,8.048,0,0,0-.048,1.1,8.051,8.051,0,0,0,.067,1.265c.107.576.462.726.7.726C55,37.047,55.342,36.867,55.432,36.3Z" transform="translate(-1.712 -1.586)"/><line class="cls-7" x1="44.163" y1="37.349" x2="60.395" y2="37.349"/><polygon class="cls-8" points="59.059 39.258 59.872 37.349 59.059 35.438 63.589 37.349 59.059 39.258"/><line class="cls-7" x1="78.811" y1="45.399" x2="78.81" y2="61.628"/><polygon class="cls-8" points="76.901 60.292 78.81 61.106 80.722 60.292 78.81 64.822 76.901 60.292"/><path class="cls-6" d="M69.36,58.2a1.955,1.955,0,0,0,.57-.048,1.965,1.965,0,0,0,.132-.534h.149l-.168,1.044H67.819c0-.144,0-.156.066-.222l1.152-1.284a2.148,2.148,0,0,0,.629-1.325c0-.491-.258-.977-.8-.977a.864.864,0,0,0-.81.612.225.225,0,0,1,.077-.006.3.3,0,0,1,.319.311.315.315,0,1,1-.63-.017,1.108,1.108,0,0,1,1.121-1.086,1.178,1.178,0,0,1,1.271,1.163c0,.6-.359.924-1.3,1.751l-.635.618Z" transform="translate(-1.712 -1.586)"/><path class="cls-6" d="M71.353,58.66a.318.318,0,1,1,.317-.318A.319.319,0,0,1,71.353,58.66Z" transform="translate(-1.712 -1.586)"/><path class="cls-6" d="M72.349,57.671v-.186l1.841-2.813c.048-.072.066-.072.12-.072.1,0,.1.036.1.156v2.729h.6v.186h-.6v.521c0,.216.011.282.456.282h.126v.186c-.246-.018-.564-.018-.816-.018s-.564,0-.809.018v-.186h.126c.443,0,.455-.066.455-.282v-.521Zm1.631-2.423-1.463,2.237H73.98Z" transform="translate(-1.712 -1.586)"/><path class="cls-6" d="M77.717,58.1a1.12,1.12,0,0,1-2.032.09,3.036,3.036,0,0,1-.27-1.445,3.2,3.2,0,0,1,.222-1.361,1.1,1.1,0,0,1,1.043-.714,1.113,1.113,0,0,1,1.02.672,4.224,4.224,0,0,1,.017,2.758Zm-.342-.186a11.474,11.474,0,0,0,.007-2.41c-.114-.594-.509-.7-.708-.7-.149,0-.6.054-.714.768a12.52,12.52,0,0,0,.019,2.368c.107.576.462.726.7.726C76.944,58.66,77.286,58.48,77.375,57.91Z" transform="translate(-1.712 -1.586)"/><path class="cls-6" d="M137.421,20.932v-.186l1.841-2.812c.047-.072.066-.072.12-.072.095,0,.095.036.095.156v2.728h.6v.186h-.6v.522c0,.216.012.282.456.282h.126v.186c-.246-.018-.563-.018-.815-.018s-.564,0-.81.018v-.186h.126c.444,0,.455-.066.455-.282v-.522Zm1.631-2.422-1.463,2.236h1.463Z" transform="translate(-1.712 -1.586)"/><path class="cls-6" d="M142.094,21.46a1.959,1.959,0,0,0,.57-.048,2.013,2.013,0,0,0,.132-.534h.149l-.168,1.044h-2.224c0-.144,0-.156.066-.222l1.151-1.284a2.148,2.148,0,0,0,.629-1.325c0-.492-.258-.977-.8-.977a.865.865,0,0,0-.81.611.221.221,0,0,1,.077-.006.3.3,0,0,1,.318.312.315.315,0,1,1-.629-.018,1.108,1.108,0,0,1,1.121-1.085,1.178,1.178,0,0,1,1.271,1.163c0,.6-.359.924-1.295,1.751l-.635.618Z" transform="translate(-1.712 -1.586)"/><path class="cls-6" d="M144.087,21.922a.318.318,0,1,1,.317-.318A.32.32,0,0,1,144.087,21.922Z" transform="translate(-1.712 -1.586)"/><path class="cls-6" d="M147.451,21.358a1.121,1.121,0,0,1-2.032.09A3.039,3.039,0,0,1,145.148,20a3.209,3.209,0,0,1,.223-1.362,1.1,1.1,0,0,1,1.043-.713,1.111,1.111,0,0,1,1.019.671,3.215,3.215,0,0,1,.241,1.4A3.2,3.2,0,0,1,147.451,21.358Zm-.342-.186a7.31,7.31,0,0,0,.067-1.241,7.378,7.378,0,0,0-.06-1.17c-.114-.593-.51-.7-.708-.7-.149,0-.6.054-.714.767a8.048,8.048,0,0,0-.048,1.1,8.051,8.051,0,0,0,.067,1.265c.107.576.462.726.695.726C146.678,21.922,147.019,21.742,147.109,21.172Z" transform="translate(-1.712 -1.586)"/><path class="cls-6" d="M150.451,21.358a1.121,1.121,0,0,1-2.032.09A3.039,3.039,0,0,1,148.148,20a3.209,3.209,0,0,1,.223-1.362,1.1,1.1,0,0,1,1.043-.713,1.111,1.111,0,0,1,1.019.671,3.215,3.215,0,0,1,.241,1.4A3.2,3.2,0,0,1,150.451,21.358Zm-.342-.186a7.31,7.31,0,0,0,.067-1.241,7.378,7.378,0,0,0-.06-1.17c-.114-.593-.51-.7-.708-.7-.149,0-.6.054-.714.767a8.048,8.048,0,0,0-.048,1.1,8.051,8.051,0,0,0,.067,1.265c.107.576.462.726.695.726C149.678,21.922,150.019,21.742,150.109,21.172Z" transform="translate(-1.712 -1.586)"/><line class="cls-7" x1="135.708" y1="22.382" x2="151.855" y2="22.382"/><polygon class="cls-8" points="150.519 24.292 151.332 22.382 150.519 20.471 155.048 22.381 150.519 24.292"/><path class="cls-6" d="M189.917,20.932v-.186l1.841-2.812c.048-.072.067-.072.12-.072.1,0,.1.036.1.156v2.728h.6v.186h-.6v.522c0,.216.012.282.456.282h.126v.186c-.246-.018-.563-.018-.815-.018s-.565,0-.81.018v-.186h.126c.444,0,.455-.066.455-.282v-.522Zm1.631-2.422-1.463,2.236h1.463Z" transform="translate(-1.712 -1.586)"/><path class="cls-6" d="M194.59,21.46a1.962,1.962,0,0,0,.571-.048,2.016,2.016,0,0,0,.131-.534h.15l-.168,1.044h-2.225c0-.144,0-.156.067-.222l1.151-1.284a2.148,2.148,0,0,0,.629-1.325c0-.492-.258-.977-.8-.977a.863.863,0,0,0-.809.611.218.218,0,0,1,.077-.006.3.3,0,0,1,.318.312.315.315,0,1,1-.63-.018,1.108,1.108,0,0,1,1.121-1.085,1.178,1.178,0,0,1,1.272,1.163c0,.6-.359.924-1.3,1.751l-.636.618Z" transform="translate(-1.712 -1.586)"/><path class="cls-6" d="M196.584,21.922a.318.318,0,1,1,.317-.318A.32.32,0,0,1,196.584,21.922Z" transform="translate(-1.712 -1.586)"/><path class="cls-6" d="M199.948,21.358a1.121,1.121,0,0,1-2.032.09A3.027,3.027,0,0,1,197.645,20a3.193,3.193,0,0,1,.223-1.362,1.1,1.1,0,0,1,1.043-.713,1.111,1.111,0,0,1,1.019.671,3.214,3.214,0,0,1,.24,1.4A3.194,3.194,0,0,1,199.948,21.358Zm-.342-.186a7.419,7.419,0,0,0,.066-1.241,7.5,7.5,0,0,0-.059-1.17c-.114-.593-.51-.7-.708-.7-.15,0-.6.054-.714.767a8.048,8.048,0,0,0-.048,1.1,8.172,8.172,0,0,0,.066,1.265c.108.576.462.726.7.726C199.174,21.922,199.516,21.742,199.606,21.172Z" transform="translate(-1.712 -1.586)"/><path class="cls-6" d="M202.948,21.358a1.121,1.121,0,0,1-2.032.09A3.027,3.027,0,0,1,200.645,20a3.193,3.193,0,0,1,.223-1.362,1.1,1.1,0,0,1,1.043-.713,1.111,1.111,0,0,1,1.019.671,3.214,3.214,0,0,1,.24,1.4A3.194,3.194,0,0,1,202.948,21.358Zm-.342-.186a7.419,7.419,0,0,0,.066-1.241,7.5,7.5,0,0,0-.059-1.17c-.114-.593-.51-.7-.708-.7-.15,0-.6.054-.714.767a8.048,8.048,0,0,0-.048,1.1,8.172,8.172,0,0,0,.066,1.265c.108.576.462.726.7.726C202.174,21.922,202.516,21.742,202.606,21.172Z" transform="translate(-1.712 -1.586)"/><line class="cls-7" x1="188.205" y1="22.382" x2="204.376" y2="22.382"/><polygon class="cls-8" points="203.04 24.292 203.854 22.382 203.04 20.471 207.57 22.381 203.04 24.292"/><line class="cls-1" x1="184.293" y1="22.381" x2="187.805" y2="22.381"/><circle class="cls-2" cx="11.737" cy="31.451" r="9.524" transform="translate(-6.613 0.708) rotate(-9.245)"/><path class="cls-9" d="M16.546,30.4s-1.5,1.987-2.267,2.1c-.93.142-2.546-1.058-2.546-1.058S9.388,30.26,8.9,30.4c-.712.2-2.084,2.1-2.084,2.1" transform="translate(-1.712 -1.586)"/><line class="cls-2" x1="19.784" y1="30.023" x2="39.627" y2="30.023"/><circle class="cls-2" cx="50.9" cy="83.932" r="9.524" transform="translate(-40.346 122.584) rotate(-82.966)"/><path class="cls-9" d="M55.825,82.881s-1.5,1.986-2.267,2.1c-.93.142-2.546-1.058-2.546-1.058s-2.345-1.184-2.836-1.045c-.713.2-2.085,2.1-2.085,2.1" transform="translate(-1.712 -1.586)"/><polyline class="cls-4" points="58.969 82.528 60.984 82.528 76.388 82.528 78.811 82.528 78.811 67.561 78.811 65.222"/><polyline class="cls-4" points="109.079 82.527 107.375 82.527 95.102 82.528 93.714 82.528 93.714 67.561"/><polygon class="cls-6" points="106.974 79.749 108.153 82.527 106.972 85.304 113.557 82.528 106.974 79.749"/><polyline class="cls-1" points="132.706 37.349 134.79 37.349 150.709 37.348 152.548 37.348"/><polyline class="cls-4" points="227.332 22.381 225.594 22.381 213.355 22.381 211.967 22.381"/><polygon class="cls-6" points="225.226 19.604 226.406 22.381 225.226 25.158 231.81 22.381 225.226 19.604"/><line class="cls-3" x1="211.15" y1="7.414" x2="211.15" y2="37.348"/><circle class="cls-10" cx="167.844" cy="22.381" r="8.504"/><circle class="cls-1" cx="175.421" cy="22.381" r="8.504"/><path d="M208.577,5.173a1.468,1.468,0,0,1-1.6,1.313h-2.812V6.263h.172c.553,0,.567-.079.567-.337V2.145c0-.258-.014-.337-.567-.337h-.172V1.586h2.625A1.44,1.44,0,0,1,208.383,2.8c0,.531-.5.99-1.19,1.126A1.411,1.411,0,0,1,208.577,5.173ZM206.539,3.86A1.083,1.083,0,0,0,207.688,2.8a.954.954,0,0,0-.948-.99h-.889c-.338,0-.352.051-.352.287V3.86Zm1.321,1.305a1.075,1.075,0,0,0-1.012-1.147H205.5V5.976c0,.237.014.287.352.287h.9A1.085,1.085,0,0,0,207.86,5.165Z" transform="translate(-1.712 -1.586)"/><path d="M210.864,6.565c-1.09,0-1.09-.653-1.09-1.213V4.276c0-.639,0-.66-.559-.66V3.393l1.054-.078V5.7c0,.374.029.711.631.711.524,0,.868-.488.868-1.112V4.018c0-.352-.057-.4-.559-.4V3.393l1.054-.078V5.861c0,.352.058.4.56.4v.223l-1.033.079V5.919A.979.979,0,0,1,210.864,6.565Z" transform="translate(-1.712 -1.586)"/><path d="M213.511,4.764a.764.764,0,0,1-.308-.61c0-.4.273-.882,1.147-.882a1.109,1.109,0,0,1,.675.2,1.011,1.011,0,0,0,.122-.114c.093-.086.108-.086.143-.086.079,0,.079.05.079.172v.724c0,.137,0,.173-.093.173a.077.077,0,0,1-.086-.065.791.791,0,0,0-.84-.868c-.616,0-.8.294-.8.545,0,.416.481.509.883.589a1.459,1.459,0,0,1,.818.344.929.929,0,0,1,.3.682c0,.516-.329,1-1.154,1a1.072,1.072,0,0,1-.79-.309,1.953,1.953,0,0,0-.143.165c-.136.137-.144.144-.179.144-.079,0-.079-.05-.079-.173V5.445c0-.128,0-.179.093-.179.072,0,.079.029.1.122.137.61.4,1.019,1,1.019.56,0,.811-.287.811-.653,0-.517-.589-.632-.747-.66A1.885,1.885,0,0,1,213.511,4.764Z" transform="translate(-1.712 -1.586)"/><path d="M218.381,5.3V5.08l2.2-3.365c.057-.086.079-.086.144-.086.114,0,.114.043.114.187V5.08h.718V5.3h-.718v.624c0,.258.015.337.546.337h.15v.223c-.294-.022-.674-.022-.976-.022s-.674,0-.968.022V6.263h.151c.531,0,.545-.079.545-.337V5.3Zm1.952-2.9L218.582,5.08h1.751Z" transform="translate(-1.712 -1.586)"/><polyline class="cls-4" points="131.298 37.3 125.628 37.3 120.876 33.877"/><polyline class="cls-4" points="120.876 37.3 93.75 37.3 93.75 56.951"/><polyline class="cls-4" points="93.75 67.313 93.75 61.644 90.315 56.981"/></svg>