<?xml version="1.0" encoding="UTF-8"?>
<svg id="Layer_1" data-name="Layer 1" xmlns="http://www.w3.org/2000/svg" viewBox="0 0 244.212 129.699">
  <defs>
    <style>
      .cls-1, .cls-2, .cls-3, .cls-4, .cls-5 {
        stroke-miterlimit: 10;
      }

      .cls-1, .cls-2, .cls-4, .cls-5 {
        stroke: #231f20;
      }

      .cls-1, .cls-3, .cls-4 {
        fill: none;
      }

      .cls-2 {
        fill: #fff;
      }

      .cls-3 {
        stroke: #010101;
        stroke-width: 1.9px;
      }

      .cls-4, .cls-5 {
        stroke-width: .5px;
      }

      .cls-5 {
        fill: #ed1c24;
      }

      .cls-6 {
        fill: #231f20;
      }
    </style>
  </defs>
  <rect class="cls-4" x="126.354" y=".25" width="63.476" height="62.219" rx="1.417" ry="1.417"/>
  <rect class="cls-4" x="126.354" y="67.544" width="117.608" height="61.905" rx="1.417" ry="1.417"/>
  <rect class="cls-4" x="194.83" y=".25" width="49.132" height="62.219" rx="1.417" ry="1.417"/>
  <rect class="cls-4" x=".25" y=".25" width="121.104" height="129.199" rx="1.417" ry="1.417"/>
  <g>
    <path class="cls-6" d="m95.17,126.027c0,.252.021.329.575.329h.182v.217c-.245-.021-.798-.021-1.071-.021-.266,0-.819,0-1.064.021v-.217h.182c.553,0,.574-.077.574-.329v-3.691c0-.252-.021-.329-.574-.329h-.182v-.217c.245.021.798.021,1.071.021.266,0,.819,0,1.064-.021v.217h-.182c-.554,0-.575.077-.575.329v3.691Z"/>
    <path class="cls-6" d="m96.654,124.892c-.189-.154-.301-.35-.301-.595,0-.392.266-.861,1.121-.861.105,0,.393,0,.659.196.028-.021.098-.084.119-.112.091-.084.105-.084.14-.084.077,0,.077.049.077.168v.708c0,.133,0,.168-.091.168-.014,0-.077,0-.084-.063-.014-.217-.049-.847-.82-.847-.602,0-.784.287-.784.532,0,.406.469.497.861.574.294.056.567.112.798.336.084.084.294.294.294.666,0,.504-.322.974-1.128.974-.147,0-.462-.007-.77-.301-.126.133-.126.147-.14.161-.133.133-.14.14-.175.14-.077,0-.077-.049-.077-.168v-.925c0-.126,0-.175.091-.175.07,0,.077.028.098.119.133.596.385.995.973.995.546,0,.792-.28.792-.637,0-.504-.574-.616-.728-.645-.504-.098-.701-.14-.925-.322Z"/>
    <path class="cls-6" d="m100.12,126.041c0,.315.077.315.546.315v.217c-.259-.007-.603-.021-.778-.021s-.546.014-.777.021v-.217c.469,0,.546,0,.546-.315v-3.642c0-.343-.056-.392-.546-.392v-.217l1.009-.077v4.329Z"/>
    <path class="cls-6" d="m102.233,126.651c-.441,0-1.121-.175-1.121-.743,0-.308.175-.672.701-.91.441-.21.932-.231,1.289-.252v-.259c0-.624-.399-.896-.742-.896-.224,0-.567.077-.757.322.322.007.357.238.357.322,0,.182-.126.322-.322.322-.182,0-.322-.119-.322-.329,0-.462.483-.792,1.058-.792.336,0,.687.112.959.385.252.259.252.532.252.826v1.401c0,.035.028.35.259.35.077,0,.252-.042.252-.448v-.392h.175v.392c0,.567-.427.666-.574.666-.329,0-.518-.294-.546-.574-.133.329-.455.609-.917.609Zm-.581-.75c0,.35.287.595.63.595.315,0,.819-.238.819-.903v-.701c-1.156.042-1.45.624-1.45,1.009Z"/>
    <path class="cls-6" d="m104.543,123.772v-.217l.987-.077v.735c.196-.434.525-.735,1.037-.735.406,0,.638.14.735.259.217.252.217.469.217,1.071v1.338c.007.21.182.21.546.21v.217c-.238-.007-.603-.021-.785-.021-.189,0-.546.014-.791.021v-.217c.469,0,.546,0,.546-.315v-1.632c0-.399-.077-.777-.518-.777-.448,0-.945.392-.945,1.121v1.289c0,.315.077.315.546.315v.217c-.238-.007-.602-.021-.784-.021-.189,0-.546.014-.792.021v-.217c.469,0,.546,0,.546-.315v-1.877c0-.343-.056-.392-.546-.392Z"/>
    <path class="cls-6" d="m109.927,126.651c-.799,0-1.485-.693-1.485-1.583,0-.903.735-1.59,1.562-1.59.378,0,.68.182.883.434v-1.513c0-.343-.056-.392-.546-.392v-.217l1.008-.077v4.251c0,.343.056.392.546.392v.217l-1.029.077v-.462c-.175.224-.49.462-.938.462Zm.861-2.599c-.217-.315-.511-.42-.756-.42-.378,0-.645.231-.792.448-.203.315-.217.735-.217.994,0,.288.021.687.203.974.168.266.42.448.735.448.301,0,.617-.154.827-.49.077-.119.077-.133.077-.259v-1.436c0-.126,0-.14-.077-.259Z"/>
    <path class="cls-6" d="m116.478,126.02c0,.259.021.336.651.336h.224v.217c-.245-.021-.854-.021-1.135-.021s-.889,0-1.134.021v-.217h.224c.63,0,.651-.084.651-.336v-3.628c-.364.182-.778.182-.917.182v-.217c.224,0,.84,0,1.274-.448.161,0,.161.014.161.182v3.929Z"/>
  </g>
  <g>
    <path class="cls-6" d="m131.945,58.589c0,.252.021.329.574.329h.182v.217c-.245-.021-.798-.021-1.071-.021-.266,0-.819,0-1.064.021v-.217h.183c.553,0,.574-.077.574-.329v-3.691c0-.252-.021-.329-.574-.329h-.183v-.217c.245.021.799.021,1.071.021.267,0,.819,0,1.064-.021v.217h-.182c-.554,0-.574.077-.574.329v3.691Z"/>
    <path class="cls-6" d="m133.429,57.454c-.189-.154-.302-.35-.302-.595,0-.392.267-.861,1.121-.861.105,0,.393,0,.658.196.028-.021.098-.084.119-.112.091-.084.105-.084.14-.084.077,0,.077.049.077.168v.708c0,.133,0,.168-.091.168-.014,0-.077,0-.084-.063-.014-.217-.049-.847-.819-.847-.603,0-.784.287-.784.532,0,.406.469.497.861.574.294.056.567.112.798.336.084.084.295.294.295.666,0,.504-.322.974-1.128.974-.147,0-.462-.007-.771-.301-.126.133-.126.147-.14.161-.134.133-.141.14-.176.14-.077,0-.077-.049-.077-.168v-.925c0-.126,0-.175.092-.175.069,0,.077.028.098.119.133.596.386.995.974.995.546,0,.791-.28.791-.637,0-.504-.574-.616-.728-.645-.505-.098-.701-.14-.925-.322Z"/>
    <path class="cls-6" d="m136.894,58.603c0,.315.077.315.546.315v.217c-.259-.007-.603-.021-.777-.021s-.546.014-.777.021v-.217c.469,0,.546,0,.546-.315v-3.642c0-.343-.056-.392-.546-.392v-.217l1.009-.077v4.329Z"/>
    <path class="cls-6" d="m139.008,59.213c-.44,0-1.12-.175-1.12-.743,0-.308.175-.672.7-.91.441-.21.932-.231,1.289-.252v-.259c0-.624-.399-.896-.742-.896-.225,0-.567.077-.757.322.322.007.357.238.357.322,0,.182-.126.322-.322.322-.183,0-.322-.119-.322-.329,0-.462.483-.792,1.058-.792.336,0,.687.112.959.385.253.259.253.532.253.826v1.401c0,.035.027.35.259.35.077,0,.252-.042.252-.448v-.392h.175v.392c0,.567-.427.666-.574.666-.329,0-.518-.294-.546-.574-.133.329-.455.609-.918.609Zm-.581-.75c0,.35.287.595.631.595.314,0,.819-.238.819-.903v-.701c-1.156.042-1.45.624-1.45,1.009Z"/>
    <path class="cls-6" d="m141.317,56.334v-.217l.987-.077v.735c.196-.434.525-.735,1.037-.735.406,0,.638.14.735.259.217.252.217.469.217,1.071v1.338c.007.21.183.21.547.21v.217c-.238-.007-.603-.021-.785-.021-.188,0-.546.014-.791.021v-.217c.47,0,.546,0,.546-.315v-1.632c0-.399-.076-.777-.518-.777-.448,0-.945.392-.945,1.121v1.289c0,.315.076.315.546.315v.217c-.238-.007-.603-.021-.784-.021-.189,0-.547.014-.792.021v-.217c.47,0,.547,0,.547-.315v-1.877c0-.343-.057-.392-.547-.392Z"/>
    <path class="cls-6" d="m146.701,59.213c-.799,0-1.484-.693-1.484-1.583,0-.903.735-1.59,1.562-1.59.378,0,.68.182.883.434v-1.513c0-.343-.057-.392-.547-.392v-.217l1.009-.077v4.251c0,.343.056.392.546.392v.217l-1.029.077v-.462c-.175.224-.49.462-.938.462Zm.861-2.599c-.217-.315-.511-.42-.756-.42-.379,0-.645.231-.792.448-.203.315-.217.735-.217.994,0,.288.021.687.203.974.168.266.42.448.735.448.301,0,.616-.154.826-.49.077-.119.077-.133.077-.259v-1.436c0-.126,0-.14-.077-.259Z"/>
    <path class="cls-6" d="m153.345,58.597c.153,0,.616,0,.665-.056.07-.105.119-.413.154-.624h.175l-.196,1.219h-2.599c0-.168,0-.182.077-.259l1.345-1.499c.386-.435.735-.988.735-1.548,0-.574-.301-1.142-.938-1.142-.406,0-.784.259-.945.714.021-.007.035-.007.091-.007.245,0,.371.182.371.364,0,.287-.245.372-.364.372-.021,0-.371,0-.371-.393,0-.623.519-1.268,1.31-1.268.854,0,1.485.561,1.485,1.359,0,.7-.42,1.079-1.513,2.045l-.742.722h1.261Z"/>
  </g>
  <g>
    <path class="cls-6" d="m217.414,58.589c0,.252.021.329.575.329h.182v.217c-.245-.021-.799-.021-1.071-.021-.267,0-.819,0-1.064.021v-.217h.182c.554,0,.574-.077.574-.329v-3.691c0-.252-.021-.329-.574-.329h-.182v-.217c.245.021.798.021,1.071.021.266,0,.819,0,1.064-.021v.217h-.182c-.554,0-.575.077-.575.329v3.691Z"/>
    <path class="cls-6" d="m218.898,57.454c-.188-.154-.301-.35-.301-.595,0-.392.266-.861,1.12-.861.105,0,.393,0,.659.196.027-.021.098-.084.118-.112.092-.084.105-.084.141-.084.077,0,.077.049.077.168v.708c0,.133,0,.168-.091.168-.015,0-.077,0-.084-.063-.015-.217-.05-.847-.82-.847-.602,0-.784.287-.784.532,0,.406.47.497.861.574.295.056.567.112.799.336.084.084.294.294.294.666,0,.504-.322.974-1.128.974-.146,0-.462-.007-.77-.301-.127.133-.127.147-.141.161-.133.133-.14.14-.175.14-.077,0-.077-.049-.077-.168v-.925c0-.126,0-.175.091-.175.07,0,.077.028.099.119.133.596.385.995.973.995.547,0,.792-.28.792-.637,0-.504-.574-.616-.729-.645-.504-.098-.7-.14-.925-.322Z"/>
    <path class="cls-6" d="m222.364,58.603c0,.315.077.315.547.315v.217c-.26-.007-.603-.021-.778-.021-.175,0-.546.014-.777.021v-.217c.47,0,.547,0,.547-.315v-3.642c0-.343-.057-.392-.547-.392v-.217l1.009-.077v4.329Z"/>
    <path class="cls-6" d="m224.478,59.213c-.441,0-1.121-.175-1.121-.743,0-.308.176-.672.701-.91.44-.21.932-.231,1.288-.252v-.259c0-.624-.399-.896-.742-.896-.224,0-.567.077-.757.322.322.007.357.238.357.322,0,.182-.126.322-.322.322-.182,0-.322-.119-.322-.329,0-.462.483-.792,1.058-.792.337,0,.687.112.96.385.252.259.252.532.252.826v1.401c0,.035.028.35.259.35.077,0,.253-.042.253-.448v-.392h.175v.392c0,.567-.428.666-.574.666-.329,0-.519-.294-.547-.574-.133.329-.455.609-.917.609Zm-.581-.75c0,.35.287.595.63.595.315,0,.819-.238.819-.903v-.701c-1.155.042-1.449.624-1.449,1.009Z"/>
    <path class="cls-6" d="m226.787,56.334v-.217l.987-.077v.735c.196-.434.525-.735,1.036-.735.406,0,.638.14.735.259.218.252.218.469.218,1.071v1.338c.007.21.182.21.546.21v.217c-.238-.007-.603-.021-.784-.021-.189,0-.546.014-.791.021v-.217c.469,0,.546,0,.546-.315v-1.632c0-.399-.077-.777-.519-.777-.448,0-.945.392-.945,1.121v1.289c0,.315.077.315.546.315v.217c-.237-.007-.602-.021-.784-.021-.188,0-.546.014-.791.021v-.217c.469,0,.546,0,.546-.315v-1.877c0-.343-.056-.392-.546-.392Z"/>
    <path class="cls-6" d="m232.171,59.213c-.799,0-1.485-.693-1.485-1.583,0-.903.735-1.59,1.562-1.59.379,0,.68.182.883.434v-1.513c0-.343-.056-.392-.546-.392v-.217l1.008-.077v4.251c0,.343.057.392.547.392v.217l-1.029.077v-.462c-.176.224-.49.462-.938.462Zm.861-2.599c-.218-.315-.512-.42-.757-.42-.378,0-.645.231-.791.448-.203.315-.218.735-.218.994,0,.288.021.687.203.974.168.266.421.448.735.448.302,0,.617-.154.827-.49.077-.119.077-.133.077-.259v-1.436c0-.126,0-.14-.077-.259Z"/>
    <path class="cls-6" d="m236.86,57.98v-.217l2.15-3.285c.056-.084.077-.084.14-.084.112,0,.112.042.112.182v3.187h.7v.217h-.7v.609c0,.252.014.329.532.329h.147v.217c-.287-.021-.658-.021-.953-.021s-.658,0-.945.021v-.217h.147c.518,0,.532-.077.532-.329v-.609h-1.863Zm1.905-2.83l-1.709,2.613h1.709v-2.613Z"/>
  </g>
  <g>
    <path class="cls-6" d="m217.513,125.95c0,.252.021.329.574.329h.182v.217c-.245-.021-.798-.021-1.071-.021-.266,0-.819,0-1.064.021v-.217h.183c.553,0,.574-.077.574-.329v-3.691c0-.252-.021-.329-.574-.329h-.183v-.217c.245.021.799.021,1.071.021.267,0,.819,0,1.064-.021v.217h-.182c-.554,0-.574.077-.574.329v3.691Z"/>
    <path class="cls-6" d="m218.996,124.815c-.189-.154-.302-.35-.302-.595,0-.392.267-.861,1.121-.861.105,0,.393,0,.658.196.028-.021.098-.084.119-.112.091-.084.105-.084.14-.084.077,0,.077.049.077.168v.708c0,.133,0,.168-.091.168-.014,0-.077,0-.084-.063-.014-.217-.049-.847-.819-.847-.603,0-.784.287-.784.532,0,.406.469.497.861.574.294.056.567.112.798.336.084.084.295.294.295.666,0,.504-.322.974-1.128.974-.147,0-.462-.007-.771-.301-.126.133-.126.147-.14.161-.134.133-.141.14-.176.14-.077,0-.077-.049-.077-.168v-.925c0-.126,0-.175.092-.175.069,0,.077.028.098.119.133.596.386.995.974.995.546,0,.791-.28.791-.637,0-.504-.574-.616-.728-.645-.505-.098-.701-.14-.925-.322Z"/>
    <path class="cls-6" d="m222.462,125.964c0,.315.077.315.546.315v.217c-.259-.007-.603-.021-.777-.021s-.546.014-.777.021v-.217c.469,0,.546,0,.546-.315v-3.642c0-.343-.056-.392-.546-.392v-.217l1.009-.077v4.329Z"/>
    <path class="cls-6" d="m224.576,126.574c-.44,0-1.12-.175-1.12-.743,0-.308.175-.672.7-.91.441-.21.932-.231,1.289-.252v-.259c0-.624-.399-.896-.742-.896-.225,0-.567.077-.757.322.322.007.357.238.357.322,0,.182-.126.322-.322.322-.183,0-.322-.119-.322-.329,0-.462.483-.792,1.058-.792.336,0,.687.112.959.385.253.259.253.532.253.826v1.401c0,.035.027.35.259.35.077,0,.252-.042.252-.448v-.392h.175v.392c0,.567-.427.666-.574.666-.329,0-.518-.294-.546-.574-.133.329-.455.609-.918.609Zm-.581-.75c0,.35.287.595.631.595.314,0,.819-.238.819-.903v-.701c-1.156.042-1.45.624-1.45,1.009Z"/>
    <path class="cls-6" d="m226.885,123.695v-.217l.987-.077v.735c.196-.434.525-.735,1.037-.735.406,0,.638.14.735.259.217.252.217.469.217,1.071v1.338c.007.21.183.21.547.21v.217c-.238-.007-.603-.021-.785-.021-.188,0-.546.014-.791.021v-.217c.47,0,.546,0,.546-.315v-1.632c0-.399-.076-.777-.518-.777-.448,0-.945.392-.945,1.121v1.289c0,.315.076.315.546.315v.217c-.238-.007-.603-.021-.784-.021-.189,0-.547.014-.792.021v-.217c.47,0,.547,0,.547-.315v-1.877c0-.343-.057-.392-.547-.392Z"/>
    <path class="cls-6" d="m232.269,126.574c-.799,0-1.484-.693-1.484-1.583,0-.903.735-1.59,1.562-1.59.378,0,.68.182.883.434v-1.513c0-.343-.057-.392-.547-.392v-.217l1.009-.077v4.251c0,.343.056.392.546.392v.217l-1.029.077v-.462c-.175.224-.49.462-.938.462Zm.861-2.599c-.217-.315-.511-.42-.756-.42-.379,0-.645.231-.792.448-.203.315-.217.735-.217.994,0,.288.021.687.203.974.168.266.42.448.735.448.301,0,.616-.154.826-.49.077-.119.077-.133.077-.259v-1.436c0-.126,0-.14-.077-.259Z"/>
    <path class="cls-6" d="m239.962,125.299c0,.714-.637,1.352-1.491,1.352-.764,0-1.415-.462-1.415-1.1,0-.309.224-.406.393-.406.203,0,.392.14.392.392,0,.266-.217.42-.462.385.245.413.771.532,1.071.532.309,0,.792-.203.792-1.156,0-.686-.26-1.163-.834-1.163h-.308c-.119,0-.169,0-.169-.077,0-.07.05-.077.105-.084.049,0,.217-.014.273-.021.175-.007.413-.028.623-.364.183-.308.196-.714.196-.798,0-.63-.386-.784-.673-.784-.252,0-.714.091-.932.434.105,0,.435,0,.435.35,0,.203-.14.357-.357.357-.203,0-.356-.133-.356-.364,0-.532.532-.953,1.239-.953.673,0,1.289.392,1.289.967,0,.553-.406,1.043-.98,1.232.728.147,1.169.693,1.169,1.268Z"/>
  </g>
  <g>
    <rect class="cls-5" x="83.278" y="81.491" width="5.669" height="5.669"/>
    <g>
      <path class="cls-6" d="m77.412,94.218l1.534-3.943c.049-.126.049-.133.231-.133h1.184v.217h-.168c-.54,0-.553.077-.553.329v3.691c0,.252.014.329.553.329h.168v.217c-.259-.021-.729-.021-1.001-.021s-.75,0-1.008.021v-.217h.168c.539,0,.553-.077.553-.329v-4.02h-.007l-1.723,4.433c-.028.077-.049.133-.126.133-.07,0-.105-.063-.14-.154l-1.688-4.356h-.007v3.775c0,.189,0,.518.721.518v.217c-.245-.007-.588-.021-.819-.021s-.574.014-.819.021v-.217c.721,0,.721-.329.721-.518v-3.502c0-.252-.014-.329-.553-.329h-.168v-.217h1.184c.161,0,.182,0,.245.154l1.52,3.922Z"/>
      <path class="cls-6" d="m81.604,94.358c.161.259.441.469.792.469.07,0,.701,0,.946-.721.014-.056.028-.098.091-.098.035,0,.091.014.091.084,0,.133-.315.911-1.17.911-.805,0-1.541-.68-1.541-1.618,0-.875.644-1.597,1.457-1.597.875,0,1.254.679,1.254,1.373,0,.147-.021.147-.175.147h-1.954c0,.252,0,.714.21,1.05Zm1.457-1.198c0-.273-.07-1.218-.792-1.218-.238,0-.826.175-.869,1.218h1.66Z"/>
      <path class="cls-6" d="m84.936,94.071c0,.119,0,.756.47.756.259,0,.469-.266.469-.784v-.385h.175v.399c0,.448-.196.946-.693.946-.252,0-.903-.084-.903-.946v-1.933h-.595v-.154c.686-.028.896-.777.903-1.352h.175v1.289h1.002v.217h-1.002v1.947Z"/>
      <path class="cls-6" d="m87.428,94.358c.161.259.441.469.792.469.07,0,.701,0,.946-.721.014-.056.028-.098.091-.098.035,0,.091.014.091.084,0,.133-.315.911-1.17.911-.805,0-1.541-.68-1.541-1.618,0-.875.644-1.597,1.457-1.597.875,0,1.254.679,1.254,1.373,0,.147-.021.147-.175.147h-1.954c0,.252,0,.714.21,1.05Zm1.457-1.198c0-.273-.07-1.218-.792-1.218-.238,0-.826.175-.868,1.218h1.66Z"/>
      <path class="cls-6" d="m91.58,91.83c.301,0,.518.203.518.427s-.175.308-.301.308c-.154,0-.301-.105-.301-.301,0-.182.14-.266.161-.273-.014-.007-.028-.007-.077-.007-.532,0-.827.623-.827,1.316v1.079c0,.252.014.329.532.329h.147v.217c-.28-.021-.609-.021-.889-.021-.196,0-.525.014-.798.021v-.217c.469,0,.546,0,.546-.315v-1.877c0-.343-.056-.393-.546-.393v-.217l.973-.077v.771c.098-.301.351-.771.862-.771Z"/>
      <path class="cls-6" d="m96.767,94.387c.154,0,.616,0,.665-.056.07-.105.119-.414.154-.624h.175l-.196,1.219h-2.599c0-.168,0-.182.077-.259l1.345-1.499c.385-.435.735-.988.735-1.548,0-.574-.301-1.142-.938-1.142-.406,0-.784.259-.945.714.021-.007.035-.007.091-.007.245,0,.371.182.371.364,0,.287-.245.372-.364.372-.021,0-.371,0-.371-.393,0-.623.519-1.268,1.31-1.268.854,0,1.485.561,1.485,1.359,0,.7-.42,1.079-1.513,2.045l-.742.722h1.261Z"/>
    </g>
  </g>
  <g>
    <path d="m151.741,77.401c0,.674-.645,1.313-1.599,1.313h-2.812v-.223h.172c.553,0,.567-.079.567-.337v-3.781c0-.258-.014-.337-.567-.337h-.172v-.222h2.625c.933,0,1.593.588,1.593,1.212,0,.531-.495.99-1.19,1.127.796.086,1.384.624,1.384,1.249Zm-2.038-1.314c.797,0,1.148-.603,1.148-1.062,0-.38-.251-.99-.947-.99h-.889c-.337,0-.351.051-.351.287v1.765h1.04Zm1.32,1.306c0-.48-.302-1.148-1.012-1.148h-1.349v1.958c0,.237.014.287.351.287h.896c.739,0,1.112-.588,1.112-1.097Z"/>
    <path d="m154.029,78.793c-1.09,0-1.09-.653-1.09-1.212v-1.076c0-.639,0-.66-.56-.66v-.223l1.055-.079v2.382c0,.373.028.711.631.711.524,0,.868-.488.868-1.112v-1.277c0-.352-.058-.401-.56-.401v-.223l1.055-.079v2.547c0,.352.058.401.56.401v.223l-1.033.079v-.646c-.208.444-.524.646-.926.646Z"/>
    <path d="m156.676,76.992c-.194-.158-.309-.359-.309-.61,0-.402.273-.882,1.147-.882.108,0,.402,0,.675.2.028-.021.1-.086.122-.115.093-.086.108-.086.143-.086.079,0,.079.05.079.172v.724c0,.136,0,.172-.093.172-.015,0-.079,0-.086-.065-.014-.222-.05-.868-.84-.868-.617,0-.803.294-.803.545,0,.416.48.509.882.588.301.057.581.115.818.344.086.086.301.302.301.682,0,.516-.33.997-1.154.997-.151,0-.474-.007-.79-.309-.129.136-.129.151-.143.165-.136.136-.143.144-.179.144-.079,0-.079-.05-.079-.172v-.947c0-.129,0-.179.093-.179.072,0,.079.029.1.122.136.61.395,1.019.998,1.019.56,0,.811-.287.811-.653,0-.517-.588-.631-.747-.66-.516-.1-.717-.143-.946-.33Z"/>
    <path d="m161.546,77.53v-.222l2.203-3.364c.057-.086.079-.086.143-.086.115,0,.115.043.115.187v3.264h.717v.222h-.717v.624c0,.258.015.337.546.337h.15v.223c-.295-.022-.674-.022-.976-.022s-.674,0-.968.022v-.223h.15c.531,0,.545-.079.545-.337v-.624h-1.908Zm1.952-2.898l-1.751,2.676h1.751v-2.676Z"/>
  </g>
  <g>
    <path d="m151.791,14.532c0,.675-.645,1.313-1.6,1.313h-2.812v-.223h.172c.553,0,.567-.079.567-.337v-3.781c0-.257-.014-.337-.567-.337h-.172v-.222h2.625c.933,0,1.593.588,1.593,1.212,0,.531-.495.99-1.191,1.126.796.086,1.384.624,1.384,1.248Zm-2.037-1.313c.796,0,1.148-.602,1.148-1.062,0-.38-.251-.99-.947-.99h-.889c-.337,0-.351.05-.351.287v1.765h1.04Zm1.32,1.306c0-.481-.301-1.147-1.011-1.147h-1.349v1.958c0,.237.014.287.351.287h.897c.739,0,1.112-.588,1.112-1.098Z"/>
    <path d="m154.079,15.924c-1.09,0-1.09-.653-1.09-1.212v-1.077c0-.638,0-.66-.56-.66v-.222l1.055-.079v2.381c0,.373.028.711.631.711.524,0,.868-.488.868-1.112v-1.277c0-.352-.058-.402-.56-.402v-.222l1.055-.079v2.547c0,.351.057.401.559.401v.223l-1.033.079v-.645c-.208.444-.524.645-.926.645Z"/>
    <path d="m156.726,14.122c-.194-.158-.309-.359-.309-.609,0-.402.273-.883,1.148-.883.108,0,.402,0,.675.201.028-.021.1-.086.122-.115.093-.086.108-.086.143-.086.079,0,.079.051.079.173v.724c0,.136,0,.172-.093.172-.014,0-.079,0-.086-.065-.014-.223-.05-.868-.84-.868-.617,0-.803.294-.803.546,0,.416.481.509.882.588.301.058.581.115.818.345.086.086.301.301.301.682,0,.516-.33.997-1.155.997-.151,0-.473-.007-.789-.309-.129.136-.129.151-.143.165-.136.136-.143.144-.179.144-.079,0-.079-.051-.079-.172v-.947c0-.13,0-.179.094-.179.072,0,.079.029.1.122.136.61.395,1.02.997,1.02.56,0,.811-.288.811-.653,0-.517-.589-.631-.746-.66-.516-.1-.717-.143-.947-.331Z"/>
    <path d="m164.674,14.618c0,.732-.653,1.384-1.528,1.384-.782,0-1.449-.474-1.449-1.126,0-.316.23-.416.402-.416.208,0,.402.143.402.402,0,.273-.223.43-.474.394.251.423.789.545,1.098.545.316,0,.811-.208.811-1.183,0-.703-.265-1.191-.854-1.191h-.315c-.122,0-.172,0-.172-.079,0-.072.05-.079.108-.086.05,0,.223-.014.28-.021.179-.007.423-.029.638-.373.187-.316.201-.732.201-.818,0-.645-.394-.803-.689-.803-.258,0-.732.093-.954.444.108,0,.445,0,.445.359,0,.208-.143.366-.366.366-.208,0-.366-.136-.366-.373,0-.546.545-.976,1.27-.976.689,0,1.32.402,1.32.99,0,.567-.416,1.069-1.004,1.263.746.15,1.198.71,1.198,1.299Z"/>
  </g>
  <g>
    <path d="m10.195,46.028c0,.674-.645,1.313-1.599,1.313h-2.812v-.222h.172c.553,0,.567-.079.567-.337v-3.781c0-.258-.014-.337-.567-.337h-.172v-.222h2.625c.933,0,1.593.588,1.593,1.212,0,.531-.495.99-1.191,1.127.796.086,1.384.624,1.384,1.248Zm-2.037-1.313c.796,0,1.148-.603,1.148-1.062,0-.38-.251-.99-.947-.99h-.89c-.337,0-.351.05-.351.287v1.765h1.04Zm1.32,1.306c0-.481-.301-1.148-1.011-1.148h-1.349v1.959c0,.237.014.287.351.287h.897c.739,0,1.112-.588,1.112-1.097Z"/>
    <path d="m12.483,47.42c-1.09,0-1.09-.653-1.09-1.212v-1.076c0-.638,0-.66-.56-.66v-.222l1.055-.08v2.382c0,.373.028.71.631.71.524,0,.868-.488.868-1.112v-1.278c0-.352-.058-.401-.56-.401v-.222l1.055-.08v2.548c0,.352.057.401.559.401v.222l-1.033.079v-.646c-.208.445-.524.646-.925.646Z"/>
    <path d="m15.13,45.619c-.194-.158-.309-.359-.309-.61,0-.401.273-.882,1.148-.882.108,0,.402,0,.675.201.028-.022.1-.087.122-.115.093-.087.108-.087.144-.087.079,0,.079.051.079.172v.725c0,.136,0,.172-.093.172-.014,0-.079,0-.086-.065-.014-.223-.05-.868-.839-.868-.617,0-.803.294-.803.546,0,.416.481.509.882.588.301.058.581.115.818.344.086.086.301.301.301.681,0,.517-.33.997-1.155.997-.151,0-.474-.007-.789-.308-.129.137-.129.151-.143.165-.136.137-.143.143-.179.143-.079,0-.079-.05-.079-.172v-.947c0-.129,0-.179.093-.179.072,0,.079.029.1.122.136.61.395,1.019.997,1.019.56,0,.811-.287.811-.652,0-.517-.588-.631-.746-.66-.516-.101-.717-.144-.947-.331Z"/>
    <path d="m21.908,46.774c0,.266.022.344.667.344h.23v.222c-.251-.021-.875-.021-1.162-.021s-.911,0-1.162.021v-.222h.229c.645,0,.667-.086.667-.344v-3.716c-.373.186-.796.186-.94.186v-.222c.23,0,.861,0,1.306-.459.165,0,.165.014.165.186v4.025Z"/>
  </g>
  <line class="cls-3" x1="14.294" y1="49.738" x2="14.294" y2="79.672"/>
  <g>
    <path class="cls-6" d="m224.201,7.319c0,.658-.63,1.282-1.562,1.282h-2.746v-.217h.168c.539,0,.553-.077.553-.329v-3.691c0-.252-.014-.329-.553-.329h-.168v-.217h2.563c.911,0,1.555.574,1.555,1.184,0,.519-.483.967-1.163,1.1.778.084,1.352.609,1.352,1.219Zm-1.989-1.282c.777,0,1.121-.588,1.121-1.037,0-.371-.245-.966-.924-.966h-.869c-.329,0-.343.049-.343.28v1.723h1.016Zm1.289,1.275c0-.469-.294-1.121-.987-1.121h-1.317v1.912c0,.231.014.28.343.28h.875c.722,0,1.085-.574,1.085-1.071Z"/>
    <path class="cls-6" d="m226.433,8.678c-1.064,0-1.064-.638-1.064-1.184v-1.051c0-.623,0-.645-.546-.645v-.217l1.03-.077v2.325c0,.364.028.693.616.693.511,0,.847-.476.847-1.085v-1.247c0-.343-.056-.393-.546-.393v-.217l1.029-.077v2.486c0,.343.056.392.546.392v.217l-1.009.077v-.63c-.203.434-.511.63-.903.63Z"/>
    <path class="cls-6" d="m229.015,6.92c-.189-.154-.301-.351-.301-.596,0-.392.266-.861,1.121-.861.105,0,.393,0,.659.196.028-.021.098-.084.119-.112.091-.084.105-.084.14-.084.077,0,.077.049.077.168v.708c0,.133,0,.168-.091.168-.014,0-.077,0-.084-.063-.014-.217-.049-.847-.82-.847-.602,0-.784.287-.784.532,0,.406.469.497.861.574.294.056.567.112.798.336.084.084.294.294.294.666,0,.504-.322.974-1.128.974-.147,0-.462-.007-.77-.301-.126.133-.126.147-.14.161-.133.133-.14.14-.175.14-.077,0-.077-.049-.077-.168v-.925c0-.126,0-.175.091-.175.07,0,.077.028.098.119.133.596.385.995.973.995.546,0,.792-.28.792-.637,0-.504-.574-.616-.728-.645-.504-.098-.701-.14-.925-.322Z"/>
    <path class="cls-6" d="m235.189,8.755c-.784,0-1.268-.68-1.268-1.282,0-.322.245-.372.343-.372.231,0,.35.175.35.343s-.119.343-.35.343c-.077,0-.098-.007-.119-.014.119.414.519.785,1.03.785.322,0,.581-.182.75-.455.168-.294.168-.714.168-.96,0-.35-.014-.623-.126-.882-.056-.126-.231-.448-.596-.448-.567,0-.826.378-.903.49-.028.042-.042.063-.091.063-.098,0-.098-.056-.098-.182v-2.073c0-.112,0-.168.07-.168.014,0,.028,0,.084.021.329.147.651.196.932.196.469,0,.812-.14.953-.203.035-.021.049-.021.056-.021.049,0,.07.035.07.077,0,.091-.49.729-1.352.729-.224,0-.456-.049-.596-.091v1.366c.252-.245.554-.357.89-.357.756,0,1.331.7,1.331,1.534,0,.89-.714,1.562-1.527,1.562Z"/>
  </g>
  <g>
    <path class="cls-6" d="m224.173,84.565c0,.658-.631,1.282-1.562,1.282h-2.745v-.217h.168c.539,0,.554-.077.554-.329v-3.691c0-.252-.015-.329-.554-.329h-.168v-.217h2.563c.91,0,1.555.574,1.555,1.184,0,.519-.483.967-1.163,1.1.778.084,1.353.609,1.353,1.219Zm-1.989-1.282c.777,0,1.12-.588,1.12-1.037,0-.371-.245-.966-.924-.966h-.869c-.329,0-.343.049-.343.28v1.723h1.016Zm1.288,1.275c0-.469-.294-1.121-.987-1.121h-1.316v1.912c0,.231.014.28.343.28h.876c.722,0,1.085-.574,1.085-1.071Z"/>
    <path class="cls-6" d="m226.405,85.924c-1.064,0-1.064-.638-1.064-1.184v-1.051c0-.623,0-.645-.547-.645v-.217l1.03-.077v2.325c0,.364.027.693.616.693.511,0,.847-.476.847-1.085v-1.247c0-.343-.056-.393-.546-.393v-.217l1.029-.077v2.486c0,.343.057.392.547.392v.217l-1.009.077v-.63c-.203.434-.512.63-.903.63Z"/>
    <path class="cls-6" d="m228.987,84.166c-.189-.154-.302-.351-.302-.596,0-.392.267-.861,1.121-.861.105,0,.393,0,.658.196.028-.021.098-.084.119-.112.091-.084.105-.084.14-.084.077,0,.077.049.077.168v.708c0,.133,0,.168-.091.168-.014,0-.077,0-.084-.063-.014-.217-.049-.847-.819-.847-.603,0-.784.287-.784.532,0,.406.469.497.861.574.294.056.567.112.798.336.084.084.295.294.295.666,0,.504-.322.974-1.128.974-.147,0-.462-.007-.771-.301-.126.133-.126.147-.14.161-.134.133-.141.14-.176.14-.077,0-.077-.049-.077-.168v-.925c0-.126,0-.175.092-.175.069,0,.077.028.098.119.133.596.386.995.974.995.546,0,.791-.28.791-.637,0-.504-.574-.616-.728-.645-.505-.098-.701-.14-.925-.322Z"/>
    <path class="cls-6" d="m235.343,82.856c.777,0,1.4.672,1.4,1.562,0,.924-.665,1.583-1.442,1.583-.651,0-1.464-.498-1.464-2.368,0-1.548.945-2.451,1.842-2.451.581,0,.89.336.89.756,0,.273-.21.336-.322.336-.154,0-.322-.105-.322-.322,0-.315.28-.315.386-.315-.154-.238-.448-.28-.616-.28-.357,0-1.227.252-1.227,2.024v.168c.141-.336.399-.693.876-.693Zm.651,2.494c.119-.252.119-.603.119-.938,0-.343,0-.701-.126-.96-.218-.434-.539-.434-.651-.434-.631,0-.854.701-.854,1.247,0,.126,0,.687.126,1.016.042.105.252.525.693.525.161,0,.483-.035.693-.455Z"/>
  </g>
  <line class="cls-3" x1="86.112" y1="49.738" x2="86.112" y2="79.672"/>
  <g>
    <path d="m81.906,46.028c0,.674-.645,1.313-1.6,1.313h-2.812v-.223h.172c.553,0,.567-.079.567-.337v-3.781c0-.258-.014-.338-.567-.338h-.172v-.222h2.625c.933,0,1.593.589,1.593,1.212,0,.531-.495.99-1.191,1.126.796.086,1.384.624,1.384,1.249Zm-2.037-1.314c.796,0,1.148-.602,1.148-1.062,0-.38-.251-.99-.947-.99h-.889c-.337,0-.351.051-.351.287v1.765h1.04Zm1.32,1.306c0-.48-.301-1.147-1.011-1.147h-1.349v1.958c0,.237.014.287.351.287h.897c.739,0,1.112-.588,1.112-1.097Z"/>
    <path d="m84.193,47.42c-1.09,0-1.09-.652-1.09-1.212v-1.076c0-.639,0-.66-.56-.66v-.223l1.055-.079v2.381c0,.373.028.711.631.711.524,0,.868-.488.868-1.112v-1.277c0-.352-.058-.401-.56-.401v-.223l1.055-.079v2.547c0,.352.057.401.559.401v.223l-1.033.079v-.646c-.208.444-.524.646-.926.646Z"/>
    <path d="m86.84,45.619c-.194-.157-.309-.359-.309-.61,0-.402.273-.882,1.148-.882.108,0,.402,0,.675.2.028-.021.1-.086.122-.115.093-.086.107-.086.143-.086.079,0,.079.05.079.172v.724c0,.136,0,.172-.093.172-.014,0-.079,0-.086-.065-.014-.222-.05-.868-.84-.868-.617,0-.803.294-.803.545,0,.416.481.509.883.588.301.057.581.115.818.344.086.086.301.302.301.682,0,.516-.33.997-1.155.997-.151,0-.474-.007-.789-.309-.129.136-.129.151-.143.165-.136.136-.143.143-.179.143-.079,0-.079-.05-.079-.172v-.947c0-.129,0-.179.094-.179.072,0,.079.029.1.122.136.61.395,1.019.997,1.019.56,0,.811-.287.811-.653,0-.517-.588-.631-.746-.66-.516-.1-.717-.143-.947-.33Z"/>
    <path d="m93.712,46.788c.158,0,.631,0,.681-.058.072-.108.122-.423.158-.638h.179l-.201,1.249h-2.662c0-.172,0-.187.079-.266l1.377-1.535c.394-.445.753-1.012.753-1.586,0-.589-.308-1.169-.961-1.169-.416,0-.804.265-.968.731.021-.007.036-.007.093-.007.251,0,.38.187.38.373,0,.294-.251.38-.373.38-.021,0-.38,0-.38-.402,0-.638.531-1.299,1.342-1.299.875,0,1.521.574,1.521,1.392,0,.717-.43,1.105-1.549,2.095l-.76.739h1.291Z"/>
  </g>
  <line class="cls-2" x1="14.294" y1="64.705" x2="86.243" y2="64.705"/>
  <line class="cls-3" x1="156.027" y1="18.366" x2="156.027" y2="48.3"/>
  <polyline class="cls-1" points="155.88 33.333 118.776 33.333 116.976 33.333 116.974 57.179 86.828 57.179"/>
  <line class="cls-3" x1="228.305" y1="11.074" x2="228.305" y2="41.008"/>
  <line class="cls-2" x1="156.356" y1="26.041" x2="228.305" y2="26.041"/>
  <line class="cls-3" x1="156.027" y1="111.045" x2="156.027" y2="81.111"/>
  <line class="cls-3" x1="228.305" y1="118.394" x2="228.305" y2="88.46"/>
  <line class="cls-2" x1="156.356" y1="103.427" x2="228.305" y2="103.427"/>
  <polyline class="cls-1" points="156.891 40.859 177.918 40.859 177.918 64.969 177.918 88.654 156.925 88.654"/>
  <polyline class="cls-1" points="155.262 96.078 118.158 96.078 116.358 96.078 116.357 72.232 86.21 72.232"/>
  <rect class="cls-5" x="153.192" y="112.864" width="5.669" height="5.669"/>
  <g>
    <path class="cls-6" d="m147.298,125.445l1.534-3.943c.049-.126.049-.133.231-.133h1.184v.217h-.168c-.54,0-.554.077-.554.329v3.691c0,.252.014.329.554.329h.168v.217c-.26-.021-.729-.021-1.002-.021s-.749,0-1.008.021v-.217h.168c.539,0,.553-.077.553-.329v-4.02h-.007l-1.723,4.433c-.028.077-.049.133-.126.133-.07,0-.105-.063-.141-.154l-1.688-4.356h-.007v3.775c0,.189,0,.518.721.518v.217c-.245-.007-.588-.021-.819-.021s-.574.014-.819.021v-.217c.722,0,.722-.329.722-.518v-3.502c0-.252-.015-.329-.554-.329h-.168v-.217h1.184c.161,0,.183,0,.245.154l1.52,3.922Z"/>
    <path class="cls-6" d="m151.491,125.585c.161.259.441.469.791.469.07,0,.701,0,.946-.721.014-.056.027-.098.091-.098.035,0,.091.014.091.084,0,.133-.315.911-1.17.911-.805,0-1.54-.68-1.54-1.618,0-.875.644-1.597,1.456-1.597.876,0,1.254.679,1.254,1.373,0,.147-.021.147-.175.147h-1.954c0,.252,0,.714.21,1.05Zm1.457-1.198c0-.273-.07-1.218-.792-1.218-.238,0-.826.175-.868,1.218h1.66Z"/>
    <path class="cls-6" d="m154.823,125.298c0,.119,0,.756.47.756.259,0,.469-.266.469-.784v-.385h.175v.399c0,.448-.195.946-.693.946-.252,0-.903-.084-.903-.946v-1.933h-.595v-.154c.686-.028.896-.777.903-1.352h.175v1.289h1.002v.217h-1.002v1.947Z"/>
    <path class="cls-6" d="m157.314,125.585c.161.259.441.469.792.469.07,0,.7,0,.945-.721.014-.056.028-.098.091-.098.035,0,.092.014.092.084,0,.133-.315.911-1.17.911-.806,0-1.541-.68-1.541-1.618,0-.875.645-1.597,1.457-1.597.875,0,1.254.679,1.254,1.373,0,.147-.021.147-.176.147h-1.954c0,.252,0,.714.21,1.05Zm1.457-1.198c0-.273-.069-1.218-.791-1.218-.238,0-.826.175-.868,1.218h1.659Z"/>
    <path class="cls-6" d="m161.466,123.057c.301,0,.518.203.518.427s-.175.308-.301.308c-.154,0-.301-.105-.301-.301,0-.182.14-.266.16-.273-.014-.007-.027-.007-.076-.007-.532,0-.827.623-.827,1.316v1.079c0,.252.015.329.532.329h.147v.217c-.28-.021-.609-.021-.89-.021-.196,0-.525.014-.798.021v-.217c.469,0,.546,0,.546-.315v-1.877c0-.343-.056-.393-.546-.393v-.217l.973-.077v.771c.099-.301.351-.771.862-.771Z"/>
    <path class="cls-6" d="m167.704,124.954c0,.714-.638,1.352-1.492,1.352-.764,0-1.415-.462-1.415-1.1,0-.309.225-.406.393-.406.203,0,.393.14.393.392,0,.266-.218.42-.463.385.245.413.771.532,1.072.532.308,0,.791-.203.791-1.156,0-.686-.259-1.163-.833-1.163h-.309c-.119,0-.168,0-.168-.077,0-.07.049-.077.105-.084.049,0,.217-.014.272-.021.176-.007.413-.028.624-.364.182-.308.195-.714.195-.798,0-.63-.385-.784-.672-.784-.252,0-.715.091-.932.434.105,0,.435,0,.435.35,0,.203-.141.357-.357.357-.203,0-.357-.133-.357-.364,0-.532.532-.953,1.24-.953.672,0,1.288.392,1.288.966,0,.554-.406,1.044-.98,1.233.729.147,1.17.693,1.17,1.268Z"/>
  </g>
  <g>
    <rect class="cls-5" x="26.512" y="62.006" width="5.669" height="5.669"/>
    <g>
      <path class="cls-6" d="m20.752,74.594l1.534-3.943c.049-.126.049-.133.231-.133h1.184v.217h-.168c-.54,0-.553.077-.553.329v3.691c0,.252.014.329.553.329h.168v.217c-.259-.021-.729-.021-1.001-.021s-.75,0-1.008.021v-.217h.168c.539,0,.553-.077.553-.329v-4.02h-.007l-1.723,4.433c-.028.077-.049.133-.126.133-.07,0-.105-.063-.14-.154l-1.688-4.356h-.007v3.775c0,.189,0,.518.721.518v.217c-.245-.007-.588-.021-.819-.021s-.574.014-.819.021v-.217c.721,0,.721-.329.721-.518v-3.502c0-.252-.014-.329-.553-.329h-.168v-.217h1.184c.161,0,.182,0,.245.154l1.52,3.922Z"/>
      <path class="cls-6" d="m24.944,74.734c.161.259.441.469.792.469.07,0,.701,0,.946-.721.014-.056.028-.098.091-.098.035,0,.091.014.091.084,0,.133-.315.911-1.17.911-.805,0-1.541-.68-1.541-1.618,0-.875.644-1.597,1.457-1.597.875,0,1.254.679,1.254,1.373,0,.147-.021.147-.175.147h-1.954c0,.252,0,.714.21,1.05Zm1.457-1.198c0-.273-.07-1.218-.792-1.218-.238,0-.826.175-.869,1.218h1.66Z"/>
      <path class="cls-6" d="m28.276,74.447c0,.119,0,.756.47.756.259,0,.469-.266.469-.784v-.385h.175v.399c0,.448-.196.946-.693.946-.252,0-.903-.084-.903-.946v-1.933h-.595v-.154c.686-.028.896-.777.903-1.352h.175v1.289h1.002v.217h-1.002v1.947Z"/>
      <path class="cls-6" d="m30.767,74.734c.161.259.441.469.792.469.07,0,.701,0,.946-.721.014-.056.028-.098.091-.098.035,0,.091.014.091.084,0,.133-.315.911-1.17.911-.805,0-1.541-.68-1.541-1.618,0-.875.644-1.597,1.457-1.597.875,0,1.254.679,1.254,1.373,0,.147-.021.147-.175.147h-1.954c0,.252,0,.714.21,1.05Zm1.457-1.198c0-.273-.07-1.218-.792-1.218-.238,0-.826.175-.868,1.218h1.66Z"/>
      <path class="cls-6" d="m34.919,72.206c.301,0,.518.203.518.427s-.175.308-.301.308c-.154,0-.301-.105-.301-.301,0-.182.14-.266.161-.273-.014-.007-.028-.007-.077-.007-.532,0-.827.623-.827,1.316v1.079c0,.252.014.329.532.329h.147v.217c-.28-.021-.609-.021-.889-.021-.196,0-.525.014-.798.021v-.217c.469,0,.546,0,.546-.315v-1.877c0-.343-.056-.393-.546-.393v-.217l.973-.077v.771c.098-.301.351-.771.862-.771Z"/>
      <path class="cls-6" d="m40.015,74.748c0,.259.021.336.651.336h.224v.217c-.245-.021-.854-.021-1.135-.021s-.889,0-1.134.021v-.217h.224c.63,0,.651-.084.651-.336v-3.628c-.364.182-.778.182-.917.182v-.217c.224,0,.84,0,1.274-.448.161,0,.161.014.161.182v3.929Z"/>
    </g>
  </g>
  <g>
    <g>
      <path class="cls-6" d="m204.242,113.173l1.534-3.943c.049-.126.049-.133.231-.133h1.184v.217h-.168c-.54,0-.553.077-.553.329v3.691c0,.252.014.329.553.329h.168v.217c-.259-.021-.729-.021-1.001-.021s-.75,0-1.008.021v-.217h.168c.539,0,.553-.077.553-.329v-4.02h-.007l-1.723,4.433c-.028.077-.049.133-.126.133-.07,0-.105-.063-.14-.154l-1.688-4.356h-.007v3.775c0,.189,0,.518.721.518v.217c-.245-.007-.588-.021-.819-.021s-.574.014-.819.021v-.217c.721,0,.721-.329.721-.518v-3.502c0-.252-.014-.329-.553-.329h-.168v-.217h1.184c.161,0,.182,0,.245.154l1.52,3.922Z"/>
      <path class="cls-6" d="m208.434,113.313c.161.259.441.469.792.469.07,0,.701,0,.946-.721.014-.056.028-.098.091-.098.035,0,.091.014.091.084,0,.133-.315.911-1.17.911-.805,0-1.541-.68-1.541-1.618,0-.875.644-1.597,1.457-1.597.875,0,1.254.679,1.254,1.373,0,.147-.021.147-.175.147h-1.954c0,.252,0,.714.21,1.05Zm1.457-1.198c0-.273-.07-1.218-.792-1.218-.238,0-.826.175-.869,1.218h1.66Z"/>
      <path class="cls-6" d="m211.766,113.026c0,.119,0,.756.47.756.259,0,.469-.266.469-.784v-.385h.175v.399c0,.448-.196.946-.693.946-.252,0-.903-.084-.903-.946v-1.933h-.595v-.154c.686-.028.896-.777.903-1.352h.175v1.289h1.002v.217h-1.002v1.947Z"/>
      <path class="cls-6" d="m214.257,113.313c.161.259.441.469.792.469.07,0,.701,0,.946-.721.014-.056.028-.098.091-.098.035,0,.091.014.091.084,0,.133-.315.911-1.17.911-.805,0-1.541-.68-1.541-1.618,0-.875.644-1.597,1.457-1.597.875,0,1.254.679,1.254,1.373,0,.147-.021.147-.175.147h-1.954c0,.252,0,.714.21,1.05Zm1.457-1.198c0-.273-.07-1.218-.792-1.218-.238,0-.826.175-.868,1.218h1.66Z"/>
      <path class="cls-6" d="m218.409,110.785c.301,0,.518.203.518.427s-.175.308-.301.308c-.154,0-.301-.105-.301-.301,0-.182.14-.266.161-.273-.014-.007-.028-.007-.077-.007-.532,0-.827.623-.827,1.316v1.079c0,.252.014.329.532.329h.147v.217c-.28-.021-.609-.021-.889-.021-.196,0-.525.014-.798.021v-.217c.469,0,.546,0,.546-.315v-1.877c0-.343-.056-.393-.546-.393v-.217l.973-.077v.771c.098-.301.351-.771.862-.771Z"/>
      <path class="cls-6" d="m221.642,112.725v-.217l2.15-3.285c.056-.084.077-.084.14-.084.112,0,.112.042.112.182v3.187h.7v.217h-.7v.609c0,.252.014.329.532.329h.147v.217c-.287-.021-.658-.021-.953-.021s-.658,0-.945.021v-.217h.147c.518,0,.532-.077.532-.329v-.609h-1.863Zm1.905-2.83l-1.709,2.613h1.709v-2.613Z"/>
    </g>
    <rect class="cls-5" x="210.185" y="100.593" width="5.669" height="5.669"/>
  </g>
</svg>