<?xml version="1.0" encoding="UTF-8"?>
<svg id="Layer_1" data-name="Layer 1" xmlns="http://www.w3.org/2000/svg" viewBox="0 0 70.83 52.753">
  <defs>
    <style>
      .cls-1 {
        opacity: .6;
      }

      .cls-2 {
        stroke-dasharray: 0 0 2.8 2.8;
      }

      .cls-2, .cls-3, .cls-4, .cls-5, .cls-6, .cls-7, .cls-8, .cls-9, .cls-10, .cls-11, .cls-12 {
        fill: none;
        stroke: #000;
        stroke-miterlimit: 10;
      }

      .cls-2, .cls-4, .cls-5, .cls-6, .cls-7, .cls-8, .cls-9, .cls-10, .cls-11 {
        stroke-width: .1px;
      }

      .cls-3 {
        stroke-width: .4px;
      }

      .cls-4 {
        stroke-dasharray: 0 0 2.8 2.8;
      }

      .cls-6 {
        stroke-dasharray: 0 0 3.132 3.132;
      }

      .cls-7 {
        stroke-dasharray: 0 0 3.221 3.221;
      }

      .cls-8 {
        stroke-dasharray: 0 0 3.074 3.074;
      }

      .cls-9 {
        stroke-dasharray: 0 0 3.131 3.131;
      }

      .cls-10 {
        stroke-dasharray: 0 0 3.131 3.131;
      }

      .cls-11 {
        stroke-dasharray: 0 0 2.8 2.8;
      }

      .cls-12 {
        stroke-width: .5px;
      }
    </style>
  </defs>
  <g>
    <line class="cls-12" x1="16.217" y1="51.21" x2="16.217" y2="2.297"/>
    <polygon points="17.513 3.28 16.217 2.729 14.921 3.28 16.217 .207 17.513 3.28"/>
  </g>
  <g>
    <line class="cls-12" x1="10.146" y1="44.969" x2="66.627" y2="44.969"/>
    <polygon points="65.644 46.265 66.195 44.969 65.644 43.673 68.717 44.969 65.644 46.265"/>
  </g>
  <g class="cls-1">
    <g>
      <line class="cls-5" x1="16.217" y1="30.026" x2="17.717" y2="30.026"/>
      <line class="cls-11" x1="20.517" y1="30.026" x2="58.317" y2="30.026"/>
      <line class="cls-5" x1="59.717" y1="30.026" x2="61.217" y2="30.026"/>
    </g>
  </g>
  <g class="cls-1">
    <g>
      <line class="cls-5" x1="16.217" y1="15.026" x2="17.717" y2="15.026"/>
      <line class="cls-2" x1="20.517" y1="15.026" x2="58.317" y2="15.026"/>
      <line class="cls-5" x1="59.717" y1="15.026" x2="61.217" y2="15.026"/>
    </g>
  </g>
  <g class="cls-1">
    <g>
      <line class="cls-5" x1="16.345" y1="37.526" x2="17.845" y2="37.526"/>
      <line class="cls-7" x1="21.066" y1="37.526" x2="58.106" y2="37.526"/>
      <line class="cls-5" x1="59.717" y1="37.526" x2="61.217" y2="37.526"/>
    </g>
  </g>
  <g class="cls-1">
    <g>
      <line class="cls-5" x1="16.217" y1="22.526" x2="17.717" y2="22.526"/>
      <line class="cls-4" x1="20.517" y1="22.526" x2="58.317" y2="22.526"/>
      <line class="cls-5" x1="59.717" y1="22.526" x2="61.217" y2="22.526"/>
    </g>
  </g>
  <g class="cls-1">
    <g>
      <line class="cls-5" x1="16.217" y1="7.526" x2="17.717" y2="7.526"/>
      <line class="cls-2" x1="20.517" y1="7.526" x2="58.317" y2="7.526"/>
      <line class="cls-5" x1="59.717" y1="7.526" x2="61.217" y2="7.526"/>
    </g>
  </g>
  <g class="cls-1">
    <g>
      <line class="cls-5" x1="23.717" y1="44.97" x2="23.717" y2="43.47"/>
      <line class="cls-9" x1="23.717" y1="40.338" x2="23.717" y2="10.592"/>
      <line class="cls-5" x1="23.717" y1="9.026" x2="23.717" y2="7.526"/>
    </g>
  </g>
  <g class="cls-1">
    <g>
      <line class="cls-5" x1="31.217" y1="44.973" x2="31.217" y2="43.473"/>
      <line class="cls-6" x1="31.217" y1="40.341" x2="31.217" y2="10.592"/>
      <line class="cls-5" x1="31.217" y1="9.026" x2="31.217" y2="7.526"/>
    </g>
  </g>
  <g class="cls-1">
    <g>
      <line class="cls-5" x1="38.717" y1="44.97" x2="38.717" y2="43.47"/>
      <line class="cls-10" x1="38.717" y1="40.339" x2="38.717" y2="10.592"/>
      <line class="cls-5" x1="38.717" y1="9.026" x2="38.717" y2="7.526"/>
    </g>
  </g>
  <g class="cls-1">
    <g>
      <line class="cls-5" x1="46.217" y1="44.973" x2="46.217" y2="43.473"/>
      <line class="cls-6" x1="46.217" y1="40.341" x2="46.217" y2="10.592"/>
      <line class="cls-5" x1="46.217" y1="9.026" x2="46.217" y2="7.526"/>
    </g>
  </g>
  <g class="cls-1">
    <g>
      <line class="cls-5" x1="53.717" y1="44.973" x2="53.717" y2="43.473"/>
      <line class="cls-6" x1="53.717" y1="40.341" x2="53.717" y2="10.592"/>
      <line class="cls-5" x1="53.717" y1="9.026" x2="53.717" y2="7.526"/>
    </g>
  </g>
  <g class="cls-1">
    <g>
      <line class="cls-5" x1="61.217" y1="44.343" x2="61.217" y2="42.843"/>
      <line class="cls-8" x1="61.217" y1="39.769" x2="61.217" y2="10.563"/>
      <line class="cls-5" x1="61.217" y1="9.026" x2="61.217" y2="7.526"/>
    </g>
  </g>
  <g>
    <path d="m70.271,51.14c.084-.207.104-.257.104-.334,0-.09-.03-.117-.083-.117-.124,0-.271.12-.357.407-.011.037-.014.054-.061.054-.01,0-.057,0-.057-.043,0-.057.153-.511.484-.511.184,0,.317.127.317.284,0,.033-.01.073-.02.107-.014.04-.134.344-.164.424-.037.087-.073.177-.107.267-.029.074-.053.137-.053.214,0,.074.017.117.083.117.131,0,.277-.137.354-.404.014-.037.017-.057.063-.057.01,0,.054,0,.054.043,0,.05-.147.511-.481.511-.184,0-.317-.127-.317-.284,0-.057.017-.097.03-.141l.21-.538Zm.284-.976c-.09,0-.134-.07-.134-.127,0-.097.097-.184.188-.184.094,0,.134.073.134.127,0,.09-.091.184-.188.184Z"/>
    <path d="m68.192,51.611c0,.097.061.197.167.221.027.003.147.003.221.003.324,0,.521,0,.719.104.184.1.224.281.224.381,0,.268-.395.434-.818.434-.451,0-.819-.183-.819-.427,0-.174.174-.284.324-.334-.13-.097-.14-.254-.14-.297,0-.13.073-.241.1-.271-.094-.087-.16-.207-.16-.337,0-.261.251-.491.595-.491.147,0,.287.047.388.12.157-.144.338-.154.388-.154.134,0,.197.094.197.17,0,.077-.061.11-.107.11-.057,0-.106-.04-.106-.107,0-.053.017-.067.03-.08-.057,0-.188.003-.338.11.08.087.141.19.141.321,0,.261-.251.491-.595.491-.194,0-.314-.074-.364-.104-.021.027-.044.053-.044.137Zm.218.448c-.214.003-.321.147-.321.264,0,.174.265.331.615.331s.614-.154.614-.331c0-.264-.417-.264-.715-.264h-.193Zm.451-.698c.066-.087.066-.221.066-.274,0-.07,0-.391-.327-.391-.12,0-.211.06-.258.117-.066.087-.066.22-.066.274,0,.07,0,.391.327.391.12,0,.211-.061.258-.117Z"/>
    <path d="m65.835,51.036c-.005.029-.014.053-.014.082,0,.086.134.086.311.086.091,0,.134,0,.134.052,0,.096-.062.096-.096.096-.1,0-.206-.01-.311-.01-.1,0-.205-.004-.306-.004-.134,0-.473.014-.606.014-.014,0-.072,0-.072-.057,0-.091.053-.091.134-.091.377,0,.387-.038.435-.225l.64-2.564c.014-.058.019-.072.019-.091,0-.053-.029-.067-.105-.077-.058-.005-.144-.009-.206-.009-.095,0-.138,0-.138-.058,0-.091.052-.091.143-.091h1.548c.625,0,.94.354.94.721,0,.535-.664,1.032-1.342,1.032h-.812l-.296,1.194Zm.315-1.318h.673c.211,0,.497-.038.736-.253.186-.172.281-.583.281-.769,0-.33-.253-.458-.649-.458h-.458c-.206,0-.215.014-.259.181l-.324,1.299Z"/>
  </g>
  <line class="cls-3" x1="23.717" y1="37.412" x2="53.717" y2="15.026"/>
  <g>
    <path d="m13.188,3.845c-.281.606-.711.932-.759.932-.029,0-.048-.02-.048-.048,0-.015,0-.023.062-.081.593-.602.77-1.442.77-2.259,0-.999-.272-1.758-.74-2.23-.091-.086-.091-.096-.091-.11,0-.028.019-.048.048-.048.048,0,.458.311.745.898.263.539.314,1.117.314,1.49,0,.4-.057.931-.301,1.456Z"/>
    <path d="m11.128,3.37c.084-.207.104-.257.104-.334,0-.09-.03-.116-.083-.116-.124,0-.271.12-.357.407-.011.037-.014.054-.061.054-.01,0-.057,0-.057-.044,0-.057.153-.511.484-.511.184,0,.317.127.317.284,0,.033-.01.073-.02.106-.014.04-.134.345-.164.425-.037.087-.073.177-.107.267-.029.074-.053.138-.053.214,0,.074.017.117.083.117.131,0,.277-.137.354-.404.014-.037.017-.057.063-.057.01,0,.054,0,.054.043,0,.051-.147.512-.481.512-.184,0-.317-.127-.317-.284,0-.057.017-.097.03-.141l.21-.538Zm.284-.976c-.09,0-.134-.07-.134-.127,0-.097.097-.184.188-.184.094,0,.134.073.134.127,0,.09-.091.184-.188.184Z"/>
    <path d="m9.048,3.842c0,.097.061.197.167.221.027.003.147.003.221.003.324,0,.521,0,.719.104.184.101.224.281.224.381,0,.268-.395.435-.818.435-.451,0-.819-.184-.819-.428,0-.174.174-.284.324-.334-.13-.097-.14-.254-.14-.298,0-.13.073-.24.1-.271-.094-.087-.16-.207-.16-.337,0-.261.251-.491.595-.491.147,0,.287.047.388.12.157-.144.338-.154.388-.154.134,0,.197.094.197.171s-.061.11-.107.11c-.057,0-.106-.04-.106-.107,0-.053.017-.066.03-.08-.057,0-.188.004-.338.11.08.087.141.19.141.321,0,.261-.251.491-.595.491-.194,0-.314-.074-.364-.104-.021.026-.044.053-.044.137Zm.218.447c-.214.004-.321.147-.321.265,0,.174.265.331.615.331s.614-.154.614-.331c0-.265-.417-.265-.715-.265h-.193Zm.451-.698c.066-.087.066-.221.066-.273,0-.07,0-.392-.327-.392-.12,0-.211.061-.258.117-.066.087-.066.221-.066.274,0,.07,0,.391.327.391.12,0,.211-.061.258-.117Z"/>
    <path d="m6.692,3.267c-.005.029-.015.053-.015.082,0,.086.134.086.311.086.091,0,.134,0,.134.052,0,.096-.062.096-.096.096-.101,0-.205-.01-.311-.01-.101,0-.205-.004-.306-.004-.134,0-.473.014-.606.014-.015,0-.071,0-.071-.057,0-.091.052-.091.134-.091.377,0,.387-.038.435-.225l.64-2.564c.015-.058.02-.072.02-.091,0-.053-.029-.067-.105-.077-.058-.005-.144-.009-.205-.009-.096,0-.139,0-.139-.058,0-.091.053-.091.144-.091h1.547c.626,0,.941.354.941.721,0,.535-.664,1.032-1.343,1.032h-.812l-.296,1.193Zm.314-1.317h.674c.21,0,.497-.038.735-.254.187-.172.282-.582.282-.769,0-.329-.254-.458-.649-.458h-.459c-.205,0-.215.014-.258.181l-.325,1.3Z"/>
    <path d="m5.214,4.776c-.048,0-.459-.311-.745-.898-.263-.539-.315-1.117-.315-1.489,0-.401.058-.932.301-1.457.282-.606.712-.932.76-.932.028,0,.048.015.048.048,0,.015,0,.024-.062.081-.587.598-.769,1.429-.769,2.26,0,.73.152,1.633.75,2.234.081.082.081.091.081.105,0,.033-.02.048-.048.048Z"/>
    <path d="m2.7,3.37c.084-.207.104-.257.104-.334,0-.09-.03-.116-.083-.116-.124,0-.271.12-.357.407-.011.037-.014.054-.061.054-.01,0-.057,0-.057-.044,0-.057.153-.511.484-.511.184,0,.317.127.317.284,0,.033-.01.073-.02.106-.014.04-.134.345-.164.425-.037.087-.073.177-.107.267-.029.074-.053.138-.053.214,0,.074.017.117.083.117.131,0,.277-.137.354-.404.014-.037.017-.057.063-.057.01,0,.054,0,.054.043,0,.051-.147.512-.481.512-.184,0-.317-.127-.317-.284,0-.057.017-.097.03-.141l.21-.538Zm.284-.976c-.09,0-.134-.07-.134-.127,0-.097.097-.184.188-.184.094,0,.134.073.134.127,0,.09-.091.184-.188.184Z"/>
    <path d="m1.213,3.186c-.004.034-.114.611-.267.912-.086.182-.277.464-.54.464-.196,0-.406-.115-.406-.33,0-.181.139-.286.263-.286.091,0,.177.058.177.167,0,.071-.043.244-.263.258.091.086.21.086.229.086.248,0,.329-.435.415-.897l.358-1.887h-.315c-.091,0-.134,0-.134-.058,0-.091.053-.091.144-.091h.33c.114-.602.129-.649.157-.749.144-.474.444-.56.606-.56.196,0,.416.11.416.33,0,.182-.139.286-.263.286-.091,0-.177-.057-.177-.167,0-.071.048-.238.258-.258-.091-.086-.215-.086-.234-.086-.101,0-.182.071-.225.162-.028.058-.096.396-.114.497l-.101.544h.396c.081,0,.129,0,.129.053,0,.096-.048.096-.144.096h-.41l-.287,1.514Z"/>
  </g>
</svg>