<?xml version="1.0" encoding="UTF-8"?>
<svg id="Layer_1" data-name="Layer 1" xmlns="http://www.w3.org/2000/svg" viewBox="0 0 121.663 110.844">
  <defs>
    <style>
      .cls-1 {
        stroke-dasharray: 0 0 3.006 3.006;
      }

      .cls-1, .cls-2, .cls-3, .cls-4, .cls-5, .cls-6, .cls-7, .cls-8, .cls-9, .cls-10, .cls-11, .cls-12, .cls-13 {
        stroke: #000;
        stroke-miterlimit: 10;
      }

      .cls-1, .cls-2, .cls-4, .cls-5, .cls-6, .cls-7, .cls-8, .cls-9, .cls-10, .cls-11, .cls-12, .cls-13 {
        fill: none;
      }

      .cls-1, .cls-2, .cls-4, .cls-5, .cls-6, .cls-7, .cls-8, .cls-9, .cls-10, .cls-11, .cls-13 {
        stroke-width: .1px;
      }

      .cls-2 {
        stroke-dasharray: 0 0 2.99 2.99;
      }

      .cls-3 {
        fill: #f2f0f0;
        stroke-width: .4px;
      }

      .cls-14 {
        opacity: .6;
      }

      .cls-4 {
        stroke-dasharray: 0 0 3.053 3.053;
      }

      .cls-5 {
        stroke-dasharray: 0 0 2.99 2.99;
      }

      .cls-6 {
        stroke-dasharray: 0 0 3.001 3.001;
      }

      .cls-7 {
        stroke-dasharray: 0 0 3.053 3.053;
      }

      .cls-8 {
        stroke-dasharray: 0 0 2.99 2.99;
      }

      .cls-9 {
        stroke-dasharray: 0 0 2.99 2.99;
      }

      .cls-11 {
        stroke-dasharray: 0 0 3.001 3.001;
      }

      .cls-12 {
        stroke-width: .5px;
      }

      .cls-13 {
        stroke-dasharray: 0 0 3.054 3.054;
      }
    </style>
  </defs>
  <g>
    <line class="cls-12" x1="18.848" y1="109.986" x2="18.848" y2="2.822"/>
    <polygon points="20.144 3.805 18.848 3.254 17.552 3.805 18.848 .732 20.144 3.805"/>
  </g>
  <rect class="cls-3" x="41.348" y="32.663" width="45" height="45"/>
  <g>
    <line class="cls-12" y1="55.107" x2="116.523" y2="55.107"/>
    <polygon points="115.54 56.403 116.091 55.107 115.54 53.81 118.613 55.107 115.54 56.403"/>
  </g>
  <g class="cls-14">
    <g>
      <line class="cls-10" x1="18.848" y1="40.163" x2="20.348" y2="40.163"/>
      <line class="cls-2" x1="23.338" y1="40.163" x2="105.568" y2="40.163"/>
      <line class="cls-10" x1="107.063" y1="40.163" x2="108.563" y2="40.163"/>
    </g>
  </g>
  <g class="cls-14">
    <g>
      <line class="cls-10" x1="18.848" y1="25.163" x2="20.348" y2="25.163"/>
      <line class="cls-8" x1="23.338" y1="25.163" x2="105.568" y2="25.163"/>
      <line class="cls-10" x1="107.063" y1="25.163" x2="108.563" y2="25.163"/>
    </g>
  </g>
  <g class="cls-14">
    <g>
      <line class="cls-10" x1="18.848" y1="47.663" x2="20.348" y2="47.663"/>
      <line class="cls-9" x1="23.338" y1="47.663" x2="105.568" y2="47.663"/>
      <line class="cls-10" x1="107.063" y1="47.663" x2="108.563" y2="47.663"/>
    </g>
  </g>
  <g class="cls-14">
    <g>
      <line class="cls-10" x1="17.031" y1="32.663" x2="18.531" y2="32.663"/>
      <line class="cls-4" x1="21.584" y1="32.663" x2="105.537" y2="32.663"/>
      <line class="cls-10" x1="107.063" y1="32.663" x2="108.563" y2="32.663"/>
    </g>
  </g>
  <g class="cls-14">
    <g>
      <line class="cls-10" x1="18.848" y1="17.663" x2="20.348" y2="17.663"/>
      <line class="cls-8" x1="23.338" y1="17.663" x2="105.568" y2="17.663"/>
      <line class="cls-10" x1="107.063" y1="17.663" x2="108.563" y2="17.663"/>
    </g>
  </g>
  <g class="cls-14">
    <g>
      <line class="cls-10" x1="18.848" y1="62.663" x2="20.348" y2="62.663"/>
      <line class="cls-5" x1="23.338" y1="62.663" x2="105.568" y2="62.663"/>
      <line class="cls-10" x1="107.063" y1="62.663" x2="108.563" y2="62.663"/>
    </g>
  </g>
  <g class="cls-14">
    <g>
      <line class="cls-10" x1="18.848" y1="70.163" x2="20.348" y2="70.163"/>
      <line class="cls-8" x1="23.338" y1="70.163" x2="105.568" y2="70.163"/>
      <line class="cls-10" x1="107.063" y1="70.163" x2="108.563" y2="70.163"/>
    </g>
  </g>
  <g class="cls-14">
    <g>
      <line class="cls-10" x1="17.031" y1="77.663" x2="18.531" y2="77.663"/>
      <line class="cls-7" x1="21.584" y1="77.663" x2="105.537" y2="77.663"/>
      <line class="cls-10" x1="107.063" y1="77.663" x2="108.563" y2="77.663"/>
    </g>
  </g>
  <g class="cls-14">
    <g>
      <line class="cls-10" x1="18.848" y1="85.163" x2="20.348" y2="85.163"/>
      <line class="cls-2" x1="23.338" y1="85.163" x2="105.568" y2="85.163"/>
      <line class="cls-10" x1="107.063" y1="85.163" x2="108.563" y2="85.163"/>
    </g>
  </g>
  <g class="cls-14">
    <g>
      <line class="cls-10" x1="18.848" y1="92.663" x2="20.348" y2="92.663"/>
      <line class="cls-2" x1="23.338" y1="92.663" x2="105.568" y2="92.663"/>
      <line class="cls-10" x1="107.063" y1="92.663" x2="108.563" y2="92.663"/>
    </g>
  </g>
  <g class="cls-14">
    <g>
      <line class="cls-10" x1="26.348" y1="100.326" x2="26.348" y2="98.826"/>
      <line class="cls-1" x1="26.348" y1="95.821" x2="26.348" y2="13.166"/>
      <line class="cls-10" x1="26.348" y1="11.663" x2="26.348" y2="10.163"/>
    </g>
  </g>
  <g class="cls-14">
    <g>
      <line class="cls-10" x1="33.848" y1="100.189" x2="33.848" y2="98.689"/>
      <line class="cls-11" x1="33.848" y1="95.688" x2="33.848" y2="13.164"/>
      <line class="cls-10" x1="33.848" y1="11.663" x2="33.848" y2="10.163"/>
    </g>
  </g>
  <g class="cls-14">
    <g>
      <line class="cls-10" x1="41.348" y1="101.722" x2="41.348" y2="100.222"/>
      <line class="cls-13" x1="41.348" y1="97.169" x2="41.348" y2="13.19"/>
      <line class="cls-10" x1="41.348" y1="11.663" x2="41.348" y2="10.163"/>
    </g>
  </g>
  <g class="cls-14">
    <g>
      <line class="cls-10" x1="48.848" y1="100.189" x2="48.848" y2="98.689"/>
      <line class="cls-6" x1="48.848" y1="95.688" x2="48.848" y2="13.164"/>
      <line class="cls-10" x1="48.848" y1="11.663" x2="48.848" y2="10.163"/>
    </g>
  </g>
  <g class="cls-14">
    <g>
      <line class="cls-10" x1="56.348" y1="100.189" x2="56.348" y2="98.689"/>
      <line class="cls-6" x1="56.348" y1="95.688" x2="56.348" y2="13.164"/>
      <line class="cls-10" x1="56.348" y1="11.663" x2="56.348" y2="10.163"/>
    </g>
  </g>
  <g class="cls-14">
    <g>
      <line class="cls-10" x1="63.848" y1="100.189" x2="63.848" y2="98.689"/>
      <line class="cls-6" x1="63.848" y1="95.688" x2="63.848" y2="13.164"/>
      <line class="cls-10" x1="63.848" y1="11.663" x2="63.848" y2="10.163"/>
    </g>
  </g>
  <g class="cls-14">
    <g>
      <line class="cls-10" x1="71.348" y1="100.189" x2="71.348" y2="98.689"/>
      <line class="cls-6" x1="71.348" y1="95.688" x2="71.348" y2="13.164"/>
      <line class="cls-10" x1="71.348" y1="11.663" x2="71.348" y2="10.163"/>
    </g>
  </g>
  <g class="cls-14">
    <g>
      <line class="cls-10" x1="78.848" y1="100.189" x2="78.848" y2="98.689"/>
      <line class="cls-6" x1="78.848" y1="95.688" x2="78.848" y2="13.164"/>
      <line class="cls-10" x1="78.848" y1="11.663" x2="78.848" y2="10.163"/>
    </g>
  </g>
  <g class="cls-14">
    <g>
      <line class="cls-10" x1="86.348" y1="101.722" x2="86.348" y2="100.222"/>
      <line class="cls-13" x1="86.348" y1="97.169" x2="86.348" y2="13.19"/>
      <line class="cls-10" x1="86.348" y1="11.663" x2="86.348" y2="10.163"/>
    </g>
  </g>
  <g class="cls-14">
    <g>
      <line class="cls-10" x1="93.848" y1="100.189" x2="93.848" y2="98.689"/>
      <line class="cls-6" x1="93.848" y1="95.688" x2="93.848" y2="13.164"/>
      <line class="cls-10" x1="93.848" y1="11.663" x2="93.848" y2="10.163"/>
    </g>
  </g>
  <g class="cls-14">
    <g>
      <line class="cls-10" x1="101.348" y1="100.189" x2="101.348" y2="98.689"/>
      <line class="cls-6" x1="101.348" y1="95.688" x2="101.348" y2="13.164"/>
      <line class="cls-10" x1="101.348" y1="11.663" x2="101.348" y2="10.163"/>
    </g>
  </g>
  <g class="cls-14">
    <g>
      <line class="cls-10" x1="108.848" y1="100.189" x2="108.848" y2="98.689"/>
      <line class="cls-6" x1="108.848" y1="95.688" x2="108.848" y2="13.164"/>
      <line class="cls-10" x1="108.848" y1="11.663" x2="108.848" y2="10.163"/>
    </g>
  </g>
  <g>
    <path d="m42.008,108.824c.104-.26.129-.322.129-.418,0-.113-.038-.146-.104-.146-.154,0-.338.15-.447.51-.013.046-.017.067-.075.067-.013,0-.071,0-.071-.055,0-.071.192-.64.606-.64.23,0,.397.159.397.355,0,.042-.012.092-.025.134-.017.05-.167.431-.205.531-.046.108-.092.222-.134.334-.038.092-.066.172-.066.268,0,.092.021.146.104.146.163,0,.347-.172.443-.506.017-.046.021-.071.08-.071.013,0,.067,0,.067.055,0,.062-.184.64-.602.64-.23,0-.397-.159-.397-.355,0-.071.021-.121.038-.176l.263-.673Zm.355-1.221c-.113,0-.167-.088-.167-.159,0-.121.122-.229.234-.229.117,0,.167.092.167.158,0,.113-.113.23-.234.23Z"/>
    <path d="m39.408,109.413c0,.122.075.247.209.276.033.004.184.004.276.004.406,0,.652,0,.899.13.23.125.28.352.28.477,0,.335-.494.544-1.024.544-.564,0-1.024-.23-1.024-.535,0-.218.217-.355.405-.418-.163-.122-.175-.318-.175-.373,0-.162.092-.301.125-.338-.117-.109-.201-.26-.201-.423,0-.326.313-.614.744-.614.184,0,.359.059.485.15.197-.18.422-.192.485-.192.167,0,.247.117.247.214,0,.096-.076.138-.134.138-.071,0-.134-.051-.134-.134,0-.067.021-.084.038-.101-.071,0-.234.004-.422.138.1.109.175.238.175.401,0,.326-.313.615-.744.615-.242,0-.393-.093-.456-.13-.025.033-.054.066-.054.171Zm.271.561c-.268.004-.401.185-.401.33,0,.218.331.414.77.414s.769-.192.769-.414c0-.33-.522-.33-.895-.33h-.243Zm.564-.874c.083-.108.083-.275.083-.343,0-.088,0-.489-.41-.489-.15,0-.263.075-.322.146-.083.109-.083.276-.083.343,0,.088,0,.489.41.489.15,0,.263-.075.322-.146Z"/>
    <g>
      <path d="m43.128,105.931c0,.18.042.18.314.18v.15c-.038-.004-.326-.017-.481-.017-.176,0-.468.017-.477.017v-.15c.271,0,.313,0,.313-.18v-.953c0-.214-.038-.443-.33-.443-.276,0-.623.205-.623.644v.753c0,.18.042.18.313.18v.15c-.038-.004-.326-.017-.481-.017-.175,0-.468.017-.477.017v-.15c.272,0,.313,0,.313-.18v-.953c0-.214-.038-.443-.33-.443-.276,0-.623.205-.623.644v.753c0,.18.042.18.313.18v.15c-.038-.004-.326-.017-.481-.017-.175,0-.468.017-.477.017v-.15c.272,0,.314,0,.314-.18v-1.083c0-.205-.034-.234-.314-.234v-.15l.615-.046v.405h.004c.117-.217.338-.405.681-.405.305,0,.531.092.615.389.113-.209.339-.389.669-.389.447,0,.627.213.627.577v.937Z"/>
      <path d="m44.478,104.417v1.518c0,.176.042.176.284.176v.15c-.146-.013-.297-.017-.443-.017-.167,0-.459.017-.468.017v-.15c.271,0,.313,0,.313-.18v-1.087c0-.205-.038-.23-.301-.23v-.15l.615-.046Zm-.222-.493c-.117,0-.238-.092-.238-.243,0-.138.113-.238.238-.238.142,0,.243.117.243.238,0,.139-.109.243-.243.243Z"/>
      <path d="m47.121,105.931c0,.18.042.18.313.18v.15c-.038-.004-.326-.017-.481-.017-.175,0-.468.017-.477.017v-.15c.272,0,.313,0,.313-.18v-.953c0-.214-.038-.443-.33-.443-.276,0-.623.205-.623.644v.753c0,.18.042.18.313.18v.15c-.038-.004-.326-.017-.481-.017-.175,0-.468.017-.477.017v-.15c.272,0,.314,0,.314-.18v-1.083c0-.205-.034-.234-.314-.234v-.15l.615-.046v.405h.004c.117-.217.338-.405.681-.405.448,0,.627.213.627.577v.937Z"/>
    </g>
    <path d="m36.464,108.037c-.006.035-.018.065-.018.102,0,.107.167.107.389.107.113,0,.167,0,.167.066,0,.119-.078.119-.12.119-.126,0-.257-.012-.389-.012-.126,0-.257-.006-.383-.006-.168,0-.592.018-.76.018-.018,0-.09,0-.09-.072,0-.113.066-.113.167-.113.473,0,.484-.048.544-.281l.801-3.212c.018-.071.024-.09.024-.113,0-.066-.036-.084-.131-.096-.072-.006-.18-.013-.257-.013-.12,0-.173,0-.173-.071,0-.113.066-.113.179-.113h1.938c.784,0,1.178.442,1.178.903,0,.67-.831,1.291-1.681,1.291h-1.017l-.371,1.496Zm.395-1.651h.843c.263,0,.622-.048.921-.316.233-.216.353-.73.353-.964,0-.412-.317-.574-.813-.574h-.574c-.257,0-.269.019-.323.228l-.407,1.627Z"/>
  </g>
  <g>
    <path d="m86.527,108.825c.104-.26.13-.322.13-.418,0-.113-.038-.146-.104-.146-.155,0-.339.15-.447.51-.013.046-.017.067-.075.067-.013,0-.071,0-.071-.055,0-.071.192-.64.606-.64.229,0,.396.159.396.355,0,.042-.012.092-.024.134-.017.05-.167.431-.205.531-.046.108-.092.221-.134.334-.038.092-.067.172-.067.268,0,.092.021.146.105.146.162,0,.347-.172.442-.506.017-.046.021-.071.08-.071.013,0,.066,0,.066.055,0,.062-.184.64-.602.64-.23,0-.397-.159-.397-.355,0-.071.021-.121.037-.176l.264-.673Zm.355-1.221c-.112,0-.167-.088-.167-.159,0-.121.121-.229.234-.229.116,0,.167.092.167.158,0,.113-.113.23-.234.23Z"/>
    <path d="m83.927,109.414c0,.122.075.247.209.276.033.004.185.004.276.004.405,0,.652,0,.898.13.23.125.28.352.28.477,0,.335-.493.544-1.024.544-.564,0-1.024-.23-1.024-.535,0-.218.218-.355.405-.418-.162-.122-.175-.318-.175-.372,0-.163.092-.302.125-.339-.117-.109-.2-.26-.2-.423,0-.326.313-.614.744-.614.184,0,.359.059.484.15.197-.18.423-.192.485-.192.167,0,.247.117.247.213,0,.097-.076.139-.134.139-.071,0-.134-.051-.134-.134,0-.067.021-.084.037-.101-.071,0-.234.004-.422.138.1.109.175.238.175.401,0,.326-.313.615-.744.615-.242,0-.393-.093-.455-.13-.025.033-.055.066-.055.171Zm.271.561c-.268.004-.401.185-.401.33,0,.218.331.414.77.414s.77-.192.77-.414c0-.33-.522-.33-.895-.33h-.243Zm.564-.874c.084-.108.084-.275.084-.343,0-.088,0-.489-.41-.489-.15,0-.263.075-.321.146-.084.109-.084.276-.084.343,0,.088,0,.489.41.489.15,0,.263-.075.321-.146Z"/>
    <g>
      <path d="m87.647,105.931c0,.18.042.18.313.18v.15c-.038-.004-.326-.017-.48-.017-.176,0-.469.017-.477.017v-.15c.271,0,.313,0,.313-.18v-.953c0-.214-.038-.443-.331-.443-.275,0-.622.205-.622.644v.753c0,.18.041.18.313.18v.15c-.038-.004-.326-.017-.481-.017-.175,0-.468.017-.477.017v-.15c.272,0,.313,0,.313-.18v-.953c0-.214-.037-.443-.33-.443-.275,0-.623.205-.623.644v.753c0,.18.042.18.313.18v.15c-.037-.004-.326-.017-.48-.017-.176,0-.469.017-.477.017v-.15c.271,0,.313,0,.313-.18v-1.083c0-.205-.033-.234-.313-.234v-.15l.614-.046v.405h.005c.116-.217.338-.405.681-.405.306,0,.531.092.615.389.112-.209.339-.389.669-.389.447,0,.627.213.627.577v.937Z"/>
      <path d="m90,105.873c0,.055,0,.251.155.251.154,0,.154-.201.154-.243v-.226h.143v.23c0,.396-.406.396-.414.396-.192,0-.306-.158-.322-.33-.088.163-.284.352-.619.352-.297,0-.731-.104-.731-.464,0-.188.117-.419.493-.557.306-.112.581-.125.812-.134v-.13c0-.351-.255-.506-.489-.506-.025,0-.268,0-.418.104.113.034.146.122.146.192,0,.113-.084.197-.196.197-.109,0-.201-.071-.201-.205,0-.255.28-.405.678-.405.246,0,.447.066.618.209.192.154.192.313.192.535v.731Zm-.33-.615c-.753.029-.953.352-.953.582,0,.204.2.347.414.347.188,0,.539-.113.539-.515v-.414Z"/>
      <path d="m92.506,105.977c.096.108.129.134.409.134v.15c-.134-.013-.268-.017-.401-.017s-.435.013-.473.017v-.15c.018,0,.113-.004.113-.088,0-.025,0-.033-.079-.121l-.364-.414-.293.322c-.066.07-.112.125-.112.204,0,.059.033.088.084.097v.15c-.126-.013-.293-.017-.419-.017-.129,0-.222.008-.347.017v-.15c.335-.009.477-.163.632-.33.041-.046.354-.389.354-.401,0-.005-.029-.038-.033-.042l-.522-.603c-.108-.125-.218-.125-.41-.125v-.15c.122.013.28.017.406.017.154,0,.313-.004.468-.017v.15c-.054,0-.112.025-.112.088,0,.017.004.037.046.083l.347.397.293-.33c.062-.071.062-.134.062-.143,0-.037-.013-.083-.084-.096v-.15c.126.013.289.017.414.017.113,0,.234-.009.352-.017v.15c-.33.004-.477.163-.623.326-.038.037-.313.334-.313.347,0,.004.029.038.033.042l.573.652Z"/>
    </g>
    <path d="m80.983,108.037c-.006.035-.018.065-.018.102,0,.107.167.107.389.107.113,0,.168,0,.168.066,0,.119-.078.119-.12.119-.126,0-.257-.012-.389-.012-.126,0-.257-.006-.383-.006-.168,0-.592.018-.76.018-.018,0-.09,0-.09-.072,0-.113.066-.113.168-.113.473,0,.484-.048.544-.281l.802-3.212c.018-.071.023-.09.023-.113,0-.066-.035-.084-.131-.096-.072-.006-.18-.013-.258-.013-.119,0-.173,0-.173-.071,0-.113.065-.113.179-.113h1.938c.783,0,1.178.442,1.178.903,0,.67-.831,1.291-1.681,1.291h-1.017l-.371,1.496Zm.396-1.651h.843c.264,0,.622-.048.921-.316.233-.216.354-.73.354-.964,0-.412-.317-.574-.813-.574h-.574c-.258,0-.27.019-.323.228l-.406,1.627Z"/>
  </g>
  <g>
    <path d="m10.065,33.959c.104-.26.129-.322.129-.418,0-.113-.038-.146-.104-.146-.154,0-.338.15-.447.51-.013.046-.017.067-.075.067-.013,0-.071,0-.071-.055,0-.071.192-.64.606-.64.23,0,.397.159.397.355,0,.042-.012.092-.025.134-.017.05-.167.431-.205.531-.046.108-.092.221-.134.334-.038.092-.066.172-.066.268,0,.092.021.146.104.146.163,0,.347-.172.443-.506.017-.046.021-.071.08-.071.013,0,.067,0,.067.055,0,.062-.184.64-.602.64-.23,0-.397-.159-.397-.355,0-.071.021-.121.038-.176l.263-.673Zm.355-1.221c-.113,0-.167-.088-.167-.159,0-.121.122-.229.234-.229.117,0,.167.092.167.158,0,.113-.113.23-.234.23Z"/>
    <path d="m7.465,34.548c0,.122.075.247.209.276.033.004.184.004.276.004.406,0,.652,0,.899.13.23.125.28.352.28.477,0,.335-.494.544-1.024.544-.564,0-1.024-.23-1.024-.535,0-.218.217-.355.405-.418-.163-.122-.175-.318-.175-.372,0-.163.092-.302.125-.339-.117-.109-.201-.26-.201-.423,0-.326.313-.614.744-.614.184,0,.359.059.485.15.197-.18.422-.192.485-.192.167,0,.247.117.247.213,0,.097-.076.139-.134.139-.071,0-.134-.051-.134-.134,0-.067.021-.084.038-.101-.071,0-.234.004-.422.138.1.109.175.238.175.401,0,.326-.313.615-.744.615-.242,0-.393-.093-.456-.13-.025.033-.054.066-.054.171Zm.271.561c-.268.004-.401.185-.401.33,0,.218.331.414.77.414s.769-.192.769-.414c0-.33-.522-.33-.895-.33h-.243Zm.564-.874c.083-.108.083-.275.083-.343,0-.088,0-.489-.41-.489-.15,0-.263.075-.322.146-.083.109-.083.276-.083.343,0,.088,0,.489.41.489.15,0,.263-.075.322-.146Z"/>
    <g>
      <path d="m10.354,31.065c0,.18.042.18.314.18v.15c-.038-.004-.326-.017-.481-.017-.176,0-.468.017-.477.017v-.15c.271,0,.313,0,.313-.18v-.953c0-.214-.038-.443-.33-.443-.276,0-.623.205-.623.644v.753c0,.18.042.18.313.18v.15c-.038-.004-.326-.017-.481-.017-.175,0-.468.017-.477.017v-.15c.272,0,.313,0,.313-.18v-.953c0-.214-.038-.443-.33-.443-.276,0-.623.205-.623.644v.753c0,.18.042.18.313.18v.15c-.038-.004-.326-.017-.481-.017-.175,0-.468.017-.477.017v-.15c.272,0,.314,0,.314-.18v-1.083c0-.205-.034-.234-.314-.234v-.15l.615-.046v.405h.004c.117-.217.338-.405.681-.405.305,0,.531.092.615.389.113-.209.339-.389.669-.389.447,0,.627.213.627.577v.937Z"/>
      <path d="m12.707,31.007c0,.055,0,.251.155.251s.154-.201.154-.243v-.226h.143v.23c0,.396-.406.396-.414.396-.192,0-.305-.158-.322-.33-.088.163-.285.352-.619.352-.297,0-.731-.104-.731-.464,0-.188.117-.419.493-.557.305-.112.582-.125.811-.134v-.13c0-.351-.255-.506-.489-.506-.025,0-.268,0-.418.104.113.034.146.122.146.192,0,.113-.083.197-.196.197-.109,0-.201-.071-.201-.205,0-.255.28-.405.677-.405.247,0,.447.066.619.209.192.154.192.313.192.535v.731Zm-.331-.615c-.752.029-.953.352-.953.582,0,.204.201.347.414.347.188,0,.539-.113.539-.515v-.414Z"/>
      <path d="m15.213,31.111c.096.108.129.134.41.134v.15c-.134-.013-.268-.017-.401-.017s-.435.013-.473.017v-.15c.017,0,.113-.004.113-.088,0-.025,0-.033-.079-.121l-.364-.414-.292.322c-.067.07-.113.125-.113.204,0,.059.034.088.084.097v.15c-.125-.013-.293-.017-.418-.017-.129,0-.221.008-.347.017v-.15c.334-.009.477-.163.631-.33.042-.046.355-.389.355-.401,0-.005-.029-.038-.033-.042l-.522-.603c-.109-.125-.218-.125-.41-.125v-.15c.122.013.28.017.406.017.155,0,.313-.004.468-.017v.15c-.054,0-.113.025-.113.088,0,.017.004.037.046.083l.347.397.292-.33c.062-.071.062-.134.062-.143,0-.037-.012-.083-.083-.096v-.15c.125.013.289.017.414.017.113,0,.234-.009.351-.017v.15c-.33.004-.477.163-.623.326-.038.037-.313.334-.313.347,0,.004.029.038.034.042l.573.652Z"/>
    </g>
    <path d="m5.236,34.145c.209,0,.556-.149.7-.574.012-.036.024-.065.072-.065.023,0,.065.018.065.06,0,.065-.287,1.16-.999,1.16-.496,0-.496-.467-.496-.658,0-.077,0-.089.024-.46-.233.065-.437.09-.586.09-.861,0-1.531-.604-1.531-1.598,0-1.394,1.316-2.751,2.608-2.751.891,0,1.525.646,1.525,1.609,0,1.154-.879,2.219-1.806,2.571.06.455.149.616.424.616Zm-1.591-.855c0-.311.293-.609.61-.609.437,0,.497.437.526.646,1.005-.562,1.31-1.962,1.31-2.56,0-.802-.437-1.269-1.035-1.269-.437,0-.999.275-1.436.886-.455.646-.61,1.495-.61,1.907,0,.539.204,1.005.67,1.19,0-.006-.036-.071-.036-.191Zm.909.149c.06-.023.066-.029.066-.119,0-.365-.114-.509-.365-.509s-.479.239-.479.479c0,.258.191.258.275.258.167,0,.347-.042.502-.108Z"/>
  </g>
  <g>
    <path d="m10.969,79.345c.104-.26.129-.322.129-.418,0-.113-.038-.146-.104-.146-.154,0-.338.15-.447.51-.013.046-.017.067-.075.067-.013,0-.071,0-.071-.055,0-.071.192-.64.606-.64.23,0,.397.159.397.355,0,.042-.012.092-.025.134-.017.05-.167.431-.205.531-.046.108-.092.222-.134.334-.038.092-.066.172-.066.268,0,.092.021.146.104.146.163,0,.347-.172.443-.506.017-.046.021-.071.08-.071.013,0,.067,0,.067.055,0,.062-.184.64-.602.64-.23,0-.397-.159-.397-.355,0-.071.021-.121.038-.176l.263-.673Zm.355-1.221c-.113,0-.167-.088-.167-.159,0-.121.122-.229.234-.229.117,0,.167.092.167.158,0,.113-.113.23-.234.23Z"/>
    <path d="m8.369,79.933c0,.122.075.247.209.276.033.004.184.004.276.004.406,0,.652,0,.899.13.23.125.28.352.28.477,0,.335-.494.544-1.024.544-.564,0-1.024-.23-1.024-.535,0-.218.217-.355.405-.418-.163-.122-.175-.318-.175-.373,0-.162.092-.301.125-.338-.117-.109-.201-.26-.201-.423,0-.326.313-.614.744-.614.184,0,.359.059.485.15.197-.18.422-.192.485-.192.167,0,.247.117.247.214,0,.096-.076.138-.134.138-.071,0-.134-.051-.134-.134,0-.067.021-.084.038-.101-.071,0-.234.004-.422.138.1.109.175.238.175.401,0,.326-.313.615-.744.615-.242,0-.393-.093-.456-.13-.025.033-.054.066-.054.171Zm.271.561c-.268.004-.401.185-.401.33,0,.218.331.414.77.414s.769-.192.769-.414c0-.33-.522-.33-.895-.33h-.243Zm.564-.874c.083-.108.083-.275.083-.343,0-.088,0-.489-.41-.489-.15,0-.263.075-.322.146-.083.109-.083.276-.083.343,0,.088,0,.489.41.489.15,0,.263-.075.322-.146Z"/>
    <g>
      <path d="m11.257,76.451c0,.18.042.18.314.18v.15c-.038-.004-.326-.017-.481-.017-.176,0-.468.017-.477.017v-.15c.271,0,.313,0,.313-.18v-.953c0-.214-.038-.443-.33-.443-.276,0-.623.205-.623.644v.753c0,.18.042.18.313.18v.15c-.038-.004-.326-.017-.481-.017-.175,0-.468.017-.477.017v-.15c.272,0,.313,0,.313-.18v-.953c0-.214-.038-.443-.33-.443-.276,0-.623.205-.623.644v.753c0,.18.042.18.313.18v.15c-.038-.004-.326-.017-.481-.017-.175,0-.468.017-.477.017v-.15c.272,0,.314,0,.314-.18v-1.083c0-.205-.034-.234-.314-.234v-.15l.615-.046v.405h.004c.117-.217.338-.405.681-.405.305,0,.531.092.615.389.113-.209.339-.389.669-.389.447,0,.627.213.627.577v.937Z"/>
      <path d="m12.607,74.937v1.518c0,.176.042.176.284.176v.15c-.146-.013-.297-.017-.443-.017-.167,0-.459.017-.468.017v-.15c.271,0,.313,0,.313-.18v-1.087c0-.205-.038-.23-.301-.23v-.15l.615-.046Zm-.222-.493c-.117,0-.238-.092-.238-.243,0-.138.113-.238.238-.238.142,0,.243.117.243.238,0,.139-.109.243-.243.243Z"/>
      <path d="m15.251,76.451c0,.18.042.18.313.18v.15c-.038-.004-.326-.017-.481-.017-.175,0-.468.017-.477.017v-.15c.272,0,.313,0,.313-.18v-.953c0-.214-.038-.443-.33-.443-.276,0-.623.205-.623.644v.753c0,.18.042.18.313.18v.15c-.038-.004-.326-.017-.481-.017-.175,0-.468.017-.477.017v-.15c.272,0,.314,0,.314-.18v-1.083c0-.205-.034-.234-.314-.234v-.15l.615-.046v.405h.004c.117-.217.338-.405.681-.405.448,0,.627.213.627.577v.937Z"/>
    </g>
    <path d="m6.14,79.531c.209,0,.556-.149.7-.574.012-.036.024-.065.072-.065.023,0,.065.018.065.06,0,.065-.287,1.16-.999,1.16-.496,0-.496-.466-.496-.657,0-.078,0-.09.024-.461-.233.065-.437.09-.586.09-.861,0-1.531-.604-1.531-1.598,0-1.394,1.316-2.751,2.608-2.751.891,0,1.525.646,1.525,1.608,0,1.155-.879,2.22-1.806,2.572.06.455.149.616.424.616Zm-1.591-.855c0-.311.293-.61.61-.61.437,0,.497.438.526.646,1.005-.562,1.31-1.962,1.31-2.561,0-.801-.437-1.268-1.035-1.268-.437,0-.999.275-1.436.885-.455.646-.61,1.496-.61,1.908,0,.539.204,1.005.67,1.19,0-.006-.036-.071-.036-.191Zm.909.149c.06-.023.066-.029.066-.119,0-.365-.114-.509-.365-.509s-.479.239-.479.479c0,.258.191.258.275.258.167,0,.347-.042.502-.108Z"/>
  </g>
  <g>
    <path d="m15.72,4.61c.104-.259.129-.322.129-.418,0-.113-.038-.146-.104-.146-.154,0-.338.15-.447.51-.013.046-.017.067-.075.067-.013,0-.071,0-.071-.054,0-.071.192-.64.606-.64.23,0,.397.159.397.355,0,.042-.012.092-.025.134-.017.05-.167.431-.205.531-.046.109-.092.222-.134.334-.038.092-.066.171-.066.268,0,.092.021.146.104.146.163,0,.347-.171.443-.506.017-.046.021-.071.08-.071.013,0,.067,0,.067.055,0,.062-.184.64-.602.64-.23,0-.397-.159-.397-.355,0-.071.021-.121.038-.176l.263-.673Zm.355-1.221c-.113,0-.167-.087-.167-.159,0-.121.122-.23.234-.23.117,0,.167.092.167.159,0,.113-.113.23-.234.23Z"/>
    <path d="m13.12,5.2c0,.121.075.247.209.276.033.004.184.004.276.004.406,0,.652,0,.899.129.23.125.28.351.28.477,0,.334-.494.543-1.024.543-.564,0-1.024-.23-1.024-.535,0-.217.217-.355.405-.418-.163-.121-.175-.318-.175-.372,0-.163.092-.301.125-.339-.117-.108-.201-.259-.201-.422,0-.326.313-.615.744-.615.184,0,.359.059.485.15.197-.18.422-.192.485-.192.167,0,.247.117.247.213s-.076.138-.134.138c-.071,0-.134-.05-.134-.134,0-.067.021-.084.038-.101-.071,0-.234.004-.422.138.1.108.175.238.175.401,0,.326-.313.614-.744.614-.242,0-.393-.092-.456-.129-.025.033-.054.067-.054.171Zm.271.56c-.268.004-.401.184-.401.331,0,.217.331.414.77.414s.769-.192.769-.414c0-.331-.522-.331-.895-.331h-.243Zm.564-.874c.083-.109.083-.276.083-.343,0-.088,0-.489-.41-.489-.15,0-.263.075-.322.146-.083.109-.083.276-.083.343,0,.087,0,.489.41.489.15,0,.263-.075.322-.146Z"/>
    <path d="m10.891,4.797c.209,0,.556-.149.7-.574.012-.036.024-.065.072-.065.023,0,.065.018.065.06,0,.066-.287,1.16-.999,1.16-.496,0-.496-.466-.496-.658,0-.078,0-.09.024-.46-.233.065-.437.09-.586.09-.861,0-1.531-.604-1.531-1.597,0-1.394,1.316-2.751,2.608-2.751.891,0,1.525.646,1.525,1.609,0,1.154-.879,2.219-1.806,2.572.06.455.149.616.424.616Zm-1.591-.855c0-.311.293-.61.61-.61.437,0,.497.437.526.646,1.005-.562,1.31-1.962,1.31-2.56,0-.801-.437-1.268-1.035-1.268-.437,0-.999.275-1.436.885-.455.646-.61,1.496-.61,1.908,0,.538.204,1.005.67,1.19,0-.006-.036-.071-.036-.191Zm.909.15c.06-.024.066-.03.066-.12,0-.365-.114-.509-.365-.509s-.479.239-.479.479c0,.257.191.257.275.257.167,0,.347-.042.502-.107Z"/>
  </g>
  <g>
    <path d="m120.964,62.284c.105-.259.13-.322.13-.418,0-.113-.037-.146-.104-.146-.154,0-.339.15-.447.51-.013.046-.017.067-.075.067-.013,0-.071,0-.071-.054,0-.071.192-.64.606-.64.229,0,.397.159.397.355,0,.042-.013.092-.025.134-.017.05-.167.431-.205.531-.046.109-.092.222-.134.334-.037.092-.066.171-.066.268,0,.092.021.146.104.146.163,0,.347-.171.443-.506.017-.046.021-.071.079-.071.013,0,.066,0,.066.055,0,.062-.184.64-.602.64-.23,0-.397-.159-.397-.355,0-.071.021-.121.038-.176l.263-.673Zm.355-1.221c-.112,0-.167-.087-.167-.159,0-.121.121-.23.234-.23.117,0,.167.092.167.159,0,.113-.112.23-.234.23Z"/>
    <path d="m118.366,62.874c0,.121.075.247.209.276.033.004.184.004.275.004.406,0,.652,0,.899.129.229.125.28.351.28.477,0,.334-.493.543-1.024.543-.564,0-1.024-.23-1.024-.535,0-.217.218-.355.405-.418-.163-.121-.176-.318-.176-.372,0-.163.093-.301.126-.339-.117-.108-.201-.259-.201-.422,0-.326.313-.615.744-.615.185,0,.36.059.485.15.196-.18.422-.192.485-.192.167,0,.246.117.246.213s-.075.138-.134.138c-.07,0-.134-.05-.134-.134,0-.067.021-.084.038-.101-.071,0-.234.004-.423.138.101.108.176.238.176.401,0,.326-.313.614-.744.614-.242,0-.393-.092-.456-.129-.024.033-.054.067-.054.171Zm.271.56c-.268.004-.401.184-.401.331,0,.217.33.413.77.413s.77-.191.77-.413c0-.331-.523-.331-.896-.331h-.242Zm.564-.874c.084-.109.084-.276.084-.343,0-.088,0-.489-.41-.489-.15,0-.264.075-.321.146-.084.109-.084.276-.084.343,0,.087,0,.489.409.489.151,0,.264-.075.322-.146Z"/>
    <path d="m115.421,62.155c-.006.036-.018.065-.018.102,0,.107.167.107.389.107.113,0,.167,0,.167.066,0,.12-.077.12-.119.12-.126,0-.257-.012-.389-.012-.126,0-.258-.006-.383-.006-.168,0-.593.018-.76.018-.019,0-.09,0-.09-.072,0-.114.065-.114.167-.114.473,0,.485-.048.545-.281l.802-3.212c.018-.072.023-.09.023-.113,0-.066-.036-.084-.132-.096-.071-.006-.179-.012-.257-.012-.12,0-.174,0-.174-.072,0-.114.066-.114.18-.114h1.938c.783,0,1.178.443,1.178.903,0,.67-.831,1.292-1.681,1.292h-1.017l-.371,1.496Zm.395-1.651h.844c.264,0,.622-.048.921-.317.233-.215.354-.729.354-.963,0-.413-.317-.574-.813-.574h-.574c-.258,0-.27.018-.323.227l-.407,1.627Z"/>
  </g>
  <g class="cls-14">
    <g>
      <line class="cls-10" x1="18.848" y1="10.163" x2="20.348" y2="10.163"/>
      <line class="cls-8" x1="23.338" y1="10.163" x2="105.568" y2="10.163"/>
      <line class="cls-10" x1="107.063" y1="10.163" x2="108.563" y2="10.163"/>
    </g>
  </g>
  <g class="cls-14">
    <g>
      <line class="cls-10" x1="18.848" y1="100.163" x2="20.348" y2="100.163"/>
      <line class="cls-2" x1="23.338" y1="100.163" x2="105.568" y2="100.163"/>
      <line class="cls-10" x1="107.063" y1="100.163" x2="108.563" y2="100.163"/>
    </g>
  </g>
</svg>