<?xml version="1.0" encoding="UTF-8"?>
<svg id="Layer_1" data-name="Layer 1" xmlns="http://www.w3.org/2000/svg" viewBox="0 0 337.821 115.783">
  <defs>
    <style>
      .cls-1 {
        stroke-width: .516px;
      }

      .cls-1, .cls-2, .cls-3, .cls-4, .cls-5, .cls-6, .cls-7, .cls-8, .cls-9, .cls-10, .cls-11, .cls-12 {
        fill: none;
        stroke: #000;
        stroke-miterlimit: 10;
      }

      .cls-2 {
        stroke-width: .756px;
      }

      .cls-3 {
        stroke-width: .719px;
      }

      .cls-4 {
        stroke-width: .748px;
      }

      .cls-5 {
        stroke-width: 1.92px;
      }

      .cls-6 {
        stroke-width: .776px;
      }

      .cls-7 {
        stroke-width: .528px;
      }

      .cls-8 {
        stroke-width: 1.787px;
      }

      .cls-9 {
        stroke-width: .75px;
      }

      .cls-10 {
        stroke-width: .816px;
      }

      .cls-11 {
        stroke-width: .633px;
      }

      .cls-12 {
        stroke-width: .68px;
      }
    </style>
  </defs>
  <line class="cls-9" x1="281.387" y1="24.041" x2="335.754" y2="24.041"/>
  <line class="cls-9" x1="231.035" y1="24.041" x2="253.646" y2="24.041"/>
  <line class="cls-3" x1="168.584" y1="24.041" x2="203.476" y2="24.041"/>
  <rect class="cls-2" x="253.646" y="18.599" width="27.741" height="10.885"/>
  <line class="cls-5" x1="168.585" y1="9.075" x2="168.585" y2="39.008"/>
  <line class="cls-8" x1="335.754" y1="9.075" x2="335.754" y2="39.008"/>
  <g>
    <line class="cls-1" x1="172.799" y1="18.183" x2="196.925" y2="18.183"/>
    <polygon points="195.475 20.092 196.289 18.183 195.475 16.272 200.004 18.183 195.475 20.092"/>
  </g>
  <g>
    <line class="cls-7" x1="306.193" y1="18.183" x2="330.254" y2="18.183"/>
    <polygon points="307.676 20.139 306.848 18.183 307.676 16.226 303.039 18.183 307.676 20.139"/>
  </g>
  <g>
    <circle class="cls-10" cx="213" cy="24.042" r="9.524"/>
    <circle class="cls-10" cx="221.486" cy="24.042" r="9.524"/>
  </g>
  <line class="cls-9" x1="114.195" y1="23.942" x2="168.563" y2="23.942"/>
  <line class="cls-9" x1="64.344" y1="23.942" x2="86.455" y2="23.942"/>
  <line class="cls-3" x1="1.642" y1="23.942" x2="36.535" y2="23.942"/>
  <rect class="cls-2" x="86.455" y="18.5" width="27.74" height="10.885"/>
  <line class="cls-5" x1="1.644" y1="8.976" x2="1.644" y2="38.909"/>
  <g>
    <line class="cls-1" x1="5.858" y1="18.084" x2="29.984" y2="18.084"/>
    <polygon points="28.534 19.993 29.347 18.084 28.534 16.173 33.063 18.084 28.534 19.993"/>
  </g>
  <g>
    <line class="cls-7" x1="139.002" y1="18.084" x2="163.063" y2="18.084"/>
    <polygon points="140.484 20.04 139.656 18.084 140.484 16.127 135.848 18.084 140.484 20.04"/>
  </g>
  <g>
    <circle class="cls-10" cx="46.058" cy="23.942" r="9.524"/>
    <circle class="cls-10" cx="54.544" cy="23.942" r="9.524"/>
  </g>
  <polyline class="cls-6" points="188.074 56.207 188.074 31.111 169.374 31.111"/>
  <line class="cls-6" x1="188.074" y1="109.049" x2="188.074" y2="83.954"/>
  <rect class="cls-10" x="182.63" y="56.207" width="10.884" height="27.746"/>
  <g>
    <line class="cls-1" x1="178.009" y1="39.35" x2="178.009" y2="63.476"/>
    <polygon points="179.918 62.026 178.009 62.839 176.098 62.026 178.009 66.555 179.918 62.026"/>
  </g>
  <g>
    <line class="cls-4" x1="198.958" y1="109.242" x2="177.187" y2="109.242"/>
    <line class="cls-12" x1="194.876" y1="112.265" x2="181.269" y2="112.265"/>
    <line class="cls-11" x1="190.796" y1="115.466" x2="185.353" y2="115.466"/>
  </g>
  <path d="m337.821,4.932c0,1.017-.906,1.923-2.122,1.923-1.086,0-2.013-.657-2.013-1.563,0-.438.318-.578.558-.578.289,0,.559.199.559.558,0,.379-.31.598-.658.548.349.588,1.096.758,1.524.758.438,0,1.126-.289,1.126-1.645,0-.977-.368-1.653-1.186-1.653h-.438c-.169,0-.239,0-.239-.11,0-.1.07-.109.149-.119.07,0,.31-.021.389-.03.249-.01.588-.04.887-.518.26-.438.279-1.017.279-1.136,0-.897-.548-1.116-.957-1.116-.358,0-1.016.129-1.325.617.149,0,.618,0,.618.499,0,.288-.199.508-.508.508-.289,0-.509-.189-.509-.519,0-.757.758-1.354,1.764-1.354.957,0,1.834.558,1.834,1.375,0,.787-.578,1.484-1.396,1.753,1.036.21,1.664.987,1.664,1.804Z"/>
  <path d="m2.042,6.067c0,.368.03.479.927.479h.319v.309c-.349-.03-1.216-.03-1.614-.03s-1.266,0-1.614.03v-.309h.319c.896,0,.926-.12.926-.479V.906c-.518.259-1.105.259-1.305.259v-.309C.318.856,1.195.856,1.813.219c.229,0,.229.02.229.259v5.59Z"/>
  <path d="m169.159,6.086c.219,0,.876,0,.946-.079.1-.149.169-.588.219-.887h.249l-.279,1.734h-3.697c0-.239,0-.259.11-.369l1.913-2.132c.548-.618,1.046-1.405,1.046-2.202,0-.817-.428-1.624-1.335-1.624-.578,0-1.116.369-1.345,1.017.03-.01.05-.01.129-.01.349,0,.528.259.528.518,0,.408-.349.528-.518.528-.03,0-.528,0-.528-.559,0-.887.737-1.803,1.863-1.803,1.216,0,2.112.797,2.112,1.933,0,.996-.598,1.534-2.152,2.909l-1.056,1.026h1.793Z"/>
  <g>
    <g>
      <path d="m226.164,11.919h-2.873c0-.195,0-.209.07-.271l1.68-1.66c.223-.251.656-.732.656-1.339,0-.564-.363-1.108-1.06-1.108-.328,0-.802.153-1.018.648.363,0,.412.244.412.369,0,.251-.203.37-.37.37-.07,0-.37-.035-.37-.391,0-.642.585-1.248,1.45-1.248.893,0,1.632.516,1.632,1.359,0,.662-.481,1.095-.997,1.506-.418.328-.663.523-1.395,1.172h1.283c.098,0,.635,0,.69-.042.091-.069.161-.48.181-.635h.237l-.209,1.27Z"/>
      <path d="m228.346,9.59c-.119,0-.182,0-.182-.098,0-.076.056-.091.07-.091.035-.007.049-.007.223-.021.349-.021.544-.035.774-.3.182-.217.279-.537.279-.83,0-.606-.439-.76-.753-.76-.258,0-.739.076-.983.383.216.015.355.161.355.363,0,.195-.14.355-.355.355-.209,0-.363-.133-.363-.37,0-.558.593-.934,1.367-.934s1.409.411,1.409.962c0,.426-.265.948-.997,1.213.767.161,1.213.705,1.213,1.249,0,.697-.669,1.346-1.639,1.346-.844,0-1.569-.426-1.569-1.081,0-.286.195-.404.391-.404.216,0,.383.16.383.384,0,.146-.077.376-.404.39.293.412.907.488,1.186.488.404,0,.906-.258.906-1.122,0-.746-.39-1.123-.934-1.123h-.376Z"/>
    </g>
    <path d="m221.231,8.691c.468-.588.797-1.346.977-1.974.05-.179.05-.209.149-.209.109,0,.12.08.12.1,0,.01-.209,1.166-1.146,2.342-.1.119-.1.14-.1.349,0,.239,0,1.017.309,1.017.02,0,.379,0,.558-.488.03-.07.06-.1.129-.1.06,0,.12.029.12.1,0,.159-.309.707-.837.707-.448,0-.777-.309-.907-.837-.757.608-1.475.837-2.103.837-1.016,0-1.614-.757-1.614-1.684,0-1.405,1.315-2.83,2.68-2.83.737,0,1.664.488,1.664,2.053v.618Zm-.688-.369c0-.777,0-2.082-.986-2.082-.349,0-.887.189-1.355.916-.319.509-.578,1.585-.578,2.073,0,.638.299,1.086.896,1.086.399,0,1.166-.109,2.043-.877-.02-.17-.02-.747-.02-1.116Z"/>
    <g>
      <path d="m206.124,9.638c0,.368.03.479.927.479h.319v.309c-.349-.03-1.215-.03-1.614-.03s-1.265,0-1.614.03v-.309h.319c.896,0,.926-.12.926-.479v-5.161c-.518.259-1.106.259-1.305.259v-.309c.319,0,1.196,0,1.813-.638.229,0,.229.02.229.259v5.59Z"/>
      <path d="m212.331,7.187c-.289,0-.528-.239-.528-.528s.239-.528.528-.528.528.239.528.528-.239.528-.528.528Zm0,3.238c-.289,0-.528-.239-.528-.528s.239-.528.528-.528.528.239.528.528-.239.528-.528.528Z"/>
    </g>
  </g>
  <g>
    <g>
      <path d="m58.277,11.486c0,.23,0,.321.697.321h.265v.251c-.153-.007-1.032-.028-1.248-.028-.258,0-1.116.021-1.241.028v-.251h.265c.697,0,.697-.091.697-.321v-3.556c-.383.195-.844.195-1.011.195v-.251c.286,0,.92-.008,1.367-.446.195,0,.209.007.209.195v3.862Z"/>
      <path d="m63.222,12.059h-2.873c0-.195,0-.209.07-.271l1.68-1.66c.223-.251.656-.732.656-1.339,0-.564-.363-1.108-1.06-1.108-.328,0-.802.153-1.018.648.363,0,.412.244.412.369,0,.251-.203.37-.37.37-.07,0-.37-.035-.37-.391,0-.642.585-1.248,1.45-1.248.893,0,1.632.516,1.632,1.359,0,.662-.481,1.095-.997,1.506-.418.328-.663.523-1.395,1.172h1.283c.098,0,.635,0,.69-.042.091-.069.161-.48.181-.635h.237l-.209,1.27Z"/>
    </g>
    <path d="m54.321,8.831c.468-.588.797-1.346.977-1.974.05-.179.05-.209.149-.209.109,0,.12.08.12.1,0,.01-.209,1.166-1.146,2.342-.1.119-.1.14-.1.349,0,.239,0,1.017.309,1.017.02,0,.379,0,.558-.488.03-.07.06-.1.129-.1.06,0,.12.029.12.1,0,.159-.309.707-.837.707-.448,0-.777-.309-.907-.837-.757.608-1.475.837-2.103.837-1.016,0-1.614-.757-1.614-1.684,0-1.405,1.315-2.83,2.68-2.83.737,0,1.664.488,1.664,2.053v.618Zm-.688-.369c0-.777,0-2.082-.986-2.082-.349,0-.887.189-1.355.916-.319.509-.578,1.585-.578,2.073,0,.638.299,1.086.896,1.086.399,0,1.166-.109,2.043-.877-.02-.17-.02-.747-.02-1.116Z"/>
    <g>
      <path d="m39.214,9.777c0,.368.03.479.927.479h.319v.309c-.349-.03-1.215-.03-1.614-.03s-1.265,0-1.614.03v-.309h.319c.896,0,.926-.12.926-.479v-5.161c-.518.259-1.106.259-1.305.259v-.309c.319,0,1.196,0,1.813-.638.229,0,.229.02.229.259v5.59Z"/>
      <path d="m45.421,7.326c-.289,0-.528-.239-.528-.528s.239-.528.528-.528.528.239.528.528-.239.528-.528.528Zm0,3.238c-.289,0-.528-.239-.528-.528s.239-.528.528-.528.528.239.528.528-.239.528-.528.528Z"/>
    </g>
  </g>
  <g>
    <g>
      <path d="m22.515,15.488c0,.23,0,.322.697.322h.265v.25c-.153-.006-1.032-.027-1.248-.027-.258,0-1.116.021-1.241.027v-.25h.265c.697,0,.697-.092.697-.322v-3.555c-.383.195-.844.195-1.011.195v-.252c.286,0,.92-.008,1.367-.445.195,0,.209.006.209.195v3.861Z"/>
      <path d="m27.459,16.061h-2.873c0-.195,0-.209.07-.271l1.68-1.66c.223-.25.656-.732.656-1.338,0-.564-.363-1.109-1.06-1.109-.328,0-.802.154-1.018.648.363,0,.412.244.412.369,0,.252-.203.371-.37.371-.07,0-.37-.035-.37-.391,0-.643.585-1.248,1.45-1.248.893,0,1.632.516,1.632,1.359,0,.662-.481,1.094-.997,1.506-.418.328-.663.523-1.395,1.172h1.283c.098,0,.635,0,.69-.043.091-.068.161-.48.181-.635h.237l-.209,1.27Z"/>
    </g>
    <path d="m16.185,13.91c-.01.059-.03.109-.03.168,0,.18.279.18.647.18.189,0,.279,0,.279.109,0,.199-.129.199-.199.199-.209,0-.428-.02-.647-.02-.209,0-.429-.01-.638-.01-.279,0-.986.029-1.266.029-.03,0-.149,0-.149-.119,0-.189.11-.189.279-.189.787,0,.807-.08.907-.469l1.335-5.35c.03-.119.04-.15.04-.189,0-.109-.06-.141-.219-.16-.12-.01-.299-.02-.429-.02-.199,0-.289,0-.289-.119,0-.189.11-.189.299-.189h3.228c1.305,0,1.963.736,1.963,1.504,0,1.117-1.385,2.152-2.8,2.152h-1.694l-.618,2.492Zm.658-2.75h1.405c.438,0,1.036-.08,1.535-.529.388-.359.588-1.215.588-1.604,0-.688-.528-.957-1.355-.957h-.957c-.428,0-.448.029-.538.379l-.677,2.711Z"/>
  </g>
  <g>
    <g>
      <path d="m157.753,16.061h-2.873c0-.195,0-.209.07-.271l1.68-1.66c.224-.251.656-.732.656-1.339,0-.564-.363-1.108-1.061-1.108-.327,0-.801.153-1.018.648.363,0,.412.244.412.369,0,.251-.203.37-.37.37-.069,0-.37-.035-.37-.391,0-.642.586-1.248,1.451-1.248.893,0,1.631.516,1.631,1.359,0,.662-.48,1.095-.996,1.506-.419.328-.663.523-1.395,1.172h1.282c.098,0,.635,0,.69-.042.091-.069.16-.48.182-.635h.236l-.209,1.27Z"/>
      <path d="m160.746,15.489c0,.23,0,.321.697.321h.265v.251c-.153-.007-1.032-.028-1.248-.028-.259,0-1.116.021-1.241.028v-.251h.265c.697,0,.697-.091.697-.321v-3.556c-.384.195-.844.195-1.011.195v-.251c.285,0,.92-.008,1.367-.446.195,0,.209.007.209.195v3.862Z"/>
    </g>
    <path d="m150.447,13.91c-.01.06-.029.109-.029.169,0,.18.278.18.646.18.189,0,.279,0,.279.109,0,.199-.129.199-.199.199-.209,0-.428-.02-.647-.02-.21,0-.429-.011-.638-.011-.279,0-.986.03-1.266.03-.029,0-.149,0-.149-.119,0-.189.11-.189.279-.189.787,0,.808-.08.907-.469l1.334-5.351c.03-.119.041-.149.041-.189,0-.109-.061-.14-.22-.159-.12-.01-.299-.02-.429-.02-.199,0-.289,0-.289-.12,0-.189.109-.189.299-.189h3.229c1.305,0,1.963.737,1.963,1.505,0,1.116-1.385,2.152-2.8,2.152h-1.694l-.617,2.491Zm.658-2.75h1.404c.438,0,1.036-.08,1.535-.528.388-.359.588-1.216.588-1.604,0-.688-.529-.956-1.355-.956h-.957c-.428,0-.448.029-.538.378l-.677,2.711Z"/>
  </g>
  <g>
    <g>
      <path d="m190.494,16.061h-2.873c0-.195,0-.209.069-.271l1.681-1.66c.223-.251.655-.732.655-1.339,0-.564-.362-1.108-1.06-1.108-.328,0-.802.153-1.019.648.363,0,.412.244.412.369,0,.251-.203.37-.37.37-.069,0-.369-.035-.369-.391,0-.642.585-1.248,1.45-1.248.893,0,1.632.516,1.632,1.359,0,.662-.481,1.095-.997,1.506-.419.328-.663.523-1.395,1.172h1.282c.098,0,.635,0,.69-.042.091-.069.161-.48.182-.635h.237l-.209,1.27Z"/>
      <path d="m192.676,13.732c-.119,0-.182,0-.182-.098,0-.076.056-.091.069-.091.035-.007.049-.007.224-.021.349-.021.544-.035.773-.3.182-.217.279-.537.279-.83,0-.606-.439-.76-.753-.76-.258,0-.739.076-.983.383.216.015.355.161.355.363,0,.195-.14.355-.355.355-.209,0-.362-.133-.362-.37,0-.558.593-.934,1.366-.934s1.409.411,1.409.962c0,.426-.266.948-.997,1.213.767.161,1.213.705,1.213,1.249,0,.697-.669,1.346-1.639,1.346-.844,0-1.569-.426-1.569-1.081,0-.286.195-.404.391-.404.217,0,.384.16.384.384,0,.146-.077.376-.404.39.293.412.906.488,1.186.488.404,0,.906-.258.906-1.122,0-.746-.391-1.123-.935-1.123h-.376Z"/>
    </g>
    <path d="m183.186,13.91c-.01.06-.029.109-.029.169,0,.18.278.18.647.18.189,0,.278,0,.278.109,0,.199-.129.199-.199.199-.209,0-.428-.02-.647-.02-.209,0-.429-.011-.638-.011-.278,0-.986.03-1.266.03-.029,0-.149,0-.149-.119,0-.189.11-.189.279-.189.787,0,.808-.08.907-.469l1.335-5.351c.029-.119.04-.149.04-.189,0-.109-.061-.14-.22-.159-.119-.01-.299-.02-.429-.02-.199,0-.289,0-.289-.12,0-.189.11-.189.3-.189h3.228c1.306,0,1.963.737,1.963,1.505,0,1.116-1.385,2.152-2.8,2.152h-1.693l-.618,2.491Zm.658-2.75h1.404c.438,0,1.036-.08,1.535-.528.388-.359.588-1.216.588-1.604,0-.688-.528-.956-1.355-.956h-.957c-.428,0-.448.029-.538.378l-.677,2.711Z"/>
  </g>
  <g>
    <g>
      <path d="m319.639,13.732c-.118,0-.182,0-.182-.098,0-.076.056-.091.069-.091.035-.007.049-.007.224-.021.349-.021.544-.035.774-.3.182-.217.279-.537.279-.83,0-.606-.439-.76-.754-.76-.258,0-.739.076-.982.383.215.015.355.161.355.363,0,.195-.141.355-.355.355-.21,0-.363-.133-.363-.37,0-.558.593-.934,1.367-.934s1.408.411,1.408.962c0,.426-.266.948-.997,1.213.767.161,1.214.705,1.214,1.249,0,.697-.67,1.346-1.64,1.346-.844,0-1.569-.426-1.569-1.081,0-.286.195-.404.391-.404.217,0,.384.16.384.384,0,.146-.077.376-.404.39.293.412.907.488,1.186.488.404,0,.906-.258.906-1.122,0-.746-.39-1.123-.935-1.123h-.376Z"/>
      <path d="m325.392,16.061h-2.873c0-.195,0-.209.07-.271l1.68-1.66c.223-.251.656-.732.656-1.339,0-.564-.363-1.108-1.061-1.108-.328,0-.802.153-1.018.648.362,0,.411.244.411.369,0,.251-.202.37-.37.37-.069,0-.369-.035-.369-.391,0-.642.586-1.248,1.45-1.248.893,0,1.632.516,1.632,1.359,0,.662-.48,1.095-.997,1.506-.419.328-.663.523-1.395,1.172h1.282c.098,0,.635,0,.691-.042.09-.069.16-.48.181-.635h.237l-.209,1.27Z"/>
    </g>
    <path d="m314.117,13.91c-.01.06-.029.109-.029.169,0,.18.279.18.647.18.189,0,.278,0,.278.109,0,.199-.129.199-.199.199-.209,0-.428-.02-.646-.02-.21,0-.43-.011-.639-.011-.278,0-.986.03-1.266.03-.029,0-.148,0-.148-.119,0-.189.109-.189.279-.189.787,0,.807-.08.906-.469l1.335-5.351c.03-.119.04-.149.04-.189,0-.109-.061-.14-.219-.159-.12-.01-.299-.02-.43-.02-.199,0-.289,0-.289-.12,0-.189.11-.189.3-.189h3.228c1.306,0,1.963.737,1.963,1.505,0,1.116-1.385,2.152-2.799,2.152h-1.694l-.618,2.491Zm.658-2.75h1.404c.439,0,1.037-.08,1.535-.528.389-.359.588-1.216.588-1.604,0-.688-.528-.956-1.355-.956h-.957c-.428,0-.447.029-.537.378l-.678,2.711Z"/>
  </g>
  <g>
    <g>
      <path d="m166.928,53.216c0,.133,0,.182-.118.182-.028,0-.112,0-.118-.077-.015-.202-.049-.767-.858-.767-.662,0-.851.271-.851.495,0,.369.453.453,1.012.551.244.042.564.098.829.342.182.167.3.376.3.642,0,.495-.334.982-1.241.982-.167,0-.544-.014-.851-.3-.14.153-.271.3-.334.3-.098,0-.098-.062-.098-.181v-.858c0-.139,0-.188.117-.188.098,0,.105.027.126.118.126.475.37.913,1.039.913s.858-.32.858-.592c0-.468-.565-.565-.914-.628-.432-.07-.697-.119-.963-.349-.166-.14-.264-.321-.264-.544,0-.349.236-.872,1.233-.872.259,0,.523.042.732.188.042-.035.111-.098.126-.104.09-.084.104-.084.139-.084.098,0,.098.063.098.182v.648Z"/>
      <path d="m171.03,54.946c0,.3.069.3.522.3v.251c-.063-.007-.544-.028-.802-.028-.293,0-.781.028-.795.028v-.251c.453,0,.523,0,.523-.3v-1.59c0-.355-.063-.739-.552-.739-.46,0-1.039.342-1.039,1.074v1.255c0,.3.069.3.523.3v.251c-.063-.007-.544-.028-.802-.028-.293,0-.781.028-.795.028v-.251c.453,0,.522,0,.522-.3v-3.57c0-.342-.056-.391-.522-.391v-.251l1.045-.077v2.399h.008c.153-.266.495-.635,1.115-.635.746,0,1.047.355,1.047.962v1.562Z"/>
      <path d="m175.143,55.497h-2.873c0-.195,0-.209.07-.271l1.68-1.66c.224-.251.656-.732.656-1.339,0-.564-.363-1.108-1.061-1.108-.327,0-.801.153-1.018.648.363,0,.412.244.412.369,0,.251-.203.37-.37.37-.069,0-.37-.035-.37-.391,0-.642.586-1.248,1.451-1.248.893,0,1.631.516,1.631,1.359,0,.662-.48,1.095-.996,1.506-.419.328-.663.523-1.395,1.172h1.282c.098,0,.635,0,.69-.042.091-.069.16-.48.182-.635h.236l-.209,1.27Z"/>
    </g>
    <path d="m160.292,53.345c-.011.06-.03.109-.03.169,0,.18.278.18.647.18.189,0,.279,0,.279.109,0,.199-.13.199-.199.199-.209,0-.429-.02-.648-.02-.209,0-.428-.011-.637-.011-.279,0-.986.03-1.266.03-.03,0-.15,0-.15-.119,0-.189.11-.189.279-.189.787,0,.808-.08.907-.469l1.335-5.351c.029-.119.04-.149.04-.189,0-.109-.06-.14-.22-.159-.119-.01-.299-.02-.428-.02-.199,0-.289,0-.289-.12,0-.189.109-.189.299-.189h3.229c1.305,0,1.963.737,1.963,1.505,0,1.116-1.385,2.152-2.801,2.152h-1.693l-.617,2.491Zm.657-2.75h1.405c.438,0,1.035-.08,1.534-.528.388-.359.588-1.216.588-1.604,0-.688-.528-.956-1.355-.956h-.956c-.429,0-.449.029-.539.378l-.677,2.711Z"/>
  </g>
  <g>
    <g>
      <path d="m204.171,70.474c0,.133,0,.182-.118.182-.028,0-.112,0-.119-.077-.014-.202-.049-.767-.857-.767-.662,0-.851.271-.851.495,0,.369.453.453,1.011.551.244.042.565.098.83.342.182.167.3.376.3.642,0,.495-.335.982-1.241.982-.167,0-.544-.014-.851-.3-.14.153-.272.3-.335.3-.098,0-.098-.062-.098-.181v-.858c0-.139,0-.188.118-.188.098,0,.105.027.126.118.126.475.369.913,1.039.913s.857-.32.857-.592c0-.468-.564-.565-.913-.628-.433-.07-.697-.119-.963-.349-.167-.14-.265-.321-.265-.544,0-.349.237-.872,1.234-.872.258,0,.523.042.732.188.042-.035.111-.098.125-.104.091-.084.104-.084.14-.084.098,0,.098.063.098.182v.648Z"/>
      <path d="m208.272,72.203c0,.3.07.3.523.3v.251c-.063-.007-.544-.028-.802-.028-.293,0-.781.028-.795.028v-.251c.453,0,.522,0,.522-.3v-1.59c0-.355-.062-.739-.551-.739-.46,0-1.039.342-1.039,1.074v1.255c0,.3.069.3.523.3v.251c-.063-.007-.544-.028-.803-.028-.293,0-.78.028-.795.028v-.251c.453,0,.523,0,.523-.3v-3.57c0-.342-.056-.391-.523-.391v-.251l1.046-.077v2.399h.008c.153-.266.495-.635,1.115-.635.746,0,1.046.355,1.046.962v1.562Z"/>
      <path d="m212.394,72.754h-2.873c0-.195,0-.209.069-.271l1.681-1.66c.223-.251.655-.732.655-1.339,0-.564-.362-1.108-1.06-1.108-.328,0-.802.153-1.019.648.363,0,.412.244.412.369,0,.251-.203.37-.37.37-.069,0-.369-.035-.369-.391,0-.642.585-1.248,1.45-1.248.893,0,1.632.516,1.632,1.359,0,.662-.481,1.095-.997,1.506-.419.328-.663.523-1.395,1.172h1.282c.098,0,.635,0,.69-.042.091-.069.161-.48.182-.635h.237l-.209,1.27Z"/>
    </g>
    <path d="m200.363,71.929c-.149.598-.866,1.375-2.112,1.375-.956,0-1.325-.199-1.325-.608,0-.398.319-.578.538-.578.27,0,.379.189.379.35,0,.169-.109.428-.408.518.278.09.607.1.797.1,1.056,0,1.395-.986,1.435-1.076,0-.02.12-.428.329-1.315l-.01-.01c-.1.109-.568.578-1.156.578-.718,0-1.325-.588-1.325-1.574,0-1.435,1.235-2.83,2.371-2.83.399,0,.748.259.927.628.04-.358.31-.429.409-.429.169,0,.289.1.289.27,0,.069-.021.119-.03.179l-1.106,4.425Zm.289-3.847c.01-.04.03-.1.03-.149s-.14-.856-.797-.856c-.419,0-.848.398-1.116.887-.27.508-.558,1.684-.558,2.162,0,.398.149.917.647.917.289,0,.598-.18.807-.359.22-.189.448-.438.509-.697l.478-1.903Z"/>
  </g>
  <g>
    <g>
      <path d="m101.618,15.746c0,.23,0,.321.697.321h.265v.251c-.153-.007-1.032-.028-1.248-.028-.258,0-1.116.021-1.241.028v-.251h.265c.697,0,.697-.091.697-.321v-3.556c-.383.195-.844.195-1.011.195v-.251c.286,0,.92-.008,1.367-.446.195,0,.209.007.209.195v3.862Z"/>
      <path d="m106.563,16.318h-2.873c0-.195,0-.209.069-.271l1.681-1.66c.223-.251.655-.732.655-1.339,0-.564-.362-1.108-1.06-1.108-.328,0-.802.153-1.019.648.363,0,.412.244.412.369,0,.251-.203.37-.37.37-.069,0-.369-.035-.369-.391,0-.642.585-1.248,1.45-1.248.893,0,1.632.516,1.632,1.359,0,.662-.481,1.095-.997,1.506-.419.328-.663.523-1.395,1.172h1.282c.098,0,.635,0,.69-.042.091-.069.161-.48.182-.635h.237l-.209,1.27Z"/>
    </g>
    <path d="m96.579,13.181c-.11.438-.169.658-.169.877,0,.339.159.658.548.658.319,0,.997-.239,1.325-1.306.02-.069.04-.109.13-.109.03,0,.119,0,.119.1,0,.249-.568,1.534-1.594,1.534-.598,0-.957-.389-1.076-.757-.03.06-.389.757-1.046.757-.438,0-.937-.199-.937-.657,0-.319.249-.578.548-.578.149,0,.369.08.369.349,0,.279-.219.488-.468.538.209.13.438.13.498.13.438,0,.787-.419.947-1.036.369-1.396.538-2.062.538-2.372,0-.577-.349-.667-.538-.667-.339,0-.997.249-1.335,1.305-.02.09-.05.11-.13.11-.02,0-.12,0-.12-.101,0-.249.568-1.534,1.604-1.534.289,0,.827.1,1.076.758.12-.229.468-.758,1.046-.758.339,0,.927.14.927.658,0,.398-.319.577-.538.577-.269,0-.378-.188-.378-.349,0-.239.199-.488.478-.538-.209-.129-.448-.129-.498-.129-.698,0-.927.916-.986,1.176l-.339,1.364Z"/>
  </g>
  <g>
    <g>
      <path d="m269.351,16.179h-2.873c0-.195,0-.209.069-.271l1.681-1.66c.223-.251.655-.732.655-1.339,0-.564-.362-1.108-1.06-1.108-.328,0-.802.153-1.019.648.363,0,.412.244.412.369,0,.251-.203.37-.37.37-.069,0-.369-.035-.369-.391,0-.642.585-1.248,1.45-1.248.893,0,1.632.516,1.632,1.359,0,.662-.481,1.095-.997,1.506-.419.328-.663.523-1.395,1.172h1.282c.098,0,.635,0,.69-.042.091-.069.161-.48.182-.635h.237l-.209,1.27Z"/>
      <path d="m271.533,13.85c-.119,0-.182,0-.182-.098,0-.076.056-.091.069-.091.035-.007.049-.007.224-.021.349-.021.544-.035.773-.3.182-.217.279-.537.279-.83,0-.606-.439-.76-.753-.76-.258,0-.739.076-.983.383.216.015.355.161.355.363,0,.195-.14.355-.355.355-.209,0-.362-.133-.362-.37,0-.558.593-.934,1.366-.934s1.409.411,1.409.962c0,.426-.266.948-.997,1.213.767.161,1.213.705,1.213,1.249,0,.697-.669,1.346-1.639,1.346-.844,0-1.569-.426-1.569-1.081,0-.286.195-.404.391-.404.217,0,.384.16.384.384,0,.146-.077.376-.404.39.293.412.906.488,1.186.488.404,0,.906-.258.906-1.122,0-.746-.391-1.123-.935-1.123h-.376Z"/>
    </g>
    <path d="m263.334,13.041c-.109.438-.169.658-.169.877,0,.339.159.658.548.658.318,0,.996-.239,1.325-1.306.02-.069.04-.109.13-.109.029,0,.119,0,.119.1,0,.249-.568,1.534-1.594,1.534-.599,0-.957-.389-1.076-.757-.03.06-.389.757-1.047.757-.438,0-.937-.199-.937-.657,0-.319.249-.578.548-.578.149,0,.369.08.369.349,0,.279-.22.488-.469.538.21.13.438.13.498.13.438,0,.787-.419.947-1.036.368-1.396.538-2.062.538-2.372,0-.577-.349-.667-.538-.667-.339,0-.997.249-1.335,1.305-.021.09-.05.11-.13.11-.021,0-.12,0-.12-.101,0-.249.568-1.534,1.604-1.534.289,0,.827.1,1.076.758.12-.229.469-.758,1.046-.758.339,0,.927.14.927.658,0,.398-.318.577-.538.577-.269,0-.378-.188-.378-.349,0-.239.199-.488.478-.538-.209-.129-.448-.129-.498-.129-.697,0-.927.916-.986,1.176l-.339,1.364Z"/>
  </g>
</svg>