<svg id="Layer_1" data-name="Layer 1" xmlns="http://www.w3.org/2000/svg" viewBox="0 0 250.148 92.371"><defs><style>.cls-1,.cls-10,.cls-3,.cls-4,.cls-5,.cls-9{fill:none;}.cls-1,.cls-3{stroke:#010101;}.cls-1,.cls-10,.cls-2,.cls-3,.cls-4,.cls-5,.cls-7,.cls-9{stroke-miterlimit:10;}.cls-2{fill:#fff;}.cls-2,.cls-4,.cls-5{stroke:#231f20;}.cls-3{stroke-width:1.9px;}.cls-5{stroke-width:0.7px;}.cls-6{fill:#231f20;}.cls-7,.cls-8{fill:#be1e2d;}.cls-7{stroke:#be1e2d;}.cls-9{stroke:#000;}.cls-10{stroke:#ed1c24;}</style></defs><line class="cls-1" x1="160.849" y1="22.381" x2="164.559" y2="22.381"/><line class="cls-2" x1="134.362" y1="22.381" x2="137.461" y2="22.381"/><line class="cls-2" x1="69.386" y1="22.381" x2="114.139" y2="22.381"/><path class="cls-2" d="M78.752,23.371" transform="translate(-0.623 -0.989)"/><path class="cls-2" d="M67.194,23.371" transform="translate(-0.623 -0.989)"/><line class="cls-2" x1="46.517" y1="22.381" x2="49.163" y2="22.381"/><line class="cls-3" x1="46" y1="14.898" x2="46" y2="44.832"/><line class="cls-4" x1="49.257" y1="37.349" x2="45.863" y2="37.348"/><polyline class="cls-4" points="84.211 44.999 84.211 37.349 69.482 37.349"/><line class="cls-3" x1="76.727" y1="68.115" x2="106.661" y2="68.115"/><line class="cls-3" x1="137.457" y1="14.898" x2="137.457" y2="44.832"/><line class="cls-1" x1="138.365" y1="22.381" x2="140.699" y2="22.381"/><line class="cls-1" x1="213.471" y1="22.381" x2="217.665" y2="22.381"/><path d="M42.524,12.256a1.468,1.468,0,0,1-1.6,1.313H38.112v-.223h.172c.553,0,.567-.078.567-.337V9.228c0-.258-.014-.337-.567-.337h-.172V8.669h2.626A1.44,1.44,0,0,1,42.33,9.881c0,.531-.495.99-1.191,1.127A1.408,1.408,0,0,1,42.524,12.256Zm-2.038-1.313a1.082,1.082,0,0,0,1.148-1.062.953.953,0,0,0-.947-.99H39.8c-.337,0-.352.05-.352.287v1.765Zm1.321,1.306A1.075,1.075,0,0,0,40.8,11.1H39.446V13.06c0,.237.015.286.352.286h.9A1.084,1.084,0,0,0,41.807,12.249Z" transform="translate(-0.623 -0.989)"/><path d="M44.812,13.647c-1.091,0-1.091-.652-1.091-1.212V11.359c0-.638,0-.66-.559-.66v-.222l1.054-.08V12.78c0,.372.029.71.631.71.524,0,.869-.488.869-1.112V11.1c0-.352-.058-.4-.56-.4v-.222l1.055-.08v2.548c0,.352.057.4.559.4v.223l-1.033.078V13A.978.978,0,0,1,44.812,13.647Z" transform="translate(-0.623 -0.989)"/><path d="M47.458,11.847a.767.767,0,0,1-.308-.61c0-.4.272-.882,1.148-.882a1.105,1.105,0,0,1,.674.2,1.024,1.024,0,0,0,.122-.115c.093-.086.108-.086.144-.086.078,0,.078.05.078.172v.725c0,.135,0,.172-.093.172a.077.077,0,0,1-.086-.065.791.791,0,0,0-.839-.868c-.617,0-.8.294-.8.546,0,.415.481.509.883.587a1.461,1.461,0,0,1,.817.345.921.921,0,0,1,.3.681c0,.517-.33,1-1.155,1a1.074,1.074,0,0,1-.79-.308,1.67,1.67,0,0,0-.143.165c-.136.136-.143.143-.179.143-.079,0-.079-.05-.079-.171v-.947c0-.13,0-.18.093-.18.072,0,.079.029.1.122.137.61.395,1.019,1,1.019.559,0,.81-.287.81-.653,0-.517-.588-.631-.746-.66A1.885,1.885,0,0,1,47.458,11.847Z" transform="translate(-0.623 -0.989)"/><path d="M54.237,13c0,.266.022.344.667.344h.23v.223c-.251-.022-.875-.022-1.163-.022s-.91,0-1.161.022v-.223h.229c.646,0,.667-.085.667-.344V9.286a2.153,2.153,0,0,1-.94.186V9.25a1.773,1.773,0,0,0,1.306-.459c.165,0,.165.014.165.186Z" transform="translate(-0.623 -0.989)"/><line class="cls-4" x1="134.362" y1="37.348" x2="137.461" y2="37.348"/><polyline class="cls-4" points="99.113 44.999 99.113 37.349 114.139 37.348"/><line class="cls-4" x1="163.972" y1="36.848" x2="163.972" y2="51.85"/><path class="cls-4" d="M171.953,60.261a7.087,7.087,0,1,0-7.087,7.087A7.087,7.087,0,0,0,171.953,60.261Z" transform="translate(-0.623 -0.989)"/><path class="cls-5" d="M169.826,60.261a4.96,4.96,0,1,0-4.96,4.96A4.96,4.96,0,0,0,169.826,60.261Z" transform="translate(-0.623 -0.989)"/><path class="cls-6" d="M166.4,62.656a3.292,3.292,0,0,1-1.352.243,2.393,2.393,0,0,1-2.53-2.59A2.548,2.548,0,0,1,165.2,57.62a2.742,2.742,0,0,1,1.215.228l-.159.539a2.41,2.41,0,0,0-1.033-.213,1.9,1.9,0,0,0-2,2.112,1.861,1.861,0,0,0,1.967,2.058,2.645,2.645,0,0,0,1.079-.212Z" transform="translate(-0.623 -0.989)"/><path d="M113.692,70.242a1.467,1.467,0,0,1-1.6,1.312H109.28v-.223h.172c.553,0,.567-.078.567-.336V67.214c0-.258-.014-.338-.567-.338h-.172v-.222h2.626a1.44,1.44,0,0,1,1.592,1.212c0,.531-.5.99-1.191,1.127A1.408,1.408,0,0,1,113.692,70.242Zm-2.037-1.314a1.081,1.081,0,0,0,1.147-1.062.954.954,0,0,0-.947-.99h-.889c-.337,0-.352.051-.352.287v1.765Zm1.32,1.306a1.076,1.076,0,0,0-1.012-1.148h-1.349v1.959c0,.237.015.286.352.286h.9A1.083,1.083,0,0,0,112.975,70.234Z" transform="translate(-0.623 -0.989)"/><path d="M115.979,71.633c-1.09,0-1.09-.652-1.09-1.212V69.344c0-.638,0-.659-.559-.659v-.223l1.054-.079v2.382c0,.373.029.711.631.711.524,0,.869-.488.869-1.113V69.086c0-.351-.058-.4-.56-.4v-.223l1.055-.079V70.93c0,.352.057.4.559.4v.223l-1.033.079v-.645A.98.98,0,0,1,115.979,71.633Z" transform="translate(-0.623 -0.989)"/><path d="M118.626,69.832a.764.764,0,0,1-.308-.609c0-.4.273-.883,1.148-.883a1.105,1.105,0,0,1,.674.2.884.884,0,0,0,.122-.115c.093-.086.108-.086.144-.086.078,0,.078.05.078.173v.724c0,.136,0,.172-.093.172a.077.077,0,0,1-.086-.065.79.79,0,0,0-.839-.867c-.617,0-.8.294-.8.545,0,.416.481.509.883.588a1.46,1.46,0,0,1,.817.344.924.924,0,0,1,.3.682c0,.516-.33,1-1.155,1a1.069,1.069,0,0,1-.789-.309,1.966,1.966,0,0,0-.144.166c-.136.136-.143.143-.179.143-.079,0-.079-.05-.079-.172v-.947c0-.129,0-.18.093-.18.072,0,.079.029.1.123.137.609.4,1.019,1,1.019.559,0,.811-.288.811-.654,0-.516-.589-.631-.747-.66A1.875,1.875,0,0,1,118.626,69.832Z" transform="translate(-0.623 -0.989)"/><path d="M125.5,71a2.32,2.32,0,0,0,.682-.058,2.4,2.4,0,0,0,.158-.638h.179l-.2,1.248h-2.662c0-.172,0-.187.08-.265l1.377-1.535a2.574,2.574,0,0,0,.753-1.586c0-.588-.308-1.169-.961-1.169a1.035,1.035,0,0,0-.969.731.281.281,0,0,1,.093-.007.363.363,0,0,1,.381.373.377.377,0,1,1-.754-.021,1.326,1.326,0,0,1,1.342-1.3,1.41,1.41,0,0,1,1.521,1.392c0,.717-.431,1.1-1.549,2.095l-.761.739Z" transform="translate(-0.623 -0.989)"/><path d="M133.816,12.176a1.467,1.467,0,0,1-1.6,1.314h-2.812v-.223h.172c.552,0,.566-.079.566-.337V9.149c0-.258-.014-.337-.566-.337h-.172V8.59h2.625A1.44,1.44,0,0,1,133.623,9.8c0,.531-.5.99-1.191,1.126A1.409,1.409,0,0,1,133.816,12.176Zm-2.037-1.312A1.083,1.083,0,0,0,132.927,9.8a.953.953,0,0,0-.947-.99h-.89c-.337,0-.351.05-.351.287v1.765Zm1.32,1.3a1.074,1.074,0,0,0-1.011-1.147h-1.349V12.98c0,.237.014.287.351.287h.9A1.085,1.085,0,0,0,133.1,12.169Z" transform="translate(-0.623 -0.989)"/><path d="M136.1,13.569c-1.09,0-1.09-.653-1.09-1.213V11.28c0-.639,0-.66-.56-.66V10.4l1.055-.078V12.7c0,.374.028.711.631.711.524,0,.868-.488.868-1.112V11.022c0-.352-.057-.4-.559-.4V10.4l1.054-.078v2.546c0,.352.058.4.56.4v.223l-1.033.079v-.646A.981.981,0,0,1,136.1,13.569Z" transform="translate(-0.623 -0.989)"/><path d="M138.751,11.767a.762.762,0,0,1-.309-.609c0-.4.273-.883,1.148-.883a1.106,1.106,0,0,1,.675.2,1.011,1.011,0,0,0,.122-.114c.093-.087.107-.087.143-.087.079,0,.079.051.079.173v.724c0,.137,0,.173-.093.173a.076.076,0,0,1-.086-.065.792.792,0,0,0-.84-.868c-.617,0-.8.293-.8.545,0,.416.48.509.882.588a1.467,1.467,0,0,1,.818.345.921.921,0,0,1,.3.682c0,.516-.329,1-1.155,1a1.071,1.071,0,0,1-.789-.309,1.521,1.521,0,0,0-.143.165c-.137.137-.144.144-.18.144-.079,0-.079-.051-.079-.173v-.947c0-.129,0-.179.094-.179.071,0,.078.029.1.122.136.61.4,1.019,1,1.019.56,0,.811-.288.811-.653,0-.517-.588-.632-.746-.66A1.866,1.866,0,0,1,138.751,11.767Z" transform="translate(-0.623 -0.989)"/><path d="M146.7,12.263a1.463,1.463,0,0,1-1.528,1.384,1.309,1.309,0,0,1-1.449-1.126.4.4,0,1,1,.8-.014.392.392,0,0,1-.473.394,1.3,1.3,0,0,0,1.1.545c.316,0,.811-.208.811-1.183,0-.7-.265-1.191-.854-1.191h-.315c-.122,0-.173,0-.173-.079s.051-.079.108-.086.223-.015.28-.022a.693.693,0,0,0,.638-.373,1.787,1.787,0,0,0,.2-.818c0-.645-.394-.8-.689-.8a1.162,1.162,0,0,0-.954.445c.108,0,.445,0,.445.358a.366.366,0,1,1-.732-.007c0-.545.546-.976,1.27-.976.689,0,1.32.4,1.32.99a1.382,1.382,0,0,1-1,1.263A1.384,1.384,0,0,1,146.7,12.263Z" transform="translate(-0.623 -0.989)"/><path class="cls-6" d="M51.728,21.022a1.959,1.959,0,0,0,.57-.048,2.052,2.052,0,0,0,.132-.534h.149l-.168,1.044H50.187c0-.144,0-.156.066-.222L51.4,19.978a2.148,2.148,0,0,0,.629-1.325c0-.492-.258-.977-.8-.977a.864.864,0,0,0-.809.611.218.218,0,0,1,.077-.006.3.3,0,0,1,.318.312.315.315,0,1,1-.629-.018,1.108,1.108,0,0,1,1.121-1.085,1.178,1.178,0,0,1,1.271,1.163c0,.6-.359.924-1.3,1.751l-.636.618Z" transform="translate(-0.623 -0.989)"/><path class="cls-6" d="M53.721,21.484a.318.318,0,1,1,.317-.318A.32.32,0,0,1,53.721,21.484Z" transform="translate(-0.623 -0.989)"/><path class="cls-6" d="M57,19.739a1.076,1.076,0,0,1,.294.737,1.2,1.2,0,0,1-1.247,1.139A1.144,1.144,0,0,1,54.8,20.578a1.324,1.324,0,0,1,.863-1.1,3.757,3.757,0,0,1-.437-.324.959.959,0,0,1-.264-.66,1.042,1.042,0,0,1,1.085-1,.99.99,0,0,1,1.079.894,1.113,1.113,0,0,1-.726.929A2.477,2.477,0,0,1,57,19.739Zm-1.894.839a.9.9,0,0,0,.947.869.862.862,0,0,0,.941-.755.8.8,0,0,0-.449-.66l-.738-.467A1.172,1.172,0,0,0,55.1,20.578Zm1.169-1.355a1.017,1.017,0,0,0,.593-.839.781.781,0,0,0-.821-.744c-.426,0-.815.252-.815.618a.558.558,0,0,0,.3.485Z" transform="translate(-0.623 -0.989)"/><path class="cls-6" d="M59.594,18.971A2.637,2.637,0,0,0,59.222,20a6.722,6.722,0,0,0-.066.984v.306c0,.06,0,.329-.276.329s-.276-.269-.276-.329a4.189,4.189,0,0,1,.738-2.255c.132-.2.605-.852.672-.947H58.772a3.11,3.11,0,0,0-.587.035,1.684,1.684,0,0,0-.151.546h-.149l.2-1.235h.149c.025.114.037.192.768.192h1.457c0,.126,0,.137-.054.21Z" transform="translate(-0.623 -0.989)"/><line class="cls-7" x1="49.563" y1="22.382" x2="65.793" y2="22.382"/><polygon class="cls-8" points="64.457 24.292 65.27 22.382 64.457 20.471 68.986 22.381 64.457 24.292"/><line class="cls-7" x1="114.538" y1="22.382" x2="130.768" y2="22.382"/><polygon class="cls-8" points="129.432 24.292 130.245 22.382 129.432 20.471 133.961 22.382 129.432 24.292"/><path class="cls-6" d="M115.162,20.494v-.186L117,17.5c.048-.071.066-.071.12-.071.095,0,.095.035.095.155v2.729h.6v.186h-.6v.521c0,.216.012.282.457.282h.126v.186c-.247-.018-.564-.018-.816-.018s-.564,0-.809.018V21.3h.125c.444,0,.456-.066.456-.282v-.521Zm1.631-2.423-1.463,2.237h1.463Z" transform="translate(-0.623 -0.989)"/><path class="cls-6" d="M118.828,21.483a.318.318,0,1,1,.317-.318A.32.32,0,0,1,118.828,21.483Z" transform="translate(-0.623 -0.989)"/><path class="cls-6" d="M121.7,18.97A2.64,2.64,0,0,0,121.329,20a6.718,6.718,0,0,0-.066.983v.306c0,.06,0,.33-.276.33s-.275-.27-.275-.33a4.189,4.189,0,0,1,.737-2.255c.132-.2.605-.851.672-.947H120.88a3.03,3.03,0,0,0-.588.036,1.7,1.7,0,0,0-.151.546h-.149l.2-1.236h.15c.024.114.036.192.767.192h1.457c0,.126,0,.138-.054.21Z" transform="translate(-0.623 -0.989)"/><path class="cls-6" d="M122.824,20.494v-.186l1.841-2.813c.048-.071.066-.071.12-.071.1,0,.1.035.1.155v2.729h.6v.186h-.6v.521c0,.216.011.282.456.282h.126v.186c-.246-.018-.564-.018-.816-.018s-.564,0-.809.018V21.3h.126c.443,0,.455-.066.455-.282v-.521Zm1.631-2.423-1.463,2.237h1.463Z" transform="translate(-0.623 -0.989)"/><path class="cls-6" d="M58.066,35.977c0,.221.019.287.558.287h.192v.186c-.21-.018-.731-.018-.971-.018s-.762,0-.972.018v-.186h.192c.54,0,.558-.071.558-.287V32.87a1.8,1.8,0,0,1-.785.156v-.185a1.483,1.483,0,0,0,1.091-.384c.137,0,.137.011.137.156Z" transform="translate(-0.623 -0.989)"/><path class="cls-6" d="M61.75,34.705a1.085,1.085,0,0,1,.294.738A1.2,1.2,0,0,1,60.8,36.582a1.144,1.144,0,0,1-1.241-1.037,1.321,1.321,0,0,1,.863-1.1,3.782,3.782,0,0,1-.438-.324.956.956,0,0,1-.263-.66,1.042,1.042,0,0,1,1.085-1,.991.991,0,0,1,1.079.893,1.113,1.113,0,0,1-.726.93A2.484,2.484,0,0,1,61.75,34.705Zm-1.9.84a.9.9,0,0,0,.948.869.862.862,0,0,0,.941-.755A.8.8,0,0,0,61.3,35l-.739-.468A1.176,1.176,0,0,0,59.855,35.545Zm1.169-1.355a1.016,1.016,0,0,0,.594-.84.781.781,0,0,0-.821-.743c-.426,0-.816.252-.816.617a.56.56,0,0,0,.3.486Z" transform="translate(-0.623 -0.989)"/><path class="cls-6" d="M63.138,36.45a.318.318,0,1,1,.317-.317A.32.32,0,0,1,63.138,36.45Z" transform="translate(-0.623 -0.989)"/><path class="cls-6" d="M65.417,35.143a1.261,1.261,0,0,1-1.2-1.337,1.286,1.286,0,0,1,.383-.972,1.163,1.163,0,0,1,.882-.377c.533,0,1.223.407,1.223,2.02,0,1.29-.732,2.105-1.505,2.105-.51,0-.834-.245-.834-.647a.276.276,0,1,1,.552-.012c0,.1-.048.275-.312.275a.778.778,0,0,0,.588.216c.348,0,.972-.276.972-1.678v-.192A.821.821,0,0,1,65.417,35.143Zm.737-1.217a2.949,2.949,0,0,0-.1-.846.621.621,0,0,0-1.174-.1,1.689,1.689,0,0,0-.126.828,1.967,1.967,0,0,0,.107.815.578.578,0,0,0,.558.378C65.951,35.005,66.154,34.424,66.154,33.926Z" transform="translate(-0.623 -0.989)"/><path class="cls-6" d="M68.417,35.143a1.261,1.261,0,0,1-1.2-1.337,1.286,1.286,0,0,1,.383-.972,1.163,1.163,0,0,1,.882-.377c.533,0,1.223.407,1.223,2.02,0,1.29-.732,2.105-1.505,2.105-.51,0-.834-.245-.834-.647a.276.276,0,1,1,.552-.012c0,.1-.048.275-.312.275a.778.778,0,0,0,.588.216c.348,0,.972-.276.972-1.678v-.192A.821.821,0,0,1,68.417,35.143Zm.737-1.217a2.949,2.949,0,0,0-.1-.846.621.621,0,0,0-1.174-.1,1.689,1.689,0,0,0-.126.828,1.967,1.967,0,0,0,.107.815.578.578,0,0,0,.558.378C68.951,35.005,69.154,34.424,69.154,33.926Z" transform="translate(-0.623 -0.989)"/><line class="cls-7" x1="69.082" y1="37.349" x2="52.85" y2="37.349"/><polygon class="cls-8" points="54.186 39.258 53.373 37.349 54.186 35.438 49.657 37.349 54.186 39.258"/><line class="cls-7" x1="84.211" y1="64.822" x2="84.21" y2="48.592"/><polygon class="cls-8" points="82.301 49.928 84.21 49.115 86.122 49.928 84.21 45.399 82.301 49.928"/><path class="cls-6" d="M70.839,57.557c0,.222.018.287.557.287h.193v.186c-.21-.018-.732-.018-.972-.018s-.762,0-.972.018v-.186h.193c.54,0,.557-.071.557-.287V54.45a1.793,1.793,0,0,1-.785.156v-.185a1.48,1.48,0,0,0,1.091-.384c.138,0,.138.012.138.156Z" transform="translate(-0.623 -0.989)"/><path class="cls-6" d="M73.617,55.47a1.257,1.257,0,0,1,1.2,1.337,1.282,1.282,0,0,1-1.235,1.355c-.558,0-1.253-.425-1.253-2.027,0-1.325.81-2.1,1.577-2.1.5,0,.762.287.762.647a.276.276,0,1,1-.552.013c0-.271.239-.271.33-.271a.619.619,0,0,0-.528-.239c-.306,0-1.049.216-1.049,1.733v.144A.828.828,0,0,1,73.617,55.47Zm.558,2.135a2,2,0,0,0,.1-.8,1.979,1.979,0,0,0-.108-.821.579.579,0,0,0-.558-.372c-.54,0-.731.6-.731,1.067a2.955,2.955,0,0,0,.107.87.691.691,0,0,0,.594.449A.625.625,0,0,0,74.175,57.605Z" transform="translate(-0.623 -0.989)"/><path class="cls-6" d="M75.91,58.03a.318.318,0,1,1,.317-.317A.319.319,0,0,1,75.91,58.03Z" transform="translate(-0.623 -0.989)"/><path class="cls-6" d="M78.123,58.162a1.1,1.1,0,0,1-1.085-1.1.3.3,0,1,1,.294.27.271.271,0,0,1-.1-.012.935.935,0,0,0,.881.671.749.749,0,0,0,.642-.389,1.744,1.744,0,0,0,.144-.822,1.838,1.838,0,0,0-.108-.755.587.587,0,0,0-.51-.384.9.9,0,0,0-.773.42c-.025.035-.036.053-.078.053-.084,0-.084-.047-.084-.155V54.187c0-.1,0-.144.06-.144a.173.173,0,0,1,.071.018,1.951,1.951,0,0,0,.8.168,1.985,1.985,0,0,0,.816-.174.088.088,0,0,1,.048-.018.058.058,0,0,1,.06.066,1.31,1.31,0,0,1-1.157.623,1.894,1.894,0,0,1-.51-.078v1.17a1.055,1.055,0,0,1,.761-.306,1.231,1.231,0,0,1,1.14,1.313A1.325,1.325,0,0,1,78.123,58.162Z" transform="translate(-0.623 -0.989)"/><path class="cls-6" d="M81.5,57.557c0,.222.018.287.558.287h.192v.186c-.21-.018-.732-.018-.972-.018s-.762,0-.971.018v-.186H80.5c.54,0,.558-.071.558-.287V54.45a1.8,1.8,0,0,1-.786.156v-.185a1.48,1.48,0,0,0,1.091-.384c.138,0,.138.012.138.156Z" transform="translate(-0.623 -0.989)"/><line class="cls-7" x1="99.113" y1="64.822" x2="99.112" y2="48.592"/><polygon class="cls-8" points="97.203 49.928 99.112 49.115 101.023 49.928 99.112 45.399 97.203 49.928"/><path class="cls-6" d="M103.549,57.557c0,.222.019.287.558.287h.192v.186c-.21-.018-.731-.018-.972-.018s-.761,0-.971.018v-.186h.192c.54,0,.558-.071.558-.287V54.45a1.8,1.8,0,0,1-.785.156v-.185a1.48,1.48,0,0,0,1.09-.384c.138,0,.138.012.138.156Z" transform="translate(-0.623 -0.989)"/><path class="cls-6" d="M106.327,55.47a1.258,1.258,0,0,1,1.2,1.337,1.283,1.283,0,0,1-1.236,1.355c-.557,0-1.253-.425-1.253-2.027,0-1.325.81-2.1,1.578-2.1.5,0,.761.287.761.647a.276.276,0,1,1-.552.013c0-.271.24-.271.331-.271a.62.62,0,0,0-.529-.239c-.3,0-1.049.216-1.049,1.733v.144A.829.829,0,0,1,106.327,55.47Zm.558,2.135a1.983,1.983,0,0,0,.1-.8,1.962,1.962,0,0,0-.109-.821.578.578,0,0,0-.557-.372c-.54,0-.732.6-.732,1.067a2.929,2.929,0,0,0,.108.87.689.689,0,0,0,.593.449A.625.625,0,0,0,106.885,57.605Z" transform="translate(-0.623 -0.989)"/><path class="cls-6" d="M108.62,58.03a.318.318,0,1,1,.318-.317A.32.32,0,0,1,108.62,58.03Z" transform="translate(-0.623 -0.989)"/><path class="cls-6" d="M111.289,57.569a1.962,1.962,0,0,0,.571-.048,2.016,2.016,0,0,0,.131-.534h.15l-.168,1.043h-2.225c0-.144,0-.155.067-.221l1.151-1.284A2.148,2.148,0,0,0,111.6,55.2c0-.492-.258-.978-.8-.978a.864.864,0,0,0-.809.612.218.218,0,0,1,.077-.006.3.3,0,0,1,.318.312.315.315,0,1,1-.63-.018,1.108,1.108,0,0,1,1.121-1.085,1.178,1.178,0,0,1,1.272,1.163c0,.6-.359.924-1.3,1.751l-.636.618Z" transform="translate(-0.623 -0.989)"/><path class="cls-6" d="M114.211,57.557c0,.222.019.287.558.287h.192v.186c-.21-.018-.731-.018-.971-.018s-.762,0-.972.018v-.186h.192c.54,0,.558-.071.558-.287V54.45a1.8,1.8,0,0,1-.785.156v-.185a1.483,1.483,0,0,0,1.091-.384c.137,0,.137.012.137.156Z" transform="translate(-0.623 -0.989)"/><line class="cls-7" x1="114.538" y1="37.349" x2="130.768" y2="37.349"/><polygon class="cls-8" points="129.432 39.258 130.246 37.349 129.432 35.438 133.961 37.349 129.432 39.258"/><path class="cls-6" d="M116.39,35.976c0,.222.019.288.558.288h.192v.186c-.21-.018-.731-.018-.971-.018s-.762,0-.972.018v-.186h.192c.54,0,.558-.072.558-.288V32.87a1.8,1.8,0,0,1-.785.156V32.84a1.482,1.482,0,0,0,1.091-.384c.137,0,.137.012.137.156Z" transform="translate(-0.623 -0.989)"/><path class="cls-6" d="M120.074,34.705a1.085,1.085,0,0,1,.294.738,1.2,1.2,0,0,1-1.247,1.139,1.144,1.144,0,0,1-1.241-1.037,1.324,1.324,0,0,1,.863-1.1,3.782,3.782,0,0,1-.438-.324.954.954,0,0,1-.263-.659,1.042,1.042,0,0,1,1.085-1,.99.99,0,0,1,1.079.894,1.113,1.113,0,0,1-.726.929A2.506,2.506,0,0,1,120.074,34.705Zm-1.895.84a.9.9,0,0,0,.948.869.863.863,0,0,0,.941-.756.8.8,0,0,0-.449-.659l-.738-.468A1.176,1.176,0,0,0,118.179,35.545Zm1.169-1.356a1.015,1.015,0,0,0,.594-.839.782.782,0,0,0-.821-.744c-.426,0-.816.252-.816.618a.558.558,0,0,0,.3.485Z" transform="translate(-0.623 -0.989)"/><path class="cls-6" d="M121.462,36.45a.318.318,0,1,1,.317-.318A.32.32,0,0,1,121.462,36.45Z" transform="translate(-0.623 -0.989)"/><path class="cls-6" d="M124.736,34.705a1.08,1.08,0,0,1,.294.738,1.2,1.2,0,0,1-1.247,1.139,1.144,1.144,0,0,1-1.241-1.037,1.324,1.324,0,0,1,.863-1.1,3.757,3.757,0,0,1-.437-.324.957.957,0,0,1-.264-.659,1.042,1.042,0,0,1,1.085-1,.99.99,0,0,1,1.079.894,1.113,1.113,0,0,1-.726.929A2.506,2.506,0,0,1,124.736,34.705Zm-1.894.84a.9.9,0,0,0,.947.869.863.863,0,0,0,.941-.756.8.8,0,0,0-.449-.659l-.738-.468A1.175,1.175,0,0,0,122.842,35.545Zm1.168-1.356a1.015,1.015,0,0,0,.594-.839.782.782,0,0,0-.821-.744c-.426,0-.815.252-.815.618a.557.557,0,0,0,.3.485Z" transform="translate(-0.623 -0.989)"/><path class="cls-6" d="M127.052,35.976c0,.222.019.288.558.288h.192v.186c-.209-.018-.731-.018-.971-.018s-.762,0-.972.018v-.186h.192c.541,0,.558-.072.558-.288V32.87a1.793,1.793,0,0,1-.785.156V32.84a1.482,1.482,0,0,0,1.091-.384c.137,0,.137.012.137.156Z" transform="translate(-0.623 -0.989)"/><path class="cls-6" d="M144.22,20.3a1.223,1.223,0,0,1-1.277,1.157,1.093,1.093,0,0,1-1.211-.941.336.336,0,1,1,.672-.012.329.329,0,0,1-.4.33,1.091,1.091,0,0,0,.918.455c.264,0,.678-.174.678-.989,0-.588-.222-1-.714-1h-.264c-.1,0-.144,0-.144-.065s.042-.066.091-.072.185-.012.233-.018a.582.582,0,0,0,.534-.312,1.512,1.512,0,0,0,.168-.684c0-.539-.33-.671-.576-.671a.972.972,0,0,0-.8.371c.09,0,.372,0,.372.3a.306.306,0,1,1-.611-.006c0-.455.455-.815,1.061-.815.576,0,1.1.335,1.1.827a1.157,1.157,0,0,1-.839,1.056A1.156,1.156,0,0,1,144.22,20.3Z" transform="translate(-0.623 -0.989)"/><path class="cls-6" d="M146.242,20.852c0,.221.019.287.558.287h.192v.186c-.209-.018-.731-.018-.971-.018s-.762,0-.972.018v-.186h.192c.541,0,.558-.071.558-.287V17.745a1.793,1.793,0,0,1-.785.156v-.185a1.482,1.482,0,0,0,1.091-.384c.137,0,.137.011.137.156Z" transform="translate(-0.623 -0.989)"/><path class="cls-6" d="M148.314,21.325a.318.318,0,1,1,.317-.317A.32.32,0,0,1,148.314,21.325Z" transform="translate(-0.623 -0.989)"/><path class="cls-6" d="M150.905,20.852c0,.221.018.287.557.287h.193v.186c-.21-.018-.732-.018-.972-.018s-.762,0-.972.018v-.186h.193c.54,0,.557-.071.557-.287V17.745a1.793,1.793,0,0,1-.785.156v-.185a1.482,1.482,0,0,0,1.091-.384c.138,0,.138.011.138.156Z" transform="translate(-0.623 -0.989)"/><path class="cls-6" d="M154.187,18.813a2.631,2.631,0,0,0-.372,1.025,6.722,6.722,0,0,0-.066.984v.306c0,.06,0,.329-.276.329s-.275-.269-.275-.329a4.184,4.184,0,0,1,.737-2.255c.132-.2.6-.852.672-.947h-1.241a3.115,3.115,0,0,0-.588.035,1.7,1.7,0,0,0-.151.546h-.149l.2-1.235h.149c.025.113.037.192.768.192h1.457c0,.126,0,.137-.054.21Z" transform="translate(-0.623 -0.989)"/><line class="cls-7" x1="141.108" y1="22.382" x2="157.255" y2="22.382"/><polygon class="cls-8" points="155.919 24.292 156.732 22.382 155.919 20.471 160.448 22.381 155.919 24.292"/><path class="cls-6" d="M196.111,20.863a1.955,1.955,0,0,0,.57-.048,1.966,1.966,0,0,0,.132-.533h.15l-.168,1.043H194.57c0-.144,0-.155.067-.222l1.151-1.283a2.153,2.153,0,0,0,.629-1.325c0-.492-.258-.978-.8-.978a.862.862,0,0,0-.809.612.218.218,0,0,1,.077-.006.3.3,0,0,1,.318.311.315.315,0,1,1-.63-.017,1.108,1.108,0,0,1,1.121-1.085,1.178,1.178,0,0,1,1.272,1.163c0,.6-.36.924-1.295,1.751l-.636.617Z" transform="translate(-0.623 -0.989)"/><path class="cls-6" d="M200.011,20.3a1.223,1.223,0,0,1-1.278,1.157,1.094,1.094,0,0,1-1.211-.942.336.336,0,1,1,.672-.011.33.33,0,0,1-.4.33,1.093,1.093,0,0,0,.918.455c.263,0,.677-.174.677-.989,0-.588-.221-1-.713-1h-.264c-.1,0-.145,0-.145-.066s.042-.065.091-.071.186-.013.234-.019a.581.581,0,0,0,.534-.311,1.512,1.512,0,0,0,.168-.684c0-.54-.33-.672-.577-.672a.972.972,0,0,0-.8.372c.089,0,.372,0,.372.3a.306.306,0,1,1-.612-.006c0-.456.455-.815,1.062-.815.575,0,1.1.335,1.1.827a1.156,1.156,0,0,1-.838,1.056A1.156,1.156,0,0,1,200.011,20.3Z" transform="translate(-0.623 -0.989)"/><path class="cls-6" d="M201.1,21.325a.318.318,0,1,1,.318-.317A.32.32,0,0,1,201.1,21.325Z" transform="translate(-0.623 -0.989)"/><path class="cls-6" d="M203.7,20.851c0,.222.019.288.558.288h.192v.186c-.21-.018-.731-.018-.972-.018s-.761,0-.971.018v-.186h.192c.54,0,.558-.072.558-.288V17.745a1.8,1.8,0,0,1-.785.156v-.185a1.48,1.48,0,0,0,1.09-.384c.138,0,.138.011.138.155Z" transform="translate(-0.623 -0.989)"/><path class="cls-6" d="M207.469,20.761a1.121,1.121,0,0,1-2.033.09,3.036,3.036,0,0,1-.27-1.445,3.2,3.2,0,0,1,.222-1.361,1.1,1.1,0,0,1,1.043-.713,1.11,1.11,0,0,1,1.02.671,3.21,3.21,0,0,1,.24,1.4A3.192,3.192,0,0,1,207.469,20.761Zm-.342-.185a7.425,7.425,0,0,0,.066-1.241,7.5,7.5,0,0,0-.059-1.17c-.115-.594-.51-.7-.708-.7-.15,0-.6.053-.714.767a8.04,8.04,0,0,0-.048,1.1,8.153,8.153,0,0,0,.066,1.264c.108.577.462.726.7.726C206.7,21.325,207.037,21.145,207.127,20.576Z" transform="translate(-0.623 -0.989)"/><line class="cls-7" x1="193.704" y1="22.382" x2="209.876" y2="22.382"/><polygon class="cls-8" points="208.54 24.292 209.354 22.382 208.54 20.471 213.07 22.381 208.54 24.292"/><line class="cls-1" x1="189.193" y1="22.381" x2="193.304" y2="22.381"/><circle class="cls-2" cx="10.648" cy="30.854" r="9.524" transform="translate(-5.442 1.122) rotate(-9.245)"/><path class="cls-9" d="M15.457,29.8s-1.5,1.987-2.267,2.1c-.93.142-2.546-1.058-2.546-1.058S8.3,29.664,7.807,29.8c-.712.2-2.084,2.1-2.084,2.1" transform="translate(-0.623 -0.989)"/><line class="cls-2" x1="42.653" y1="30.023" x2="45.146" y2="30.023"/><line class="cls-2" x1="19.784" y1="30.023" x2="22.43" y2="30.023"/><path class="cls-6" d="M31.285,28.652c0,.221.018.287.557.287h.193v.186c-.21-.018-.732-.018-.972-.018s-.762,0-.972.018v-.186h.193c.54,0,.557-.072.557-.287V25.545a1.793,1.793,0,0,1-.785.156v-.186a1.484,1.484,0,0,0,1.091-.383c.138,0,.138.011.138.155Z" transform="translate(-0.623 -0.989)"/><path class="cls-6" d="M34.063,26.565a1.257,1.257,0,0,1,1.2,1.337,1.282,1.282,0,0,1-1.235,1.355c-.558,0-1.253-.426-1.253-2.027,0-1.325.809-2.1,1.577-2.1.5,0,.762.287.762.647a.276.276,0,1,1-.552.012c0-.27.239-.27.33-.27a.62.62,0,0,0-.528-.24c-.306,0-1.049.216-1.049,1.733v.144A.827.827,0,0,1,34.063,26.565Zm.558,2.134a1.993,1.993,0,0,0,.1-.8,1.984,1.984,0,0,0-.108-.822.579.579,0,0,0-.558-.372c-.54,0-.731.6-.731,1.068a2.946,2.946,0,0,0,.107.869.69.69,0,0,0,.594.45A.627.627,0,0,0,34.621,28.7Z" transform="translate(-0.623 -0.989)"/><path class="cls-6" d="M36.356,29.125a.318.318,0,1,1,.317-.318A.319.319,0,0,1,36.356,29.125Z" transform="translate(-0.623 -0.989)"/><path class="cls-6" d="M38.947,28.652c0,.221.018.287.557.287H39.7v.186c-.21-.018-.732-.018-.972-.018s-.762,0-.972.018v-.186h.193c.54,0,.557-.072.557-.287V25.545a1.793,1.793,0,0,1-.785.156v-.186a1.483,1.483,0,0,0,1.091-.383c.138,0,.138.011.138.155Z" transform="translate(-0.623 -0.989)"/><path class="cls-6" d="M42.025,28.663a1.955,1.955,0,0,0,.57-.048,1.956,1.956,0,0,0,.132-.533h.149l-.168,1.043H40.484c0-.144,0-.156.066-.221L41.7,27.62A2.15,2.15,0,0,0,42.33,26.3c0-.492-.257-.978-.8-.978a.864.864,0,0,0-.81.612.221.221,0,0,1,.077-.006.3.3,0,0,1,.319.312.315.315,0,1,1-.63-.018,1.107,1.107,0,0,1,1.121-1.085A1.178,1.178,0,0,1,42.876,26.3c0,.6-.359.923-1.295,1.751l-.635.617Z" transform="translate(-0.623 -0.989)"/><line class="cls-7" x1="42.253" y1="30.024" x2="26.023" y2="30.024"/><polygon class="cls-8" points="27.359 31.933 26.546 30.024 27.359 28.113 22.83 30.023 27.359 31.933"/><circle class="cls-2" cx="48.911" cy="83.336" r="9.524" transform="translate(-40.411 120.683) rotate(-82.966)"/><path class="cls-9" d="M53.836,82.284s-1.5,1.987-2.267,2.1c-.93.143-2.546-1.057-2.546-1.057s-2.345-1.185-2.836-1.046c-.713.2-2.085,2.1-2.085,2.1" transform="translate(-0.623 -0.989)"/><polyline class="cls-4" points="81.03 82.528 84.211 82.528 84.211 67.561 84.211 65.222"/><line class="cls-2" x1="58.162" y1="82.528" x2="60.807" y2="82.528"/><path class="cls-6" d="M61.831,80.641v-.186l1.841-2.813c.048-.071.066-.071.12-.071.1,0,.1.035.1.155v2.729h.6v.186h-.6v.521c0,.216.011.282.456.282h.126v.186c-.246-.018-.564-.018-.816-.018s-.564,0-.809.018v-.186h.126c.443,0,.455-.066.455-.282v-.521Zm1.631-2.423L62,80.455h1.463Z" transform="translate(-0.623 -0.989)"/><path class="cls-6" d="M67.4,80.605a1.223,1.223,0,0,1-1.277,1.157,1.094,1.094,0,0,1-1.211-.941.336.336,0,1,1,.672-.013.329.329,0,0,1-.4.33,1.092,1.092,0,0,0,.918.456c.264,0,.678-.174.678-.989,0-.588-.222-1-.714-1h-.264c-.1,0-.144,0-.144-.066s.042-.066.091-.072.185-.012.233-.018a.58.58,0,0,0,.534-.312,1.492,1.492,0,0,0,.168-.683c0-.54-.33-.672-.576-.672a.974.974,0,0,0-.8.372c.09,0,.372,0,.372.3a.306.306,0,1,1-.611-.006c0-.456.455-.816,1.062-.816.575,0,1.1.336,1.1.828a1.154,1.154,0,0,1-.839,1.055A1.157,1.157,0,0,1,67.4,80.605Z" transform="translate(-0.623 -0.989)"/><path class="cls-6" d="M68.5,81.63a.318.318,0,1,1,.317-.318A.319.319,0,0,1,68.5,81.63Z" transform="translate(-0.623 -0.989)"/><path class="cls-6" d="M71.166,81.168a1.955,1.955,0,0,0,.57-.048,1.966,1.966,0,0,0,.132-.533h.149l-.168,1.043H69.625c0-.144,0-.156.066-.222l1.152-1.283a2.151,2.151,0,0,0,.629-1.325c0-.492-.258-.978-.8-.978a.864.864,0,0,0-.81.612.225.225,0,0,1,.077-.006.3.3,0,0,1,.319.311.315.315,0,1,1-.63-.017,1.108,1.108,0,0,1,1.121-1.086A1.178,1.178,0,0,1,72.017,78.8c0,.6-.359.923-1.294,1.751l-.636.617Z" transform="translate(-0.623 -0.989)"/><path class="cls-6" d="M74.166,81.168a1.955,1.955,0,0,0,.57-.048,1.966,1.966,0,0,0,.132-.533h.149l-.168,1.043H72.625c0-.144,0-.156.066-.222l1.152-1.283a2.151,2.151,0,0,0,.629-1.325c0-.492-.258-.978-.8-.978a.864.864,0,0,0-.81.612.225.225,0,0,1,.077-.006.3.3,0,0,1,.319.311.315.315,0,1,1-.63-.017,1.108,1.108,0,0,1,1.121-1.086A1.178,1.178,0,0,1,75.017,78.8c0,.6-.359.923-1.294,1.751l-.636.617Z" transform="translate(-0.623 -0.989)"/><line class="cls-7" x1="61.207" y1="82.529" x2="77.437" y2="82.529"/><polygon class="cls-8" points="76.101 84.438 76.915 82.529 76.101 80.618 80.63 82.528 76.101 84.438"/><polyline class="cls-2" points="99.113 65.222 99.114 67.561 99.114 82.528 101.407 82.528"/><line class="cls-4" x1="127.421" y1="82.527" x2="121.685" y2="82.527"/><polygon class="cls-6" points="125.315 79.75 126.494 82.527 125.314 85.304 131.898 82.528 125.315 79.75"/><path class="cls-6" d="M103.658,81.156c0,.222.019.288.558.288h.192v.186c-.21-.018-.731-.018-.971-.018s-.762,0-.972.018v-.186h.192c.54,0,.558-.072.558-.288V78.05a1.8,1.8,0,0,1-.785.156V78.02a1.482,1.482,0,0,0,1.091-.384c.137,0,.137.012.137.156Z" transform="translate(-0.623 -0.989)"/><path class="cls-6" d="M107.432,81.067a1.121,1.121,0,0,1-2.032.089,3.025,3.025,0,0,1-.271-1.445,3.191,3.191,0,0,1,.223-1.361,1.1,1.1,0,0,1,1.043-.714,1.11,1.11,0,0,1,1.019.672,4.236,4.236,0,0,1,.018,2.759Zm-.342-.186a11.666,11.666,0,0,0,.007-2.411c-.114-.594-.51-.7-.708-.7-.15,0-.6.054-.714.768a12.311,12.311,0,0,0,.019,2.369c.107.575.461.725.695.725C106.658,81.63,107,81.45,107.09,80.881Z" transform="translate(-0.623 -0.989)"/><path class="cls-6" d="M108.73,81.63a.318.318,0,1,1,.317-.318A.32.32,0,0,1,108.73,81.63Z" transform="translate(-0.623 -0.989)"/><path class="cls-6" d="M110.943,81.762a1.1,1.1,0,0,1-1.085-1.1.3.3,0,1,1,.294.269.3.3,0,0,1-.1-.011.934.934,0,0,0,.881.671.748.748,0,0,0,.641-.39,1.73,1.73,0,0,0,.145-.821,1.863,1.863,0,0,0-.108-.756.588.588,0,0,0-.51-.384.9.9,0,0,0-.774.42c-.024.036-.036.054-.078.054-.084,0-.084-.048-.084-.156V77.786c0-.1,0-.144.061-.144a.176.176,0,0,1,.071.018,1.948,1.948,0,0,0,.8.168,2,2,0,0,0,.815-.173c.031-.019.042-.019.048-.019a.059.059,0,0,1,.061.066,1.308,1.308,0,0,1-1.157.624,1.888,1.888,0,0,1-.51-.078v1.169a1.052,1.052,0,0,1,.761-.305,1.23,1.23,0,0,1,1.139,1.313A1.324,1.324,0,0,1,110.943,81.762Z" transform="translate(-0.623 -0.989)"/><path class="cls-6" d="M115.094,81.067a1.121,1.121,0,0,1-2.032.089,3.037,3.037,0,0,1-.271-1.445,3.191,3.191,0,0,1,.223-1.361,1.1,1.1,0,0,1,1.043-.714,1.11,1.11,0,0,1,1.019.672,4.219,4.219,0,0,1,.018,2.759Zm-.342-.186a11.483,11.483,0,0,0,.007-2.411c-.114-.594-.51-.7-.708-.7-.149,0-.6.054-.714.768a12.311,12.311,0,0,0,.019,2.369c.107.575.462.725.7.725C114.32,81.63,114.662,81.45,114.752,80.881Z" transform="translate(-0.623 -0.989)"/><line class="cls-7" x1="101.806" y1="82.529" x2="118.036" y2="82.529"/><polygon class="cls-8" points="116.7 84.438 117.513 82.529 116.7 80.618 121.229 82.528 116.7 84.438"/><line class="cls-2" x1="217.367" y1="22.381" x2="219.66" y2="22.381"/><path class="cls-6" d="M222.224,21.021a1.955,1.955,0,0,0,.57-.048,1.956,1.956,0,0,0,.132-.533h.149l-.168,1.043h-2.224c0-.144,0-.156.066-.222l1.152-1.283a2.151,2.151,0,0,0,.629-1.325c0-.492-.258-.978-.8-.978a.864.864,0,0,0-.81.612.221.221,0,0,1,.077-.006.3.3,0,0,1,.319.312.315.315,0,1,1-.63-.018,1.108,1.108,0,0,1,1.121-1.086,1.178,1.178,0,0,1,1.271,1.164c0,.6-.359.923-1.295,1.751l-.635.617Z" transform="translate(-0.623 -0.989)"/><path class="cls-6" d="M226.123,20.458a1.223,1.223,0,0,1-1.277,1.157,1.094,1.094,0,0,1-1.211-.941.336.336,0,1,1,.672-.013.329.329,0,0,1-.4.33,1.093,1.093,0,0,0,.918.456c.264,0,.678-.174.678-.989,0-.588-.222-1-.714-1h-.263c-.1,0-.145,0-.145-.066s.042-.066.091-.072.185-.012.233-.018a.579.579,0,0,0,.534-.312,1.492,1.492,0,0,0,.168-.683c0-.54-.33-.672-.576-.672a.974.974,0,0,0-.8.372c.09,0,.372,0,.372.3a.306.306,0,1,1-.611-.006c0-.456.455-.816,1.062-.816.575,0,1.1.336,1.1.828a1.154,1.154,0,0,1-.839,1.055A1.157,1.157,0,0,1,226.123,20.458Z" transform="translate(-0.623 -0.989)"/><path class="cls-6" d="M227.217,21.483a.318.318,0,1,1,.317-.318A.319.319,0,0,1,227.217,21.483Z" transform="translate(-0.623 -0.989)"/><path class="cls-6" d="M229.808,21.009c0,.222.018.288.557.288h.193v.186c-.21-.018-.732-.018-.972-.018s-.762,0-.972.018V21.3h.193c.54,0,.557-.072.557-.288V17.9a1.793,1.793,0,0,1-.785.156v-.186a1.48,1.48,0,0,0,1.091-.384c.138,0,.138.012.138.156Z" transform="translate(-0.623 -0.989)"/><path class="cls-6" d="M233.581,20.92a1.121,1.121,0,0,1-2.032.089,3.036,3.036,0,0,1-.27-1.445A3.206,3.206,0,0,1,231.5,18.2a1.1,1.1,0,0,1,1.043-.714,1.113,1.113,0,0,1,1.02.672,3.212,3.212,0,0,1,.24,1.4A3.181,3.181,0,0,1,233.581,20.92Zm-.342-.186a7.322,7.322,0,0,0,.067-1.242,7.365,7.365,0,0,0-.06-1.169c-.114-.594-.509-.7-.708-.7-.149,0-.6.054-.714.768a8.21,8.21,0,0,0-.047,1.1,8.178,8.178,0,0,0,.066,1.266c.107.575.462.725.7.725C232.808,21.483,233.15,21.3,233.239,20.734Z" transform="translate(-0.623 -0.989)"/><line class="cls-7" x1="220.059" y1="22.382" x2="236.289" y2="22.382"/><polygon class="cls-8" points="234.953 24.291 235.766 22.382 234.953 20.471 239.482 22.381 234.953 24.291"/><line class="cls-2" x1="138.365" y1="37.349" x2="140.698" y2="37.349"/><path class="cls-6" d="M152.846,33.939a2.655,2.655,0,0,0-.373,1.025,6.858,6.858,0,0,0-.064.983v.307c0,.06,0,.329-.278.329s-.275-.269-.275-.329A4.178,4.178,0,0,1,152.594,34c.131-.2.606-.852.672-.948h-1.242a3.04,3.04,0,0,0-.588.036,1.7,1.7,0,0,0-.15.546h-.149l.2-1.235h.151c.023.113.035.192.767.192h1.457c0,.126,0,.137-.054.21Z" transform="translate(-0.623 -0.989)"/><path class="cls-6" d="M154.635,36.451a.318.318,0,1,1,.317-.317A.319.319,0,0,1,154.635,36.451Z" transform="translate(-0.623 -0.989)"/><path class="cls-6" d="M157,33.891a1.258,1.258,0,0,1,1.2,1.337,1.284,1.284,0,0,1-1.237,1.355c-.556,0-1.252-.426-1.252-2.027,0-1.325.809-2.1,1.576-2.1.5,0,.762.287.762.647a.276.276,0,1,1-.551.012c0-.27.239-.27.33-.27a.619.619,0,0,0-.529-.239c-.305,0-1.049.215-1.049,1.733v.144A.828.828,0,0,1,157,33.891Zm.557,2.135a1.983,1.983,0,0,0,.1-.8,1.96,1.96,0,0,0-.109-.821.577.577,0,0,0-.557-.372c-.541,0-.732.6-.732,1.067a2.955,2.955,0,0,0,.107.87.7.7,0,0,0,.594.449A.627.627,0,0,0,157.561,36.026Z" transform="translate(-0.623 -0.989)"/><path class="cls-6" d="M160.3,35.989a1.988,1.988,0,0,0,.57-.047,1.971,1.971,0,0,0,.133-.534h.149l-.168,1.043h-2.225c0-.144,0-.155.067-.221l1.152-1.284a2.156,2.156,0,0,0,.629-1.325c0-.492-.258-.978-.8-.978a.863.863,0,0,0-.81.612.222.222,0,0,1,.078-.006.3.3,0,0,1,.318.312.316.316,0,1,1-.631-.018,1.108,1.108,0,0,1,1.121-1.085,1.177,1.177,0,0,1,1.272,1.163c0,.6-.36.924-1.295,1.751l-.635.617Z" transform="translate(-0.623 -0.989)"/><line class="cls-7" x1="160.531" y1="37.35" x2="144.302" y2="37.35"/><polygon class="cls-8" points="145.638 39.259 144.824 37.35 145.638 35.439 141.108 37.349 145.638 39.259"/><line class="cls-1" x1="160.849" y1="37.349" x2="163.548" y2="37.348"/><line class="cls-4" x1="245.671" y1="22.381" x2="239.88" y2="22.381"/><polygon class="cls-6" points="243.564 19.604 244.744 22.381 243.564 25.158 250.148 22.381 243.564 19.604"/><line class="cls-3" x1="216.55" y1="7.414" x2="216.55" y2="37.348"/><circle class="cls-10" cx="173.244" cy="22.381" r="8.504"/><circle class="cls-1" cx="180.821" cy="22.381" r="8.504"/><path d="M212.888,4.577a1.468,1.468,0,0,1-1.6,1.313h-2.812V5.667h.172c.553,0,.567-.079.567-.337V1.549c0-.258-.014-.337-.567-.337h-.172V.989H211.1A1.441,1.441,0,0,1,212.694,2.2c0,.53-.495.99-1.191,1.126A1.41,1.41,0,0,1,212.888,4.577ZM210.85,3.263A1.081,1.081,0,0,0,212,2.2a.953.953,0,0,0-.947-.99h-.889c-.338,0-.352.05-.352.287V3.263Zm1.321,1.306a1.075,1.075,0,0,0-1.012-1.147H209.81V5.38c0,.237.014.287.352.287h.9A1.085,1.085,0,0,0,212.171,4.569Z" transform="translate(-0.623 -0.989)"/><path d="M215.175,5.968c-1.09,0-1.09-.652-1.09-1.212V3.68c0-.639,0-.66-.559-.66V2.8l1.054-.079V5.1c0,.373.028.711.631.711.524,0,.868-.488.868-1.113V3.422c0-.352-.057-.4-.559-.4V2.8l1.054-.079V5.265c0,.352.058.4.56.4V5.89l-1.033.078V5.323A.98.98,0,0,1,215.175,5.968Z" transform="translate(-0.623 -0.989)"/><path d="M217.822,4.168a.764.764,0,0,1-.308-.61c0-.4.273-.882,1.147-.882a1.111,1.111,0,0,1,.675.2.945.945,0,0,0,.122-.115c.093-.085.107-.085.143-.085.079,0,.079.05.079.172v.724c0,.136,0,.172-.093.172-.014,0-.079,0-.086-.064a.791.791,0,0,0-.84-.868c-.616,0-.8.294-.8.545,0,.416.481.509.883.588a1.46,1.46,0,0,1,.817.344.93.93,0,0,1,.3.682c0,.516-.329,1-1.154,1a1.074,1.074,0,0,1-.79-.308,1.953,1.953,0,0,0-.143.165c-.137.136-.144.143-.179.143-.079,0-.079-.05-.079-.172V4.849c0-.129,0-.179.093-.179.072,0,.079.028.1.122.137.61.4,1.019,1,1.019.56,0,.811-.288.811-.653,0-.517-.589-.632-.747-.661A1.886,1.886,0,0,1,217.822,4.168Z" transform="translate(-0.623 -0.989)"/><path d="M222.692,4.706V4.483l2.2-3.364c.057-.087.079-.087.144-.087.114,0,.114.043.114.187V4.483h.717v.223h-.717V5.33c0,.258.015.337.546.337h.15V5.89c-.294-.022-.674-.022-.976-.022s-.674,0-.968.022V5.667h.151c.531,0,.545-.079.545-.337V4.706Zm1.952-2.9-1.751,2.676h1.751Z" transform="translate(-0.623 -0.989)"/></svg>