<svg id="Layer_1" data-name="Layer 1" xmlns="http://www.w3.org/2000/svg" viewBox="0 0 231.71 92.371"><defs><style>.cls-1,.cls-10,.cls-3,.cls-4,.cls-5,.cls-9{fill:none;}.cls-1,.cls-3{stroke:#010101;}.cls-1,.cls-10,.cls-2,.cls-3,.cls-4,.cls-5,.cls-7,.cls-9{stroke-miterlimit:10;}.cls-2{fill:#fff;}.cls-2,.cls-4,.cls-5{stroke:#231f20;}.cls-3{stroke-width:1.9px;}.cls-5{stroke-width:0.7px;}.cls-6{fill:#231f20;}.cls-7,.cls-8{fill:#be1e2d;}.cls-7{stroke:#be1e2d;}.cls-9{stroke:#000;}.cls-10{stroke:#ed1c24;}</style></defs><line class="cls-1" x1="155.349" y1="22.381" x2="159.059" y2="22.381"/><line class="cls-2" x1="128.862" y1="22.381" x2="131.961" y2="22.381"/><line class="cls-2" x1="63.886" y1="22.381" x2="108.639" y2="22.381"/><path class="cls-2" d="M73.38,23.389" transform="translate(-0.751 -1.007)"/><path class="cls-2" d="M61.822,23.389" transform="translate(-0.751 -1.007)"/><line class="cls-2" x1="41.017" y1="22.381" x2="43.663" y2="22.381"/><line class="cls-3" x1="40.5" y1="14.898" x2="40.5" y2="44.832"/><line class="cls-4" x1="43.757" y1="37.349" x2="40.363" y2="37.348"/><polyline class="cls-4" points="78.711 44.999 78.711 37.349 63.982 37.349"/><line class="cls-3" x1="71.227" y1="68.115" x2="101.161" y2="68.115"/><line class="cls-3" x1="131.957" y1="14.898" x2="131.957" y2="44.832"/><line class="cls-1" x1="132.865" y1="22.381" x2="135.199" y2="22.381"/><line class="cls-1" x1="207.871" y1="22.381" x2="212.065" y2="22.381"/><path d="M37.152,12.274a1.467,1.467,0,0,1-1.6,1.312H32.74v-.222h.172c.552,0,.567-.079.567-.337V9.246c0-.258-.015-.337-.567-.337H32.74V8.687h2.625A1.44,1.44,0,0,1,36.958,9.9c0,.531-.495.99-1.191,1.127A1.408,1.408,0,0,1,37.152,12.274Zm-2.038-1.313A1.082,1.082,0,0,0,36.262,9.9a.953.953,0,0,0-.947-.99h-.889c-.338,0-.352.05-.352.287v1.765Zm1.32,1.306a1.075,1.075,0,0,0-1.011-1.149H34.074v1.959c0,.237.014.287.352.287h.9A1.084,1.084,0,0,0,36.434,12.267Z" transform="translate(-0.751 -1.007)"/><path d="M39.439,13.665c-1.09,0-1.09-.653-1.09-1.212V11.377c0-.638,0-.66-.56-.66V10.5l1.055-.08V12.8c0,.373.029.71.631.71.524,0,.868-.487.868-1.111V11.118c0-.351-.057-.4-.559-.4V10.5l1.054-.08v2.548c0,.351.058.4.56.4v.222l-1.033.079V13.02A.978.978,0,0,1,39.439,13.665Z" transform="translate(-0.751 -1.007)"/><path d="M42.086,11.864a.761.761,0,0,1-.308-.609c0-.4.272-.883,1.147-.883a1.106,1.106,0,0,1,.675.2,1.011,1.011,0,0,0,.122-.114c.093-.087.108-.087.143-.087.079,0,.079.051.079.173v.724c0,.136,0,.173-.093.173a.077.077,0,0,1-.086-.065.792.792,0,0,0-.84-.868c-.617,0-.8.294-.8.545,0,.416.481.509.882.588a1.461,1.461,0,0,1,.818.345.923.923,0,0,1,.3.681c0,.517-.329,1-1.154,1a1.074,1.074,0,0,1-.79-.308,1.4,1.4,0,0,0-.143.165c-.136.136-.144.143-.179.143-.079,0-.079-.05-.079-.172v-.947c0-.129,0-.179.093-.179.072,0,.079.029.1.122.137.609.4,1.018,1,1.018.559,0,.81-.286.81-.652,0-.517-.588-.631-.746-.66A1.88,1.88,0,0,1,42.086,11.864Z" transform="translate(-0.751 -1.007)"/><path d="M48.865,13.02c0,.265.021.344.667.344h.229v.222c-.251-.021-.875-.021-1.162-.021s-.911,0-1.162.021v-.222h.23c.645,0,.667-.086.667-.344V9.3a2.153,2.153,0,0,1-.94.186V9.268A1.773,1.773,0,0,0,48.7,8.809c.165,0,.165.014.165.186Z" transform="translate(-0.751 -1.007)"/><line class="cls-4" x1="128.862" y1="37.348" x2="131.961" y2="37.348"/><polyline class="cls-4" points="93.613 44.999 93.613 37.349 108.639 37.348"/><line class="cls-4" x1="152.872" y1="36.848" x2="152.872" y2="51.85"/><path class="cls-4" d="M160.981,60.278a7.087,7.087,0,1,0-7.087,7.087A7.086,7.086,0,0,0,160.981,60.278Z" transform="translate(-0.751 -1.007)"/><path class="cls-5" d="M158.854,60.278a4.96,4.96,0,1,0-4.96,4.96A4.96,4.96,0,0,0,158.854,60.278Z" transform="translate(-0.751 -1.007)"/><path class="cls-6" d="M155.432,62.674a3.3,3.3,0,0,1-1.352.243,2.393,2.393,0,0,1-2.53-2.59,2.548,2.548,0,0,1,2.674-2.689,2.746,2.746,0,0,1,1.215.227l-.159.54a2.4,2.4,0,0,0-1.033-.213,1.9,1.9,0,0,0-2,2.112,1.861,1.861,0,0,0,1.967,2.058,2.628,2.628,0,0,0,1.079-.213Z" transform="translate(-0.751 -1.007)"/><path d="M108.32,70.259a1.467,1.467,0,0,1-1.6,1.313h-2.812v-.223h.172c.552,0,.566-.079.566-.337v-3.78c0-.258-.014-.338-.566-.338h-.172v-.222h2.625a1.44,1.44,0,0,1,1.593,1.212c0,.531-.5.99-1.191,1.127A1.408,1.408,0,0,1,108.32,70.259Zm-2.038-1.313a1.082,1.082,0,0,0,1.148-1.062.953.953,0,0,0-.947-.99h-.889c-.337,0-.352.051-.352.287v1.765Zm1.32,1.306a1.075,1.075,0,0,0-1.011-1.148h-1.349v1.958c0,.237.015.287.352.287h.9A1.084,1.084,0,0,0,107.6,70.252Z" transform="translate(-0.751 -1.007)"/><path d="M110.607,71.651c-1.09,0-1.09-.653-1.09-1.212V69.362c0-.638,0-.659-.56-.659V68.48l1.055-.079v2.381c0,.374.029.711.631.711.524,0,.869-.488.869-1.112V69.1c0-.352-.058-.4-.56-.4V68.48l1.055-.079v2.547c0,.351.057.4.559.4v.223l-1.033.079v-.646A.979.979,0,0,1,110.607,71.651Z" transform="translate(-0.751 -1.007)"/><path d="M113.254,69.85a.764.764,0,0,1-.309-.61c0-.4.273-.882,1.148-.882a1.111,1.111,0,0,1,.675.2.877.877,0,0,0,.122-.114c.093-.086.108-.086.143-.086.079,0,.079.05.079.172v.725c0,.136,0,.172-.093.172a.077.077,0,0,1-.086-.065.792.792,0,0,0-.84-.868c-.617,0-.8.294-.8.545,0,.417.481.509.882.589a1.453,1.453,0,0,1,.818.344.925.925,0,0,1,.3.682c0,.516-.33,1-1.155,1a1.072,1.072,0,0,1-.79-.309,1.521,1.521,0,0,0-.143.165c-.136.137-.144.144-.179.144-.08,0-.08-.05-.08-.173v-.947c0-.128,0-.179.094-.179.072,0,.079.029.1.122.137.61.4,1.019,1,1.019.559,0,.81-.287.81-.653,0-.517-.588-.631-.746-.66A1.885,1.885,0,0,1,113.254,69.85Z" transform="translate(-0.751 -1.007)"/><path d="M120.126,71.019a2.359,2.359,0,0,0,.682-.057,2.36,2.36,0,0,0,.157-.639h.18l-.2,1.249h-2.662c0-.172,0-.187.079-.266l1.378-1.535a2.572,2.572,0,0,0,.753-1.585c0-.589-.309-1.17-.961-1.17a1.035,1.035,0,0,0-.969.732.281.281,0,0,1,.093-.007.363.363,0,0,1,.381.373.377.377,0,1,1-.754-.022,1.326,1.326,0,0,1,1.342-1.3,1.41,1.41,0,0,1,1.521,1.392c0,.717-.431,1.1-1.55,2.094l-.76.739Z" transform="translate(-0.751 -1.007)"/><path d="M128.444,12.194a1.466,1.466,0,0,1-1.6,1.313h-2.813v-.222h.172c.553,0,.567-.079.567-.337V9.166c0-.257-.014-.336-.567-.336h-.172V8.607h2.626A1.44,1.44,0,0,1,128.25,9.82a1.3,1.3,0,0,1-1.19,1.126A1.408,1.408,0,0,1,128.444,12.194Zm-2.037-1.313a1.082,1.082,0,0,0,1.148-1.061.953.953,0,0,0-.947-.99h-.89c-.337,0-.351.05-.351.287v1.764Zm1.32,1.306a1.074,1.074,0,0,0-1.011-1.147h-1.349V13c0,.237.014.287.351.287h.9A1.085,1.085,0,0,0,127.727,12.187Z" transform="translate(-0.751 -1.007)"/><path d="M130.732,13.586c-1.09,0-1.09-.652-1.09-1.212V11.3c0-.639,0-.661-.56-.661v-.222l1.055-.079v2.382c0,.373.028.711.631.711.524,0,.868-.488.868-1.113V11.04c0-.352-.058-.4-.56-.4v-.222l1.055-.079v2.547c0,.352.057.4.559.4v.222l-1.033.079v-.645A.978.978,0,0,1,130.732,13.586Z" transform="translate(-0.751 -1.007)"/><path d="M133.379,11.785a.764.764,0,0,1-.309-.609c0-.4.273-.883,1.148-.883a1.108,1.108,0,0,1,.675.2.945.945,0,0,0,.122-.115c.093-.086.107-.086.143-.086.079,0,.079.05.079.173v.724c0,.136,0,.172-.093.172-.015,0-.08,0-.087-.064a.791.791,0,0,0-.839-.869c-.617,0-.8.294-.8.546,0,.416.48.509.882.588a1.466,1.466,0,0,1,.818.344.925.925,0,0,1,.3.682c0,.516-.33,1-1.155,1a1.072,1.072,0,0,1-.789-.308,1.521,1.521,0,0,0-.143.165c-.137.136-.144.143-.18.143-.079,0-.079-.05-.079-.172v-.947c0-.13,0-.179.094-.179.071,0,.078.028.1.121.136.611.395,1.02,1,1.02.56,0,.811-.288.811-.653,0-.517-.589-.632-.747-.661A1.867,1.867,0,0,1,133.379,11.785Z" transform="translate(-0.751 -1.007)"/><path d="M141.327,12.281a1.463,1.463,0,0,1-1.528,1.384,1.31,1.31,0,0,1-1.45-1.126.4.4,0,1,1,.8-.014.392.392,0,0,1-.473.394,1.3,1.3,0,0,0,1.1.545c.316,0,.811-.208.811-1.183,0-.7-.266-1.192-.854-1.192h-.315c-.122,0-.173,0-.173-.078s.051-.08.108-.087.222-.014.28-.021a.7.7,0,0,0,.638-.373,1.787,1.787,0,0,0,.2-.818c0-.645-.394-.8-.689-.8a1.164,1.164,0,0,0-.954.444c.108,0,.445,0,.445.359a.366.366,0,1,1-.732-.007c0-.546.546-.976,1.27-.976.689,0,1.32.4,1.32.99a1.382,1.382,0,0,1-1,1.263A1.383,1.383,0,0,1,141.327,12.281Z" transform="translate(-0.751 -1.007)"/><path class="cls-6" d="M46.355,21.039a1.962,1.962,0,0,0,.571-.048,2,2,0,0,0,.131-.533h.15L47.039,21.5H44.814c0-.144,0-.156.067-.222L46.032,20a2.151,2.151,0,0,0,.629-1.325c0-.492-.258-.978-.8-.978a.863.863,0,0,0-.809.612.218.218,0,0,1,.077-.006.3.3,0,0,1,.318.311.315.315,0,1,1-.63-.017,1.108,1.108,0,0,1,1.121-1.086,1.179,1.179,0,0,1,1.272,1.164c0,.6-.359.923-1.3,1.751l-.636.617Z" transform="translate(-0.751 -1.007)"/><path class="cls-6" d="M49.961,19.756a1.085,1.085,0,0,1,.294.738,1.2,1.2,0,0,1-1.247,1.139A1.145,1.145,0,0,1,47.766,20.6a1.325,1.325,0,0,1,.864-1.1,3.913,3.913,0,0,1-.438-.323.958.958,0,0,1-.263-.66,1.042,1.042,0,0,1,1.085-1,.991.991,0,0,1,1.079.894,1.11,1.11,0,0,1-.726.929A2.506,2.506,0,0,1,49.961,19.756Zm-1.895.84a.9.9,0,0,0,.948.869.863.863,0,0,0,.941-.755.8.8,0,0,0-.449-.66l-.739-.468A1.176,1.176,0,0,0,48.066,20.6Zm1.169-1.356a1.015,1.015,0,0,0,.594-.839.782.782,0,0,0-.821-.744c-.426,0-.816.252-.816.618a.557.557,0,0,0,.3.485Z" transform="translate(-0.751 -1.007)"/><path class="cls-6" d="M51.349,21.5a.318.318,0,1,1,.317-.318A.32.32,0,0,1,51.349,21.5Z" transform="translate(-0.751 -1.007)"/><path class="cls-6" d="M53.628,20.194a1.261,1.261,0,0,1-1.2-1.337,1.286,1.286,0,0,1,.383-.972,1.161,1.161,0,0,1,.882-.378c.533,0,1.223.408,1.223,2.021,0,1.29-.732,2.105-1.505,2.105-.51,0-.834-.246-.834-.648a.276.276,0,1,1,.552-.012c0,.1-.048.276-.312.276a.782.782,0,0,0,.588.216c.348,0,.972-.276.972-1.679v-.192A.821.821,0,0,1,53.628,20.194Zm.737-1.217a2.949,2.949,0,0,0-.1-.846.62.62,0,0,0-1.174-.1,1.687,1.687,0,0,0-.126.827,1.972,1.972,0,0,0,.107.816.578.578,0,0,0,.558.378C54.162,20.056,54.365,19.474,54.365,18.977Z" transform="translate(-0.751 -1.007)"/><path class="cls-6" d="M57.713,20.938a1.121,1.121,0,0,1-2.032.089,3.025,3.025,0,0,1-.271-1.445,3.191,3.191,0,0,1,.223-1.361,1.1,1.1,0,0,1,1.043-.714,1.11,1.11,0,0,1,1.019.672,3.212,3.212,0,0,1,.24,1.4A3.2,3.2,0,0,1,57.713,20.938Zm-.342-.186a7.432,7.432,0,0,0,.066-1.242,7.488,7.488,0,0,0-.059-1.169c-.114-.594-.51-.7-.708-.7-.15,0-.6.054-.714.768a8.04,8.04,0,0,0-.048,1.1,8.178,8.178,0,0,0,.066,1.266c.108.575.462.725.7.725C56.939,21.5,57.281,21.321,57.371,20.752Z" transform="translate(-0.751 -1.007)"/><line class="cls-7" x1="44.063" y1="22.382" x2="60.293" y2="22.382"/><polygon class="cls-8" points="58.957 24.292 59.77 22.382 58.957 20.471 63.486 22.381 58.957 24.292"/><line class="cls-7" x1="109.038" y1="22.382" x2="125.268" y2="22.382"/><polygon class="cls-8" points="123.932 24.292 124.745 22.382 123.932 20.471 128.461 22.382 123.932 24.292"/><path class="cls-6" d="M111.331,21.039a1.959,1.959,0,0,0,.57-.048,1.956,1.956,0,0,0,.132-.533h.149l-.168,1.043H109.79c0-.144,0-.156.066-.222L111.007,20a2.146,2.146,0,0,0,.629-1.325c0-.492-.257-.978-.8-.978a.864.864,0,0,0-.81.612.221.221,0,0,1,.077-.006.3.3,0,0,1,.319.311.315.315,0,1,1-.63-.017,1.108,1.108,0,0,1,1.121-1.086,1.178,1.178,0,0,1,1.271,1.164c0,.6-.359.923-1.3,1.751l-.635.617Z" transform="translate(-0.751 -1.007)"/><path class="cls-6" d="M114.936,19.756a1.08,1.08,0,0,1,.294.738,1.2,1.2,0,0,1-1.247,1.139,1.144,1.144,0,0,1-1.241-1.037,1.324,1.324,0,0,1,.863-1.1,3.887,3.887,0,0,1-.437-.323.96.96,0,0,1-.264-.66,1.042,1.042,0,0,1,1.085-1,.99.99,0,0,1,1.079.894,1.11,1.11,0,0,1-.726.929A2.506,2.506,0,0,1,114.936,19.756Zm-1.894.84a.9.9,0,0,0,.947.869.863.863,0,0,0,.941-.755.8.8,0,0,0-.449-.66l-.738-.468A1.175,1.175,0,0,0,113.042,20.6Zm1.169-1.356a1.016,1.016,0,0,0,.593-.839.781.781,0,0,0-.821-.744c-.426,0-.815.252-.815.618a.556.556,0,0,0,.3.485Z" transform="translate(-0.751 -1.007)"/><path class="cls-6" d="M116.324,21.5a.318.318,0,1,1,.317-.318A.32.32,0,0,1,116.324,21.5Z" transform="translate(-0.751 -1.007)"/><path class="cls-6" d="M118.6,20.194a1.261,1.261,0,0,1-1.2-1.337,1.286,1.286,0,0,1,.384-.972,1.159,1.159,0,0,1,.882-.378c.533,0,1.222.408,1.222,2.021,0,1.29-.731,2.105-1.5,2.105-.509,0-.834-.246-.834-.648a.276.276,0,1,1,.552-.012c0,.1-.048.276-.311.276a.78.78,0,0,0,.587.216c.348,0,.972-.276.972-1.679v-.192A.821.821,0,0,1,118.6,20.194Zm.737-1.217a2.987,2.987,0,0,0-.095-.846.621.621,0,0,0-1.175-.1,1.687,1.687,0,0,0-.126.827,1.972,1.972,0,0,0,.107.816.578.578,0,0,0,.558.378C119.137,20.056,119.34,19.474,119.34,18.977Z" transform="translate(-0.751 -1.007)"/><path class="cls-6" d="M122.688,20.938a1.121,1.121,0,0,1-2.032.089,3.037,3.037,0,0,1-.271-1.445,3.207,3.207,0,0,1,.223-1.361,1.1,1.1,0,0,1,1.043-.714,1.113,1.113,0,0,1,1.02.672,3.227,3.227,0,0,1,.24,1.4A3.2,3.2,0,0,1,122.688,20.938Zm-.342-.186a7.322,7.322,0,0,0,.067-1.242,7.365,7.365,0,0,0-.06-1.169c-.114-.594-.51-.7-.708-.7-.149,0-.6.054-.714.768a8.04,8.04,0,0,0-.048,1.1,8.058,8.058,0,0,0,.067,1.266c.107.575.462.725.695.725C121.915,21.5,122.256,21.321,122.346,20.752Z" transform="translate(-0.751 -1.007)"/><path class="cls-6" d="M46.043,35.994c0,.222.018.288.557.288h.193v.186c-.21-.018-.732-.018-.972-.018s-.762,0-.972.018v-.186h.193c.54,0,.557-.072.557-.288V32.888a1.793,1.793,0,0,1-.785.156v-.186a1.48,1.48,0,0,0,1.091-.384c.138,0,.138.012.138.156Z" transform="translate(-0.751 -1.007)"/><path class="cls-6" d="M48.665,36.6a1.1,1.1,0,0,1-1.085-1.1.3.3,0,1,1,.294.269.267.267,0,0,1-.1-.012.934.934,0,0,0,.881.672.75.75,0,0,0,.642-.39,1.742,1.742,0,0,0,.144-.821,1.846,1.846,0,0,0-.108-.756.587.587,0,0,0-.51-.384.9.9,0,0,0-.773.42c-.025.036-.036.054-.078.054-.084,0-.084-.048-.084-.156V32.624c0-.1,0-.144.06-.144a.173.173,0,0,1,.071.018,1.951,1.951,0,0,0,.8.168,1.985,1.985,0,0,0,.816-.174.088.088,0,0,1,.048-.018.058.058,0,0,1,.06.066,1.308,1.308,0,0,1-1.157.624,1.894,1.894,0,0,1-.51-.078v1.169a1.055,1.055,0,0,1,.761-.306,1.231,1.231,0,0,1,1.14,1.313A1.325,1.325,0,0,1,48.665,36.6Z" transform="translate(-0.751 -1.007)"/><path class="cls-6" d="M51.114,36.468a.318.318,0,1,1,.318-.318A.319.319,0,0,1,51.114,36.468Z" transform="translate(-0.751 -1.007)"/><path class="cls-6" d="M53.987,33.955a2.669,2.669,0,0,0-.372,1.026,6.7,6.7,0,0,0-.065.983v.306c0,.06,0,.33-.277.33S53,36.33,53,36.27a4.187,4.187,0,0,1,.737-2.255c.132-.2.606-.851.672-.947H53.166a3.035,3.035,0,0,0-.588.036,1.669,1.669,0,0,0-.15.546h-.15l.2-1.236h.15c.024.114.036.192.767.192H54.85c0,.126,0,.138-.053.21Z" transform="translate(-0.751 -1.007)"/><path class="cls-6" d="M57.478,35.9a1.12,1.12,0,0,1-2.032.09,3.036,3.036,0,0,1-.27-1.445,3.2,3.2,0,0,1,.222-1.361,1.1,1.1,0,0,1,1.043-.714,1.113,1.113,0,0,1,1.02.672,3.207,3.207,0,0,1,.24,1.4A3.177,3.177,0,0,1,57.478,35.9Zm-.341-.186a7.413,7.413,0,0,0,.066-1.241,7.365,7.365,0,0,0-.06-1.169c-.114-.594-.509-.7-.708-.7-.149,0-.6.054-.713.768a8.025,8.025,0,0,0-.048,1.1,8.166,8.166,0,0,0,.066,1.265c.108.576.462.726.7.726C56.705,36.468,57.047,36.288,57.137,35.718Z" transform="translate(-0.751 -1.007)"/><line class="cls-7" x1="44.063" y1="37.349" x2="60.295" y2="37.349"/><polygon class="cls-8" points="58.959 39.258 59.772 37.349 58.959 35.438 63.489 37.349 58.959 39.258"/><line class="cls-7" x1="78.711" y1="45.399" x2="78.71" y2="61.628"/><polygon class="cls-8" points="76.801 60.292 78.71 61.106 80.622 60.292 78.71 64.822 76.801 60.292"/><path class="cls-6" d="M65.22,57.605c0,.221.018.287.557.287h.193v.186c-.21-.018-.732-.018-.972-.018s-.762,0-.972.018v-.186h.193c.54,0,.557-.072.557-.287V54.5a1.793,1.793,0,0,1-.785.156v-.186a1.484,1.484,0,0,0,1.091-.383c.138,0,.138.011.138.155Z" transform="translate(-0.751 -1.007)"/><path class="cls-6" d="M67.842,58.21a1.1,1.1,0,0,1-1.085-1.1.3.3,0,1,1,.294.269.277.277,0,0,1-.1-.011.934.934,0,0,0,.881.671.748.748,0,0,0,.641-.39,1.73,1.73,0,0,0,.145-.821,1.863,1.863,0,0,0-.108-.756.588.588,0,0,0-.51-.384.9.9,0,0,0-.774.42c-.024.036-.036.054-.078.054-.084,0-.084-.048-.084-.156V54.234c0-.1,0-.144.061-.144a.176.176,0,0,1,.071.018,1.948,1.948,0,0,0,.8.168,2,2,0,0,0,.815-.173.09.09,0,0,1,.048-.018.058.058,0,0,1,.061.065,1.308,1.308,0,0,1-1.157.624,1.888,1.888,0,0,1-.51-.078v1.169a1.052,1.052,0,0,1,.761-.3,1.23,1.23,0,0,1,1.139,1.313A1.324,1.324,0,0,1,67.842,58.21Z" transform="translate(-0.751 -1.007)"/><path class="cls-6" d="M70.291,58.078a.318.318,0,1,1,.317-.318A.32.32,0,0,1,70.291,58.078Z" transform="translate(-0.751 -1.007)"/><path class="cls-6" d="M73.164,55.565a2.64,2.64,0,0,0-.372,1.026,6.718,6.718,0,0,0-.066.983v.306c0,.06,0,.33-.276.33s-.275-.27-.275-.33a4.184,4.184,0,0,1,.737-2.254c.132-.2.6-.852.672-.948H72.343a3.03,3.03,0,0,0-.588.036,1.7,1.7,0,0,0-.151.546h-.149l.2-1.236h.15c.024.114.036.192.767.192h1.457c0,.126,0,.138-.054.21Z" transform="translate(-0.751 -1.007)"/><path class="cls-6" d="M76.655,57.515a1.121,1.121,0,0,1-2.032.09,3.043,3.043,0,0,1-.271-1.446,3.207,3.207,0,0,1,.223-1.361,1.1,1.1,0,0,1,1.043-.713,1.111,1.111,0,0,1,1.02.671,4.227,4.227,0,0,1,.017,2.759Zm-.342-.186a11.483,11.483,0,0,0,.007-2.411c-.114-.594-.51-.7-.708-.7-.149,0-.6.054-.714.768a12.311,12.311,0,0,0,.019,2.369c.107.575.462.725.695.725C75.882,58.078,76.223,57.9,76.313,57.329Z" transform="translate(-0.751 -1.007)"/><line class="cls-7" x1="93.613" y1="64.822" x2="93.612" y2="48.592"/><polygon class="cls-8" points="91.703 49.928 93.612 49.115 95.523 49.928 93.612 45.399 91.703 49.928"/><path class="cls-6" d="M98.176,57.575c0,.221.019.287.558.287h.192v.186c-.21-.018-.731-.018-.972-.018s-.761,0-.971.018v-.186h.192c.54,0,.558-.072.558-.287V54.468a1.8,1.8,0,0,1-.786.156v-.186a1.48,1.48,0,0,0,1.091-.384c.138,0,.138.012.138.156Z" transform="translate(-0.751 -1.007)"/><path class="cls-6" d="M102.153,57.023a1.222,1.222,0,0,1-1.277,1.157,1.094,1.094,0,0,1-1.211-.941.336.336,0,1,1,.672-.013.329.329,0,0,1-.4.33,1.092,1.092,0,0,0,.918.456c.263,0,.677-.174.677-.989,0-.588-.221-1-.714-1h-.263c-.1,0-.145,0-.145-.066s.042-.066.091-.072.186-.012.233-.018a.581.581,0,0,0,.535-.312,1.506,1.506,0,0,0,.168-.683c0-.54-.33-.672-.577-.672a.972.972,0,0,0-.8.372c.089,0,.372,0,.372.3a.306.306,0,1,1-.612-.006c0-.456.455-.816,1.062-.816.575,0,1.1.336,1.1.828a1.153,1.153,0,0,1-.838,1.055A1.156,1.156,0,0,1,102.153,57.023Z" transform="translate(-0.751 -1.007)"/><path class="cls-6" d="M103.247,58.048a.318.318,0,1,1,.318-.318A.319.319,0,0,1,103.247,58.048Z" transform="translate(-0.751 -1.007)"/><path class="cls-6" d="M105.916,57.586a1.952,1.952,0,0,0,.57-.048,1.956,1.956,0,0,0,.132-.533h.15l-.168,1.043h-2.225c0-.144,0-.156.067-.222l1.151-1.283a2.151,2.151,0,0,0,.629-1.325c0-.492-.258-.978-.8-.978a.862.862,0,0,0-.809.612.218.218,0,0,1,.077-.006.3.3,0,0,1,.318.312.315.315,0,1,1-.63-.018,1.108,1.108,0,0,1,1.121-1.086,1.179,1.179,0,0,1,1.272,1.164c0,.6-.36.923-1.3,1.751l-.636.617Z" transform="translate(-0.751 -1.007)"/><path class="cls-6" d="M109.611,57.485a1.121,1.121,0,0,1-2.032.09,3.042,3.042,0,0,1-.27-1.446,3.206,3.206,0,0,1,.222-1.361,1.1,1.1,0,0,1,1.043-.714,1.112,1.112,0,0,1,1.02.672,4.227,4.227,0,0,1,.017,2.759Zm-.341-.186a11.666,11.666,0,0,0,.007-2.411c-.115-.594-.51-.7-.708-.7-.15,0-.6.054-.714.768a8.04,8.04,0,0,0-.048,1.1,8.178,8.178,0,0,0,.066,1.266c.108.575.462.725.7.725C108.838,58.048,109.18,57.868,109.27,57.3Z" transform="translate(-0.751 -1.007)"/><line class="cls-7" x1="109.038" y1="37.349" x2="125.268" y2="37.349"/><polygon class="cls-8" points="123.932 39.258 124.746 37.349 123.932 35.438 128.461 37.349 123.932 39.258"/><path class="cls-6" d="M111.018,35.994c0,.222.019.288.558.288h.192v.186c-.21-.018-.731-.018-.972-.018s-.761,0-.971.018v-.186h.192c.54,0,.558-.072.558-.288V32.888a1.8,1.8,0,0,1-.785.156v-.186a1.48,1.48,0,0,0,1.09-.384c.138,0,.138.012.138.156Z" transform="translate(-0.751 -1.007)"/><path class="cls-6" d="M115,35.443a1.224,1.224,0,0,1-1.278,1.157,1.094,1.094,0,0,1-1.211-.942.336.336,0,1,1,.672-.012.329.329,0,0,1-.4.33,1.092,1.092,0,0,0,.918.456c.263,0,.678-.174.678-.989,0-.588-.222-1-.714-1H113.4c-.1,0-.145,0-.145-.066s.042-.066.091-.072.186-.012.234-.018a.582.582,0,0,0,.534-.312,1.508,1.508,0,0,0,.168-.683c0-.54-.33-.672-.576-.672a.972.972,0,0,0-.8.372c.09,0,.372,0,.372.3a.306.306,0,1,1-.611-.006c0-.456.455-.816,1.061-.816.575,0,1.1.336,1.1.828A1.154,1.154,0,0,1,114,34.357,1.157,1.157,0,0,1,115,35.443Z" transform="translate(-0.751 -1.007)"/><path class="cls-6" d="M116.089,36.468a.318.318,0,1,1,.318-.318A.32.32,0,0,1,116.089,36.468Z" transform="translate(-0.751 -1.007)"/><path class="cls-6" d="M118.758,36.006a1.962,1.962,0,0,0,.571-.048,2.042,2.042,0,0,0,.132-.534h.149l-.168,1.044h-2.225c0-.144,0-.156.067-.222l1.151-1.283a2.153,2.153,0,0,0,.629-1.326c0-.491-.258-.977-.8-.977a.863.863,0,0,0-.809.612.218.218,0,0,1,.077-.006.3.3,0,0,1,.318.311.315.315,0,1,1-.63-.017,1.108,1.108,0,0,1,1.121-1.086,1.178,1.178,0,0,1,1.272,1.163c0,.6-.359.924-1.3,1.751l-.636.618Z" transform="translate(-0.751 -1.007)"/><path class="cls-6" d="M122.454,35.9a1.121,1.121,0,0,1-2.033.09,3.036,3.036,0,0,1-.27-1.445,3.189,3.189,0,0,1,.223-1.361,1.1,1.1,0,0,1,1.043-.714,1.11,1.11,0,0,1,1.019.672,3.207,3.207,0,0,1,.24,1.4A3.192,3.192,0,0,1,122.454,35.9Zm-.342-.186a7.413,7.413,0,0,0,.066-1.241,7.488,7.488,0,0,0-.059-1.169c-.115-.594-.51-.7-.708-.7-.15,0-.6.054-.714.768a8.025,8.025,0,0,0-.048,1.1,8.166,8.166,0,0,0,.066,1.265c.108.576.462.726.7.726C121.68,36.468,122.022,36.288,122.112,35.718Z" transform="translate(-0.751 -1.007)"/><path class="cls-6" d="M136.36,20.354v-.186l1.84-2.813c.048-.072.067-.072.12-.072.1,0,.1.036.1.156v2.729h.6v.186h-.6v.521c0,.216.012.282.456.282H139v.186c-.246-.018-.563-.018-.815-.018s-.565,0-.81.018v-.186h.126c.444,0,.455-.066.455-.282v-.521Zm1.63-2.423-1.463,2.237h1.463Z" transform="translate(-0.751 -1.007)"/><path class="cls-6" d="M141.032,20.881a1.962,1.962,0,0,0,.571-.048,2.042,2.042,0,0,0,.132-.534h.149l-.168,1.044h-2.225c0-.144,0-.156.067-.222l1.151-1.283a2.153,2.153,0,0,0,.629-1.326c0-.491-.258-.977-.8-.977a.863.863,0,0,0-.809.612.218.218,0,0,1,.077-.006.3.3,0,0,1,.318.311.315.315,0,1,1-.63-.017,1.108,1.108,0,0,1,1.121-1.086,1.178,1.178,0,0,1,1.272,1.163c0,.6-.359.924-1.295,1.751l-.636.618Z" transform="translate(-0.751 -1.007)"/><path class="cls-6" d="M143.026,21.343a.318.318,0,1,1,.317-.318A.32.32,0,0,1,143.026,21.343Z" transform="translate(-0.751 -1.007)"/><path class="cls-6" d="M146.39,20.779a1.12,1.12,0,0,1-2.032.09,3.025,3.025,0,0,1-.271-1.445,3.189,3.189,0,0,1,.223-1.361,1.1,1.1,0,0,1,1.043-.714,1.11,1.11,0,0,1,1.019.672,3.207,3.207,0,0,1,.24,1.4A3.192,3.192,0,0,1,146.39,20.779Zm-.342-.186a7.413,7.413,0,0,0,.066-1.241,7.488,7.488,0,0,0-.059-1.169c-.114-.594-.51-.7-.708-.7-.15,0-.6.054-.714.768a8.025,8.025,0,0,0-.048,1.1,8.045,8.045,0,0,0,.067,1.265c.107.576.461.726.7.726C145.616,21.343,145.958,21.163,146.048,20.593Z" transform="translate(-0.751 -1.007)"/><path class="cls-6" d="M149.39,20.779a1.12,1.12,0,0,1-2.032.09,3.025,3.025,0,0,1-.271-1.445,3.189,3.189,0,0,1,.223-1.361,1.1,1.1,0,0,1,1.043-.714,1.11,1.11,0,0,1,1.019.672,3.207,3.207,0,0,1,.24,1.4A3.192,3.192,0,0,1,149.39,20.779Zm-.342-.186a7.413,7.413,0,0,0,.066-1.241,7.488,7.488,0,0,0-.059-1.169c-.114-.594-.51-.7-.708-.7-.15,0-.6.054-.714.768a8.025,8.025,0,0,0-.048,1.1,8.045,8.045,0,0,0,.067,1.265c.107.576.461.726.7.726C148.616,21.343,148.958,21.163,149.048,20.593Z" transform="translate(-0.751 -1.007)"/><line class="cls-7" x1="135.608" y1="22.382" x2="151.755" y2="22.382"/><polygon class="cls-8" points="150.419 24.292 151.232 22.382 150.419 20.471 154.948 22.381 150.419 24.292"/><path class="cls-6" d="M188.856,20.354v-.186l1.841-2.813c.048-.072.066-.072.12-.072.1,0,.1.036.1.156v2.729h.6v.186h-.6v.521c0,.216.012.282.456.282h.126v.186c-.246-.018-.564-.018-.816-.018s-.564,0-.809.018v-.186H190c.443,0,.455-.066.455-.282v-.521Zm1.631-2.423-1.463,2.237h1.463Z" transform="translate(-0.751 -1.007)"/><path class="cls-6" d="M193.529,20.881a1.955,1.955,0,0,0,.57-.048,1.965,1.965,0,0,0,.132-.534h.15l-.168,1.044h-2.225c0-.144,0-.156.066-.222l1.152-1.283a2.153,2.153,0,0,0,.629-1.326c0-.491-.258-.977-.8-.977a.864.864,0,0,0-.81.612.228.228,0,0,1,.078-.006.3.3,0,0,1,.318.311.315.315,0,1,1-.63-.017,1.108,1.108,0,0,1,1.121-1.086,1.178,1.178,0,0,1,1.272,1.163c0,.6-.36.924-1.295,1.751l-.636.618Z" transform="translate(-0.751 -1.007)"/><path class="cls-6" d="M195.522,21.343a.318.318,0,1,1,.318-.318A.319.319,0,0,1,195.522,21.343Z" transform="translate(-0.751 -1.007)"/><path class="cls-6" d="M198.887,20.779a1.121,1.121,0,0,1-2.033.09,3.036,3.036,0,0,1-.27-1.445,3.2,3.2,0,0,1,.222-1.361,1.1,1.1,0,0,1,1.043-.714,1.112,1.112,0,0,1,1.02.672,3.207,3.207,0,0,1,.24,1.4A3.192,3.192,0,0,1,198.887,20.779Zm-.342-.186a7.413,7.413,0,0,0,.066-1.241,7.488,7.488,0,0,0-.059-1.169c-.115-.594-.51-.7-.708-.7-.15,0-.6.054-.714.768a8.025,8.025,0,0,0-.048,1.1,8.166,8.166,0,0,0,.066,1.265c.108.576.462.726.7.726C198.113,21.343,198.455,21.163,198.545,20.593Z" transform="translate(-0.751 -1.007)"/><path class="cls-6" d="M201.887,20.779a1.121,1.121,0,0,1-2.033.09,3.036,3.036,0,0,1-.27-1.445,3.2,3.2,0,0,1,.222-1.361,1.1,1.1,0,0,1,1.043-.714,1.112,1.112,0,0,1,1.02.672,3.207,3.207,0,0,1,.24,1.4A3.192,3.192,0,0,1,201.887,20.779Zm-.342-.186a7.413,7.413,0,0,0,.066-1.241,7.488,7.488,0,0,0-.059-1.169c-.115-.594-.51-.7-.708-.7-.15,0-.6.054-.714.768a8.025,8.025,0,0,0-.048,1.1,8.166,8.166,0,0,0,.066,1.265c.108.576.462.726.7.726C201.113,21.343,201.455,21.163,201.545,20.593Z" transform="translate(-0.751 -1.007)"/><line class="cls-7" x1="188.105" y1="22.382" x2="204.276" y2="22.382"/><polygon class="cls-8" points="202.94 24.292 203.754 22.382 202.94 20.471 207.47 22.381 202.94 24.292"/><line class="cls-1" x1="184.193" y1="22.381" x2="187.705" y2="22.381"/><circle class="cls-4" cx="10.776" cy="30.872" r="9.524" transform="translate(-5.571 1.125) rotate(-9.245)"/><path class="cls-9" d="M15.584,29.82s-1.5,1.987-2.266,2.1c-.931.142-2.546-1.058-2.546-1.058S8.427,29.681,7.935,29.82c-.712.2-2.084,2.1-2.084,2.1" transform="translate(-0.751 -1.007)"/><polyline class="cls-2" points="19.784 30.023 21.854 30.023 37.676 30.023 39.627 30.023"/><circle class="cls-4" cx="49.839" cy="83.353" r="9.524" transform="translate(-39.742 121.602) rotate(-82.966)"/><path class="cls-9" d="M54.764,82.3s-1.5,1.987-2.267,2.1c-.93.142-2.546-1.058-2.546-1.058s-2.345-1.184-2.837-1.045c-.712.2-2.084,2.1-2.084,2.1" transform="translate(-0.751 -1.007)"/><polyline class="cls-4" points="58.869 82.528 60.884 82.528 76.288 82.528 78.711 82.528 78.711 67.561 78.711 65.222"/><polyline class="cls-4" points="108.978 82.527 107.274 82.527 95.002 82.528 93.614 82.528 93.614 67.561 93.613 65.222"/><polygon class="cls-6" points="106.873 79.749 108.052 82.527 106.871 85.304 113.456 82.528 106.873 79.749"/><polyline class="cls-1" points="132.606 37.349 134.69 37.349 150.609 37.348 152.448 37.348"/><polyline class="cls-4" points="227.232 22.381 225.494 22.381 213.255 22.381 211.867 22.381"/><polygon class="cls-6" points="225.126 19.604 226.306 22.381 225.126 25.158 231.71 22.381 225.126 19.604"/><line class="cls-3" x1="211.05" y1="7.414" x2="211.05" y2="37.348"/><circle class="cls-10" cx="167.744" cy="22.381" r="8.504"/><circle class="cls-1" cx="175.321" cy="22.381" r="8.504"/><path d="M207.516,4.594a1.467,1.467,0,0,1-1.6,1.313H203.1V5.684h.172c.552,0,.567-.078.567-.337V1.567c0-.258-.015-.338-.567-.338H203.1V1.007h2.625a1.441,1.441,0,0,1,1.593,1.212c0,.531-.5.99-1.191,1.127A1.409,1.409,0,0,1,207.516,4.594Zm-2.038-1.313a1.082,1.082,0,0,0,1.148-1.062.954.954,0,0,0-.947-.99h-.889c-.338,0-.352.051-.352.287V3.281Zm1.32,1.306a1.075,1.075,0,0,0-1.011-1.148h-1.349V5.4c0,.237.014.287.352.287h.9A1.084,1.084,0,0,0,206.8,4.587Z" transform="translate(-0.751 -1.007)"/><path d="M209.8,5.986c-1.09,0-1.09-.653-1.09-1.212V3.7c0-.638,0-.659-.559-.659V2.815l1.054-.079V5.118c0,.373.028.71.631.71.524,0,.868-.488.868-1.112V3.439c0-.351-.057-.4-.559-.4V2.815l1.054-.079V5.283c0,.351.058.4.56.4v.223l-1.033.079V5.34A.979.979,0,0,1,209.8,5.986Z" transform="translate(-0.751 -1.007)"/><path d="M212.45,4.185a.761.761,0,0,1-.308-.609c0-.4.272-.883,1.147-.883a1.106,1.106,0,0,1,.675.2,1.019,1.019,0,0,0,.122-.115c.093-.086.107-.086.143-.086.079,0,.079.05.079.172V3.59c0,.136,0,.172-.093.172a.076.076,0,0,1-.086-.065.791.791,0,0,0-.84-.867c-.617,0-.8.293-.8.545,0,.416.48.509.882.588a1.466,1.466,0,0,1,.818.344.928.928,0,0,1,.3.682c0,.516-.33,1-1.154,1a1.072,1.072,0,0,1-.79-.309,1.67,1.67,0,0,0-.143.165c-.137.137-.144.144-.18.144-.078,0-.078-.05-.078-.172V4.867c0-.129,0-.18.093-.18.072,0,.079.029.1.123.136.609.395,1.018,1,1.018.559,0,.81-.287.81-.653,0-.517-.588-.631-.746-.66A1.871,1.871,0,0,1,212.45,4.185Z" transform="translate(-0.751 -1.007)"/><path d="M217.32,4.723V4.5l2.2-3.365c.057-.086.079-.086.143-.086.115,0,.115.043.115.187V4.5h.717v.222h-.717v.624c0,.259.015.337.546.337h.15v.223c-.294-.022-.674-.022-.976-.022s-.674,0-.968.022V5.684h.151c.53,0,.544-.078.544-.337V4.723Zm1.952-2.9L217.521,4.5h1.751Z" transform="translate(-0.751 -1.007)"/></svg>