<svg xmlns="http://www.w3.org/2000/svg" xmlns:xlink="http://www.w3.org/1999/xlink" viewBox="0 0 195.064 174.128"><defs><style>.cls-1{isolation:isolate;}.cls-2{fill:url(#New_Gradient_Swatch_copy);}.cls-3{fill:#fff;}.cls-4{fill:url(#linear-gradient);}.cls-10,.cls-5,.cls-6,.cls-8{mix-blend-mode:multiply;}.cls-5{fill:url(#linear-gradient-2);}.cls-6{fill:url(#linear-gradient-3);}.cls-11,.cls-12,.cls-7{opacity:0.7;mix-blend-mode:overlay;}.cls-7{fill:url(#radial-gradient);}.cls-8{fill:url(#linear-gradient-4);}.cls-9{fill:url(#linear-gradient-5);}.cls-10{fill:url(#linear-gradient-6);}.cls-11{fill:url(#radial-gradient-2);}.cls-12{fill:url(#radial-gradient-3);}</style><linearGradient id="New_Gradient_Swatch_copy" x1="97.532" y1="-18.638" x2="97.532" y2="172.387" gradientUnits="userSpaceOnUse"><stop offset="0" stop-color="#4f5668"/><stop offset="1" stop-color="#181d28"/></linearGradient><linearGradient id="linear-gradient" x1="32.693" y1="69.608" x2="162.158" y2="69.157" gradientUnits="userSpaceOnUse"><stop offset="0" stop-color="#9fb1ec"/><stop offset="0.19" stop-color="#4f619c"/><stop offset="1" stop-color="#7b5b89"/></linearGradient><linearGradient id="linear-gradient-2" x1="107.136" y1="91.945" x2="118.937" y2="101.951" gradientUnits="userSpaceOnUse"><stop offset="0" stop-color="#4e5776"/><stop offset="0.996" stop-color="#fff" stop-opacity="0"/></linearGradient><linearGradient id="linear-gradient-3" x1="85.718" y1="56.713" x2="68.246" y2="43.123" gradientUnits="userSpaceOnUse"><stop offset="0" stop-color="#4e5776"/><stop offset="1" stop-color="#fff" stop-opacity="0"/></linearGradient><radialGradient id="radial-gradient" cx="57.159" cy="9.756" r="56.43" gradientUnits="userSpaceOnUse"><stop offset="0" stop-color="#fff"/><stop offset="0.996" stop-color="#fff" stop-opacity="0"/></radialGradient><linearGradient id="linear-gradient-4" x1="96.233" y1="120.586" x2="97.614" y2="60.293" xlink:href="#linear-gradient-2"/><linearGradient id="linear-gradient-5" x1="30.257" y1="68.742" x2="162.876" y2="70.095" gradientUnits="userSpaceOnUse"><stop offset="0" stop-color="#964e49"/><stop offset="0.178" stop-color="#976355"/><stop offset="0.543" stop-color="#999a75"/><stop offset="0.844" stop-color="#9bcc92"/></linearGradient><linearGradient id="linear-gradient-6" x1="97.524" y1="55.182" x2="97.342" y2="115.485" gradientUnits="userSpaceOnUse"><stop offset="0.004" stop-color="#fff" stop-opacity="0"/><stop offset="1" stop-color="#af2941"/></linearGradient><radialGradient id="radial-gradient-2" cx="79.755" cy="16.119" r="80.254" xlink:href="#radial-gradient"/><radialGradient id="radial-gradient-3" cx="106.448" cy="26.728" r="43.106" gradientTransform="translate(-0.165 37.274) rotate(-12.135) scale(1 0.453)" xlink:href="#radial-gradient"/></defs><g class="cls-1"><g id="BACKGROUND"><rect class="cls-2" width="195.064" height="174.128" rx="6"/></g><g id="TEXTS"><path class="cls-3" d="M43.054,142.233c0,.923-.669,1.483-1.773,1.483H40.23V145h-.608v-4.251h1.659C42.385,140.752,43.054,141.31,43.054,142.233Zm-.607,0c0-.607-.408-.953-1.185-.953H40.23v1.907h1.032C42.039,143.187,42.447,142.841,42.447,142.233Z"/><path class="cls-3" d="M45.369,143.393a1.673,1.673,0,1,1,1.676,1.646A1.6,1.6,0,0,1,45.369,143.393Zm2.756,0a1.085,1.085,0,1,0-2.168,0,1.085,1.085,0,1,0,2.168,0Z"/><path class="cls-3" d="M56.119,141.784,54.917,145h-.558l-.93-2.442L52.489,145h-.56l-1.2-3.219h.553l.935,2.563.972-2.563h.492l.953,2.575.96-2.575Z"/><path class="cls-3" d="M61.33,143.588H58.719a1.09,1.09,0,0,0,1.166.941,1.208,1.208,0,0,0,.93-.388l.321.377a1.755,1.755,0,0,1-3-1.125,1.576,1.576,0,0,1,1.615-1.639,1.552,1.552,0,0,1,1.592,1.658C61.343,143.46,61.336,143.533,61.33,143.588Zm-2.611-.419h2.066a1.04,1.04,0,0,0-2.066,0Z"/><path class="cls-3" d="M65.7,141.754v.564a1.047,1.047,0,0,0-.134-.006.961.961,0,0,0-1.014,1.087V145h-.583v-3.219h.559v.541A1.227,1.227,0,0,1,65.7,141.754Z"/><path class="cls-3" d="M71.426,144.518l.225-.475a2.183,2.183,0,0,0,1.4.492c.734,0,1.05-.285,1.05-.655,0-1.039-2.574-.383-2.574-1.962,0-.656.509-1.215,1.627-1.215a2.5,2.5,0,0,1,1.367.377l-.2.485a2.2,2.2,0,0,0-1.166-.345c-.723,0-1.033.3-1.033.673,0,1.039,2.576.389,2.576,1.95,0,.65-.523,1.209-1.646,1.209A2.528,2.528,0,0,1,71.426,144.518Z"/><path class="cls-3" d="M80.106,141.784l-1.561,3.541c-.285.68-.655.893-1.147.893a1.209,1.209,0,0,1-.826-.3l.249-.438a.819.819,0,0,0,.577.238c.279,0,.455-.128.613-.5l.1-.225-1.421-3.213H77.3l1.124,2.575,1.112-2.575Z"/><path class="cls-3" d="M82.021,144.663l.244-.462a2.074,2.074,0,0,0,1.129.334c.541,0,.766-.164.766-.437,0-.723-2.035-.1-2.035-1.378,0-.577.517-.966,1.342-.966a2.349,2.349,0,0,1,1.173.291l-.25.462a1.673,1.673,0,0,0-.929-.255c-.51,0-.758.188-.758.443,0,.759,2.039.14,2.039,1.391,0,.583-.533.953-1.391.953A2.333,2.333,0,0,1,82.021,144.663Z"/><path class="cls-3" d="M89.1,144.814a1.091,1.091,0,0,1-.7.225.917.917,0,0,1-1.019-1.008v-1.767h-.547v-.48h.547v-.7h.582v.7h.924v.48h-.924v1.743a.475.475,0,0,0,.5.541.738.738,0,0,0,.457-.153Z"/><path class="cls-3" d="M94.41,143.588H91.8a1.089,1.089,0,0,0,1.166.941,1.206,1.206,0,0,0,.929-.388l.321.377a1.755,1.755,0,0,1-3-1.125,1.576,1.576,0,0,1,1.615-1.639,1.552,1.552,0,0,1,1.592,1.658C94.422,143.46,94.416,143.533,94.41,143.588Zm-2.611-.419h2.064a1.038,1.038,0,0,0-2.064,0Z"/><path class="cls-3" d="M102.39,143.15V145h-.582v-1.785c0-.632-.3-.942-.832-.942-.584,0-.964.37-.964,1.069V145h-.584v-1.785c0-.632-.3-.942-.832-.942a.934.934,0,0,0-.965,1.069V145h-.584v-3.219h.558v.48a1.307,1.307,0,0,1,1.112-.51,1.188,1.188,0,0,1,1.117.595,1.452,1.452,0,0,1,1.24-.595A1.233,1.233,0,0,1,102.39,143.15Z"/><path class="cls-3" d="M104.875,144.663l.242-.462a2.073,2.073,0,0,0,1.131.334c.539,0,.764-.164.764-.437,0-.723-2.034-.1-2.034-1.378,0-.577.516-.966,1.342-.966a2.345,2.345,0,0,1,1.172.291l-.248.462a1.682,1.682,0,0,0-.93-.255c-.509,0-.759.188-.759.443,0,.759,2.041.14,2.041,1.391,0,.583-.536.953-1.391.953A2.325,2.325,0,0,1,104.875,144.663Z"/><path class="cls-3" d="M116.39,143.94h-2.259L113.662,145h-.625l1.926-4.251h.6l1.93,4.251h-.637Zm-.212-.486-.918-2.083-.916,2.083Z"/><path class="cls-3" d="M122.912,143.15V145h-.582v-1.785c0-.632-.316-.942-.869-.942a.956.956,0,0,0-1.02,1.069V145h-.584v-3.219h.559v.486a1.381,1.381,0,0,1,1.16-.516A1.247,1.247,0,0,1,122.912,143.15Z"/><path class="cls-3" d="M128.361,143.06V145h-.553v-.425a1.193,1.193,0,0,1-1.056.461c-.729,0-1.19-.389-1.19-.947,0-.516.334-.942,1.293-.942h.924v-.115c0-.492-.287-.777-.863-.777a1.627,1.627,0,0,0-1.02.346l-.244-.437a2.141,2.141,0,0,1,1.33-.413C127.863,141.754,128.361,142.179,128.361,143.06Zm-.582.959v-.45h-.9c-.576,0-.74.225-.74.5,0,.323.267.523.71.523A.933.933,0,0,0,127.779,144.019Z"/><path class="cls-3" d="M131.262,140.5h.582V145h-.582Z"/><path class="cls-3" d="M137.621,141.784l-1.561,3.541c-.285.68-.654.893-1.146.893a1.206,1.206,0,0,1-.826-.3l.248-.438a.822.822,0,0,0,.578.238c.279,0,.455-.128.613-.5l.1-.225-1.422-3.213h.607l1.123,2.575,1.112-2.575Z"/><path class="cls-3" d="M139.537,144.663l.244-.462a2.074,2.074,0,0,0,1.129.334c.541,0,.766-.164.766-.437,0-.723-2.036-.1-2.036-1.378,0-.577.518-.966,1.342-.966a2.353,2.353,0,0,1,1.174.291l-.25.462a1.674,1.674,0,0,0-.93-.255c-.509,0-.757.188-.757.443,0,.759,2.039.14,2.039,1.391,0,.583-.534.953-1.391.953A2.333,2.333,0,0,1,139.537,144.663Z"/><path class="cls-3" d="M144.7,140.788a.385.385,0,0,1,.4-.383.38.38,0,1,1-.4.383Zm.1,1h.584V145h-.584Z"/><path class="cls-3" d="M147.912,144.663l.242-.462a2.075,2.075,0,0,0,1.131.334c.539,0,.764-.164.764-.437,0-.723-2.034-.1-2.034-1.378,0-.577.516-.966,1.342-.966a2.345,2.345,0,0,1,1.172.291l-.248.462a1.682,1.682,0,0,0-.93-.255c-.509,0-.759.188-.759.443,0,.759,2.041.14,2.041,1.391,0,.583-.535.953-1.391.953A2.328,2.328,0,0,1,147.912,144.663Z"/><path class="cls-4" d="M131.156,58.7V75.908h13.3v9.345a7.559,7.559,0,0,1-.595,2.713,8.781,8.781,0,0,1-1.853,2.847,10.8,10.8,0,0,1-3.177,2.249,10.075,10.075,0,0,1-4.435.927H118.251a10.1,10.1,0,0,1-8.472-4.5q-3.309-4.5-3.309-11.781V65.463h-.007v-4.84a44.8,44.8,0,0,0-1.655-12.045,30.552,30.552,0,0,0-5.228-10.59A26.772,26.772,0,0,0,77.474,27.531H31.014V44.739H72.105c7.7,0,15.165,2.963,15.165,14.94V71.044h.007v9.841A33.868,33.868,0,0,0,89,91.276a32.309,32.309,0,0,0,5.1,9.794,28.674,28.674,0,0,0,8.273,7.347,21.579,21.579,0,0,0,11.251,2.912H136.65a26.507,26.507,0,0,0,13.038-2.912,27.562,27.562,0,0,0,8.406-6.949A26.483,26.483,0,0,0,162.66,93a25.832,25.832,0,0,0,1.39-7.479V61.342a2.642,2.642,0,0,0-2.643-2.642Z"/><path class="cls-5" d="M131.977,93.989H118.251a10.1,10.1,0,0,1-8.472-4.5q-3.309-4.5-3.309-11.781V70.317H87.27v.727h.007v9.841A33.868,33.868,0,0,0,89,91.276a32.309,32.309,0,0,0,5.1,9.794,28.674,28.674,0,0,0,8.273,7.347,21.579,21.579,0,0,0,11.251,2.912h18.359Z"/><path class="cls-6" d="M87.27,59.679V69.705h19.2V65.463h-.007v-4.84a44.8,44.8,0,0,0-1.655-12.045,30.552,30.552,0,0,0-5.228-10.59A26.772,26.772,0,0,0,77.474,27.531H31.014V44.739H72.105C79.8,44.739,87.27,47.7,87.27,59.679Z"/><path class="cls-7" d="M66.265,30.173c15.777,0,19.748.877,23.01,2.605A25.119,25.119,0,0,1,97.488,39.6a28.084,28.084,0,0,1,4.774,9.684,42.376,42.376,0,0,1,1.559,11.337v7.483h.007v9.6c0,5.408,1.286,9.9,3.823,13.347a12.65,12.65,0,0,0,10.6,5.575H134.4a12.74,12.74,0,0,0,5.583-1.189,13.458,13.458,0,0,0,3.942-2.808,11.418,11.418,0,0,0,2.4-3.708,10.154,10.154,0,0,0,.777-3.673V73.265H131.156v2.642h13.3v9.346a7.559,7.559,0,0,1-.595,2.713,8.781,8.781,0,0,1-1.853,2.847,10.813,10.813,0,0,1-3.177,2.249,10.075,10.075,0,0,1-4.435.927H118.251a10.1,10.1,0,0,1-8.472-4.5q-3.309-4.5-3.309-11.781V65.463h-.007v-4.84a44.8,44.8,0,0,0-1.655-12.045,30.543,30.543,0,0,0-5.228-10.59A26.772,26.772,0,0,0,77.474,27.531H31.014v2.642Z"/><path class="cls-8" d="M131.156,58.7v2.642h30.252V85.518a23.469,23.469,0,0,1-1.27,6.689,23.99,23.99,0,0,1-4.121,7.627,25.092,25.092,0,0,1-7.615,6.275,24.058,24.058,0,0,1-11.752,2.578H113.618a19.092,19.092,0,0,1-9.9-2.54,26.2,26.2,0,0,1-7.52-6.675,29.854,29.854,0,0,1-4.682-9,31.421,31.421,0,0,1-1.595-9.585V68.4h-.007V59.679c0-11.339-6.325-17.583-17.808-17.583H31.014v2.643H72.105c7.7,0,15.165,2.963,15.165,14.94V71.044h.007v9.841A33.868,33.868,0,0,0,89,91.276a32.309,32.309,0,0,0,5.1,9.794,28.674,28.674,0,0,0,8.273,7.347,21.579,21.579,0,0,0,11.251,2.912H136.65a26.507,26.507,0,0,0,13.038-2.912,27.562,27.562,0,0,0,8.406-6.949A26.483,26.483,0,0,0,162.66,93a25.832,25.832,0,0,0,1.39-7.479V61.342a2.642,2.642,0,0,0-2.643-2.642Z"/><path class="cls-9" d="M164.052,27.529V44.74H119.289c-5.962,0-12.818,3.051-12.818,13.316V72.17h-.006v9.112a35.711,35.711,0,0,1-1.654,10.525,28.525,28.525,0,0,1-5.233,9.726,27.051,27.051,0,0,1-9,7.083,28.75,28.75,0,0,1-12.972,2.712h-46.6V61.239A2.642,2.642,0,0,1,33.654,58.6H50.206V94.122H71.635c12.3,0,15.637-6.063,15.637-14.658v-14h0V54.4A24.437,24.437,0,0,1,89.2,45.269a29.235,29.235,0,0,1,1.258-2.743,32.372,32.372,0,0,1,3.97-6,28.332,28.332,0,0,1,8.621-7,17.779,17.779,0,0,1,8.294-2Z"/><path class="cls-10" d="M119.289,42.1c-7.474,0-15.461,4.193-15.461,15.958V69.527l-.007,2.642v9.113a33.1,33.1,0,0,1-1.537,9.743,26.048,26.048,0,0,1-4.749,8.835,24.6,24.6,0,0,1-8.138,6.393,26.26,26.26,0,0,1-11.79,2.434H33.656V57.794h0a2.643,2.643,0,0,0-2.642,2.643v50.892H77.607a28.708,28.708,0,0,0,12.972-2.713,27.11,27.11,0,0,0,9-7.082,28.525,28.525,0,0,0,5.228-9.729,35.569,35.569,0,0,0,1.655-10.523V72.169h.007V58.054c0-10.263,6.858-13.315,12.819-13.315H164.05V42.1Z"/><path class="cls-11" d="M47.564,58.594v38.17H71.635c12.3,0,18.278-5.659,18.278-17.3V68.106l.007-2.643V54.4a21.9,21.9,0,0,1,1.727-8.146,30.029,30.029,0,0,1,4.807-8.032,25.774,25.774,0,0,1,7.821-6.359,15.2,15.2,0,0,1,7.063-1.692H164.05V27.531H111.338a17.8,17.8,0,0,0-8.294,2,28.272,28.272,0,0,0-8.62,7A32.536,32.536,0,0,0,89.2,45.268,24.414,24.414,0,0,0,87.277,54.4V65.463H87.27v14c0,8.6-3.333,14.658-15.634,14.658H50.207V58.594Z"/><path class="cls-12" d="M127.842,27.529c-4.345,4.081-11.782,8.283-20.7,11.328a70.838,70.838,0,0,1-16.683,3.669,32.372,32.372,0,0,1,3.97-6,28.332,28.332,0,0,1,8.621-7,17.779,17.779,0,0,1,8.294-2Z"/><path class="cls-3" d="M33.153,134.237l2.161-2.56a3.088,3.088,0,0,0,2.42,1.46c1.14,0,1.76-.7,1.76-2.04v-6.022h-4.84v-3.06h8.761v8.841c0,3.641-1.88,5.442-5.4,5.442A6.065,6.065,0,0,1,33.153,134.237Z"/><path class="cls-3" d="M47.473,129.776v-7.761h3.961v7.641c0,2.4,1,3.361,2.66,3.361,1.641,0,2.641-.96,2.641-3.361v-7.641h3.9v7.761c0,4.181-2.44,6.522-6.582,6.522S47.473,133.957,47.473,129.776Z"/><path class="cls-3" d="M64.813,122.015h3.961v10.862h6.681v3.141H64.813Z"/><path class="cls-3" d="M78.512,122.015h3.961v14H78.512Z"/><path class="cls-3" d="M96.174,133.3h-5.92l-1.1,2.721H85.111l6.182-14h3.9l6.2,14H97.275Zm-1.16-2.921-1.8-4.481-1.8,4.481Z"/><path class="cls-3" d="M113.193,128.716h3.5v5.8a10.452,10.452,0,0,1-5.883,1.78c-4.461,0-7.72-3.021-7.72-7.282s3.259-7.282,7.8-7.282a7.658,7.658,0,0,1,6.123,2.561l-2.521,2.28a4.372,4.372,0,0,0-3.4-1.559,4,4,0,0,0-.041,8,5.028,5.028,0,0,0,2.14-.46Z"/><path class="cls-3" d="M126.832,132.3h-2.16v3.721h-3.961v-14h6.4c3.82,0,6.221,1.98,6.221,5.18a4.646,4.646,0,0,1-2.74,4.421l3.019,4.4h-4.24Zm.041-7.161h-2.2v4.1h2.2c1.641,0,2.461-.76,2.461-2.041C129.334,125.9,128.514,125.136,126.873,125.136Z"/><path class="cls-3" d="M137.012,122.015h3.961v14h-3.961Z"/><path class="cls-3" d="M145.291,122.015h6.621c4.643,0,7.822,2.7,7.822,7s-3.179,7-7.822,7h-6.621Zm6.461,10.841a3.843,3.843,0,1,0,0-7.681h-2.5v7.681Z"/></g></g></svg>