<svg id="Layer_1" data-name="Layer 1" xmlns="http://www.w3.org/2000/svg" viewBox="0 0 230.96 114.576"><defs><style>.cls-1,.cls-4{fill:none;}.cls-1{stroke:#010101;stroke-width:1.9px;}.cls-1,.cls-3,.cls-4{stroke-miterlimit:10;}.cls-2{fill:#231f20;}.cls-3{fill:#fff;}.cls-3,.cls-4{stroke:#231f20;}</style></defs><path d="M147.143,75.209a1.467,1.467,0,0,1-1.6,1.312h-2.812V76.3h.172c.553,0,.567-.078.567-.336V72.181c0-.258-.014-.338-.567-.338h-.172v-.222h2.625a1.441,1.441,0,0,1,1.593,1.212c0,.531-.5.99-1.19,1.127A1.409,1.409,0,0,1,147.143,75.209ZM145.1,73.9a1.082,1.082,0,0,0,1.149-1.062.955.955,0,0,0-.948-.99h-.889c-.338,0-.352.051-.352.287V73.9Zm1.321,1.306a1.076,1.076,0,0,0-1.012-1.148h-1.349v1.959c0,.237.014.286.352.286h.9A1.084,1.084,0,0,0,146.426,75.2Z" transform="translate(-1.185 -1.625)"/><path d="M149.43,76.6c-1.09,0-1.09-.652-1.09-1.212V74.311c0-.638,0-.659-.559-.659v-.223l1.054-.079v2.382c0,.373.029.711.631.711.524,0,.868-.488.868-1.113V74.053c0-.351-.057-.4-.559-.4v-.223l1.054-.079V75.9c0,.352.058.4.56.4v.223l-1.033.079v-.645A.98.98,0,0,1,149.43,76.6Z" transform="translate(-1.185 -1.625)"/><path d="M152.077,74.8a.761.761,0,0,1-.308-.609c0-.4.273-.883,1.147-.883a1.1,1.1,0,0,1,.675.2.945.945,0,0,0,.122-.115c.093-.086.108-.086.143-.086.079,0,.079.05.079.173V74.2c0,.136,0,.172-.093.172a.077.077,0,0,1-.086-.065.791.791,0,0,0-.84-.867c-.616,0-.8.294-.8.545,0,.416.481.509.883.588a1.466,1.466,0,0,1,.818.344.934.934,0,0,1,.3.682c0,.516-.329,1-1.154,1a1.072,1.072,0,0,1-.79-.309,2.022,2.022,0,0,0-.143.166c-.136.136-.144.143-.179.143-.079,0-.079-.05-.079-.172v-.947c0-.129,0-.18.093-.18.072,0,.079.029.1.123.137.609.4,1.019,1,1.019.56,0,.811-.288.811-.654,0-.516-.589-.631-.747-.66A1.875,1.875,0,0,1,152.077,74.8Z" transform="translate(-1.185 -1.625)"/><path d="M156.947,75.337v-.222l2.2-3.364c.057-.087.079-.087.144-.087.114,0,.114.043.114.187v3.264h.718v.222h-.718v.625c0,.258.015.336.546.336h.15v.223c-.294-.021-.674-.021-.976-.021s-.674,0-.968.021V76.3h.151c.531,0,.545-.078.545-.336v-.625Zm1.952-2.9-1.751,2.676H158.9Z" transform="translate(-1.185 -1.625)"/><path d="M121.853,90.058a1.467,1.467,0,0,1-1.6,1.313h-2.812v-.223h.172c.552,0,.566-.078.566-.336V87.031c0-.258-.014-.338-.566-.338h-.172v-.222h2.625a1.441,1.441,0,0,1,1.593,1.212c0,.532-.5.99-1.191,1.127A1.409,1.409,0,0,1,121.853,90.058Zm-2.038-1.313a1.082,1.082,0,0,0,1.148-1.062.954.954,0,0,0-.947-.99h-.89c-.337,0-.351.051-.351.287v1.765Zm1.32,1.306a1.075,1.075,0,0,0-1.011-1.148h-1.349v1.958c0,.238.014.287.351.287h.9A1.084,1.084,0,0,0,121.135,90.051Z" transform="translate(-1.185 -1.625)"/><path d="M124.341,88.2a.489.489,0,0,1,.531.438.3.3,0,0,1-.309.315.3.3,0,0,1-.308-.308.311.311,0,0,1,.165-.28.186.186,0,0,0-.079-.007c-.545,0-.846.639-.846,1.349v1.105c0,.258.014.336.545.336h.15v.223c-.286-.022-.624-.022-.911-.022-.2,0-.538.015-.818.022v-.223c.481,0,.56,0,.56-.322V88.9c0-.351-.057-.4-.56-.4V88.28l1-.08v.79A1,1,0,0,1,124.341,88.2Z" transform="translate(-1.185 -1.625)"/><path d="M126.515,91.45c-.453,0-1.148-.179-1.148-.76a1.043,1.043,0,0,1,.717-.932,3.468,3.468,0,0,1,1.32-.259v-.266a.812.812,0,0,0-.76-.918,1,1,0,0,0-.775.33c.33.007.366.243.366.33a.33.33,0,1,1-.66-.007c0-.473.495-.811,1.083-.811a1.371,1.371,0,0,1,.983.4,1.061,1.061,0,0,1,.258.846v1.435c0,.036.029.359.266.359.079,0,.258-.044.258-.459v-.4h.179v.4a.608.608,0,0,1-.588.681.6.6,0,0,1-.56-.588A.992.992,0,0,1,126.515,91.45Zm-.6-.767a.618.618,0,0,0,.646.609.862.862,0,0,0,.839-.926v-.717C126.22,89.693,125.919,90.288,125.919,90.683Z" transform="translate(-1.185 -1.625)"/><path d="M128.882,88.5V88.28l1.011-.08v.753a1.132,1.132,0,0,1,1.062-.753.959.959,0,0,1,.753.265c.223.259.223.481.223,1.1v1.37c.007.215.186.215.559.215v.223c-.244-.007-.617-.022-.8-.022s-.56.015-.811.022v-.223c.481,0,.56,0,.56-.322V89.154c0-.409-.079-.8-.531-.8a1.048,1.048,0,0,0-.969,1.148v1.32c0,.322.079.322.56.322v.223c-.244-.007-.617-.022-.8-.022s-.559.015-.81.022v-.223c.48,0,.559,0,.559-.322V88.9C129.441,88.552,129.384,88.5,128.882,88.5Z" transform="translate(-1.185 -1.625)"/><path d="M134.484,91.271a.938.938,0,0,0,.94-.753c.014-.043.028-.072.093-.072.021,0,.093,0,.093.072a1.18,1.18,0,0,1-1.191.932,1.587,1.587,0,0,1-1.542-1.628,1.608,1.608,0,0,1,1.557-1.665c.552,0,1.1.28,1.1.768a.33.33,0,1,1-.66.007.324.324,0,0,1,.337-.33,1.169,1.169,0,0,0-.767-.265c-.38,0-.969.3-.969,1.47S134.1,91.271,134.484,91.271Z" transform="translate(-1.185 -1.625)"/><path d="M136.607,87.1c0-.351-.058-.4-.56-.4v-.222l1.033-.079V88.9a1.137,1.137,0,0,1,1.04-.7.961.961,0,0,1,.754.265c.222.259.222.481.222,1.1v1.37c.007.215.187.215.56.215v.223c-.244-.007-.617-.022-.8-.022s-.559.015-.81.022v-.223c.48,0,.559,0,.559-.322V89.154c0-.409-.079-.8-.531-.8a1.048,1.048,0,0,0-.968,1.148v1.32c0,.322.079.322.559.322v.223c-.243-.007-.617-.022-.8-.022s-.56.015-.811.022v-.223c.481,0,.56,0,.56-.322Z" transform="translate(-1.185 -1.625)"/><path d="M145.466,90.144a1.464,1.464,0,0,1-1.528,1.385,1.309,1.309,0,0,1-1.449-1.126.4.4,0,1,1,.8-.015.393.393,0,0,1-.473.395,1.3,1.3,0,0,0,1.1.545c.316,0,.811-.208.811-1.184,0-.7-.266-1.191-.854-1.191h-.315c-.122,0-.173,0-.173-.079s.051-.078.108-.085.222-.014.28-.021a.7.7,0,0,0,.638-.375,1.8,1.8,0,0,0,.2-.817c0-.645-.394-.8-.689-.8a1.162,1.162,0,0,0-.954.445c.108,0,.445,0,.445.358a.366.366,0,1,1-.732-.007c0-.545.546-.976,1.27-.976.689,0,1.32.4,1.32.99a1.382,1.382,0,0,1-1,1.263A1.384,1.384,0,0,1,145.466,90.144Z" transform="translate(-1.185 -1.625)"/><path d="M147.193,12.339a1.467,1.467,0,0,1-1.6,1.313h-2.812V13.43h.172c.553,0,.567-.079.567-.337V9.311c0-.257-.014-.336-.567-.336h-.172V8.752h2.625A1.441,1.441,0,0,1,147,9.965c0,.53-.5.99-1.191,1.126A1.408,1.408,0,0,1,147.193,12.339Zm-2.038-1.313A1.081,1.081,0,0,0,146.3,9.965a.953.953,0,0,0-.947-.99h-.889c-.337,0-.352.049-.352.286v1.765Zm1.321,1.306a1.075,1.075,0,0,0-1.012-1.148h-1.349v1.959c0,.237.015.287.352.287h.9A1.085,1.085,0,0,0,146.476,12.332Z" transform="translate(-1.185 -1.625)"/><path d="M149.48,13.731c-1.09,0-1.09-.652-1.09-1.212V11.443c0-.639,0-.661-.559-.661V10.56l1.054-.079v2.382c0,.373.029.711.631.711.524,0,.869-.488.869-1.113V11.184c0-.351-.058-.4-.56-.4V10.56l1.055-.079v2.547c0,.352.057.4.559.4v.222l-1.033.079v-.645A.98.98,0,0,1,149.48,13.731Z" transform="translate(-1.185 -1.625)"/><path d="M152.127,11.93a.766.766,0,0,1-.308-.609c0-.4.273-.883,1.147-.883a1.106,1.106,0,0,1,.675.2.884.884,0,0,0,.122-.115c.093-.086.108-.086.144-.086.078,0,.078.05.078.173v.724c0,.136,0,.172-.093.172-.014,0-.079,0-.086-.064a.792.792,0,0,0-.84-.869c-.616,0-.8.294-.8.546,0,.416.481.509.883.588a1.46,1.46,0,0,1,.817.344.925.925,0,0,1,.3.682c0,.516-.33,1-1.155,1a1.074,1.074,0,0,1-.79-.308,1.953,1.953,0,0,0-.143.165c-.136.136-.143.143-.179.143-.079,0-.079-.05-.079-.172v-.947c0-.13,0-.179.093-.179.072,0,.079.028.1.121.137.61.4,1.02,1,1.02.559,0,.811-.288.811-.653,0-.517-.589-.632-.747-.661A1.875,1.875,0,0,1,152.127,11.93Z" transform="translate(-1.185 -1.625)"/><path d="M160.076,12.426a1.464,1.464,0,0,1-1.529,1.384,1.309,1.309,0,0,1-1.449-1.126.4.4,0,1,1,.8-.015.393.393,0,0,1-.474.395,1.306,1.306,0,0,0,1.1.545c.316,0,.811-.208.811-1.183,0-.7-.266-1.192-.854-1.192h-.316c-.122,0-.172,0-.172-.078s.05-.08.107-.087.223-.014.28-.021a.7.7,0,0,0,.639-.373,1.8,1.8,0,0,0,.2-.818c0-.646-.394-.8-.688-.8a1.163,1.163,0,0,0-.954.444c.107,0,.444,0,.444.359a.366.366,0,1,1-.731-.007c0-.546.545-.976,1.27-.976.688,0,1.32.4,1.32.99a1.383,1.383,0,0,1-1,1.263A1.384,1.384,0,0,1,160.076,12.426Z" transform="translate(-1.185 -1.625)"/><path d="M5.6,43.836A1.467,1.467,0,0,1,4,45.148H1.185v-.222h.172c.552,0,.567-.079.567-.337V40.808c0-.258-.015-.337-.567-.337H1.185v-.222H3.81A1.44,1.44,0,0,1,5.4,41.461c0,.531-.495.99-1.191,1.127A1.407,1.407,0,0,1,5.6,43.836ZM3.559,42.523a1.082,1.082,0,0,0,1.148-1.062.953.953,0,0,0-.947-.99H2.871c-.337,0-.352.05-.352.287v1.765Zm1.32,1.306A1.075,1.075,0,0,0,3.868,42.68H2.519v1.959c0,.237.015.287.352.287h.9A1.083,1.083,0,0,0,4.879,43.829Z" transform="translate(-1.185 -1.625)"/><path d="M7.884,45.227c-1.09,0-1.09-.652-1.09-1.212V42.939c0-.638,0-.66-.559-.66v-.222l1.054-.08v2.382c0,.373.029.711.631.711.524,0,.869-.488.869-1.112V42.68c0-.351-.058-.4-.56-.4v-.222l1.055-.08v2.548c0,.351.057.4.559.4v.222l-1.033.079v-.645A.978.978,0,0,1,7.884,45.227Z" transform="translate(-1.185 -1.625)"/><path d="M10.531,43.426a.764.764,0,0,1-.308-.609c0-.4.272-.883,1.147-.883a1.106,1.106,0,0,1,.675.2.941.941,0,0,0,.122-.114c.093-.087.108-.087.144-.087.078,0,.078.051.078.173v.725c0,.135,0,.172-.093.172a.077.077,0,0,1-.086-.065.791.791,0,0,0-.84-.868c-.617,0-.8.294-.8.545,0,.416.481.509.882.588a1.461,1.461,0,0,1,.818.345.925.925,0,0,1,.3.681c0,.517-.33,1-1.155,1a1.074,1.074,0,0,1-.79-.308,1.67,1.67,0,0,0-.143.165c-.136.136-.143.143-.179.143-.079,0-.079-.05-.079-.171v-.948c0-.129,0-.179.093-.179.072,0,.079.029.1.122.137.609.395,1.019,1,1.019.559,0,.81-.287.81-.653,0-.517-.588-.631-.746-.66A1.884,1.884,0,0,1,10.531,43.426Z" transform="translate(-1.185 -1.625)"/><path d="M17.31,44.582c0,.265.022.344.667.344h.23v.222c-.251-.021-.875-.021-1.163-.021s-.911,0-1.162.021v-.222h.23c.645,0,.667-.086.667-.344V40.866a2.153,2.153,0,0,1-.94.186V40.83a1.773,1.773,0,0,0,1.306-.459c.165,0,.165.014.165.186Z" transform="translate(-1.185 -1.625)"/><line class="cls-1" x1="8.511" y1="45.921" x2="8.511" y2="75.855"/><path class="cls-2" d="M219.6,5.127a1.433,1.433,0,0,1-1.562,1.282H215.3V6.191h.168c.54,0,.554-.076.554-.329V2.171c0-.252-.014-.329-.554-.329H215.3V1.625h2.563a1.406,1.406,0,0,1,1.555,1.184c0,.518-.483.966-1.162,1.1A1.376,1.376,0,0,1,219.6,5.127Zm-1.99-1.282a1.056,1.056,0,0,0,1.121-1.036.931.931,0,0,0-.924-.967h-.869c-.329,0-.343.049-.343.281V3.845ZM218.9,5.12A1.049,1.049,0,0,0,217.915,4H216.6V5.912c0,.231.014.279.343.279h.876A1.058,1.058,0,0,0,218.9,5.12Z" transform="translate(-1.185 -1.625)"/><path class="cls-2" d="M221.834,6.486c-1.064,0-1.064-.638-1.064-1.184V4.251c0-.623,0-.644-.547-.644V3.39l1.03-.077V5.638c0,.364.028.694.616.694.511,0,.847-.477.847-1.086V4c0-.344-.055-.393-.545-.393V3.39l1.029-.077V5.8c0,.344.056.392.546.392v.218l-1.009.077V5.855A.954.954,0,0,1,221.834,6.486Z" transform="translate(-1.185 -1.625)"/><path class="cls-2" d="M224.416,4.728a.748.748,0,0,1-.3-.6c0-.392.266-.861,1.12-.861a1.079,1.079,0,0,1,.659.2.9.9,0,0,0,.119-.112c.091-.084.1-.084.14-.084.077,0,.077.049.077.168v.708c0,.133,0,.167-.091.167a.075.075,0,0,1-.084-.063.773.773,0,0,0-.82-.847c-.6,0-.784.287-.784.533,0,.406.47.5.862.574a1.427,1.427,0,0,1,.8.336.9.9,0,0,1,.294.665c0,.505-.322.974-1.128.974a1.047,1.047,0,0,1-.77-.3,1.585,1.585,0,0,0-.14.161c-.133.133-.14.14-.175.14-.077,0-.077-.049-.077-.168V5.393c0-.126,0-.175.091-.175.07,0,.077.028.1.119.133.6.386,1,.973,1,.547,0,.792-.281.792-.638,0-.5-.574-.616-.728-.644A1.839,1.839,0,0,1,224.416,4.728Z" transform="translate(-1.185 -1.625)"/><path class="cls-2" d="M230.59,6.563a1.286,1.286,0,0,1-1.267-1.282.347.347,0,1,1,.343.315.316.316,0,0,1-.119-.014,1.091,1.091,0,0,0,1.03.785.876.876,0,0,0,.749-.455,2.041,2.041,0,0,0,.168-.96,2.161,2.161,0,0,0-.126-.883.684.684,0,0,0-.595-.448,1.054,1.054,0,0,0-.9.49c-.028.042-.042.063-.091.063-.1,0-.1-.055-.1-.182V1.919c0-.112,0-.168.07-.168a.209.209,0,0,1,.084.021,2.274,2.274,0,0,0,.932.2,2.315,2.315,0,0,0,.952-.2.1.1,0,0,1,.057-.021.068.068,0,0,1,.069.077,1.526,1.526,0,0,1-1.351.729,2.226,2.226,0,0,1-.6-.091V3.824a1.235,1.235,0,0,1,.89-.357A1.437,1.437,0,0,1,232.117,5,1.547,1.547,0,0,1,230.59,6.563Z" transform="translate(-1.185 -1.625)"/><path class="cls-2" d="M219.575,82.372a1.433,1.433,0,0,1-1.563,1.282h-2.745v-.217h.168c.539,0,.554-.077.554-.329V79.417c0-.252-.015-.329-.554-.329h-.168v-.217h2.564a1.405,1.405,0,0,1,1.554,1.183c0,.519-.483.967-1.163,1.1A1.375,1.375,0,0,1,219.575,82.372Zm-1.989-1.281a1.056,1.056,0,0,0,1.12-1.037.93.93,0,0,0-.924-.966h-.869c-.329,0-.343.049-.343.28v1.723Zm1.288,1.275a1.049,1.049,0,0,0-.988-1.121H216.57v1.912c0,.231.014.28.343.28h.876A1.058,1.058,0,0,0,218.874,82.366Z" transform="translate(-1.185 -1.625)"/><path class="cls-2" d="M221.806,83.731c-1.064,0-1.064-.637-1.064-1.183V81.5c0-.623,0-.645-.547-.645v-.216l1.03-.077v2.325c0,.364.028.693.616.693.511,0,.847-.476.847-1.085V81.245c0-.343-.056-.393-.546-.393v-.216l1.029-.077v2.486c0,.343.057.392.547.392v.217l-1.008.077V83.1A.957.957,0,0,1,221.806,83.731Z" transform="translate(-1.185 -1.625)"/><path class="cls-2" d="M224.388,81.974a.749.749,0,0,1-.3-.6c0-.392.266-.861,1.121-.861a1.079,1.079,0,0,1,.658.2.968.968,0,0,0,.119-.112c.091-.084.1-.084.14-.084.077,0,.077.048.077.168v.707c0,.133,0,.168-.091.168a.075.075,0,0,1-.084-.063.772.772,0,0,0-.819-.847c-.6,0-.785.287-.785.532,0,.406.469.5.862.574a1.427,1.427,0,0,1,.8.336.906.906,0,0,1,.295.666c0,.5-.323.973-1.128.973a1.048,1.048,0,0,1-.771-.3,1.585,1.585,0,0,0-.14.161c-.133.133-.14.14-.175.14-.077,0-.077-.049-.077-.168v-.924c0-.126,0-.175.091-.175.07,0,.077.028.1.118.133.6.386,1,.974,1,.546,0,.791-.28.791-.637,0-.5-.575-.616-.728-.645A1.846,1.846,0,0,1,224.388,81.974Z" transform="translate(-1.185 -1.625)"/><path class="cls-2" d="M230.745,80.664a1.468,1.468,0,0,1,1.4,1.562,1.5,1.5,0,0,1-1.442,1.583c-.652,0-1.464-.5-1.464-2.368,0-1.548.945-2.451,1.842-2.451.581,0,.889.336.889.756a.322.322,0,1,1-.644.014c0-.315.28-.315.386-.315a.725.725,0,0,0-.617-.28c-.357,0-1.226.252-1.226,2.024v.168A.968.968,0,0,1,230.745,80.664Zm.651,2.493a3.738,3.738,0,0,0-.007-1.9.676.676,0,0,0-.651-.434c-.631,0-.855.7-.855,1.246a3.423,3.423,0,0,0,.126,1.016.806.806,0,0,0,.694.525A.732.732,0,0,0,231.4,83.157Z" transform="translate(-1.185 -1.625)"/><path d="M36.206,58.593a1.467,1.467,0,0,1-1.6,1.313H31.794v-.222h.172c.552,0,.567-.079.567-.338v-3.78c0-.258-.015-.337-.567-.337h-.172v-.222h2.625a1.439,1.439,0,0,1,1.593,1.212c0,.531-.495.99-1.191,1.126A1.409,1.409,0,0,1,36.206,58.593Zm-2.038-1.312a1.082,1.082,0,0,0,1.148-1.062.953.953,0,0,0-.947-.99H33.48c-.338,0-.352.05-.352.287v1.765Zm1.32,1.3a1.075,1.075,0,0,0-1.011-1.148H33.128V59.4c0,.237.014.287.352.287h.9A1.085,1.085,0,0,0,35.488,58.586Z" transform="translate(-1.185 -1.625)"/><path d="M38.694,56.735a.489.489,0,0,1,.531.438.3.3,0,0,1-.308.316.3.3,0,0,1-.309-.309.313.313,0,0,1,.165-.28.183.183,0,0,0-.079-.007c-.545,0-.846.639-.846,1.349v1.1c0,.259.014.338.545.338h.15v.222c-.286-.021-.623-.021-.91-.021-.2,0-.539.014-.819.021v-.222c.481,0,.56,0,.56-.323V57.438c0-.352-.057-.4-.56-.4v-.223l1-.079v.79A1,1,0,0,1,38.694,56.735Z" transform="translate(-1.185 -1.625)"/><path d="M40.868,59.985c-.452,0-1.148-.18-1.148-.76a1.045,1.045,0,0,1,.717-.933,3.469,3.469,0,0,1,1.32-.258v-.265A.813.813,0,0,0,41,56.85a1.008,1.008,0,0,0-.775.33.325.325,0,0,1,.366.33.33.33,0,1,1-.66-.007c0-.473.5-.811,1.083-.811a1.372,1.372,0,0,1,.983.394,1.064,1.064,0,0,1,.258.847v1.435c0,.036.029.359.266.359.079,0,.258-.043.258-.459v-.4h.179v.4a.608.608,0,0,1-.588.681.6.6,0,0,1-.56-.588A.992.992,0,0,1,40.868,59.985Zm-.6-.767a.618.618,0,0,0,.646.609.861.861,0,0,0,.839-.925v-.718C40.573,58.228,40.272,58.823,40.272,59.218Z" transform="translate(-1.185 -1.625)"/><path d="M43.235,57.037v-.223l1.011-.079v.754a1.131,1.131,0,0,1,1.062-.754.955.955,0,0,1,.753.266c.223.258.223.481.223,1.1v1.371c.007.215.186.215.559.215v.222c-.243-.007-.617-.021-.8-.021s-.56.014-.811.021v-.222c.481,0,.56,0,.56-.323V57.689c0-.408-.079-.8-.531-.8a1.048,1.048,0,0,0-.969,1.148v1.32c0,.323.079.323.56.323v.222c-.244-.007-.617-.021-.8-.021s-.559.014-.81.021v-.222c.48,0,.559,0,.559-.323V57.438C43.794,57.086,43.737,57.037,43.235,57.037Z" transform="translate(-1.185 -1.625)"/><path d="M48.837,59.805a.937.937,0,0,0,.94-.753c.014-.042.028-.071.093-.071.022,0,.093,0,.093.071a1.18,1.18,0,0,1-1.191.933,1.588,1.588,0,0,1-1.542-1.629,1.608,1.608,0,0,1,1.557-1.664c.552,0,1.1.28,1.1.768a.33.33,0,1,1-.66.007.324.324,0,0,1,.337-.33,1.172,1.172,0,0,0-.767-.266c-.38,0-.969.3-.969,1.471S48.457,59.805,48.837,59.805Z" transform="translate(-1.185 -1.625)"/><path d="M50.96,55.63c0-.351-.058-.4-.56-.4v-.222l1.034-.08v2.511a1.134,1.134,0,0,1,1.04-.7.957.957,0,0,1,.753.266c.222.258.222.481.222,1.1v1.371c.007.215.187.215.56.215v.222c-.244-.007-.617-.021-.8-.021s-.559.014-.81.021v-.222c.48,0,.559,0,.559-.323V57.689c0-.408-.079-.8-.53-.8a1.048,1.048,0,0,0-.969,1.148v1.32c0,.323.079.323.559.323v.222c-.243-.007-.617-.021-.8-.021s-.56.014-.811.021v-.222c.481,0,.56,0,.56-.323Z" transform="translate(-1.185 -1.625)"/><path d="M58.649,59.339c0,.266.022.345.668.345h.229v.222c-.251-.021-.875-.021-1.162-.021s-.911,0-1.162.021v-.222h.23c.645,0,.666-.086.666-.345V55.623a2.14,2.14,0,0,1-.939.187v-.223a1.774,1.774,0,0,0,1.306-.459c.164,0,.164.014.164.187Z" transform="translate(-1.185 -1.625)"/><path d="M121.022,27.23a1.468,1.468,0,0,1-1.6,1.313H116.61V28.32h.172c.552,0,.567-.079.567-.337V24.2c0-.258-.015-.337-.567-.337h-.172v-.222h2.625a1.44,1.44,0,0,1,1.593,1.212c0,.531-.5.99-1.191,1.126A1.41,1.41,0,0,1,121.022,27.23Zm-2.038-1.313a1.082,1.082,0,0,0,1.148-1.062.953.953,0,0,0-.947-.99H118.3c-.337,0-.352.051-.352.287v1.765Zm1.32,1.3a1.074,1.074,0,0,0-1.011-1.147h-1.349v1.958c0,.237.015.287.352.287h.9A1.083,1.083,0,0,0,120.3,27.222Z" transform="translate(-1.185 -1.625)"/><path d="M123.51,25.372a.489.489,0,0,1,.531.437.3.3,0,0,1-.308.316.3.3,0,0,1-.309-.308.311.311,0,0,1,.165-.28c-.014-.008-.028-.008-.079-.008-.545,0-.846.639-.846,1.35v1.1c0,.258.014.337.545.337h.151v.223c-.287-.022-.624-.022-.911-.022-.2,0-.539.015-.818.022V28.32c.481,0,.559,0,.559-.323V26.075c0-.352-.057-.4-.559-.4V25.45l1-.078v.789A1.006,1.006,0,0,1,123.51,25.372Z" transform="translate(-1.185 -1.625)"/><path d="M125.684,28.622c-.452,0-1.148-.18-1.148-.761a1.046,1.046,0,0,1,.717-.933,3.507,3.507,0,0,1,1.32-.258v-.265a.813.813,0,0,0-.76-.919,1.006,1.006,0,0,0-.775.331c.33.007.366.243.366.33a.33.33,0,1,1-.66-.007c0-.474.5-.811,1.083-.811a1.368,1.368,0,0,1,.983.394,1.062,1.062,0,0,1,.258.847v1.435c0,.036.029.359.266.359.079,0,.258-.044.258-.46v-.4h.179v.4a.609.609,0,0,1-.588.682.6.6,0,0,1-.56-.589A.991.991,0,0,1,125.684,28.622Zm-.6-.768a.618.618,0,0,0,.646.61.862.862,0,0,0,.839-.926v-.717C125.389,26.864,125.088,27.459,125.088,27.854Z" transform="translate(-1.185 -1.625)"/><path d="M128.051,25.673V25.45l1.011-.078v.753a1.131,1.131,0,0,1,1.062-.753.955.955,0,0,1,.753.265c.223.259.223.481.223,1.1v1.37c.007.215.186.215.559.215v.223c-.243-.007-.617-.022-.8-.022s-.56.015-.811.022V28.32c.481,0,.56,0,.56-.323V26.326c0-.409-.079-.8-.531-.8a1.048,1.048,0,0,0-.969,1.148V28c0,.323.079.323.56.323v.223c-.244-.007-.617-.022-.8-.022s-.56.015-.811.022V28.32c.48,0,.559,0,.559-.323V26.075C128.61,25.723,128.553,25.673,128.051,25.673Z" transform="translate(-1.185 -1.625)"/><path d="M133.653,28.442a.937.937,0,0,0,.94-.753.082.082,0,0,1,.093-.071c.022,0,.093,0,.093.071a1.18,1.18,0,0,1-1.191.933,1.588,1.588,0,0,1-1.542-1.629,1.608,1.608,0,0,1,1.557-1.664c.552,0,1.1.28,1.1.767a.33.33,0,1,1-.66.008.325.325,0,0,1,.338-.331,1.172,1.172,0,0,0-.768-.265c-.38,0-.968.3-.968,1.47S133.273,28.442,133.653,28.442Z" transform="translate(-1.185 -1.625)"/><path d="M135.776,24.267c0-.351-.058-.4-.56-.4v-.222l1.034-.079v2.511a1.133,1.133,0,0,1,1.04-.7.957.957,0,0,1,.753.265c.223.259.223.481.223,1.1v1.37c.006.215.186.215.559.215v.223c-.244-.007-.617-.022-.8-.022s-.56.015-.811.022V28.32c.48,0,.56,0,.56-.323V26.326c0-.409-.08-.8-.531-.8a1.048,1.048,0,0,0-.969,1.148V28c0,.323.079.323.559.323v.223c-.243-.007-.617-.022-.8-.022s-.56.015-.811.022V28.32c.481,0,.56,0,.56-.323Z" transform="translate(-1.185 -1.625)"/><path d="M143.559,27.99a2.348,2.348,0,0,0,.681-.057,2.356,2.356,0,0,0,.158-.639h.179l-.2,1.249h-2.662c0-.172,0-.187.079-.266l1.378-1.535a2.574,2.574,0,0,0,.753-1.585c0-.589-.309-1.17-.962-1.17a1.033,1.033,0,0,0-.968.732.244.244,0,0,1,.093-.008.364.364,0,0,1,.38.374.377.377,0,1,1-.753-.022,1.326,1.326,0,0,1,1.342-1.3,1.409,1.409,0,0,1,1.52,1.393c0,.717-.43,1.1-1.549,2.094l-.76.739Z" transform="translate(-1.185 -1.625)"/><path class="cls-2" d="M178.364,97.48a1.433,1.433,0,0,1-1.562,1.282h-2.745v-.218h.168c.539,0,.553-.076.553-.329V94.524c0-.252-.014-.329-.553-.329h-.168v-.217h2.563a1.406,1.406,0,0,1,1.555,1.184c0,.518-.484.966-1.163,1.1A1.376,1.376,0,0,1,178.364,97.48ZM176.375,96.2a1.056,1.056,0,0,0,1.12-1.036.93.93,0,0,0-.924-.967H175.7c-.329,0-.343.049-.343.28V96.2Zm1.288,1.275a1.05,1.05,0,0,0-.987-1.121h-1.317v1.913c0,.231.014.279.343.279h.876A1.057,1.057,0,0,0,177.663,97.473Z" transform="translate(-1.185 -1.625)"/><path class="cls-2" d="M180.792,95.666a.477.477,0,0,1,.517.427.293.293,0,0,1-.3.308.289.289,0,0,1-.3-.3.3.3,0,0,1,.16-.273c-.014-.007-.027-.007-.076-.007-.532,0-.827.623-.827,1.317v1.078c0,.253.014.329.532.329h.147v.218c-.28-.021-.609-.021-.889-.021-.2,0-.526.014-.8.021v-.218c.469,0,.546,0,.546-.315V96.352c0-.343-.056-.392-.546-.392v-.217l.973-.077v.77A.98.98,0,0,1,180.792,95.666Z" transform="translate(-1.185 -1.625)"/><path class="cls-2" d="M182.912,98.839c-.441,0-1.121-.176-1.121-.743a1.021,1.021,0,0,1,.7-.91,3.394,3.394,0,0,1,1.288-.253v-.258a.793.793,0,0,0-.742-.9.983.983,0,0,0-.756.322.318.318,0,0,1,.357.322.323.323,0,1,1-.645-.007c0-.462.483-.791,1.058-.791a1.339,1.339,0,0,1,.96.385,1.035,1.035,0,0,1,.252.826v1.4c0,.035.028.35.259.35.077,0,.252-.042.252-.448v-.392h.175v.392a.6.6,0,0,1-.574.666.587.587,0,0,1-.547-.575A.969.969,0,0,1,182.912,98.839Zm-.581-.75a.6.6,0,0,0,.63.595.84.84,0,0,0,.819-.9v-.7C182.625,97.123,182.331,97.7,182.331,98.089Z" transform="translate(-1.185 -1.625)"/><path class="cls-2" d="M185.222,95.96v-.217l.987-.077V96.4a1.1,1.1,0,0,1,1.036-.735.932.932,0,0,1,.735.259c.218.252.218.469.218,1.071v1.338c.007.21.182.21.546.21v.218c-.238-.007-.6-.021-.784-.021s-.546.014-.791.021v-.218c.469,0,.546,0,.546-.315V96.6c0-.4-.077-.778-.519-.778a1.023,1.023,0,0,0-.945,1.121v1.288c0,.315.077.315.546.315v.218c-.238-.007-.6-.021-.784-.021s-.546.014-.791.021v-.218c.468,0,.545,0,.545-.315V96.352C185.767,96.009,185.712,95.96,185.222,95.96Z" transform="translate(-1.185 -1.625)"/><path class="cls-2" d="M190.689,98.663a.914.914,0,0,0,.917-.735c.014-.042.029-.07.091-.07.022,0,.092,0,.092.07a1.154,1.154,0,0,1-1.163.911,1.55,1.55,0,0,1-1.506-1.59,1.57,1.57,0,0,1,1.52-1.625c.54,0,1.072.273,1.072.749a.323.323,0,1,1-.645.007.316.316,0,0,1,.329-.322,1.141,1.141,0,0,0-.749-.259c-.372,0-.946.294-.946,1.436C189.7,98.362,190.317,98.663,190.689,98.663Z" transform="translate(-1.185 -1.625)"/><path class="cls-2" d="M192.761,94.587c0-.343-.057-.392-.547-.392v-.217l1.009-.077v2.451a1.106,1.106,0,0,1,1.015-.686.936.936,0,0,1,.736.259c.216.252.216.469.216,1.071v1.338c.007.21.183.21.547.21v.218c-.238-.007-.6-.021-.785-.021s-.546.014-.791.021v-.218c.47,0,.546,0,.546-.315V96.6c0-.4-.076-.778-.518-.778a1.023,1.023,0,0,0-.945,1.121v1.288c0,.315.076.315.546.315v.218c-.238-.007-.6-.021-.784-.021s-.547.014-.792.021v-.218c.47,0,.547,0,.547-.315Z" transform="translate(-1.185 -1.625)"/><path class="cls-2" d="M200.006,95.771a1.468,1.468,0,0,1,1.4,1.562,1.5,1.5,0,0,1-1.443,1.583c-.652,0-1.464-.5-1.464-2.368,0-1.548.946-2.451,1.843-2.451.581,0,.889.336.889.756a.322.322,0,1,1-.644.015c0-.316.28-.316.385-.316a.725.725,0,0,0-.617-.28c-.357,0-1.225.252-1.225,2.024v.168A.966.966,0,0,1,200.006,95.771Zm.651,2.494a3.742,3.742,0,0,0-.007-1.9.674.674,0,0,0-.651-.434c-.63,0-.855.7-.855,1.247a3.417,3.417,0,0,0,.126,1.015.808.808,0,0,0,.694.526A.734.734,0,0,0,200.657,98.265Z" transform="translate(-1.185 -1.625)"/><line class="cls-1" x1="80.329" y1="45.921" x2="80.329" y2="75.855"/><path d="M77.307,43.836a1.466,1.466,0,0,1-1.6,1.312H72.9v-.223h.172c.553,0,.567-.078.567-.336V40.808c0-.258-.014-.338-.567-.338H72.9v-.222h2.626a1.44,1.44,0,0,1,1.592,1.212c0,.531-.5.99-1.19,1.127A1.408,1.408,0,0,1,77.307,43.836ZM75.27,42.522a1.082,1.082,0,0,0,1.148-1.062.954.954,0,0,0-.947-.99h-.89c-.337,0-.351.051-.351.287v1.765Zm1.32,1.306a1.075,1.075,0,0,0-1.012-1.148H74.23v1.959c0,.237.014.286.351.286h.9A1.083,1.083,0,0,0,76.59,43.828Z" transform="translate(-1.185 -1.625)"/><path d="M79.6,45.227c-1.09,0-1.09-.652-1.09-1.212V42.939c0-.639,0-.66-.56-.66v-.223L79,41.977v2.382c0,.373.028.711.631.711.523,0,.868-.488.868-1.113V42.68c0-.351-.058-.4-.56-.4v-.223l1.055-.079v2.547c0,.352.057.4.559.4v.223l-1.033.079v-.645A.978.978,0,0,1,79.6,45.227Z" transform="translate(-1.185 -1.625)"/><path d="M82.242,43.426a.762.762,0,0,1-.309-.609c0-.4.273-.883,1.148-.883a1.1,1.1,0,0,1,.674.2.831.831,0,0,0,.122-.115c.094-.086.108-.086.144-.086.079,0,.079.05.079.173v.724c0,.136,0,.172-.094.172-.014,0-.079,0-.086-.064a.791.791,0,0,0-.839-.868c-.617,0-.8.294-.8.545,0,.416.481.509.883.588a1.466,1.466,0,0,1,.818.344.93.93,0,0,1,.3.682c0,.516-.33,1-1.155,1a1.071,1.071,0,0,1-.789-.308,1.9,1.9,0,0,0-.144.165c-.136.136-.143.143-.179.143-.079,0-.079-.05-.079-.172v-.947c0-.129,0-.179.093-.179.072,0,.079.028.1.122.136.609.394,1.019,1,1.019.56,0,.811-.288.811-.654,0-.516-.589-.631-.747-.66A1.867,1.867,0,0,1,82.242,43.426Z" transform="translate(-1.185 -1.625)"/><path d="M89.114,44.6a2.312,2.312,0,0,0,.681-.058,2.357,2.357,0,0,0,.158-.638h.179l-.2,1.248H87.27c0-.172,0-.187.079-.265l1.377-1.535a2.569,2.569,0,0,0,.753-1.586c0-.588-.308-1.169-.961-1.169a1.033,1.033,0,0,0-.968.731.274.274,0,0,1,.093-.007.363.363,0,0,1,.38.373.377.377,0,1,1-.753-.021,1.326,1.326,0,0,1,1.341-1.3,1.409,1.409,0,0,1,1.521,1.392c0,.717-.43,1.1-1.549,2.095l-.761.739Z" transform="translate(-1.185 -1.625)"/><line class="cls-3" x1="8.511" y1="60.888" x2="80.459" y2="60.888"/><line class="cls-1" x1="150.243" y1="14.549" x2="150.243" y2="44.482"/><polyline class="cls-4" points="150.096 29.515 112.992 29.515 111.192 29.515 111.191 53.361 81.045 53.362"/><line class="cls-1" x1="222.521" y1="7.257" x2="222.521" y2="37.19"/><line class="cls-3" x1="150.573" y1="22.224" x2="222.521" y2="22.224"/><line class="cls-1" x1="150.243" y1="107.228" x2="150.243" y2="77.294"/><line class="cls-1" x1="222.521" y1="114.576" x2="222.521" y2="84.643"/><line class="cls-3" x1="150.573" y1="99.61" x2="222.521" y2="99.61"/><polyline class="cls-4" points="151.108 37.042 172.134 37.042 172.134 61.151 172.134 84.837 151.141 84.837"/><path d="M177.666,20.054a1.468,1.468,0,0,1-1.6,1.313h-2.812v-.222h.172c.552,0,.567-.079.567-.338V17.026c0-.258-.015-.336-.567-.336h-.172v-.222h2.625a1.439,1.439,0,0,1,1.593,1.212c0,.531-.5.99-1.191,1.126A1.408,1.408,0,0,1,177.666,20.054Zm-2.038-1.313a1.081,1.081,0,0,0,1.148-1.061.953.953,0,0,0-.947-.99h-.889c-.337,0-.352.05-.352.287v1.764Zm1.32,1.306a1.075,1.075,0,0,0-1.011-1.148h-1.349v1.959c0,.237.015.287.352.287h.9A1.084,1.084,0,0,0,176.948,20.047Z" transform="translate(-1.185 -1.625)"/><path d="M180.155,18.2a.489.489,0,0,1,.53.438.3.3,0,0,1-.308.316.3.3,0,0,1-.309-.309.313.313,0,0,1,.165-.28.18.18,0,0,0-.078-.007c-.546,0-.847.638-.847,1.349v1.1c0,.259.014.338.545.338H180v.222c-.287-.021-.624-.021-.911-.021-.2,0-.539.014-.818.021v-.222c.481,0,.559,0,.559-.323V18.9c0-.352-.057-.4-.559-.4v-.222l1-.079v.789A1.006,1.006,0,0,1,180.155,18.2Z" transform="translate(-1.185 -1.625)"/><path d="M182.327,21.446c-.451,0-1.147-.18-1.147-.76a1.044,1.044,0,0,1,.717-.933,3.47,3.47,0,0,1,1.321-.258v-.266a.813.813,0,0,0-.761-.918,1.01,1.01,0,0,0-.775.33.325.325,0,0,1,.366.33.33.33,0,1,1-.66-.007c0-.474.5-.811,1.083-.811a1.374,1.374,0,0,1,.983.394,1.061,1.061,0,0,1,.259.847v1.435c0,.036.028.359.265.359.079,0,.258-.043.258-.46v-.4h.18v.4a.609.609,0,0,1-.589.682.6.6,0,0,1-.559-.588A.993.993,0,0,1,182.327,21.446Zm-.594-.767a.617.617,0,0,0,.645.609.862.862,0,0,0,.84-.925v-.718C182.033,19.689,181.733,20.284,181.733,20.679Z" transform="translate(-1.185 -1.625)"/><path d="M184.7,18.5v-.222l1.012-.079v.754a1.131,1.131,0,0,1,1.061-.754.953.953,0,0,1,.753.266c.223.258.223.481.223,1.1V20.93c.007.215.186.215.559.215v.222c-.244-.007-.616-.021-.8-.021s-.56.014-.81.021v-.222c.48,0,.559,0,.559-.323V19.15c0-.409-.079-.8-.531-.8a1.047,1.047,0,0,0-.968,1.147v1.321c0,.323.078.323.558.323v.222c-.243-.007-.616-.021-.8-.021s-.56.014-.811.021v-.222c.48,0,.56,0,.56-.323V18.9C185.255,18.547,185.2,18.5,184.7,18.5Z" transform="translate(-1.185 -1.625)"/><path d="M190.3,21.266a.936.936,0,0,0,.94-.753c.015-.043.029-.071.093-.071.021,0,.093,0,.093.071a1.18,1.18,0,0,1-1.191.933,1.588,1.588,0,0,1-1.542-1.629,1.608,1.608,0,0,1,1.557-1.664c.552,0,1.1.28,1.1.768a.33.33,0,1,1-.659.007.323.323,0,0,1,.337-.33,1.173,1.173,0,0,0-.768-.266c-.381,0-.968.3-.968,1.471S189.917,21.266,190.3,21.266Z" transform="translate(-1.185 -1.625)"/><path d="M192.42,17.091c0-.351-.058-.4-.56-.4v-.222l1.034-.08V18.9a1.134,1.134,0,0,1,1.039-.7.959.959,0,0,1,.754.266c.222.258.222.481.222,1.1V20.93c.007.215.187.215.56.215v.222c-.243-.007-.617-.021-.8-.021s-.56.014-.812.021v-.222c.481,0,.56,0,.56-.323V19.15c0-.409-.079-.8-.53-.8a1.047,1.047,0,0,0-.969,1.147v1.321c0,.323.079.323.56.323v.222c-.244-.007-.618-.021-.8-.021s-.56.014-.811.021v-.222c.481,0,.56,0,.56-.323Z" transform="translate(-1.185 -1.625)"/><path d="M198.2,20.184v-.223l2.2-3.365c.058-.086.08-.086.144-.086.115,0,.115.043.115.187v3.264h.717v.223h-.717v.623c0,.259.014.338.546.338h.15v.222c-.294-.021-.675-.021-.976-.021s-.674,0-.969.021v-.222h.152c.53,0,.544-.079.544-.338v-.623Zm1.952-2.9L198.4,19.961h1.751Z" transform="translate(-1.185 -1.625)"/><path class="cls-2" d="M177.158,51.921a1.432,1.432,0,0,1-1.281-1.562V47.613h.217v.169c0,.539.076.553.329.553h3.691c.252,0,.329-.014.329-.553v-.169h.217v2.564a1.4,1.4,0,0,1-1.183,1.554c-.519,0-.967-.482-1.1-1.162A1.375,1.375,0,0,1,177.158,51.921Zm1.282-1.989a1.057,1.057,0,0,0,1.037,1.121.93.93,0,0,0,.966-.925V49.26c0-.329-.049-.344-.28-.344H178.44Zm-1.275,1.289a1.05,1.05,0,0,0,1.121-.988V48.916h-1.912c-.231,0-.28.015-.28.344v.875A1.059,1.059,0,0,0,177.165,51.221Z" transform="translate(-1.185 -1.625)"/><path class="cls-2" d="M178.972,54.349a.478.478,0,0,1-.427.518.294.294,0,0,1-.308-.3.29.29,0,0,1,.3-.3.3.3,0,0,1,.273.161.18.18,0,0,0,.007-.077c0-.533-.623-.827-1.316-.827h-1.079c-.253,0-.329.014-.329.533V54.2h-.217c.021-.279.021-.608.021-.888,0-.2-.015-.526-.021-.8h.217c0,.469,0,.546.315.546h1.877c.343,0,.392-.056.392-.546h.217l.077.973h-.77A.981.981,0,0,1,178.972,54.349Z" transform="translate(-1.185 -1.625)"/><path class="cls-2" d="M175.8,56.469c0-.441.176-1.12.743-1.12a1.018,1.018,0,0,1,.91.7,3.4,3.4,0,0,1,.253,1.289h.258a.793.793,0,0,0,.9-.742.984.984,0,0,0-.322-.757c-.007.322-.238.357-.322.357a.322.322,0,1,1,.007-.644c.462,0,.791.483.791,1.057a1.335,1.335,0,0,1-.385.959,1.033,1.033,0,0,1-.826.253h-1.4c-.035,0-.35.028-.35.259,0,.077.042.252.448.252h.392v.175H176.5a.594.594,0,0,1-.665-.574.585.585,0,0,1,.574-.546A.969.969,0,0,1,175.8,56.469Zm.75-.581a.6.6,0,0,0-.595.631.841.841,0,0,0,.9.819h.7C177.515,56.182,176.934,55.888,176.549,55.888Z" transform="translate(-1.185 -1.625)"/><path class="cls-2" d="M178.678,58.778h.217l.077.988h-.735a1.1,1.1,0,0,1,.735,1.037.933.933,0,0,1-.259.735c-.252.217-.469.217-1.071.217H176.3c-.21.007-.21.183-.21.547h-.217c.006-.238.021-.6.021-.785s-.015-.546-.021-.791h.217c0,.469,0,.546.315.546h1.632c.4,0,.777-.077.777-.518a1.023,1.023,0,0,0-1.121-.945h-1.288c-.315,0-.315.076-.315.546h-.217c.006-.239.021-.6.021-.785s-.015-.547-.021-.792h.217c0,.47,0,.547.315.547h1.877C178.629,59.325,178.678,59.269,178.678,58.778Z" transform="translate(-1.185 -1.625)"/><path class="cls-2" d="M175.975,64.246a.915.915,0,0,0,.735.918c.042.014.07.027.07.091,0,.02,0,.091-.07.091a1.152,1.152,0,0,1-.911-1.162,1.55,1.55,0,0,1,1.59-1.506,1.568,1.568,0,0,1,1.625,1.519c0,.539-.273,1.072-.749,1.072a.323.323,0,1,1-.007-.645.316.316,0,0,1,.322.329,1.14,1.14,0,0,0,.259-.749c0-.371-.294-.945-1.436-.945C176.276,63.259,175.975,63.875,175.975,64.246Z" transform="translate(-1.185 -1.625)"/><path class="cls-2" d="M180.051,66.317c.343,0,.392-.055.392-.545h.217l.077,1.007h-2.451a1.109,1.109,0,0,1,.686,1.016.932.932,0,0,1-.259.735c-.252.218-.469.218-1.071.218H176.3c-.21.007-.21.182-.21.546h-.217c.006-.238.021-.6.021-.784s-.015-.546-.021-.791h.217c0,.469,0,.546.315.546h1.632c.4,0,.777-.077.777-.519A1.023,1.023,0,0,0,177.7,66.8h-1.288c-.315,0-.315.077-.315.546h-.217c.006-.238.021-.6.021-.784s-.015-.546-.021-.791h.217c0,.468,0,.545.315.545Z" transform="translate(-1.185 -1.625)"/><path class="cls-2" d="M175.722,73.381A1.287,1.287,0,0,1,177,72.113a.348.348,0,1,1-.315.344.312.312,0,0,1,.014-.119,1.091,1.091,0,0,0-.784,1.029.876.876,0,0,0,.455.749,2.026,2.026,0,0,0,.96.169,2.153,2.153,0,0,0,.882-.126.684.684,0,0,0,.448-.6,1.051,1.051,0,0,0-.49-.9c-.042-.028-.063-.042-.063-.091,0-.1.056-.1.182-.1h2.073c.112,0,.168,0,.168.07a.209.209,0,0,1-.021.084,2.274,2.274,0,0,0-.2.932,2.32,2.32,0,0,0,.2.952.1.1,0,0,1,.021.055.068.068,0,0,1-.077.071,1.527,1.527,0,0,1-.729-1.352,2.22,2.22,0,0,1,.092-.595h-1.366a1.231,1.231,0,0,1,.357.889,1.437,1.437,0,0,1-1.534,1.331A1.548,1.548,0,0,1,175.722,73.381Z" transform="translate(-1.185 -1.625)"/><polyline class="cls-4" points="149.478 92.261 112.375 92.261 110.575 92.261 110.573 68.415 80.427 68.414"/></svg>