<svg id="Layer_1" data-name="Layer 1" xmlns="http://www.w3.org/2000/svg" viewBox="0 0 231.81 92.371"><defs><style>.cls-1,.cls-10,.cls-3,.cls-4,.cls-5,.cls-9{fill:none;}.cls-1,.cls-3{stroke:#010101;}.cls-1,.cls-10,.cls-2,.cls-3,.cls-4,.cls-5,.cls-7,.cls-9{stroke-miterlimit:10;}.cls-2{fill:#fff;}.cls-2,.cls-4,.cls-5{stroke:#231f20;}.cls-3{stroke-width:1.9px;}.cls-5{stroke-width:0.7px;}.cls-6{fill:#231f20;}.cls-7,.cls-8{fill:#be1e2d;}.cls-7{stroke:#be1e2d;}.cls-9{stroke:#000;}.cls-10{stroke:#ed1c24;}</style></defs><line class="cls-1" x1="155.449" y1="22.381" x2="159.159" y2="22.381"/><line class="cls-2" x1="128.962" y1="22.381" x2="132.061" y2="22.381"/><line class="cls-2" x1="63.986" y1="22.381" x2="108.739" y2="22.381"/><path class="cls-2" d="M75.386,24.226" transform="translate(-2.658 -1.845)"/><path class="cls-2" d="M63.829,24.226" transform="translate(-2.658 -1.845)"/><line class="cls-2" x1="41.117" y1="22.381" x2="43.763" y2="22.381"/><line class="cls-3" x1="40.6" y1="14.898" x2="40.6" y2="44.832"/><line class="cls-4" x1="43.857" y1="37.349" x2="40.463" y2="37.348"/><polyline class="cls-4" points="78.811 44.999 78.811 37.349 64.082 37.349"/><line class="cls-3" x1="71.327" y1="68.115" x2="101.261" y2="68.115"/><line class="cls-3" x1="132.057" y1="14.898" x2="132.057" y2="44.832"/><line class="cls-1" x1="132.965" y1="22.381" x2="135.299" y2="22.381"/><line class="cls-1" x1="208.071" y1="22.381" x2="212.265" y2="22.381"/><path d="M39.158,13.111a1.466,1.466,0,0,1-1.6,1.313H34.746V14.2h.172c.553,0,.567-.079.567-.338v-3.78c0-.258-.014-.337-.567-.337h-.172V9.525h2.626a1.438,1.438,0,0,1,1.592,1.212c0,.531-.495.99-1.19,1.126A1.408,1.408,0,0,1,39.158,13.111ZM37.121,11.8a1.083,1.083,0,0,0,1.148-1.062.953.953,0,0,0-.947-.99h-.89c-.337,0-.351.05-.351.287V11.8Zm1.32,1.3a1.075,1.075,0,0,0-1.011-1.148H36.081v1.959c0,.237.014.287.351.287h.9A1.085,1.085,0,0,0,38.441,13.1Z" transform="translate(-2.658 -1.845)"/><path d="M41.446,14.5c-1.09,0-1.09-.653-1.09-1.212V12.215c0-.639,0-.66-.56-.66v-.223l1.055-.079v2.382c0,.373.028.71.631.71.523,0,.868-.488.868-1.111V11.956c0-.352-.058-.4-.56-.4v-.223l1.055-.079V13.8c0,.352.057.4.559.4v.222l-1.033.079v-.646A.978.978,0,0,1,41.446,14.5Z" transform="translate(-2.658 -1.845)"/><path d="M44.093,12.7a.764.764,0,0,1-.309-.61c0-.4.273-.882,1.148-.882a1.108,1.108,0,0,1,.675.2.94.94,0,0,0,.121-.115c.094-.086.108-.086.144-.086.079,0,.079.051.079.172v.725c0,.136,0,.172-.093.172-.015,0-.08,0-.087-.064a.791.791,0,0,0-.839-.869c-.617,0-.8.294-.8.546,0,.416.48.509.882.588a1.466,1.466,0,0,1,.818.344.925.925,0,0,1,.3.682c0,.517-.33,1-1.155,1a1.071,1.071,0,0,1-.789-.308,2.063,2.063,0,0,0-.144.164c-.136.137-.143.144-.179.144-.079,0-.079-.05-.079-.172v-.947c0-.129,0-.179.094-.179.071,0,.078.029.1.121.136.61.395,1.019,1,1.019.56,0,.811-.287.811-.652,0-.517-.589-.632-.747-.66A1.875,1.875,0,0,1,44.093,12.7Z" transform="translate(-2.658 -1.845)"/><path d="M50.871,13.857c0,.266.022.345.667.345h.23v.222c-.251-.021-.875-.021-1.162-.021s-.911,0-1.162.021V14.2h.229c.646,0,.667-.086.667-.345V10.141a2.142,2.142,0,0,1-.939.187v-.223a1.772,1.772,0,0,0,1.3-.459c.165,0,.165.014.165.187Z" transform="translate(-2.658 -1.845)"/><line class="cls-4" x1="153.272" y1="36.848" x2="153.272" y2="51.85"/><path class="cls-4" d="M163.288,61.116A7.088,7.088,0,1,0,156.2,68.2,7.087,7.087,0,0,0,163.288,61.116Z" transform="translate(-2.658 -1.845)"/><path class="cls-5" d="M161.161,61.116a4.961,4.961,0,1,0-4.961,4.96A4.96,4.96,0,0,0,161.161,61.116Z" transform="translate(-2.658 -1.845)"/><path class="cls-6" d="M157.738,63.511a3.272,3.272,0,0,1-1.352.243,2.392,2.392,0,0,1-2.529-2.59,2.548,2.548,0,0,1,2.674-2.689,2.749,2.749,0,0,1,1.215.228l-.16.539a2.411,2.411,0,0,0-1.033-.212,1.9,1.9,0,0,0-2,2.111,1.861,1.861,0,0,0,1.967,2.059,2.648,2.648,0,0,0,1.079-.213Z" transform="translate(-2.658 -1.845)"/><path d="M110.326,71.1a1.467,1.467,0,0,1-1.6,1.313h-2.812v-.223h.172c.553,0,.567-.079.567-.337V68.069c0-.258-.014-.337-.567-.337h-.172V67.51h2.626a1.439,1.439,0,0,1,1.592,1.212c0,.531-.5.99-1.19,1.126A1.41,1.41,0,0,1,110.326,71.1Zm-2.037-1.314a1.082,1.082,0,0,0,1.148-1.061.953.953,0,0,0-.947-.99h-.89c-.337,0-.351.05-.351.287v1.764Zm1.32,1.306a1.074,1.074,0,0,0-1.011-1.147h-1.349V71.9c0,.237.014.287.351.287h.9A1.084,1.084,0,0,0,109.609,71.089Z" transform="translate(-2.658 -1.845)"/><path d="M112.614,72.488c-1.09,0-1.09-.652-1.09-1.212V70.2c0-.639,0-.66-.56-.66v-.223l1.055-.078V71.62c0,.373.028.711.631.711.523,0,.868-.488.868-1.112V69.942c0-.352-.058-.4-.56-.4v-.223l1.055-.078v2.546c0,.352.057.4.559.4v.223l-1.033.078v-.645A.978.978,0,0,1,112.614,72.488Z" transform="translate(-2.658 -1.845)"/><path d="M115.261,70.688a.765.765,0,0,1-.309-.61c0-.4.273-.882,1.148-.882a1.112,1.112,0,0,1,.675.2.945.945,0,0,0,.122-.115c.093-.085.107-.085.143-.085.079,0,.079.05.079.172v.724c0,.137,0,.172-.093.172-.015,0-.08,0-.087-.064a.791.791,0,0,0-.839-.868c-.617,0-.8.294-.8.545,0,.416.481.509.883.589a1.458,1.458,0,0,1,.818.343.93.93,0,0,1,.3.682c0,.516-.33,1-1.155,1a1.072,1.072,0,0,1-.789-.308,1.9,1.9,0,0,0-.144.165c-.136.136-.143.143-.179.143-.079,0-.079-.05-.079-.172v-.947c0-.129,0-.179.094-.179.071,0,.078.029.1.122.136.61.395,1.019,1,1.019.56,0,.811-.288.811-.653,0-.517-.589-.632-.747-.661A1.868,1.868,0,0,1,115.261,70.688Z" transform="translate(-2.658 -1.845)"/><path d="M122.133,71.857a2.309,2.309,0,0,0,.681-.058,2.338,2.338,0,0,0,.158-.638h.179l-.2,1.249h-2.661c0-.173,0-.187.079-.266l1.377-1.535a2.569,2.569,0,0,0,.753-1.586c0-.588-.308-1.169-.961-1.169a1.033,1.033,0,0,0-.968.731.274.274,0,0,1,.093-.007.363.363,0,0,1,.38.374.377.377,0,1,1-.753-.022,1.326,1.326,0,0,1,1.341-1.3,1.41,1.41,0,0,1,1.521,1.392c0,.718-.43,1.105-1.549,2.095l-.761.739Z" transform="translate(-2.658 -1.845)"/><path d="M130.451,13.032a1.467,1.467,0,0,1-1.6,1.313h-2.812v-.223h.172c.553,0,.567-.078.567-.336V10c0-.257-.014-.337-.567-.337h-.172V9.445h2.625a1.441,1.441,0,0,1,1.593,1.212c0,.531-.5.99-1.191,1.127A1.408,1.408,0,0,1,130.451,13.032Zm-2.038-1.313a1.082,1.082,0,0,0,1.148-1.062.953.953,0,0,0-.947-.99h-.889c-.337,0-.352.05-.352.287v1.765Zm1.321,1.306a1.075,1.075,0,0,0-1.012-1.148h-1.349v1.958c0,.237.015.287.352.287h.9A1.084,1.084,0,0,0,129.734,13.025Z" transform="translate(-2.658 -1.845)"/><path d="M132.738,14.424c-1.09,0-1.09-.653-1.09-1.212V12.135c0-.638,0-.66-.56-.66v-.222l1.055-.079v2.382c0,.373.029.71.631.71.524,0,.869-.487.869-1.112V11.877c0-.351-.058-.4-.56-.4v-.222l1.055-.079v2.547c0,.351.057.4.559.4v.223l-1.033.079v-.645A.98.98,0,0,1,132.738,14.424Z" transform="translate(-2.658 -1.845)"/><path d="M135.385,12.623a.766.766,0,0,1-.308-.609c0-.4.272-.883,1.147-.883a1.106,1.106,0,0,1,.675.2.884.884,0,0,0,.122-.115c.093-.086.108-.086.144-.086.078,0,.078.05.078.173v.724c0,.136,0,.172-.093.172a.077.077,0,0,1-.086-.065.791.791,0,0,0-.84-.868c-.617,0-.8.294-.8.546,0,.416.481.509.883.587a1.468,1.468,0,0,1,.817.345.925.925,0,0,1,.3.682c0,.516-.33,1-1.155,1a1.072,1.072,0,0,1-.79-.309,1.434,1.434,0,0,0-.143.166c-.136.136-.143.143-.179.143-.079,0-.079-.051-.079-.172v-.947c0-.13,0-.18.093-.18.072,0,.079.029.1.122.137.61.395,1.019,1,1.019.559,0,.81-.287.81-.653,0-.517-.588-.631-.746-.66A1.875,1.875,0,0,1,135.385,12.623Z" transform="translate(-2.658 -1.845)"/><path d="M143.333,13.118a1.464,1.464,0,0,1-1.528,1.385,1.309,1.309,0,0,1-1.449-1.127.4.4,0,1,1,.8-.014.393.393,0,0,1-.474.395,1.306,1.306,0,0,0,1.1.545c.315,0,.81-.208.81-1.184,0-.7-.265-1.191-.854-1.191h-.315c-.122,0-.172,0-.172-.079s.05-.079.107-.086.223-.014.28-.021a.7.7,0,0,0,.639-.373,1.8,1.8,0,0,0,.2-.818c0-.646-.394-.8-.688-.8a1.163,1.163,0,0,0-.954.444c.107,0,.444,0,.444.359a.366.366,0,1,1-.731-.007c0-.546.545-.976,1.27-.976.688,0,1.32.4,1.32.99a1.383,1.383,0,0,1-1,1.263A1.383,1.383,0,0,1,143.333,13.118Z" transform="translate(-2.658 -1.845)"/><path class="cls-6" d="M48.049,21.866c0,.221.019.287.558.287H48.8v.186c-.21-.018-.731-.018-.971-.018s-.762,0-.972.018v-.186h.192c.54,0,.558-.072.558-.287V18.759a1.8,1.8,0,0,1-.785.156v-.186a1.484,1.484,0,0,0,1.091-.383c.137,0,.137.011.137.155Z" transform="translate(-2.658 -1.845)"/><path class="cls-6" d="M50.738,21.032a1.261,1.261,0,0,1-1.2-1.337,1.286,1.286,0,0,1,.383-.972,1.16,1.16,0,0,1,.882-.377c.533,0,1.223.407,1.223,2.02,0,1.29-.732,2.105-1.505,2.105-.51,0-.834-.246-.834-.647a.276.276,0,1,1,.552-.013c0,.1-.048.276-.312.276a.782.782,0,0,0,.588.216c.348,0,.972-.276.972-1.679v-.192A.821.821,0,0,1,50.738,21.032Zm.737-1.217a2.949,2.949,0,0,0-.1-.846.62.62,0,0,0-1.174-.1,1.689,1.689,0,0,0-.126.828,1.969,1.969,0,0,0,.107.815.578.578,0,0,0,.558.378C51.272,20.894,51.475,20.312,51.475,19.815Z" transform="translate(-2.658 -1.845)"/><path class="cls-6" d="M53.121,22.339a.318.318,0,1,1,.317-.318A.32.32,0,0,1,53.121,22.339Z" transform="translate(-2.658 -1.845)"/><path class="cls-6" d="M55.994,19.826a2.64,2.64,0,0,0-.372,1.026,6.718,6.718,0,0,0-.066.983v.306c0,.06,0,.33-.276.33S55,22.2,55,22.141a4.186,4.186,0,0,1,.738-2.254c.132-.2.605-.852.672-.948H55.172a3.035,3.035,0,0,0-.588.036,1.7,1.7,0,0,0-.15.546h-.149l.2-1.236h.149c.025.114.036.192.768.192h1.457c0,.126,0,.138-.054.21Z" transform="translate(-2.658 -1.845)"/><path class="cls-6" d="M59.485,21.776a1.121,1.121,0,0,1-2.032.09,3.043,3.043,0,0,1-.271-1.446,3.191,3.191,0,0,1,.223-1.361,1.1,1.1,0,0,1,1.043-.713,1.109,1.109,0,0,1,1.019.671,3.212,3.212,0,0,1,.24,1.4A3.2,3.2,0,0,1,59.485,21.776Zm-.342-.186a7.432,7.432,0,0,0,.066-1.242,7.5,7.5,0,0,0-.059-1.169c-.114-.594-.51-.7-.708-.7-.15,0-.6.054-.714.768a8.04,8.04,0,0,0-.048,1.1,8.058,8.058,0,0,0,.067,1.266c.107.575.461.725.7.725C58.711,22.339,59.053,22.159,59.143,21.59Z" transform="translate(-2.658 -1.845)"/><line class="cls-7" x1="44.163" y1="22.382" x2="60.393" y2="22.382"/><polygon class="cls-8" points="59.057 24.292 59.87 22.382 59.057 20.471 63.586 22.381 59.057 24.292"/><line class="cls-7" x1="109.138" y1="22.382" x2="125.368" y2="22.382"/><polygon class="cls-8" points="124.032 24.292 124.845 22.382 124.032 20.471 128.561 22.382 124.032 24.292"/><path class="cls-6" d="M113.025,21.865c0,.222.018.288.557.288h.193v.186c-.21-.018-.732-.018-.972-.018s-.762,0-.972.018v-.186h.193c.54,0,.557-.072.557-.288V18.759a1.8,1.8,0,0,1-.785.155v-.185a1.482,1.482,0,0,0,1.091-.384c.138,0,.138.012.138.156Z" transform="translate(-2.658 -1.845)"/><path class="cls-6" d="M116.708,20.594a1.08,1.08,0,0,1,.294.737,1.2,1.2,0,0,1-1.247,1.14,1.145,1.145,0,0,1-1.241-1.038,1.324,1.324,0,0,1,.863-1.1,3.757,3.757,0,0,1-.437-.324.959.959,0,0,1-.264-.659,1.042,1.042,0,0,1,1.085-1,.99.99,0,0,1,1.079.894,1.113,1.113,0,0,1-.726.929A2.506,2.506,0,0,1,116.708,20.594Zm-1.894.839a.9.9,0,0,0,.947.87.863.863,0,0,0,.941-.756.8.8,0,0,0-.449-.659l-.738-.468A1.172,1.172,0,0,0,114.814,21.433Zm1.169-1.355a1.017,1.017,0,0,0,.593-.839.78.78,0,0,0-.821-.744c-.426,0-.815.252-.815.618a.558.558,0,0,0,.3.485Z" transform="translate(-2.658 -1.845)"/><path class="cls-6" d="M118.1,22.339a.318.318,0,1,1,.317-.318A.319.319,0,0,1,118.1,22.339Z" transform="translate(-2.658 -1.845)"/><path class="cls-6" d="M120.375,21.032a1.261,1.261,0,0,1-1.2-1.338,1.288,1.288,0,0,1,.384-.972,1.163,1.163,0,0,1,.882-.377c.533,0,1.222.408,1.222,2.021,0,1.289-.731,2.105-1.5,2.105-.509,0-.834-.246-.834-.648a.276.276,0,1,1,.552-.012c0,.1-.048.276-.311.276a.78.78,0,0,0,.588.216c.347,0,.971-.276.971-1.679v-.192A.82.82,0,0,1,120.375,21.032Zm.737-1.218a2.976,2.976,0,0,0-.095-.845.621.621,0,0,0-1.175-.1,1.691,1.691,0,0,0-.126.828,1.965,1.965,0,0,0,.107.815.578.578,0,0,0,.558.378C120.909,20.893,121.112,20.312,121.112,19.814Z" transform="translate(-2.658 -1.845)"/><path class="cls-6" d="M124.37,20.594a1.08,1.08,0,0,1,.294.737,1.2,1.2,0,0,1-1.247,1.14,1.145,1.145,0,0,1-1.241-1.038,1.326,1.326,0,0,1,.863-1.1,3.757,3.757,0,0,1-.437-.324.959.959,0,0,1-.264-.659,1.042,1.042,0,0,1,1.085-1,.99.99,0,0,1,1.079.894,1.113,1.113,0,0,1-.725.929A2.515,2.515,0,0,1,124.37,20.594Zm-1.894.839a.9.9,0,0,0,.947.87.863.863,0,0,0,.941-.756.8.8,0,0,0-.449-.659l-.738-.468A1.172,1.172,0,0,0,122.476,21.433Zm1.169-1.355a1.017,1.017,0,0,0,.593-.839.78.78,0,0,0-.821-.744c-.426,0-.815.252-.815.618a.557.557,0,0,0,.3.485Z" transform="translate(-2.658 -1.845)"/><path class="cls-6" d="M54.748,36.832c0,.222.019.288.558.288H55.5v.186c-.21-.018-.731-.018-.971-.018s-.762,0-.972.018V37.12h.192c.54,0,.558-.072.558-.288V33.726a1.8,1.8,0,0,1-.785.156V33.7a1.482,1.482,0,0,0,1.091-.384c.137,0,.137.012.137.156Z" transform="translate(-2.658 -1.845)"/><path class="cls-6" d="M57.37,37.438a1.1,1.1,0,0,1-1.085-1.1.3.3,0,1,1,.294.269.26.26,0,0,1-.1-.012.933.933,0,0,0,.881.672A.748.748,0,0,0,58,36.88a1.731,1.731,0,0,0,.145-.821,1.845,1.845,0,0,0-.109-.756.585.585,0,0,0-.509-.384.9.9,0,0,0-.774.42c-.024.036-.036.054-.078.054-.084,0-.084-.048-.084-.156V33.462c0-.1,0-.144.061-.144a.18.18,0,0,1,.071.018,1.948,1.948,0,0,0,.8.168,1.983,1.983,0,0,0,.815-.174.09.09,0,0,1,.048-.018.059.059,0,0,1,.061.066A1.308,1.308,0,0,1,57.287,34a1.886,1.886,0,0,1-.509-.078v1.169a1.051,1.051,0,0,1,.76-.306,1.23,1.23,0,0,1,1.14,1.313A1.325,1.325,0,0,1,57.37,37.438Z" transform="translate(-2.658 -1.845)"/><path class="cls-6" d="M59.82,37.306a.318.318,0,1,1,.317-.318A.32.32,0,0,1,59.82,37.306Z" transform="translate(-2.658 -1.845)"/><path class="cls-6" d="M63.094,35.561a1.08,1.08,0,0,1,.294.738,1.2,1.2,0,0,1-1.247,1.139A1.144,1.144,0,0,1,60.9,36.4a1.324,1.324,0,0,1,.863-1.1,3.871,3.871,0,0,1-.438-.324.959.959,0,0,1-.263-.659,1.042,1.042,0,0,1,1.085-1,.99.99,0,0,1,1.079.894,1.113,1.113,0,0,1-.726.929A2.506,2.506,0,0,1,63.094,35.561ZM61.2,36.4a.9.9,0,0,0,.947.869.863.863,0,0,0,.941-.756.8.8,0,0,0-.449-.659l-.738-.468A1.175,1.175,0,0,0,61.2,36.4Zm1.168-1.356a1.015,1.015,0,0,0,.594-.839.782.782,0,0,0-.821-.744c-.426,0-.816.252-.816.618a.558.558,0,0,0,.3.485Z" transform="translate(-2.658 -1.845)"/><path class="cls-6" d="M65.489,36.844a1.959,1.959,0,0,0,.57-.048,2.043,2.043,0,0,0,.132-.533h.149l-.168,1.043H63.948c0-.144,0-.156.066-.222L65.165,35.8a2.153,2.153,0,0,0,.629-1.326c0-.491-.258-.977-.8-.977a.864.864,0,0,0-.81.612.221.221,0,0,1,.077-.006.3.3,0,0,1,.318.311.315.315,0,1,1-.629-.017,1.108,1.108,0,0,1,1.121-1.086,1.178,1.178,0,0,1,1.271,1.163c0,.6-.359.924-1.3,1.751l-.636.618Z" transform="translate(-2.658 -1.845)"/><line class="cls-7" x1="63.682" y1="37.349" x2="47.45" y2="37.349"/><polygon class="cls-8" points="48.786 39.258 47.973 37.349 48.786 35.438 44.257 37.349 48.786 39.258"/><line class="cls-7" x1="78.811" y1="64.822" x2="78.81" y2="48.592"/><polygon class="cls-8" points="76.901 49.928 78.81 49.115 80.722 49.928 78.81 45.399 76.901 49.928"/><path class="cls-6" d="M67.472,58.412c0,.222.019.288.558.288h.192v.186c-.21-.018-.731-.018-.972-.018s-.761,0-.971.018V58.7h.192c.54,0,.558-.072.558-.288V55.306a1.8,1.8,0,0,1-.785.156v-.186a1.48,1.48,0,0,0,1.09-.384c.138,0,.138.012.138.156Z" transform="translate(-2.658 -1.845)"/><path class="cls-6" d="M70.55,58.424a1.962,1.962,0,0,0,.571-.048,2.006,2.006,0,0,0,.131-.534h.15l-.168,1.044H69.009c0-.144,0-.156.067-.222l1.151-1.284a2.148,2.148,0,0,0,.629-1.325c0-.491-.258-.977-.8-.977a.862.862,0,0,0-.809.612.218.218,0,0,1,.077-.006.3.3,0,0,1,.318.311.315.315,0,1,1-.63-.017,1.108,1.108,0,0,1,1.121-1.086A1.178,1.178,0,0,1,71.4,56.055c0,.6-.36.924-1.3,1.751l-.636.618Z" transform="translate(-2.658 -1.845)"/><path class="cls-6" d="M72.543,58.886a.318.318,0,1,1,.318-.318A.32.32,0,0,1,72.543,58.886Z" transform="translate(-2.658 -1.845)"/><path class="cls-6" d="M76.112,57.86a1.224,1.224,0,0,1-1.278,1.158,1.094,1.094,0,0,1-1.211-.942.336.336,0,1,1,.672-.012.329.329,0,0,1-.4.33,1.092,1.092,0,0,0,.918.456c.263,0,.678-.174.678-.99,0-.587-.222-.995-.714-.995h-.264c-.1,0-.145,0-.145-.066s.042-.066.091-.072.186-.012.234-.018a.582.582,0,0,0,.534-.312,1.509,1.509,0,0,0,.168-.684c0-.539-.33-.671-.576-.671a.972.972,0,0,0-.8.372c.09,0,.372,0,.372.3a.306.306,0,1,1-.611-.005c0-.456.455-.816,1.061-.816.575,0,1.1.336,1.1.828a1.155,1.155,0,0,1-.839,1.055A1.157,1.157,0,0,1,76.112,57.86Z" transform="translate(-2.658 -1.845)"/><path class="cls-6" d="M78.134,58.412c0,.222.019.288.558.288h.192v.186c-.21-.018-.731-.018-.972-.018s-.761,0-.971.018V58.7h.192c.54,0,.558-.072.558-.288V55.306a1.8,1.8,0,0,1-.785.156v-.186A1.48,1.48,0,0,0,78,54.892c.138,0,.138.012.138.156Z" transform="translate(-2.658 -1.845)"/><path class="cls-6" d="M139.907,21.719a1.955,1.955,0,0,0,.57-.048,1.975,1.975,0,0,0,.132-.534h.15l-.168,1.043h-2.225c0-.144,0-.155.066-.221l1.152-1.284a2.148,2.148,0,0,0,.629-1.325c0-.492-.258-.978-.8-.978a.866.866,0,0,0-.81.612.225.225,0,0,1,.077-.006.3.3,0,0,1,.319.312.315.315,0,1,1-.63-.018,1.108,1.108,0,0,1,1.121-1.085,1.178,1.178,0,0,1,1.272,1.163c0,.6-.36.924-1.295,1.751l-.636.618Z" transform="translate(-2.658 -1.845)"/><path class="cls-6" d="M142.607,19.62a1.257,1.257,0,0,1,1.2,1.337,1.282,1.282,0,0,1-1.235,1.355c-.558,0-1.253-.425-1.253-2.027,0-1.325.81-2.1,1.577-2.1.5,0,.762.287.762.647a.276.276,0,1,1-.552.013c0-.271.239-.271.33-.271a.618.618,0,0,0-.528-.239c-.306,0-1.049.216-1.049,1.733v.144A.828.828,0,0,1,142.607,19.62Zm.558,2.135a2,2,0,0,0,.1-.8,1.979,1.979,0,0,0-.108-.821.579.579,0,0,0-.558-.372c-.54,0-.731.6-.731,1.067a2.955,2.955,0,0,0,.107.87.691.691,0,0,0,.594.449A.625.625,0,0,0,143.165,21.755Z" transform="translate(-2.658 -1.845)"/><path class="cls-6" d="M144.9,22.18a.318.318,0,1,1,.318-.317A.319.319,0,0,1,144.9,22.18Z" transform="translate(-2.658 -1.845)"/><path class="cls-6" d="M148.264,21.617a1.121,1.121,0,0,1-2.032.09,3.038,3.038,0,0,1-.27-1.445,3.208,3.208,0,0,1,.222-1.362,1.1,1.1,0,0,1,1.043-.713,1.113,1.113,0,0,1,1.02.671,3.214,3.214,0,0,1,.24,1.4A3.179,3.179,0,0,1,148.264,21.617Zm-.341-.186a7.425,7.425,0,0,0,.066-1.241,7.378,7.378,0,0,0-.06-1.17c-.114-.593-.509-.7-.708-.7-.149,0-.6.053-.713.767a8.048,8.048,0,0,0-.048,1.1,8.172,8.172,0,0,0,.066,1.265c.108.576.462.725.695.725C147.491,22.18,147.833,22,147.923,21.431Z" transform="translate(-2.658 -1.845)"/><path class="cls-6" d="M150.491,21.707c0,.222.019.287.558.287h.192v.186c-.21-.018-.731-.018-.972-.018s-.761,0-.971.018v-.186h.192c.54,0,.558-.071.558-.287V18.6a1.8,1.8,0,0,1-.786.156v-.185a1.48,1.48,0,0,0,1.091-.384c.138,0,.138.012.138.156Z" transform="translate(-2.658 -1.845)"/><line class="cls-7" x1="135.708" y1="22.382" x2="151.855" y2="22.382"/><polygon class="cls-8" points="150.519 24.292 151.332 22.382 150.519 20.471 155.048 22.381 150.519 24.292"/><path class="cls-6" d="M192.5,21.719a1.955,1.955,0,0,0,.57-.048,1.975,1.975,0,0,0,.132-.534h.149l-.168,1.043h-2.224c0-.144,0-.155.066-.221l1.151-1.284a2.143,2.143,0,0,0,.629-1.325c0-.492-.257-.978-.8-.978a.866.866,0,0,0-.81.612.221.221,0,0,1,.077-.006.3.3,0,0,1,.319.312.315.315,0,1,1-.63-.018,1.108,1.108,0,0,1,1.121-1.085,1.178,1.178,0,0,1,1.271,1.163c0,.6-.359.924-1.3,1.751l-.635.618Z" transform="translate(-2.658 -1.845)"/><path class="cls-6" d="M196.2,21.617a1.121,1.121,0,0,1-2.032.09,3.039,3.039,0,0,1-.271-1.445,3.209,3.209,0,0,1,.223-1.362,1.1,1.1,0,0,1,1.043-.713,1.111,1.111,0,0,1,1.019.671,3.215,3.215,0,0,1,.241,1.4A3.2,3.2,0,0,1,196.2,21.617Zm-.342-.186a7.316,7.316,0,0,0,.067-1.241,7.378,7.378,0,0,0-.06-1.17c-.114-.593-.51-.7-.708-.7-.149,0-.6.053-.714.767a8.048,8.048,0,0,0-.048,1.1,8.051,8.051,0,0,0,.067,1.265c.107.576.462.725.695.725C195.425,22.18,195.766,22,195.856,21.431Z" transform="translate(-2.658 -1.845)"/><path class="cls-6" d="M197.5,22.18a.318.318,0,1,1,.317-.317A.319.319,0,0,1,197.5,22.18Z" transform="translate(-2.658 -1.845)"/><path class="cls-6" d="M200.86,21.617a1.121,1.121,0,0,1-2.032.09,3.039,3.039,0,0,1-.271-1.445,3.209,3.209,0,0,1,.223-1.362,1.1,1.1,0,0,1,1.043-.713,1.113,1.113,0,0,1,1.02.671,3.214,3.214,0,0,1,.24,1.4A3.179,3.179,0,0,1,200.86,21.617Zm-.342-.186a7.316,7.316,0,0,0,.067-1.241,7.378,7.378,0,0,0-.06-1.17c-.114-.593-.51-.7-.708-.7-.149,0-.6.053-.714.767a8.048,8.048,0,0,0-.048,1.1,8.051,8.051,0,0,0,.067,1.265c.107.576.462.725.695.725C200.087,22.18,200.429,22,200.518,21.431Z" transform="translate(-2.658 -1.845)"/><path class="cls-6" d="M203.86,21.617a1.121,1.121,0,0,1-2.032.09,3.039,3.039,0,0,1-.271-1.445,3.209,3.209,0,0,1,.223-1.362,1.1,1.1,0,0,1,1.043-.713,1.113,1.113,0,0,1,1.02.671,3.214,3.214,0,0,1,.24,1.4A3.179,3.179,0,0,1,203.86,21.617Zm-.342-.186a7.316,7.316,0,0,0,.067-1.241,7.378,7.378,0,0,0-.06-1.17c-.114-.593-.51-.7-.708-.7-.149,0-.6.053-.714.767a8.048,8.048,0,0,0-.048,1.1,8.051,8.051,0,0,0,.067,1.265c.107.576.462.725.695.725C203.087,22.18,203.429,22,203.518,21.431Z" transform="translate(-2.658 -1.845)"/><line class="cls-7" x1="188.304" y1="22.382" x2="204.476" y2="22.382"/><polygon class="cls-8" points="203.14 24.292 203.954 22.382 203.14 20.471 207.67 22.381 203.14 24.292"/><line class="cls-1" x1="183.793" y1="22.381" x2="187.904" y2="22.381"/><circle class="cls-4" cx="12.682" cy="31.71" r="9.524" transform="translate(-7.587 0.605) rotate(-9.245)"/><path class="cls-9" d="M17.491,30.658s-1.5,1.987-2.267,2.1c-.93.142-2.546-1.058-2.546-1.058s-2.345-1.184-2.836-1.045c-.713.2-2.085,2.1-2.085,2.1" transform="translate(-2.658 -1.845)"/><polyline class="cls-2" points="19.784 30.023 21.854 30.023 37.676 30.023 39.627 30.023"/><circle class="cls-4" cx="51.745" cy="84.191" r="9.524" transform="translate(-40.807 123.392) rotate(-82.966)"/><path class="cls-9" d="M56.67,83.14s-1.5,1.986-2.266,2.1c-.931.142-2.546-1.058-2.546-1.058S49.512,83,49.021,83.14c-.713.2-2.085,2.1-2.085,2.1" transform="translate(-2.658 -1.845)"/><polyline class="cls-4" points="58.969 82.528 60.984 82.528 76.388 82.528 78.811 82.528 78.811 67.561 78.811 65.222"/><polyline class="cls-4" points="109.079 82.527 107.375 82.527 95.102 82.528 93.714 82.528 93.714 67.561"/><polygon class="cls-6" points="106.974 79.749 108.153 82.527 106.972 85.304 113.557 82.528 106.974 79.749"/><polyline class="cls-1" points="133.006 37.349 135.09 37.349 151.009 37.348 152.848 37.348"/><polyline class="cls-4" points="227.332 22.381 225.594 22.381 213.355 22.381 211.967 22.381"/><polygon class="cls-6" points="225.226 19.604 226.406 22.381 225.226 25.158 231.81 22.381 225.226 19.604"/><line class="cls-3" x1="211.15" y1="7.414" x2="211.15" y2="37.348"/><circle class="cls-10" cx="167.844" cy="22.381" r="8.504"/><circle class="cls-1" cx="175.421" cy="22.381" r="8.504"/><path d="M209.522,5.432a1.467,1.467,0,0,1-1.6,1.313H205.11V6.522h.172c.553,0,.567-.079.567-.337V2.4c0-.258-.014-.337-.567-.337h-.172V1.845h2.626a1.439,1.439,0,0,1,1.592,1.212c0,.531-.5.99-1.19,1.126A1.41,1.41,0,0,1,209.522,5.432Zm-2.038-1.313a1.083,1.083,0,0,0,1.149-1.062.953.953,0,0,0-.947-.99h-.89c-.337,0-.351.051-.351.287V4.119Zm1.321,1.305a1.075,1.075,0,0,0-1.012-1.147h-1.348V6.235c0,.237.014.287.351.287h.9A1.084,1.084,0,0,0,208.805,5.424Z" transform="translate(-2.658 -1.845)"/><path d="M211.81,6.824c-1.09,0-1.09-.653-1.09-1.213V4.535c0-.639,0-.66-.56-.66V3.652l1.055-.078V5.955c0,.374.028.711.63.711.524,0,.869-.488.869-1.112V4.277c0-.352-.058-.4-.56-.4V3.652l1.055-.078V6.12c0,.352.057.4.559.4v.223l-1.033.079V6.178A.978.978,0,0,1,211.81,6.824Z" transform="translate(-2.658 -1.845)"/><path d="M214.457,5.023a.765.765,0,0,1-.309-.61c0-.4.273-.882,1.148-.882a1.112,1.112,0,0,1,.675.2,1,1,0,0,0,.121-.114c.094-.086.108-.086.144-.086.078,0,.078.05.078.172v.724c0,.137,0,.173-.092.173a.077.077,0,0,1-.087-.065.791.791,0,0,0-.839-.868c-.617,0-.8.294-.8.545,0,.416.48.509.882.589a1.459,1.459,0,0,1,.818.344.925.925,0,0,1,.3.682c0,.516-.33,1-1.155,1a1.072,1.072,0,0,1-.79-.309,1.953,1.953,0,0,0-.143.165c-.136.137-.143.144-.179.144-.079,0-.079-.05-.079-.173V5.7c0-.128,0-.179.094-.179.071,0,.078.029.1.122.137.61.4,1.019,1,1.019.56,0,.811-.287.811-.653,0-.517-.589-.632-.747-.66A1.876,1.876,0,0,1,214.457,5.023Z" transform="translate(-2.658 -1.845)"/><path d="M219.327,5.561V5.339l2.2-3.365c.056-.086.078-.086.143-.086.115,0,.115.043.115.187V5.339h.717v.222h-.717v.624c0,.258.014.337.545.337h.151v.223c-.3-.022-.675-.022-.976-.022s-.675,0-.968.022V6.522h.15c.531,0,.545-.079.545-.337V5.561Zm1.951-2.9-1.75,2.676h1.75Z" transform="translate(-2.658 -1.845)"/><polyline class="cls-4" points="131.306 37.349 125.637 37.349 120.884 33.926"/><polyline class="cls-4" points="120.884 37.349 93.759 37.35 93.759 57"/><polyline class="cls-4" points="93.759 67.362 93.759 61.693 90.323 57.03"/></svg>