<svg id="Layer_1" data-name="Layer 1" xmlns="http://www.w3.org/2000/svg" viewBox="0 0 231.61 92.371"><defs><style>.cls-1,.cls-10,.cls-3,.cls-4,.cls-5,.cls-9{fill:none;}.cls-1,.cls-3{stroke:#010101;}.cls-1,.cls-10,.cls-2,.cls-3,.cls-4,.cls-5,.cls-7,.cls-9{stroke-miterlimit:10;}.cls-2{fill:#fff;}.cls-2,.cls-4,.cls-5{stroke:#231f20;}.cls-3{stroke-width:1.9px;}.cls-5{stroke-width:0.7px;}.cls-6{fill:#231f20;}.cls-7,.cls-8{fill:#be1e2d;}.cls-7{stroke:#be1e2d;}.cls-9{stroke:#000;}.cls-10{stroke:#ed1c24;}</style></defs><line class="cls-1" x1="155.249" y1="22.381" x2="158.959" y2="22.381"/><line class="cls-2" x1="128.762" y1="22.381" x2="131.861" y2="22.381"/><line class="cls-2" x1="63.786" y1="22.381" x2="108.539" y2="22.381"/><path class="cls-2" d="M73.653,23.464" transform="translate(-1.125 -1.082)"/><path class="cls-2" d="M62.1,23.464" transform="translate(-1.125 -1.082)"/><line class="cls-2" x1="40.917" y1="22.381" x2="43.563" y2="22.381"/><line class="cls-3" x1="40.4" y1="14.898" x2="40.4" y2="44.832"/><line class="cls-4" x1="43.657" y1="37.349" x2="40.263" y2="37.348"/><polyline class="cls-4" points="78.611 44.999 78.611 37.349 63.882 37.349"/><line class="cls-3" x1="71.127" y1="68.115" x2="101.061" y2="68.115"/><line class="cls-3" x1="131.857" y1="14.898" x2="131.857" y2="44.832"/><line class="cls-1" x1="132.765" y1="22.381" x2="135.099" y2="22.381"/><line class="cls-1" x1="207.871" y1="22.381" x2="212.065" y2="22.381"/><path d="M37.425,12.349a1.466,1.466,0,0,1-1.6,1.312H33.013v-.222h.172c.553,0,.567-.079.567-.337V9.321c0-.258-.014-.337-.567-.337h-.172V8.762h2.626a1.44,1.44,0,0,1,1.592,1.212c0,.531-.5.99-1.19,1.127A1.407,1.407,0,0,1,37.425,12.349Zm-2.037-1.313a1.083,1.083,0,0,0,1.148-1.062.953.953,0,0,0-.947-.99H34.7c-.337,0-.352.05-.352.287v1.765Zm1.32,1.306A1.076,1.076,0,0,0,35.7,11.193H34.347v1.959c0,.237.015.287.352.287h.9A1.084,1.084,0,0,0,36.708,12.342Z" transform="translate(-1.125 -1.082)"/><path d="M39.713,13.74c-1.091,0-1.091-.652-1.091-1.212V11.452c0-.638,0-.66-.559-.66V10.57l1.054-.08v2.382c0,.373.029.711.632.711.523,0,.868-.488.868-1.112V11.193c0-.351-.058-.4-.56-.4V10.57l1.055-.08v2.548c0,.351.057.4.559.4v.222l-1.033.079V13.1A.978.978,0,0,1,39.713,13.74Z" transform="translate(-1.125 -1.082)"/><path d="M42.36,11.939a.762.762,0,0,1-.309-.609c0-.4.273-.883,1.148-.883a1.1,1.1,0,0,1,.674.2A.881.881,0,0,0,44,10.534c.094-.087.108-.087.144-.087.079,0,.079.051.079.173v.725c0,.135,0,.172-.094.172a.077.077,0,0,1-.086-.065.791.791,0,0,0-.839-.868c-.617,0-.8.294-.8.545,0,.416.481.509.883.588a1.467,1.467,0,0,1,.818.345.925.925,0,0,1,.3.681c0,.517-.33,1-1.155,1a1.071,1.071,0,0,1-.789-.308,2.14,2.14,0,0,0-.144.165c-.136.136-.143.143-.179.143-.079,0-.079-.05-.079-.171v-.948c0-.129,0-.179.093-.179.072,0,.079.029.1.122.136.609.394,1.019,1,1.019.56,0,.811-.287.811-.653,0-.517-.589-.631-.747-.66A1.875,1.875,0,0,1,42.36,11.939Z" transform="translate(-1.125 -1.082)"/><path d="M49.138,13.1c0,.265.022.344.667.344h.23v.222c-.251-.021-.875-.021-1.162-.021s-.911,0-1.162.021v-.222h.229c.646,0,.667-.086.667-.344V9.379a2.153,2.153,0,0,1-.94.186V9.343a1.773,1.773,0,0,0,1.306-.459c.165,0,.165.014.165.186Z" transform="translate(-1.125 -1.082)"/><line class="cls-4" x1="128.762" y1="37.348" x2="131.861" y2="37.348"/><polyline class="cls-4" points="93.513 44.999 93.513 37.349 108.539 37.348"/><line class="cls-4" x1="152.572" y1="36.848" x2="152.572" y2="51.85"/><path class="cls-4" d="M161.055,60.353a7.088,7.088,0,1,0-7.088,7.088A7.087,7.087,0,0,0,161.055,60.353Z" transform="translate(-1.125 -1.082)"/><path class="cls-5" d="M158.927,60.353a4.96,4.96,0,1,0-4.96,4.96A4.959,4.959,0,0,0,158.927,60.353Z" transform="translate(-1.125 -1.082)"/><path class="cls-6" d="M155.505,62.749a3.288,3.288,0,0,1-1.352.243,2.393,2.393,0,0,1-2.529-2.59,2.548,2.548,0,0,1,2.674-2.689,2.734,2.734,0,0,1,1.215.228l-.16.539a2.4,2.4,0,0,0-1.033-.213,1.9,1.9,0,0,0-2,2.112,1.86,1.86,0,0,0,1.966,2.058,2.65,2.65,0,0,0,1.08-.212Z" transform="translate(-1.125 -1.082)"/><path d="M108.593,70.334a1.466,1.466,0,0,1-1.6,1.313h-2.812v-.223h.172c.553,0,.567-.078.567-.337v-3.78c0-.258-.014-.338-.567-.338h-.172v-.222h2.626a1.44,1.44,0,0,1,1.592,1.212c0,.531-.5.99-1.19,1.127A1.408,1.408,0,0,1,108.593,70.334Zm-2.037-1.313a1.083,1.083,0,0,0,1.148-1.062.954.954,0,0,0-.947-.99h-.89c-.337,0-.351.051-.351.287v1.765Zm1.32,1.306a1.075,1.075,0,0,0-1.012-1.148h-1.348v1.958c0,.237.014.287.351.287h.9A1.084,1.084,0,0,0,107.876,70.327Z" transform="translate(-1.125 -1.082)"/><path d="M110.881,71.726c-1.09,0-1.09-.653-1.09-1.212V69.437c0-.638,0-.659-.56-.659v-.223l1.055-.079v2.381c0,.374.028.711.631.711.523,0,.868-.488.868-1.112V69.179c0-.351-.058-.4-.56-.4v-.223l1.055-.079v2.547c0,.351.057.4.559.4v.223l-1.033.079V71.08A.978.978,0,0,1,110.881,71.726Z" transform="translate(-1.125 -1.082)"/><path d="M113.528,69.925a.762.762,0,0,1-.309-.609c0-.4.273-.883,1.148-.883a1.1,1.1,0,0,1,.674.2.887.887,0,0,0,.122-.115c.094-.086.108-.086.144-.086.079,0,.079.05.079.172v.725c0,.136,0,.172-.094.172a.077.077,0,0,1-.086-.065.79.79,0,0,0-.839-.867c-.617,0-.8.293-.8.544,0,.417.481.51.883.589a1.466,1.466,0,0,1,.818.344.925.925,0,0,1,.3.682c0,.516-.33,1-1.155,1a1.069,1.069,0,0,1-.789-.309,2.14,2.14,0,0,0-.144.165c-.136.137-.143.144-.179.144-.079,0-.079-.05-.079-.172v-.947c0-.129,0-.18.093-.18.072,0,.079.029.1.123.136.609.394,1.018,1,1.018.56,0,.811-.287.811-.653,0-.517-.589-.631-.747-.66A1.867,1.867,0,0,1,113.528,69.925Z" transform="translate(-1.125 -1.082)"/><path d="M120.4,71.094a2.351,2.351,0,0,0,.681-.057,2.356,2.356,0,0,0,.158-.639h.179l-.2,1.249h-2.661c0-.172,0-.187.079-.266l1.377-1.535a2.567,2.567,0,0,0,.753-1.585c0-.589-.308-1.169-.961-1.169a1.033,1.033,0,0,0-.968.731.274.274,0,0,1,.093-.007.363.363,0,0,1,.38.373.377.377,0,1,1-.753-.022,1.325,1.325,0,0,1,1.341-1.3,1.409,1.409,0,0,1,1.521,1.392c0,.717-.43,1.105-1.549,2.095l-.761.738Z" transform="translate(-1.125 -1.082)"/><path d="M128.718,12.269a1.468,1.468,0,0,1-1.6,1.314h-2.812V13.36h.172c.552,0,.566-.079.566-.337V9.242c0-.258-.014-.337-.566-.337h-.172V8.683h2.625A1.44,1.44,0,0,1,128.524,9.9c0,.531-.5.99-1.191,1.126A1.41,1.41,0,0,1,128.718,12.269Zm-2.038-1.313A1.081,1.081,0,0,0,127.828,9.9a.953.953,0,0,0-.947-.99h-.889c-.338,0-.352.05-.352.287v1.764ZM128,12.262a1.074,1.074,0,0,0-1.011-1.147H125.64v1.958c0,.237.014.287.352.287h.9A1.085,1.085,0,0,0,128,12.262Z" transform="translate(-1.125 -1.082)"/><path d="M131.005,13.661c-1.09,0-1.09-.652-1.09-1.212V11.373c0-.639,0-.661-.56-.661V10.49l1.055-.078v2.381c0,.373.029.711.631.711.524,0,.868-.488.868-1.112V11.115c0-.352-.057-.4-.559-.4V10.49l1.054-.078v2.546c0,.352.058.4.56.4v.223l-1.033.078v-.645A.98.98,0,0,1,131.005,13.661Z" transform="translate(-1.125 -1.082)"/><path d="M133.652,11.86a.764.764,0,0,1-.309-.609c0-.4.273-.883,1.148-.883a1.106,1.106,0,0,1,.675.2.945.945,0,0,0,.122-.115c.093-.086.108-.086.143-.086.079,0,.079.051.079.173v.724c0,.137,0,.172-.093.172-.014,0-.079,0-.086-.064a.792.792,0,0,0-.84-.869c-.617,0-.8.294-.8.546,0,.416.481.509.882.588a1.46,1.46,0,0,1,.818.344.925.925,0,0,1,.3.682c0,.516-.329,1-1.154,1a1.074,1.074,0,0,1-.79-.308,1.521,1.521,0,0,0-.143.165c-.137.136-.144.143-.179.143-.08,0-.08-.05-.08-.172v-.947c0-.129,0-.179.094-.179.072,0,.079.029.1.121.137.611.395,1.02,1,1.02.559,0,.81-.288.81-.653,0-.517-.588-.632-.746-.661A1.866,1.866,0,0,1,133.652,11.86Z" transform="translate(-1.125 -1.082)"/><path d="M141.6,12.356a1.463,1.463,0,0,1-1.528,1.384,1.309,1.309,0,0,1-1.449-1.126.4.4,0,1,1,.8-.014.393.393,0,0,1-.474.394,1.306,1.306,0,0,0,1.1.545c.315,0,.81-.208.81-1.183,0-.7-.265-1.191-.854-1.191h-.315c-.122,0-.172,0-.172-.079s.05-.08.107-.087.223-.014.28-.021a.7.7,0,0,0,.639-.373,1.8,1.8,0,0,0,.2-.818c0-.645-.394-.8-.688-.8a1.164,1.164,0,0,0-.955.445c.108,0,.445,0,.445.358a.366.366,0,1,1-.731-.007c0-.545.545-.976,1.269-.976.689,0,1.321.4,1.321.99a1.383,1.383,0,0,1-1.005,1.263A1.383,1.383,0,0,1,141.6,12.356Z" transform="translate(-1.125 -1.082)"/><path class="cls-6" d="M56.741,21.013a1.121,1.121,0,0,1-2.032.09,3.039,3.039,0,0,1-.271-1.445,3.193,3.193,0,0,1,.223-1.362,1.1,1.1,0,0,1,1.043-.713,1.111,1.111,0,0,1,1.019.671,3.214,3.214,0,0,1,.24,1.4A3.194,3.194,0,0,1,56.741,21.013Zm-.342-.186a7.419,7.419,0,0,0,.066-1.241,7.5,7.5,0,0,0-.059-1.17c-.114-.593-.51-.7-.708-.7-.15,0-.6.053-.714.767a8.048,8.048,0,0,0-.048,1.1A8.051,8.051,0,0,0,55,20.851c.107.576.461.726.7.726C55.967,21.577,56.309,21.4,56.4,20.827Z" transform="translate(-1.125 -1.082)"/><path class="cls-6" d="M58.039,21.577a.318.318,0,1,1,.317-.318A.32.32,0,0,1,58.039,21.577Z" transform="translate(-1.125 -1.082)"/><path class="cls-6" d="M60.318,20.269a1.26,1.26,0,0,1-1.2-1.337,1.283,1.283,0,0,1,.384-.972,1.16,1.16,0,0,1,.881-.377c.534,0,1.223.408,1.223,2.02,0,1.29-.731,2.1-1.505,2.1-.51,0-.834-.245-.834-.647a.276.276,0,1,1,.552-.012c0,.1-.048.276-.312.276a.781.781,0,0,0,.588.215c.348,0,.972-.275.972-1.678V19.67A.82.82,0,0,1,60.318,20.269Zm.737-1.217a2.987,2.987,0,0,0-.095-.846.621.621,0,0,0-1.175-.1,1.689,1.689,0,0,0-.126.828,1.965,1.965,0,0,0,.107.815.578.578,0,0,0,.558.378C60.852,20.131,61.055,19.55,61.055,19.052Z" transform="translate(-1.125 -1.082)"/><path class="cls-6" d="M63.408,19.016a1.257,1.257,0,0,1,1.2,1.337,1.282,1.282,0,0,1-1.235,1.355c-.558,0-1.253-.425-1.253-2.026,0-1.326.809-2.1,1.577-2.1.5,0,.762.288.762.647a.276.276,0,1,1-.552.013c0-.27.239-.27.33-.27a.618.618,0,0,0-.528-.24c-.306,0-1.049.216-1.049,1.733v.144A.828.828,0,0,1,63.408,19.016Zm.557,2.135a1.983,1.983,0,0,0,.1-.8,1.979,1.979,0,0,0-.108-.821.579.579,0,0,0-.558-.372c-.54,0-.731.6-.731,1.067a2.952,2.952,0,0,0,.107.87.69.69,0,0,0,.594.449A.624.624,0,0,0,63.965,21.151Z" transform="translate(-1.125 -1.082)"/><line class="cls-7" x1="63.482" y1="22.382" x2="47.253" y2="22.382"/><polygon class="cls-8" points="48.589 24.292 47.775 22.382 48.589 20.471 44.059 22.381 48.589 24.292"/><line class="cls-7" x1="108.938" y1="22.382" x2="125.168" y2="22.382"/><polygon class="cls-8" points="123.832 24.292 124.645 22.382 123.832 20.471 128.361 22.382 123.832 24.292"/><path class="cls-6" d="M111.292,21.1c0,.222.018.288.557.288h.193v.186c-.21-.018-.732-.018-.972-.018s-.762,0-.972.018V21.39h.193c.54,0,.557-.072.557-.288V18a1.793,1.793,0,0,1-.785.156v-.186a1.482,1.482,0,0,0,1.091-.384c.138,0,.138.012.138.156Z" transform="translate(-1.125 -1.082)"/><path class="cls-6" d="M113.363,21.576a.318.318,0,1,1,.317-.318A.32.32,0,0,1,113.363,21.576Z" transform="translate(-1.125 -1.082)"/><path class="cls-6" d="M116.637,19.831a1.08,1.08,0,0,1,.294.738,1.2,1.2,0,0,1-1.247,1.139,1.144,1.144,0,0,1-1.241-1.037,1.324,1.324,0,0,1,.863-1.1,3.887,3.887,0,0,1-.437-.323.96.96,0,0,1-.264-.66,1.042,1.042,0,0,1,1.085-1,.99.99,0,0,1,1.079.894,1.11,1.11,0,0,1-.726.929A2.506,2.506,0,0,1,116.637,19.831Zm-1.894.84a.9.9,0,0,0,.947.869.863.863,0,0,0,.941-.755.8.8,0,0,0-.449-.66l-.738-.468A1.175,1.175,0,0,0,114.743,20.671Zm1.169-1.356a1.016,1.016,0,0,0,.593-.839.781.781,0,0,0-.821-.744c-.426,0-.815.252-.815.618a.556.556,0,0,0,.3.485Z" transform="translate(-1.125 -1.082)"/><path class="cls-6" d="M118.576,21.708a1.1,1.1,0,0,1-1.085-1.1.3.3,0,1,1,.294.269.3.3,0,0,1-.1-.011.934.934,0,0,0,.881.671.751.751,0,0,0,.642-.39,1.74,1.74,0,0,0,.144-.821,1.863,1.863,0,0,0-.108-.756.588.588,0,0,0-.51-.384.9.9,0,0,0-.774.42c-.024.036-.036.054-.078.054-.084,0-.084-.048-.084-.156V17.732c0-.1,0-.144.061-.144a.176.176,0,0,1,.071.018,1.948,1.948,0,0,0,.8.168,2.015,2.015,0,0,0,.816-.173c.03-.019.041-.019.047-.019a.059.059,0,0,1,.061.066,1.308,1.308,0,0,1-1.157.624,1.888,1.888,0,0,1-.51-.078v1.169a1.054,1.054,0,0,1,.761-.3,1.23,1.23,0,0,1,1.139,1.313A1.324,1.324,0,0,1,118.576,21.708Z" transform="translate(-1.125 -1.082)"/><path class="cls-6" d="M52.967,36.07c0,.221.019.287.558.287h.192v.186c-.21-.018-.731-.018-.971-.018s-.762,0-.972.018v-.186h.192c.54,0,.558-.071.558-.287V32.963a1.793,1.793,0,0,1-.785.156v-.185a1.482,1.482,0,0,0,1.091-.384c.137,0,.137.011.137.155Z" transform="translate(-1.125 -1.082)"/><path class="cls-6" d="M56.651,34.8a1.08,1.08,0,0,1,.294.738A1.2,1.2,0,0,1,55.7,36.675a1.144,1.144,0,0,1-1.241-1.037,1.321,1.321,0,0,1,.863-1.1,3.871,3.871,0,0,1-.438-.324.956.956,0,0,1-.263-.66,1.042,1.042,0,0,1,1.085-1,.99.99,0,0,1,1.079.893,1.11,1.11,0,0,1-.726.929A2.506,2.506,0,0,1,56.651,34.8Zm-1.9.84a.9.9,0,0,0,.948.869.862.862,0,0,0,.941-.755.8.8,0,0,0-.449-.66l-.738-.468A1.176,1.176,0,0,0,54.756,35.638Zm1.169-1.355a1.016,1.016,0,0,0,.594-.84A.781.781,0,0,0,55.7,32.7c-.426,0-.816.252-.816.617a.56.56,0,0,0,.3.486Z" transform="translate(-1.125 -1.082)"/><path class="cls-6" d="M58.039,36.543a.318.318,0,1,1,.317-.317A.32.32,0,0,1,58.039,36.543Z" transform="translate(-1.125 -1.082)"/><path class="cls-6" d="M59.035,35.554v-.186l1.841-2.812c.047-.072.066-.072.12-.072.095,0,.095.035.095.156v2.728h.6v.186h-.6v.522c0,.215.012.281.456.281h.126v.186c-.246-.018-.563-.018-.815-.018s-.564,0-.81.018v-.186h.126c.444,0,.456-.066.456-.281v-.522Zm1.631-2.423L59.2,35.368h1.463Z" transform="translate(-1.125 -1.082)"/><path class="cls-6" d="M63.408,33.983a1.257,1.257,0,0,1,1.2,1.337,1.282,1.282,0,0,1-1.235,1.355c-.558,0-1.253-.426-1.253-2.027,0-1.325.809-2.1,1.577-2.1.5,0,.762.287.762.647a.276.276,0,1,1-.552.012c0-.27.239-.27.33-.27a.619.619,0,0,0-.528-.239c-.306,0-1.049.215-1.049,1.733v.144A.828.828,0,0,1,63.408,33.983Zm.557,2.135a3.182,3.182,0,0,0-.005-1.625.579.579,0,0,0-.558-.372c-.54,0-.731.6-.731,1.067a2.955,2.955,0,0,0,.107.87.691.691,0,0,0,.594.449A.626.626,0,0,0,63.965,36.118Z" transform="translate(-1.125 -1.082)"/><line class="cls-7" x1="63.482" y1="37.349" x2="47.25" y2="37.349"/><polygon class="cls-8" points="48.586 39.258 47.773 37.349 48.586 35.438 44.057 37.349 48.586 39.258"/><line class="cls-7" x1="78.611" y1="64.822" x2="78.61" y2="48.592"/><polygon class="cls-8" points="76.701 49.928 78.61 49.115 80.522 49.928 78.61 45.399 76.701 49.928"/><path class="cls-6" d="M65.739,57.68c0,.221.019.287.558.287h.192v.186c-.21-.018-.731-.018-.972-.018s-.761,0-.971.018v-.186h.192c.54,0,.558-.072.558-.287V54.573a1.8,1.8,0,0,1-.786.156v-.186A1.483,1.483,0,0,0,65.6,54.16c.138,0,.138.011.138.155Z" transform="translate(-1.125 -1.082)"/><path class="cls-6" d="M68.361,58.285a1.1,1.1,0,0,1-1.085-1.1.3.3,0,1,1,.294.269.281.281,0,0,1-.1-.011.935.935,0,0,0,.881.671.751.751,0,0,0,.642-.389,1.744,1.744,0,0,0,.144-.822,1.846,1.846,0,0,0-.108-.756.586.586,0,0,0-.51-.383.9.9,0,0,0-.773.419c-.025.036-.036.054-.078.054-.084,0-.084-.048-.084-.156V54.31c0-.1,0-.145.06-.145a.171.171,0,0,1,.072.019,1.944,1.944,0,0,0,.8.168,2,2,0,0,0,.816-.174.088.088,0,0,1,.048-.018.058.058,0,0,1,.06.066,1.31,1.31,0,0,1-1.157.623,1.894,1.894,0,0,1-.51-.078V55.94a1.054,1.054,0,0,1,.761-.3,1.23,1.23,0,0,1,1.14,1.313A1.325,1.325,0,0,1,68.361,58.285Z" transform="translate(-1.125 -1.082)"/><path class="cls-6" d="M70.81,58.153a.318.318,0,1,1,.318-.318A.319.319,0,0,1,70.81,58.153Z" transform="translate(-1.125 -1.082)"/><path class="cls-6" d="M73.683,55.641a2.666,2.666,0,0,0-.372,1.025,6.717,6.717,0,0,0-.065.983v.307c0,.06,0,.329-.277.329s-.275-.269-.275-.329a4.184,4.184,0,0,1,.737-2.255c.132-.2.606-.852.672-.948H72.862a3.035,3.035,0,0,0-.588.036,1.676,1.676,0,0,0-.15.546h-.15l.2-1.235h.149c.024.113.036.191.768.191h1.457c0,.126,0,.138-.054.21Z" transform="translate(-1.125 -1.082)"/><path class="cls-6" d="M76.4,57.68c0,.221.019.287.558.287h.192v.186c-.21-.018-.731-.018-.972-.018s-.761,0-.971.018v-.186H75.4c.54,0,.558-.072.558-.287V54.573a1.8,1.8,0,0,1-.785.156v-.186a1.482,1.482,0,0,0,1.09-.383c.138,0,.138.011.138.155Z" transform="translate(-1.125 -1.082)"/><line class="cls-7" x1="93.513" y1="64.822" x2="93.512" y2="48.592"/><polygon class="cls-8" points="91.603 49.928 93.512 49.115 95.423 49.928 93.512 45.399 91.603 49.928"/><path class="cls-6" d="M98.45,57.68c0,.221.019.287.558.287H99.2v.186c-.21-.018-.731-.018-.971-.018s-.762,0-.972.018v-.186h.192c.54,0,.558-.072.558-.287V54.573a1.8,1.8,0,0,1-.785.156v-.186a1.485,1.485,0,0,0,1.091-.383c.137,0,.137.011.137.155Z" transform="translate(-1.125 -1.082)"/><path class="cls-6" d="M101.528,57.691a2,2,0,0,0,.571-.047,2.052,2.052,0,0,0,.132-.534h.149l-.168,1.043H99.987c0-.144,0-.155.067-.221l1.151-1.284a2.151,2.151,0,0,0,.629-1.325c0-.492-.258-.978-.8-.978a.863.863,0,0,0-.809.612.218.218,0,0,1,.077-.006.3.3,0,0,1,.318.312.315.315,0,1,1-.63-.018,1.108,1.108,0,0,1,1.121-1.085,1.178,1.178,0,0,1,1.272,1.163c0,.6-.359.924-1.3,1.751l-.636.617Z" transform="translate(-1.125 -1.082)"/><path class="cls-6" d="M103.522,58.153a.318.318,0,1,1,.317-.318A.32.32,0,0,1,103.522,58.153Z" transform="translate(-1.125 -1.082)"/><path class="cls-6" d="M105.891,55.593a1.257,1.257,0,0,1,1.2,1.337,1.282,1.282,0,0,1-1.235,1.355c-.558,0-1.253-.426-1.253-2.027,0-1.325.809-2.1,1.577-2.1.5,0,.761.287.761.647a.276.276,0,1,1-.551.012c0-.27.239-.27.33-.27a.62.62,0,0,0-.529-.239c-.3,0-1.048.215-1.048,1.732v.144A.826.826,0,0,1,105.891,55.593Zm.557,2.135a1.983,1.983,0,0,0,.1-.8,1.96,1.96,0,0,0-.109-.821.577.577,0,0,0-.557-.373c-.54,0-.732.6-.732,1.068a2.92,2.92,0,0,0,.108.869.69.69,0,0,0,.594.45A.626.626,0,0,0,106.448,57.728Z" transform="translate(-1.125 -1.082)"/><path class="cls-6" d="M109.4,55.641a2.631,2.631,0,0,0-.372,1.025,6.718,6.718,0,0,0-.066.983v.307c0,.06,0,.329-.276.329s-.276-.269-.276-.329a4.187,4.187,0,0,1,.738-2.255c.131-.2.605-.852.672-.948h-1.242a3.035,3.035,0,0,0-.588.036,1.7,1.7,0,0,0-.15.546h-.149l.2-1.235h.149c.025.113.036.191.768.191h1.457c0,.126,0,.138-.054.21Z" transform="translate(-1.125 -1.082)"/><line class="cls-7" x1="108.938" y1="37.349" x2="125.168" y2="37.349"/><polygon class="cls-8" points="123.832 39.258 124.646 37.349 123.832 35.438 128.361 37.349 123.832 39.258"/><path class="cls-6" d="M111.292,36.069c0,.222.018.288.557.288h.193v.186c-.21-.018-.732-.018-.972-.018s-.762,0-.972.018v-.186h.193c.54,0,.557-.072.557-.288V32.963a1.793,1.793,0,0,1-.785.156v-.186a1.482,1.482,0,0,0,1.091-.384c.138,0,.138.012.138.156Z" transform="translate(-1.125 -1.082)"/><path class="cls-6" d="M113.914,36.675a1.1,1.1,0,0,1-1.085-1.1.3.3,0,1,1,.294.269.267.267,0,0,1-.1-.012.934.934,0,0,0,.881.672.748.748,0,0,0,.641-.39,1.731,1.731,0,0,0,.145-.821,1.863,1.863,0,0,0-.108-.756.588.588,0,0,0-.51-.384.9.9,0,0,0-.774.42c-.024.036-.036.054-.078.054-.084,0-.084-.048-.084-.156V32.7c0-.1,0-.144.061-.144a.176.176,0,0,1,.071.018,1.948,1.948,0,0,0,.8.168,1.983,1.983,0,0,0,.815-.174.09.09,0,0,1,.048-.018.059.059,0,0,1,.061.066,1.308,1.308,0,0,1-1.157.624,1.888,1.888,0,0,1-.51-.078V34.33a1.053,1.053,0,0,1,.761-.306,1.23,1.23,0,0,1,1.139,1.313A1.325,1.325,0,0,1,113.914,36.675Z" transform="translate(-1.125 -1.082)"/><path class="cls-6" d="M116.363,36.543a.318.318,0,1,1,.317-.318A.32.32,0,0,1,116.363,36.543Z" transform="translate(-1.125 -1.082)"/><path class="cls-6" d="M119.236,34.03a2.635,2.635,0,0,0-.372,1.026,6.7,6.7,0,0,0-.066.983v.306c0,.06,0,.33-.276.33s-.275-.27-.275-.33a4.187,4.187,0,0,1,.737-2.255c.132-.2.605-.851.672-.947h-1.241a3.03,3.03,0,0,0-.588.036,1.7,1.7,0,0,0-.151.546h-.149l.2-1.236h.15c.024.114.036.192.767.192H120.1c0,.126,0,.138-.054.21Z" transform="translate(-1.125 -1.082)"/><path class="cls-6" d="M121.732,33.982a1.257,1.257,0,0,1,1.2,1.338,1.283,1.283,0,0,1-1.235,1.355c-.558,0-1.253-.426-1.253-2.027,0-1.325.809-2.1,1.577-2.1.5,0,.762.288.762.648a.276.276,0,1,1-.552.012c0-.27.239-.27.33-.27a.62.62,0,0,0-.528-.24c-.306,0-1.049.216-1.049,1.733v.144A.828.828,0,0,1,121.732,33.982Zm.558,2.135a3.2,3.2,0,0,0-.006-1.625.579.579,0,0,0-.558-.372c-.54,0-.731.6-.731,1.067a2.952,2.952,0,0,0,.107.87.69.69,0,0,0,.594.45A.627.627,0,0,0,122.29,36.117Z" transform="translate(-1.125 -1.082)"/><path class="cls-6" d="M138.174,20.956a1.955,1.955,0,0,0,.57-.048,1.965,1.965,0,0,0,.132-.534h.149l-.168,1.044h-2.224c0-.144,0-.156.066-.222l1.152-1.283a2.153,2.153,0,0,0,.629-1.326c0-.491-.258-.977-.8-.977a.864.864,0,0,0-.81.612.225.225,0,0,1,.077-.006.3.3,0,0,1,.319.311.315.315,0,1,1-.63-.017,1.108,1.108,0,0,1,1.121-1.086,1.178,1.178,0,0,1,1.271,1.163c0,.6-.359.924-1.294,1.751l-.636.618Z" transform="translate(-1.125 -1.082)"/><path class="cls-6" d="M140.718,21.55a1.1,1.1,0,0,1-1.085-1.1.3.3,0,1,1,.294.269.267.267,0,0,1-.1-.012.934.934,0,0,0,.881.672.751.751,0,0,0,.642-.39,1.742,1.742,0,0,0,.144-.821,1.846,1.846,0,0,0-.108-.756.587.587,0,0,0-.51-.384.9.9,0,0,0-.773.42c-.025.036-.036.054-.078.054-.084,0-.084-.048-.084-.156V17.574c0-.1,0-.144.06-.144a.173.173,0,0,1,.071.018,1.951,1.951,0,0,0,.8.168,1.985,1.985,0,0,0,.816-.174.088.088,0,0,1,.048-.018.058.058,0,0,1,.06.066,1.308,1.308,0,0,1-1.157.624,1.888,1.888,0,0,1-.51-.078V19.2a1.055,1.055,0,0,1,.761-.306,1.23,1.23,0,0,1,1.139,1.313A1.325,1.325,0,0,1,140.718,21.55Z" transform="translate(-1.125 -1.082)"/><path class="cls-6" d="M143.167,21.418a.318.318,0,1,1,.317-.318A.319.319,0,0,1,143.167,21.418Z" transform="translate(-1.125 -1.082)"/><path class="cls-6" d="M146.735,20.393a1.223,1.223,0,0,1-1.277,1.157,1.094,1.094,0,0,1-1.211-.942.336.336,0,1,1,.672-.012.329.329,0,0,1-.4.33,1.09,1.09,0,0,0,.917.456c.264,0,.678-.174.678-.989,0-.588-.221-1-.714-1h-.263c-.1,0-.145,0-.145-.066s.042-.066.091-.072.186-.012.233-.018a.583.583,0,0,0,.535-.312,1.508,1.508,0,0,0,.168-.683c0-.54-.331-.672-.577-.672a.972.972,0,0,0-.8.372c.089,0,.372,0,.372.3a.306.306,0,1,1-.612-.006c0-.456.455-.816,1.062-.816.575,0,1.1.336,1.1.828a1.153,1.153,0,0,1-.839,1.055A1.157,1.157,0,0,1,146.735,20.393Z" transform="translate(-1.125 -1.082)"/><path class="cls-6" d="M149.04,18.905a2.635,2.635,0,0,0-.372,1.026,6.7,6.7,0,0,0-.065.983v.306c0,.06,0,.33-.277.33s-.275-.27-.275-.33a4.187,4.187,0,0,1,.737-2.255c.132-.2.606-.851.672-.947h-1.241a3.035,3.035,0,0,0-.588.036,1.669,1.669,0,0,0-.15.546h-.15l.2-1.236h.15c.024.114.036.192.767.192H149.9c0,.126,0,.138-.053.21Z" transform="translate(-1.125 -1.082)"/><line class="cls-7" x1="135.508" y1="22.382" x2="151.655" y2="22.382"/><polygon class="cls-8" points="150.319 24.292 151.132 22.382 150.319 20.471 154.848 22.381 150.319 24.292"/><path class="cls-6" d="M190.77,20.956a1.962,1.962,0,0,0,.57-.048,1.968,1.968,0,0,0,.131-.534h.15l-.168,1.044h-2.224c0-.144,0-.156.066-.222l1.15-1.283a2.143,2.143,0,0,0,.629-1.326c0-.491-.257-.977-.8-.977a.863.863,0,0,0-.809.612.218.218,0,0,1,.076-.006.3.3,0,0,1,.319.311.315.315,0,1,1-.629-.017,1.108,1.108,0,0,1,1.121-1.086,1.179,1.179,0,0,1,1.271,1.163c0,.6-.359.924-1.3,1.751l-.636.618Z" transform="translate(-1.125 -1.082)"/><path class="cls-6" d="M194.465,20.854a1.121,1.121,0,0,1-2.033.09,3.036,3.036,0,0,1-.27-1.445,3.189,3.189,0,0,1,.223-1.361,1.1,1.1,0,0,1,1.043-.714,1.11,1.11,0,0,1,1.019.672,3.222,3.222,0,0,1,.241,1.4A3.208,3.208,0,0,1,194.465,20.854Zm-.342-.186a7.3,7.3,0,0,0,.067-1.241,7.245,7.245,0,0,0-.061-1.169c-.113-.594-.51-.7-.707-.7-.15,0-.6.054-.715.768a8.2,8.2,0,0,0-.047,1.1,8.045,8.045,0,0,0,.067,1.265c.107.576.461.726.695.726C193.692,21.418,194.033,21.238,194.123,20.668Z" transform="translate(-1.125 -1.082)"/><path class="cls-6" d="M195.762,21.418a.318.318,0,1,1,.318-.318A.321.321,0,0,1,195.762,21.418Z" transform="translate(-1.125 -1.082)"/><path class="cls-6" d="M199.127,20.854a1.121,1.121,0,0,1-2.033.09,3.036,3.036,0,0,1-.27-1.445,3.189,3.189,0,0,1,.223-1.361,1.1,1.1,0,0,1,1.043-.714,1.11,1.11,0,0,1,1.019.672,3.222,3.222,0,0,1,.241,1.4A3.208,3.208,0,0,1,199.127,20.854Zm-.342-.186a7.3,7.3,0,0,0,.067-1.241,7.245,7.245,0,0,0-.061-1.169c-.113-.594-.51-.7-.707-.7-.15,0-.6.054-.715.768a8.2,8.2,0,0,0-.047,1.1,8.045,8.045,0,0,0,.067,1.265c.107.576.461.726.695.726C198.354,21.418,198.7,21.238,198.785,20.668Z" transform="translate(-1.125 -1.082)"/><path class="cls-6" d="M202.127,20.854a1.121,1.121,0,0,1-2.033.09,3.036,3.036,0,0,1-.27-1.445,3.189,3.189,0,0,1,.223-1.361,1.1,1.1,0,0,1,1.043-.714,1.11,1.11,0,0,1,1.019.672,3.222,3.222,0,0,1,.241,1.4A3.208,3.208,0,0,1,202.127,20.854Zm-.342-.186a7.3,7.3,0,0,0,.067-1.241,7.245,7.245,0,0,0-.061-1.169c-.113-.594-.51-.7-.707-.7-.15,0-.6.054-.715.768a8.2,8.2,0,0,0-.047,1.1,8.045,8.045,0,0,0,.067,1.265c.107.576.461.726.695.726C201.354,21.418,201.7,21.238,201.785,20.668Z" transform="translate(-1.125 -1.082)"/><line class="cls-7" x1="188.104" y1="22.382" x2="204.276" y2="22.382"/><polygon class="cls-8" points="202.94 24.292 203.754 22.382 202.94 20.471 207.47 22.381 202.94 24.292"/><line class="cls-1" x1="183.593" y1="22.381" x2="187.704" y2="22.381"/><circle class="cls-4" cx="11.149" cy="30.947" r="9.524" transform="translate(-5.952 1.111) rotate(-9.245)"/><path class="cls-9" d="M15.958,29.9s-1.5,1.986-2.267,2.1c-.93.142-2.546-1.058-2.546-1.058S8.8,29.757,8.308,29.9C7.6,30.1,6.224,32,6.224,32" transform="translate(-1.125 -1.082)"/><polyline class="cls-2" points="19.784 30.023 21.854 30.023 37.676 30.023 39.627 30.023"/><circle class="cls-4" cx="50.112" cy="83.429" r="9.524" transform="translate(-39.95 121.864) rotate(-82.966)"/><path class="cls-9" d="M55.037,82.377s-1.5,1.987-2.266,2.1c-.931.142-2.546-1.058-2.546-1.058s-2.346-1.184-2.837-1.045c-.713.2-2.085,2.1-2.085,2.1" transform="translate(-1.125 -1.082)"/><polyline class="cls-4" points="58.769 82.528 60.784 82.528 76.188 82.528 78.611 82.528 78.611 67.561 78.611 65.222"/><polyline class="cls-4" points="108.878 82.527 107.174 82.527 94.902 82.528 93.514 82.528 93.514 67.561 93.513 65.222"/><polygon class="cls-6" points="106.773 79.749 107.952 82.527 106.771 85.304 113.356 82.528 106.773 79.749"/><polyline class="cls-1" points="132.306 37.349 134.39 37.349 150.309 37.348 152.148 37.348"/><polyline class="cls-4" points="227.132 22.381 225.394 22.381 213.155 22.381 211.767 22.381"/><polygon class="cls-6" points="225.026 19.604 226.206 22.381 225.026 25.158 231.61 22.381 225.026 19.604"/><line class="cls-3" x1="210.95" y1="7.414" x2="210.95" y2="37.348"/><circle class="cls-10" cx="167.644" cy="22.381" r="8.504"/><circle class="cls-1" cx="175.221" cy="22.381" r="8.504"/><path d="M207.789,4.67a1.466,1.466,0,0,1-1.6,1.312h-2.813V5.759h.172c.553,0,.567-.078.567-.336V1.642c0-.258-.014-.338-.567-.338h-.172V1.082H206A1.44,1.44,0,0,1,207.6,2.294c0,.531-.5.99-1.19,1.127A1.408,1.408,0,0,1,207.789,4.67Zm-2.038-1.314A1.083,1.083,0,0,0,206.9,2.294a.954.954,0,0,0-.947-.99h-.89c-.337,0-.351.051-.351.287V3.356Zm1.321,1.306a1.076,1.076,0,0,0-1.012-1.148h-1.348V5.473c0,.236.014.286.351.286h.9A1.083,1.083,0,0,0,207.072,4.662Z" transform="translate(-1.125 -1.082)"/><path d="M210.076,6.061c-1.089,0-1.089-.653-1.089-1.212V3.772c0-.638,0-.659-.56-.659V2.89l1.055-.079V5.193c0,.373.028.71.63.71.524,0,.869-.487.869-1.112V3.514c0-.351-.058-.4-.56-.4V2.89l1.055-.079V5.358c0,.351.057.4.559.4v.223L211,6.061V5.416A.979.979,0,0,1,210.076,6.061Z" transform="translate(-1.125 -1.082)"/><path d="M212.724,4.26a.762.762,0,0,1-.309-.609c0-.4.273-.883,1.147-.883a1.1,1.1,0,0,1,.675.2.884.884,0,0,0,.122-.115c.094-.086.108-.086.144-.086.078,0,.078.05.078.173v.724c0,.136,0,.172-.093.172a.077.077,0,0,1-.086-.065.791.791,0,0,0-.84-.867c-.616,0-.8.294-.8.545,0,.416.48.509.882.588a1.466,1.466,0,0,1,.818.344.931.931,0,0,1,.3.682c0,.516-.33,1-1.155,1a1.072,1.072,0,0,1-.79-.309,1.81,1.81,0,0,0-.143.166c-.136.136-.143.143-.179.143-.079,0-.079-.05-.079-.172V4.942c0-.129,0-.18.093-.18.072,0,.079.029.1.123.137.609.395,1.018,1,1.018.56,0,.811-.287.811-.653,0-.517-.589-.631-.747-.66A1.867,1.867,0,0,1,212.724,4.26Z" transform="translate(-1.125 -1.082)"/><path d="M217.593,4.8V4.576l2.2-3.364c.057-.087.079-.087.144-.087.114,0,.114.043.114.187V4.576h.718V4.8h-.718v.625c0,.258.015.336.546.336h.151v.223c-.3-.022-.675-.022-.976-.022s-.675,0-.969.022V5.759h.151c.531,0,.545-.078.545-.336V4.8Zm1.952-2.9L217.8,4.576h1.75Z" transform="translate(-1.125 -1.082)"/></svg>