<svg id="Layer_1" data-name="Layer 1" xmlns="http://www.w3.org/2000/svg" viewBox="0 0 250.148 101.799">
  <defs>
    <style>
      .cls-1, .cls-10, .cls-3, .cls-4, .cls-5, .cls-9 {
        fill: none;
      }

      .cls-1, .cls-3 {
        stroke: #010101;
      }

      .cls-1, .cls-10, .cls-2, .cls-3, .cls-4, .cls-5, .cls-7, .cls-9 {
        stroke-miterlimit: 10;
      }

      .cls-2 {
        fill: #fff;
      }

      .cls-2, .cls-4, .cls-5 {
        stroke: #231f20;
      }

      .cls-3 {
        stroke-width: 1.9px;
      }

      .cls-5 {
        stroke-width: 0.7px;
      }

      .cls-6 {
        fill: #231f20;
      }

      .cls-7, .cls-8 {
        fill: #be1e2d;
      }

      .cls-7 {
        stroke: #be1e2d;
      }

      .cls-9 {
        stroke: #000;
      }

      .cls-10 {
        stroke: #ed1c24;
      }
    </style>
  </defs>
  <line class="cls-1" x1="160.849" y1="22.381" x2="164.559" y2="22.381"/>
  <line class="cls-2" x1="134.362" y1="22.381" x2="137.461" y2="22.381"/>
  <line class="cls-2" x1="69.386" y1="22.381" x2="114.139" y2="22.381"/>
  <path class="cls-2" d="M78.785,23.55" transform="translate(-0.657 -1.169)"/>
  <path class="cls-2" d="M67.228,23.55" transform="translate(-0.657 -1.169)"/>
  <line class="cls-2" x1="46.517" y1="22.381" x2="49.163" y2="22.381"/>
  <line class="cls-3" x1="46" y1="14.898" x2="46" y2="44.832"/>
  <line class="cls-4" x1="49.257" y1="37.349" x2="45.863" y2="37.348"/>
  <polyline class="cls-4" points="84.211 44.999 84.211 37.349 69.482 37.349"/>
  <line class="cls-3" x1="76.727" y1="68.115" x2="106.661" y2="68.115"/>
  <line class="cls-3" x1="137.457" y1="14.898" x2="137.457" y2="44.832"/>
  <line class="cls-1" x1="138.365" y1="22.381" x2="140.699" y2="22.381"/>
  <line class="cls-1" x1="213.371" y1="22.381" x2="217.565" y2="22.381"/>
  <g>
    <path d="M42.557,12.435a1.467,1.467,0,0,1-1.6,1.313H38.146v-.223h.172c.552,0,.566-.078.566-.337V9.407c0-.258-.014-.337-.566-.337h-.172V8.848h2.625a1.44,1.44,0,0,1,1.593,1.212c0,.531-.495.99-1.191,1.127A1.408,1.408,0,0,1,42.557,12.435ZM40.52,11.122a1.082,1.082,0,0,0,1.148-1.062.953.953,0,0,0-.947-.99h-.89c-.337,0-.351.05-.351.287v1.765Zm1.32,1.306a1.075,1.075,0,0,0-1.011-1.148H39.48v1.959c0,.237.014.286.351.286h.9A1.084,1.084,0,0,0,41.84,12.428Z" transform="translate(-0.657 -1.169)"/>
    <path d="M44.845,13.826c-1.09,0-1.09-.652-1.09-1.212V11.538c0-.638,0-.66-.56-.66v-.222l1.055-.079v2.382c0,.372.028.71.631.71.524,0,.868-.488.868-1.112V11.28c0-.352-.057-.4-.559-.4v-.222l1.054-.079v2.547c0,.352.058.4.56.4v.223l-1.033.078v-.645A.978.978,0,0,1,44.845,13.826Z" transform="translate(-0.657 -1.169)"/>
    <path d="M47.492,12.026a.765.765,0,0,1-.309-.61c0-.4.273-.882,1.148-.882a1.106,1.106,0,0,1,.675.2,1.106,1.106,0,0,0,.122-.115c.093-.086.107-.086.143-.086.079,0,.079.05.079.172v.725c0,.136,0,.172-.093.172a.076.076,0,0,1-.086-.065.793.793,0,0,0-.84-.868c-.617,0-.8.294-.8.546,0,.415.48.509.882.588a1.456,1.456,0,0,1,.818.344.925.925,0,0,1,.3.681c0,.517-.33,1-1.155,1a1.073,1.073,0,0,1-.789-.308,1.67,1.67,0,0,0-.143.165c-.137.136-.144.143-.18.143-.079,0-.079-.05-.079-.171v-.947c0-.13,0-.18.094-.18.072,0,.079.029.1.122.136.61.395,1.019,1,1.019.56,0,.811-.287.811-.653,0-.516-.588-.631-.746-.66A1.871,1.871,0,0,1,47.492,12.026Z" transform="translate(-0.657 -1.169)"/>
    <path d="M54.27,13.181c0,.266.022.344.668.344h.229v.223c-.251-.021-.875-.021-1.162-.021s-.911,0-1.162.021v-.223h.23c.645,0,.667-.085.667-.344V9.465a2.156,2.156,0,0,1-.94.186V9.429a1.774,1.774,0,0,0,1.306-.459c.164,0,.164.014.164.186Z" transform="translate(-0.657 -1.169)"/>
  </g>
  <line class="cls-4" x1="134.362" y1="37.348" x2="137.461" y2="37.348"/>
  <polyline class="cls-4" points="99.113 44.999 99.113 37.349 114.139 37.348"/>
  <line class="cls-4" x1="163.972" y1="36.848" x2="163.972" y2="51.85"/>
  <path class="cls-4" d="M171.987,60.44a7.087,7.087,0,1,0-7.087,7.087A7.088,7.088,0,0,0,171.987,60.44Z" transform="translate(-0.657 -1.169)"/>
  <path class="cls-5" d="M169.86,60.44a4.96,4.96,0,1,0-4.96,4.96A4.959,4.959,0,0,0,169.86,60.44Z" transform="translate(-0.657 -1.169)"/>
  <path class="cls-6" d="M166.438,62.835a3.3,3.3,0,0,1-1.353.243,2.393,2.393,0,0,1-2.529-2.59A2.548,2.548,0,0,1,165.23,57.8a2.742,2.742,0,0,1,1.215.228l-.16.539a2.41,2.41,0,0,0-1.033-.213,1.9,1.9,0,0,0-2,2.112,1.861,1.861,0,0,0,1.967,2.058,2.649,2.649,0,0,0,1.079-.212Z" transform="translate(-0.657 -1.169)"/>
  <g>
    <path d="M113.725,70.421a1.466,1.466,0,0,1-1.6,1.312h-2.812V71.51h.172c.552,0,.566-.078.566-.336V67.393c0-.258-.014-.338-.566-.338h-.172v-.222h2.625a1.441,1.441,0,0,1,1.593,1.212c0,.531-.495.99-1.191,1.127A1.408,1.408,0,0,1,113.725,70.421Zm-2.037-1.314a1.082,1.082,0,0,0,1.148-1.062.954.954,0,0,0-.947-.99H111c-.337,0-.351.051-.351.287v1.765Zm1.32,1.306A1.075,1.075,0,0,0,112,69.265h-1.349v1.959c0,.237.014.286.351.286h.9A1.083,1.083,0,0,0,113.008,70.413Z" transform="translate(-0.657 -1.169)"/>
    <path d="M116.013,71.812c-1.09,0-1.09-.652-1.09-1.212V69.524c0-.639,0-.66-.56-.66v-.223l1.055-.079v2.382c0,.373.028.711.631.711.524,0,.868-.488.868-1.113V69.265c0-.351-.057-.4-.559-.4v-.223l1.054-.079v2.547c0,.352.058.4.56.4v.223l-1.033.079v-.645A.98.98,0,0,1,116.013,71.812Z" transform="translate(-0.657 -1.169)"/>
    <path d="M118.66,70.011a.762.762,0,0,1-.309-.609c0-.4.273-.883,1.148-.883a1.106,1.106,0,0,1,.675.2.945.945,0,0,0,.122-.115c.093-.086.107-.086.143-.086.079,0,.079.05.079.173v.724c0,.136,0,.172-.093.172-.015,0-.079,0-.086-.064a.792.792,0,0,0-.84-.868c-.617,0-.8.294-.8.545,0,.416.48.509.882.588a1.463,1.463,0,0,1,.818.344.93.93,0,0,1,.3.682c0,.516-.329,1-1.155,1a1.073,1.073,0,0,1-.789-.308,1.521,1.521,0,0,0-.143.165c-.137.136-.144.143-.18.143-.079,0-.079-.05-.079-.172v-.947c0-.129,0-.179.094-.179.072,0,.079.028.1.122.136.609.395,1.019,1,1.019.56,0,.811-.288.811-.654,0-.516-.588-.631-.746-.66A1.871,1.871,0,0,1,118.66,70.011Z" transform="translate(-0.657 -1.169)"/>
    <path d="M125.532,71.181a2.309,2.309,0,0,0,.681-.058,2.357,2.357,0,0,0,.158-.638h.179l-.2,1.248h-2.662c0-.172,0-.187.079-.265l1.378-1.535a2.574,2.574,0,0,0,.753-1.586c0-.588-.309-1.169-.962-1.169a1.034,1.034,0,0,0-.968.731.277.277,0,0,1,.093-.007.363.363,0,0,1,.38.373.377.377,0,1,1-.753-.021,1.326,1.326,0,0,1,1.342-1.3,1.409,1.409,0,0,1,1.52,1.392c0,.717-.43,1.105-1.549,2.095l-.76.739Z" transform="translate(-0.657 -1.169)"/>
  </g>
  <g>
    <path d="M133.85,12.356a1.466,1.466,0,0,1-1.6,1.313h-2.812v-.223h.172c.553,0,.567-.079.567-.337V9.328c0-.257-.014-.337-.567-.337h-.172V8.769h2.626a1.44,1.44,0,0,1,1.592,1.212c0,.531-.5.99-1.19,1.126A1.409,1.409,0,0,1,133.85,12.356Zm-2.037-1.313a1.083,1.083,0,0,0,1.148-1.062.954.954,0,0,0-.948-.99h-.889c-.337,0-.352.05-.352.287v1.765Zm1.32,1.305a1.075,1.075,0,0,0-1.012-1.147h-1.349v1.958c0,.237.015.287.352.287h.9A1.084,1.084,0,0,0,133.133,12.348Z" transform="translate(-0.657 -1.169)"/>
    <path d="M136.138,13.748c-1.091,0-1.091-.653-1.091-1.212V11.459c0-.638,0-.66-.559-.66v-.222l1.054-.079v2.381c0,.374.029.711.631.711.524,0,.869-.488.869-1.112V11.2c0-.352-.058-.4-.56-.4v-.222l1.055-.079v2.547c0,.351.057.4.559.4v.223l-1.033.079V13.1A.979.979,0,0,1,136.138,13.748Z" transform="translate(-0.657 -1.169)"/>
    <path d="M138.785,11.946a.762.762,0,0,1-.309-.609c0-.4.273-.883,1.148-.883a1.1,1.1,0,0,1,.674.2.824.824,0,0,0,.122-.114c.094-.087.108-.087.144-.087.079,0,.079.051.079.173v.724c0,.137,0,.173-.094.173a.077.077,0,0,1-.086-.065.791.791,0,0,0-.839-.868c-.617,0-.8.294-.8.545,0,.417.481.509.883.588a1.467,1.467,0,0,1,.818.345.923.923,0,0,1,.3.682c0,.516-.33,1-1.155,1a1.069,1.069,0,0,1-.789-.309,1.9,1.9,0,0,0-.144.165c-.136.137-.143.144-.179.144-.079,0-.079-.051-.079-.173v-.947c0-.129,0-.179.093-.179.072,0,.079.029.1.122.136.61.394,1.019,1,1.019.56,0,.811-.287.811-.653,0-.517-.589-.631-.747-.66A1.866,1.866,0,0,1,138.785,11.946Z" transform="translate(-0.657 -1.169)"/>
    <path d="M146.733,12.442a1.463,1.463,0,0,1-1.529,1.384,1.309,1.309,0,0,1-1.449-1.126.4.4,0,1,1,.8-.014.393.393,0,0,1-.474.394,1.3,1.3,0,0,0,1.1.545c.316,0,.811-.208.811-1.183,0-.7-.266-1.191-.854-1.191h-.316c-.122,0-.172,0-.172-.079s.05-.079.108-.086.222-.014.28-.021a.694.694,0,0,0,.638-.374,1.784,1.784,0,0,0,.2-.818c0-.645-.395-.8-.689-.8a1.16,1.16,0,0,0-.954.444c.107,0,.445,0,.445.358a.366.366,0,1,1-.732-.007c0-.545.545-.975,1.27-.975.689,0,1.32.4,1.32.99a1.382,1.382,0,0,1-1,1.262A1.384,1.384,0,0,1,146.733,12.442Z" transform="translate(-0.657 -1.169)"/>
  </g>
  <g>
    <path class="cls-6" d="M52.708,20.638A1.223,1.223,0,0,1,51.431,21.8a1.094,1.094,0,0,1-1.211-.942.336.336,0,1,1,.672-.012.329.329,0,0,1-.4.33,1.093,1.093,0,0,0,.918.456c.264,0,.678-.174.678-.989,0-.588-.222-1-.714-1h-.263c-.1,0-.145,0-.145-.066s.042-.066.091-.072.185-.012.233-.018a.58.58,0,0,0,.534-.312A1.5,1.5,0,0,0,52,18.491c0-.54-.33-.672-.576-.672a.974.974,0,0,0-.8.372c.09,0,.372,0,.372.3a.306.306,0,1,1-.611-.006c0-.456.455-.816,1.062-.816.575,0,1.1.336,1.1.828a1.153,1.153,0,0,1-.839,1.055A1.157,1.157,0,0,1,52.708,20.638Z" transform="translate(-0.657 -1.169)"/>
    <path class="cls-6" d="M55.414,19.918a1.08,1.08,0,0,1,.294.738A1.2,1.2,0,0,1,54.461,21.8a1.144,1.144,0,0,1-1.241-1.037,1.326,1.326,0,0,1,.863-1.1,3.757,3.757,0,0,1-.437-.324.957.957,0,0,1-.264-.659,1.043,1.043,0,0,1,1.085-1,.99.99,0,0,1,1.079.894,1.113,1.113,0,0,1-.725.929A2.515,2.515,0,0,1,55.414,19.918Zm-1.894.84a.9.9,0,0,0,.947.869.864.864,0,0,0,.942-.756.8.8,0,0,0-.45-.659l-.738-.468A1.175,1.175,0,0,0,53.52,20.758ZM54.689,19.4a1.017,1.017,0,0,0,.594-.839.782.782,0,0,0-.822-.744c-.426,0-.815.252-.815.618a.556.556,0,0,0,.3.485Z" transform="translate(-0.657 -1.169)"/>
    <path class="cls-6" d="M56.8,21.663a.318.318,0,1,1,.317-.318A.319.319,0,0,1,56.8,21.663Z" transform="translate(-0.657 -1.169)"/>
    <path class="cls-6" d="M59.675,19.15a2.635,2.635,0,0,0-.372,1.026,6.7,6.7,0,0,0-.065.983v.306c0,.06,0,.33-.277.33s-.275-.27-.275-.33a4.187,4.187,0,0,1,.737-2.255c.132-.2.606-.851.672-.947H58.854a3.035,3.035,0,0,0-.588.036,1.669,1.669,0,0,0-.15.546h-.15l.2-1.236h.15c.024.114.036.192.767.192h1.457c0,.126,0,.138-.053.21Z" transform="translate(-0.657 -1.169)"/>
    <path class="cls-6" d="M62.471,21.2a1.955,1.955,0,0,0,.57-.048,1.965,1.965,0,0,0,.132-.534h.15l-.168,1.044H60.93c0-.144,0-.156.066-.222l1.152-1.283a2.153,2.153,0,0,0,.629-1.326c0-.491-.258-.977-.8-.977a.864.864,0,0,0-.81.612.228.228,0,0,1,.078-.006.3.3,0,0,1,.318.311.315.315,0,1,1-.63-.017,1.108,1.108,0,0,1,1.121-1.086,1.178,1.178,0,0,1,1.272,1.163c0,.6-.36.924-1.3,1.751l-.636.618Z" transform="translate(-0.657 -1.169)"/>
  </g>
  <g>
    <line class="cls-7" x1="49.563" y1="22.382" x2="65.793" y2="22.382"/>
    <polygon class="cls-8" points="64.457 24.292 65.27 22.382 64.457 20.471 68.986 22.381 64.457 24.292"/>
  </g>
  <g>
    <line class="cls-7" x1="114.538" y1="22.382" x2="130.768" y2="22.382"/>
    <polygon class="cls-8" points="129.432 24.292 130.245 22.382 129.432 20.471 133.961 22.382 129.432 24.292"/>
  </g>
  <g>
    <path class="cls-6" d="M117.684,20.637a1.223,1.223,0,0,1-1.278,1.157,1.093,1.093,0,0,1-1.211-.941.336.336,0,1,1,.672-.012.329.329,0,0,1-.4.33,1.091,1.091,0,0,0,.918.455c.263,0,.677-.174.677-.989,0-.588-.221-1-.713-1h-.264c-.1,0-.145,0-.145-.065s.042-.066.091-.072.186-.012.234-.018a.582.582,0,0,0,.534-.312,1.512,1.512,0,0,0,.168-.684c0-.539-.33-.671-.576-.671a.971.971,0,0,0-.8.371c.09,0,.372,0,.372.3a.306.306,0,1,1-.612-.006c0-.455.456-.815,1.062-.815.575,0,1.1.335,1.1.827a1.157,1.157,0,0,1-.839,1.056A1.156,1.156,0,0,1,117.684,20.637Z" transform="translate(-0.657 -1.169)"/>
    <path class="cls-6" d="M120.39,19.917a1.085,1.085,0,0,1,.294.738,1.2,1.2,0,0,1-1.247,1.139,1.145,1.145,0,0,1-1.242-1.037,1.322,1.322,0,0,1,.864-1.1,3.782,3.782,0,0,1-.438-.324.959.959,0,0,1-.264-.66,1.043,1.043,0,0,1,1.085-1,.991.991,0,0,1,1.08.893,1.113,1.113,0,0,1-.726.93A2.507,2.507,0,0,1,120.39,19.917Zm-1.895.84a.9.9,0,0,0,.947.869.862.862,0,0,0,.942-.755.8.8,0,0,0-.449-.66l-.739-.468A1.176,1.176,0,0,0,118.5,20.757Zm1.169-1.355a1.018,1.018,0,0,0,.594-.84.781.781,0,0,0-.821-.743c-.426,0-.816.252-.816.617a.56.56,0,0,0,.3.486Z" transform="translate(-0.657 -1.169)"/>
    <path class="cls-6" d="M121.777,21.662a.318.318,0,1,1,.318-.317A.32.32,0,0,1,121.777,21.662Z" transform="translate(-0.657 -1.169)"/>
    <path class="cls-6" d="M122.773,20.673v-.186l1.841-2.812c.048-.072.067-.072.12-.072.1,0,.1.036.1.156v2.728h.6v.186h-.6V21.2c0,.215.012.281.456.281h.126v.186c-.246-.018-.563-.018-.815-.018s-.565,0-.81.018v-.186h.126c.444,0,.455-.066.455-.281v-.522ZM124.4,18.25l-1.463,2.237H124.4Z" transform="translate(-0.657 -1.169)"/>
    <path class="cls-6" d="M127.446,21.2a1.962,1.962,0,0,0,.571-.048,2.016,2.016,0,0,0,.131-.534h.15l-.168,1.043h-2.225c0-.144,0-.155.067-.221l1.151-1.284a2.151,2.151,0,0,0,.629-1.325c0-.492-.258-.978-.8-.978a.863.863,0,0,0-.809.612.218.218,0,0,1,.077-.006.3.3,0,0,1,.318.312.315.315,0,1,1-.63-.018,1.108,1.108,0,0,1,1.121-1.085,1.178,1.178,0,0,1,1.272,1.163c0,.6-.359.924-1.3,1.751l-.636.618Z" transform="translate(-0.657 -1.169)"/>
  </g>
  <g>
    <path class="cls-6" d="M51.761,36.168a1.955,1.955,0,0,0,.57-.048,1.975,1.975,0,0,0,.132-.534h.15l-.168,1.044H50.22c0-.144,0-.156.066-.222l1.152-1.284a2.148,2.148,0,0,0,.629-1.325c0-.492-.258-.977-.8-.977a.865.865,0,0,0-.81.611.272.272,0,0,1,.078-.005.3.3,0,0,1,.318.311.315.315,0,1,1-.63-.017,1.108,1.108,0,0,1,1.121-1.086A1.178,1.178,0,0,1,52.613,33.8c0,.6-.36.924-1.3,1.751l-.636.618Z" transform="translate(-0.657 -1.169)"/>
    <path class="cls-6" d="M54.461,34.069a1.257,1.257,0,0,1,1.2,1.338,1.283,1.283,0,0,1-1.235,1.355c-.557,0-1.253-.426-1.253-2.027,0-1.325.81-2.1,1.577-2.1.5,0,.762.288.762.648a.276.276,0,1,1-.552.012c0-.27.24-.27.33-.27a.618.618,0,0,0-.528-.24c-.306,0-1.049.216-1.049,1.733v.144A.828.828,0,0,1,54.461,34.069Zm.558,2.135a3.2,3.2,0,0,0-.006-1.625.579.579,0,0,0-.558-.372c-.54,0-.731.6-.731,1.067a2.952,2.952,0,0,0,.107.87.692.692,0,0,0,.594.45A.627.627,0,0,0,55.019,36.2Z" transform="translate(-0.657 -1.169)"/>
    <path class="cls-6" d="M56.754,36.63a.318.318,0,1,1,.318-.318A.319.319,0,0,1,56.754,36.63Z" transform="translate(-0.657 -1.169)"/>
    <path class="cls-6" d="M59.627,34.117a2.671,2.671,0,0,0-.372,1.025,6.722,6.722,0,0,0-.065.984v.306c0,.06,0,.33-.277.33s-.275-.27-.275-.33a4.187,4.187,0,0,1,.737-2.255c.132-.2.606-.851.672-.947H58.806a3.121,3.121,0,0,0-.588.035,1.683,1.683,0,0,0-.15.546h-.15l.2-1.235h.149c.024.114.036.192.768.192h1.457c0,.126,0,.138-.054.21Z" transform="translate(-0.657 -1.169)"/>
    <path class="cls-6" d="M63.029,34.885a1.084,1.084,0,0,1,.294.737,1.2,1.2,0,0,1-1.247,1.14,1.145,1.145,0,0,1-1.242-1.038,1.325,1.325,0,0,1,.864-1.1,3.782,3.782,0,0,1-.438-.324A.959.959,0,0,1,61,33.638a1.043,1.043,0,0,1,1.085-1,.99.99,0,0,1,1.079.894,1.112,1.112,0,0,1-.725.929A2.53,2.53,0,0,1,63.029,34.885Zm-1.9.839a.9.9,0,0,0,.947.87.863.863,0,0,0,.942-.756.8.8,0,0,0-.449-.659l-.739-.468A1.175,1.175,0,0,0,61.134,35.724ZM62.3,34.369a1.018,1.018,0,0,0,.594-.839.781.781,0,0,0-.821-.744c-.426,0-.816.252-.816.618a.559.559,0,0,0,.3.485Z" transform="translate(-0.657 -1.169)"/>
  </g>
  <g>
    <line class="cls-7" x1="49.563" y1="37.349" x2="65.795" y2="37.349"/>
    <polygon class="cls-8" points="64.459 39.258 65.272 37.349 64.459 35.438 68.989 37.349 64.459 39.258"/>
  </g>
  <g>
    <line class="cls-7" x1="84.211" y1="45.399" x2="84.21" y2="61.628"/>
    <polygon class="cls-8" points="82.301 60.292 84.21 61.106 86.122 60.292 84.21 64.822 82.301 60.292"/>
  </g>
  <g>
    <path class="cls-6" d="M70.623,57.781a1.955,1.955,0,0,0,.57-.048,1.975,1.975,0,0,0,.132-.534h.149l-.168,1.044H69.082c0-.144,0-.156.066-.222L70.3,56.737a2.147,2.147,0,0,0,.628-1.325c0-.492-.257-.978-.8-.978a.866.866,0,0,0-.81.612.221.221,0,0,1,.077-.006.3.3,0,0,1,.319.312.315.315,0,1,1-.63-.018A1.108,1.108,0,0,1,70.2,54.249a1.178,1.178,0,0,1,1.271,1.163c0,.6-.359.924-1.3,1.751l-.635.618Z" transform="translate(-0.657 -1.169)"/>
    <path class="cls-6" d="M73.323,55.682a1.257,1.257,0,0,1,1.2,1.337,1.282,1.282,0,0,1-1.235,1.355c-.558,0-1.253-.425-1.253-2.026,0-1.326.809-2.1,1.577-2.1.5,0,.762.287.762.647a.276.276,0,1,1-.552.013c0-.27.239-.27.33-.27a.618.618,0,0,0-.528-.24c-.306,0-1.049.216-1.049,1.733v.144A.828.828,0,0,1,73.323,55.682Zm.558,2.135a2,2,0,0,0,.1-.8,1.979,1.979,0,0,0-.108-.821.579.579,0,0,0-.558-.372c-.54,0-.731.6-.731,1.067a2.955,2.955,0,0,0,.107.87.69.69,0,0,0,.594.449A.626.626,0,0,0,73.881,57.817Z" transform="translate(-0.657 -1.169)"/>
    <path class="cls-6" d="M75.616,58.243a.318.318,0,1,1,.317-.318A.319.319,0,0,1,75.616,58.243Z" transform="translate(-0.657 -1.169)"/>
    <path class="cls-6" d="M76.612,57.253v-.186l1.841-2.812c.048-.072.066-.072.12-.072.1,0,.1.036.1.156v2.728h.6v.186h-.6v.522c0,.216.011.282.456.282h.126v.186c-.246-.019-.564-.019-.816-.019s-.564,0-.809.019v-.186h.126c.443,0,.455-.066.455-.282v-.522Zm1.631-2.423L76.78,57.067h1.463Z" transform="translate(-0.657 -1.169)"/>
    <path class="cls-6" d="M80.829,58.374a1.1,1.1,0,0,1-1.085-1.1.3.3,0,1,1,.294.27.267.267,0,0,1-.1-.012.934.934,0,0,0,.881.671.75.75,0,0,0,.642-.389A1.744,1.744,0,0,0,81.6,57a1.838,1.838,0,0,0-.108-.755.587.587,0,0,0-.51-.384.9.9,0,0,0-.773.42c-.025.035-.037.053-.078.053-.084,0-.084-.047-.084-.155V54.4c0-.1,0-.144.06-.144a.173.173,0,0,1,.071.018,1.951,1.951,0,0,0,.8.168,1.985,1.985,0,0,0,.816-.174.088.088,0,0,1,.047-.018.059.059,0,0,1,.061.066,1.31,1.31,0,0,1-1.157.623,1.888,1.888,0,0,1-.51-.078v1.17A1.055,1.055,0,0,1,81,55.724a1.23,1.23,0,0,1,1.139,1.313A1.324,1.324,0,0,1,80.829,58.374Z" transform="translate(-0.657 -1.169)"/>
  </g>
  <g>
    <line class="cls-7" x1="99.113" y1="64.822" x2="99.112" y2="48.592"/>
    <polygon class="cls-8" points="97.203 49.928 99.112 49.115 101.023 49.928 99.112 45.399 97.203 49.928"/>
  </g>
  <g>
    <path class="cls-6" d="M103.583,57.766c0,.222.018.288.557.288h.193v.186c-.21-.018-.732-.018-.972-.018s-.762,0-.972.018v-.186h.193c.54,0,.557-.072.557-.288V54.66a1.8,1.8,0,0,1-.785.155V54.63a1.48,1.48,0,0,0,1.091-.384c.138,0,.138.012.138.156Z" transform="translate(-0.657 -1.169)"/>
    <path class="cls-6" d="M106.661,57.778a1.955,1.955,0,0,0,.57-.048,1.975,1.975,0,0,0,.132-.534h.149l-.168,1.044H105.12c0-.144,0-.156.066-.222l1.152-1.284a2.147,2.147,0,0,0,.628-1.325c0-.492-.257-.977-.8-.977a.865.865,0,0,0-.81.611.221.221,0,0,1,.077-.006.3.3,0,0,1,.319.312.315.315,0,1,1-.63-.018,1.108,1.108,0,0,1,1.121-1.085,1.178,1.178,0,0,1,1.271,1.163c0,.6-.359.924-1.3,1.751l-.635.618Z" transform="translate(-0.657 -1.169)"/>
    <path class="cls-6" d="M108.654,58.24a.318.318,0,1,1,.317-.318A.319.319,0,0,1,108.654,58.24Z" transform="translate(-0.657 -1.169)"/>
    <path class="cls-6" d="M110.867,58.371a1.1,1.1,0,0,1-1.085-1.1.3.3,0,1,1,.294.27.267.267,0,0,1-.1-.012.934.934,0,0,0,.881.671.75.75,0,0,0,.642-.389,1.742,1.742,0,0,0,.144-.821,1.84,1.84,0,0,0-.108-.756.587.587,0,0,0-.51-.384.9.9,0,0,0-.773.42c-.025.035-.037.054-.079.054-.083,0-.083-.048-.083-.156V54.4c0-.1,0-.144.06-.144a.176.176,0,0,1,.071.018,1.951,1.951,0,0,0,.8.168,1.985,1.985,0,0,0,.816-.174.088.088,0,0,1,.047-.018.059.059,0,0,1,.061.066,1.307,1.307,0,0,1-1.157.623,1.888,1.888,0,0,1-.51-.078v1.17a1.055,1.055,0,0,1,.761-.306,1.23,1.23,0,0,1,1.139,1.313A1.324,1.324,0,0,1,110.867,58.371Z" transform="translate(-0.657 -1.169)"/>
    <path class="cls-6" d="M114.527,55.727a2.637,2.637,0,0,0-.372,1.025,6.722,6.722,0,0,0-.066.984v.306c0,.06,0,.329-.276.329s-.275-.269-.275-.329a4.187,4.187,0,0,1,.737-2.255c.132-.2.6-.852.672-.947h-1.241a3.121,3.121,0,0,0-.588.035,1.71,1.71,0,0,0-.151.546h-.149l.2-1.235h.15c.024.114.036.192.767.192h1.457c0,.126,0,.138-.053.21Z" transform="translate(-0.657 -1.169)"/>
  </g>
  <g>
    <line class="cls-7" x1="114.538" y1="37.349" x2="130.768" y2="37.349"/>
    <polygon class="cls-8" points="129.432 39.258 130.246 37.349 129.432 35.438 133.961 37.349 129.432 39.258"/>
  </g>
  <g>
    <path class="cls-6" d="M116.424,36.156c0,.221.018.287.558.287h.192v.186c-.21-.018-.732-.018-.972-.018s-.762,0-.971.018v-.186h.192c.54,0,.558-.072.558-.287V33.049a1.8,1.8,0,0,1-.786.156v-.186a1.483,1.483,0,0,0,1.091-.383c.138,0,.138.011.138.155Z" transform="translate(-0.657 -1.169)"/>
    <path class="cls-6" d="M119.5,36.167a1.955,1.955,0,0,0,.57-.048,1.956,1.956,0,0,0,.132-.533h.15l-.168,1.043h-2.225c0-.144,0-.156.066-.221l1.152-1.284a2.151,2.151,0,0,0,.629-1.325c0-.492-.258-.978-.8-.978a.864.864,0,0,0-.81.612.228.228,0,0,1,.078-.006.3.3,0,0,1,.318.312.315.315,0,1,1-.63-.018,1.107,1.107,0,0,1,1.121-1.085,1.178,1.178,0,0,1,1.272,1.163c0,.6-.36.923-1.3,1.751l-.636.617Z" transform="translate(-0.657 -1.169)"/>
    <path class="cls-6" d="M121.5,36.629a.318.318,0,1,1,.318-.318A.319.319,0,0,1,121.5,36.629Z" transform="translate(-0.657 -1.169)"/>
    <path class="cls-6" d="M122.491,35.64v-.186l1.841-2.813c.048-.071.066-.071.12-.071.1,0,.1.035.1.155v2.729h.6v.186h-.6v.521c0,.216.012.282.456.282h.126v.186c-.246-.018-.564-.018-.815-.018s-.565,0-.81.018v-.186h.126c.443,0,.455-.066.455-.282V35.64Zm1.631-2.423-1.463,2.237h1.463Z" transform="translate(-0.657 -1.169)"/>
    <path class="cls-6" d="M127.77,34.884a1.085,1.085,0,0,1,.294.738,1.2,1.2,0,0,1-1.248,1.139,1.145,1.145,0,0,1-1.241-1.037,1.325,1.325,0,0,1,.864-1.1A3.821,3.821,0,0,1,126,34.3a.96.96,0,0,1-.264-.66,1.042,1.042,0,0,1,1.085-1,.99.99,0,0,1,1.079.893,1.111,1.111,0,0,1-.725.929A2.53,2.53,0,0,1,127.77,34.884Zm-1.895.84a.9.9,0,0,0,.947.869.862.862,0,0,0,.942-.755.8.8,0,0,0-.449-.66l-.739-.468A1.175,1.175,0,0,0,125.875,35.724Zm1.169-1.356a1.015,1.015,0,0,0,.594-.839.782.782,0,0,0-.822-.744c-.425,0-.815.252-.815.618a.557.557,0,0,0,.3.486Z" transform="translate(-0.657 -1.169)"/>
  </g>
  <g>
    <path class="cls-6" d="M142.85,21.636a1.1,1.1,0,0,1-1.085-1.1.3.3,0,1,1,.294.269.27.27,0,0,1-.1-.011.933.933,0,0,0,.881.671.748.748,0,0,0,.641-.39,1.73,1.73,0,0,0,.145-.821,1.845,1.845,0,0,0-.109-.756.586.586,0,0,0-.51-.383.9.9,0,0,0-.773.419c-.024.036-.036.054-.078.054-.084,0-.084-.048-.084-.156V17.66c0-.1,0-.144.06-.144a.171.171,0,0,1,.072.019,1.959,1.959,0,0,0,.8.167,2,2,0,0,0,.815-.173.088.088,0,0,1,.048-.018.058.058,0,0,1,.06.065,1.306,1.306,0,0,1-1.157.624,1.9,1.9,0,0,1-.51-.078v1.169a1.054,1.054,0,0,1,.761-.3,1.23,1.23,0,0,1,1.14,1.313A1.325,1.325,0,0,1,142.85,21.636Z" transform="translate(-0.657 -1.169)"/>
    <path class="cls-6" d="M147,20.941a1.122,1.122,0,0,1-2.033.09,3.039,3.039,0,0,1-.27-1.446,3.191,3.191,0,0,1,.223-1.361,1.1,1.1,0,0,1,1.042-.713,1.11,1.11,0,0,1,1.02.671,3.212,3.212,0,0,1,.24,1.4A3.2,3.2,0,0,1,147,20.941Zm-.342-.186a7.425,7.425,0,0,0,.066-1.241,7.5,7.5,0,0,0-.059-1.17c-.115-.594-.51-.7-.708-.7-.15,0-.6.054-.714.768a8.048,8.048,0,0,0-.048,1.1,8.172,8.172,0,0,0,.066,1.265c.108.575.462.725.7.725C146.228,21.5,146.57,21.325,146.66,20.755Z" transform="translate(-0.657 -1.169)"/>
    <path class="cls-6" d="M148.3,21.5a.318.318,0,1,1,.318-.318A.32.32,0,0,1,148.3,21.5Z" transform="translate(-0.657 -1.169)"/>
    <path class="cls-6" d="M151.574,19.759a1.085,1.085,0,0,1,.294.738,1.2,1.2,0,0,1-1.247,1.139A1.144,1.144,0,0,1,149.38,20.6a1.324,1.324,0,0,1,.863-1.1,3.913,3.913,0,0,1-.438-.323.958.958,0,0,1-.263-.66,1.042,1.042,0,0,1,1.085-1,.99.99,0,0,1,1.079.893,1.11,1.11,0,0,1-.726.929A2.506,2.506,0,0,1,151.574,19.759Zm-1.9.84a.9.9,0,0,0,.948.869.862.862,0,0,0,.941-.755.8.8,0,0,0-.449-.66l-.739-.468A1.176,1.176,0,0,0,149.679,20.6Zm1.169-1.356a1.014,1.014,0,0,0,.594-.839.782.782,0,0,0-.821-.744c-.426,0-.816.252-.816.618a.56.56,0,0,0,.3.486Z" transform="translate(-0.657 -1.169)"/>
    <path class="cls-6" d="M154.664,20.941a1.122,1.122,0,0,1-2.033.09,3.039,3.039,0,0,1-.27-1.446,3.191,3.191,0,0,1,.223-1.361,1.1,1.1,0,0,1,1.043-.713,1.109,1.109,0,0,1,1.019.671,3.212,3.212,0,0,1,.24,1.4A3.2,3.2,0,0,1,154.664,20.941Zm-.342-.186a7.425,7.425,0,0,0,.066-1.241,7.5,7.5,0,0,0-.059-1.17c-.115-.594-.51-.7-.708-.7-.15,0-.6.054-.714.768a8.048,8.048,0,0,0-.048,1.1,8.172,8.172,0,0,0,.066,1.265c.108.575.462.725.7.725C153.89,21.5,154.232,21.325,154.322,20.755Z" transform="translate(-0.657 -1.169)"/>
  </g>
  <g>
    <line class="cls-7" x1="141.108" y1="22.382" x2="157.255" y2="22.382"/>
    <polygon class="cls-8" points="155.919 24.292 156.732 22.382 155.919 20.471 160.448 22.381 155.919 24.292"/>
  </g>
  <g>
    <path class="cls-6" d="M195.347,21.636a1.1,1.1,0,0,1-1.085-1.1.3.3,0,1,1,.294.269.281.281,0,0,1-.1-.011.935.935,0,0,0,.881.671.75.75,0,0,0,.642-.39,1.74,1.74,0,0,0,.144-.821,1.846,1.846,0,0,0-.108-.756.586.586,0,0,0-.51-.383.9.9,0,0,0-.773.419c-.025.036-.036.054-.078.054-.084,0-.084-.048-.084-.156V17.66c0-.1,0-.144.06-.144a.166.166,0,0,1,.071.019,1.965,1.965,0,0,0,.8.167,2.006,2.006,0,0,0,.816-.173.088.088,0,0,1,.048-.018.058.058,0,0,1,.06.065,1.308,1.308,0,0,1-1.157.624,1.894,1.894,0,0,1-.51-.078v1.169a1.054,1.054,0,0,1,.761-.3,1.23,1.23,0,0,1,1.14,1.313A1.325,1.325,0,0,1,195.347,21.636Z" transform="translate(-0.657 -1.169)"/>
    <path class="cls-6" d="M199.5,20.941a1.121,1.121,0,0,1-2.032.09,3.039,3.039,0,0,1-.27-1.446,3.206,3.206,0,0,1,.222-1.361,1.1,1.1,0,0,1,1.043-.713,1.111,1.111,0,0,1,1.02.671,3.212,3.212,0,0,1,.24,1.4A3.181,3.181,0,0,1,199.5,20.941Zm-.341-.186a7.425,7.425,0,0,0,.066-1.241,7.378,7.378,0,0,0-.06-1.17c-.114-.594-.509-.7-.708-.7-.149,0-.6.054-.714.768a8.217,8.217,0,0,0-.047,1.1,8.172,8.172,0,0,0,.066,1.265c.107.575.462.725.7.725C198.725,21.5,199.067,21.325,199.157,20.755Z" transform="translate(-0.657 -1.169)"/>
    <path class="cls-6" d="M200.8,21.5a.318.318,0,1,1,.318-.318A.319.319,0,0,1,200.8,21.5Z" transform="translate(-0.657 -1.169)"/>
    <path class="cls-6" d="M204.071,19.759a1.085,1.085,0,0,1,.294.738,1.2,1.2,0,0,1-1.248,1.139,1.145,1.145,0,0,1-1.241-1.037,1.325,1.325,0,0,1,.864-1.1,3.821,3.821,0,0,1-.438-.323.96.96,0,0,1-.264-.66,1.042,1.042,0,0,1,1.085-1,.99.99,0,0,1,1.079.893,1.111,1.111,0,0,1-.725.929A2.53,2.53,0,0,1,204.071,19.759Zm-1.9.84a.9.9,0,0,0,.947.869.863.863,0,0,0,.942-.755.8.8,0,0,0-.45-.66l-.738-.468A1.175,1.175,0,0,0,202.176,20.6Zm1.169-1.356a1.015,1.015,0,0,0,.594-.839.782.782,0,0,0-.822-.744c-.425,0-.815.252-.815.618a.557.557,0,0,0,.3.486Z" transform="translate(-0.657 -1.169)"/>
    <path class="cls-6" d="M207.16,20.941a1.121,1.121,0,0,1-2.032.09,3.039,3.039,0,0,1-.27-1.446,3.206,3.206,0,0,1,.222-1.361,1.1,1.1,0,0,1,1.043-.713,1.111,1.111,0,0,1,1.02.671,3.212,3.212,0,0,1,.24,1.4A3.181,3.181,0,0,1,207.16,20.941Zm-.341-.186a7.425,7.425,0,0,0,.066-1.241,7.378,7.378,0,0,0-.06-1.17c-.114-.594-.509-.7-.708-.7-.149,0-.6.054-.713.768a8.048,8.048,0,0,0-.048,1.1,8.172,8.172,0,0,0,.066,1.265c.108.575.462.725.695.725C206.387,21.5,206.729,21.325,206.819,20.755Z" transform="translate(-0.657 -1.169)"/>
  </g>
  <g>
    <line class="cls-7" x1="193.605" y1="22.382" x2="209.776" y2="22.382"/>
    <polygon class="cls-8" points="208.44 24.292 209.254 22.382 208.44 20.471 212.97 22.381 208.44 24.292"/>
  </g>
  <line class="cls-1" x1="189.693" y1="22.381" x2="193.205" y2="22.381"/>
  <circle class="cls-4" cx="10.681" cy="31.033" r="9.524" transform="translate(-5.504 0.951) rotate(-9.245)"/>
  <path class="cls-9" d="M15.49,29.982s-1.5,1.987-2.266,2.1c-.931.142-2.546-1.058-2.546-1.058s-2.346-1.184-2.837-1.045c-.713.2-2.085,2.1-2.085,2.1" transform="translate(-0.657 -1.169)"/>
  <line class="cls-2" x1="42.653" y1="30.023" x2="45.146" y2="30.023"/>
  <line class="cls-2" x1="19.784" y1="30.023" x2="22.43" y2="30.023"/>
  <g>
    <path class="cls-6" d="M24.776,26.744a1.257,1.257,0,0,1,1.2,1.337,1.282,1.282,0,0,1-1.235,1.355c-.558,0-1.253-.425-1.253-2.026,0-1.326.809-2.1,1.577-2.1.5,0,.762.287.762.647a.276.276,0,1,1-.552.013c0-.27.239-.27.33-.27a.618.618,0,0,0-.528-.24c-.306,0-1.049.216-1.049,1.733v.144A.828.828,0,0,1,24.776,26.744Zm.558,2.135a2,2,0,0,0,.1-.8,1.979,1.979,0,0,0-.108-.821.579.579,0,0,0-.558-.372c-.54,0-.731.6-.731,1.067a2.955,2.955,0,0,0,.107.87.69.69,0,0,0,.594.449A.625.625,0,0,0,25.334,28.879Z" transform="translate(-0.657 -1.169)"/>
    <path class="cls-6" d="M27.62,29.436a1.1,1.1,0,0,1-1.085-1.1.3.3,0,1,1,.294.27.267.267,0,0,1-.1-.012.934.934,0,0,0,.881.671.75.75,0,0,0,.642-.389,1.744,1.744,0,0,0,.144-.822,1.855,1.855,0,0,0-.108-.755.588.588,0,0,0-.51-.384.9.9,0,0,0-.773.42c-.025.035-.037.053-.079.053-.084,0-.084-.047-.084-.155V25.461c0-.1,0-.144.061-.144a.176.176,0,0,1,.071.018,1.948,1.948,0,0,0,.8.168,1.994,1.994,0,0,0,.816-.174.088.088,0,0,1,.047-.018.059.059,0,0,1,.061.066A1.31,1.31,0,0,1,27.537,26a1.888,1.888,0,0,1-.51-.078v1.17a1.055,1.055,0,0,1,.761-.306A1.23,1.23,0,0,1,28.927,28.1,1.324,1.324,0,0,1,27.62,29.436Z" transform="translate(-0.657 -1.169)"/>
    <path class="cls-6" d="M30.069,29.305a.318.318,0,1,1,.317-.318A.32.32,0,0,1,30.069,29.305Z" transform="translate(-0.657 -1.169)"/>
    <path class="cls-6" d="M32.282,29.436a1.1,1.1,0,0,1-1.085-1.1.3.3,0,1,1,.294.27.267.267,0,0,1-.1-.012.934.934,0,0,0,.881.671.75.75,0,0,0,.642-.389,1.744,1.744,0,0,0,.144-.822,1.838,1.838,0,0,0-.108-.755.587.587,0,0,0-.51-.384.9.9,0,0,0-.773.42c-.025.035-.036.053-.078.053-.084,0-.084-.047-.084-.155V25.461c0-.1,0-.144.06-.144a.173.173,0,0,1,.071.018,1.951,1.951,0,0,0,.8.168,1.985,1.985,0,0,0,.816-.174.088.088,0,0,1,.048-.018.059.059,0,0,1,.06.066A1.31,1.31,0,0,1,32.2,26a1.888,1.888,0,0,1-.51-.078v1.17a1.055,1.055,0,0,1,.761-.306A1.23,1.23,0,0,1,33.589,28.1,1.324,1.324,0,0,1,32.282,29.436Z" transform="translate(-0.657 -1.169)"/>
    <path class="cls-6" d="M36.433,28.741a1.121,1.121,0,0,1-2.032.09,3.039,3.039,0,0,1-.271-1.445,3.209,3.209,0,0,1,.223-1.362,1.1,1.1,0,0,1,1.043-.713,1.113,1.113,0,0,1,1.02.671,3.214,3.214,0,0,1,.24,1.4A3.179,3.179,0,0,1,36.433,28.741Zm-.342-.186a7.31,7.31,0,0,0,.067-1.241,7.378,7.378,0,0,0-.06-1.17c-.114-.593-.51-.7-.708-.7-.149,0-.6.053-.714.767a8.217,8.217,0,0,0-.047,1.1,8.172,8.172,0,0,0,.066,1.265c.107.576.462.726.7.726C35.66,29.305,36,29.125,36.091,28.555Z" transform="translate(-0.657 -1.169)"/>
  </g>
  <g>
    <line class="cls-7" x1="22.83" y1="30.024" x2="39.06" y2="30.024"/>
    <polygon class="cls-8" points="37.724 31.933 38.537 30.024 37.724 28.113 42.253 30.023 37.724 31.933"/>
  </g>
  <circle class="cls-4" cx="48.944" cy="83.515" r="9.524" transform="translate(-40.593 120.695) rotate(-82.966)"/>
  <path class="cls-9" d="M53.869,82.463s-1.5,1.987-2.266,2.1c-.93.143-2.546-1.057-2.546-1.057s-2.345-1.185-2.837-1.046c-.712.2-2.084,2.1-2.084,2.1" transform="translate(-0.657 -1.169)"/>
  <polyline class="cls-4" points="81.03 82.528 84.211 82.528 84.211 67.561 84.211 65.222"/>
  <line class="cls-2" x1="58.162" y1="82.528" x2="60.807" y2="82.528"/>
  <g>
    <path class="cls-6" d="M64.353,80.784a1.223,1.223,0,0,1-1.278,1.157A1.093,1.093,0,0,1,61.864,81a.336.336,0,1,1,.672-.012.329.329,0,0,1-.4.33,1.091,1.091,0,0,0,.918.455c.263,0,.678-.174.678-.989,0-.588-.222-1-.714-1h-.264c-.1,0-.145,0-.145-.066s.042-.065.091-.071.186-.012.234-.018a.582.582,0,0,0,.534-.312,1.512,1.512,0,0,0,.168-.684c0-.54-.33-.671-.576-.671a.971.971,0,0,0-.8.371c.09,0,.372,0,.372.3a.306.306,0,1,1-.611-.006c0-.455.455-.815,1.061-.815.575,0,1.1.335,1.1.827a1.157,1.157,0,0,1-.839,1.056A1.156,1.156,0,0,1,64.353,80.784Z" transform="translate(-0.657 -1.169)"/>
    <path class="cls-6" d="M65.446,81.809a.318.318,0,1,1,.318-.317A.32.32,0,0,1,65.446,81.809Z" transform="translate(-0.657 -1.169)"/>
    <path class="cls-6" d="M68.037,81.336c0,.221.019.287.558.287h.192v.186c-.21-.018-.731-.018-.971-.018s-.762,0-.972.018v-.186h.192c.54,0,.558-.071.558-.287V78.229a1.8,1.8,0,0,1-.785.156V78.2a1.482,1.482,0,0,0,1.091-.384c.137,0,.137.011.137.156Z" transform="translate(-0.657 -1.169)"/>
    <path class="cls-6" d="M70.816,79.249a1.257,1.257,0,0,1,1.2,1.337,1.282,1.282,0,0,1-1.235,1.355c-.558,0-1.253-.426-1.253-2.027,0-1.325.809-2.1,1.577-2.1.5,0,.761.287.761.647a.276.276,0,1,1-.551.012c0-.27.239-.27.33-.27a.62.62,0,0,0-.529-.239c-.3,0-1.048.215-1.048,1.733v.144A.827.827,0,0,1,70.816,79.249Zm.557,2.135a1.983,1.983,0,0,0,.1-.8,1.96,1.96,0,0,0-.109-.821.578.578,0,0,0-.557-.372c-.54,0-.732.6-.732,1.067a2.929,2.929,0,0,0,.108.87.691.691,0,0,0,.594.449A.626.626,0,0,0,71.373,81.384Z" transform="translate(-0.657 -1.169)"/>
  </g>
  <g>
    <line class="cls-7" x1="61.207" y1="82.529" x2="77.437" y2="82.529"/>
    <polygon class="cls-8" points="76.101 84.438 76.915 82.529 76.101 80.618 80.63 82.528 76.101 84.438"/>
  </g>
  <g>
    <path class="cls-6" d="M115.112,80.784a1.223,1.223,0,0,1-1.277,1.157A1.093,1.093,0,0,1,112.624,81a.336.336,0,1,1,.672-.012.33.33,0,0,1-.4.33,1.091,1.091,0,0,0,.918.455c.264,0,.678-.174.678-.989,0-.588-.222-1-.714-1h-.264c-.1,0-.144,0-.144-.066s.042-.065.091-.071.185-.012.233-.018a.582.582,0,0,0,.534-.312,1.512,1.512,0,0,0,.168-.684c0-.54-.33-.671-.576-.671a.972.972,0,0,0-.8.371c.09,0,.372,0,.372.3a.306.306,0,1,1-.611-.006c0-.455.455-.815,1.061-.815.576,0,1.1.335,1.1.827a1.157,1.157,0,0,1-.839,1.056A1.156,1.156,0,0,1,115.112,80.784Z" transform="translate(-0.657 -1.169)"/>
    <path class="cls-6" d="M116.206,81.809a.318.318,0,1,1,.317-.317A.32.32,0,0,1,116.206,81.809Z" transform="translate(-0.657 -1.169)"/>
    <path class="cls-6" d="M118.8,81.336c0,.221.018.287.557.287h.193v.186c-.21-.018-.732-.018-.972-.018s-.762,0-.972.018v-.186h.193c.54,0,.557-.071.557-.287V78.229a1.793,1.793,0,0,1-.785.156V78.2a1.482,1.482,0,0,0,1.091-.384c.138,0,.138.011.138.156Z" transform="translate(-0.657 -1.169)"/>
    <path class="cls-6" d="M121.575,79.249a1.257,1.257,0,0,1,1.2,1.337,1.282,1.282,0,0,1-1.235,1.355c-.558,0-1.253-.426-1.253-2.027,0-1.325.809-2.1,1.577-2.1.5,0,.762.287.762.647a.276.276,0,1,1-.552.012c0-.27.239-.27.33-.27a.619.619,0,0,0-.528-.239c-.306,0-1.049.215-1.049,1.733v.144A.828.828,0,0,1,121.575,79.249Zm.557,2.135a3.182,3.182,0,0,0-.005-1.625.579.579,0,0,0-.558-.372c-.54,0-.731.6-.731,1.067a2.955,2.955,0,0,0,.107.87.691.691,0,0,0,.594.449A.626.626,0,0,0,122.132,81.384Z" transform="translate(-0.657 -1.169)"/>
  </g>
  <line class="cls-2" x1="217.367" y1="22.381" x2="219.66" y2="22.381"/>
  <g>
    <path class="cls-6" d="M221.8,21.794a1.1,1.1,0,0,1-1.085-1.1.3.3,0,1,1,.294.269.26.26,0,0,1-.1-.012.933.933,0,0,0,.881.672.748.748,0,0,0,.641-.39,1.731,1.731,0,0,0,.145-.821,1.845,1.845,0,0,0-.109-.756.586.586,0,0,0-.509-.384.9.9,0,0,0-.774.42c-.024.036-.036.054-.078.054-.084,0-.084-.048-.084-.156V17.818c0-.1,0-.144.061-.144a.18.18,0,0,1,.071.018,1.945,1.945,0,0,0,.8.168,1.983,1.983,0,0,0,.815-.174.088.088,0,0,1,.048-.018.059.059,0,0,1,.061.066,1.308,1.308,0,0,1-1.158.624,1.886,1.886,0,0,1-.509-.078v1.169a1.051,1.051,0,0,1,.76-.306,1.23,1.23,0,0,1,1.14,1.313A1.325,1.325,0,0,1,221.8,21.794Z" transform="translate(-0.657 -1.169)"/>
    <path class="cls-6" d="M225.953,21.1a1.121,1.121,0,0,1-2.033.09,3.036,3.036,0,0,1-.27-1.445,3.191,3.191,0,0,1,.223-1.361,1.1,1.1,0,0,1,1.043-.714,1.11,1.11,0,0,1,1.019.672,3.212,3.212,0,0,1,.24,1.4A3.192,3.192,0,0,1,225.953,21.1Zm-.342-.186a7.413,7.413,0,0,0,.066-1.241,7.488,7.488,0,0,0-.059-1.169c-.115-.594-.51-.7-.708-.7-.15,0-.6.054-.714.768a8.025,8.025,0,0,0-.048,1.1,8.166,8.166,0,0,0,.066,1.265c.108.576.462.726.7.726C225.179,21.662,225.521,21.482,225.611,20.912Z" transform="translate(-0.657 -1.169)"/>
    <path class="cls-6" d="M227.251,21.662a.318.318,0,1,1,.317-.318A.32.32,0,0,1,227.251,21.662Z" transform="translate(-0.657 -1.169)"/>
    <path class="cls-6" d="M230.525,19.917a1.085,1.085,0,0,1,.294.738,1.2,1.2,0,0,1-1.247,1.139,1.144,1.144,0,0,1-1.241-1.037,1.324,1.324,0,0,1,.863-1.1,3.782,3.782,0,0,1-.438-.324.954.954,0,0,1-.263-.659,1.042,1.042,0,0,1,1.085-1,.99.99,0,0,1,1.079.894,1.113,1.113,0,0,1-.726.929A2.506,2.506,0,0,1,230.525,19.917Zm-1.9.84a.9.9,0,0,0,.948.869.863.863,0,0,0,.941-.756.8.8,0,0,0-.449-.659l-.738-.468A1.176,1.176,0,0,0,228.63,20.757ZM229.8,19.4a1.015,1.015,0,0,0,.594-.839.782.782,0,0,0-.821-.744c-.426,0-.816.252-.816.618a.558.558,0,0,0,.3.485Z" transform="translate(-0.657 -1.169)"/>
    <path class="cls-6" d="M233.615,21.1a1.12,1.12,0,0,1-2.032.09,3.025,3.025,0,0,1-.271-1.445,3.191,3.191,0,0,1,.223-1.361,1.1,1.1,0,0,1,1.043-.714,1.11,1.11,0,0,1,1.019.672,3.212,3.212,0,0,1,.24,1.4A3.192,3.192,0,0,1,233.615,21.1Zm-.342-.186a7.413,7.413,0,0,0,.066-1.241,7.488,7.488,0,0,0-.059-1.169c-.114-.594-.51-.7-.708-.7-.15,0-.6.054-.714.768a8.025,8.025,0,0,0-.048,1.1,8.045,8.045,0,0,0,.067,1.265c.107.576.461.726.695.726C232.841,21.662,233.183,21.482,233.273,20.912Z" transform="translate(-0.657 -1.169)"/>
  </g>
  <g>
    <line class="cls-7" x1="220.059" y1="22.382" x2="236.289" y2="22.382"/>
    <polygon class="cls-8" points="234.953 24.291 235.766 22.382 234.953 20.471 239.482 22.381 234.953 24.291"/>
  </g>
  <line class="cls-2" x1="138.365" y1="37.349" x2="140.698" y2="37.349"/>
  <g>
    <path class="cls-6" d="M144.068,36.067a1.12,1.12,0,0,1-2.032.09,3.039,3.039,0,0,1-.271-1.445,3.209,3.209,0,0,1,.223-1.362,1.1,1.1,0,0,1,1.043-.713,1.111,1.111,0,0,1,1.019.671,4.219,4.219,0,0,1,.018,2.759Zm-.342-.186a7.31,7.31,0,0,0,.067-1.241,7.358,7.358,0,0,0-.06-1.169c-.114-.594-.51-.7-.708-.7-.149,0-.6.054-.714.767a8.048,8.048,0,0,0-.048,1.1,8.051,8.051,0,0,0,.067,1.265c.107.576.462.726.695.726C143.295,36.631,143.636,36.451,143.726,35.881Z" transform="translate(-0.657 -1.169)"/>
    <path class="cls-6" d="M145.366,36.631a.318.318,0,1,1,.317-.318A.32.32,0,0,1,145.366,36.631Z" transform="translate(-0.657 -1.169)"/>
    <path class="cls-6" d="M147.957,36.157c0,.222.018.288.557.288h.193v.186c-.21-.018-.732-.018-.972-.018s-.762,0-.972.018v-.186h.193c.54,0,.557-.072.557-.288V33.051a1.8,1.8,0,0,1-.785.155v-.185a1.48,1.48,0,0,0,1.091-.384c.138,0,.138.012.138.156Z" transform="translate(-0.657 -1.169)"/>
    <path class="cls-6" d="M151.73,36.067a1.12,1.12,0,0,1-2.032.09,3.039,3.039,0,0,1-.271-1.445,3.209,3.209,0,0,1,.223-1.362,1.1,1.1,0,0,1,1.043-.713,1.113,1.113,0,0,1,1.02.671,3.229,3.229,0,0,1,.24,1.4A3.2,3.2,0,0,1,151.73,36.067Zm-.342-.186a7.31,7.31,0,0,0,.067-1.241,7.358,7.358,0,0,0-.06-1.169c-.114-.594-.51-.7-.708-.7-.149,0-.6.054-.714.767a8.048,8.048,0,0,0-.048,1.1,8.051,8.051,0,0,0,.067,1.265c.107.576.462.726.7.726C150.957,36.631,151.3,36.451,151.388,35.881Z" transform="translate(-0.657 -1.169)"/>
  </g>
  <g>
    <line class="cls-7" x1="141.108" y1="37.35" x2="157.338" y2="37.35"/>
    <polygon class="cls-8" points="156.002 39.259 156.815 37.35 156.002 35.439 160.531 37.349 156.002 39.259"/>
  </g>
  <line class="cls-1" x1="160.85" y1="37.349" x2="163.548" y2="37.348"/>
  <g>
    <line class="cls-4" x1="245.67" y1="22.381" x2="239.88" y2="22.381"/>
    <polygon class="cls-6" points="243.564 19.604 244.744 22.381 243.564 25.158 250.148 22.381 243.564 19.604"/>
  </g>
  <line class="cls-3" x1="216.55" y1="7.414" x2="216.55" y2="37.348"/>
  <g>
    <circle class="cls-10" cx="173.244" cy="22.381" r="8.504"/>
    <circle class="cls-1" cx="180.821" cy="22.381" r="8.504"/>
  </g>
  <g>
    <path d="M212.921,4.756a1.467,1.467,0,0,1-1.6,1.313h-2.813V5.846h.173c.552,0,.566-.079.566-.337V1.728c0-.258-.014-.337-.566-.337h-.173V1.169h2.626a1.439,1.439,0,0,1,1.592,1.212c0,.531-.5.99-1.19,1.126A1.41,1.41,0,0,1,212.921,4.756Zm-2.037-1.314a1.082,1.082,0,0,0,1.148-1.061.953.953,0,0,0-.947-.99h-.89c-.337,0-.351.05-.351.287V3.442Zm1.32,1.306A1.074,1.074,0,0,0,211.193,3.6h-1.349V5.559c0,.237.014.287.351.287h.9A1.084,1.084,0,0,0,212.2,4.748Z" transform="translate(-0.657 -1.169)"/>
    <path d="M215.209,6.147c-1.09,0-1.09-.652-1.09-1.212V3.859c0-.639,0-.66-.56-.66V2.976l1.055-.078V5.279c0,.373.028.711.631.711.523,0,.868-.488.868-1.112V3.6c0-.352-.058-.4-.56-.4V2.976l1.055-.078V5.444c0,.352.058.4.56.4v.223l-1.033.078V5.5A.98.98,0,0,1,215.209,6.147Z" transform="translate(-0.657 -1.169)"/>
    <path d="M217.856,4.347a.765.765,0,0,1-.309-.61c0-.4.273-.882,1.148-.882a1.112,1.112,0,0,1,.675.2.877.877,0,0,0,.121-.115c.094-.085.108-.085.144-.085.079,0,.079.05.079.172v.724c0,.137,0,.172-.093.172-.015,0-.08,0-.087-.064a.791.791,0,0,0-.839-.868c-.617,0-.8.294-.8.545,0,.416.48.509.882.589a1.458,1.458,0,0,1,.818.343.93.93,0,0,1,.3.682c0,.516-.33,1-1.155,1a1.072,1.072,0,0,1-.789-.308,1.9,1.9,0,0,0-.144.165c-.136.136-.143.143-.179.143-.079,0-.079-.05-.079-.172V5.028c0-.129,0-.179.094-.179.072,0,.079.029.1.122.136.61.395,1.019,1,1.019.56,0,.811-.288.811-.653,0-.517-.588-.632-.747-.661A1.868,1.868,0,0,1,217.856,4.347Z" transform="translate(-0.657 -1.169)"/>
    <path d="M222.726,4.885V4.662l2.2-3.364c.057-.087.079-.087.143-.087.115,0,.115.043.115.188V4.662h.717v.223h-.717v.624c0,.258.015.337.545.337h.151v.223c-.3-.022-.674-.022-.976-.022s-.674,0-.968.022V5.846h.15c.531,0,.545-.079.545-.337V4.885Zm1.952-2.9-1.751,2.676h1.751Z" transform="translate(-0.657 -1.169)"/>
  </g>
  <line class="cls-2" x1="91.694" y1="69.019" x2="91.694" y2="71.312"/>
  <g>
    <line class="cls-7" x1="91.693" y1="71.711" x2="91.693" y2="87.941"/>
    <polygon class="cls-8" points="89.784 86.605 91.693 87.418 93.604 86.605 91.694 91.134 89.784 86.605"/>
  </g>
  <g>
    <line class="cls-4" x1="91.694" y1="97.322" x2="91.694" y2="91.531"/>
    <polygon class="cls-6" points="94.471 95.216 91.694 96.395 88.916 95.216 91.694 101.799 94.471 95.216"/>
  </g>
  <circle class="cls-4" cx="135.694" cy="83.515" r="9.524" transform="translate(-9.863 16.078) rotate(-7.034)"/>
  <path class="cls-9" d="M140.5,82.463s-1.5,1.987-2.267,2.1c-.93.143-2.546-1.057-2.546-1.057s-2.345-1.185-2.836-1.046c-.713.2-2.085,2.1-2.085,2.1" transform="translate(-0.657 -1.169)"/>
  <polyline class="cls-4" points="102.294 82.528 99.114 82.528 99.114 67.561 99.113 65.222"/>
  <line class="cls-2" x1="125.163" y1="82.528" x2="122.517" y2="82.528"/>
  <g>
    <line class="cls-7" x1="122.117" y1="82.529" x2="105.887" y2="82.529"/>
    <polygon class="cls-8" points="107.223 84.438 106.41 82.529 107.223 80.618 102.694 82.528 107.223 84.438"/>
  </g>
  <g>
    <path class="cls-6" d="M77.4,91.841a1.955,1.955,0,0,0,.57-.048,1.975,1.975,0,0,0,.132-.534h.15L78.087,92.3H75.862c0-.144,0-.156.066-.222L77.08,90.8a2.148,2.148,0,0,0,.629-1.325c0-.492-.258-.978-.8-.978a.866.866,0,0,0-.81.612.228.228,0,0,1,.078-.006.3.3,0,0,1,.318.312.315.315,0,1,1-.63-.018,1.108,1.108,0,0,1,1.121-1.085,1.178,1.178,0,0,1,1.272,1.163c0,.6-.36.924-1.3,1.751l-.636.618Z" transform="translate(-0.657 -1.169)"/>
    <path class="cls-6" d="M81.1,91.739a1.121,1.121,0,0,1-2.032.09,3.038,3.038,0,0,1-.27-1.445,3.208,3.208,0,0,1,.222-1.362,1.1,1.1,0,0,1,1.043-.713,1.113,1.113,0,0,1,1.02.671,3.214,3.214,0,0,1,.24,1.4A3.179,3.179,0,0,1,81.1,91.739Zm-.341-.186a11.571,11.571,0,0,0,.006-2.411c-.114-.593-.509-.7-.708-.7-.149,0-.6.053-.713.767a8.048,8.048,0,0,0-.048,1.1,8.172,8.172,0,0,0,.066,1.265c.108.576.462.726.7.726C80.325,92.3,80.667,92.123,80.757,91.553Z" transform="translate(-0.657 -1.169)"/>
    <path class="cls-6" d="M82.4,92.3a.318.318,0,1,1,.318-.318A.319.319,0,0,1,82.4,92.3Z" transform="translate(-0.657 -1.169)"/>
    <path class="cls-6" d="M85.065,91.841a1.955,1.955,0,0,0,.57-.048,1.975,1.975,0,0,0,.132-.534h.15L85.749,92.3H83.524c0-.144,0-.156.067-.222L84.742,90.8a2.148,2.148,0,0,0,.629-1.325c0-.492-.258-.978-.8-.978a.864.864,0,0,0-.809.612.218.218,0,0,1,.077-.006.3.3,0,0,1,.318.312.315.315,0,1,1-.63-.018,1.108,1.108,0,0,1,1.121-1.085,1.178,1.178,0,0,1,1.272,1.163c0,.6-.36.924-1.3,1.751l-.636.618Z" transform="translate(-0.657 -1.169)"/>
    <path class="cls-6" d="M88.76,91.739a1.121,1.121,0,0,1-2.032.09,3.038,3.038,0,0,1-.27-1.445,3.208,3.208,0,0,1,.222-1.362,1.1,1.1,0,0,1,1.043-.713,1.112,1.112,0,0,1,1.02.671,3.214,3.214,0,0,1,.24,1.4A3.179,3.179,0,0,1,88.76,91.739Zm-.341-.186a7.419,7.419,0,0,0,.066-1.241,7.5,7.5,0,0,0-.059-1.17c-.115-.593-.51-.7-.708-.7-.15,0-.6.053-.714.767a8.048,8.048,0,0,0-.048,1.1,8.172,8.172,0,0,0,.066,1.265c.108.576.462.726.7.726C87.987,92.3,88.329,92.123,88.419,91.553Z" transform="translate(-0.657 -1.169)"/>
  </g>
</svg>
