<svg id="Layer_1" data-name="Layer 1" xmlns="http://www.w3.org/2000/svg" viewBox="0 0 197.307 80.882">
  <defs>
    <style>
      .cls-1 {
        fill: #fff;
      }

      .cls-1, .cls-2 {
        stroke: #231f20;
      }

      .cls-1, .cls-2, .cls-4, .cls-5 {
        stroke-miterlimit: 10;
      }

      .cls-2, .cls-4, .cls-5 {
        fill: none;
      }

      .cls-3 {
        fill: #231f20;
      }

      .cls-4 {
        stroke: #010101;
        stroke-width: 1.9px;
      }

      .cls-5 {
        stroke: #000;
      }
    </style>
  </defs>
  <line class="cls-1" x1="49.153" y1="14.781" x2="176.693" y2="14.781"/>
  <g>
    <line class="cls-2" x1="192.83" y1="22.265" x2="177.465" y2="22.265"/>
    <polygon class="cls-3" points="190.724 19.487 191.904 22.265 190.724 25.042 197.307 22.265 190.724 19.487"/>
  </g>
  <line class="cls-4" x1="48.635" y1="7.298" x2="48.635" y2="37.231"/>
  <polyline class="cls-2" points="105.51 59.961 105.51 29.748 49.153 29.748"/>
  <line class="cls-4" x1="97.963" y1="60.514" x2="127.896" y2="60.514"/>
  <line class="cls-4" x1="176.693" y1="7.298" x2="176.693" y2="37.231"/>
  <g>
    <path d="M45.359,5.007a1.468,1.468,0,0,1-1.6,1.313H40.947V6.1h.172c.552,0,.567-.079.567-.338V1.979c0-.258-.015-.336-.567-.336h-.172V1.42h2.625a1.44,1.44,0,0,1,1.593,1.213c0,.53-.495.99-1.191,1.126A1.408,1.408,0,0,1,45.359,5.007ZM43.321,3.694a1.081,1.081,0,0,0,1.148-1.061.953.953,0,0,0-.947-.99h-.889c-.337,0-.352.049-.352.286V3.694ZM44.641,5A1.075,1.075,0,0,0,43.63,3.852H42.281V5.811c0,.237.015.287.352.287h.9A1.084,1.084,0,0,0,44.641,5Z" transform="translate(-0.823 -1.341)"/>
    <path d="M47.646,6.4c-1.09,0-1.09-.653-1.09-1.213V4.11c0-.638,0-.66-.559-.66V3.228l1.054-.079V5.531c0,.373.029.71.631.71.524,0,.869-.488.869-1.112V3.852c0-.352-.058-.4-.56-.4V3.228l1.055-.079V5.7c0,.352.057.4.559.4V6.32L48.572,6.4V5.753A.979.979,0,0,1,47.646,6.4Z" transform="translate(-0.823 -1.341)"/>
    <path d="M50.293,4.6a.767.767,0,0,1-.308-.61c0-.4.272-.882,1.147-.882a1.106,1.106,0,0,1,.675.2,1.024,1.024,0,0,0,.122-.115c.093-.086.108-.086.144-.086.078,0,.078.05.078.172V4c0,.136,0,.172-.093.172a.077.077,0,0,1-.086-.065.791.791,0,0,0-.84-.868c-.617,0-.8.294-.8.546,0,.415.481.509.882.588a1.453,1.453,0,0,1,.818.344.925.925,0,0,1,.3.681c0,.517-.33,1-1.155,1a1.072,1.072,0,0,1-.79-.309,1.67,1.67,0,0,0-.143.165c-.136.137-.143.144-.179.144-.079,0-.079-.05-.079-.172V5.28c0-.129,0-.18.093-.18.072,0,.079.029.1.122.137.61.4,1.019,1,1.019.559,0,.81-.287.81-.652,0-.517-.588-.632-.746-.661A1.875,1.875,0,0,1,50.293,4.6Z" transform="translate(-0.823 -1.341)"/>
    <path d="M57.072,5.753c0,.266.022.345.667.345h.23V6.32c-.251-.021-.875-.021-1.163-.021s-.911,0-1.162.021V6.1h.23c.645,0,.667-.086.667-.345V2.037a2.153,2.153,0,0,1-.94.186V2a1.773,1.773,0,0,0,1.306-.459c.165,0,.165.014.165.186Z" transform="translate(-0.823 -1.341)"/>
  </g>
  <g>
    <path d="M104.281,11.817a1.466,1.466,0,0,1-1.6,1.313H99.87v-.222h.172c.552,0,.566-.079.566-.338V8.79c0-.258-.014-.337-.566-.337H99.87V8.231H102.5a1.44,1.44,0,0,1,1.593,1.212c0,.531-.495.99-1.191,1.126A1.408,1.408,0,0,1,104.281,11.817Zm-2.037-1.312a1.083,1.083,0,0,0,1.148-1.062.953.953,0,0,0-.947-.99h-.89c-.337,0-.351.05-.351.287v1.765Zm1.32,1.3a1.075,1.075,0,0,0-1.011-1.148H101.2v1.959c0,.237.014.287.351.287h.9A1.085,1.085,0,0,0,103.564,11.81Z" transform="translate(-0.823 -1.341)"/>
    <path d="M106.77,9.959a.49.49,0,0,1,.531.438.3.3,0,0,1-.309.316.3.3,0,0,1-.308-.309.311.311,0,0,1,.165-.28.189.189,0,0,0-.079-.007c-.545,0-.846.639-.846,1.349v1.1c0,.259.014.338.545.338h.15v.222c-.287-.021-.624-.021-.911-.021-.2,0-.538.014-.818.021v-.222c.481,0,.56,0,.56-.323V10.662c0-.351-.057-.4-.56-.4v-.222l1-.08v.79A1,1,0,0,1,106.77,9.959Z" transform="translate(-0.823 -1.341)"/>
    <path d="M108.943,13.209c-.452,0-1.147-.179-1.147-.76a1.045,1.045,0,0,1,.717-.933,3.484,3.484,0,0,1,1.32-.258v-.265a.813.813,0,0,0-.76-.919,1.007,1.007,0,0,0-.775.33.325.325,0,0,1,.366.33.33.33,0,1,1-.66-.007c0-.473.495-.811,1.083-.811a1.369,1.369,0,0,1,.983.395,1.061,1.061,0,0,1,.258.846v1.435c0,.036.029.359.266.359.079,0,.258-.043.258-.459v-.4h.179v.4a.608.608,0,0,1-.588.681.6.6,0,0,1-.56-.588A.992.992,0,0,1,108.943,13.209Zm-.595-.767a.618.618,0,0,0,.646.609.862.862,0,0,0,.839-.925v-.718C108.649,11.452,108.348,12.047,108.348,12.442Z" transform="translate(-0.823 -1.341)"/>
    <path d="M111.311,10.261v-.222l1.011-.08v.754a1.131,1.131,0,0,1,1.062-.754.955.955,0,0,1,.753.266c.223.258.223.481.223,1.1v1.371c.007.215.186.215.559.215v.222c-.244-.007-.617-.021-.8-.021s-.56.014-.811.021v-.222c.481,0,.56,0,.56-.323V10.913c0-.408-.079-.8-.531-.8a1.048,1.048,0,0,0-.969,1.148v1.32c0,.323.079.323.56.323v.222c-.244-.007-.617-.021-.8-.021s-.559.014-.81.021v-.222c.48,0,.559,0,.559-.323V10.662C111.87,10.311,111.813,10.261,111.311,10.261Z" transform="translate(-0.823 -1.341)"/>
    <path d="M116.913,13.03a.936.936,0,0,0,.939-.753c.015-.043.029-.072.094-.072.021,0,.093,0,.093.072a1.18,1.18,0,0,1-1.191.932,1.588,1.588,0,0,1-1.542-1.629,1.608,1.608,0,0,1,1.556-1.664c.553,0,1.1.28,1.1.768a.33.33,0,1,1-.66.007.324.324,0,0,1,.337-.33,1.173,1.173,0,0,0-.768-.266c-.38,0-.968.3-.968,1.471S116.532,13.03,116.913,13.03Z" transform="translate(-0.823 -1.341)"/>
    <path d="M119.036,8.854c0-.351-.058-.4-.56-.4V8.231l1.033-.08v2.511a1.137,1.137,0,0,1,1.04-.7.958.958,0,0,1,.754.266c.222.258.222.481.222,1.1v1.371c.007.215.187.215.56.215v.222c-.244-.007-.617-.021-.8-.021s-.559.014-.81.021v-.222c.48,0,.559,0,.559-.323V10.913c0-.408-.079-.8-.531-.8a1.048,1.048,0,0,0-.968,1.148v1.32c0,.323.079.323.559.323v.222c-.244-.007-.617-.021-.8-.021s-.56.014-.811.021v-.222c.481,0,.56,0,.56-.323Z" transform="translate(-0.823 -1.341)"/>
    <path d="M126.725,12.563c0,.266.022.345.667.345h.23v.222c-.251-.021-.875-.021-1.162-.021s-.911,0-1.162.021v-.222h.229c.646,0,.667-.086.667-.345V8.847a2.142,2.142,0,0,1-.939.187V8.812a1.769,1.769,0,0,0,1.305-.46c.165,0,.165.014.165.187Z" transform="translate(-0.823 -1.341)"/>
  </g>
  <g>
    <path d="M80.626,26.928a1.466,1.466,0,0,1-1.6,1.313H76.215v-.223h.172c.552,0,.566-.078.566-.337V23.9c0-.258-.014-.338-.566-.338h-.172v-.222H78.84a1.441,1.441,0,0,1,1.593,1.212c0,.531-.5.99-1.191,1.127A1.408,1.408,0,0,1,80.626,26.928Zm-2.037-1.313a1.083,1.083,0,0,0,1.148-1.062.954.954,0,0,0-.947-.99H77.9c-.337,0-.351.051-.351.287v1.765Zm1.32,1.306A1.075,1.075,0,0,0,78.9,25.773H77.549v1.958c0,.237.014.287.351.287h.9A1.084,1.084,0,0,0,79.909,26.921Z" transform="translate(-0.823 -1.341)"/>
    <path d="M83.115,25.07a.489.489,0,0,1,.531.437.3.3,0,0,1-.309.316.3.3,0,0,1-.308-.308.311.311,0,0,1,.165-.28.186.186,0,0,0-.079-.007c-.545,0-.846.639-.846,1.349v1.1c0,.259.014.337.545.337h.15v.223c-.286-.022-.624-.022-.911-.022-.2,0-.538.015-.818.022v-.223c.481,0,.56,0,.56-.322V25.773c0-.351-.057-.4-.56-.4v-.223l1-.079v.789A1,1,0,0,1,83.115,25.07Z" transform="translate(-0.823 -1.341)"/>
    <path d="M85.289,28.32c-.453,0-1.148-.179-1.148-.761a1.045,1.045,0,0,1,.717-.932,3.484,3.484,0,0,1,1.32-.258V26.1a.812.812,0,0,0-.76-.918,1,1,0,0,0-.775.33c.33.007.366.243.366.33a.33.33,0,1,1-.66-.007c0-.474.495-.811,1.083-.811a1.369,1.369,0,0,1,.983.395,1.061,1.061,0,0,1,.258.846V27.7c0,.036.029.359.266.359.078,0,.258-.044.258-.459v-.4h.179v.4a.608.608,0,0,1-.588.681.6.6,0,0,1-.56-.588A.992.992,0,0,1,85.289,28.32Zm-.6-.768a.618.618,0,0,0,.646.61.862.862,0,0,0,.839-.926v-.717C84.994,26.562,84.693,27.158,84.693,27.552Z" transform="translate(-0.823 -1.341)"/>
    <path d="M87.656,25.372v-.223l1.011-.079v.753a1.132,1.132,0,0,1,1.062-.753.959.959,0,0,1,.753.265c.223.259.223.481.223,1.1V27.8c.007.215.186.215.559.215v.223c-.244-.007-.617-.022-.8-.022s-.56.015-.811.022v-.223c.481,0,.56,0,.56-.322V26.024c0-.409-.079-.8-.531-.8a1.048,1.048,0,0,0-.969,1.148V27.7c0,.322.079.322.56.322v.223c-.244-.007-.617-.022-.8-.022s-.559.015-.81.022v-.223c.48,0,.559,0,.559-.322V25.773C88.215,25.422,88.158,25.372,87.656,25.372Z" transform="translate(-0.823 -1.341)"/>
    <path d="M93.258,28.141a.939.939,0,0,0,.94-.753c.014-.044.028-.072.093-.072.022,0,.093,0,.093.072a1.18,1.18,0,0,1-1.191.932,1.588,1.588,0,0,1-1.542-1.629,1.608,1.608,0,0,1,1.557-1.664c.552,0,1.1.28,1.1.767a.33.33,0,1,1-.66.008.323.323,0,0,1,.337-.33,1.172,1.172,0,0,0-.767-.266c-.381,0-.969.3-.969,1.471S92.877,28.141,93.258,28.141Z" transform="translate(-0.823 -1.341)"/>
    <path d="M95.381,23.965c0-.351-.058-.4-.56-.4v-.222l1.033-.079v2.511a1.135,1.135,0,0,1,1.04-.7.961.961,0,0,1,.754.265c.222.259.222.481.222,1.1V27.8c.007.215.187.215.56.215v.223c-.244-.007-.617-.022-.8-.022s-.559.015-.81.022v-.223c.48,0,.559,0,.559-.322V26.024c0-.409-.079-.8-.531-.8a1.048,1.048,0,0,0-.968,1.148V27.7c0,.322.079.322.559.322v.223c-.243-.007-.617-.022-.8-.022s-.56.015-.811.022v-.223c.481,0,.56,0,.56-.322Z" transform="translate(-0.823 -1.341)"/>
    <path d="M103.164,27.688a2.348,2.348,0,0,0,.681-.057,2.356,2.356,0,0,0,.158-.639h.179l-.2,1.249H101.32c0-.172,0-.187.079-.266l1.377-1.535a2.567,2.567,0,0,0,.753-1.585c0-.589-.308-1.169-.961-1.169a1.034,1.034,0,0,0-.968.731.277.277,0,0,1,.093-.007.363.363,0,0,1,.38.373.377.377,0,1,1-.753-.022,1.325,1.325,0,0,1,1.341-1.3,1.409,1.409,0,0,1,1.521,1.392c0,.717-.43,1.105-1.549,2.095l-.76.738Z" transform="translate(-0.823 -1.341)"/>
  </g>
  <g>
    <path d="M127.838,26.849a1.467,1.467,0,0,1-1.6,1.313h-2.812v-.223h.172c.552,0,.566-.079.566-.337V23.821c0-.258-.014-.337-.566-.337h-.172v-.222h2.625a1.44,1.44,0,0,1,1.593,1.212c0,.531-.495.99-1.191,1.126A1.41,1.41,0,0,1,127.838,26.849ZM125.8,25.536a1.082,1.082,0,0,0,1.148-1.062.953.953,0,0,0-.947-.99h-.89c-.337,0-.351.05-.351.287v1.765Zm1.32,1.306a1.075,1.075,0,0,0-1.011-1.148h-1.349v1.958c0,.238.014.287.351.287h.9A1.084,1.084,0,0,0,127.121,26.842Z" transform="translate(-0.823 -1.341)"/>
    <path d="M130.327,24.991a.49.49,0,0,1,.531.438.3.3,0,0,1-.309.315.3.3,0,0,1-.308-.308.309.309,0,0,1,.165-.28.189.189,0,0,0-.079-.007c-.545,0-.846.638-.846,1.348V27.6c0,.258.014.337.545.337h.15v.223c-.287-.022-.624-.022-.911-.022-.2,0-.538.015-.818.022v-.223c.481,0,.56,0,.56-.322V25.694c0-.352-.057-.4-.56-.4V25.07l1-.079v.789A1,1,0,0,1,130.327,24.991Z" transform="translate(-0.823 -1.341)"/>
    <path d="M132.5,28.24c-.452,0-1.147-.179-1.147-.76a1.044,1.044,0,0,1,.717-.932,3.468,3.468,0,0,1,1.32-.259v-.266a.813.813,0,0,0-.761-.918,1,1,0,0,0-.774.331c.33.007.366.243.366.329a.33.33,0,1,1-.66-.007c0-.473.5-.81,1.083-.81a1.37,1.37,0,0,1,.983.394,1.062,1.062,0,0,1,.258.847v1.435c0,.036.029.358.266.358.078,0,.258-.043.258-.459v-.4h.179v.4a.609.609,0,0,1-.588.682.6.6,0,0,1-.56-.588A.991.991,0,0,1,132.5,28.24Zm-.595-.767a.618.618,0,0,0,.646.61.862.862,0,0,0,.839-.926V26.44C132.206,26.483,131.905,27.078,131.905,27.473Z" transform="translate(-0.823 -1.341)"/>
    <path d="M134.867,25.292V25.07l1.012-.079v.753a1.131,1.131,0,0,1,1.062-.753.959.959,0,0,1,.753.265c.223.258.223.481.223,1.1v1.37c.007.215.186.215.559.215v.223c-.244-.007-.617-.022-.8-.022s-.56.015-.811.022v-.223c.48,0,.56,0,.56-.322V25.945c0-.409-.08-.8-.531-.8a1.047,1.047,0,0,0-.969,1.147v1.321c0,.322.079.322.56.322v.223c-.244-.007-.617-.022-.8-.022s-.559.015-.811.022v-.223c.481,0,.56,0,.56-.322V25.694C135.427,25.342,135.37,25.292,134.867,25.292Z" transform="translate(-0.823 -1.341)"/>
    <path d="M140.47,28.061a.936.936,0,0,0,.939-.753c.015-.043.029-.072.094-.072.021,0,.093,0,.093.072a1.179,1.179,0,0,1-1.191.932,1.587,1.587,0,0,1-1.542-1.628,1.608,1.608,0,0,1,1.556-1.664c.553,0,1.1.28,1.1.768a.33.33,0,1,1-.66.007.325.325,0,0,1,.337-.331,1.176,1.176,0,0,0-.768-.265c-.38,0-.968.3-.968,1.47S140.089,28.061,140.47,28.061Z" transform="translate(-0.823 -1.341)"/>
    <path d="M142.593,23.886c0-.352-.058-.4-.56-.4v-.222l1.033-.079v2.511a1.137,1.137,0,0,1,1.04-.7.961.961,0,0,1,.754.265c.222.258.222.481.222,1.1v1.37c.007.215.187.215.56.215v.223c-.244-.007-.617-.022-.8-.022s-.559.015-.81.022v-.223c.48,0,.559,0,.559-.322V25.945c0-.409-.079-.8-.531-.8a1.047,1.047,0,0,0-.968,1.147v1.321c0,.322.079.322.559.322v.223c-.244-.007-.617-.022-.8-.022s-.56.015-.811.022v-.223c.481,0,.56,0,.56-.322Z" transform="translate(-0.823 -1.341)"/>
    <path d="M151.452,26.935a1.464,1.464,0,0,1-1.528,1.385,1.31,1.31,0,0,1-1.45-1.127.4.4,0,1,1,.8-.014.391.391,0,0,1-.473.394,1.305,1.305,0,0,0,1.1.546c.316,0,.811-.208.811-1.184,0-.7-.266-1.191-.854-1.191h-.315c-.122,0-.173,0-.173-.079s.051-.079.108-.086.222-.014.28-.021a.7.7,0,0,0,.638-.374,1.8,1.8,0,0,0,.2-.817c0-.646-.4-.8-.689-.8a1.164,1.164,0,0,0-.954.445c.108,0,.445,0,.445.359a.366.366,0,1,1-.732-.007c0-.546.545-.976,1.27-.976.689,0,1.32.4,1.32.99a1.382,1.382,0,0,1-1,1.263A1.383,1.383,0,0,1,151.452,26.935Z" transform="translate(-0.823 -1.341)"/>
  </g>
  <polyline class="cls-2" points="120.349 59.961 120.349 29.748 177.054 29.748"/>
  <g>
    <path d="M135.127,62.993a1.468,1.468,0,0,1-1.6,1.313h-2.812v-.223h.172c.553,0,.567-.079.567-.337V59.965c0-.258-.014-.337-.567-.337h-.172v-.223h2.625a1.441,1.441,0,0,1,1.593,1.213c0,.53-.5.99-1.191,1.126A1.409,1.409,0,0,1,135.127,62.993Zm-2.038-1.314a1.081,1.081,0,0,0,1.148-1.061.953.953,0,0,0-.947-.99H132.4c-.337,0-.352.05-.352.286v1.765Zm1.321,1.306a1.075,1.075,0,0,0-1.012-1.147h-1.349V63.8c0,.237.015.287.352.287h.9A1.085,1.085,0,0,0,134.41,62.985Z" transform="translate(-0.823 -1.341)"/>
    <path d="M137.414,64.384c-1.09,0-1.09-.652-1.09-1.212V62.1c0-.639,0-.66-.56-.66v-.223l1.055-.079v2.382c0,.373.029.711.631.711.524,0,.869-.488.869-1.113V61.838c0-.352-.058-.4-.56-.4v-.223l1.055-.079v2.547c0,.352.057.4.559.4v.223l-1.033.078v-.645A.98.98,0,0,1,137.414,64.384Z" transform="translate(-0.823 -1.341)"/>
    <path d="M140.061,62.584a.767.767,0,0,1-.308-.61c0-.4.272-.882,1.147-.882a1.111,1.111,0,0,1,.675.2.884.884,0,0,0,.122-.115c.093-.085.108-.085.144-.085.078,0,.078.049.078.172v.724c0,.136,0,.172-.093.172-.014,0-.079,0-.086-.064a.791.791,0,0,0-.84-.868c-.617,0-.8.294-.8.545,0,.416.481.509.883.588a1.46,1.46,0,0,1,.817.344.93.93,0,0,1,.3.682c0,.516-.33,1-1.155,1a1.074,1.074,0,0,1-.79-.308,1.521,1.521,0,0,0-.143.165c-.136.136-.143.143-.179.143-.079,0-.079-.05-.079-.172v-.947c0-.129,0-.179.093-.179.072,0,.079.028.1.122.137.61.4,1.019,1,1.019.559,0,.81-.288.81-.653,0-.517-.588-.632-.746-.661A1.886,1.886,0,0,1,140.061,62.584Z" transform="translate(-0.823 -1.341)"/>
    <path d="M146.933,63.753a2.32,2.32,0,0,0,.682-.058,2.342,2.342,0,0,0,.157-.638h.18l-.2,1.249h-2.662c0-.173,0-.188.079-.266l1.378-1.535a2.574,2.574,0,0,0,.753-1.586c0-.588-.308-1.169-.961-1.169a1.035,1.035,0,0,0-.969.731.281.281,0,0,1,.093-.007.364.364,0,0,1,.381.374.377.377,0,1,1-.754-.022,1.326,1.326,0,0,1,1.342-1.3,1.41,1.41,0,0,1,1.521,1.392c0,.717-.431,1.105-1.55,2.1l-.76.739Z" transform="translate(-0.823 -1.341)"/>
  </g>
  <g>
    <path d="M173.251,4.928a1.466,1.466,0,0,1-1.6,1.313H168.84V6.018h.171c.553,0,.567-.079.567-.337V1.9c0-.257-.014-.337-.567-.337h-.171V1.341h2.625a1.44,1.44,0,0,1,1.593,1.212c0,.531-.5.99-1.191,1.127A1.407,1.407,0,0,1,173.251,4.928Zm-2.037-1.313a1.083,1.083,0,0,0,1.148-1.062.953.953,0,0,0-.947-.99h-.89c-.337,0-.351.05-.351.287V3.615Zm1.32,1.306a1.075,1.075,0,0,0-1.011-1.148h-1.349V5.731c0,.237.014.287.351.287h.9A1.084,1.084,0,0,0,172.534,4.921Z" transform="translate(-0.823 -1.341)"/>
    <path d="M175.539,6.32c-1.09,0-1.09-.653-1.09-1.212V4.031c0-.638,0-.66-.56-.66V3.149l1.055-.079V5.451c0,.374.028.711.631.711.524,0,.868-.488.868-1.112V3.773c0-.352-.058-.4-.56-.4V3.149l1.055-.079V5.617c0,.351.057.4.559.4v.223l-1.032.079V5.674A.98.98,0,0,1,175.539,6.32Z" transform="translate(-0.823 -1.341)"/>
    <path d="M178.186,4.518a.762.762,0,0,1-.309-.609c0-.4.273-.883,1.148-.883a1.106,1.106,0,0,1,.675.2.937.937,0,0,0,.122-.114c.093-.087.107-.087.143-.087.079,0,.079.051.079.173v.725c0,.136,0,.172-.093.172a.076.076,0,0,1-.086-.065.792.792,0,0,0-.84-.868c-.617,0-.8.294-.8.545,0,.417.48.509.882.588a1.467,1.467,0,0,1,.818.345.923.923,0,0,1,.3.682c0,.516-.33,1-1.155,1a1.07,1.07,0,0,1-.789-.309,1.521,1.521,0,0,0-.143.165c-.137.137-.144.144-.18.144-.079,0-.079-.051-.079-.173V5.2c0-.129,0-.179.094-.179.071,0,.078.029.1.122.136.61.4,1.019,1,1.019.56,0,.811-.287.811-.653,0-.517-.589-.631-.746-.66A1.866,1.866,0,0,1,178.186,4.518Z" transform="translate(-0.823 -1.341)"/>
    <path d="M186.134,5.014A1.464,1.464,0,0,1,184.606,6.4a1.309,1.309,0,0,1-1.449-1.127.4.4,0,1,1,.8-.014.392.392,0,0,1-.473.394,1.3,1.3,0,0,0,1.1.545c.316,0,.811-.208.811-1.183,0-.7-.265-1.191-.854-1.191h-.315c-.122,0-.173,0-.173-.079s.051-.079.108-.086.223-.014.28-.021a.694.694,0,0,0,.638-.374,1.784,1.784,0,0,0,.2-.817c0-.646-.394-.8-.689-.8a1.161,1.161,0,0,0-.954.444c.108,0,.445,0,.445.359a.366.366,0,1,1-.732-.007c0-.546.546-.976,1.27-.976.689,0,1.32.4,1.32.99a1.382,1.382,0,0,1-1,1.262A1.384,1.384,0,0,1,186.134,5.014Z" transform="translate(-0.823 -1.341)"/>
  </g>
  <circle class="cls-2" cx="19.089" cy="23.587" r="9.524" transform="translate(-4.364 2.032) rotate(-9.245)"/>
  <path class="cls-5" d="M23.9,22.535s-1.5,1.987-2.266,2.1c-.93.143-2.546-1.057-2.546-1.057S16.74,22.4,16.248,22.535c-.712.2-2.084,2.1-2.084,2.1" transform="translate(-0.823 -1.341)"/>
  <g>
    <path d="M3.334,41.194a2.61,2.61,0,0,1-.015-5.216,1.766,1.766,0,0,1,1.327.617l.359-.531c.058-.086.086-.086.115-.086.079,0,.079.051.079.172v1.7c0,.151,0,.172-.115.172-.1,0-.1-.021-.114-.123-.144-1.054-.8-1.7-1.565-1.7-.43,0-1.843.238-1.843,2.382s1.42,2.39,1.886,2.39c.2,0,1.112-.065,1.112-.869v-.459c0-.266-.021-.344-.667-.344H3.664v-.223c.258.022.868.022,1.155.022.215,0,.61-.015.875-.022V39.3c-.466,0-.5.036-.5.316v1.247c0,.109,0,.166-.064.166-.08,0-.367-.287-.46-.445A1.536,1.536,0,0,1,3.334,41.194Z" transform="translate(-0.823 -1.341)"/>
    <path d="M7.056,40.455a.966.966,0,0,0,.811.48,1.01,1.01,0,0,0,.968-.738c.015-.058.029-.1.094-.1a.084.084,0,0,1,.093.087,1.226,1.226,0,0,1-1.2.932,1.62,1.62,0,0,1-1.579-1.657,1.569,1.569,0,0,1,1.493-1.636,1.272,1.272,0,0,1,1.284,1.406c0,.15-.022.15-.18.15h-2A2.092,2.092,0,0,0,7.056,40.455Zm1.492-1.227c0-.28-.071-1.248-.81-1.248-.244,0-.847.179-.89,1.248Z" transform="translate(-0.823 -1.341)"/>
    <path d="M9.459,38.166v-.222l1.011-.079v.753a1.133,1.133,0,0,1,1.062-.753.963.963,0,0,1,.754.265c.222.258.222.481.222,1.1V40.6c.007.216.187.216.559.216v.222c-.243-.007-.617-.021-.8-.021s-.559.014-.811.021v-.222c.481,0,.56,0,.56-.323V38.819c0-.409-.079-.8-.531-.8a1.047,1.047,0,0,0-.968,1.147v1.321c0,.323.078.323.559.323v.222c-.244-.007-.617-.021-.8-.021s-.56.014-.811.021v-.222c.481,0,.56,0,.56-.323V38.568C10.019,38.217,9.961,38.166,9.459,38.166Z" transform="translate(-0.823 -1.341)"/>
    <path d="M14.222,40.455a.966.966,0,0,0,.811.48A1.011,1.011,0,0,0,16,40.2c.015-.058.029-.1.093-.1a.084.084,0,0,1,.094.087,1.226,1.226,0,0,1-1.2.932,1.62,1.62,0,0,1-1.579-1.657A1.569,1.569,0,0,1,14.9,37.822a1.272,1.272,0,0,1,1.284,1.406c0,.15-.022.15-.18.15h-2A2.092,2.092,0,0,0,14.222,40.455Zm1.492-1.227c0-.28-.071-1.248-.81-1.248-.244,0-.847.179-.89,1.248Z" transform="translate(-0.823 -1.341)"/>
    <path d="M18.476,37.865a.489.489,0,0,1,.53.438.3.3,0,0,1-.308.315.3.3,0,0,1-.309-.308.311.311,0,0,1,.165-.28.18.18,0,0,0-.078-.007c-.546,0-.847.638-.847,1.348v1.106c0,.258.014.337.545.337h.151v.222c-.287-.021-.624-.021-.911-.021-.2,0-.538.014-.818.021v-.222c.481,0,.559,0,.559-.323V38.568c0-.351-.057-.4-.559-.4v-.222l1-.079v.789A1.006,1.006,0,0,1,18.476,37.865Z" transform="translate(-0.823 -1.341)"/>
    <path d="M20.649,41.115c-.452,0-1.148-.18-1.148-.761a1.044,1.044,0,0,1,.718-.932,3.5,3.5,0,0,1,1.319-.259V38.9a.812.812,0,0,0-.76-.918,1.008,1.008,0,0,0-.775.33.325.325,0,0,1,.366.33.33.33,0,1,1-.66-.007c0-.474.5-.811,1.083-.811a1.369,1.369,0,0,1,.983.395,1.061,1.061,0,0,1,.258.846V40.5c0,.036.029.358.266.358.079,0,.258-.042.258-.458V40h.179v.4a.608.608,0,0,1-.588.681.6.6,0,0,1-.559-.588A.993.993,0,0,1,20.649,41.115Zm-.6-.768a.619.619,0,0,0,.646.611.862.862,0,0,0,.839-.926v-.718C20.355,39.357,20.053,39.953,20.053,40.347Z" transform="translate(-0.823 -1.341)"/>
    <path d="M24.027,40.16c0,.123,0,.775.481.775.266,0,.481-.272.481-.8v-.395h.179v.409c0,.46-.2.969-.71.969a.869.869,0,0,1-.926-.969v-1.98h-.609v-.157c.7-.029.918-.8.925-1.385h.179v1.32h1.026v.222H24.027Z" transform="translate(-0.823 -1.341)"/>
    <path d="M27.356,41.115A1.6,1.6,0,0,1,25.77,39.5a1.591,1.591,0,1,1,3.178,0A1.6,1.6,0,0,1,27.356,41.115Zm.839-.71a2.179,2.179,0,0,0,.158-.962,1.964,1.964,0,0,0-.187-1,.94.94,0,0,0-.81-.466.962.962,0,0,0-.818.48,2.062,2.062,0,0,0-.172.983,2.139,2.139,0,0,0,.179,1.012.937.937,0,0,0,.818.48A.924.924,0,0,0,28.2,40.405Z" transform="translate(-0.823 -1.341)"/>
    <path d="M31.237,37.865a.489.489,0,0,1,.53.438.3.3,0,0,1-.308.315.3.3,0,0,1-.309-.308.311.311,0,0,1,.165-.28.18.18,0,0,0-.078-.007c-.546,0-.847.638-.847,1.348v1.106c0,.258.014.337.545.337h.151v.222c-.287-.021-.624-.021-.911-.021-.2,0-.538.014-.818.021v-.222c.481,0,.559,0,.559-.323V38.568c0-.351-.057-.4-.559-.4v-.222l1-.079v.789A1.006,1.006,0,0,1,31.237,37.865Z" transform="translate(-0.823 -1.341)"/>
    <path d="M36.458,40.47c0,.265.022.344.667.344h.23v.222c-.251-.021-.875-.021-1.162-.021s-.911,0-1.162.021v-.222h.229c.646,0,.667-.086.667-.344V36.753a2.143,2.143,0,0,1-.94.187v-.223a1.773,1.773,0,0,0,1.306-.459c.165,0,.165.014.165.187Z" transform="translate(-0.823 -1.341)"/>
  </g>
  <line class="cls-1" x1="28.026" y1="22.404" x2="47.868" y2="22.404"/>
  <g>
    <line class="cls-2" x1="112.929" y1="76.405" x2="112.929" y2="61.04"/>
    <polygon class="cls-3" points="115.707 74.299 112.929 75.479 110.152 74.299 112.929 80.882 115.707 74.299"/>
  </g>
</svg>
