<svg id="Layer_1" data-name="Layer 1" xmlns="http://www.w3.org/2000/svg" viewBox="0 0 230.96 122.989"><defs><style>.cls-1,.cls-5{fill:none;}.cls-1{stroke:#010101;stroke-width:1.9px;}.cls-1,.cls-3,.cls-4,.cls-5{stroke-miterlimit:10;}.cls-2{fill:#231f20;}.cls-3{fill:#ed1c24;stroke-width:0.5px;}.cls-3,.cls-4,.cls-5{stroke:#231f20;}.cls-4{fill:#fff;}</style></defs><path d="M147.423,75.209a1.467,1.467,0,0,1-1.6,1.312h-2.812V76.3h.172c.552,0,.567-.078.567-.336V72.181c0-.258-.015-.338-.567-.338h-.172v-.222h2.625a1.441,1.441,0,0,1,1.593,1.212c0,.531-.5.99-1.191,1.127A1.409,1.409,0,0,1,147.423,75.209ZM145.385,73.9a1.081,1.081,0,0,0,1.148-1.062.954.954,0,0,0-.947-.99H144.7c-.338,0-.352.051-.352.287V73.9Zm1.32,1.306a1.075,1.075,0,0,0-1.011-1.148h-1.349v1.959c0,.237.014.286.352.286h.9A1.083,1.083,0,0,0,146.705,75.2Z" transform="translate(-1.465 -1.625)"/><path d="M149.71,76.6c-1.09,0-1.09-.652-1.09-1.212V74.311c0-.638,0-.659-.559-.659v-.223l1.054-.079v2.382c0,.373.028.711.631.711.524,0,.868-.488.868-1.113V74.053c0-.351-.057-.4-.559-.4v-.223l1.054-.079V75.9c0,.352.058.4.56.4v.223l-1.033.079v-.645A.98.98,0,0,1,149.71,76.6Z" transform="translate(-1.465 -1.625)"/><path d="M152.357,74.8a.761.761,0,0,1-.308-.609c0-.4.272-.883,1.147-.883a1.106,1.106,0,0,1,.675.2.945.945,0,0,0,.122-.115c.093-.086.107-.086.143-.086.079,0,.079.05.079.173V74.2c0,.136,0,.172-.093.172a.076.076,0,0,1-.086-.065.791.791,0,0,0-.84-.867c-.617,0-.8.294-.8.545,0,.416.48.509.882.588a1.466,1.466,0,0,1,.818.344.93.93,0,0,1,.3.682c0,.516-.33,1-1.154,1a1.072,1.072,0,0,1-.79-.309,1.564,1.564,0,0,0-.143.166c-.137.136-.144.143-.18.143-.078,0-.078-.05-.078-.172v-.947c0-.129,0-.18.093-.18.072,0,.079.029.1.123.136.609.4,1.019,1,1.019.559,0,.81-.288.81-.654,0-.516-.588-.631-.746-.66A1.871,1.871,0,0,1,152.357,74.8Z" transform="translate(-1.465 -1.625)"/><path d="M157.227,75.337v-.222l2.2-3.364c.057-.087.079-.087.143-.087.115,0,.115.043.115.187v3.264h.717v.222h-.717v.625c0,.258.015.336.546.336h.15v.223c-.294-.021-.674-.021-.976-.021s-.674,0-.968.021V76.3h.151c.53,0,.544-.078.544-.336v-.625Zm1.952-2.9-1.751,2.676h1.751Z" transform="translate(-1.465 -1.625)"/><path d="M122.132,89.826a1.467,1.467,0,0,1-1.6,1.313h-2.812v-.223h.171c.553,0,.567-.079.567-.337V86.8c0-.258-.014-.337-.567-.337h-.171v-.222h2.625a1.44,1.44,0,0,1,1.593,1.212c0,.531-.495.99-1.191,1.126A1.41,1.41,0,0,1,122.132,89.826ZM120.1,88.513a1.082,1.082,0,0,0,1.148-1.062.953.953,0,0,0-.947-.99h-.89c-.337,0-.351.05-.351.287v1.765Zm1.32,1.306a1.075,1.075,0,0,0-1.011-1.148h-1.349v1.958c0,.238.014.287.351.287h.9A1.084,1.084,0,0,0,121.415,89.819Z" transform="translate(-1.465 -1.625)"/><path d="M124.621,87.967a.491.491,0,0,1,.531.439.3.3,0,0,1-.309.315.3.3,0,0,1-.308-.308.309.309,0,0,1,.165-.28.189.189,0,0,0-.079-.007c-.545,0-.847.638-.847,1.348v1.1c0,.258.015.337.546.337h.15v.223c-.287-.022-.624-.022-.911-.022-.2,0-.538.015-.818.022v-.223c.481,0,.56,0,.56-.322V88.671c0-.352-.057-.4-.56-.4v-.222l1-.08v.79A1,1,0,0,1,124.621,87.967Z" transform="translate(-1.465 -1.625)"/><path d="M126.794,91.217c-.452,0-1.147-.179-1.147-.76a1.044,1.044,0,0,1,.717-.932,3.468,3.468,0,0,1,1.32-.259V89a.813.813,0,0,0-.761-.918,1,1,0,0,0-.774.331c.33.007.365.243.365.329a.33.33,0,1,1-.659-.007c0-.473.495-.81,1.083-.81a1.37,1.37,0,0,1,.983.394,1.062,1.062,0,0,1,.258.847V90.6c0,.036.029.358.266.358.078,0,.258-.043.258-.459v-.4h.179v.4a.609.609,0,0,1-.588.682.6.6,0,0,1-.56-.588A.991.991,0,0,1,126.794,91.217Zm-.595-.767a.618.618,0,0,0,.646.61.862.862,0,0,0,.839-.926v-.717C126.5,89.46,126.2,90.055,126.2,90.45Z" transform="translate(-1.465 -1.625)"/><path d="M129.161,88.269v-.222l1.012-.08v.754a1.131,1.131,0,0,1,1.062-.754.96.96,0,0,1,.753.266c.223.258.223.481.223,1.1V90.7c.007.215.186.215.559.215v.223c-.244-.007-.617-.022-.8-.022s-.56.015-.811.022v-.223c.48,0,.56,0,.56-.322V88.922c0-.409-.08-.8-.531-.8a1.047,1.047,0,0,0-.969,1.147v1.321c0,.322.079.322.559.322v.223c-.243-.007-.616-.022-.8-.022s-.56.015-.811.022v-.223c.481,0,.56,0,.56-.322V88.671C129.721,88.319,129.664,88.269,129.161,88.269Z" transform="translate(-1.465 -1.625)"/><path d="M134.764,91.038a.936.936,0,0,0,.939-.753c.015-.043.029-.072.093-.072.022,0,.094,0,.094.072a1.18,1.18,0,0,1-1.191.932,1.587,1.587,0,0,1-1.542-1.628,1.606,1.606,0,0,1,1.556-1.664c.553,0,1.1.279,1.1.768a.33.33,0,1,1-.66.006.325.325,0,0,1,.337-.33,1.176,1.176,0,0,0-.768-.265c-.38,0-.968.3-.968,1.47S134.383,91.038,134.764,91.038Z" transform="translate(-1.465 -1.625)"/><path d="M136.887,86.863c0-.352-.058-.4-.56-.4v-.222l1.033-.079v2.511a1.137,1.137,0,0,1,1.04-.7.963.963,0,0,1,.754.266c.222.258.222.481.222,1.1V90.7c.007.215.186.215.559.215v.223c-.243-.007-.617-.022-.8-.022s-.56.015-.811.022v-.223c.481,0,.56,0,.56-.322V88.922c0-.409-.079-.8-.531-.8a1.047,1.047,0,0,0-.968,1.147v1.321c0,.322.078.322.559.322v.223c-.244-.007-.617-.022-.8-.022s-.56.015-.811.022v-.223c.481,0,.56,0,.56-.322Z" transform="translate(-1.465 -1.625)"/><path d="M145.746,89.912a1.464,1.464,0,0,1-1.529,1.385,1.309,1.309,0,0,1-1.449-1.127.4.4,0,1,1,.8-.014.393.393,0,0,1-.474.394,1.307,1.307,0,0,0,1.1.546c.316,0,.811-.208.811-1.184,0-.7-.266-1.191-.854-1.191h-.316c-.122,0-.172,0-.172-.079s.05-.079.108-.086.222-.014.28-.021a.7.7,0,0,0,.638-.374,1.8,1.8,0,0,0,.2-.817c0-.646-.395-.8-.689-.8a1.164,1.164,0,0,0-.954.445c.107,0,.445,0,.445.359a.366.366,0,1,1-.732-.007c0-.546.545-.976,1.27-.976.689,0,1.32.4,1.32.99a1.382,1.382,0,0,1-1,1.263A1.383,1.383,0,0,1,145.746,89.912Z" transform="translate(-1.465 -1.625)"/><path d="M147.473,12.339a1.467,1.467,0,0,1-1.6,1.313h-2.812V13.43h.172c.552,0,.566-.079.566-.337V9.311c0-.257-.014-.336-.566-.336h-.172V8.752h2.625a1.441,1.441,0,0,1,1.593,1.213c0,.53-.5.99-1.191,1.126A1.409,1.409,0,0,1,147.473,12.339Zm-2.038-1.313a1.082,1.082,0,0,0,1.148-1.061.953.953,0,0,0-.947-.99h-.89c-.337,0-.351.049-.351.286v1.765Zm1.32,1.306a1.075,1.075,0,0,0-1.011-1.148H144.4v1.959c0,.237.014.287.351.287h.9A1.085,1.085,0,0,0,146.755,12.332Z" transform="translate(-1.465 -1.625)"/><path d="M149.76,13.731c-1.09,0-1.09-.652-1.09-1.212V11.443c0-.639,0-.661-.56-.661V10.56l1.055-.079v2.382c0,.373.028.711.631.711.524,0,.868-.488.868-1.113V11.184c0-.351-.057-.4-.559-.4V10.56l1.054-.079v2.547c0,.352.058.4.56.4v.222l-1.033.079v-.645A.98.98,0,0,1,149.76,13.731Z" transform="translate(-1.465 -1.625)"/><path d="M152.407,11.93a.764.764,0,0,1-.309-.609c0-.4.273-.883,1.148-.883a1.106,1.106,0,0,1,.675.2.945.945,0,0,0,.122-.115c.093-.086.107-.086.143-.086.079,0,.079.05.079.173v.724c0,.136,0,.172-.093.172-.014,0-.079,0-.086-.064a.793.793,0,0,0-.84-.869c-.617,0-.8.294-.8.546,0,.416.48.509.882.588a1.463,1.463,0,0,1,.818.344.925.925,0,0,1,.3.682c0,.516-.329,1-1.155,1a1.073,1.073,0,0,1-.789-.308,1.521,1.521,0,0,0-.143.165c-.137.136-.144.143-.179.143-.08,0-.08-.05-.08-.172v-.947c0-.13,0-.179.094-.179.072,0,.079.028.1.121.136.61.4,1.02,1,1.02.56,0,.811-.288.811-.653,0-.517-.588-.632-.746-.661A1.871,1.871,0,0,1,152.407,11.93Z" transform="translate(-1.465 -1.625)"/><path d="M160.355,12.426a1.463,1.463,0,0,1-1.528,1.384,1.309,1.309,0,0,1-1.449-1.126.4.4,0,1,1,.8-.015.393.393,0,0,1-.473.395,1.305,1.305,0,0,0,1.1.545c.316,0,.811-.208.811-1.183,0-.7-.265-1.192-.854-1.192h-.315c-.122,0-.172,0-.172-.078s.05-.08.107-.087.223-.014.28-.021a.7.7,0,0,0,.638-.373,1.787,1.787,0,0,0,.2-.818c0-.646-.394-.8-.688-.8a1.165,1.165,0,0,0-.955.444c.108,0,.445,0,.445.359a.366.366,0,1,1-.732-.007c0-.546.546-.976,1.27-.976.689,0,1.32.4,1.32.99a1.382,1.382,0,0,1-1,1.263A1.383,1.383,0,0,1,160.355,12.426Z" transform="translate(-1.465 -1.625)"/><path d="M5.876,43.836a1.466,1.466,0,0,1-1.6,1.312H1.465v-.222h.172c.552,0,.566-.079.566-.337V40.808c0-.258-.014-.337-.566-.337H1.465v-.222H4.09a1.44,1.44,0,0,1,1.593,1.212c0,.531-.5.99-1.191,1.127A1.407,1.407,0,0,1,5.876,43.836ZM3.839,42.523a1.083,1.083,0,0,0,1.148-1.062.953.953,0,0,0-.947-.99H3.15c-.337,0-.351.05-.351.287v1.765Zm1.32,1.306A1.075,1.075,0,0,0,4.148,42.68H2.8v1.959c0,.237.014.287.351.287h.9A1.084,1.084,0,0,0,5.159,43.829Z" transform="translate(-1.465 -1.625)"/><path d="M8.164,45.227c-1.09,0-1.09-.652-1.09-1.212V42.939c0-.638,0-.66-.56-.66v-.222l1.055-.08v2.382c0,.373.028.711.631.711.524,0,.868-.488.868-1.112V42.68c0-.351-.057-.4-.559-.4v-.222l1.054-.08v2.548c0,.351.058.4.56.4v.222l-1.033.079v-.645A.978.978,0,0,1,8.164,45.227Z" transform="translate(-1.465 -1.625)"/><path d="M10.811,43.426a.762.762,0,0,1-.309-.609c0-.4.273-.883,1.148-.883a1.106,1.106,0,0,1,.675.2,1.011,1.011,0,0,0,.122-.114c.093-.087.107-.087.143-.087.079,0,.079.051.079.173v.725c0,.135,0,.172-.093.172a.076.076,0,0,1-.086-.065.792.792,0,0,0-.84-.868c-.617,0-.8.294-.8.545,0,.416.48.509.882.588a1.464,1.464,0,0,1,.818.345.925.925,0,0,1,.3.681c0,.517-.33,1-1.155,1a1.073,1.073,0,0,1-.789-.308,1.67,1.67,0,0,0-.143.165c-.137.136-.144.143-.18.143-.079,0-.079-.05-.079-.171v-.948c0-.129,0-.179.094-.179.072,0,.079.029.1.122.136.609.395,1.019,1,1.019.56,0,.811-.287.811-.653,0-.517-.588-.631-.746-.66A1.88,1.88,0,0,1,10.811,43.426Z" transform="translate(-1.465 -1.625)"/><path d="M17.589,44.582c0,.265.022.344.668.344h.229v.222c-.251-.021-.875-.021-1.162-.021s-.911,0-1.162.021v-.222h.23c.645,0,.667-.086.667-.344V40.866a2.156,2.156,0,0,1-.94.186V40.83a1.774,1.774,0,0,0,1.306-.459c.164,0,.164.014.164.186Z" transform="translate(-1.465 -1.625)"/><line class="cls-1" x1="8.511" y1="45.921" x2="8.511" y2="75.855"/><path class="cls-2" d="M219.882,5.127a1.433,1.433,0,0,1-1.562,1.282h-2.745V6.191h.168c.539,0,.553-.076.553-.329V2.171c0-.252-.014-.329-.553-.329h-.168V1.625h2.563a1.406,1.406,0,0,1,1.555,1.184c0,.518-.483.966-1.163,1.1A1.376,1.376,0,0,1,219.882,5.127Zm-1.989-1.282a1.057,1.057,0,0,0,1.121-1.036.931.931,0,0,0-.925-.967h-.868c-.329,0-.344.049-.344.281V3.845Zm1.289,1.275A1.049,1.049,0,0,0,218.194,4h-1.317V5.912c0,.231.015.279.344.279h.875A1.058,1.058,0,0,0,219.182,5.12Z" transform="translate(-1.465 -1.625)"/><path class="cls-2" d="M222.114,6.486c-1.065,0-1.065-.638-1.065-1.184V4.251c0-.623,0-.644-.546-.644V3.39l1.03-.077V5.638c0,.364.028.694.616.694.511,0,.847-.477.847-1.086V4c0-.344-.056-.393-.546-.393V3.39l1.03-.077V5.8c0,.344.056.392.546.392v.218l-1.009.077V5.855A.954.954,0,0,1,222.114,6.486Z" transform="translate(-1.465 -1.625)"/><path class="cls-2" d="M224.7,4.728a.748.748,0,0,1-.3-.6c0-.392.266-.861,1.12-.861a1.079,1.079,0,0,1,.659.2.9.9,0,0,0,.119-.112c.091-.084.1-.084.14-.084.077,0,.077.049.077.168v.708c0,.133,0,.167-.091.167a.075.075,0,0,1-.084-.063.773.773,0,0,0-.82-.847c-.6,0-.784.287-.784.533,0,.406.469.5.861.574a1.427,1.427,0,0,1,.8.336.9.9,0,0,1,.294.665c0,.505-.322.974-1.128.974a1.046,1.046,0,0,1-.77-.3,1.585,1.585,0,0,0-.14.161c-.133.133-.14.14-.175.14-.077,0-.077-.049-.077-.168V5.393c0-.126,0-.175.091-.175.07,0,.077.028.1.119.133.6.385,1,.973,1,.547,0,.792-.281.792-.638,0-.5-.575-.616-.728-.644A1.835,1.835,0,0,1,224.7,4.728Z" transform="translate(-1.465 -1.625)"/><path class="cls-2" d="M230.87,6.563A1.286,1.286,0,0,1,229.6,5.281a.347.347,0,1,1,.343.315.316.316,0,0,1-.119-.014,1.09,1.09,0,0,0,1.029.785.876.876,0,0,0,.75-.455,2.041,2.041,0,0,0,.168-.96,2.161,2.161,0,0,0-.126-.883.685.685,0,0,0-.6-.448,1.053,1.053,0,0,0-.9.49c-.028.042-.042.063-.091.063-.1,0-.1-.055-.1-.182V1.919c0-.112,0-.168.07-.168a.209.209,0,0,1,.084.021,2.273,2.273,0,0,0,.931.2,2.317,2.317,0,0,0,.953-.2.1.1,0,0,1,.056-.021.068.068,0,0,1,.07.077,1.527,1.527,0,0,1-1.352.729,2.218,2.218,0,0,1-.595-.091V3.824a1.233,1.233,0,0,1,.889-.357A1.438,1.438,0,0,1,232.4,5,1.547,1.547,0,0,1,230.87,6.563Z" transform="translate(-1.465 -1.625)"/><path class="cls-2" d="M219.855,82.372a1.433,1.433,0,0,1-1.563,1.282h-2.745v-.217h.168c.539,0,.554-.077.554-.329V79.417c0-.252-.015-.329-.554-.329h-.168v-.217h2.563a1.406,1.406,0,0,1,1.555,1.183c0,.519-.483.967-1.163,1.1A1.376,1.376,0,0,1,219.855,82.372Zm-1.99-1.281a1.056,1.056,0,0,0,1.12-1.037.93.93,0,0,0-.923-.966h-.87c-.329,0-.342.049-.342.28v1.723Zm1.288,1.275a1.049,1.049,0,0,0-.987-1.121H216.85v1.912c0,.231.013.28.342.28h.876A1.057,1.057,0,0,0,219.153,82.366Z" transform="translate(-1.465 -1.625)"/><path class="cls-2" d="M222.086,83.731c-1.064,0-1.064-.637-1.064-1.183V81.5c0-.623,0-.645-.547-.645v-.216l1.03-.077v2.325c0,.364.027.693.616.693.511,0,.847-.476.847-1.085V81.245c0-.343-.056-.393-.546-.393v-.216l1.029-.077v2.486c0,.343.057.392.547.392v.217l-1.009.077V83.1A.955.955,0,0,1,222.086,83.731Z" transform="translate(-1.465 -1.625)"/><path class="cls-2" d="M224.668,81.974a.75.75,0,0,1-.3-.6c0-.392.267-.861,1.121-.861a1.079,1.079,0,0,1,.659.2.968.968,0,0,0,.119-.112c.091-.084.105-.084.139-.084.077,0,.077.048.077.168v.707c0,.133,0,.168-.09.168a.075.075,0,0,1-.084-.063.773.773,0,0,0-.82-.847c-.6,0-.784.287-.784.532,0,.406.469.5.861.574a1.425,1.425,0,0,1,.8.336.906.906,0,0,1,.3.666c0,.5-.322.973-1.128.973a1.046,1.046,0,0,1-.77-.3,1.585,1.585,0,0,0-.14.161c-.134.133-.14.14-.176.14-.077,0-.077-.049-.077-.168v-.924c0-.126,0-.175.092-.175.069,0,.077.028.1.118.133.6.385,1,.973,1,.546,0,.791-.28.791-.637,0-.5-.574-.616-.727-.645A1.846,1.846,0,0,1,224.668,81.974Z" transform="translate(-1.465 -1.625)"/><path class="cls-2" d="M231.024,80.664a1.468,1.468,0,0,1,1.4,1.562,1.5,1.5,0,0,1-1.443,1.583c-.651,0-1.463-.5-1.463-2.368,0-1.548.945-2.451,1.841-2.451.581,0,.89.336.89.756a.322.322,0,1,1-.644.014c0-.315.28-.315.385-.315a.722.722,0,0,0-.616-.28c-.357,0-1.227.252-1.227,2.024v.168A.97.97,0,0,1,231.024,80.664Zm.652,2.493a3.738,3.738,0,0,0-.007-1.9.676.676,0,0,0-.651-.434c-.631,0-.855.7-.855,1.246a3.423,3.423,0,0,0,.126,1.016.805.805,0,0,0,.693.525A.732.732,0,0,0,231.676,83.157Z" transform="translate(-1.465 -1.625)"/><path d="M36.485,58.6a1.467,1.467,0,0,1-1.6,1.313H32.074v-.222h.172c.552,0,.566-.079.566-.338V55.572c0-.258-.014-.336-.566-.336h-.172v-.223H34.7a1.44,1.44,0,0,1,1.593,1.213c0,.53-.5.99-1.191,1.126A1.408,1.408,0,0,1,36.485,58.6Zm-2.037-1.313A1.082,1.082,0,0,0,35.6,56.226a.953.953,0,0,0-.947-.99h-.89c-.337,0-.351.049-.351.286v1.765Zm1.32,1.306a1.075,1.075,0,0,0-1.011-1.148H33.408V59.4c0,.237.014.287.351.287h.9A1.085,1.085,0,0,0,35.768,58.593Z" transform="translate(-1.465 -1.625)"/><path d="M38.974,56.742a.49.49,0,0,1,.531.438.3.3,0,0,1-.309.315.3.3,0,0,1-.308-.308.309.309,0,0,1,.165-.28.189.189,0,0,0-.079-.007c-.545,0-.847.638-.847,1.348v1.105c0,.259.015.338.546.338h.15v.222c-.287-.021-.624-.021-.911-.021-.2,0-.538.014-.818.021v-.222c.481,0,.56,0,.56-.323V57.445c0-.352-.057-.4-.56-.4v-.222l1-.079v.789A1,1,0,0,1,38.974,56.742Z" transform="translate(-1.465 -1.625)"/><path d="M41.147,59.991c-.452,0-1.147-.179-1.147-.76a1.044,1.044,0,0,1,.717-.932,3.487,3.487,0,0,1,1.32-.259v-.265a.813.813,0,0,0-.761-.918,1.006,1.006,0,0,0-.774.33c.33.007.366.244.366.329a.33.33,0,1,1-.66-.007c0-.473.5-.81,1.083-.81a1.37,1.37,0,0,1,.983.394,1.064,1.064,0,0,1,.258.847v1.435c0,.036.029.358.266.358.078,0,.258-.042.258-.459v-.4h.179v.4a.609.609,0,0,1-.588.682.6.6,0,0,1-.56-.588A.991.991,0,0,1,41.147,59.991Zm-.595-.767a.618.618,0,0,0,.646.61.862.862,0,0,0,.839-.925v-.718C40.853,58.234,40.552,58.83,40.552,59.224Z" transform="translate(-1.465 -1.625)"/><path d="M43.514,57.043v-.222l1.012-.079V57.5a1.131,1.131,0,0,1,1.062-.753.959.959,0,0,1,.753.265c.223.258.223.481.223,1.1v1.37c.007.216.186.216.559.216v.222c-.244-.007-.617-.021-.8-.021s-.56.014-.811.021v-.222c.48,0,.56,0,.56-.323V57.7c0-.409-.08-.8-.531-.8a1.047,1.047,0,0,0-.969,1.147v1.321c0,.323.079.323.559.323v.222c-.243-.007-.616-.021-.8-.021s-.559.014-.811.021v-.222c.481,0,.56,0,.56-.323V57.445C44.074,57.093,44.017,57.043,43.514,57.043Z" transform="translate(-1.465 -1.625)"/><path d="M49.117,59.812a.936.936,0,0,0,.939-.753c.015-.043.029-.072.094-.072.021,0,.093,0,.093.072a1.18,1.18,0,0,1-1.191.932,1.587,1.587,0,0,1-1.542-1.628A1.608,1.608,0,0,1,49.066,56.7c.553,0,1.1.28,1.1.768a.33.33,0,1,1-.66.007.324.324,0,0,1,.337-.33,1.173,1.173,0,0,0-.768-.266c-.38,0-.968.3-.968,1.471S48.736,59.812,49.117,59.812Z" transform="translate(-1.465 -1.625)"/><path d="M51.24,55.637c0-.352-.058-.4-.56-.4v-.223l1.033-.079v2.511a1.137,1.137,0,0,1,1.04-.7.963.963,0,0,1,.754.265c.222.258.222.481.222,1.1v1.37c.007.216.186.216.559.216v.222c-.243-.007-.617-.021-.8-.021s-.56.014-.811.021v-.222c.481,0,.56,0,.56-.323V57.7c0-.409-.079-.8-.531-.8a1.047,1.047,0,0,0-.968,1.147v1.321c0,.323.078.323.559.323v.222c-.244-.007-.617-.021-.8-.021s-.56.014-.811.021v-.222c.481,0,.56,0,.56-.323Z" transform="translate(-1.465 -1.625)"/><path d="M58.929,59.346c0,.266.022.345.667.345h.23v.222c-.251-.021-.875-.021-1.162-.021s-.911,0-1.162.021v-.222h.229c.646,0,.667-.086.667-.345V55.63a2.153,2.153,0,0,1-.94.186v-.222a1.773,1.773,0,0,0,1.306-.459c.165,0,.165.014.165.186Z" transform="translate(-1.465 -1.625)"/><path d="M121.3,27.23a1.467,1.467,0,0,1-1.6,1.313H116.89V28.32h.172c.552,0,.566-.079.566-.337V24.2c0-.258-.014-.337-.566-.337h-.172v-.222h2.625a1.44,1.44,0,0,1,1.593,1.212c0,.531-.5.99-1.191,1.126A1.41,1.41,0,0,1,121.3,27.23Zm-2.037-1.313a1.083,1.083,0,0,0,1.148-1.062.953.953,0,0,0-.947-.99h-.89c-.337,0-.351.051-.351.287v1.765Zm1.32,1.3a1.074,1.074,0,0,0-1.011-1.147h-1.349v1.958c0,.237.014.287.351.287h.9A1.084,1.084,0,0,0,120.584,27.222Z" transform="translate(-1.465 -1.625)"/><path d="M123.79,25.372a.49.49,0,0,1,.531.437.3.3,0,0,1-.309.316.3.3,0,0,1-.308-.308.309.309,0,0,1,.165-.28c-.015-.008-.029-.008-.079-.008-.545,0-.846.639-.846,1.35v1.1c0,.258.014.337.545.337h.15v.223c-.287-.022-.624-.022-.911-.022-.2,0-.538.015-.818.022V28.32c.481,0,.56,0,.56-.323V26.075c0-.352-.057-.4-.56-.4V25.45l1-.078v.789A1,1,0,0,1,123.79,25.372Z" transform="translate(-1.465 -1.625)"/><path d="M125.963,28.622c-.452,0-1.147-.18-1.147-.761a1.046,1.046,0,0,1,.717-.933,3.5,3.5,0,0,1,1.32-.258v-.265a.813.813,0,0,0-.76-.919,1,1,0,0,0-.775.331c.33.007.366.243.366.33a.33.33,0,1,1-.66-.007c0-.474.5-.811,1.083-.811a1.37,1.37,0,0,1,.983.394,1.062,1.062,0,0,1,.258.847v1.435c0,.036.029.359.266.359.078,0,.258-.044.258-.46v-.4h.179v.4a.609.609,0,0,1-.588.682A.6.6,0,0,1,126.9,28,.991.991,0,0,1,125.963,28.622Zm-.595-.768a.618.618,0,0,0,.646.61.862.862,0,0,0,.839-.926v-.717C125.669,26.864,125.368,27.459,125.368,27.854Z" transform="translate(-1.465 -1.625)"/><path d="M128.331,25.673V25.45l1.011-.078v.753a1.131,1.131,0,0,1,1.062-.753.955.955,0,0,1,.753.265c.223.259.223.481.223,1.1v1.37c.007.215.186.215.559.215v.223c-.244-.007-.617-.022-.8-.022s-.56.015-.811.022V28.32c.481,0,.56,0,.56-.323V26.326c0-.409-.079-.8-.531-.8a1.048,1.048,0,0,0-.969,1.148V28c0,.323.079.323.56.323v.223c-.244-.007-.617-.022-.8-.022s-.559.015-.81.022V28.32c.48,0,.559,0,.559-.323V26.075C128.89,25.723,128.833,25.673,128.331,25.673Z" transform="translate(-1.465 -1.625)"/><path d="M133.933,28.442a.936.936,0,0,0,.939-.753c.015-.043.029-.071.094-.071.021,0,.093,0,.093.071a1.181,1.181,0,0,1-1.191.933,1.588,1.588,0,0,1-1.542-1.629,1.608,1.608,0,0,1,1.556-1.664c.553,0,1.1.28,1.1.767a.33.33,0,1,1-.66.008.324.324,0,0,1,.337-.331,1.17,1.17,0,0,0-.768-.265c-.38,0-.968.3-.968,1.47S133.552,28.442,133.933,28.442Z" transform="translate(-1.465 -1.625)"/><path d="M136.056,24.267c0-.351-.058-.4-.56-.4v-.222l1.033-.079v2.511a1.135,1.135,0,0,1,1.04-.7.958.958,0,0,1,.754.265c.222.259.222.481.222,1.1v1.37c.007.215.187.215.559.215v.223c-.243-.007-.616-.022-.8-.022s-.559.015-.81.022V28.32c.48,0,.559,0,.559-.323V26.326c0-.409-.079-.8-.531-.8a1.048,1.048,0,0,0-.968,1.148V28c0,.323.078.323.559.323v.223c-.244-.007-.617-.022-.8-.022s-.56.015-.811.022V28.32c.481,0,.56,0,.56-.323Z" transform="translate(-1.465 -1.625)"/><path d="M143.839,27.99a2.348,2.348,0,0,0,.681-.057,2.356,2.356,0,0,0,.158-.639h.179l-.2,1.249H142c0-.172,0-.187.079-.266l1.377-1.535a2.569,2.569,0,0,0,.753-1.585c0-.589-.308-1.17-.961-1.17a1.033,1.033,0,0,0-.968.732.241.241,0,0,1,.093-.008.364.364,0,0,1,.38.374.377.377,0,1,1-.753-.022,1.326,1.326,0,0,1,1.341-1.3,1.41,1.41,0,0,1,1.521,1.393c0,.717-.43,1.1-1.549,2.094l-.761.739Z" transform="translate(-1.465 -1.625)"/><path class="cls-2" d="M178.616,97.28a1.433,1.433,0,0,1-1.562,1.282h-2.746v-.218h.168c.539,0,.554-.076.554-.329V94.324c0-.252-.015-.329-.554-.329h-.168v-.217h2.564a1.406,1.406,0,0,1,1.555,1.184c0,.518-.484.966-1.163,1.1A1.376,1.376,0,0,1,178.616,97.28ZM176.627,96a1.056,1.056,0,0,0,1.12-1.036.93.93,0,0,0-.924-.967h-.869c-.329,0-.343.049-.343.28V96Zm1.288,1.275a1.05,1.05,0,0,0-.987-1.121h-1.317v1.913c0,.231.014.279.343.279h.876A1.057,1.057,0,0,0,177.915,97.273Z" transform="translate(-1.465 -1.625)"/><path class="cls-2" d="M181.044,95.466a.477.477,0,0,1,.517.427.293.293,0,0,1-.3.308.289.289,0,0,1-.3-.3.3.3,0,0,1,.16-.273c-.014-.007-.027-.007-.076-.007-.532,0-.827.623-.827,1.317v1.078c0,.253.014.329.532.329h.147v.218c-.28-.021-.609-.021-.889-.021-.2,0-.526.014-.8.021v-.218c.469,0,.546,0,.546-.315V96.152c0-.343-.056-.392-.546-.392v-.217l.972-.077v.77A.983.983,0,0,1,181.044,95.466Z" transform="translate(-1.465 -1.625)"/><path class="cls-2" d="M183.164,98.639c-.441,0-1.121-.176-1.121-.743a1.021,1.021,0,0,1,.7-.91,3.39,3.39,0,0,1,1.288-.253v-.258a.793.793,0,0,0-.742-.9.983.983,0,0,0-.756.322.317.317,0,0,1,.356.322.322.322,0,1,1-.644-.007c0-.462.483-.791,1.058-.791a1.341,1.341,0,0,1,.96.385,1.038,1.038,0,0,1,.251.826v1.4c0,.035.029.35.26.35.076,0,.252-.042.252-.448v-.392h.175v.392a.6.6,0,0,1-.574.666.587.587,0,0,1-.547-.575A.969.969,0,0,1,183.164,98.639Zm-.581-.75a.6.6,0,0,0,.63.595.84.84,0,0,0,.819-.9v-.7C182.877,96.923,182.583,97.5,182.583,97.889Z" transform="translate(-1.465 -1.625)"/><path class="cls-2" d="M185.473,95.76v-.217l.988-.077V96.2a1.1,1.1,0,0,1,1.036-.735.932.932,0,0,1,.735.259c.218.252.218.469.218,1.071v1.338c.007.21.182.21.546.21v.218c-.238-.007-.6-.021-.784-.021s-.546.014-.791.021v-.218c.469,0,.546,0,.546-.315V96.4c0-.4-.077-.778-.519-.778a1.023,1.023,0,0,0-.945,1.121v1.288c0,.315.077.315.546.315v.218c-.238-.007-.6-.021-.784-.021s-.546.014-.792.021v-.218c.469,0,.546,0,.546-.315V96.152C186.019,95.809,185.964,95.76,185.473,95.76Z" transform="translate(-1.465 -1.625)"/><path class="cls-2" d="M190.941,98.463a.914.914,0,0,0,.917-.735c.014-.042.029-.07.091-.07.022,0,.092,0,.092.07a1.154,1.154,0,0,1-1.163.911,1.55,1.55,0,0,1-1.506-1.59,1.569,1.569,0,0,1,1.519-1.625c.54,0,1.073.273,1.073.749a.323.323,0,1,1-.645.007.316.316,0,0,1,.329-.322,1.141,1.141,0,0,0-.749-.259c-.372,0-.946.294-.946,1.436S190.569,98.463,190.941,98.463Z" transform="translate(-1.465 -1.625)"/><path class="cls-2" d="M193.013,94.387c0-.343-.057-.392-.547-.392v-.217l1.008-.077v2.451a1.109,1.109,0,0,1,1.016-.686.932.932,0,0,1,.735.259c.217.252.217.469.217,1.071v1.338c.007.21.183.21.547.21v.218c-.238-.007-.6-.021-.785-.021s-.546.014-.791.021v-.218c.47,0,.546,0,.546-.315V96.4c0-.4-.076-.778-.518-.778a1.023,1.023,0,0,0-.945,1.121v1.288c0,.315.076.315.546.315v.218c-.238-.007-.6-.021-.784-.021s-.547.014-.792.021v-.218c.469,0,.547,0,.547-.315Z" transform="translate(-1.465 -1.625)"/><path class="cls-2" d="M200.258,95.571a1.468,1.468,0,0,1,1.4,1.562,1.5,1.5,0,0,1-1.443,1.583c-.652,0-1.464-.5-1.464-2.368,0-1.548.946-2.451,1.843-2.451.581,0,.889.336.889.756a.322.322,0,1,1-.644.015c0-.316.28-.316.384-.316a.722.722,0,0,0-.616-.28c-.357,0-1.225.252-1.225,2.024v.168A.966.966,0,0,1,200.258,95.571Zm.651,2.494a3.742,3.742,0,0,0-.007-1.9.675.675,0,0,0-.651-.434c-.63,0-.855.7-.855,1.247a3.417,3.417,0,0,0,.126,1.015.808.808,0,0,0,.694.526A.734.734,0,0,0,200.909,98.065Z" transform="translate(-1.465 -1.625)"/><rect class="cls-3" x="77.494" y="77.674" width="5.669" height="5.669"/><line class="cls-1" x1="80.329" y1="45.921" x2="80.329" y2="75.855"/><path d="M77.587,43.836a1.467,1.467,0,0,1-1.6,1.312H73.175v-.223h.172c.553,0,.567-.078.567-.336V40.808c0-.258-.014-.338-.567-.338h-.172v-.222H75.8a1.44,1.44,0,0,1,1.592,1.212c0,.531-.5.99-1.191,1.127A1.408,1.408,0,0,1,77.587,43.836ZM75.55,42.522A1.081,1.081,0,0,0,76.7,41.46a.954.954,0,0,0-.947-.99h-.889c-.337,0-.352.051-.352.287v1.765Zm1.32,1.306a1.076,1.076,0,0,0-1.012-1.148H74.509v1.959c0,.237.015.286.352.286h.9A1.083,1.083,0,0,0,76.87,43.828Z" transform="translate(-1.465 -1.625)"/><path d="M79.874,45.227c-1.09,0-1.09-.652-1.09-1.212V42.939c0-.639,0-.66-.559-.66v-.223l1.054-.079v2.382c0,.373.029.711.631.711.524,0,.869-.488.869-1.113V42.68c0-.351-.058-.4-.56-.4v-.223l1.055-.079v2.547c0,.352.057.4.559.4v.223l-1.033.079v-.645A.98.98,0,0,1,79.874,45.227Z" transform="translate(-1.465 -1.625)"/><path d="M82.521,43.426a.764.764,0,0,1-.308-.609c0-.4.273-.883,1.148-.883a1.105,1.105,0,0,1,.674.2.884.884,0,0,0,.122-.115c.093-.086.108-.086.144-.086.078,0,.078.05.078.173v.724c0,.136,0,.172-.093.172-.014,0-.079,0-.086-.064a.791.791,0,0,0-.839-.868c-.617,0-.8.294-.8.545,0,.416.481.509.883.588a1.46,1.46,0,0,1,.817.344.926.926,0,0,1,.3.682c0,.516-.33,1-1.155,1a1.071,1.071,0,0,1-.789-.308,1.9,1.9,0,0,0-.144.165c-.136.136-.143.143-.179.143-.079,0-.079-.05-.079-.172v-.947c0-.129,0-.179.093-.179.072,0,.079.028.1.122.137.609.395,1.019,1,1.019.559,0,.811-.288.811-.654,0-.516-.589-.631-.747-.66A1.875,1.875,0,0,1,82.521,43.426Z" transform="translate(-1.465 -1.625)"/><path d="M89.393,44.6a2.32,2.32,0,0,0,.682-.058,2.4,2.4,0,0,0,.158-.638h.179l-.2,1.248H87.549c0-.172,0-.187.08-.265l1.377-1.535a2.574,2.574,0,0,0,.753-1.586c0-.588-.308-1.169-.961-1.169a1.035,1.035,0,0,0-.969.731.281.281,0,0,1,.093-.007.363.363,0,0,1,.381.373.377.377,0,1,1-.754-.021,1.326,1.326,0,0,1,1.342-1.3,1.41,1.41,0,0,1,1.521,1.392c0,.717-.431,1.1-1.549,2.095L88.1,44.6Z" transform="translate(-1.465 -1.625)"/><line class="cls-4" x1="8.511" y1="60.888" x2="80.459" y2="60.888"/><line class="cls-1" x1="150.243" y1="14.549" x2="150.243" y2="44.482"/><polyline class="cls-5" points="150.096 29.515 112.992 29.515 111.192 29.515 111.191 53.361 81.045 53.362"/><line class="cls-1" x1="222.521" y1="7.257" x2="222.521" y2="37.19"/><line class="cls-4" x1="150.573" y1="22.224" x2="222.521" y2="22.224"/><line class="cls-1" x1="150.243" y1="107.228" x2="150.243" y2="77.294"/><line class="cls-1" x1="222.521" y1="114.576" x2="222.521" y2="84.643"/><line class="cls-4" x1="150.573" y1="99.61" x2="222.521" y2="99.61"/><polyline class="cls-5" points="151.108 37.042 172.134 37.042 172.134 61.151 172.134 84.837 151.141 84.837"/><path d="M177.945,19.954a1.467,1.467,0,0,1-1.6,1.313h-2.812v-.222h.172c.552,0,.566-.079.566-.338V16.926c0-.258-.014-.336-.566-.336h-.172v-.222h2.625a1.439,1.439,0,0,1,1.593,1.212c0,.531-.5.99-1.191,1.126A1.408,1.408,0,0,1,177.945,19.954Zm-2.037-1.313a1.082,1.082,0,0,0,1.148-1.061.953.953,0,0,0-.947-.99h-.89c-.337,0-.351.05-.351.287v1.764Zm1.32,1.306a1.075,1.075,0,0,0-1.011-1.148h-1.349v1.959c0,.237.014.287.351.287h.9A1.085,1.085,0,0,0,177.228,19.947Z" transform="translate(-1.465 -1.625)"/><path d="M180.435,18.1a.49.49,0,0,1,.53.438.3.3,0,0,1-.308.316.3.3,0,0,1-.309-.309.311.311,0,0,1,.165-.28.186.186,0,0,0-.078-.007c-.546,0-.847.638-.847,1.349v1.1c0,.259.014.338.545.338h.15v.222c-.287-.021-.624-.021-.911-.021-.2,0-.538.014-.818.021v-.222c.481,0,.56,0,.56-.323V18.8c0-.352-.057-.4-.56-.4v-.222l1-.079v.789A1,1,0,0,1,180.435,18.1Z" transform="translate(-1.465 -1.625)"/><path d="M182.607,21.346c-.451,0-1.147-.18-1.147-.76a1.044,1.044,0,0,1,.717-.933,3.469,3.469,0,0,1,1.32-.258v-.266a.812.812,0,0,0-.76-.918,1.008,1.008,0,0,0-.775.33c.33.007.365.244.365.33a.33.33,0,1,1-.659-.007c0-.474.5-.811,1.083-.811a1.374,1.374,0,0,1,.983.394,1.064,1.064,0,0,1,.258.847v1.435c0,.036.028.359.266.359.079,0,.257-.043.257-.46v-.4h.18v.4a.609.609,0,0,1-.588.682.6.6,0,0,1-.56-.588A.991.991,0,0,1,182.607,21.346Zm-.595-.767a.618.618,0,0,0,.646.609.861.861,0,0,0,.839-.925v-.718C182.313,19.589,182.012,20.184,182.012,20.579Z" transform="translate(-1.465 -1.625)"/><path d="M184.975,18.4v-.222l1.011-.079v.754a1.131,1.131,0,0,1,1.062-.754.955.955,0,0,1,.753.266c.223.258.223.481.223,1.1V20.83c.007.215.186.215.559.215v.222c-.244-.007-.617-.021-.8-.021s-.559.014-.81.021v-.222c.481,0,.56,0,.56-.323V19.05c0-.409-.079-.8-.532-.8a1.047,1.047,0,0,0-.968,1.147v1.321c0,.323.079.323.559.323v.222c-.243-.007-.616-.021-.8-.021s-.559.014-.81.021v-.222c.48,0,.559,0,.559-.323V18.8C185.534,18.447,185.477,18.4,184.975,18.4Z" transform="translate(-1.465 -1.625)"/><path d="M190.576,21.166a.936.936,0,0,0,.94-.753c.015-.043.029-.071.094-.071.021,0,.093,0,.093.071a1.18,1.18,0,0,1-1.191.933,1.588,1.588,0,0,1-1.542-1.629,1.608,1.608,0,0,1,1.556-1.664c.552,0,1.1.28,1.1.768a.33.33,0,1,1-.659.007.323.323,0,0,1,.336-.33,1.173,1.173,0,0,0-.768-.266c-.38,0-.968.3-.968,1.471S190.2,21.166,190.576,21.166Z" transform="translate(-1.465 -1.625)"/><path d="M192.7,16.991c0-.351-.058-.4-.56-.4v-.222l1.034-.08V18.8a1.134,1.134,0,0,1,1.039-.7.959.959,0,0,1,.754.266c.222.258.222.481.222,1.1V20.83c.007.215.187.215.56.215v.222c-.244-.007-.618-.021-.8-.021s-.56.014-.812.021v-.222c.481,0,.56,0,.56-.323V19.05c0-.409-.079-.8-.53-.8A1.047,1.047,0,0,0,193.2,19.4v1.321c0,.323.079.323.56.323v.222c-.244-.007-.618-.021-.8-.021s-.56.014-.811.021v-.222c.481,0,.56,0,.56-.323Z" transform="translate(-1.465 -1.625)"/><path d="M198.481,20.084v-.223l2.2-3.365c.058-.086.08-.086.144-.086.115,0,.115.043.115.187v3.264h.717v.223h-.717v.623c0,.259.014.338.545.338h.151v.222c-.3-.021-.675-.021-.976-.021s-.674,0-.969.021v-.222h.151c.531,0,.545-.079.545-.338v-.623Zm1.952-2.9-1.751,2.676h1.751Z" transform="translate(-1.465 -1.625)"/><path class="cls-2" d="M72.417,92.11c0,.252.014.329.553.329h.168v.217c-.245-.021-.77-.021-1.036-.021s-.785,0-1.03.021v-.217h.168c.54,0,.553-.077.553-.329V88.419c0-.252-.013-.329-.553-.329h-.168v-.218h2.472a1.5,1.5,0,0,1,1.654,1.3,1.488,1.488,0,0,1-1.6,1.268H72.417Zm.945-1.849c1.114,0,1.114-.757,1.114-1.086s0-1.085-1.114-1.085h-.623c-.329,0-.343.049-.343.28v1.891Z" transform="translate(-1.465 -1.625)"/><path class="cls-2" d="M78.794,91.949l1.535-3.943c.048-.126.048-.134.231-.134h1.183v.218h-.168c-.539,0-.553.077-.553.329V92.11c0,.252.014.329.553.329h.168v.217c-.259-.021-.728-.021-1-.021s-.75,0-1.009.021v-.217H79.9c.539,0,.554-.077.554-.329V88.09h-.007l-1.723,4.433c-.028.077-.049.133-.126.133s-.105-.063-.14-.154l-1.688-4.356h-.007v3.775c0,.189,0,.518.721.518v.217c-.245-.007-.589-.021-.819-.021s-.575.014-.82.021v-.217c.721,0,.721-.329.721-.518v-3.5c0-.252-.014-.329-.553-.329h-.168v-.218H77.03c.161,0,.182,0,.245.155Z" transform="translate(-1.465 -1.625)"/><path class="cls-2" d="M86.075,88.608c0-.189,0-.518-.721-.518v-.218c.252.008.588.021.834.021s.574-.013.826-.021v.218c-.722,0-.722.315-.722.546v2.241a2.744,2.744,0,0,1-.021.483,1.628,1.628,0,0,1-1.555,1.45,1.758,1.758,0,0,1-1.764-1.751v-2.64c0-.252-.014-.329-.554-.329H82.23v-.218c.245.021.771.021,1.037.021s.784,0,1.029-.021v.218h-.168c-.539,0-.553.077-.553.329v2.668c0,1.331.826,1.506,1.155,1.506a1.425,1.425,0,0,0,1.345-1.555Z" transform="translate(-1.465 -1.625)"/><path class="cls-2" d="M91.639,92.1c0,.259.021.336.652.336h.224v.217c-.245-.021-.855-.021-1.135-.021s-.889,0-1.134.021v-.217h.224c.63,0,.651-.084.651-.336V88.475a2.1,2.1,0,0,1-.917.182V88.44a1.73,1.73,0,0,0,1.274-.448c.161,0,.161.014.161.182Z" transform="translate(-1.465 -1.625)"/><rect class="cls-3" x="147.409" y="109.546" width="5.669" height="5.669"/><path class="cls-2" d="M142.2,123.913c0,.253.015.329.554.329h.168v.217c-.245-.021-.77-.021-1.036-.021s-.785,0-1.03.021v-.217h.168c.539,0,.553-.076.553-.329v-3.691c0-.252-.014-.329-.553-.329h-.168v-.217h2.472a1.321,1.321,0,1,1,.056,2.57H142.2Zm.946-1.849c1.114,0,1.114-.756,1.114-1.085s0-1.086-1.114-1.086h-.623c-.329,0-.344.049-.344.28v1.891Z" transform="translate(-1.465 -1.625)"/><path class="cls-2" d="M148.576,123.752l1.534-3.943c.049-.126.049-.133.231-.133h1.184v.217h-.168c-.54,0-.554.077-.554.329v3.691c0,.253.014.329.554.329h.168v.217c-.26-.021-.729-.021-1-.021s-.749,0-1.009.021v-.217h.169c.539,0,.553-.076.553-.329v-4.02h-.007l-1.723,4.433c-.028.077-.049.133-.126.133s-.1-.063-.14-.154l-1.688-4.356h-.007v3.775c0,.189,0,.518.721.518v.217c-.245-.006-.588-.021-.819-.021s-.574.015-.819.021v-.217c.721,0,.721-.329.721-.518v-3.5c0-.252-.014-.329-.553-.329h-.168v-.217h1.183c.161,0,.182,0,.245.154Z" transform="translate(-1.465 -1.625)"/><path class="cls-2" d="M155.857,120.411c0-.189,0-.518-.722-.518v-.217c.252.007.589.021.834.021s.574-.014.826-.021v.217c-.721,0-.721.315-.721.546v2.242a2.757,2.757,0,0,1-.021.483,1.63,1.63,0,0,1-1.555,1.45,1.76,1.76,0,0,1-1.765-1.751v-2.641c0-.252-.014-.329-.553-.329h-.169v-.217c.246.021.771.021,1.037.021s.785,0,1.03-.021v.217h-.168c-.54,0-.554.077-.554.329v2.669c0,1.33.827,1.5,1.156,1.5a1.426,1.426,0,0,0,1.345-1.554Z" transform="translate(-1.465 -1.625)"/><path class="cls-2" d="M162.562,123.262a1.429,1.429,0,0,1-1.491,1.352,1.279,1.279,0,0,1-1.416-1.1.393.393,0,1,1,.785-.014.383.383,0,0,1-.462.385,1.274,1.274,0,0,0,1.072.532c.308,0,.791-.2.791-1.155,0-.686-.259-1.163-.833-1.163H160.7c-.119,0-.168,0-.168-.077s.049-.077.1-.084.217-.014.273-.021a.68.68,0,0,0,.624-.364,1.751,1.751,0,0,0,.2-.8c0-.63-.386-.784-.673-.784a1.134,1.134,0,0,0-.931.434c.1,0,.434,0,.434.35a.357.357,0,1,1-.714-.006c0-.533.532-.953,1.24-.953.672,0,1.288.392,1.288.967a1.348,1.348,0,0,1-.98,1.232A1.351,1.351,0,0,1,162.562,123.262Z" transform="translate(-1.465 -1.625)"/><polyline class="cls-5" points="149.478 92.261 112.375 92.261 110.575 92.261 110.573 68.415 80.427 68.414"/><rect class="cls-3" x="147.304" y="47.08" width="5.669" height="5.669"/><path class="cls-2" d="M142.227,61.516c0,.253.014.33.553.33h.168v.217c-.245-.021-.77-.021-1.036-.021s-.785,0-1.03.021v-.217h.168c.539,0,.553-.077.553-.33v-3.69c0-.252-.014-.33-.553-.33h-.168v-.217h2.472a1.5,1.5,0,0,1,1.653,1.3,1.488,1.488,0,0,1-1.6,1.267h-1.183Zm.945-1.849c1.114,0,1.114-.756,1.114-1.085s0-1.086-1.114-1.086h-.623c-.329,0-.343.049-.343.281v1.89Z" transform="translate(-1.465 -1.625)"/><path class="cls-2" d="M148.6,61.355l1.534-3.943c.049-.125.049-.133.231-.133h1.184V57.5h-.168c-.54,0-.553.078-.553.33v3.69c0,.253.013.33.553.33h.168v.217c-.26-.021-.729-.021-1-.021s-.749,0-1.009.021v-.217h.169c.539,0,.553-.077.553-.33V57.5h-.007l-1.723,4.434c-.028.077-.049.133-.126.133s-.1-.063-.14-.154l-1.688-4.356h-.007v3.775c0,.188,0,.518.721.518v.217c-.245-.007-.588-.021-.819-.021s-.574.014-.819.021v-.217c.721,0,.721-.33.721-.518v-3.5c0-.252-.014-.33-.553-.33h-.168v-.217h1.183c.161,0,.182,0,.245.154Z" transform="translate(-1.465 -1.625)"/><path class="cls-2" d="M155.885,58.015c0-.189,0-.519-.721-.519v-.217c.251.008.588.021.833.021s.574-.013.826-.021V57.5c-.721,0-.721.315-.721.547v2.241a2.751,2.751,0,0,1-.021.483,1.628,1.628,0,0,1-1.555,1.45,1.76,1.76,0,0,1-1.765-1.751v-2.64c0-.252-.014-.33-.553-.33h-.168v-.217c.245.021.77.021,1.036.021s.785,0,1.03-.021V57.5h-.168c-.54,0-.554.078-.554.33v2.668c0,1.331.827,1.506,1.156,1.506a1.426,1.426,0,0,0,1.345-1.555Z" transform="translate(-1.465 -1.625)"/><path class="cls-2" d="M161.54,61.524a2.281,2.281,0,0,0,.665-.056,2.3,2.3,0,0,0,.154-.624h.175l-.2,1.219h-2.6c0-.168,0-.182.077-.259l1.345-1.5a2.513,2.513,0,0,0,.735-1.548c0-.574-.3-1.141-.939-1.141a1.008,1.008,0,0,0-.945.714.267.267,0,0,1,.091-.007.354.354,0,0,1,.371.364.368.368,0,1,1-.735-.021,1.294,1.294,0,0,1,1.309-1.268,1.376,1.376,0,0,1,1.485,1.359c0,.7-.42,1.079-1.513,2.045l-.742.722Z" transform="translate(-1.465 -1.625)"/><path class="cls-2" d="M177.158,51.921a1.432,1.432,0,0,1-1.281-1.562V47.613h.217v.169c0,.539.076.553.329.553h3.691c.252,0,.329-.014.329-.553v-.169h.217v2.564a1.4,1.4,0,0,1-1.183,1.554c-.519,0-.967-.482-1.1-1.162A1.375,1.375,0,0,1,177.158,51.921Zm1.282-1.989a1.057,1.057,0,0,0,1.037,1.121.93.93,0,0,0,.966-.925V49.26c0-.329-.049-.344-.28-.344H178.44Zm-1.275,1.289a1.05,1.05,0,0,0,1.121-.988V48.916h-1.912c-.231,0-.28.015-.28.344v.875A1.059,1.059,0,0,0,177.165,51.221Z" transform="translate(-1.465 -1.625)"/><path class="cls-2" d="M178.972,54.349a.478.478,0,0,1-.427.518.294.294,0,0,1-.308-.3.29.29,0,0,1,.3-.3.3.3,0,0,1,.273.161.18.18,0,0,0,.007-.077c0-.533-.623-.827-1.316-.827h-1.079c-.253,0-.329.014-.329.533V54.2h-.217c.021-.279.021-.608.021-.888,0-.2-.015-.526-.021-.8h.217c0,.469,0,.546.315.546h1.877c.343,0,.392-.056.392-.546h.217l.077.973h-.77A.981.981,0,0,1,178.972,54.349Z" transform="translate(-1.465 -1.625)"/><path class="cls-2" d="M175.8,56.469c0-.441.176-1.12.743-1.12a1.018,1.018,0,0,1,.91.7,3.4,3.4,0,0,1,.253,1.289h.258a.793.793,0,0,0,.9-.742.984.984,0,0,0-.322-.757c-.007.322-.238.357-.322.357a.322.322,0,1,1,.007-.644c.462,0,.791.483.791,1.057a1.335,1.335,0,0,1-.385.959,1.033,1.033,0,0,1-.826.253h-1.4c-.035,0-.35.028-.35.259,0,.077.042.252.448.252h.392v.175H176.5a.594.594,0,0,1-.665-.574.585.585,0,0,1,.574-.546A.969.969,0,0,1,175.8,56.469Zm.75-.581a.6.6,0,0,0-.595.631.841.841,0,0,0,.9.819h.7C177.515,56.182,176.934,55.888,176.549,55.888Z" transform="translate(-1.465 -1.625)"/><path class="cls-2" d="M178.678,58.778h.217l.077.988h-.735a1.1,1.1,0,0,1,.735,1.037.933.933,0,0,1-.259.735c-.252.217-.469.217-1.071.217H176.3c-.21.007-.21.183-.21.547h-.217c.006-.238.021-.6.021-.785s-.015-.546-.021-.791h.217c0,.469,0,.546.315.546h1.632c.4,0,.777-.077.777-.518a1.023,1.023,0,0,0-1.121-.945h-1.288c-.315,0-.315.076-.315.546h-.217c.006-.239.021-.6.021-.785s-.015-.547-.021-.792h.217c0,.47,0,.547.315.547h1.877C178.629,59.325,178.678,59.269,178.678,58.778Z" transform="translate(-1.465 -1.625)"/><path class="cls-2" d="M175.975,64.246a.915.915,0,0,0,.735.918c.042.014.07.027.07.091,0,.02,0,.091-.07.091a1.152,1.152,0,0,1-.911-1.162,1.55,1.55,0,0,1,1.59-1.506,1.568,1.568,0,0,1,1.625,1.519c0,.539-.273,1.072-.749,1.072a.323.323,0,1,1-.007-.645.316.316,0,0,1,.322.329,1.14,1.14,0,0,0,.259-.749c0-.371-.294-.945-1.436-.945C176.276,63.259,175.975,63.875,175.975,64.246Z" transform="translate(-1.465 -1.625)"/><path class="cls-2" d="M180.051,66.317c.343,0,.392-.055.392-.545h.217l.077,1.007h-2.451a1.109,1.109,0,0,1,.686,1.016.932.932,0,0,1-.259.735c-.252.218-.469.218-1.071.218H176.3c-.21.007-.21.182-.21.546h-.217c.006-.238.021-.6.021-.784s-.015-.546-.021-.791h.217c0,.469,0,.546.315.546h1.632c.4,0,.777-.077.777-.519A1.023,1.023,0,0,0,177.7,66.8h-1.288c-.315,0-.315.077-.315.546h-.217c.006-.238.021-.6.021-.784s-.015-.546-.021-.791h.217c0,.468,0,.545.315.545Z" transform="translate(-1.465 -1.625)"/><path class="cls-2" d="M175.722,73.381A1.287,1.287,0,0,1,177,72.113a.348.348,0,1,1-.315.344.312.312,0,0,1,.014-.119,1.091,1.091,0,0,0-.784,1.029.876.876,0,0,0,.455.749,2.026,2.026,0,0,0,.96.169,2.153,2.153,0,0,0,.882-.126.684.684,0,0,0,.448-.6,1.051,1.051,0,0,0-.49-.9c-.042-.028-.063-.042-.063-.091,0-.1.056-.1.182-.1h2.073c.112,0,.168,0,.168.07a.209.209,0,0,1-.021.084,2.274,2.274,0,0,0-.2.932,2.32,2.32,0,0,0,.2.952.1.1,0,0,1,.021.055.068.068,0,0,1-.077.071,1.527,1.527,0,0,1-.729-1.352,2.22,2.22,0,0,1,.092-.595h-1.366a1.231,1.231,0,0,1,.357.889,1.437,1.437,0,0,1-1.534,1.331A1.548,1.548,0,0,1,175.722,73.381Z" transform="translate(-1.465 -1.625)"/></svg>