<svg id="Layer_1" data-name="Layer 1" xmlns="http://www.w3.org/2000/svg" viewBox="0 0 251.829 126.592">
  <defs>
    <style>
      .cls-1, .cls-2, .cls-5 {
        fill: none;
      }

      .cls-1, .cls-3 {
        stroke: #231f20;
      }

      .cls-1, .cls-2, .cls-3, .cls-5 {
        stroke-miterlimit: 10;
      }

      .cls-2 {
        stroke: #000;
      }

      .cls-3 {
        fill: #fff;
      }

      .cls-4 {
        fill: #231f20;
      }

      .cls-5 {
        stroke: #010101;
        stroke-width: 1.9px;
      }
    </style>
  </defs>
  <circle class="cls-1" cx="30.246" cy="16.47" r="9.524" transform="translate(-3.293 3.305) rotate(-9.245)"/>
  <path class="cls-2" d="M35.055,15.208s-1.5,1.987-2.266,2.1c-.931.142-2.546-1.058-2.546-1.058s-2.346-1.184-2.837-1.045c-.713.2-2.084,2.1-2.084,2.1" transform="translate(-1.039 -1.768)"/>
  <line class="cls-3" x1="38.967" y1="14.86" x2="58.809" y2="14.86"/>
  <g>
    <line class="cls-1" x1="43.444" y1="94.765" x2="58.809" y2="94.765"/>
    <polygon class="cls-4" points="45.551 97.542 44.371 94.765 45.551 91.988 38.967 94.765 45.551 97.542"/>
  </g>
  <g>
    <line class="cls-1" x1="148.137" y1="30.046" x2="132.771" y2="30.046"/>
    <polygon class="cls-4" points="146.03 27.268 147.21 30.046 146.03 32.823 152.614 30.046 146.03 27.268"/>
  </g>
  <g>
    <line class="cls-1" x1="147.241" y1="94.765" x2="131.875" y2="94.765"/>
    <polygon class="cls-4" points="145.134 91.988 146.314 94.765 145.134 97.542 151.718 94.765 145.134 91.988"/>
  </g>
  <g>
    <path d="M56.369,5.513a1.467,1.467,0,0,1-1.6,1.313H51.958V6.6h.172c.552,0,.566-.078.566-.337V2.485c0-.258-.014-.337-.566-.337h-.172V1.926h2.625a1.44,1.44,0,0,1,1.593,1.212c0,.531-.5.99-1.191,1.127A1.408,1.408,0,0,1,56.369,5.513ZM54.332,4.2A1.083,1.083,0,0,0,55.48,3.138a.953.953,0,0,0-.947-.99h-.89c-.337,0-.351.05-.351.287V4.2Zm1.32,1.306a1.075,1.075,0,0,0-1.011-1.148H53.292V6.317c0,.237.014.286.351.286h.9A1.084,1.084,0,0,0,55.652,5.506Z" transform="translate(-1.039 -1.768)"/>
    <path d="M58.657,6.9c-1.09,0-1.09-.652-1.09-1.212V4.616c0-.638,0-.66-.56-.66V3.734l1.055-.08V6.037c0,.372.028.71.631.71.524,0,.868-.488.868-1.112V4.358c0-.352-.057-.4-.559-.4V3.734l1.054-.08V6.2c0,.352.058.4.56.4v.223L59.583,6.9V6.259A.978.978,0,0,1,58.657,6.9Z" transform="translate(-1.039 -1.768)"/>
    <path d="M61.3,5.1A.765.765,0,0,1,61,4.494c0-.4.273-.882,1.148-.882a1.106,1.106,0,0,1,.675.2A1.106,1.106,0,0,0,62.94,3.7c.093-.086.107-.086.143-.086.079,0,.079.05.079.172v.725c0,.135,0,.172-.093.172a.076.076,0,0,1-.086-.065.792.792,0,0,0-.84-.868c-.617,0-.8.294-.8.546,0,.415.48.509.882.587a1.464,1.464,0,0,1,.818.345.925.925,0,0,1,.3.681c0,.517-.33,1-1.155,1A1.073,1.073,0,0,1,61.4,6.6a1.67,1.67,0,0,0-.143.165c-.137.136-.144.143-.18.143C61,6.9,61,6.854,61,6.733V5.786c0-.13,0-.18.094-.18.072,0,.079.029.1.122.136.61.4,1.019,1,1.019.56,0,.811-.287.811-.653,0-.517-.588-.631-.746-.66A1.881,1.881,0,0,1,61.3,5.1Z" transform="translate(-1.039 -1.768)"/>
    <path d="M68.082,6.259c0,.266.022.344.668.344h.229v.223C68.728,6.8,68.1,6.8,67.817,6.8s-.911,0-1.162.022V6.6h.23c.645,0,.667-.085.667-.344V2.543a2.156,2.156,0,0,1-.94.186V2.507a1.774,1.774,0,0,0,1.306-.459c.164,0,.164.014.164.186Z" transform="translate(-1.039 -1.768)"/>
  </g>
  <line class="cls-5" x1="59.429" y1="7.455" x2="59.429" y2="37.389"/>
  <g>
    <path class="cls-4" d="M56.337,70.08a1.433,1.433,0,0,1-1.562,1.282H52.03v-.218H52.2c.54,0,.554-.076.554-.329V67.124c0-.252-.014-.329-.554-.329H52.03v-.217h2.563a1.406,1.406,0,0,1,1.555,1.184c0,.518-.484.966-1.163,1.1A1.376,1.376,0,0,1,56.337,70.08ZM54.348,68.8a1.056,1.056,0,0,0,1.12-1.036.93.93,0,0,0-.924-.967h-.869c-.329,0-.343.049-.343.281V68.8Zm1.288,1.275a1.05,1.05,0,0,0-.987-1.121H53.332v1.913c0,.231.014.279.343.279h.876A1.057,1.057,0,0,0,55.636,70.073Z" transform="translate(-1.039 -1.768)"/>
    <path class="cls-4" d="M58.569,71.439c-1.065,0-1.065-.638-1.065-1.184V69.2c0-.623,0-.644-.547-.644v-.217l1.031-.077v2.325c0,.364.027.694.616.694.51,0,.846-.477.846-1.086V68.952c0-.343-.055-.392-.545-.392v-.217l1.029-.077v2.486c0,.344.056.392.547.392v.218l-1.009.077v-.631A.955.955,0,0,1,58.569,71.439Z" transform="translate(-1.039 -1.768)"/>
    <path class="cls-4" d="M61.151,69.681a.746.746,0,0,1-.3-.6c0-.392.266-.861,1.121-.861a1.077,1.077,0,0,1,.658.2.9.9,0,0,0,.119-.112c.091-.084.106-.084.14-.084.077,0,.077.049.077.168V69.1c0,.134,0,.168-.091.168-.013,0-.077,0-.084-.063a.772.772,0,0,0-.819-.847c-.6,0-.784.287-.784.533,0,.406.469.5.861.574a1.427,1.427,0,0,1,.8.336.9.9,0,0,1,.3.665c0,.5-.322.974-1.128.974a1.052,1.052,0,0,1-.771-.3,1.3,1.3,0,0,0-.139.161c-.134.132-.141.14-.176.14-.077,0-.077-.049-.077-.168v-.925c0-.126,0-.175.092-.175.069,0,.077.028.1.119.133.6.386.995.974.995.546,0,.791-.281.791-.638,0-.5-.574-.616-.728-.644A1.831,1.831,0,0,1,61.151,69.681Z" transform="translate(-1.039 -1.768)"/>
    <path class="cls-4" d="M67.507,68.371a1.468,1.468,0,0,1,1.4,1.562,1.5,1.5,0,0,1-1.442,1.583c-.651,0-1.464-.5-1.464-2.368,0-1.548.946-2.451,1.842-2.451.581,0,.89.337.89.756a.323.323,0,1,1-.645.015c0-.316.28-.316.386-.316a.722.722,0,0,0-.616-.28c-.358,0-1.227.252-1.227,2.024v.168A.969.969,0,0,1,67.507,68.371Zm.651,2.494a3.727,3.727,0,0,0-.006-1.9.676.676,0,0,0-.652-.434c-.631,0-.854.7-.854,1.247a3.417,3.417,0,0,0,.126,1.015.806.806,0,0,0,.693.526A.732.732,0,0,0,68.158,70.865Z" transform="translate(-1.039 -1.768)"/>
  </g>
  <line class="cls-5" x1="132.136" y1="15.079" x2="132.136" y2="45.012"/>
  <g>
    <path d="M128.969,13.137a1.467,1.467,0,0,1-1.6,1.312h-2.812v-.223h.172c.553,0,.567-.078.567-.336V10.109c0-.258-.014-.338-.567-.338h-.172V9.549h2.626a1.44,1.44,0,0,1,1.592,1.212c0,.531-.5.99-1.191,1.127A1.408,1.408,0,0,1,128.969,13.137Zm-2.037-1.314a1.081,1.081,0,0,0,1.147-1.062.954.954,0,0,0-.947-.99h-.889c-.337,0-.352.051-.352.287v1.765Zm1.32,1.306a1.076,1.076,0,0,0-1.012-1.148h-1.349V13.94c0,.237.015.286.352.286h.9A1.083,1.083,0,0,0,128.252,13.129Z" transform="translate(-1.039 -1.768)"/>
    <path d="M131.256,14.528c-1.09,0-1.09-.652-1.09-1.212V12.239c0-.638,0-.659-.559-.659v-.223l1.054-.079V13.66c0,.373.029.711.631.711.524,0,.869-.488.869-1.113V11.981c0-.351-.058-.4-.56-.4v-.223l1.055-.079v2.547c0,.352.057.4.559.4v.223l-1.033.079v-.645A.98.98,0,0,1,131.256,14.528Z" transform="translate(-1.039 -1.768)"/>
    <path d="M133.9,12.727a.764.764,0,0,1-.308-.609c0-.4.273-.883,1.148-.883a1.105,1.105,0,0,1,.674.2.884.884,0,0,0,.122-.115c.093-.086.108-.086.144-.086.078,0,.078.05.078.173v.724c0,.136,0,.172-.093.172a.077.077,0,0,1-.086-.065.79.79,0,0,0-.839-.867c-.617,0-.8.294-.8.545,0,.416.481.509.883.588a1.46,1.46,0,0,1,.817.344.924.924,0,0,1,.3.682c0,.516-.33,1-1.155,1a1.069,1.069,0,0,1-.789-.309,1.966,1.966,0,0,0-.144.166c-.136.136-.143.143-.179.143-.079,0-.079-.05-.079-.172v-.947c0-.129,0-.18.093-.18.072,0,.079.029.1.123.137.609.395,1.019,1,1.019.559,0,.811-.288.811-.654,0-.516-.589-.631-.747-.66A1.875,1.875,0,0,1,133.9,12.727Z" transform="translate(-1.039 -1.768)"/>
    <path d="M140.775,13.9a2.32,2.32,0,0,0,.682-.058,2.4,2.4,0,0,0,.158-.638h.179l-.2,1.248h-2.662c0-.172,0-.187.08-.265l1.377-1.535a2.574,2.574,0,0,0,.753-1.586c0-.588-.308-1.169-.961-1.169a1.035,1.035,0,0,0-.969.731.281.281,0,0,1,.093-.007.363.363,0,0,1,.381.373.377.377,0,1,1-.754-.021,1.326,1.326,0,0,1,1.342-1.3,1.41,1.41,0,0,1,1.521,1.392c0,.717-.431,1.1-1.549,2.095l-.761.739Z" transform="translate(-1.039 -1.768)"/>
  </g>
  <line class="cls-3" x1="59.429" y1="22.422" x2="131.378" y2="22.422"/>
  <line class="cls-5" x1="204.509" y1="87.388" x2="204.509" y2="117.322"/>
  <polyline class="cls-1" points="131.875 37.571 107.678 37.571 107.677 79.647 59.956 79.648"/>
  <line class="cls-3" x1="59.658" y1="94.765" x2="131.607" y2="94.765"/>
  <line class="cls-5" x1="59.429" y1="102.141" x2="59.429" y2="72.207"/>
  <line class="cls-3" x1="132.353" y1="102.448" x2="204.301" y2="102.448"/>
  <g>
    <path d="M86.978,20.557a1.466,1.466,0,0,1-1.6,1.313H82.567v-.222h.172c.552,0,.566-.079.566-.338V17.53c0-.258-.014-.337-.566-.337h-.172v-.222h2.625a1.44,1.44,0,0,1,1.593,1.212c0,.531-.495.99-1.191,1.126A1.408,1.408,0,0,1,86.978,20.557Zm-2.037-1.312a1.083,1.083,0,0,0,1.148-1.062.953.953,0,0,0-.947-.99h-.89c-.337,0-.351.05-.351.287v1.765Zm1.32,1.3A1.075,1.075,0,0,0,85.25,19.4H83.9v1.959c0,.237.014.287.351.287h.9A1.085,1.085,0,0,0,86.261,20.55Z" transform="translate(-1.039 -1.768)"/>
    <path d="M89.467,18.7a.49.49,0,0,1,.531.438.3.3,0,0,1-.309.316.3.3,0,0,1-.308-.309.311.311,0,0,1,.165-.28.189.189,0,0,0-.079-.007c-.545,0-.847.639-.847,1.349v1.1c0,.259.015.338.546.338h.15v.222c-.287-.021-.624-.021-.911-.021-.2,0-.538.014-.818.021v-.222c.481,0,.56,0,.56-.323V19.4c0-.351-.057-.4-.56-.4v-.222l1-.08v.79A1,1,0,0,1,89.467,18.7Z" transform="translate(-1.039 -1.768)"/>
    <path d="M91.64,21.949c-.452,0-1.147-.179-1.147-.76a1.045,1.045,0,0,1,.717-.933A3.484,3.484,0,0,1,92.53,20v-.265a.813.813,0,0,0-.761-.919,1.006,1.006,0,0,0-.774.33.325.325,0,0,1,.366.33.33.33,0,1,1-.66-.007c0-.473.5-.811,1.083-.811a1.371,1.371,0,0,1,.983.395,1.061,1.061,0,0,1,.258.846v1.435c0,.036.029.359.266.359.078,0,.258-.043.258-.459v-.4h.179v.4a.608.608,0,0,1-.588.681.6.6,0,0,1-.56-.588A.992.992,0,0,1,91.64,21.949Zm-.595-.767a.618.618,0,0,0,.646.609.862.862,0,0,0,.839-.925v-.718C91.346,20.192,91.045,20.787,91.045,21.182Z" transform="translate(-1.039 -1.768)"/>
    <path d="M94.007,19v-.222l1.012-.08v.754a1.131,1.131,0,0,1,1.062-.754.955.955,0,0,1,.753.266c.223.258.223.481.223,1.1v1.371c.007.215.186.215.559.215v.222c-.244-.007-.617-.021-.8-.021s-.56.014-.811.021v-.222c.48,0,.56,0,.56-.323V19.653c0-.408-.08-.8-.531-.8a1.048,1.048,0,0,0-.969,1.148v1.32c0,.323.079.323.559.323v.222c-.243-.007-.616-.021-.8-.021s-.559.014-.811.021v-.222c.481,0,.56,0,.56-.323V19.4C94.567,19.051,94.51,19,94.007,19Z" transform="translate(-1.039 -1.768)"/>
    <path d="M99.61,21.77a.936.936,0,0,0,.939-.753c.015-.043.029-.072.094-.072.021,0,.093,0,.093.072a1.181,1.181,0,0,1-1.191.932A1.588,1.588,0,0,1,98,20.32a1.608,1.608,0,0,1,1.556-1.664c.553,0,1.1.28,1.1.768a.33.33,0,1,1-.66.007.324.324,0,0,1,.337-.33,1.173,1.173,0,0,0-.768-.266c-.38,0-.968.3-.968,1.471S99.229,21.77,99.61,21.77Z" transform="translate(-1.039 -1.768)"/>
    <path d="M101.733,17.594c0-.351-.058-.4-.56-.4v-.222l1.033-.08V19.4a1.137,1.137,0,0,1,1.04-.7.959.959,0,0,1,.754.266c.222.258.222.481.222,1.1v1.371c.007.215.186.215.559.215v.222c-.243-.007-.617-.021-.8-.021s-.56.014-.811.021v-.222c.481,0,.56,0,.56-.323V19.653c0-.408-.079-.8-.531-.8a1.048,1.048,0,0,0-.968,1.148v1.32c0,.323.078.323.559.323v.222c-.244-.007-.617-.021-.8-.021s-.56.014-.811.021v-.222c.481,0,.56,0,.56-.323Z" transform="translate(-1.039 -1.768)"/>
    <path d="M109.422,21.3c0,.266.022.345.667.345h.23v.222c-.251-.021-.875-.021-1.162-.021s-.911,0-1.162.021v-.222h.229c.646,0,.667-.086.667-.345V17.587a2.143,2.143,0,0,1-.94.187v-.222a1.771,1.771,0,0,0,1.306-.46c.165,0,.165.014.165.187Z" transform="translate(-1.039 -1.768)"/>
  </g>
  <line class="cls-5" x1="132.136" y1="79.798" x2="132.136" y2="109.732"/>
  <line class="cls-3" x1="132.353" y1="22.422" x2="204.301" y2="22.422"/>
  <line class="cls-5" x1="204.509" y1="7.455" x2="204.509" y2="37.389"/>
  <g>
    <path d="M201.313,5.355a1.467,1.467,0,0,1-1.6,1.313H196.9V6.445h.172c.553,0,.567-.079.567-.337V2.327c0-.257-.014-.337-.567-.337H196.9V1.768h2.625a1.441,1.441,0,0,1,1.593,1.212c0,.531-.5.99-1.191,1.127A1.408,1.408,0,0,1,201.313,5.355Zm-2.038-1.313a1.082,1.082,0,0,0,1.148-1.062.953.953,0,0,0-.947-.99h-.889c-.337,0-.352.05-.352.287V4.042ZM200.6,5.348A1.075,1.075,0,0,0,199.584,4.2h-1.349V6.158c0,.237.015.287.352.287h.9A1.084,1.084,0,0,0,200.6,5.348Z" transform="translate(-1.039 -1.768)"/>
    <path d="M203.6,6.747c-1.09,0-1.09-.653-1.09-1.212V4.458c0-.638,0-.66-.56-.66V3.576l1.055-.079V5.879c0,.373.029.71.631.71.524,0,.869-.488.869-1.112V4.2c0-.351-.058-.4-.56-.4V3.576L205,3.5V6.044c0,.351.057.4.559.4v.223l-1.033.079V6.1A.979.979,0,0,1,203.6,6.747Z" transform="translate(-1.039 -1.768)"/>
    <path d="M206.247,4.945a.763.763,0,0,1-.308-.608c0-.4.272-.884,1.147-.884a1.1,1.1,0,0,1,.675.2.949.949,0,0,0,.122-.115c.093-.087.108-.087.144-.087.078,0,.078.051.078.173v.725c0,.136,0,.172-.093.172a.077.077,0,0,1-.086-.065.791.791,0,0,0-.84-.868c-.617,0-.8.294-.8.545,0,.417.481.51.883.588a1.468,1.468,0,0,1,.817.345.925.925,0,0,1,.3.682c0,.516-.33,1-1.155,1a1.072,1.072,0,0,1-.79-.309,1.67,1.67,0,0,0-.143.165c-.136.137-.143.144-.179.144-.079,0-.079-.051-.079-.172V5.628c0-.13,0-.18.093-.18.072,0,.079.029.1.122.137.61.395,1.019,1,1.019.559,0,.81-.287.81-.653,0-.517-.588-.631-.746-.66A1.865,1.865,0,0,1,206.247,4.945Z" transform="translate(-1.039 -1.768)"/>
    <path d="M214.2,5.441a1.464,1.464,0,0,1-1.528,1.385A1.309,1.309,0,0,1,211.218,5.7a.4.4,0,1,1,.8-.014.394.394,0,0,1-.474.4,1.306,1.306,0,0,0,1.1.545c.315,0,.81-.209.81-1.184,0-.7-.265-1.191-.854-1.191h-.315c-.122,0-.172,0-.172-.079s.05-.079.107-.086.223-.014.28-.021a.7.7,0,0,0,.639-.374,1.792,1.792,0,0,0,.2-.817c0-.646-.394-.8-.688-.8a1.163,1.163,0,0,0-.954.444c.107,0,.444,0,.444.359a.366.366,0,1,1-.731-.007c0-.546.545-.976,1.27-.976.688,0,1.32.4,1.32.99a1.385,1.385,0,0,1-1,1.263A1.383,1.383,0,0,1,214.2,5.441Z" transform="translate(-1.039 -1.768)"/>
  </g>
  <g>
    <path d="M201.263,85.446a1.468,1.468,0,0,1-1.6,1.313h-2.812v-.223h.172c.553,0,.567-.079.567-.337V82.418c0-.258-.014-.337-.567-.337h-.172v-.222h2.625a1.44,1.44,0,0,1,1.593,1.212c0,.531-.495.99-1.191,1.126A1.411,1.411,0,0,1,201.263,85.446Zm-2.038-1.313a1.082,1.082,0,0,0,1.148-1.062.953.953,0,0,0-.947-.99h-.889c-.338,0-.352.05-.352.287v1.765Zm1.321,1.305a1.075,1.075,0,0,0-1.012-1.147h-1.349v1.958c0,.237.014.287.352.287h.9A1.085,1.085,0,0,0,200.546,85.438Z" transform="translate(-1.039 -1.768)"/>
    <path d="M203.55,86.838c-1.09,0-1.09-.653-1.09-1.213V84.549c0-.639,0-.66-.559-.66v-.223l1.054-.078v2.381c0,.374.028.711.631.711.524,0,.868-.488.868-1.112V84.291c0-.352-.057-.4-.559-.4v-.223l1.054-.078v2.546c0,.352.058.4.56.4v.223l-1.033.079v-.646A.981.981,0,0,1,203.55,86.838Z" transform="translate(-1.039 -1.768)"/>
    <path d="M206.2,85.037a.764.764,0,0,1-.308-.61c0-.4.273-.882,1.147-.882a1.111,1.111,0,0,1,.675.2,1.011,1.011,0,0,0,.122-.114c.093-.086.107-.086.143-.086.079,0,.079.05.079.172v.724c0,.137,0,.173-.093.173a.077.077,0,0,1-.086-.065.791.791,0,0,0-.84-.868c-.616,0-.8.294-.8.545,0,.416.481.509.883.589a1.459,1.459,0,0,1,.817.343.93.93,0,0,1,.3.682c0,.517-.329,1-1.154,1a1.076,1.076,0,0,1-.79-.309,1.953,1.953,0,0,0-.143.165c-.137.136-.144.144-.179.144-.079,0-.079-.05-.079-.173v-.947c0-.128,0-.179.093-.179.072,0,.079.029.1.122.137.61.4,1.019,1,1.019.56,0,.811-.288.811-.653,0-.517-.589-.632-.747-.66A1.885,1.885,0,0,1,206.2,85.037Z" transform="translate(-1.039 -1.768)"/>
    <path d="M211.067,85.575v-.222l2.2-3.365c.057-.086.079-.086.144-.086.114,0,.114.043.114.187v3.264h.717v.222h-.717V86.2c0,.258.015.337.546.337h.15v.223c-.294-.022-.674-.022-.976-.022s-.674,0-.968.022v-.223h.151c.531,0,.545-.079.545-.337v-.624Zm1.952-2.9-1.751,2.677h1.751Z" transform="translate(-1.039 -1.768)"/>
  </g>
  <g>
    <path class="cls-4" d="M129.072,77.661a1.432,1.432,0,0,1-1.562,1.282h-2.746v-.217h.169c.539,0,.553-.077.553-.329V74.706c0-.252-.014-.329-.553-.329h-.169v-.218h2.564a1.406,1.406,0,0,1,1.555,1.184c0,.519-.483.967-1.163,1.1A1.375,1.375,0,0,1,129.072,77.661Zm-1.989-1.281a1.056,1.056,0,0,0,1.12-1.037.93.93,0,0,0-.924-.966h-.869c-.329,0-.343.049-.343.28V76.38Zm1.288,1.275a1.049,1.049,0,0,0-.987-1.121h-1.317v1.912c0,.231.014.28.343.28h.876A1.057,1.057,0,0,0,128.371,77.655Z" transform="translate(-1.039 -1.768)"/>
    <path class="cls-4" d="M131.3,79.02c-1.064,0-1.064-.637-1.064-1.183V76.786c0-.623,0-.645-.546-.645v-.216l1.029-.078v2.326c0,.364.028.693.617.693.511,0,.847-.476.847-1.085V76.534c0-.343-.056-.393-.546-.393v-.216l1.029-.078v2.487c0,.343.056.392.547.392v.217l-1.009.077v-.63A.955.955,0,0,1,131.3,79.02Z" transform="translate(-1.039 -1.768)"/>
    <path class="cls-4" d="M133.885,77.263a.752.752,0,0,1-.3-.6c0-.392.266-.862,1.121-.862a1.078,1.078,0,0,1,.659.2.9.9,0,0,0,.118-.113c.091-.084.106-.084.14-.084.077,0,.077.049.077.168v.708c0,.133,0,.168-.09.168-.015,0-.078,0-.084-.063a.774.774,0,0,0-.82-.847c-.6,0-.784.287-.784.532,0,.406.469.5.861.574a1.427,1.427,0,0,1,.8.336.906.906,0,0,1,.295.666c0,.5-.323.973-1.128.973a1.046,1.046,0,0,1-.77-.3,1.274,1.274,0,0,0-.14.161c-.134.133-.14.14-.176.14-.077,0-.077-.049-.077-.168v-.924c0-.126,0-.175.092-.175.069,0,.077.028.1.118.132.6.385,1,.973,1,.546,0,.791-.28.791-.637,0-.5-.574-.616-.728-.645A1.853,1.853,0,0,1,133.885,77.263Z" transform="translate(-1.039 -1.768)"/>
    <path class="cls-4" d="M140.06,79.1a1.286,1.286,0,0,1-1.268-1.281.348.348,0,1,1,.343.315.316.316,0,0,1-.119-.014,1.092,1.092,0,0,0,1.03.784.879.879,0,0,0,.75-.455,2.037,2.037,0,0,0,.168-.96,2.17,2.17,0,0,0-.126-.882.687.687,0,0,0-.6-.448,1.051,1.051,0,0,0-.9.49c-.028.042-.042.063-.091.063-.1,0-.1-.056-.1-.182V74.454c0-.112,0-.169.069-.169a.2.2,0,0,1,.084.021,2.266,2.266,0,0,0,.932.2,2.321,2.321,0,0,0,.953-.2.1.1,0,0,1,.056-.021.068.068,0,0,1,.07.077,1.529,1.529,0,0,1-1.352.728,2.232,2.232,0,0,1-.6-.091v1.366a1.235,1.235,0,0,1,.89-.357,1.437,1.437,0,0,1,1.331,1.533A1.547,1.547,0,0,1,140.06,79.1Z" transform="translate(-1.039 -1.768)"/>
  </g>
  <g>
    <path d="M159.795,20.557a1.467,1.467,0,0,1-1.6,1.313h-2.812v-.223h.172c.552,0,.566-.078.566-.337V17.53c0-.258-.014-.338-.566-.338h-.172V16.97h2.625a1.441,1.441,0,0,1,1.593,1.212c0,.531-.5.99-1.191,1.127A1.409,1.409,0,0,1,159.795,20.557Zm-2.038-1.313a1.082,1.082,0,0,0,1.148-1.062.954.954,0,0,0-.947-.99h-.889c-.338,0-.352.051-.352.287v1.765Zm1.32,1.306a1.075,1.075,0,0,0-1.011-1.148h-1.349V21.36c0,.237.014.287.352.287h.9A1.084,1.084,0,0,0,159.077,20.55Z" transform="translate(-1.039 -1.768)"/>
    <path d="M162.283,18.7a.489.489,0,0,1,.531.437.3.3,0,0,1-.309.316.3.3,0,0,1-.308-.308.311.311,0,0,1,.165-.28.183.183,0,0,0-.079-.007c-.545,0-.846.639-.846,1.349v1.1c0,.259.014.337.545.337h.15v.223c-.286-.022-.624-.022-.91-.022-.2,0-.539.015-.818.022v-.223c.48,0,.559,0,.559-.322V19.4c0-.351-.057-.4-.559-.4v-.223l1-.079v.789A1,1,0,0,1,162.283,18.7Z" transform="translate(-1.039 -1.768)"/>
    <path d="M164.457,21.949c-.452,0-1.148-.179-1.148-.761a1.045,1.045,0,0,1,.717-.932,3.484,3.484,0,0,1,1.32-.258v-.266a.812.812,0,0,0-.76-.918,1,1,0,0,0-.775.33c.33.007.366.243.366.33a.33.33,0,1,1-.66-.007c0-.474.5-.811,1.083-.811a1.369,1.369,0,0,1,.983.395,1.061,1.061,0,0,1,.258.846v1.435c0,.036.029.359.266.359.079,0,.258-.044.258-.459v-.4h.179v.4a.608.608,0,0,1-.588.681.6.6,0,0,1-.56-.588A.992.992,0,0,1,164.457,21.949Zm-.6-.768a.618.618,0,0,0,.646.61.862.862,0,0,0,.839-.926v-.717C164.162,20.191,163.861,20.787,163.861,21.181Z" transform="translate(-1.039 -1.768)"/>
    <path d="M166.824,19v-.223l1.011-.079v.753A1.132,1.132,0,0,1,168.9,18.7a.959.959,0,0,1,.753.265c.223.259.223.481.223,1.1v1.37c.007.215.186.215.559.215v.223c-.243-.007-.617-.022-.8-.022s-.56.015-.811.022v-.223c.481,0,.56,0,.56-.322V19.653c0-.409-.079-.8-.531-.8a1.048,1.048,0,0,0-.969,1.148v1.32c0,.322.079.322.56.322v.223c-.244-.007-.617-.022-.8-.022s-.559.015-.81.022v-.223c.48,0,.559,0,.559-.322V19.4C167.383,19.051,167.326,19,166.824,19Z" transform="translate(-1.039 -1.768)"/>
    <path d="M172.426,21.77a.939.939,0,0,0,.94-.753c.014-.044.028-.072.093-.072.022,0,.093,0,.093.072a1.18,1.18,0,0,1-1.191.932,1.588,1.588,0,0,1-1.542-1.629,1.608,1.608,0,0,1,1.557-1.664c.552,0,1.1.28,1.1.767a.33.33,0,1,1-.66.008.323.323,0,0,1,.338-.33,1.176,1.176,0,0,0-.768-.266c-.38,0-.969.3-.969,1.471C171.414,21.461,172.045,21.77,172.426,21.77Z" transform="translate(-1.039 -1.768)"/>
    <path d="M174.549,17.594c0-.351-.058-.4-.56-.4V16.97l1.034-.079V19.4a1.132,1.132,0,0,1,1.039-.7.961.961,0,0,1,.754.265c.222.259.222.481.222,1.1v1.37c.007.215.187.215.56.215v.223c-.244-.007-.617-.022-.8-.022s-.559.015-.81.022v-.223c.48,0,.559,0,.559-.322V19.653c0-.409-.079-.8-.53-.8a1.048,1.048,0,0,0-.969,1.148v1.32c0,.322.079.322.559.322v.223c-.243-.007-.617-.022-.8-.022s-.56.015-.811.022v-.223c.481,0,.56,0,.56-.322Z" transform="translate(-1.039 -1.768)"/>
    <path d="M182.332,21.317a2.348,2.348,0,0,0,.681-.057,2.356,2.356,0,0,0,.158-.639h.179l-.2,1.249h-2.662c0-.172,0-.187.079-.266l1.377-1.535a2.567,2.567,0,0,0,.753-1.585c0-.589-.308-1.169-.961-1.169a1.034,1.034,0,0,0-.968.731.277.277,0,0,1,.093-.007.363.363,0,0,1,.38.373.377.377,0,1,1-.753-.022,1.325,1.325,0,0,1,1.341-1.3,1.409,1.409,0,0,1,1.521,1.392c0,.717-.43,1.1-1.549,2.095l-.76.738Z" transform="translate(-1.039 -1.768)"/>
  </g>
  <g>
    <path d="M169.316,100.583a1.466,1.466,0,0,1-1.6,1.313h-2.812v-.222h.171c.553,0,.567-.079.567-.338v-3.78c0-.258-.014-.337-.567-.337h-.171V97h2.625a1.44,1.44,0,0,1,1.593,1.212c0,.531-.5.99-1.191,1.126A1.408,1.408,0,0,1,169.316,100.583Zm-2.037-1.312a1.083,1.083,0,0,0,1.148-1.062.953.953,0,0,0-.947-.99h-.89c-.337,0-.351.05-.351.287v1.765Zm1.32,1.3a1.075,1.075,0,0,0-1.011-1.148h-1.349v1.959c0,.237.014.287.351.287h.9A1.085,1.085,0,0,0,168.6,100.576Z" transform="translate(-1.039 -1.768)"/>
    <path d="M171.805,98.725a.49.49,0,0,1,.531.438.3.3,0,0,1-.308.316.3.3,0,0,1-.309-.309.311.311,0,0,1,.165-.28.189.189,0,0,0-.079-.007c-.545,0-.846.639-.846,1.349v1.1c0,.259.014.338.545.338h.15v.222c-.287-.021-.624-.021-.911-.021-.2,0-.538.014-.818.021v-.222c.481,0,.56,0,.56-.323V99.428c0-.351-.057-.4-.56-.4v-.222l1-.08v.79A1,1,0,0,1,171.805,98.725Z" transform="translate(-1.039 -1.768)"/>
    <path d="M173.978,101.975c-.451,0-1.147-.179-1.147-.76a1.043,1.043,0,0,1,.717-.932,3.491,3.491,0,0,1,1.32-.259v-.265a.813.813,0,0,0-.761-.919,1.008,1.008,0,0,0-.774.33c.33.007.365.244.365.33a.33.33,0,1,1-.659-.007c0-.473.5-.811,1.082-.811a1.368,1.368,0,0,1,.983.395,1.058,1.058,0,0,1,.259.846v1.435c0,.036.028.359.266.359.079,0,.257-.043.257-.459v-.4h.18v.4a.608.608,0,0,1-.588.681.6.6,0,0,1-.56-.588A.992.992,0,0,1,173.978,101.975Zm-.595-.767a.618.618,0,0,0,.646.609.862.862,0,0,0,.839-.925v-.718C173.684,100.218,173.383,100.813,173.383,101.208Z" transform="translate(-1.039 -1.768)"/>
    <path d="M176.345,99.027v-.222l1.012-.08v.754a1.131,1.131,0,0,1,1.062-.754.957.957,0,0,1,.753.266c.223.258.223.481.223,1.1v1.371c.007.215.186.215.559.215v.222c-.244-.007-.617-.021-.8-.021s-.559.014-.81.021v-.222c.48,0,.56,0,.56-.323V99.679c0-.408-.08-.8-.532-.8a1.048,1.048,0,0,0-.968,1.148v1.32c0,.323.079.323.559.323v.222c-.243-.007-.617-.021-.8-.021s-.56.014-.811.021v-.222c.481,0,.56,0,.56-.323V99.428C176.905,99.077,176.847,99.027,176.345,99.027Z" transform="translate(-1.039 -1.768)"/>
    <path d="M181.947,101.8a.937.937,0,0,0,.94-.753c.015-.043.029-.072.094-.072.021,0,.093,0,.093.072a1.181,1.181,0,0,1-1.191.932,1.588,1.588,0,0,1-1.542-1.629,1.608,1.608,0,0,1,1.556-1.664c.552,0,1.1.28,1.1.768a.33.33,0,1,1-.66.007.324.324,0,0,1,.337-.33,1.173,1.173,0,0,0-.768-.266c-.38,0-.968.3-.968,1.471S181.568,101.8,181.947,101.8Z" transform="translate(-1.039 -1.768)"/>
    <path d="M184.071,97.62c0-.351-.058-.4-.56-.4V97l1.034-.08v2.511a1.134,1.134,0,0,1,1.039-.7.959.959,0,0,1,.754.266c.222.258.222.481.222,1.1v1.371c.007.215.187.215.559.215v.222c-.243-.007-.617-.021-.8-.021s-.559.014-.811.021v-.222c.481,0,.56,0,.56-.323V99.679c0-.408-.079-.8-.53-.8a1.048,1.048,0,0,0-.969,1.148v1.32c0,.323.078.323.559.323v.222c-.244-.007-.617-.021-.8-.021s-.56.014-.811.021v-.222c.481,0,.56,0,.56-.323Z" transform="translate(-1.039 -1.768)"/>
    <path d="M189.852,100.713v-.223l2.2-3.365c.058-.085.079-.085.143-.085.116,0,.116.043.116.186v3.264h.717v.223h-.717v.623c0,.259.014.338.545.338h.151v.222c-.295-.021-.675-.021-.976-.021s-.674,0-.969.021v-.222h.151c.531,0,.545-.079.545-.338v-.623Zm1.952-2.9-1.751,2.675H191.8Z" transform="translate(-1.039 -1.768)"/>
  </g>
  <g>
    <path class="cls-4" d="M86.832,92.805a1.432,1.432,0,0,1-1.561,1.282H82.524V93.87h.169c.539,0,.553-.077.553-.33V89.85c0-.252-.014-.33-.553-.33h-.169V89.3h2.564a1.406,1.406,0,0,1,1.555,1.184c0,.518-.483.967-1.163,1.1A1.376,1.376,0,0,1,86.832,92.805Zm-1.989-1.282a1.057,1.057,0,0,0,1.121-1.036.931.931,0,0,0-.925-.967h-.868c-.329,0-.344.049-.344.281v1.722ZM86.132,92.8a1.049,1.049,0,0,0-.987-1.12H83.827V93.59c0,.231.015.28.344.28h.875A1.059,1.059,0,0,0,86.132,92.8Z" transform="translate(-1.039 -1.768)"/>
    <path class="cls-4" d="M89.26,90.991a.478.478,0,0,1,.518.427.294.294,0,0,1-.3.309.29.29,0,0,1-.3-.3.3.3,0,0,1,.161-.273.177.177,0,0,0-.077-.007c-.532,0-.826.624-.826,1.317V93.54c0,.253.013.33.532.33h.146v.217c-.279-.021-.608-.021-.888-.021-.2,0-.526.014-.8.021V93.87c.47,0,.546,0,.546-.315V91.678c0-.344-.056-.393-.546-.393v-.217l.973-.077v.771A.981.981,0,0,1,89.26,90.991Z" transform="translate(-1.039 -1.768)"/>
    <path class="cls-4" d="M91.38,94.164c-.441,0-1.12-.175-1.12-.743a1.02,1.02,0,0,1,.7-.91,3.411,3.411,0,0,1,1.289-.252V92a.793.793,0,0,0-.742-.9.984.984,0,0,0-.757.322.318.318,0,0,1,.357.323.322.322,0,1,1-.644-.007c0-.463.483-.792,1.058-.792a1.334,1.334,0,0,1,.958.385,1.036,1.036,0,0,1,.253.827v1.4c0,.036.028.351.259.351.077,0,.252-.042.252-.449v-.392h.175v.392a.6.6,0,0,1-.574.666.586.586,0,0,1-.546-.574A.969.969,0,0,1,91.38,94.164Zm-.581-.749a.6.6,0,0,0,.631.595.842.842,0,0,0,.819-.9v-.7C91.093,92.448,90.8,93.029,90.8,93.415Z" transform="translate(-1.039 -1.768)"/>
    <path class="cls-4" d="M93.689,91.285v-.217l.988-.077v.736a1.1,1.1,0,0,1,1.037-.736.932.932,0,0,1,.735.259c.217.252.217.47.217,1.072V93.66c.007.21.183.21.547.21v.217c-.238-.007-.6-.021-.785-.021s-.546.014-.791.021V93.87c.469,0,.546,0,.546-.315V91.923c0-.4-.077-.778-.518-.778a1.023,1.023,0,0,0-.945,1.121v1.289c0,.315.076.315.546.315v.217c-.239-.007-.6-.021-.785-.021s-.546.014-.792.021V93.87c.47,0,.547,0,.547-.315V91.678C94.236,91.334,94.18,91.285,93.689,91.285Z" transform="translate(-1.039 -1.768)"/>
    <path class="cls-4" d="M99.157,93.989a.915.915,0,0,0,.918-.736.08.08,0,0,1,.091-.069c.021,0,.091,0,.091.069a1.152,1.152,0,0,1-1.162.911,1.55,1.55,0,0,1-1.506-1.59,1.569,1.569,0,0,1,1.519-1.625c.539,0,1.072.273,1.072.75a.323.323,0,1,1-.645.007.317.317,0,0,1,.329-.323,1.14,1.14,0,0,0-.749-.259c-.371,0-.945.294-.945,1.436C98.17,93.687,98.786,93.989,99.157,93.989Z" transform="translate(-1.039 -1.768)"/>
    <path class="cls-4" d="M101.229,89.913c0-.344-.056-.393-.546-.393V89.3l1.007-.077v2.452a1.111,1.111,0,0,1,1.016-.687.932.932,0,0,1,.735.259c.218.252.218.47.218,1.072V93.66c.007.21.182.21.546.21v.217c-.238-.007-.6-.021-.784-.021s-.546.014-.791.021V93.87c.469,0,.546,0,.546-.315V91.923c0-.4-.077-.778-.519-.778a1.023,1.023,0,0,0-.945,1.121v1.289c0,.315.077.315.546.315v.217c-.237-.007-.6-.021-.784-.021s-.546.014-.791.021V93.87c.468,0,.546,0,.546-.315Z" transform="translate(-1.039 -1.768)"/>
    <path class="cls-4" d="M108.292,94.241a1.287,1.287,0,0,1-1.268-1.282.348.348,0,1,1,.344.315.3.3,0,0,1-.119-.014,1.091,1.091,0,0,0,1.029.785.875.875,0,0,0,.749-.455,2.03,2.03,0,0,0,.169-.96,2.153,2.153,0,0,0-.126-.882.685.685,0,0,0-.595-.449,1.052,1.052,0,0,0-.9.491c-.028.041-.042.062-.091.062-.1,0-.1-.055-.1-.182V89.6c0-.113,0-.169.07-.169a.209.209,0,0,1,.084.021,2.258,2.258,0,0,0,.932.2,2.315,2.315,0,0,0,.952-.2.1.1,0,0,1,.056-.021.068.068,0,0,1,.07.077,1.527,1.527,0,0,1-1.352.729,2.224,2.224,0,0,1-.595-.091V91.5a1.233,1.233,0,0,1,.889-.357,1.438,1.438,0,0,1,1.331,1.534A1.547,1.547,0,0,1,108.292,94.241Z" transform="translate(-1.039 -1.768)"/>
  </g>
  <polyline class="cls-1" points="132.914 37.571 156.441 37.572 156.441 62.546 156.441 87.082 132.948 87.082"/>
  <polyline class="cls-1" points="204.899 29.824 225.926 29.825 225.926 62.817 225.926 95.229 204.933 95.229"/>
  <polyline class="cls-1" points="59.293 29.824 38.266 29.825 38.266 54.957 38.266 79.648 59.259 79.648"/>
  <g>
    <line class="cls-1" x1="220.771" y1="14.887" x2="205.406" y2="14.887"/>
    <polygon class="cls-4" points="218.665 12.11 219.845 14.887 218.665 17.665 225.249 14.887 218.665 12.11"/>
  </g>
  <circle class="cls-1" cx="234.937" cy="111.226" r="9.524" transform="translate(86.372 323.474) rotate(-80.755)"/>
  <path class="cls-2" d="M239.862,109.965s-1.5,1.986-2.266,2.1c-.931.142-2.546-1.058-2.546-1.058s-2.345-1.184-2.837-1.045c-.712.2-2.084,2.1-2.084,2.1" transform="translate(-1.039 -1.768)"/>
  <line class="cls-3" x1="224.138" y1="109.617" x2="204.296" y2="109.617"/>
  <g>
    <line class="cls-1" x1="188.102" y1="109.617" x2="203.467" y2="109.617"/>
    <polygon class="cls-4" points="190.208 112.394 189.028 109.617 190.208 106.839 183.624 109.617 190.208 112.394"/>
  </g>
  <g>
    <path class="cls-4" d="M3.491,33.405a2.548,2.548,0,0,1-.014-5.092,1.724,1.724,0,0,1,1.3.6l.351-.518c.056-.084.084-.084.112-.084.077,0,.077.049.077.168V30.14c0,.148,0,.169-.112.169s-.1-.021-.112-.119c-.14-1.03-.778-1.66-1.527-1.66-.42,0-1.8.231-1.8,2.325S3.148,33.187,3.6,33.187c.2,0,1.085-.063,1.085-.847v-.449c0-.258-.021-.336-.651-.336H3.813v-.217c.252.021.848.021,1.128.021.21,0,.595-.014.854-.021v.217c-.455,0-.483.036-.483.309v1.218c0,.1,0,.161-.063.161s-.357-.28-.448-.434A1.5,1.5,0,0,1,3.491,33.405Z" transform="translate(-1.039 -1.768)"/>
    <path class="cls-4" d="M7.123,32.683a.943.943,0,0,0,.791.469.987.987,0,0,0,.946-.721c.013-.056.028-.1.091-.1a.081.081,0,0,1,.091.084,1.2,1.2,0,0,1-1.17.91,1.581,1.581,0,0,1-1.541-1.618,1.531,1.531,0,0,1,1.457-1.6,1.242,1.242,0,0,1,1.254,1.372c0,.148-.021.148-.175.148H6.913A2.038,2.038,0,0,0,7.123,32.683Zm1.457-1.2c0-.273-.07-1.218-.792-1.218-.238,0-.826.175-.868,1.218Z" transform="translate(-1.039 -1.768)"/>
    <path class="cls-4" d="M9.467,30.449v-.217l.988-.077v.735a1.1,1.1,0,0,1,1.036-.735.936.936,0,0,1,.736.259c.217.252.217.469.217,1.071v1.338c.007.21.182.21.546.21v.217c-.238-.007-.6-.021-.784-.021s-.546.014-.792.021v-.217c.47,0,.546,0,.546-.315V31.086c0-.4-.076-.777-.518-.777a1.022,1.022,0,0,0-.945,1.12v1.289c0,.315.077.315.546.315v.217c-.238-.007-.6-.021-.784-.021s-.547.014-.792.021v-.217c.469,0,.547,0,.547-.315V30.841C10.014,30.5,9.957,30.449,9.467,30.449Z" transform="translate(-1.039 -1.768)"/>
    <path class="cls-4" d="M14.116,32.683a.943.943,0,0,0,.791.469.987.987,0,0,0,.946-.721c.014-.056.028-.1.091-.1a.081.081,0,0,1,.091.084,1.2,1.2,0,0,1-1.17.91,1.581,1.581,0,0,1-1.54-1.618,1.53,1.53,0,0,1,1.456-1.6,1.242,1.242,0,0,1,1.254,1.372c0,.148-.021.148-.175.148H13.906A2.038,2.038,0,0,0,14.116,32.683Zm1.457-1.2c0-.273-.07-1.218-.792-1.218-.238,0-.826.175-.868,1.218Z" transform="translate(-1.039 -1.768)"/>
    <path class="cls-4" d="M18.268,30.155a.478.478,0,0,1,.518.427.294.294,0,0,1-.3.308.29.29,0,0,1-.3-.3.3.3,0,0,1,.16-.273c-.013-.007-.028-.007-.076-.007-.533,0-.827.623-.827,1.316V32.7c0,.252.014.329.532.329h.147v.217c-.28-.021-.609-.021-.889-.021-.2,0-.525.014-.8.021v-.217c.469,0,.545,0,.545-.315V30.841c0-.343-.055-.392-.545-.392v-.217l.973-.077v.77A.98.98,0,0,1,18.268,30.155Z" transform="translate(-1.039 -1.768)"/>
    <path class="cls-4" d="M20.388,33.327c-.441,0-1.121-.175-1.121-.742a1.019,1.019,0,0,1,.7-.91,3.39,3.39,0,0,1,1.288-.253v-.259a.793.793,0,0,0-.742-.9.983.983,0,0,0-.756.322c.322.007.357.238.357.322a.323.323,0,1,1-.645-.007c0-.462.484-.791,1.058-.791a1.337,1.337,0,0,1,.959.385,1.033,1.033,0,0,1,.253.826v1.4c0,.035.028.35.259.35.077,0,.252-.042.252-.448v-.392h.175v.392a.594.594,0,0,1-.574.665.586.586,0,0,1-.547-.574A.968.968,0,0,1,20.388,33.327Zm-.581-.749a.6.6,0,0,0,.63.595.841.841,0,0,0,.819-.9v-.7C20.1,31.612,19.807,32.193,19.807,32.578Z" transform="translate(-1.039 -1.768)"/>
    <path class="cls-4" d="M23.685,32.4c0,.119,0,.756.469.756.259,0,.469-.266.469-.784v-.385H24.8v.4c0,.448-.2.945-.693.945a.847.847,0,0,1-.9-.945V30.449h-.6V30.3c.686-.028.9-.778.9-1.352h.175v1.289h1v.217h-1Z" transform="translate(-1.039 -1.768)"/>
    <path class="cls-4" d="M26.933,33.327a1.563,1.563,0,0,1-1.548-1.576,1.554,1.554,0,1,1,3.1,0A1.561,1.561,0,0,1,26.933,33.327Zm.819-.693a2.126,2.126,0,0,0,.154-.938,1.923,1.923,0,0,0-.182-.974.917.917,0,0,0-.791-.455.942.942,0,0,0-.8.469,2.009,2.009,0,0,0-.168.96,2.072,2.072,0,0,0,.176.987.915.915,0,0,0,.8.469A.9.9,0,0,0,27.752,32.634Z" transform="translate(-1.039 -1.768)"/>
    <path class="cls-4" d="M30.72,30.155a.478.478,0,0,1,.518.427.294.294,0,0,1-.3.308.29.29,0,0,1-.3-.3.3.3,0,0,1,.161-.273.177.177,0,0,0-.077-.007c-.532,0-.826.623-.826,1.316V32.7c0,.252.014.329.532.329h.147v.217c-.28-.021-.609-.021-.889-.021-.2,0-.526.014-.8.021v-.217c.469,0,.546,0,.546-.315V30.841c0-.343-.056-.392-.546-.392v-.217l.973-.077v.77A.981.981,0,0,1,30.72,30.155Z" transform="translate(-1.039 -1.768)"/>
    <path class="cls-4" d="M35.816,32.7c0,.259.021.336.651.336h.224v.217c-.245-.021-.854-.021-1.134-.021s-.89,0-1.135.021v-.217h.224c.631,0,.652-.084.652-.336V29.069a2.1,2.1,0,0,1-.918.182v-.217a1.732,1.732,0,0,0,1.275-.448c.161,0,.161.014.161.182Z" transform="translate(-1.039 -1.768)"/>
  </g>
  <g>
    <path class="cls-4" d="M219.458,128.36a2.548,2.548,0,0,1-.014-5.092,1.727,1.727,0,0,1,1.3.6l.35-.518c.056-.084.084-.084.112-.084.078,0,.078.049.078.168v1.66c0,.148,0,.169-.114.169-.1,0-.1-.021-.111-.12-.141-1.029-.777-1.66-1.527-1.66-.42,0-1.8.232-1.8,2.325s1.387,2.333,1.842,2.333c.195,0,1.085-.063,1.085-.848v-.448c0-.259-.021-.336-.652-.336h-.224v-.217c.253.021.847.021,1.129.021.209,0,.594-.014.853-.021v.217c-.455,0-.482.035-.482.308v1.219c0,.1,0,.161-.064.161s-.357-.28-.448-.434A1.5,1.5,0,0,1,219.458,128.36Z" transform="translate(-1.039 -1.768)"/>
    <path class="cls-4" d="M223.09,127.639a.943.943,0,0,0,.791.469.987.987,0,0,0,.946-.721c.013-.057.028-.1.091-.1a.081.081,0,0,1,.091.084,1.2,1.2,0,0,1-1.17.911,1.581,1.581,0,0,1-1.54-1.618,1.53,1.53,0,0,1,1.456-1.6,1.242,1.242,0,0,1,1.254,1.373c0,.147-.02.147-.175.147h-1.955A2.034,2.034,0,0,0,223.09,127.639Zm1.457-1.2c0-.273-.07-1.218-.792-1.218-.238,0-.826.174-.868,1.218Z" transform="translate(-1.039 -1.768)"/>
    <path class="cls-4" d="M225.434,125.4v-.217l.988-.077v.736a1.105,1.105,0,0,1,1.036-.736.93.93,0,0,1,.736.26c.217.251.217.469.217,1.071v1.338c.007.21.182.21.546.21v.217c-.238-.007-.6-.021-.785-.021s-.545.014-.791.021v-.217c.47,0,.547,0,.547-.315v-1.632c0-.4-.077-.777-.518-.777a1.022,1.022,0,0,0-.946,1.12v1.289c0,.315.077.315.546.315v.217c-.238-.007-.6-.021-.784-.021s-.546.014-.792.021v-.217c.47,0,.547,0,.547-.315V125.8C225.981,125.453,225.924,125.4,225.434,125.4Z" transform="translate(-1.039 -1.768)"/>
    <path class="cls-4" d="M230.082,127.639a.947.947,0,0,0,.792.469.988.988,0,0,0,.947-.721c.013-.057.027-.1.09-.1a.082.082,0,0,1,.091.084,1.2,1.2,0,0,1-1.17.911,1.583,1.583,0,0,1-1.541-1.618,1.531,1.531,0,0,1,1.457-1.6A1.243,1.243,0,0,1,232,126.441c0,.147-.021.147-.175.147h-1.954A2.05,2.05,0,0,0,230.082,127.639Zm1.457-1.2c0-.273-.069-1.218-.791-1.218-.238,0-.826.174-.868,1.218Z" transform="translate(-1.039 -1.768)"/>
    <path class="cls-4" d="M234.235,125.11a.477.477,0,0,1,.517.427.293.293,0,0,1-.3.309.29.29,0,0,1-.3-.3.3.3,0,0,1,.16-.273.2.2,0,0,0-.076-.006c-.532,0-.826.623-.826,1.316v1.079c0,.252.013.329.531.329h.147v.217c-.28-.021-.608-.021-.889-.021-.2,0-.526.014-.8.021v-.217c.47,0,.546,0,.546-.315V125.8c0-.344-.056-.393-.546-.393v-.217l.973-.077v.771A.98.98,0,0,1,234.235,125.11Z" transform="translate(-1.039 -1.768)"/>
    <path class="cls-4" d="M236.355,128.283c-.441,0-1.12-.175-1.12-.743a1.02,1.02,0,0,1,.7-.91,3.407,3.407,0,0,1,1.288-.252v-.259a.792.792,0,0,0-.742-.9.982.982,0,0,0-.756.321.318.318,0,0,1,.357.323.322.322,0,1,1-.644-.007c0-.463.482-.792,1.057-.792a1.343,1.343,0,0,1,.96.385,1.039,1.039,0,0,1,.252.827v1.4c0,.035.028.35.259.35.077,0,.252-.042.252-.449v-.392h.175v.392a.6.6,0,0,1-.574.666.588.588,0,0,1-.547-.574A.968.968,0,0,1,236.355,128.283Zm-.581-.749a.6.6,0,0,0,.631.595.841.841,0,0,0,.818-.9v-.7C236.068,126.567,235.774,127.148,235.774,127.534Z" transform="translate(-1.039 -1.768)"/>
    <path class="cls-4" d="M239.652,127.351c0,.12,0,.757.47.757.258,0,.468-.266.468-.784v-.386h.176v.4c0,.449-.2.946-.693.946a.849.849,0,0,1-.905-.946V125.4h-.594v-.154c.686-.027.9-.777.9-1.351h.175v1.288h1v.217h-1Z" transform="translate(-1.039 -1.768)"/>
    <path class="cls-4" d="M242.9,128.283a1.564,1.564,0,0,1-1.549-1.576,1.554,1.554,0,1,1,3.1,0A1.561,1.561,0,0,1,242.9,128.283Zm.818-.693a2.131,2.131,0,0,0,.154-.939,1.931,1.931,0,0,0-.181-.973.917.917,0,0,0-.791-.455.94.94,0,0,0-.8.469,2.007,2.007,0,0,0-.168.959,2.089,2.089,0,0,0,.175.988.914.914,0,0,0,.8.469A.9.9,0,0,0,243.719,127.59Z" transform="translate(-1.039 -1.768)"/>
    <path class="cls-4" d="M246.688,125.11a.478.478,0,0,1,.518.427.294.294,0,0,1-.3.309.29.29,0,0,1-.3-.3.3.3,0,0,1,.16-.273.2.2,0,0,0-.076-.006c-.533,0-.827.623-.827,1.316v1.079c0,.252.014.329.532.329h.146v.217c-.279-.021-.608-.021-.888-.021-.2,0-.526.014-.8.021v-.217c.47,0,.547,0,.547-.315V125.8c0-.344-.057-.393-.547-.393v-.217l.974-.077v.771A.98.98,0,0,1,246.688,125.11Z" transform="translate(-1.039 -1.768)"/>
    <path class="cls-4" d="M251.874,127.667a2.278,2.278,0,0,0,.665-.056,2.272,2.272,0,0,0,.155-.624h.175l-.2,1.219h-2.6c0-.168,0-.182.076-.259l1.346-1.5a2.514,2.514,0,0,0,.734-1.548c0-.574-.3-1.141-.938-1.141a1.007,1.007,0,0,0-.945.714.26.26,0,0,1,.09-.007.354.354,0,0,1,.371.364.367.367,0,1,1-.734-.021,1.293,1.293,0,0,1,1.308-1.268,1.376,1.376,0,0,1,1.486,1.359c0,.7-.42,1.079-1.513,2.045l-.742.722Z" transform="translate(-1.039 -1.768)"/>
  </g>
  <g>
    <path d="M231.07,54.4a1.467,1.467,0,0,1-1.313-1.6V49.989h.223v.172c0,.553.078.567.336.567H234.1c.258,0,.338-.014.338-.567v-.172h.222v2.626a1.44,1.44,0,0,1-1.212,1.592c-.532,0-.99-.495-1.127-1.191A1.408,1.408,0,0,1,231.07,54.4Zm1.313-2.038a1.081,1.081,0,0,0,1.062,1.148.954.954,0,0,0,.99-.947v-.889c0-.337-.051-.352-.287-.352h-1.765Zm-1.306,1.321a1.075,1.075,0,0,0,1.148-1.012V51.323h-1.958c-.238,0-.287.015-.287.352v.9A1.084,1.084,0,0,0,231.077,53.684Z" transform="translate(-1.039 -1.768)"/>
    <path d="M232.928,56.89a.489.489,0,0,1-.438.53.3.3,0,0,1-.315-.308.3.3,0,0,1,.308-.309.311.311,0,0,1,.28.165.18.18,0,0,0,.007-.078c0-.546-.639-.847-1.349-.847h-1.1c-.258,0-.336.014-.336.545v.151h-.223c.022-.287.022-.624.022-.911,0-.2-.015-.538-.022-.818h.223c0,.481,0,.559.322.559h1.923c.351,0,.4-.057.4-.559h.222l.08,1h-.79A1.006,1.006,0,0,1,232.928,56.89Z" transform="translate(-1.039 -1.768)"/>
    <path d="M229.678,59.063c0-.452.179-1.148.76-1.148a1.043,1.043,0,0,1,.932.718,3.463,3.463,0,0,1,.259,1.319h.266a.812.812,0,0,0,.918-.76,1,1,0,0,0-.33-.775c-.007.33-.243.366-.33.366a.33.33,0,1,1,.007-.66c.473,0,.811.5.811,1.083a1.369,1.369,0,0,1-.4.983,1.061,1.061,0,0,1-.846.258H230.3c-.036,0-.359.029-.359.266,0,.079.044.258.459.258h.4v.179h-.4a.608.608,0,0,1-.681-.588A.6.6,0,0,1,230.3,60,.993.993,0,0,1,229.678,59.063Zm.767-.6a.618.618,0,0,0-.609.646.862.862,0,0,0,.926.839h.717C231.435,58.769,230.84,58.467,230.445,58.467Z" transform="translate(-1.039 -1.768)"/>
    <path d="M232.626,61.43h.222l.08,1.011h-.753a1.133,1.133,0,0,1,.753,1.062.963.963,0,0,1-.265.754c-.259.222-.481.222-1.1.222H230.2c-.215.007-.215.186-.215.559h-.223c.007-.243.022-.617.022-.8s-.015-.56-.022-.811h.223c0,.481,0,.56.322.56h1.672c.409,0,.8-.079.8-.531a1.048,1.048,0,0,0-1.148-.968H230.3c-.322,0-.322.078-.322.559h-.223c.007-.244.022-.617.022-.8s-.015-.56-.022-.811h.223c0,.48,0,.56.322.56h1.923C232.576,61.99,232.626,61.932,232.626,61.43Z" transform="translate(-1.039 -1.768)"/>
    <path d="M229.857,67.032a.937.937,0,0,0,.753.94c.043.014.072.029.072.093,0,.022,0,.093-.072.093a1.18,1.18,0,0,1-.932-1.191,1.587,1.587,0,0,1,1.628-1.542,1.608,1.608,0,0,1,1.665,1.557c0,.552-.28,1.1-.768,1.1a.33.33,0,1,1-.007-.659.323.323,0,0,1,.33.337,1.17,1.17,0,0,0,.265-.768c0-.38-.3-.968-1.47-.968S229.857,66.652,229.857,67.032Z" transform="translate(-1.039 -1.768)"/>
    <path d="M234.033,69.155c.351,0,.4-.057.4-.559h.222l.079,1.033h-2.511a1.134,1.134,0,0,1,.7,1.04.959.959,0,0,1-.265.753c-.259.223-.481.223-1.1.223H230.2c-.215.007-.215.186-.215.559h-.223c.007-.244.022-.617.022-.8s-.015-.56-.022-.811h.223c0,.481,0,.56.322.56h1.672c.409,0,.8-.079.8-.531a1.048,1.048,0,0,0-1.148-.969H230.3c-.322,0-.322.079-.322.56h-.223c.007-.244.022-.617.022-.8s-.015-.559-.022-.81h.223c0,.48,0,.559.322.559Z" transform="translate(-1.039 -1.768)"/>
    <path d="M230.984,78.014a1.464,1.464,0,0,1-1.385-1.528,1.309,1.309,0,0,1,1.126-1.449.4.4,0,1,1,.015.8.393.393,0,0,1-.4-.474,1.306,1.306,0,0,0-.545,1.1c0,.315.208.81,1.184.81.7,0,1.191-.265,1.191-.854v-.315c0-.122,0-.172.079-.172s.078.05.085.107.014.223.021.28a.7.7,0,0,0,.375.639,1.789,1.789,0,0,0,.817.2c.645,0,.8-.394.8-.688a1.163,1.163,0,0,0-.445-.955c0,.108,0,.445-.358.445a.366.366,0,1,1,.007-.732c.545,0,.976.546.976,1.27,0,.689-.4,1.321-.99,1.321a1.383,1.383,0,0,1-1.263-1A1.384,1.384,0,0,1,230.984,78.014Z" transform="translate(-1.039 -1.768)"/>
  </g>
  <g>
    <path class="cls-4" d="M35.466,65.686a1.433,1.433,0,0,1,1.282,1.563v2.745h-.217v-.168c0-.539-.077-.554-.329-.554H32.511c-.252,0-.329.015-.329.554v.168h-.218V67.43a1.406,1.406,0,0,1,1.184-1.554c.519,0,.967.483,1.1,1.163A1.376,1.376,0,0,1,35.466,65.686Zm-1.281,1.99a1.057,1.057,0,0,0-1.037-1.121.931.931,0,0,0-.966.924v.869c0,.33.049.343.28.343h1.723Zm1.275-1.288a1.048,1.048,0,0,0-1.121.987v1.316h1.912c.231,0,.28-.013.28-.343v-.876A1.057,1.057,0,0,0,35.46,66.388Z" transform="translate(-1.039 -1.768)"/>
    <path class="cls-4" d="M33.652,63.259a.478.478,0,0,1,.428-.518.294.294,0,0,1,.308.3.29.29,0,0,1-.3.3.3.3,0,0,1-.273-.161.177.177,0,0,0-.007.077c0,.532.623.827,1.316.827H36.2c.252,0,.329-.015.329-.532v-.148h.217c-.021.28-.021.609-.021.89,0,.2.014.525.021.8h-.217c0-.469,0-.546-.315-.546H34.339c-.343,0-.393.055-.393.546H33.73l-.078-.973h.771A.984.984,0,0,1,33.652,63.259Z" transform="translate(-1.039 -1.768)"/>
    <path class="cls-4" d="M36.825,61.138c0,.442-.175,1.122-.742,1.122a1.022,1.022,0,0,1-.911-.7,3.4,3.4,0,0,1-.252-1.288h-.259a.793.793,0,0,0-.9.743.978.978,0,0,0,.322.755.317.317,0,0,1,.322-.356.322.322,0,1,1-.007.644c-.462,0-.792-.483-.792-1.057a1.338,1.338,0,0,1,.386-.96,1.035,1.035,0,0,1,.826-.252h1.4c.035,0,.35-.028.35-.26,0-.076-.042-.252-.448-.252h-.392V59.1h.392a.594.594,0,0,1,.665.575.586.586,0,0,1-.574.546A.969.969,0,0,1,36.825,61.138Zm-.749.582a.6.6,0,0,0,.595-.63.841.841,0,0,0-.9-.82h-.7C35.109,61.426,35.691,61.72,36.076,61.72Z" transform="translate(-1.039 -1.768)"/>
    <path class="cls-4" d="M33.946,58.829H33.73l-.078-.987h.736a1.107,1.107,0,0,1-.736-1.037.933.933,0,0,1,.26-.735c.252-.218.469-.218,1.071-.218h1.338c.21-.006.21-.181.21-.546h.217c-.007.239-.021.6-.021.785s.014.546.021.791h-.217c0-.469,0-.546-.315-.546H34.584c-.4,0-.777.077-.777.518a1.022,1.022,0,0,0,1.12.946h1.289c.315,0,.315-.078.315-.546h.217c-.007.237-.021.6-.021.784s.014.546.021.791h-.217c0-.469,0-.546-.315-.546H34.339C34,58.283,33.946,58.339,33.946,58.829Z" transform="translate(-1.039 -1.768)"/>
    <path class="cls-4" d="M36.65,53.361a.914.914,0,0,0-.735-.917c-.042-.014-.07-.028-.07-.091,0-.021,0-.091.07-.091a1.152,1.152,0,0,1,.91,1.163,1.55,1.55,0,0,1-1.59,1.505,1.57,1.57,0,0,1-1.625-1.519c0-.54.273-1.072.75-1.072a.322.322,0,1,1,.007.644.316.316,0,0,1-.322-.329,1.143,1.143,0,0,0-.259.749c0,.372.294.946,1.435.946S36.65,53.733,36.65,53.361Z" transform="translate(-1.039 -1.768)"/>
    <path class="cls-4" d="M32.574,51.29c-.343,0-.392.056-.392.547h-.218l-.077-1.009h2.452a1.109,1.109,0,0,1-.687-1.016.933.933,0,0,1,.26-.735c.252-.217.469-.217,1.071-.217h1.338c.21-.007.21-.182.21-.547h.217c-.007.239-.021.6-.021.785s.014.546.021.791h-.217c0-.469,0-.545-.315-.545H34.584c-.4,0-.777.076-.777.517a1.022,1.022,0,0,0,1.12.945h1.289c.315,0,.315-.076.315-.545h.217c-.007.238-.021.6-.021.784s.014.547.021.792h-.217c0-.47,0-.547-.315-.547Z" transform="translate(-1.039 -1.768)"/>
    <path class="cls-4" d="M33.757,44.045a1.469,1.469,0,0,1,1.562-1.4A1.5,1.5,0,0,1,36.9,44.087c0,.651-.5,1.464-2.367,1.464-1.548,0-2.451-.947-2.451-1.843,0-.581.336-.89.756-.89a.323.323,0,1,1,.014.645c-.315,0-.315-.281-.315-.385a.722.722,0,0,0-.28.616c0,.358.252,1.226,2.024,1.226h.168A.969.969,0,0,1,33.757,44.045Zm2.494-.652a2.334,2.334,0,0,0-.938-.119,2.317,2.317,0,0,0-.96.126.676.676,0,0,0-.434.652c0,.629.7.854,1.246.854a3.423,3.423,0,0,0,1.016-.126.807.807,0,0,0,.525-.693A.733.733,0,0,0,36.251,43.393Z" transform="translate(-1.039 -1.768)"/>
  </g>
  <g>
    <path class="cls-4" d="M104.951,69.642a1.433,1.433,0,0,1,1.282,1.562V73.95h-.217v-.169c0-.539-.077-.553-.329-.553H102c-.252,0-.329.014-.329.553v.169h-.218V71.386a1.406,1.406,0,0,1,1.184-1.554c.519,0,.967.483,1.1,1.162A1.376,1.376,0,0,1,104.951,69.642Zm-1.281,1.99a1.057,1.057,0,0,0-1.037-1.121.93.93,0,0,0-.966.924V72.3c0,.329.049.343.28.343h1.723Zm1.275-1.289a1.049,1.049,0,0,0-1.121.987v1.317h1.912c.231,0,.28-.014.28-.343v-.876A1.058,1.058,0,0,0,104.945,70.343Z" transform="translate(-1.039 -1.768)"/>
    <path class="cls-4" d="M103.137,67.215a.479.479,0,0,1,.428-.519.294.294,0,0,1,.308.3.29.29,0,0,1-.3.3.3.3,0,0,1-.272-.161.177.177,0,0,0-.007.077c0,.532.623.826,1.316.826h1.079c.252,0,.329-.014.329-.532v-.147h.217c-.021.28-.021.609-.021.889,0,.2.014.526.021.8h-.217c0-.47,0-.546-.315-.546h-1.877c-.343,0-.393.055-.393.546h-.216l-.078-.974h.771A.981.981,0,0,1,103.137,67.215Z" transform="translate(-1.039 -1.768)"/>
    <path class="cls-4" d="M106.31,65.094c0,.441-.175,1.121-.742,1.121a1.02,1.02,0,0,1-.911-.7,3.407,3.407,0,0,1-.252-1.288h-.259a.793.793,0,0,0-.9.742.982.982,0,0,0,.321.756.319.319,0,0,1,.323-.357.323.323,0,1,1-.007.645c-.463,0-.792-.483-.792-1.058a1.338,1.338,0,0,1,.386-.959,1.033,1.033,0,0,1,.826-.253h1.4c.035,0,.35-.027.35-.259,0-.077-.042-.252-.448-.252h-.393v-.175h.393a.594.594,0,0,1,.665.575.586.586,0,0,1-.574.546A.968.968,0,0,1,106.31,65.094Zm-.749.581a.6.6,0,0,0,.595-.63.841.841,0,0,0-.9-.819h-.7C104.594,65.382,105.175,65.675,105.561,65.675Z" transform="translate(-1.039 -1.768)"/>
    <path class="cls-4" d="M103.431,62.785h-.216l-.078-.987h.736a1.107,1.107,0,0,1-.736-1.037.931.931,0,0,1,.26-.735c.252-.218.469-.218,1.071-.218h1.338c.21-.007.21-.182.21-.546h.217c-.007.238-.021.6-.021.785s.014.545.021.791h-.217c0-.47,0-.546-.315-.546h-1.632c-.4,0-.777.076-.777.518a1.022,1.022,0,0,0,1.12.945H105.7c.315,0,.315-.077.315-.546h.217c-.007.238-.021.6-.021.784s.014.547.021.792h-.217c0-.469,0-.547-.315-.547h-1.877C103.481,62.238,103.431,62.3,103.431,62.785Z" transform="translate(-1.039 -1.768)"/>
    <path class="cls-4" d="M106.135,57.317a.914.914,0,0,0-.735-.917c-.042-.014-.07-.028-.07-.091,0-.021,0-.092.07-.092a1.153,1.153,0,0,1,.91,1.163,1.55,1.55,0,0,1-1.59,1.506,1.57,1.57,0,0,1-1.625-1.52c0-.539.273-1.071.75-1.071a.322.322,0,1,1,.007.644.317.317,0,0,1-.323-.329,1.144,1.144,0,0,0-.258.749c0,.372.294.946,1.435.946S106.135,57.689,106.135,57.317Z" transform="translate(-1.039 -1.768)"/>
    <path class="cls-4" d="M102.059,55.246c-.343,0-.392.056-.392.546h-.218l-.077-1.008h2.452a1.109,1.109,0,0,1-.687-1.016.933.933,0,0,1,.26-.735c.252-.217.469-.217,1.071-.217h1.338c.21-.007.21-.183.21-.547h.217c-.007.239-.021.6-.021.785s.014.546.021.791h-.217c0-.469,0-.546-.315-.546h-1.632c-.4,0-.777.077-.777.518a1.022,1.022,0,0,0,1.12.945H105.7c.315,0,.315-.076.315-.545h.217c-.007.237-.021.6-.021.784s.014.546.021.791h-.217c0-.469,0-.546-.315-.546Z" transform="translate(-1.039 -1.768)"/>
    <path class="cls-4" d="M103.3,47.412a3.074,3.074,0,0,0,1.2.434,7.847,7.847,0,0,0,1.149.077H106c.07,0,.385,0,.385.322s-.315.322-.385.322a4.9,4.9,0,0,1-2.634-.861c-.231-.154-.994-.707-1.106-.784v1.449a3.557,3.557,0,0,0,.042.687,1.956,1.956,0,0,0,.637.175v.175l-1.442-.232V49c.133-.029.224-.042.224-.9V46.4c.147,0,.161,0,.245.063Z" transform="translate(-1.039 -1.768)"/>
  </g>
  <g>
    <path class="cls-4" d="M161.319,54.526a1.433,1.433,0,0,1-1.282-1.562V50.218h.218v.168c0,.539.076.554.329.554h3.691c.252,0,.329-.015.329-.554v-.168h.217v2.563a1.406,1.406,0,0,1-1.183,1.555c-.519,0-.967-.483-1.1-1.163A1.376,1.376,0,0,1,161.319,54.526Zm1.282-1.99a1.056,1.056,0,0,0,1.037,1.121.93.93,0,0,0,.966-.924v-.869c0-.329-.049-.343-.28-.343H162.6Zm-1.275,1.289a1.05,1.05,0,0,0,1.121-.987V51.521h-1.912c-.231,0-.28.014-.28.343v.875A1.058,1.058,0,0,0,161.326,53.825Z" transform="translate(-1.039 -1.768)"/>
    <path class="cls-4" d="M163.133,56.953a.478.478,0,0,1-.427.518.294.294,0,0,1-.308-.3.29.29,0,0,1,.3-.3.3.3,0,0,1,.273.161.177.177,0,0,0,.007-.077c0-.532-.623-.826-1.317-.826h-1.078c-.253,0-.329.014-.329.532v.147h-.218c.021-.28.021-.609.021-.889,0-.2-.014-.526-.021-.8h.218c0,.47,0,.546.315.546h1.877c.343,0,.392-.055.392-.546h.217l.077.973h-.77A.983.983,0,0,1,163.133,56.953Z" transform="translate(-1.039 -1.768)"/>
    <path class="cls-4" d="M159.96,59.073c0-.441.176-1.12.743-1.12a1.02,1.02,0,0,1,.91.7,3.4,3.4,0,0,1,.253,1.289h.258a.793.793,0,0,0,.9-.742.985.985,0,0,0-.322-.757c-.007.322-.238.357-.322.357a.322.322,0,1,1,.007-.644c.462,0,.791.483.791,1.058a1.337,1.337,0,0,1-.385.959,1.035,1.035,0,0,1-.826.252h-1.4c-.035,0-.35.028-.35.26,0,.076.042.252.448.252h.392v.174h-.392a.6.6,0,0,1-.666-.574.586.586,0,0,1,.575-.546A.969.969,0,0,1,159.96,59.073Zm.75-.581a.6.6,0,0,0-.595.631.84.84,0,0,0,.9.819h.7C161.676,58.786,161.1,58.492,160.71,58.492Z" transform="translate(-1.039 -1.768)"/>
    <path class="cls-4" d="M162.839,61.383h.217l.077.987H162.4a1.106,1.106,0,0,1,.735,1.037.932.932,0,0,1-.259.735c-.252.218-.469.218-1.071.218h-1.338c-.21.006-.21.182-.21.546h-.218c.007-.238.021-.6.021-.785s-.014-.546-.021-.791h.218c0,.469,0,.546.315.546H162.2c.4,0,.777-.077.777-.518a1.023,1.023,0,0,0-1.121-.945H160.57c-.315,0-.315.076-.315.546h-.218c.007-.238.021-.6.021-.785s-.014-.546-.021-.791h.218c0,.469,0,.546.315.546h1.877C162.79,61.929,162.839,61.873,162.839,61.383Z" transform="translate(-1.039 -1.768)"/>
    <path class="cls-4" d="M160.136,66.851a.914.914,0,0,0,.735.917c.042.014.07.028.07.091,0,.021,0,.091-.07.091a1.152,1.152,0,0,1-.911-1.162,1.55,1.55,0,0,1,1.59-1.506,1.569,1.569,0,0,1,1.625,1.519c0,.54-.273,1.072-.749,1.072a.322.322,0,1,1-.007-.644.316.316,0,0,1,.322.329,1.141,1.141,0,0,0,.259-.749c0-.372-.294-.946-1.436-.946C160.437,65.863,160.136,66.479,160.136,66.851Z" transform="translate(-1.039 -1.768)"/>
    <path class="cls-4" d="M164.212,68.922c.343,0,.392-.056.392-.546h.217l.077,1.008h-2.451a1.108,1.108,0,0,1,.686,1.016.933.933,0,0,1-.259.735c-.252.217-.469.217-1.071.217h-1.338c-.21.007-.21.182-.21.547h-.218c.007-.239.021-.6.021-.785s-.014-.546-.021-.791h.218c0,.469,0,.546.315.546H162.2c.4,0,.777-.077.777-.518a1.023,1.023,0,0,0-1.121-.946H160.57c-.315,0-.315.077-.315.546h-.218c.007-.237.021-.6.021-.784s-.014-.546-.021-.791h.218c0,.469,0,.546.315.546Z" transform="translate(-1.039 -1.768)"/>
    <path class="cls-4" d="M162.076,77.225a1.265,1.265,0,0,1-.862.344,1.4,1.4,0,0,1-1.331-1.457,1.337,1.337,0,0,1,1.212-1.45,1.547,1.547,0,0,1,1.289,1.009,4.412,4.412,0,0,1,.378-.511,1.117,1.117,0,0,1,.771-.309,1.218,1.218,0,0,1,1.169,1.268,1.158,1.158,0,0,1-1.043,1.261,1.3,1.3,0,0,1-1.086-.848A2.951,2.951,0,0,1,162.076,77.225Zm-.981-2.213a1.057,1.057,0,0,0-1.016,1.107,1.008,1.008,0,0,0,.883,1.1.937.937,0,0,0,.77-.525l.547-.861A1.374,1.374,0,0,0,161.1,75.012Zm1.583,1.367a1.19,1.19,0,0,0,.981.693.913.913,0,0,0,.868-.96c0-.5-.294-.952-.721-.952a.651.651,0,0,0-.568.349Z" transform="translate(-1.039 -1.768)"/>
  </g>
</svg>
