<?xml version="1.0" encoding="UTF-8"?>
<svg id="Layer_1" data-name="Layer 1" xmlns="http://www.w3.org/2000/svg" viewBox="0 0 445.582 139.248">
  <defs>
    <style>
      .cls-1 {
        stroke-width: .516px;
      }

      .cls-1, .cls-2, .cls-3, .cls-4, .cls-5, .cls-6, .cls-7, .cls-8, .cls-9, .cls-10, .cls-11, .cls-12, .cls-13 {
        stroke: #000;
        stroke-miterlimit: 10;
      }

      .cls-1, .cls-3, .cls-4, .cls-6, .cls-7, .cls-8, .cls-9, .cls-10, .cls-11, .cls-12, .cls-13 {
        fill: none;
      }

      .cls-2, .cls-5, .cls-14 {
        fill: #fff;
      }

      .cls-2, .cls-11 {
        stroke-width: .816px;
      }

      .cls-3 {
        stroke-width: .719px;
      }

      .cls-4 {
        stroke-width: .748px;
      }

      .cls-5 {
        stroke-width: .756px;
      }

      .cls-6 {
        stroke-width: 1.92px;
      }

      .cls-7 {
        stroke-width: .776px;
      }

      .cls-8 {
        stroke-width: .528px;
      }

      .cls-9 {
        stroke-width: 1.787px;
      }

      .cls-10 {
        stroke-width: .75px;
      }

      .cls-14 {
        stroke: #231f20;
        stroke-miterlimit: 2;
        stroke-width: .582px;
      }

      .cls-12 {
        stroke-width: .633px;
      }

      .cls-13 {
        stroke-width: .68px;
      }
    </style>
  </defs>
  <rect class="cls-14" x=".291" y=".611" width="445.001" height="138.666" rx="4" ry="4"/>
  <line class="cls-10" x1="285.865" y1="38.667" x2="427.833" y2="38.667"/>
  <line class="cls-3" x1="223.663" y1="38.667" x2="258.556" y2="38.667"/>
  <rect class="cls-5" x="333.476" y="33.225" width="27.741" height="10.885"/>
  <line class="cls-6" x1="223.665" y1="23.701" x2="223.665" y2="53.634"/>
  <line class="cls-9" x1="427.833" y1="23.701" x2="427.833" y2="53.634"/>
  <line class="cls-7" x1="309.34" y1="123.963" x2="309.34" y2="38.667"/>
  <rect class="cls-2" x="303.896" y="67.445" width="10.884" height="27.74"/>
  <line class="cls-7" x1="385.433" y1="123.963" x2="385.433" y2="38.667"/>
  <rect class="cls-2" x="379.99" y="67.445" width="10.883" height="27.74"/>
  <g>
    <line class="cls-1" x1="227.879" y1="32.809" x2="252.005" y2="32.809"/>
    <polygon points="250.555 34.718 251.368 32.809 250.555 30.898 255.084 32.809 250.555 34.718"/>
  </g>
  <g>
    <line class="cls-8" x1="398.273" y1="32.809" x2="422.333" y2="32.809"/>
    <polygon points="399.755 34.765 398.927 32.809 399.755 30.852 395.119 32.809 399.755 34.765"/>
  </g>
  <g>
    <circle class="cls-11" cx="268.079" cy="38.667" r="9.524"/>
    <circle class="cls-11" cx="276.565" cy="38.667" r="9.524"/>
  </g>
  <line class="cls-4" x1="320.224" y1="123.963" x2="298.453" y2="123.963"/>
  <line class="cls-13" x1="316.142" y1="126.986" x2="302.535" y2="126.986"/>
  <line class="cls-12" x1="312.057" y1="130.009" x2="306.613" y2="130.009"/>
  <line class="cls-4" x1="396.193" y1="123.963" x2="374.419" y2="123.963"/>
  <line class="cls-13" x1="392.109" y1="126.986" x2="378.503" y2="126.986"/>
  <line class="cls-12" x1="388.023" y1="130.009" x2="382.581" y2="130.009"/>
  <line class="cls-10" x1="81.673" y1="38.568" x2="223.642" y2="38.568"/>
  <line class="cls-3" x1="19.472" y1="38.568" x2="54.364" y2="38.568"/>
  <rect class="cls-5" x="129.285" y="33.126" width="27.74" height="10.885"/>
  <line class="cls-6" x1="19.474" y1="23.601" x2="19.474" y2="53.535"/>
  <line class="cls-7" x1="105.148" y1="123.865" x2="105.148" y2="38.568"/>
  <rect class="cls-2" x="99.705" y="67.346" width="10.884" height="27.741"/>
  <line class="cls-7" x1="181.242" y1="123.865" x2="181.242" y2="38.568"/>
  <rect class="cls-2" x="175.798" y="67.346" width="10.883" height="27.741"/>
  <g>
    <line class="cls-1" x1="23.687" y1="32.71" x2="47.813" y2="32.71"/>
    <polygon points="46.363 34.619 47.177 32.71 46.363 30.799 50.892 32.71 46.363 34.619"/>
  </g>
  <g>
    <line class="cls-8" x1="194.081" y1="32.71" x2="218.142" y2="32.71"/>
    <polygon points="195.564 34.666 194.736 32.71 195.564 30.753 190.927 32.71 195.564 34.666"/>
  </g>
  <g>
    <circle class="cls-11" cx="63.888" cy="38.568" r="9.524"/>
    <circle class="cls-11" cx="72.374" cy="38.568" r="9.524"/>
  </g>
  <line class="cls-4" x1="116.033" y1="123.865" x2="94.262" y2="123.865"/>
  <line class="cls-13" x1="111.951" y1="126.887" x2="98.344" y2="126.887"/>
  <line class="cls-12" x1="107.865" y1="129.911" x2="102.422" y2="129.911"/>
  <line class="cls-4" x1="192.001" y1="123.865" x2="170.228" y2="123.865"/>
  <line class="cls-13" x1="187.917" y1="126.887" x2="174.312" y2="126.887"/>
  <line class="cls-12" x1="183.831" y1="129.911" x2="178.39" y2="129.911"/>
  <polyline class="cls-7" points="243.153 123.675 243.153 45.737 224.453 45.737"/>
  <rect class="cls-2" x="237.71" y="70.833" width="10.884" height="27.746"/>
  <g>
    <line class="cls-1" x1="233.089" y1="53.976" x2="233.089" y2="78.102"/>
    <polygon points="234.998 76.652 233.089 77.465 231.178 76.652 233.089 81.181 234.998 76.652"/>
  </g>
  <g>
    <line class="cls-4" x1="254.037" y1="123.868" x2="232.267" y2="123.868"/>
    <line class="cls-13" x1="249.956" y1="126.891" x2="236.349" y2="126.891"/>
    <line class="cls-12" x1="245.876" y1="130.092" x2="240.433" y2="130.092"/>
  </g>
  <g>
    <g>
      <path d="m38.388,30.268c0,.23,0,.321.697.321h.265v.251c-.153-.007-1.032-.028-1.248-.028-.258,0-1.115.021-1.241.028v-.251h.265c.697,0,.697-.091.697-.321v-3.556c-.383.195-.844.195-1.011.195v-.251c.286,0,.921-.008,1.367-.446.195,0,.209.007.209.195v3.862Z"/>
      <path d="m43.332,30.841h-2.873c0-.195,0-.209.069-.271l1.681-1.66c.223-.251.655-.732.655-1.339,0-.564-.362-1.108-1.06-1.108-.328,0-.802.153-1.019.648.363,0,.412.244.412.369,0,.251-.203.37-.37.37-.069,0-.369-.035-.369-.391,0-.642.585-1.248,1.45-1.248.893,0,1.632.516,1.632,1.359,0,.662-.481,1.095-.997,1.506-.419.328-.663.523-1.395,1.172h1.282c.098,0,.635,0,.69-.042.091-.069.161-.48.182-.635h.237l-.209,1.27Z"/>
    </g>
    <path d="m34.064,28.619c-.02.07-.04.149-.04.229,0,.109.04.149.249.169.199.021.249.021.429.021.219,0,.299,0,.299.119,0,.189-.119.189-.199.189-.299,0-1.036-.03-1.335-.03-.289,0-1.017.03-1.306.03-.029,0-.149,0-.149-.109,0-.199.09-.199.319-.199.787,0,.816-.1.906-.469l1.346-5.37c.02-.09.02-.11.02-.16,0-.188-.27-.188-.688-.188-.189,0-.279,0-.279-.11,0-.199.13-.199.199-.199.299,0,1.026.03,1.325.03.289,0,1.026-.03,1.315-.03.04,0,.149,0,.149.12,0,.189-.079.189-.318.189-.787,0-.817.1-.907.458l-1.335,5.311Z"/>
    <path d="m33.557,21.258v-.309h3.598v.309h-3.598Z"/>
  </g>
  <g>
    <g>
      <path d="m210.478,30.841h-2.873c0-.195,0-.209.07-.271l1.68-1.66c.223-.251.656-.732.656-1.339,0-.564-.363-1.108-1.06-1.108-.328,0-.802.153-1.018.648.363,0,.412.244.412.369,0,.251-.203.37-.37.37-.07,0-.37-.035-.37-.391,0-.642.585-1.248,1.45-1.248.893,0,1.632.516,1.632,1.359,0,.662-.481,1.095-.997,1.506-.418.328-.663.523-1.395,1.172h1.283c.098,0,.635,0,.69-.042.091-.069.161-.48.181-.635h.237l-.209,1.27Z"/>
      <path d="m213.469,30.268c0,.23,0,.321.697.321h.265v.251c-.153-.007-1.032-.028-1.248-.028-.258,0-1.116.021-1.241.028v-.251h.265c.697,0,.697-.091.697-.321v-3.556c-.383.195-.844.195-1.011.195v-.251c.286,0,.92-.008,1.367-.446.195,0,.209.007.209.195v3.862Z"/>
    </g>
    <path d="m205.177,28.619c-.02.07-.04.149-.04.229,0,.109.04.149.249.169.199.021.249.021.428.021.219,0,.299,0,.299.119,0,.189-.12.189-.199.189-.299,0-1.037-.03-1.335-.03-.289,0-1.016.03-1.305.03-.03,0-.149,0-.149-.109,0-.199.089-.199.319-.199.787,0,.817-.1.907-.469l1.345-5.37c.02-.09.02-.11.02-.16,0-.188-.269-.188-.688-.188-.189,0-.279,0-.279-.11,0-.199.129-.199.199-.199.299,0,1.026.03,1.325.03.289,0,1.026-.03,1.315-.03.04,0,.149,0,.149.12,0,.189-.08.189-.319.189-.787,0-.817.1-.907.458l-1.335,5.311Z"/>
    <path d="m204.671,21.258v-.309h3.597v.309h-3.597Z"/>
  </g>
  <g>
    <g>
      <path d="m243.217,30.701h-2.873c0-.195,0-.209.07-.271l1.68-1.66c.223-.251.656-.732.656-1.339,0-.564-.363-1.108-1.06-1.108-.328,0-.802.153-1.018.648.363,0,.412.244.412.369,0,.251-.203.37-.37.37-.07,0-.37-.035-.37-.391,0-.642.585-1.248,1.45-1.248.893,0,1.632.516,1.632,1.359,0,.662-.481,1.095-.997,1.506-.418.328-.663.523-1.395,1.172h1.283c.098,0,.635,0,.69-.042.091-.069.161-.48.181-.635h.237l-.209,1.27Z"/>
      <path d="m245.4,28.372c-.119,0-.182,0-.182-.098,0-.076.056-.091.07-.091.035-.007.049-.007.223-.021.349-.021.544-.035.774-.3.182-.217.279-.537.279-.83,0-.606-.439-.76-.753-.76-.258,0-.739.076-.983.383.216.015.355.161.355.363,0,.195-.14.355-.355.355-.209,0-.363-.133-.363-.37,0-.558.593-.934,1.367-.934s1.409.411,1.409.962c0,.426-.265.948-.997,1.213.767.161,1.213.705,1.213,1.249,0,.697-.669,1.346-1.639,1.346-.844,0-1.569-.426-1.569-1.081,0-.286.195-.404.391-.404.216,0,.383.16.383.384,0,.146-.077.376-.404.39.293.412.907.488,1.186.488.404,0,.906-.258.906-1.122,0-.746-.39-1.123-.934-1.123h-.376Z"/>
    </g>
    <path d="m237.916,28.479c-.02.07-.04.149-.04.229,0,.109.04.149.249.169.199.021.249.021.428.021.219,0,.299,0,.299.119,0,.189-.12.189-.199.189-.299,0-1.037-.03-1.335-.03-.289,0-1.016.03-1.305.03-.03,0-.149,0-.149-.109,0-.199.089-.199.319-.199.787,0,.817-.1.907-.469l1.345-5.37c.02-.09.02-.11.02-.16,0-.188-.269-.188-.688-.188-.189,0-.279,0-.279-.11,0-.199.129-.199.199-.199.299,0,1.026.03,1.325.03.289,0,1.026-.03,1.315-.03.04,0,.149,0,.149.12,0,.189-.08.189-.319.189-.787,0-.817.1-.907.458l-1.335,5.311Z"/>
    <path d="m237.41,21.118v-.309h3.597v.309h-3.597Z"/>
  </g>
  <g>
    <g>
      <path d="m412.165,28.372c-.119,0-.182,0-.182-.098,0-.076.056-.091.069-.091.035-.007.049-.007.224-.021.349-.021.544-.035.773-.3.182-.217.279-.537.279-.83,0-.606-.439-.76-.753-.76-.258,0-.739.076-.983.383.216.015.355.161.355.363,0,.195-.14.355-.355.355-.209,0-.362-.133-.362-.37,0-.558.593-.934,1.366-.934s1.409.411,1.409.962c0,.426-.266.948-.997,1.213.767.161,1.213.705,1.213,1.249,0,.697-.669,1.346-1.639,1.346-.844,0-1.569-.426-1.569-1.081,0-.286.195-.404.391-.404.217,0,.384.16.384.384,0,.146-.077.376-.404.39.293.412.906.488,1.186.488.404,0,.906-.258.906-1.122,0-.746-.391-1.123-.935-1.123h-.376Z"/>
      <path d="m417.918,30.701h-2.873c0-.195,0-.209.069-.271l1.681-1.66c.223-.251.655-.732.655-1.339,0-.564-.362-1.108-1.06-1.108-.328,0-.802.153-1.019.648.363,0,.412.244.412.369,0,.251-.203.37-.37.37-.069,0-.369-.035-.369-.391,0-.642.585-1.248,1.45-1.248.893,0,1.632.516,1.632,1.359,0,.662-.481,1.095-.997,1.506-.419.328-.663.523-1.395,1.172h1.282c.098,0,.635,0,.69-.042.091-.069.161-.48.182-.635h.237l-.209,1.27Z"/>
    </g>
    <path d="m408.65,28.479c-.02.07-.04.149-.04.229,0,.109.04.149.249.169.199.021.249.021.429.021.219,0,.299,0,.299.119,0,.189-.119.189-.199.189-.299,0-1.036-.03-1.335-.03-.289,0-1.017.03-1.306.03-.029,0-.149,0-.149-.109,0-.199.09-.199.319-.199.787,0,.816-.1.906-.469l1.346-5.37c.02-.09.02-.11.02-.16,0-.188-.27-.188-.688-.188-.189,0-.279,0-.279-.11,0-.199.13-.199.199-.199.299,0,1.026.03,1.325.03.289,0,1.026-.03,1.315-.03.04,0,.149,0,.149.12,0,.189-.079.189-.318.189-.787,0-.817.1-.907.458l-1.335,5.311Z"/>
    <path d="m408.143,21.118v-.309h3.598v.309h-3.598Z"/>
  </g>
  <g>
    <g>
      <path d="m221.551,69.434c0,.133,0,.182-.119.182-.028,0-.112,0-.119-.077-.014-.202-.049-.767-.858-.767-.662,0-.851.271-.851.495,0,.369.453.453,1.011.551.244.042.565.098.83.342.182.167.3.376.3.642,0,.495-.334.982-1.241.982-.167,0-.544-.014-.851-.3-.14.153-.272.3-.334.3-.098,0-.098-.062-.098-.181v-.858c0-.139,0-.188.118-.188.098,0,.105.027.125.118.126.475.37.913,1.039.913s.858-.32.858-.592c0-.468-.565-.565-.914-.628-.432-.07-.697-.119-.962-.349-.167-.14-.265-.321-.265-.544,0-.349.237-.872,1.234-.872.258,0,.523.042.732.188.042-.035.111-.098.125-.104.091-.084.104-.084.14-.084.098,0,.098.063.098.182v.648Z"/>
      <path d="m225.651,71.163c0,.3.07.3.523.3v.251c-.063-.007-.544-.028-.802-.028-.293,0-.781.028-.795.028v-.251c.453,0,.523,0,.523-.3v-1.59c0-.355-.063-.739-.551-.739-.46,0-1.039.342-1.039,1.074v1.255c0,.3.07.3.523.3v.251c-.063-.007-.544-.028-.802-.028-.293,0-.781.028-.795.028v-.251c.453,0,.523,0,.523-.3v-3.57c0-.342-.056-.391-.523-.391v-.251l1.046-.077v2.399h.007c.153-.266.495-.635,1.116-.635.746,0,1.046.355,1.046.962v1.562Z"/>
      <path d="m229.766,71.714h-2.873c0-.195,0-.209.07-.271l1.68-1.66c.223-.251.656-.732.656-1.339,0-.564-.363-1.108-1.06-1.108-.328,0-.802.153-1.018.648.363,0,.412.244.412.369,0,.251-.203.37-.37.37-.07,0-.37-.035-.37-.391,0-.642.585-1.248,1.45-1.248.893,0,1.632.516,1.632,1.359,0,.662-.481,1.095-.997,1.506-.418.328-.663.523-1.395,1.172h1.283c.098,0,.635,0,.69-.042.091-.069.161-.48.181-.635h.237l-.209,1.27Z"/>
    </g>
    <path d="m216.919,69.493c-.02.07-.04.149-.04.229,0,.109.04.149.249.169.199.021.249.021.428.021.219,0,.299,0,.299.119,0,.189-.12.189-.199.189-.299,0-1.037-.03-1.335-.03-.289,0-1.016.03-1.305.03-.03,0-.149,0-.149-.109,0-.199.089-.199.319-.199.787,0,.817-.1.907-.469l1.345-5.37c.02-.09.02-.11.02-.16,0-.188-.269-.188-.688-.188-.189,0-.279,0-.279-.11,0-.199.129-.199.199-.199.299,0,1.026.03,1.325.03.289,0,1.026-.03,1.315-.03.04,0,.149,0,.149.12,0,.189-.08.189-.319.189-.787,0-.817.1-.907.458l-1.335,5.311Z"/>
    <path d="m216.413,62.131v-.309h3.597v.309h-3.597Z"/>
  </g>
  <path d="m429.901,19.558c0,1.017-.906,1.923-2.122,1.923-1.086,0-2.013-.657-2.013-1.563,0-.438.318-.578.558-.578.289,0,.559.199.559.558,0,.379-.31.598-.658.548.349.588,1.096.758,1.524.758.438,0,1.126-.289,1.126-1.645,0-.977-.368-1.653-1.186-1.653h-.438c-.169,0-.239,0-.239-.11,0-.1.07-.109.149-.119.07,0,.31-.021.389-.03.249-.01.588-.04.887-.518.26-.438.279-1.017.279-1.136,0-.897-.548-1.116-.957-1.116-.358,0-1.016.129-1.325.617.149,0,.618,0,.618.499,0,.288-.199.508-.508.508-.289,0-.509-.189-.509-.519,0-.757.758-1.354,1.764-1.354.957,0,1.834.558,1.834,1.375,0,.787-.578,1.484-1.396,1.753,1.036.21,1.664.987,1.664,1.804Z"/>
  <path d="m19.872,20.693c0,.368.03.479.927.479h.319v.309c-.349-.03-1.216-.03-1.614-.03s-1.266,0-1.614.03v-.309h.319c.896,0,.926-.12.926-.479v-5.161c-.518.259-1.105.259-1.305.259v-.309c.318,0,1.195,0,1.813-.638.229,0,.229.02.229.259v5.59Z"/>
  <path d="m224.238,20.712c.219,0,.876,0,.946-.079.1-.149.169-.588.219-.887h.249l-.279,1.734h-3.697c0-.239,0-.259.11-.369l1.913-2.132c.548-.618,1.046-1.405,1.046-2.202,0-.817-.428-1.624-1.335-1.624-.578,0-1.116.369-1.345,1.017.03-.01.05-.01.129-.01.349,0,.528.259.528.518,0,.408-.349.528-.518.528-.03,0-.528,0-.528-.559,0-.887.737-1.803,1.863-1.803,1.216,0,2.112.797,2.112,1.933,0,.996-.598,1.534-2.152,2.909l-1.056,1.026h1.793Z"/>
  <g>
    <g>
      <path d="m281.243,26.545h-2.873c0-.195,0-.209.07-.271l1.68-1.66c.223-.251.656-.732.656-1.339,0-.564-.363-1.108-1.06-1.108-.328,0-.802.153-1.018.648.363,0,.412.244.412.369,0,.251-.203.37-.37.37-.07,0-.37-.035-.37-.391,0-.642.585-1.248,1.45-1.248.893,0,1.632.516,1.632,1.359,0,.662-.481,1.095-.997,1.506-.418.328-.663.523-1.395,1.172h1.283c.098,0,.635,0,.69-.042.091-.069.161-.48.181-.635h.237l-.209,1.27Z"/>
      <path d="m283.426,24.216c-.119,0-.182,0-.182-.098,0-.076.056-.091.07-.091.035-.007.049-.007.223-.021.349-.021.544-.035.774-.3.182-.217.279-.537.279-.83,0-.606-.439-.76-.753-.76-.258,0-.739.076-.983.383.216.015.355.161.355.363,0,.195-.14.355-.355.355-.209,0-.363-.133-.363-.37,0-.558.593-.934,1.367-.934s1.409.411,1.409.962c0,.426-.265.948-.997,1.213.767.161,1.213.705,1.213,1.249,0,.697-.669,1.346-1.639,1.346-.844,0-1.569-.426-1.569-1.081,0-.286.195-.404.391-.404.216,0,.383.16.383.384,0,.146-.077.376-.404.39.293.412.907.488,1.186.488.404,0,.906-.258.906-1.122,0-.746-.39-1.123-.934-1.123h-.376Z"/>
    </g>
    <path d="m276.311,23.317c.468-.588.797-1.346.977-1.974.05-.179.05-.209.149-.209.109,0,.12.08.12.1,0,.01-.209,1.166-1.146,2.342-.1.119-.1.14-.1.349,0,.239,0,1.017.309,1.017.02,0,.379,0,.558-.488.03-.07.06-.1.129-.1.06,0,.12.029.12.1,0,.159-.309.707-.837.707-.448,0-.777-.309-.907-.837-.757.608-1.475.837-2.103.837-1.016,0-1.614-.757-1.614-1.684,0-1.405,1.315-2.83,2.68-2.83.737,0,1.664.488,1.664,2.053v.618Zm-.688-.369c0-.777,0-2.082-.986-2.082-.349,0-.887.189-1.355.916-.319.509-.578,1.585-.578,2.073,0,.638.299,1.086.896,1.086.399,0,1.166-.109,2.043-.877-.02-.17-.02-.747-.02-1.116Z"/>
    <g>
      <path d="m261.204,24.264c0,.368.03.479.927.479h.319v.309c-.349-.03-1.215-.03-1.614-.03s-1.265,0-1.614.03v-.309h.319c.896,0,.926-.12.926-.479v-5.161c-.518.259-1.106.259-1.305.259v-.309c.319,0,1.196,0,1.813-.638.229,0,.229.02.229.259v5.59Z"/>
      <path d="m267.41,21.812c-.289,0-.528-.239-.528-.528s.239-.528.528-.528.528.239.528.528-.239.528-.528.528Zm0,3.238c-.289,0-.528-.239-.528-.528s.239-.528.528-.528.528.239.528.528-.239.528-.528.528Z"/>
    </g>
  </g>
  <g>
    <g>
      <path d="m76.107,26.112c0,.23,0,.321.697.321h.265v.251c-.153-.007-1.032-.028-1.248-.028-.258,0-1.116.021-1.241.028v-.251h.265c.697,0,.697-.091.697-.321v-3.556c-.383.195-.844.195-1.011.195v-.251c.286,0,.92-.008,1.367-.446.195,0,.209.007.209.195v3.862Z"/>
      <path d="m81.051,26.684h-2.873c0-.195,0-.209.07-.271l1.68-1.66c.223-.251.656-.732.656-1.339,0-.564-.363-1.108-1.06-1.108-.328,0-.802.153-1.018.648.363,0,.412.244.412.369,0,.251-.203.37-.37.37-.07,0-.37-.035-.37-.391,0-.642.585-1.248,1.45-1.248.893,0,1.632.516,1.632,1.359,0,.662-.481,1.095-.997,1.506-.418.328-.663.523-1.395,1.172h1.283c.098,0,.635,0,.69-.042.091-.069.161-.48.181-.635h.237l-.209,1.27Z"/>
    </g>
    <path d="m72.151,23.457c.468-.588.797-1.346.977-1.974.05-.179.05-.209.149-.209.109,0,.12.08.12.1,0,.01-.209,1.166-1.146,2.342-.1.119-.1.14-.1.349,0,.239,0,1.017.309,1.017.02,0,.379,0,.558-.488.03-.07.06-.1.129-.1.06,0,.12.029.12.1,0,.159-.309.707-.837.707-.448,0-.777-.309-.907-.837-.757.608-1.475.837-2.103.837-1.016,0-1.614-.757-1.614-1.684,0-1.405,1.315-2.83,2.68-2.83.737,0,1.664.488,1.664,2.053v.618Zm-.688-.369c0-.777,0-2.082-.986-2.082-.349,0-.887.189-1.355.916-.319.509-.578,1.585-.578,2.073,0,.638.299,1.086.896,1.086.399,0,1.166-.109,2.043-.877-.02-.17-.02-.747-.02-1.116Z"/>
    <g>
      <path d="m57.044,24.403c0,.368.03.479.927.479h.319v.309c-.349-.03-1.215-.03-1.614-.03s-1.265,0-1.614.03v-.309h.319c.896,0,.926-.12.926-.479v-5.161c-.518.259-1.106.259-1.305.259v-.309c.319,0,1.196,0,1.813-.638.229,0,.229.02.229.259v5.59Z"/>
      <path d="m63.25,21.952c-.289,0-.528-.239-.528-.528s.239-.528.528-.528.528.239.528.528-.239.528-.528.528Zm0,3.238c-.289,0-.528-.239-.528-.528s.239-.528.528-.528.528.239.528.528-.239.528-.528.528Z"/>
    </g>
  </g>
  <g>
    <g>
      <path d="m89.054,81.61c0,.133,0,.182-.119.182-.028,0-.112,0-.119-.077-.014-.202-.049-.767-.858-.767-.662,0-.851.271-.851.495,0,.369.453.453,1.011.551.244.042.565.098.83.342.182.167.3.376.3.642,0,.495-.334.982-1.241.982-.167,0-.544-.014-.851-.3-.14.153-.272.3-.334.3-.098,0-.098-.062-.098-.181v-.858c0-.139,0-.188.118-.188.098,0,.105.027.126.118.125.475.369.913,1.039.913s.858-.32.858-.592c0-.468-.565-.565-.914-.628-.432-.07-.697-.119-.962-.349-.167-.14-.265-.321-.265-.544,0-.349.237-.872,1.234-.872.258,0,.523.042.732.188.042-.035.111-.098.125-.104.091-.084.104-.084.14-.084.098,0,.098.063.098.182v.648Z"/>
      <path d="m91.899,83.318c0,.23,0,.321.697.321h.265v.251c-.153-.007-1.032-.028-1.248-.028-.258,0-1.116.021-1.241.028v-.251h.265c.697,0,.697-.091.697-.321v-3.556c-.383.195-.844.195-1.011.195v-.251c.286,0,.92-.008,1.367-.446.195,0,.209.007.209.195v3.862Z"/>
      <path d="m96.844,83.89h-2.873c0-.195,0-.209.07-.271l1.68-1.66c.223-.251.656-.732.656-1.339,0-.564-.363-1.108-1.06-1.108-.328,0-.802.153-1.018.648.363,0,.412.244.412.369,0,.251-.203.37-.37.37-.07,0-.37-.035-.37-.391,0-.642.585-1.248,1.45-1.248.893,0,1.632.516,1.632,1.359,0,.662-.481,1.095-.997,1.506-.418.328-.663.523-1.395,1.172h1.283c.098,0,.635,0,.69-.042.091-.069.161-.48.181-.635h.237l-.209,1.27Z"/>
    </g>
    <path d="m85.413,82.406c-.279,1.126-1.305,2.033-2.332,2.033-.618,0-1.056-.369-1.056-.867,0-.488.329-.647.558-.647.1,0,.369.04.369.349,0,.189-.1.318-.199.408-.14.12-.269.12-.428.12.169.389.618.418.757.418.458,0,.837-.289,1.096-.628.398-.527.518-1.016.647-1.534-.279.279-.618.448-1.006.448-.588,0-1.215-.299-1.215-1.186,0-.468.179-1.036.578-2.093.07-.188.169-.448.169-.697,0-.318-.169-.318-.249-.318-.339,0-.737.299-1.006,1.235-.05.159-.06.18-.159.18-.02,0-.12,0-.12-.101,0-.089.369-1.534,1.315-1.534.499,0,.817.369.817.817,0,.199-.04.309-.199.717-.339.877-.508,1.495-.508,1.953,0,.369.109.808.618.808.658,0,1.086-.697,1.126-.847l.448-1.794c.06-.27.13-.538.199-.797.04-.18.12-.488.14-.538.09-.149.249-.21.349-.21.149,0,.289.09.289.27,0,.069,0,.09-.04.229l-.957,3.806Z"/>
  </g>
  <g>
    <g>
      <path d="m349.18,30.805h-2.873c0-.195,0-.209.07-.271l1.68-1.66c.223-.251.656-.732.656-1.339,0-.564-.363-1.108-1.06-1.108-.328,0-.802.153-1.018.648.363,0,.412.244.412.369,0,.251-.203.37-.37.37-.07,0-.37-.035-.37-.391,0-.642.585-1.248,1.45-1.248.893,0,1.632.516,1.632,1.359,0,.662-.481,1.095-.997,1.506-.418.328-.663.523-1.395,1.172h1.283c.098,0,.635,0,.69-.042.091-.069.161-.48.181-.635h.237l-.209,1.27Z"/>
      <path d="m351.363,28.476c-.119,0-.182,0-.182-.098,0-.076.056-.091.07-.091.035-.007.049-.007.223-.021.349-.021.544-.035.774-.3.182-.217.279-.537.279-.83,0-.606-.439-.76-.753-.76-.258,0-.739.076-.983.383.216.015.355.161.355.363,0,.195-.14.355-.355.355-.209,0-.363-.133-.363-.37,0-.558.593-.934,1.367-.934s1.409.411,1.409.962c0,.426-.265.948-.997,1.213.767.161,1.213.705,1.213,1.249,0,.697-.669,1.346-1.639,1.346-.844,0-1.569-.426-1.569-1.081,0-.286.195-.404.391-.404.216,0,.383.16.383.384,0,.146-.077.376-.404.39.293.412.907.488,1.186.488.404,0,.906-.258.906-1.122,0-.746-.39-1.123-.934-1.123h-.376Z"/>
    </g>
    <path d="m344.869,29.321c-.279,1.126-1.305,2.033-2.332,2.033-.618,0-1.056-.369-1.056-.867,0-.488.329-.647.558-.647.1,0,.369.04.369.349,0,.189-.1.318-.199.408-.14.12-.269.12-.428.12.169.389.618.418.757.418.458,0,.837-.289,1.096-.628.398-.527.518-1.016.647-1.534-.279.279-.618.448-1.006.448-.588,0-1.215-.299-1.215-1.186,0-.468.179-1.036.578-2.093.07-.188.169-.448.169-.697,0-.318-.169-.318-.249-.318-.339,0-.737.299-1.006,1.235-.05.159-.06.18-.159.18-.02,0-.12,0-.12-.101,0-.089.369-1.534,1.315-1.534.499,0,.817.369.817.817,0,.199-.04.309-.199.717-.339.877-.508,1.495-.508,1.953,0,.369.109.808.618.808.658,0,1.086-.697,1.126-.847l.448-1.794c.06-.27.13-.538.199-.797.04-.18.12-.488.14-.538.09-.149.249-.21.349-.21.149,0,.289.09.289.27,0,.069,0,.09-.04.229l-.957,3.806Z"/>
  </g>
  <g>
    <g>
      <path d="m144.044,30.232c0,.23,0,.321.697.321h.265v.251c-.153-.007-1.032-.028-1.248-.028-.258,0-1.116.021-1.241.028v-.251h.265c.697,0,.697-.091.697-.321v-3.556c-.383.195-.844.195-1.011.195v-.251c.286,0,.92-.008,1.367-.446.195,0,.209.007.209.195v3.862Z"/>
      <path d="m148.988,30.805h-2.873c0-.195,0-.209.07-.271l1.68-1.66c.223-.251.656-.732.656-1.339,0-.564-.363-1.108-1.06-1.108-.328,0-.802.153-1.018.648.363,0,.412.244.412.369,0,.251-.203.37-.37.37-.07,0-.37-.035-.37-.391,0-.642.585-1.248,1.45-1.248.893,0,1.632.516,1.632,1.359,0,.662-.481,1.095-.997,1.506-.418.328-.663.523-1.395,1.172h1.283c.098,0,.635,0,.69-.042.091-.069.161-.48.181-.635h.237l-.209,1.27Z"/>
    </g>
    <path d="m140.709,29.321c-.279,1.126-1.305,2.033-2.332,2.033-.618,0-1.056-.369-1.056-.867,0-.488.329-.647.558-.647.1,0,.369.04.369.349,0,.189-.1.318-.199.408-.14.12-.269.12-.428.12.169.389.618.418.757.418.458,0,.837-.289,1.096-.628.398-.527.518-1.016.647-1.534-.279.279-.618.448-1.006.448-.588,0-1.215-.299-1.215-1.186,0-.468.179-1.036.578-2.093.07-.188.169-.448.169-.697,0-.318-.169-.318-.249-.318-.339,0-.737.299-1.006,1.235-.05.159-.06.18-.159.18-.02,0-.12,0-.12-.101,0-.089.369-1.534,1.315-1.534.499,0,.817.369.817.817,0,.199-.04.309-.199.717-.339.877-.508,1.495-.508,1.953,0,.369.109.808.618.808.658,0,1.086-.697,1.126-.847l.448-1.794c.06-.27.13-.538.199-.797.04-.18.12-.488.14-.538.09-.149.249-.21.349-.21.149,0,.289.09.289.27,0,.069,0,.09-.04.229l-.957,3.806Z"/>
  </g>
  <g>
    <g>
      <path d="m196.666,81.61c0,.133,0,.182-.119.182-.027,0-.111,0-.118-.077-.015-.202-.049-.767-.858-.767-.662,0-.851.271-.851.495,0,.369.453.453,1.012.551.244.042.564.098.829.342.182.167.3.376.3.642,0,.495-.334.982-1.241.982-.167,0-.544-.014-.851-.3-.14.153-.271.3-.334.3-.098,0-.098-.062-.098-.181v-.858c0-.139,0-.188.118-.188.098,0,.104.027.126.118.125.475.369.913,1.038.913s.858-.32.858-.592c0-.468-.565-.565-.914-.628-.432-.07-.697-.119-.962-.349-.167-.14-.265-.321-.265-.544,0-.349.236-.872,1.233-.872.259,0,.523.042.732.188.042-.035.111-.098.126-.104.091-.084.104-.084.14-.084.098,0,.098.063.098.182v.648Z"/>
      <path d="m199.511,83.318c0,.23,0,.321.697.321h.266v.251c-.153-.007-1.032-.028-1.248-.028-.259,0-1.116.021-1.241.028v-.251h.265c.697,0,.697-.091.697-.321v-3.556c-.384.195-.844.195-1.011.195v-.251c.285,0,.92-.008,1.366-.446.195,0,.209.007.209.195v3.862Z"/>
      <path d="m204.456,83.89h-2.873c0-.195,0-.209.07-.271l1.68-1.66c.224-.251.656-.732.656-1.339,0-.564-.363-1.108-1.061-1.108-.327,0-.802.153-1.018.648.362,0,.411.244.411.369,0,.251-.202.37-.369.37-.07,0-.37-.035-.37-.391,0-.642.586-1.248,1.45-1.248.893,0,1.632.516,1.632,1.359,0,.662-.48,1.095-.997,1.506-.418.328-.662.523-1.395,1.172h1.283c.098,0,.635,0,.69-.042.091-.069.16-.48.181-.635h.237l-.209,1.27Z"/>
    </g>
    <path d="m193.025,82.406c-.278,1.126-1.305,2.033-2.331,2.033-.618,0-1.057-.369-1.057-.867,0-.488.329-.647.559-.647.1,0,.368.04.368.349,0,.189-.1.318-.199.408-.14.12-.269.12-.428.12.169.389.617.418.757.418.458,0,.837-.289,1.096-.628.398-.527.519-1.016.647-1.534-.278.279-.617.448-1.006.448-.588,0-1.216-.299-1.216-1.186,0-.468.18-1.036.578-2.093.069-.188.169-.448.169-.697,0-.318-.169-.318-.249-.318-.339,0-.737.299-1.006,1.235-.05.159-.06.18-.159.18-.021,0-.12,0-.12-.101,0-.089.369-1.534,1.315-1.534.498,0,.817.369.817.817,0,.199-.04.309-.199.717-.339.877-.509,1.495-.509,1.953,0,.369.109.808.618.808.657,0,1.086-.697,1.126-.847l.448-1.794c.06-.27.13-.538.199-.797.04-.18.119-.488.14-.538.09-.149.249-.21.349-.21.149,0,.289.09.289.27,0,.069,0,.09-.04.229l-.957,3.806Z"/>
  </g>
  <g>
    <g>
      <path d="m259.243,85.1c0,.133,0,.182-.119.182-.028,0-.112,0-.119-.077-.014-.202-.049-.767-.858-.767-.662,0-.851.271-.851.495,0,.369.453.453,1.011.551.244.042.565.098.83.342.182.167.3.376.3.642,0,.495-.334.982-1.241.982-.167,0-.544-.014-.851-.3-.14.153-.272.3-.334.3-.098,0-.098-.062-.098-.181v-.858c0-.139,0-.188.118-.188.098,0,.105.027.126.118.125.475.369.913,1.039.913s.858-.32.858-.592c0-.468-.565-.565-.914-.628-.432-.07-.697-.119-.962-.349-.167-.14-.265-.321-.265-.544,0-.349.237-.872,1.234-.872.258,0,.523.042.732.188.042-.035.111-.098.125-.104.091-.084.104-.084.14-.084.098,0,.098.063.098.182v.648Z"/>
      <path d="m263.343,86.829c0,.3.07.3.523.3v.251c-.063-.007-.544-.028-.802-.028-.293,0-.781.028-.795.028v-.251c.453,0,.523,0,.523-.3v-1.59c0-.355-.063-.739-.551-.739-.46,0-1.039.342-1.039,1.074v1.255c0,.3.069.3.523.3v.251c-.063-.007-.544-.028-.802-.028-.293,0-.781.028-.795.028v-.251c.453,0,.523,0,.523-.3v-3.57c0-.342-.056-.391-.523-.391v-.251l1.046-.077v2.399h.007c.153-.266.495-.635,1.116-.635.746,0,1.046.355,1.046.962v1.562Z"/>
      <path d="m267.458,87.38h-2.873c0-.195,0-.209.07-.271l1.68-1.66c.223-.251.656-.732.656-1.339,0-.564-.363-1.108-1.06-1.108-.328,0-.802.153-1.018.648.363,0,.412.244.412.369,0,.251-.203.37-.37.37-.07,0-.37-.035-.37-.391,0-.642.585-1.248,1.45-1.248.893,0,1.632.516,1.632,1.359,0,.662-.481,1.095-.997,1.506-.418.328-.663.523-1.395,1.172h1.283c.098,0,.635,0,.69-.042.091-.069.161-.48.181-.635h.237l-.209,1.27Z"/>
    </g>
    <path d="m255.602,85.897c-.279,1.126-1.305,2.033-2.332,2.033-.618,0-1.056-.369-1.056-.867,0-.488.329-.647.558-.647.1,0,.369.04.369.349,0,.189-.1.318-.199.408-.14.12-.269.12-.428.12.169.389.618.418.757.418.458,0,.837-.289,1.096-.628.398-.527.518-1.016.647-1.534-.279.279-.618.448-1.006.448-.588,0-1.215-.299-1.215-1.186,0-.468.179-1.036.578-2.093.07-.188.169-.448.169-.697,0-.318-.169-.318-.249-.318-.339,0-.737.299-1.006,1.235-.05.159-.06.18-.159.18-.02,0-.12,0-.12-.101,0-.089.369-1.534,1.315-1.534.499,0,.817.369.817.817,0,.199-.04.309-.199.717-.339.877-.508,1.495-.508,1.953,0,.369.109.808.618.808.658,0,1.086-.697,1.126-.847l.448-1.794c.06-.27.13-.538.199-.797.04-.18.12-.488.14-.538.09-.149.249-.21.349-.21.149,0,.289.09.289.27,0,.069,0,.09-.04.229l-.957,3.806Z"/>
  </g>
  <g>
    <g>
      <path d="m293.373,81.61c0,.133,0,.182-.119.182-.027,0-.111,0-.118-.077-.015-.202-.049-.767-.858-.767-.662,0-.851.271-.851.495,0,.369.453.453,1.012.551.244.042.564.098.829.342.182.167.3.376.3.642,0,.495-.334.982-1.241.982-.167,0-.544-.014-.851-.3-.14.153-.271.3-.334.3-.098,0-.098-.062-.098-.181v-.858c0-.139,0-.188.118-.188.098,0,.104.027.126.118.125.475.369.913,1.038.913s.858-.32.858-.592c0-.468-.565-.565-.914-.628-.432-.07-.697-.119-.962-.349-.167-.14-.265-.321-.265-.544,0-.349.236-.872,1.233-.872.259,0,.523.042.732.188.042-.035.111-.098.126-.104.091-.084.104-.084.14-.084.098,0,.098.063.098.182v.648Z"/>
      <path d="m297.195,83.89h-2.873c0-.195,0-.209.07-.271l1.68-1.66c.224-.251.656-.732.656-1.339,0-.564-.363-1.108-1.061-1.108-.327,0-.802.153-1.018.648.362,0,.411.244.411.369,0,.251-.202.37-.369.37-.07,0-.37-.035-.37-.391,0-.642.586-1.248,1.45-1.248.893,0,1.632.516,1.632,1.359,0,.662-.48,1.095-.997,1.506-.418.328-.662.523-1.395,1.172h1.283c.098,0,.635,0,.69-.042.091-.069.16-.48.181-.635h.237l-.209,1.27Z"/>
      <path d="m299.377,81.561c-.118,0-.182,0-.182-.098,0-.076.057-.091.07-.091.035-.007.049-.007.223-.021.349-.021.544-.035.774-.3.182-.217.279-.537.279-.83,0-.606-.439-.76-.754-.76-.258,0-.739.076-.982.383.216.015.355.161.355.363,0,.195-.14.355-.355.355-.21,0-.363-.133-.363-.37,0-.558.593-.934,1.367-.934s1.408.411,1.408.962c0,.426-.265.948-.997,1.213.768.161,1.214.705,1.214,1.249,0,.697-.67,1.346-1.64,1.346-.844,0-1.568-.426-1.568-1.081,0-.286.195-.404.391-.404.216,0,.383.16.383.384,0,.146-.076.376-.404.39.293.412.907.488,1.186.488.404,0,.906-.258.906-1.122,0-.746-.39-1.123-.934-1.123h-.377Z"/>
    </g>
    <path d="m289.732,82.406c-.278,1.126-1.305,2.033-2.331,2.033-.618,0-1.057-.369-1.057-.867,0-.488.329-.647.559-.647.1,0,.368.04.368.349,0,.189-.1.318-.199.408-.14.12-.269.12-.428.12.169.389.617.418.757.418.458,0,.837-.289,1.096-.628.398-.527.519-1.016.647-1.534-.278.279-.617.448-1.006.448-.588,0-1.216-.299-1.216-1.186,0-.468.18-1.036.578-2.093.069-.188.169-.448.169-.697,0-.318-.169-.318-.249-.318-.339,0-.737.299-1.006,1.235-.05.159-.06.18-.159.18-.021,0-.12,0-.12-.101,0-.089.369-1.534,1.315-1.534.498,0,.817.369.817.817,0,.199-.04.309-.199.717-.339.877-.509,1.495-.509,1.953,0,.369.109.808.618.808.657,0,1.086-.697,1.126-.847l.448-1.794c.06-.27.13-.538.199-.797.04-.18.119-.488.14-.538.09-.149.249-.21.349-.21.149,0,.289.09.289.27,0,.069,0,.09-.04.229l-.957,3.806Z"/>
  </g>
  <g>
    <g>
      <path d="m401.172,81.61c0,.133,0,.182-.119.182-.027,0-.111,0-.118-.077-.015-.202-.049-.767-.858-.767-.662,0-.851.271-.851.495,0,.369.453.453,1.012.551.244.042.564.098.829.342.182.167.3.376.3.642,0,.495-.334.982-1.241.982-.167,0-.544-.014-.851-.3-.14.153-.271.3-.334.3-.098,0-.098-.062-.098-.181v-.858c0-.139,0-.188.118-.188.098,0,.104.027.126.118.125.475.369.913,1.038.913s.858-.32.858-.592c0-.468-.565-.565-.914-.628-.432-.07-.697-.119-.962-.349-.167-.14-.265-.321-.265-.544,0-.349.236-.872,1.233-.872.259,0,.523.042.732.188.042-.035.111-.098.126-.104.091-.084.104-.084.14-.084.098,0,.098.063.098.182v.648Z"/>
      <path d="m404.993,83.89h-2.873c0-.195,0-.209.07-.271l1.68-1.66c.224-.251.656-.732.656-1.339,0-.564-.363-1.108-1.061-1.108-.327,0-.802.153-1.018.648.362,0,.411.244.411.369,0,.251-.202.37-.369.37-.07,0-.37-.035-.37-.391,0-.642.586-1.248,1.45-1.248.893,0,1.632.516,1.632,1.359,0,.662-.48,1.095-.997,1.506-.418.328-.662.523-1.395,1.172h1.283c.098,0,.635,0,.69-.042.091-.069.16-.48.181-.635h.237l-.209,1.27Z"/>
      <path d="m407.176,81.561c-.118,0-.182,0-.182-.098,0-.076.057-.091.07-.091.035-.007.049-.007.223-.021.349-.021.544-.035.774-.3.182-.217.279-.537.279-.83,0-.606-.439-.76-.754-.76-.258,0-.739.076-.982.383.216.015.355.161.355.363,0,.195-.14.355-.355.355-.21,0-.363-.133-.363-.37,0-.558.593-.934,1.367-.934s1.408.411,1.408.962c0,.426-.265.948-.997,1.213.768.161,1.214.705,1.214,1.249,0,.697-.67,1.346-1.64,1.346-.844,0-1.568-.426-1.568-1.081,0-.286.195-.404.391-.404.216,0,.383.16.383.384,0,.146-.076.376-.404.39.293.412.907.488,1.186.488.404,0,.906-.258.906-1.122,0-.746-.39-1.123-.934-1.123h-.377Z"/>
    </g>
    <path d="m397.53,82.406c-.278,1.126-1.305,2.033-2.331,2.033-.618,0-1.057-.369-1.057-.867,0-.488.329-.647.559-.647.1,0,.368.04.368.349,0,.189-.1.318-.199.408-.14.12-.269.12-.428.12.169.389.617.418.757.418.458,0,.837-.289,1.096-.628.398-.527.519-1.016.647-1.534-.278.279-.617.448-1.006.448-.588,0-1.216-.299-1.216-1.186,0-.468.18-1.036.578-2.093.069-.188.169-.448.169-.697,0-.318-.169-.318-.249-.318-.339,0-.737.299-1.006,1.235-.05.159-.06.18-.159.18-.021,0-.12,0-.12-.101,0-.089.369-1.534,1.315-1.534.498,0,.817.369.817.817,0,.199-.04.309-.199.717-.339.877-.509,1.495-.509,1.953,0,.369.109.808.618.808.657,0,1.086-.697,1.126-.847l.448-1.794c.06-.27.13-.538.199-.797.04-.18.119-.488.14-.538.09-.149.249-.21.349-.21.149,0,.289.09.289.27,0,.069,0,.09-.04.229l-.957,3.806Z"/>
  </g>
</svg>