<svg xmlns="http://www.w3.org/2000/svg" xmlns:xlink="http://www.w3.org/1999/xlink" viewBox="0 0 178.383 125.277"><defs><style>.cls-1{isolation:isolate;}.cls-2{fill:url(#New_Gradient_Swatch_copy);}.cls-3{fill:url(#linear-gradient);}.cls-4,.cls-5,.cls-7,.cls-9{mix-blend-mode:multiply;}.cls-4{fill:url(#linear-gradient-2);}.cls-5{fill:url(#linear-gradient-3);}.cls-10,.cls-11,.cls-6{opacity:0.7;mix-blend-mode:overlay;}.cls-6{fill:url(#radial-gradient);}.cls-7{fill:url(#linear-gradient-4);}.cls-8{fill:url(#linear-gradient-5);}.cls-9{fill:url(#linear-gradient-6);}.cls-10{fill:url(#radial-gradient-2);}.cls-11{fill:url(#radial-gradient-3);}</style><linearGradient id="New_Gradient_Swatch_copy" x1="89.191" y1="-13.409" x2="89.191" y2="124.024" gradientUnits="userSpaceOnUse"><stop offset="0" stop-color="#4f5668"/><stop offset="1" stop-color="#181d28"/></linearGradient><linearGradient id="linear-gradient" x1="24.353" y1="62.818" x2="153.818" y2="62.367" gradientUnits="userSpaceOnUse"><stop offset="0" stop-color="#9fb1ec"/><stop offset="0.19" stop-color="#4f619c"/><stop offset="1" stop-color="#7b5b89"/></linearGradient><linearGradient id="linear-gradient-2" x1="98.795" y1="85.154" x2="110.597" y2="95.16" gradientUnits="userSpaceOnUse"><stop offset="0" stop-color="#4e5776"/><stop offset="0.996" stop-color="#fff" stop-opacity="0"/></linearGradient><linearGradient id="linear-gradient-3" x1="77.377" y1="49.922" x2="59.905" y2="36.332" gradientUnits="userSpaceOnUse"><stop offset="0" stop-color="#4e5776"/><stop offset="1" stop-color="#fff" stop-opacity="0"/></linearGradient><radialGradient id="radial-gradient" cx="48.819" cy="2.965" r="56.43" gradientUnits="userSpaceOnUse"><stop offset="0" stop-color="#fff"/><stop offset="0.996" stop-color="#fff" stop-opacity="0"/></radialGradient><linearGradient id="linear-gradient-4" x1="87.893" y1="113.795" x2="89.274" y2="53.502" xlink:href="#linear-gradient-2"/><linearGradient id="linear-gradient-5" x1="21.916" y1="61.951" x2="154.535" y2="63.304" gradientUnits="userSpaceOnUse"><stop offset="0" stop-color="#964e49"/><stop offset="0.178" stop-color="#976355"/><stop offset="0.543" stop-color="#999a75"/><stop offset="0.844" stop-color="#9bcc92"/></linearGradient><linearGradient id="linear-gradient-6" x1="89.184" y1="48.391" x2="89.002" y2="108.694" gradientUnits="userSpaceOnUse"><stop offset="0.004" stop-color="#fff" stop-opacity="0"/><stop offset="1" stop-color="#af2941"/></linearGradient><radialGradient id="radial-gradient-2" cx="71.415" cy="9.328" r="80.254" xlink:href="#radial-gradient"/><radialGradient id="radial-gradient-3" cx="98.108" cy="19.937" r="43.106" gradientTransform="translate(0.295 31.735) rotate(-12.135) scale(1 0.453)" xlink:href="#radial-gradient"/></defs><g class="cls-1"><g id="BACKGROUND"><rect class="cls-2" width="178.383" height="125.277" rx="6"/></g><g id="TEXTS"><path class="cls-3" d="M122.815,51.909V69.117h13.3v9.345a7.542,7.542,0,0,1-.6,2.713,8.754,8.754,0,0,1-1.853,2.847,10.8,10.8,0,0,1-3.176,2.249,10.078,10.078,0,0,1-4.435.927H109.91a10.093,10.093,0,0,1-8.471-4.5q-3.31-4.5-3.309-11.78V58.673h-.007V53.832a44.81,44.81,0,0,0-1.655-12.045A30.536,30.536,0,0,0,91.239,31.2,26.772,26.772,0,0,0,69.134,20.74H22.673V37.948H63.765c7.7,0,15.164,2.964,15.164,14.94V64.253h.007v9.841a33.9,33.9,0,0,0,1.721,10.391,32.351,32.351,0,0,0,5.1,9.8,28.669,28.669,0,0,0,8.272,7.346,21.585,21.585,0,0,0,11.252,2.912H128.31a26.5,26.5,0,0,0,13.037-2.912,27.55,27.55,0,0,0,8.406-6.949,26.463,26.463,0,0,0,4.566-8.471,25.838,25.838,0,0,0,1.391-7.479V54.551a2.643,2.643,0,0,0-2.643-2.642Z"/><path class="cls-4" d="M123.637,87.2H109.91a10.093,10.093,0,0,1-8.471-4.5q-3.31-4.5-3.309-11.78V63.526h-19.2v.727h.007v9.841a33.9,33.9,0,0,0,1.721,10.391,32.351,32.351,0,0,0,5.1,9.8,28.669,28.669,0,0,0,8.272,7.346,21.585,21.585,0,0,0,11.252,2.912h18.359Z"/><path class="cls-5" d="M78.929,52.888V62.914h19.2V58.673h-.007V53.832a44.81,44.81,0,0,0-1.655-12.045A30.554,30.554,0,0,0,91.239,31.2,26.772,26.772,0,0,0,69.134,20.74H22.673V37.948H63.765C71.463,37.948,78.929,40.912,78.929,52.888Z"/><path class="cls-6" d="M57.924,23.382c15.778,0,19.748.877,23.011,2.6a25.119,25.119,0,0,1,8.213,6.824A28.084,28.084,0,0,1,93.922,42.5a42.376,42.376,0,0,1,1.559,11.337v7.483h.006v9.6c0,5.409,1.286,9.9,3.824,13.347a12.646,12.646,0,0,0,10.6,5.575h16.149a12.73,12.73,0,0,0,5.584-1.189,13.472,13.472,0,0,0,3.942-2.808,11.451,11.451,0,0,0,2.4-3.708,10.176,10.176,0,0,0,.777-3.673V66.474H122.815v2.643h13.3v9.345a7.542,7.542,0,0,1-.6,2.713,8.764,8.764,0,0,1-1.853,2.847,10.8,10.8,0,0,1-3.176,2.249,10.078,10.078,0,0,1-4.435.927H109.91a10.093,10.093,0,0,1-8.471-4.5q-3.31-4.5-3.309-11.781V58.673h-.007V53.832a44.81,44.81,0,0,0-1.655-12.045A30.554,30.554,0,0,0,91.239,31.2,26.772,26.772,0,0,0,69.134,20.74H22.673v2.642Z"/><path class="cls-7" d="M122.815,51.909v2.642h30.252V78.727a23.462,23.462,0,0,1-1.269,6.689,23.989,23.989,0,0,1-4.121,7.627,25.084,25.084,0,0,1-7.616,6.275A24.053,24.053,0,0,1,128.31,101.9H105.278a19.09,19.09,0,0,1-9.9-2.54,26.192,26.192,0,0,1-7.52-6.675,29.854,29.854,0,0,1-4.682-9,31.414,31.414,0,0,1-1.6-9.585V61.61h-.007V52.888c0-11.338-6.324-17.582-17.807-17.582H22.673v2.642H63.765c7.7,0,15.164,2.964,15.164,14.94V64.253h.007v9.841a33.9,33.9,0,0,0,1.721,10.391,32.351,32.351,0,0,0,5.1,9.8,28.682,28.682,0,0,0,8.272,7.346,21.585,21.585,0,0,0,11.252,2.912H128.31a26.5,26.5,0,0,0,13.037-2.912,27.55,27.55,0,0,0,8.406-6.949,26.463,26.463,0,0,0,4.566-8.471,25.838,25.838,0,0,0,1.391-7.479V54.551a2.643,2.643,0,0,0-2.643-2.642Z"/><path class="cls-8" d="M155.712,20.738V37.95H110.949c-5.963,0-12.819,3.05-12.819,13.315V65.379h0v9.112A35.68,35.68,0,0,1,96.47,85.016a28.5,28.5,0,0,1-5.233,9.726,27.056,27.056,0,0,1-9,7.084,28.763,28.763,0,0,1-12.972,2.711h-46.6V54.449a2.643,2.643,0,0,1,2.643-2.643H41.865V87.331H63.3c12.3,0,15.636-6.063,15.636-14.658v-14h.005V47.613a24.438,24.438,0,0,1,1.919-9.135,29.493,29.493,0,0,1,1.258-2.743,32.372,32.372,0,0,1,3.97-6,28.324,28.324,0,0,1,8.622-7,17.791,17.791,0,0,1,8.294-2Z"/><path class="cls-9" d="M110.948,35.306c-7.474,0-15.461,4.192-15.461,15.957V62.736l-.006,2.642v9.113a33.083,33.083,0,0,1-1.538,9.744,26.023,26.023,0,0,1-4.749,8.835,24.614,24.614,0,0,1-8.137,6.392A26.261,26.261,0,0,1,69.266,101.9H25.316V51h0a2.643,2.643,0,0,0-2.643,2.642v50.892H69.266a28.716,28.716,0,0,0,12.973-2.713,27.083,27.083,0,0,0,9-7.082,28.51,28.51,0,0,0,5.229-9.729,35.569,35.569,0,0,0,1.655-10.523V65.378h.007V51.263c0-10.263,6.858-13.315,12.819-13.315H155.71V35.306Z"/><path class="cls-10" d="M39.224,51.8V89.973H63.3c12.3,0,18.277-5.659,18.277-17.3V61.315l.007-2.642V47.611a21.917,21.917,0,0,1,1.727-8.146,30.006,30.006,0,0,1,4.808-8.032,25.776,25.776,0,0,1,7.821-6.359A15.2,15.2,0,0,1,103,23.382H155.71V20.74H103a17.784,17.784,0,0,0-8.3,2,28.277,28.277,0,0,0-8.619,7,32.54,32.54,0,0,0-5.229,8.736,24.418,24.418,0,0,0-1.919,9.134V58.673h-.007v14c0,8.6-3.332,14.659-15.634,14.659H41.866V51.8Z"/><path class="cls-11" d="M119.5,20.738c-4.345,4.081-11.783,8.283-20.706,11.328a70.816,70.816,0,0,1-16.683,3.669,32.372,32.372,0,0,1,3.97-6,28.324,28.324,0,0,1,8.622-7,17.791,17.791,0,0,1,8.294-2Z"/></g></g></svg>