<svg id="Layer_1" data-name="Layer 1" xmlns="http://www.w3.org/2000/svg" viewBox="0 0 250.148 101.799"><defs><style>.cls-1,.cls-10,.cls-3,.cls-4,.cls-5,.cls-9{fill:none;}.cls-1,.cls-3{stroke:#010101;}.cls-1,.cls-10,.cls-2,.cls-3,.cls-4,.cls-5,.cls-7,.cls-9{stroke-miterlimit:10;}.cls-2{fill:#fff;}.cls-2,.cls-4,.cls-5{stroke:#231f20;}.cls-3{stroke-width:1.9px;}.cls-5{stroke-width:0.7px;}.cls-6{fill:#231f20;}.cls-7,.cls-8{fill:#be1e2d;}.cls-7{stroke:#be1e2d;}.cls-9{stroke:#000;}.cls-10{stroke:#ed1c24;}</style></defs><line class="cls-1" x1="160.849" y1="22.381" x2="164.559" y2="22.381"/><line class="cls-2" x1="134.362" y1="22.381" x2="137.461" y2="22.381"/><line class="cls-2" x1="69.386" y1="22.381" x2="114.139" y2="22.381"/><path class="cls-2" d="M78.785,23.55" transform="translate(-0.657 -1.169)"/><path class="cls-2" d="M67.228,23.55" transform="translate(-0.657 -1.169)"/><line class="cls-2" x1="46.517" y1="22.381" x2="49.163" y2="22.381"/><line class="cls-3" x1="46" y1="14.898" x2="46" y2="44.832"/><line class="cls-4" x1="49.257" y1="37.349" x2="45.863" y2="37.348"/><polyline class="cls-4" points="84.211 44.999 84.211 37.349 69.482 37.349"/><line class="cls-3" x1="76.727" y1="68.115" x2="106.661" y2="68.115"/><line class="cls-3" x1="137.457" y1="14.898" x2="137.457" y2="44.832"/><line class="cls-1" x1="138.365" y1="22.381" x2="140.699" y2="22.381"/><line class="cls-1" x1="213.371" y1="22.381" x2="217.565" y2="22.381"/><path d="M42.557,12.435a1.467,1.467,0,0,1-1.6,1.313H38.146v-.223h.172c.552,0,.566-.078.566-.337V9.407c0-.258-.014-.337-.566-.337h-.172V8.848h2.625a1.44,1.44,0,0,1,1.593,1.212c0,.531-.495.99-1.191,1.127A1.408,1.408,0,0,1,42.557,12.435ZM40.52,11.122a1.082,1.082,0,0,0,1.148-1.062.953.953,0,0,0-.947-.99h-.89c-.337,0-.351.05-.351.287v1.765Zm1.32,1.306a1.075,1.075,0,0,0-1.011-1.148H39.48v1.959c0,.237.014.286.351.286h.9A1.084,1.084,0,0,0,41.84,12.428Z" transform="translate(-0.657 -1.169)"/><path d="M44.845,13.826c-1.09,0-1.09-.652-1.09-1.212V11.538c0-.638,0-.66-.56-.66v-.222l1.055-.079v2.382c0,.372.028.71.631.71.524,0,.868-.488.868-1.112V11.28c0-.352-.057-.4-.559-.4v-.222l1.054-.079v2.547c0,.352.058.4.56.4v.223l-1.033.078v-.645A.978.978,0,0,1,44.845,13.826Z" transform="translate(-0.657 -1.169)"/><path d="M47.492,12.026a.765.765,0,0,1-.309-.61c0-.4.273-.882,1.148-.882a1.106,1.106,0,0,1,.675.2,1.106,1.106,0,0,0,.122-.115c.093-.086.107-.086.143-.086.079,0,.079.05.079.172v.725c0,.136,0,.172-.093.172a.076.076,0,0,1-.086-.065.793.793,0,0,0-.84-.868c-.617,0-.8.294-.8.546,0,.415.48.509.882.588a1.456,1.456,0,0,1,.818.344.925.925,0,0,1,.3.681c0,.517-.33,1-1.155,1a1.073,1.073,0,0,1-.789-.308,1.67,1.67,0,0,0-.143.165c-.137.136-.144.143-.18.143-.079,0-.079-.05-.079-.171v-.947c0-.13,0-.18.094-.18.072,0,.079.029.1.122.136.61.395,1.019,1,1.019.56,0,.811-.287.811-.653,0-.516-.588-.631-.746-.66A1.871,1.871,0,0,1,47.492,12.026Z" transform="translate(-0.657 -1.169)"/><path d="M54.27,13.181c0,.266.022.344.668.344h.229v.223c-.251-.021-.875-.021-1.162-.021s-.911,0-1.162.021v-.223h.23c.645,0,.667-.085.667-.344V9.465a2.156,2.156,0,0,1-.94.186V9.429a1.774,1.774,0,0,0,1.306-.459c.164,0,.164.014.164.186Z" transform="translate(-0.657 -1.169)"/><line class="cls-4" x1="134.362" y1="37.348" x2="137.461" y2="37.348"/><polyline class="cls-4" points="99.113 44.999 99.113 37.349 114.139 37.348"/><line class="cls-4" x1="163.972" y1="36.848" x2="163.972" y2="51.85"/><path class="cls-4" d="M171.987,60.44a7.087,7.087,0,1,0-7.087,7.087A7.088,7.088,0,0,0,171.987,60.44Z" transform="translate(-0.657 -1.169)"/><path class="cls-5" d="M169.86,60.44a4.96,4.96,0,1,0-4.96,4.96A4.959,4.959,0,0,0,169.86,60.44Z" transform="translate(-0.657 -1.169)"/><path class="cls-6" d="M166.438,62.835a3.3,3.3,0,0,1-1.353.243,2.393,2.393,0,0,1-2.529-2.59A2.548,2.548,0,0,1,165.23,57.8a2.742,2.742,0,0,1,1.215.228l-.16.539a2.41,2.41,0,0,0-1.033-.213,1.9,1.9,0,0,0-2,2.112,1.861,1.861,0,0,0,1.967,2.058,2.649,2.649,0,0,0,1.079-.212Z" transform="translate(-0.657 -1.169)"/><path d="M113.725,70.421a1.466,1.466,0,0,1-1.6,1.312h-2.812V71.51h.172c.552,0,.566-.078.566-.336V67.393c0-.258-.014-.338-.566-.338h-.172v-.222h2.625a1.441,1.441,0,0,1,1.593,1.212c0,.531-.495.99-1.191,1.127A1.408,1.408,0,0,1,113.725,70.421Zm-2.037-1.314a1.082,1.082,0,0,0,1.148-1.062.954.954,0,0,0-.947-.99H111c-.337,0-.351.051-.351.287v1.765Zm1.32,1.306A1.075,1.075,0,0,0,112,69.265h-1.349v1.959c0,.237.014.286.351.286h.9A1.083,1.083,0,0,0,113.008,70.413Z" transform="translate(-0.657 -1.169)"/><path d="M116.013,71.812c-1.09,0-1.09-.652-1.09-1.212V69.524c0-.639,0-.66-.56-.66v-.223l1.055-.079v2.382c0,.373.028.711.631.711.524,0,.868-.488.868-1.113V69.265c0-.351-.057-.4-.559-.4v-.223l1.054-.079v2.547c0,.352.058.4.56.4v.223l-1.033.079v-.645A.98.98,0,0,1,116.013,71.812Z" transform="translate(-0.657 -1.169)"/><path d="M118.66,70.011a.762.762,0,0,1-.309-.609c0-.4.273-.883,1.148-.883a1.106,1.106,0,0,1,.675.2.945.945,0,0,0,.122-.115c.093-.086.107-.086.143-.086.079,0,.079.05.079.173v.724c0,.136,0,.172-.093.172-.015,0-.079,0-.086-.064a.792.792,0,0,0-.84-.868c-.617,0-.8.294-.8.545,0,.416.48.509.882.588a1.463,1.463,0,0,1,.818.344.93.93,0,0,1,.3.682c0,.516-.329,1-1.155,1a1.073,1.073,0,0,1-.789-.308,1.521,1.521,0,0,0-.143.165c-.137.136-.144.143-.18.143-.079,0-.079-.05-.079-.172v-.947c0-.129,0-.179.094-.179.072,0,.079.028.1.122.136.609.395,1.019,1,1.019.56,0,.811-.288.811-.654,0-.516-.588-.631-.746-.66A1.871,1.871,0,0,1,118.66,70.011Z" transform="translate(-0.657 -1.169)"/><path d="M125.532,71.181a2.309,2.309,0,0,0,.681-.058,2.357,2.357,0,0,0,.158-.638h.179l-.2,1.248h-2.662c0-.172,0-.187.079-.265l1.378-1.535a2.574,2.574,0,0,0,.753-1.586c0-.588-.309-1.169-.962-1.169a1.034,1.034,0,0,0-.968.731.277.277,0,0,1,.093-.007.363.363,0,0,1,.38.373.377.377,0,1,1-.753-.021,1.326,1.326,0,0,1,1.342-1.3,1.409,1.409,0,0,1,1.52,1.392c0,.717-.43,1.105-1.549,2.095l-.76.739Z" transform="translate(-0.657 -1.169)"/><path d="M133.85,12.356a1.466,1.466,0,0,1-1.6,1.313h-2.812v-.223h.172c.553,0,.567-.079.567-.337V9.328c0-.257-.014-.337-.567-.337h-.172V8.769h2.626a1.44,1.44,0,0,1,1.592,1.212c0,.531-.5.99-1.19,1.126A1.409,1.409,0,0,1,133.85,12.356Zm-2.037-1.313a1.083,1.083,0,0,0,1.148-1.062.954.954,0,0,0-.948-.99h-.889c-.337,0-.352.05-.352.287v1.765Zm1.32,1.305a1.075,1.075,0,0,0-1.012-1.147h-1.349v1.958c0,.237.015.287.352.287h.9A1.084,1.084,0,0,0,133.133,12.348Z" transform="translate(-0.657 -1.169)"/><path d="M136.138,13.748c-1.091,0-1.091-.653-1.091-1.212V11.459c0-.638,0-.66-.559-.66v-.222l1.054-.079v2.381c0,.374.029.711.631.711.524,0,.869-.488.869-1.112V11.2c0-.352-.058-.4-.56-.4v-.222l1.055-.079v2.547c0,.351.057.4.559.4v.223l-1.033.079V13.1A.979.979,0,0,1,136.138,13.748Z" transform="translate(-0.657 -1.169)"/><path d="M138.785,11.946a.762.762,0,0,1-.309-.609c0-.4.273-.883,1.148-.883a1.1,1.1,0,0,1,.674.2.824.824,0,0,0,.122-.114c.094-.087.108-.087.144-.087.079,0,.079.051.079.173v.724c0,.137,0,.173-.094.173a.077.077,0,0,1-.086-.065.791.791,0,0,0-.839-.868c-.617,0-.8.294-.8.545,0,.417.481.509.883.588a1.467,1.467,0,0,1,.818.345.923.923,0,0,1,.3.682c0,.516-.33,1-1.155,1a1.069,1.069,0,0,1-.789-.309,1.9,1.9,0,0,0-.144.165c-.136.137-.143.144-.179.144-.079,0-.079-.051-.079-.173v-.947c0-.129,0-.179.093-.179.072,0,.079.029.1.122.136.61.394,1.019,1,1.019.56,0,.811-.287.811-.653,0-.517-.589-.631-.747-.66A1.866,1.866,0,0,1,138.785,11.946Z" transform="translate(-0.657 -1.169)"/><path d="M146.733,12.442a1.463,1.463,0,0,1-1.529,1.384,1.309,1.309,0,0,1-1.449-1.126.4.4,0,1,1,.8-.014.393.393,0,0,1-.474.394,1.3,1.3,0,0,0,1.1.545c.316,0,.811-.208.811-1.183,0-.7-.266-1.191-.854-1.191h-.316c-.122,0-.172,0-.172-.079s.05-.079.108-.086.222-.014.28-.021a.694.694,0,0,0,.638-.374,1.784,1.784,0,0,0,.2-.818c0-.645-.395-.8-.689-.8a1.16,1.16,0,0,0-.954.444c.107,0,.445,0,.445.358a.366.366,0,1,1-.732-.007c0-.545.545-.975,1.27-.975.689,0,1.32.4,1.32.99a1.382,1.382,0,0,1-1,1.262A1.384,1.384,0,0,1,146.733,12.442Z" transform="translate(-0.657 -1.169)"/><path class="cls-6" d="M51.305,21.8a1.1,1.1,0,0,1-1.085-1.1.3.3,0,1,1,.294.269.271.271,0,0,1-.1-.012.934.934,0,0,0,.881.672.75.75,0,0,0,.642-.39,1.742,1.742,0,0,0,.144-.821,1.846,1.846,0,0,0-.108-.756.587.587,0,0,0-.51-.384.9.9,0,0,0-.773.42c-.025.036-.036.054-.078.054-.084,0-.084-.048-.084-.156V17.819c0-.1,0-.144.06-.144a.179.179,0,0,1,.072.018,1.944,1.944,0,0,0,.8.168,1.985,1.985,0,0,0,.816-.174.088.088,0,0,1,.048-.018.058.058,0,0,1,.06.066,1.308,1.308,0,0,1-1.157.624,1.894,1.894,0,0,1-.51-.078V19.45a1.055,1.055,0,0,1,.761-.306,1.231,1.231,0,0,1,1.14,1.313A1.325,1.325,0,0,1,51.305,21.8Z" transform="translate(-0.657 -1.169)"/><path class="cls-6" d="M53.754,21.663a.318.318,0,1,1,.318-.318A.319.319,0,0,1,53.754,21.663Z" transform="translate(-0.657 -1.169)"/><path class="cls-6" d="M56.034,20.356a1.262,1.262,0,0,1-1.2-1.338,1.286,1.286,0,0,1,.384-.971,1.161,1.161,0,0,1,.882-.378c.533,0,1.223.408,1.223,2.021,0,1.289-.732,2.105-1.505,2.105-.51,0-.834-.246-.834-.648a.276.276,0,1,1,.551-.012c0,.1-.047.276-.311.276a.78.78,0,0,0,.588.216c.348,0,.972-.276.972-1.679v-.192A.821.821,0,0,1,56.034,20.356Zm.737-1.217a2.985,2.985,0,0,0-.1-.846.621.621,0,0,0-1.175-.1,1.687,1.687,0,0,0-.126.827,1.955,1.955,0,0,0,.108.816.576.576,0,0,0,.557.378C56.568,20.218,56.771,19.636,56.771,19.139Z" transform="translate(-0.657 -1.169)"/><path class="cls-6" d="M59.034,20.356a1.262,1.262,0,0,1-1.2-1.338,1.286,1.286,0,0,1,.384-.971,1.161,1.161,0,0,1,.882-.378c.533,0,1.223.408,1.223,2.021,0,1.289-.732,2.105-1.505,2.105-.51,0-.834-.246-.834-.648a.276.276,0,1,1,.551-.012c0,.1-.047.276-.311.276a.78.78,0,0,0,.588.216c.348,0,.972-.276.972-1.679v-.192A.821.821,0,0,1,59.034,20.356Zm.737-1.217a2.985,2.985,0,0,0-.1-.846.621.621,0,0,0-1.175-.1,1.687,1.687,0,0,0-.126.827,1.955,1.955,0,0,0,.108.816.576.576,0,0,0,.557.378C59.568,20.218,59.771,19.636,59.771,19.139Z" transform="translate(-0.657 -1.169)"/><line class="cls-7" x1="49.563" y1="22.382" x2="65.793" y2="22.382"/><polygon class="cls-8" points="64.457 24.292 65.27 22.382 64.457 20.471 68.986 22.381 64.457 24.292"/><line class="cls-7" x1="114.538" y1="22.382" x2="130.768" y2="22.382"/><polygon class="cls-8" points="129.432 24.292 130.245 22.382 129.432 20.471 133.961 22.382 129.432 24.292"/><path class="cls-6" d="M117.39,19.917a1.085,1.085,0,0,1,.294.738,1.2,1.2,0,0,1-1.247,1.139,1.145,1.145,0,0,1-1.242-1.037,1.322,1.322,0,0,1,.864-1.1,3.782,3.782,0,0,1-.438-.324.959.959,0,0,1-.264-.66,1.043,1.043,0,0,1,1.085-1,.991.991,0,0,1,1.08.893,1.113,1.113,0,0,1-.726.93A2.507,2.507,0,0,1,117.39,19.917Zm-1.895.84a.9.9,0,0,0,.947.869.862.862,0,0,0,.942-.755.8.8,0,0,0-.449-.66l-.739-.468A1.176,1.176,0,0,0,115.5,20.757Zm1.169-1.355a1.018,1.018,0,0,0,.594-.84.781.781,0,0,0-.821-.743c-.426,0-.816.252-.816.617a.56.56,0,0,0,.3.486Z" transform="translate(-0.657 -1.169)"/><path class="cls-6" d="M118.777,21.662a.318.318,0,1,1,.318-.317A.32.32,0,0,1,118.777,21.662Z" transform="translate(-0.657 -1.169)"/><path class="cls-6" d="M121.147,19.1a1.257,1.257,0,0,1,1.2,1.337,1.283,1.283,0,0,1-1.236,1.355c-.557,0-1.253-.426-1.253-2.027,0-1.325.81-2.1,1.578-2.1.5,0,.761.287.761.647a.276.276,0,1,1-.551.012c0-.27.239-.27.33-.27a.62.62,0,0,0-.529-.239c-.3,0-1.048.216-1.048,1.733V19.7A.827.827,0,0,1,121.147,19.1Zm.557,2.135a1.983,1.983,0,0,0,.1-.8,1.96,1.96,0,0,0-.109-.821.578.578,0,0,0-.557-.372c-.54,0-.732.6-.732,1.067a2.929,2.929,0,0,0,.108.87.689.689,0,0,0,.593.449A.625.625,0,0,0,121.7,21.237Z" transform="translate(-0.657 -1.169)"/><path class="cls-6" d="M124.057,20.355a1.261,1.261,0,0,1-1.2-1.337,1.286,1.286,0,0,1,.384-.972,1.163,1.163,0,0,1,.882-.377c.533,0,1.223.407,1.223,2.02,0,1.29-.732,2.105-1.505,2.105-.51,0-.834-.245-.834-.647a.276.276,0,1,1,.552-.012c0,.1-.048.275-.312.275a.776.776,0,0,0,.588.216c.348,0,.972-.276.972-1.678v-.192A.821.821,0,0,1,124.057,20.355Zm.737-1.217a2.949,2.949,0,0,0-.1-.846.621.621,0,0,0-1.175-.1,1.7,1.7,0,0,0-.125.828,1.965,1.965,0,0,0,.107.815.577.577,0,0,0,.558.378C124.591,20.217,124.794,19.636,124.794,19.138Z" transform="translate(-0.657 -1.169)"/><path class="cls-6" d="M61.226,36.168a1.955,1.955,0,0,0,.57-.048,1.975,1.975,0,0,0,.132-.534h.149l-.168,1.044H59.685c0-.144,0-.156.066-.222L60.9,35.124a2.147,2.147,0,0,0,.628-1.325c0-.492-.257-.977-.8-.977a.865.865,0,0,0-.81.611A.264.264,0,0,1,60,33.428a.3.3,0,0,1,.319.311.315.315,0,1,1-.63-.017,1.108,1.108,0,0,1,1.121-1.086A1.178,1.178,0,0,1,62.077,33.8c0,.6-.359.924-1.3,1.751l-.635.618Z" transform="translate(-0.657 -1.169)"/><path class="cls-6" d="M63.219,36.63a.318.318,0,1,1,.317-.318A.319.319,0,0,1,63.219,36.63Z" transform="translate(-0.657 -1.169)"/><path class="cls-6" d="M65.588,34.069a1.257,1.257,0,0,1,1.2,1.338,1.283,1.283,0,0,1-1.235,1.355c-.558,0-1.253-.426-1.253-2.027,0-1.325.81-2.1,1.577-2.1.5,0,.762.288.762.648a.276.276,0,1,1-.552.012c0-.27.239-.27.33-.27a.62.62,0,0,0-.528-.24c-.306,0-1.049.216-1.049,1.733v.144A.828.828,0,0,1,65.588,34.069Zm.558,2.135a3.2,3.2,0,0,0-.006-1.625.579.579,0,0,0-.558-.372c-.54,0-.731.6-.731,1.067a2.952,2.952,0,0,0,.107.87.69.69,0,0,0,.594.45A.627.627,0,0,0,66.146,36.2Z" transform="translate(-0.657 -1.169)"/><path class="cls-6" d="M68.888,36.168a1.955,1.955,0,0,0,.57-.048,1.975,1.975,0,0,0,.132-.534h.149l-.168,1.044H67.347c0-.144,0-.156.066-.222l1.152-1.284a2.148,2.148,0,0,0,.629-1.325c0-.492-.258-.977-.8-.977a.865.865,0,0,0-.81.611.268.268,0,0,1,.077-.005.3.3,0,0,1,.319.311.315.315,0,1,1-.63-.017,1.108,1.108,0,0,1,1.121-1.086A1.178,1.178,0,0,1,69.739,33.8c0,.6-.359.924-1.294,1.751l-.636.618Z" transform="translate(-0.657 -1.169)"/><line class="cls-7" x1="69.082" y1="37.349" x2="52.85" y2="37.349"/><polygon class="cls-8" points="54.186 39.258 53.373 37.349 54.186 35.438 49.657 37.349 54.186 39.258"/><line class="cls-7" x1="84.211" y1="45.399" x2="84.21" y2="61.628"/><polygon class="cls-8" points="82.301 60.292 84.21 61.106 86.122 60.292 84.21 64.822 82.301 60.292"/><path class="cls-6" d="M74.417,57.646a1.121,1.121,0,0,1-2.032.09,3.038,3.038,0,0,1-.27-1.445,3.208,3.208,0,0,1,.222-1.362,1.1,1.1,0,0,1,1.043-.713,1.113,1.113,0,0,1,1.02.671,3.214,3.214,0,0,1,.24,1.4A3.179,3.179,0,0,1,74.417,57.646Zm-.342-.186a11.483,11.483,0,0,0,.007-2.411c-.114-.593-.509-.7-.708-.7-.149,0-.6.053-.714.767a12.531,12.531,0,0,0,.019,2.369c.107.576.462.726.695.726C73.644,58.21,73.986,58.03,74.075,57.46Z" transform="translate(-0.657 -1.169)"/><path class="cls-6" d="M75.715,58.21a.318.318,0,1,1,.317-.318A.319.319,0,0,1,75.715,58.21Z" transform="translate(-0.657 -1.169)"/><path class="cls-6" d="M78.306,57.736c0,.222.018.288.558.288h.192v.186c-.21-.018-.732-.018-.972-.018s-.761,0-.971.018v-.186h.192c.54,0,.558-.072.558-.288V54.63a1.807,1.807,0,0,1-.786.155V54.6a1.48,1.48,0,0,0,1.091-.384c.138,0,.138.012.138.156Z" transform="translate(-0.657 -1.169)"/><path class="cls-6" d="M80.994,56.9a1.261,1.261,0,0,1-1.2-1.337,1.286,1.286,0,0,1,.384-.972,1.163,1.163,0,0,1,.882-.377c.533,0,1.222.408,1.222,2.02,0,1.29-.731,2.105-1.5,2.105-.51,0-.834-.245-.834-.647a.276.276,0,1,1,.551-.012c0,.1-.047.276-.311.276a.779.779,0,0,0,.588.215c.347,0,.971-.275.971-1.678V56.3A.818.818,0,0,1,80.994,56.9Zm.738-1.217a2.985,2.985,0,0,0-.1-.846.621.621,0,0,0-1.175-.1,1.689,1.689,0,0,0-.126.828,1.948,1.948,0,0,0,.108.815.576.576,0,0,0,.557.378C81.529,56.764,81.732,56.183,81.732,55.685Z" transform="translate(-0.657 -1.169)"/><line class="cls-7" x1="99.113" y1="64.822" x2="99.112" y2="48.592"/><polygon class="cls-8" points="97.203 49.928 99.112 49.115 101.023 49.928 99.112 45.399 97.203 49.928"/><path class="cls-6" d="M103.9,57.748a1.955,1.955,0,0,0,.57-.048,1.975,1.975,0,0,0,.132-.534h.15l-.168,1.044h-2.225c0-.144,0-.156.067-.222l1.151-1.284a2.148,2.148,0,0,0,.629-1.325c0-.492-.258-.978-.8-.978a.866.866,0,0,0-.81.612.228.228,0,0,1,.078-.006.3.3,0,0,1,.318.312.315.315,0,1,1-.63-.018,1.108,1.108,0,0,1,1.121-1.085,1.178,1.178,0,0,1,1.272,1.163c0,.6-.36.924-1.3,1.751l-.636.618Z" transform="translate(-0.657 -1.169)"/><path class="cls-6" d="M105.888,58.21a.318.318,0,1,1,.318-.318A.319.319,0,0,1,105.888,58.21Z" transform="translate(-0.657 -1.169)"/><path class="cls-6" d="M109.253,57.646a1.122,1.122,0,0,1-2.033.09,3.038,3.038,0,0,1-.27-1.445,3.208,3.208,0,0,1,.222-1.362,1.1,1.1,0,0,1,1.043-.713,1.112,1.112,0,0,1,1.02.671,4.236,4.236,0,0,1,.018,2.759Zm-.342-.186a7.419,7.419,0,0,0,.066-1.241,7.5,7.5,0,0,0-.059-1.17c-.115-.593-.51-.7-.708-.7-.15,0-.6.053-.714.767a8.048,8.048,0,0,0-.048,1.1,8.172,8.172,0,0,0,.066,1.265c.108.576.462.726.7.726C108.479,58.21,108.821,58.03,108.911,57.46Z" transform="translate(-0.657 -1.169)"/><path class="cls-6" d="M112.253,57.646a1.122,1.122,0,0,1-2.033.09,3.038,3.038,0,0,1-.27-1.445,3.208,3.208,0,0,1,.222-1.362,1.1,1.1,0,0,1,1.043-.713,1.112,1.112,0,0,1,1.02.671,4.236,4.236,0,0,1,.018,2.759Zm-.342-.186a7.419,7.419,0,0,0,.066-1.241,7.5,7.5,0,0,0-.059-1.17c-.115-.593-.51-.7-.708-.7-.15,0-.6.053-.714.767a8.048,8.048,0,0,0-.048,1.1,8.172,8.172,0,0,0,.066,1.265c.108.576.462.726.7.726C111.479,58.21,111.821,58.03,111.911,57.46Z" transform="translate(-0.657 -1.169)"/><line class="cls-7" x1="114.538" y1="37.349" x2="130.768" y2="37.349"/><polygon class="cls-8" points="129.432 39.258 130.246 37.349 129.432 35.438 133.961 37.349 129.432 39.258"/><path class="cls-6" d="M116.484,34.069a1.257,1.257,0,0,1,1.2,1.337,1.283,1.283,0,0,1-1.236,1.355c-.557,0-1.253-.426-1.253-2.027,0-1.325.81-2.1,1.578-2.1.5,0,.761.287.761.647a.276.276,0,1,1-.552.012c0-.27.24-.27.331-.27a.621.621,0,0,0-.529-.24c-.305,0-1.049.216-1.049,1.733v.144A.828.828,0,0,1,116.484,34.069Zm.558,2.134a3.168,3.168,0,0,0-.006-1.625.578.578,0,0,0-.557-.372c-.54,0-.732.6-.732,1.068a2.92,2.92,0,0,0,.108.869.688.688,0,0,0,.593.45A.627.627,0,0,0,117.042,36.2Z" transform="translate(-0.657 -1.169)"/><path class="cls-6" d="M118.777,36.629a.318.318,0,1,1,.318-.318A.32.32,0,0,1,118.777,36.629Z" transform="translate(-0.657 -1.169)"/><path class="cls-6" d="M121.368,36.156c0,.221.019.287.558.287h.192v.186c-.21-.018-.731-.018-.971-.018s-.762,0-.972.018v-.186h.192c.54,0,.558-.072.558-.287V33.049a1.8,1.8,0,0,1-.785.156v-.186a1.485,1.485,0,0,0,1.091-.383c.137,0,.137.011.137.155Z" transform="translate(-0.657 -1.169)"/><path class="cls-6" d="M124.368,36.156c0,.221.019.287.558.287h.192v.186c-.21-.018-.731-.018-.971-.018s-.762,0-.972.018v-.186h.192c.54,0,.558-.072.558-.287V33.049a1.8,1.8,0,0,1-.785.156v-.186a1.485,1.485,0,0,0,1.091-.383c.137,0,.137.011.137.155Z" transform="translate(-0.657 -1.169)"/><path class="cls-6" d="M143.306,21.042a1.962,1.962,0,0,0,.571-.048,2,2,0,0,0,.131-.533h.15L143.99,21.5h-2.225c0-.144,0-.156.067-.221L142.983,20a2.151,2.151,0,0,0,.629-1.325c0-.492-.258-.978-.8-.978a.863.863,0,0,0-.809.612.218.218,0,0,1,.077-.006.3.3,0,0,1,.318.312.315.315,0,1,1-.63-.018,1.108,1.108,0,0,1,1.121-1.085,1.178,1.178,0,0,1,1.272,1.163c0,.6-.36.923-1.295,1.751l-.636.617Z" transform="translate(-0.657 -1.169)"/><path class="cls-6" d="M147.206,20.479a1.223,1.223,0,0,1-1.278,1.157,1.093,1.093,0,0,1-1.211-.941.336.336,0,1,1,.672-.013.33.33,0,0,1-.4.331,1.091,1.091,0,0,0,.918.455c.263,0,.678-.174.678-.989,0-.588-.222-1-.714-1h-.264c-.1,0-.145,0-.145-.066s.042-.066.091-.071.186-.013.234-.019a.578.578,0,0,0,.534-.312,1.506,1.506,0,0,0,.168-.683c0-.54-.33-.672-.576-.672a.972.972,0,0,0-.8.372c.09,0,.372,0,.372.3a.306.306,0,1,1-.611-.006c0-.456.455-.815,1.061-.815.575,0,1.1.335,1.1.827a1.154,1.154,0,0,1-.839,1.055A1.157,1.157,0,0,1,147.206,20.479Z" transform="translate(-0.657 -1.169)"/><path class="cls-6" d="M148.3,21.5a.318.318,0,1,1,.318-.318A.32.32,0,0,1,148.3,21.5Z" transform="translate(-0.657 -1.169)"/><path class="cls-6" d="M149.3,20.515v-.186l1.84-2.813c.048-.071.067-.071.12-.071.1,0,.1.035.1.155v2.729h.6v.186h-.6v.521c0,.216.012.282.456.282h.126V21.5c-.246-.018-.563-.018-.815-.018s-.565,0-.81.018v-.186h.126c.444,0,.455-.066.455-.282v-.521Zm1.63-2.423-1.462,2.237h1.462Z" transform="translate(-0.657 -1.169)"/><path class="cls-6" d="M153.512,21.636a1.1,1.1,0,0,1-1.085-1.1.3.3,0,1,1,.294.269.27.27,0,0,1-.1-.011.933.933,0,0,0,.881.671.748.748,0,0,0,.641-.39,1.73,1.73,0,0,0,.145-.821,1.845,1.845,0,0,0-.109-.756.586.586,0,0,0-.509-.383.9.9,0,0,0-.774.419c-.024.036-.036.054-.078.054-.084,0-.084-.048-.084-.156V17.66c0-.1,0-.144.061-.144a.172.172,0,0,1,.071.019,1.959,1.959,0,0,0,.8.167,2,2,0,0,0,.815-.173.088.088,0,0,1,.048-.018.058.058,0,0,1,.061.065,1.308,1.308,0,0,1-1.158.624,1.886,1.886,0,0,1-.509-.078v1.169a1.05,1.05,0,0,1,.76-.3,1.23,1.23,0,0,1,1.14,1.313A1.325,1.325,0,0,1,153.512,21.636Z" transform="translate(-0.657 -1.169)"/><line class="cls-7" x1="141.108" y1="22.382" x2="157.255" y2="22.382"/><polygon class="cls-8" points="155.919 24.292 156.732 22.382 155.919 20.471 160.448 22.381 155.919 24.292"/><path class="cls-6" d="M195.49,21.031c0,.221.019.287.558.287h.192V21.5c-.209-.018-.731-.018-.971-.018s-.762,0-.972.018v-.186h.193c.54,0,.557-.072.557-.287V17.924a1.793,1.793,0,0,1-.785.156v-.186a1.484,1.484,0,0,0,1.091-.383c.137,0,.137.011.137.155Z" transform="translate(-0.657 -1.169)"/><path class="cls-6" d="M199.174,19.759a1.08,1.08,0,0,1,.294.738,1.2,1.2,0,0,1-1.247,1.139A1.144,1.144,0,0,1,196.98,20.6a1.324,1.324,0,0,1,.863-1.1,3.887,3.887,0,0,1-.437-.323.96.96,0,0,1-.264-.66,1.042,1.042,0,0,1,1.085-1,.99.99,0,0,1,1.079.893,1.11,1.11,0,0,1-.726.929A2.506,2.506,0,0,1,199.174,19.759Zm-1.894.84a.9.9,0,0,0,.947.869.862.862,0,0,0,.941-.755.8.8,0,0,0-.449-.66l-.738-.468A1.175,1.175,0,0,0,197.28,20.6Zm1.169-1.356a1.014,1.014,0,0,0,.593-.839.782.782,0,0,0-.821-.744c-.426,0-.815.252-.815.618a.558.558,0,0,0,.3.486Z" transform="translate(-0.657 -1.169)"/><path class="cls-6" d="M200.562,21.5a.318.318,0,1,1,.317-.318A.32.32,0,0,1,200.562,21.5Z" transform="translate(-0.657 -1.169)"/><path class="cls-6" d="M202.931,18.944a1.257,1.257,0,0,1,1.2,1.337,1.282,1.282,0,0,1-1.235,1.355c-.558,0-1.253-.426-1.253-2.027,0-1.325.809-2.1,1.577-2.1.5,0,.762.287.762.647a.276.276,0,1,1-.552.012c0-.27.239-.27.33-.27a.62.62,0,0,0-.528-.24c-.306,0-1.049.216-1.049,1.733v.144A.827.827,0,0,1,202.931,18.944Zm.558,2.134a1.993,1.993,0,0,0,.1-.8,1.984,1.984,0,0,0-.108-.822.579.579,0,0,0-.558-.372c-.54,0-.731.6-.731,1.068a2.946,2.946,0,0,0,.107.869.69.69,0,0,0,.594.45A.627.627,0,0,0,203.489,21.078Z" transform="translate(-0.657 -1.169)"/><path class="cls-6" d="M206.926,20.941a1.121,1.121,0,0,1-2.032.09,3.041,3.041,0,0,1-.271-1.446,3.207,3.207,0,0,1,.223-1.361,1.1,1.1,0,0,1,1.043-.713,1.109,1.109,0,0,1,1.019.671,3.213,3.213,0,0,1,.241,1.4A3.2,3.2,0,0,1,206.926,20.941Zm-.342-.186a7.316,7.316,0,0,0,.067-1.241,7.378,7.378,0,0,0-.06-1.17c-.114-.594-.51-.7-.708-.7-.149,0-.6.054-.714.768a8.048,8.048,0,0,0-.048,1.1,8.051,8.051,0,0,0,.067,1.265c.107.575.462.725.7.725C206.153,21.5,206.494,21.325,206.584,20.755Z" transform="translate(-0.657 -1.169)"/><line class="cls-7" x1="193.605" y1="22.382" x2="209.776" y2="22.382"/><polygon class="cls-8" points="208.44 24.292 209.254 22.382 208.44 20.471 212.97 22.381 208.44 24.292"/><line class="cls-1" x1="189.693" y1="22.381" x2="193.205" y2="22.381"/><circle class="cls-2" cx="10.681" cy="31.033" r="9.524" transform="translate(-5.504 0.951) rotate(-9.245)"/><path class="cls-9" d="M15.49,29.982s-1.5,1.987-2.266,2.1c-.931.142-2.546-1.058-2.546-1.058s-2.346-1.184-2.837-1.045c-.713.2-2.085,2.1-2.085,2.1" transform="translate(-0.657 -1.169)"/><line class="cls-2" x1="42.653" y1="30.023" x2="45.146" y2="30.023"/><line class="cls-2" x1="19.784" y1="30.023" x2="22.43" y2="30.023"/><path class="cls-6" d="M25.975,28.279A1.223,1.223,0,0,1,24.7,29.436a1.093,1.093,0,0,1-1.211-.941.336.336,0,1,1,.672-.012.329.329,0,0,1-.4.33,1.091,1.091,0,0,0,.918.455c.264,0,.678-.173.678-.989,0-.588-.222-1-.714-1H24.38c-.1,0-.144,0-.144-.066s.042-.066.091-.072.185-.012.233-.018a.58.58,0,0,0,.534-.312,1.5,1.5,0,0,0,.168-.684c0-.539-.33-.671-.576-.671a.972.972,0,0,0-.8.371c.09,0,.372,0,.372.3a.306.306,0,1,1-.611-.006c0-.455.455-.815,1.062-.815.575,0,1.1.335,1.1.828a1.155,1.155,0,0,1-.839,1.055A1.156,1.156,0,0,1,25.975,28.279Z" transform="translate(-0.657 -1.169)"/><path class="cls-6" d="M27.069,29.305a.318.318,0,1,1,.317-.318A.32.32,0,0,1,27.069,29.305Z" transform="translate(-0.657 -1.169)"/><path class="cls-6" d="M30.637,28.279a1.223,1.223,0,0,1-1.277,1.157,1.093,1.093,0,0,1-1.211-.941.336.336,0,1,1,.672-.012.329.329,0,0,1-.4.33,1.092,1.092,0,0,0,.918.455c.264,0,.678-.173.678-.989,0-.588-.222-1-.714-1h-.263c-.1,0-.145,0-.145-.066s.042-.066.091-.072.185-.012.233-.018a.58.58,0,0,0,.534-.312,1.5,1.5,0,0,0,.168-.684c0-.539-.33-.671-.576-.671a.972.972,0,0,0-.8.371c.09,0,.372,0,.372.3a.306.306,0,1,1-.611-.006c0-.455.455-.815,1.062-.815.575,0,1.1.335,1.1.828a1.154,1.154,0,0,1-.839,1.055A1.156,1.156,0,0,1,30.637,28.279Z" transform="translate(-0.657 -1.169)"/><path class="cls-6" d="M32.942,26.792a2.637,2.637,0,0,0-.372,1.025,6.722,6.722,0,0,0-.066.984v.306c0,.06,0,.329-.276.329s-.275-.269-.275-.329a4.184,4.184,0,0,1,.737-2.255c.132-.2.606-.852.672-.947H32.121a3.121,3.121,0,0,0-.588.035,1.71,1.71,0,0,0-.151.546h-.149l.2-1.235h.15c.024.114.036.192.767.192h1.457c0,.126,0,.137-.053.21Z" transform="translate(-0.657 -1.169)"/><line class="cls-7" x1="22.83" y1="30.024" x2="39.06" y2="30.024"/><polygon class="cls-8" points="37.724 31.933 38.537 30.024 37.724 28.113 42.253 30.023 37.724 31.933"/><circle class="cls-2" cx="48.944" cy="83.515" r="9.524" transform="translate(-40.593 120.695) rotate(-82.966)"/><path class="cls-9" d="M53.869,82.463s-1.5,1.987-2.266,2.1c-.93.143-2.546-1.057-2.546-1.057s-2.345-1.185-2.837-1.046c-.712.2-2.084,2.1-2.084,2.1" transform="translate(-0.657 -1.169)"/><polyline class="cls-4" points="81.03 82.528 84.211 82.528 84.211 67.561 84.211 65.222"/><line class="cls-2" x1="58.162" y1="82.528" x2="60.807" y2="82.528"/><path class="cls-6" d="M63.573,79.3a2.666,2.666,0,0,0-.372,1.025,6.859,6.859,0,0,0-.065.983v.307c0,.06,0,.329-.276.329s-.276-.269-.276-.329a4.184,4.184,0,0,1,.737-2.255c.132-.2.606-.852.672-.947H62.752a3.121,3.121,0,0,0-.588.035,1.676,1.676,0,0,0-.15.546h-.15l.2-1.235h.149c.025.113.036.192.768.192h1.457c0,.126,0,.137-.054.21Z" transform="translate(-0.657 -1.169)"/><path class="cls-6" d="M65.363,81.809a.318.318,0,1,1,.317-.317A.32.32,0,0,1,65.363,81.809Z" transform="translate(-0.657 -1.169)"/><path class="cls-6" d="M67.732,79.249a1.257,1.257,0,0,1,1.2,1.337A1.282,1.282,0,0,1,67.7,81.941c-.558,0-1.253-.426-1.253-2.027,0-1.325.809-2.1,1.577-2.1.5,0,.761.287.761.647a.276.276,0,1,1-.551.012c0-.27.239-.27.33-.27a.62.62,0,0,0-.529-.239c-.305,0-1.048.215-1.048,1.733v.144A.827.827,0,0,1,67.732,79.249Zm.557,2.135a1.983,1.983,0,0,0,.1-.8,1.96,1.96,0,0,0-.109-.821.578.578,0,0,0-.557-.372c-.54,0-.732.6-.732,1.067a2.929,2.929,0,0,0,.108.87.691.691,0,0,0,.594.449A.626.626,0,0,0,68.289,81.384Z" transform="translate(-0.657 -1.169)"/><path class="cls-6" d="M70.732,79.249a1.257,1.257,0,0,1,1.2,1.337A1.282,1.282,0,0,1,70.7,81.941c-.558,0-1.253-.426-1.253-2.027,0-1.325.809-2.1,1.577-2.1.5,0,.761.287.761.647a.276.276,0,1,1-.551.012c0-.27.239-.27.33-.27a.62.62,0,0,0-.529-.239c-.305,0-1.048.215-1.048,1.733v.144A.827.827,0,0,1,70.732,79.249Zm.557,2.135a1.983,1.983,0,0,0,.1-.8,1.96,1.96,0,0,0-.109-.821.578.578,0,0,0-.557-.372c-.54,0-.732.6-.732,1.067a2.929,2.929,0,0,0,.108.87.691.691,0,0,0,.594.449A.626.626,0,0,0,71.289,81.384Z" transform="translate(-0.657 -1.169)"/><line class="cls-7" x1="61.207" y1="82.529" x2="77.437" y2="82.529"/><polygon class="cls-8" points="76.101 84.438 76.915 82.529 76.101 80.618 80.63 82.528 76.101 84.438"/><path class="cls-6" d="M114.417,79.3a2.631,2.631,0,0,0-.372,1.025,6.718,6.718,0,0,0-.066.983v.307c0,.06,0,.329-.276.329s-.276-.269-.276-.329a4.187,4.187,0,0,1,.738-2.255c.132-.2.6-.852.672-.947H113.6a3.121,3.121,0,0,0-.588.035,1.7,1.7,0,0,0-.15.546h-.149l.2-1.235h.149c.025.113.036.192.768.192h1.457c0,.126,0,.137-.054.21Z" transform="translate(-0.657 -1.169)"/><path class="cls-6" d="M116.206,81.809a.318.318,0,1,1,.317-.317A.32.32,0,0,1,116.206,81.809Z" transform="translate(-0.657 -1.169)"/><path class="cls-6" d="M118.575,79.249a1.257,1.257,0,0,1,1.2,1.337,1.282,1.282,0,0,1-1.235,1.355c-.558,0-1.253-.426-1.253-2.027,0-1.325.809-2.1,1.577-2.1.5,0,.762.287.762.647a.276.276,0,1,1-.552.012c0-.27.239-.27.33-.27a.619.619,0,0,0-.528-.239c-.306,0-1.049.215-1.049,1.733v.144A.828.828,0,0,1,118.575,79.249Zm.557,2.135a3.182,3.182,0,0,0-.005-1.625.579.579,0,0,0-.558-.372c-.54,0-.731.6-.731,1.067a2.955,2.955,0,0,0,.107.87.691.691,0,0,0,.594.449A.626.626,0,0,0,119.132,81.384Z" transform="translate(-0.657 -1.169)"/><path class="cls-6" d="M121.575,79.249a1.257,1.257,0,0,1,1.2,1.337,1.282,1.282,0,0,1-1.235,1.355c-.558,0-1.253-.426-1.253-2.027,0-1.325.809-2.1,1.577-2.1.5,0,.762.287.762.647a.276.276,0,1,1-.552.012c0-.27.239-.27.33-.27a.619.619,0,0,0-.528-.239c-.306,0-1.049.215-1.049,1.733v.144A.828.828,0,0,1,121.575,79.249Zm.557,2.135a3.182,3.182,0,0,0-.005-1.625.579.579,0,0,0-.558-.372c-.54,0-.731.6-.731,1.067a2.955,2.955,0,0,0,.107.87.691.691,0,0,0,.594.449A.626.626,0,0,0,122.132,81.384Z" transform="translate(-0.657 -1.169)"/><line class="cls-2" x1="217.367" y1="22.381" x2="219.66" y2="22.381"/><path class="cls-6" d="M221.945,21.188c0,.222.018.288.557.288h.193v.186c-.21-.018-.732-.018-.972-.018s-.762,0-.971.018v-.186h.192c.54,0,.558-.072.558-.288V18.082a1.8,1.8,0,0,1-.786.156v-.186a1.48,1.48,0,0,0,1.091-.384c.138,0,.138.012.138.156Z" transform="translate(-0.657 -1.169)"/><path class="cls-6" d="M225.628,19.917a1.08,1.08,0,0,1,.294.738,1.2,1.2,0,0,1-1.247,1.139,1.144,1.144,0,0,1-1.241-1.037,1.326,1.326,0,0,1,.863-1.1,3.757,3.757,0,0,1-.437-.324.957.957,0,0,1-.264-.659,1.043,1.043,0,0,1,1.085-1,.99.99,0,0,1,1.079.894,1.113,1.113,0,0,1-.725.929A2.492,2.492,0,0,1,225.628,19.917Zm-1.894.84a.9.9,0,0,0,.947.869.864.864,0,0,0,.942-.756.8.8,0,0,0-.45-.659l-.738-.468A1.175,1.175,0,0,0,223.734,20.757ZM224.9,19.4a1.017,1.017,0,0,0,.594-.839.782.782,0,0,0-.822-.744c-.425,0-.815.252-.815.618a.556.556,0,0,0,.3.485Z" transform="translate(-0.657 -1.169)"/><path class="cls-6" d="M227.016,21.662a.318.318,0,1,1,.318-.318A.319.319,0,0,1,227.016,21.662Z" transform="translate(-0.657 -1.169)"/><path class="cls-6" d="M229.385,19.1a1.258,1.258,0,0,1,1.2,1.338,1.284,1.284,0,0,1-1.236,1.355c-.557,0-1.253-.426-1.253-2.027,0-1.325.81-2.1,1.577-2.1.5,0,.762.288.762.648a.276.276,0,1,1-.552.012c0-.27.24-.27.33-.27a.618.618,0,0,0-.528-.24c-.306,0-1.049.216-1.049,1.733V19.7A.828.828,0,0,1,229.385,19.1Zm.558,2.135a2,2,0,0,0,.1-.8,1.982,1.982,0,0,0-.108-.821.578.578,0,0,0-.558-.372c-.54,0-.731.6-.731,1.067a2.952,2.952,0,0,0,.107.87.692.692,0,0,0,.594.45A.627.627,0,0,0,229.943,21.236Z" transform="translate(-0.657 -1.169)"/><path class="cls-6" d="M233.38,21.1a1.12,1.12,0,0,1-2.032.09,3.036,3.036,0,0,1-.27-1.445,3.206,3.206,0,0,1,.222-1.361,1.1,1.1,0,0,1,1.043-.714,1.113,1.113,0,0,1,1.02.672,3.212,3.212,0,0,1,.24,1.4A3.177,3.177,0,0,1,233.38,21.1Zm-.341-.186a7.413,7.413,0,0,0,.066-1.241,7.365,7.365,0,0,0-.06-1.169c-.114-.594-.509-.7-.708-.7-.149,0-.6.054-.713.768a8.025,8.025,0,0,0-.048,1.1,8.166,8.166,0,0,0,.066,1.265c.108.576.462.726.695.726C232.607,21.662,232.949,21.482,233.039,20.912Z" transform="translate(-0.657 -1.169)"/><line class="cls-7" x1="220.059" y1="22.382" x2="236.289" y2="22.382"/><polygon class="cls-8" points="234.953 24.291 235.766 22.382 234.953 20.471 239.482 22.381 234.953 24.291"/><line class="cls-2" x1="138.365" y1="37.349" x2="140.698" y2="37.349"/><path class="cls-6" d="M153.232,34.886a1.08,1.08,0,0,1,.294.737,1.2,1.2,0,0,1-1.247,1.14,1.145,1.145,0,0,1-1.241-1.038,1.324,1.324,0,0,1,.863-1.1,3.757,3.757,0,0,1-.437-.324.959.959,0,0,1-.264-.659,1.042,1.042,0,0,1,1.085-1,.99.99,0,0,1,1.079.894,1.113,1.113,0,0,1-.726.929A2.506,2.506,0,0,1,153.232,34.886Zm-1.894.839a.9.9,0,0,0,.947.87.863.863,0,0,0,.941-.756.8.8,0,0,0-.449-.659l-.738-.468A1.172,1.172,0,0,0,151.338,35.725Zm1.169-1.355a1.017,1.017,0,0,0,.593-.839.78.78,0,0,0-.821-.744c-.426,0-.815.252-.815.618a.558.558,0,0,0,.3.485Z" transform="translate(-0.657 -1.169)"/><path class="cls-6" d="M154.62,36.631a.318.318,0,1,1,.317-.318A.319.319,0,0,1,154.62,36.631Z" transform="translate(-0.657 -1.169)"/><path class="cls-6" d="M156.989,34.07a1.257,1.257,0,0,1,1.2,1.338,1.283,1.283,0,0,1-1.235,1.355c-.558,0-1.253-.426-1.253-2.027,0-1.326.81-2.1,1.577-2.1.5,0,.762.288.762.648a.276.276,0,1,1-.552.012c0-.27.239-.27.33-.27a.62.62,0,0,0-.528-.24c-.306,0-1.049.216-1.049,1.733v.144A.828.828,0,0,1,156.989,34.07Zm.558,2.135a3.2,3.2,0,0,0-.006-1.625.579.579,0,0,0-.558-.372c-.54,0-.731.6-.731,1.067a2.952,2.952,0,0,0,.107.87.69.69,0,0,0,.594.45A.627.627,0,0,0,157.547,36.205Z" transform="translate(-0.657 -1.169)"/><path class="cls-6" d="M159.989,34.07a1.257,1.257,0,0,1,1.2,1.338,1.283,1.283,0,0,1-1.235,1.355c-.558,0-1.253-.426-1.253-2.027,0-1.326.81-2.1,1.577-2.1.5,0,.762.288.762.648a.276.276,0,1,1-.552.012c0-.27.239-.27.33-.27a.62.62,0,0,0-.528-.24c-.306,0-1.049.216-1.049,1.733v.144A.828.828,0,0,1,159.989,34.07Zm.558,2.135a3.2,3.2,0,0,0-.006-1.625.579.579,0,0,0-.558-.372c-.54,0-.731.6-.731,1.067a2.952,2.952,0,0,0,.107.87.69.69,0,0,0,.594.45A.627.627,0,0,0,160.547,36.205Z" transform="translate(-0.657 -1.169)"/><line class="cls-7" x1="160.531" y1="37.35" x2="144.302" y2="37.35"/><polygon class="cls-8" points="145.638 39.259 144.824 37.35 145.638 35.439 141.108 37.349 145.638 39.259"/><line class="cls-1" x1="160.85" y1="37.349" x2="163.548" y2="37.348"/><line class="cls-4" x1="245.67" y1="22.381" x2="239.88" y2="22.381"/><polygon class="cls-6" points="243.564 19.604 244.744 22.381 243.564 25.158 250.148 22.381 243.564 19.604"/><line class="cls-3" x1="216.55" y1="7.414" x2="216.55" y2="37.348"/><circle class="cls-10" cx="173.244" cy="22.381" r="8.504"/><circle class="cls-1" cx="180.821" cy="22.381" r="8.504"/><path d="M212.921,4.756a1.467,1.467,0,0,1-1.6,1.313h-2.813V5.846h.173c.552,0,.566-.079.566-.337V1.728c0-.258-.014-.337-.566-.337h-.173V1.169h2.626a1.439,1.439,0,0,1,1.592,1.212c0,.531-.5.99-1.19,1.126A1.41,1.41,0,0,1,212.921,4.756Zm-2.037-1.314a1.082,1.082,0,0,0,1.148-1.061.953.953,0,0,0-.947-.99h-.89c-.337,0-.351.05-.351.287V3.442Zm1.32,1.306A1.074,1.074,0,0,0,211.193,3.6h-1.349V5.559c0,.237.014.287.351.287h.9A1.084,1.084,0,0,0,212.2,4.748Z" transform="translate(-0.657 -1.169)"/><path d="M215.209,6.147c-1.09,0-1.09-.652-1.09-1.212V3.859c0-.639,0-.66-.56-.66V2.976l1.055-.078V5.279c0,.373.028.711.631.711.523,0,.868-.488.868-1.112V3.6c0-.352-.058-.4-.56-.4V2.976l1.055-.078V5.444c0,.352.058.4.56.4v.223l-1.033.078V5.5A.98.98,0,0,1,215.209,6.147Z" transform="translate(-0.657 -1.169)"/><path d="M217.856,4.347a.765.765,0,0,1-.309-.61c0-.4.273-.882,1.148-.882a1.112,1.112,0,0,1,.675.2.877.877,0,0,0,.121-.115c.094-.085.108-.085.144-.085.079,0,.079.05.079.172v.724c0,.137,0,.172-.093.172-.015,0-.08,0-.087-.064a.791.791,0,0,0-.839-.868c-.617,0-.8.294-.8.545,0,.416.48.509.882.589a1.458,1.458,0,0,1,.818.343.93.93,0,0,1,.3.682c0,.516-.33,1-1.155,1a1.072,1.072,0,0,1-.789-.308,1.9,1.9,0,0,0-.144.165c-.136.136-.143.143-.179.143-.079,0-.079-.05-.079-.172V5.028c0-.129,0-.179.094-.179.072,0,.079.029.1.122.136.61.395,1.019,1,1.019.56,0,.811-.288.811-.653,0-.517-.588-.632-.747-.661A1.868,1.868,0,0,1,217.856,4.347Z" transform="translate(-0.657 -1.169)"/><path d="M222.726,4.885V4.662l2.2-3.364c.057-.087.079-.087.143-.087.115,0,.115.043.115.188V4.662h.717v.223h-.717v.624c0,.258.015.337.545.337h.151v.223c-.3-.022-.674-.022-.976-.022s-.674,0-.968.022V5.846h.15c.531,0,.545-.079.545-.337V4.885Zm1.952-2.9-1.751,2.676h1.751Z" transform="translate(-0.657 -1.169)"/><line class="cls-2" x1="91.694" y1="69.019" x2="91.694" y2="71.312"/><line class="cls-7" x1="91.693" y1="71.711" x2="91.693" y2="87.941"/><polygon class="cls-8" points="89.784 86.605 91.693 87.418 93.604 86.605 91.694 91.134 89.784 86.605"/><line class="cls-4" x1="91.694" y1="97.322" x2="91.694" y2="91.531"/><polygon class="cls-6" points="94.471 95.216 91.694 96.395 88.916 95.216 91.694 101.799 94.471 95.216"/><circle class="cls-2" cx="135.694" cy="83.515" r="9.524" transform="translate(-9.863 16.078) rotate(-7.034)"/><path class="cls-9" d="M140.5,82.463s-1.5,1.987-2.267,2.1c-.93.143-2.546-1.057-2.546-1.057s-2.345-1.185-2.836-1.046c-.713.2-2.085,2.1-2.085,2.1" transform="translate(-0.657 -1.169)"/><polyline class="cls-4" points="102.294 82.528 99.114 82.528 99.114 67.561 99.113 65.222"/><line class="cls-2" x1="125.163" y1="82.528" x2="122.517" y2="82.528"/><line class="cls-7" x1="122.117" y1="82.529" x2="105.887" y2="82.529"/><polygon class="cls-8" points="107.223 84.438 106.41 82.529 107.223 80.618 102.694 82.528 107.223 84.438"/><path class="cls-6" d="M77.325,91.829c0,.222.018.288.558.288h.192V92.3c-.21-.018-.732-.018-.972-.018s-.761,0-.971.018v-.186h.192c.54,0,.558-.072.558-.288V88.722a1.8,1.8,0,0,1-.786.156v-.185a1.48,1.48,0,0,0,1.091-.384c.138,0,.138.012.138.156Z" transform="translate(-0.657 -1.169)"/><path class="cls-6" d="M81.3,91.277a1.222,1.222,0,0,1-1.277,1.157,1.093,1.093,0,0,1-1.211-.941.336.336,0,1,1,.672-.012.329.329,0,0,1-.4.33,1.091,1.091,0,0,0,.918.455c.263,0,.677-.173.677-.989,0-.588-.221-1-.714-1h-.263c-.1,0-.145,0-.145-.066s.042-.066.091-.072.186-.012.233-.018a.583.583,0,0,0,.535-.312,1.512,1.512,0,0,0,.168-.684c0-.539-.331-.671-.577-.671a.971.971,0,0,0-.8.371c.089,0,.372,0,.372.3a.306.306,0,1,1-.612-.006c0-.455.455-.815,1.062-.815.575,0,1.1.335,1.1.828a1.154,1.154,0,0,1-.839,1.055A1.155,1.155,0,0,1,81.3,91.277Z" transform="translate(-0.657 -1.169)"/><path class="cls-6" d="M82.4,92.3a.318.318,0,1,1,.318-.318A.319.319,0,0,1,82.4,92.3Z" transform="translate(-0.657 -1.169)"/><path class="cls-6" d="M84.609,92.434a1.1,1.1,0,0,1-1.085-1.1.3.3,0,1,1,.294.27.26.26,0,0,1-.1-.012.931.931,0,0,0,.88.671.749.749,0,0,0,.642-.389,1.733,1.733,0,0,0,.145-.822,1.837,1.837,0,0,0-.109-.755.587.587,0,0,0-.51-.384.9.9,0,0,0-.773.42c-.024.035-.036.053-.078.053-.084,0-.084-.047-.084-.155V88.459c0-.1,0-.144.06-.144a.179.179,0,0,1,.072.018,1.944,1.944,0,0,0,.8.168,1.985,1.985,0,0,0,.816-.174.088.088,0,0,1,.048-.018.058.058,0,0,1,.06.066A1.31,1.31,0,0,1,84.526,89a1.894,1.894,0,0,1-.51-.078v1.17a1.055,1.055,0,0,1,.761-.306,1.23,1.23,0,0,1,1.14,1.313A1.325,1.325,0,0,1,84.609,92.434Z" transform="translate(-0.657 -1.169)"/><path class="cls-6" d="M88.76,91.739a1.121,1.121,0,0,1-2.032.09,3.038,3.038,0,0,1-.27-1.445,3.208,3.208,0,0,1,.222-1.362,1.1,1.1,0,0,1,1.043-.713,1.112,1.112,0,0,1,1.02.671,3.214,3.214,0,0,1,.24,1.4A3.179,3.179,0,0,1,88.76,91.739Zm-.341-.186a7.419,7.419,0,0,0,.066-1.241,7.5,7.5,0,0,0-.059-1.17c-.115-.593-.51-.7-.708-.7-.15,0-.6.053-.714.767a8.048,8.048,0,0,0-.048,1.1,8.172,8.172,0,0,0,.066,1.265c.108.576.462.726.7.726C87.987,92.3,88.329,92.123,88.419,91.553Z" transform="translate(-0.657 -1.169)"/></svg>