<?xml version="1.0" encoding="UTF-8"?>
<svg id="Layer_1" data-name="Layer 1" xmlns="http://www.w3.org/2000/svg" viewBox="0 0 70.382 53.109">
  <defs>
    <style>
      .cls-1 {
        opacity: .6;
      }

      .cls-2 {
        stroke-dasharray: 0 0 2.905 2.905;
      }

      .cls-2, .cls-3, .cls-4, .cls-5, .cls-6, .cls-7, .cls-8, .cls-9, .cls-10, .cls-11, .cls-12, .cls-13, .cls-14 {
        stroke: #000;
        stroke-miterlimit: 10;
      }

      .cls-2, .cls-4, .cls-5, .cls-6, .cls-7, .cls-8, .cls-9, .cls-10, .cls-11, .cls-12, .cls-13, .cls-14 {
        fill: none;
      }

      .cls-2, .cls-4, .cls-5, .cls-6, .cls-7, .cls-9, .cls-10, .cls-11, .cls-12, .cls-13 {
        stroke-width: .1px;
      }

      .cls-3 {
        stroke-width: .5px;
      }

      .cls-4 {
        stroke-dasharray: 0 0 2.8 2.8;
      }

      .cls-5 {
        stroke-dasharray: 0 0 2.779 2.779;
      }

      .cls-6 {
        stroke-dasharray: 0 0 2.914 2.914;
      }

      .cls-7 {
        stroke-dasharray: 0 0 2.78 2.78;
      }

      .cls-8 {
        stroke-width: .4px;
      }

      .cls-10 {
        stroke-dasharray: 0 0 2.914 2.914;
      }

      .cls-11 {
        stroke-dasharray: 0 0 3.074 3.074;
      }

      .cls-12 {
        stroke-dasharray: 0 0 3.131 3.131;
      }

      .cls-13 {
        stroke-dasharray: 0 0 2.914 2.914;
      }

      .cls-14 {
        stroke-width: .5px;
      }
    </style>
  </defs>
  <g>
    <line class="cls-14" x1="15.982" y1="51.566" x2="15.982" y2="2.653"/>
    <polygon points="17.278 3.636 15.982 3.085 14.686 3.636 15.982 .563 17.278 3.636"/>
  </g>
  <g>
    <line class="cls-14" x1="9.613" y1="45.325" x2="66.44" y2="45.325"/>
    <polygon points="65.457 46.621 66.008 45.325 65.457 44.029 68.53 45.325 65.457 46.621"/>
  </g>
  <g class="cls-1">
    <g>
      <line class="cls-9" x1="14.275" y1="30.382" x2="15.775" y2="30.382"/>
      <line class="cls-6" x1="18.689" y1="30.382" x2="58.025" y2="30.382"/>
      <line class="cls-9" x1="59.482" y1="30.382" x2="60.982" y2="30.382"/>
    </g>
  </g>
  <g class="cls-1">
    <g>
      <line class="cls-9" x1="14.275" y1="15.382" x2="15.775" y2="15.382"/>
      <line class="cls-13" x1="18.689" y1="15.382" x2="58.025" y2="15.382"/>
      <line class="cls-9" x1="59.482" y1="15.382" x2="60.982" y2="15.382"/>
    </g>
  </g>
  <g class="cls-1">
    <g>
      <line class="cls-9" x1="14.409" y1="37.882" x2="15.909" y2="37.882"/>
      <line class="cls-2" x1="18.814" y1="37.882" x2="58.03" y2="37.882"/>
      <line class="cls-9" x1="59.482" y1="37.882" x2="60.982" y2="37.882"/>
    </g>
  </g>
  <g class="cls-1">
    <g>
      <line class="cls-9" x1="14.275" y1="22.882" x2="15.775" y2="22.882"/>
      <line class="cls-10" x1="18.689" y1="22.882" x2="58.025" y2="22.882"/>
      <line class="cls-9" x1="59.482" y1="22.882" x2="60.982" y2="22.882"/>
    </g>
  </g>
  <g class="cls-1">
    <g>
      <line class="cls-9" x1="15.982" y1="7.882" x2="17.482" y2="7.882"/>
      <line class="cls-4" x1="20.282" y1="7.882" x2="58.082" y2="7.882"/>
      <line class="cls-9" x1="59.482" y1="7.882" x2="60.982" y2="7.882"/>
    </g>
  </g>
  <g class="cls-1">
    <g>
      <line class="cls-9" x1="23.482" y1="47.015" x2="23.482" y2="45.515"/>
      <line class="cls-5" x1="23.482" y1="42.735" x2="23.482" y2="10.771"/>
      <line class="cls-9" x1="23.482" y1="9.382" x2="23.482" y2="7.882"/>
    </g>
  </g>
  <g class="cls-1">
    <g>
      <line class="cls-9" x1="30.982" y1="47.018" x2="30.982" y2="45.518"/>
      <line class="cls-7" x1="30.982" y1="42.738" x2="30.982" y2="10.772"/>
      <line class="cls-9" x1="30.982" y1="9.382" x2="30.982" y2="7.882"/>
    </g>
  </g>
  <g class="cls-1">
    <g>
      <line class="cls-9" x1="38.482" y1="45.326" x2="38.482" y2="43.826"/>
      <line class="cls-12" x1="38.482" y1="40.694" x2="38.482" y2="10.947"/>
      <line class="cls-9" x1="38.482" y1="9.382" x2="38.482" y2="7.882"/>
    </g>
  </g>
  <g class="cls-1">
    <g>
      <line class="cls-9" x1="45.982" y1="47.018" x2="45.982" y2="45.518"/>
      <line class="cls-7" x1="45.982" y1="42.738" x2="45.982" y2="10.772"/>
      <line class="cls-9" x1="45.982" y1="9.382" x2="45.982" y2="7.882"/>
    </g>
  </g>
  <g class="cls-1">
    <g>
      <line class="cls-9" x1="53.482" y1="47.018" x2="53.482" y2="45.518"/>
      <line class="cls-7" x1="53.482" y1="42.738" x2="53.482" y2="10.772"/>
      <line class="cls-9" x1="53.482" y1="9.382" x2="53.482" y2="7.882"/>
    </g>
  </g>
  <g class="cls-1">
    <g>
      <line class="cls-9" x1="60.982" y1="44.699" x2="60.982" y2="43.199"/>
      <line class="cls-11" x1="60.982" y1="40.124" x2="60.982" y2="10.919"/>
      <line class="cls-9" x1="60.982" y1="9.382" x2="60.982" y2="7.882"/>
    </g>
  </g>
  <g>
    <path d="m69.823,51.495c.084-.207.104-.257.104-.334,0-.09-.03-.117-.083-.117-.124,0-.271.12-.357.407-.011.037-.014.054-.061.054-.01,0-.057,0-.057-.043,0-.057.153-.511.484-.511.184,0,.317.127.317.284,0,.033-.01.073-.02.107-.014.04-.134.344-.164.424-.037.087-.073.177-.107.267-.029.074-.053.137-.053.214,0,.074.017.117.083.117.131,0,.277-.137.354-.404.014-.037.017-.057.063-.057.01,0,.054,0,.054.043,0,.05-.147.511-.481.511-.184,0-.317-.127-.317-.284,0-.057.017-.097.03-.141l.21-.538Zm.284-.976c-.09,0-.134-.07-.134-.127,0-.097.097-.184.188-.184.094,0,.134.073.134.127,0,.09-.091.184-.188.184Z"/>
    <path d="m67.744,51.967c0,.097.061.197.167.221.027.003.147.003.221.003.324,0,.521,0,.719.104.184.1.224.281.224.381,0,.268-.395.434-.818.434-.451,0-.819-.183-.819-.427,0-.174.174-.284.324-.334-.13-.097-.14-.254-.14-.297,0-.13.073-.241.1-.271-.094-.087-.16-.207-.16-.337,0-.261.251-.491.595-.491.147,0,.287.047.388.12.157-.144.338-.154.388-.154.134,0,.197.094.197.17,0,.077-.061.11-.107.11-.057,0-.106-.04-.106-.107,0-.053.017-.067.03-.08-.057,0-.188.003-.338.11.08.087.141.19.141.321,0,.261-.251.491-.595.491-.194,0-.314-.074-.364-.104-.021.027-.044.053-.044.137Zm.218.448c-.214.003-.321.147-.321.264,0,.174.265.331.615.331s.614-.154.614-.331c0-.264-.417-.264-.715-.264h-.193Zm.451-.698c.066-.087.066-.221.066-.274,0-.07,0-.391-.327-.391-.12,0-.211.06-.258.117-.066.087-.066.22-.066.274,0,.07,0,.391.327.391.12,0,.211-.061.258-.117Z"/>
    <path d="m65.388,51.391c-.005.029-.015.053-.015.082,0,.086.134.086.311.086.091,0,.134,0,.134.052,0,.096-.062.096-.096.096-.101,0-.205-.01-.311-.01-.101,0-.205-.004-.306-.004-.134,0-.473.014-.606.014-.015,0-.071,0-.071-.057,0-.091.052-.091.134-.091.377,0,.387-.038.435-.225l.64-2.564c.015-.058.02-.072.02-.091,0-.053-.029-.067-.105-.077-.058-.005-.144-.009-.205-.009-.096,0-.139,0-.139-.058,0-.091.053-.091.144-.091h1.547c.626,0,.941.354.941.721,0,.535-.664,1.032-1.343,1.032h-.812l-.296,1.194Zm.314-1.318h.674c.21,0,.497-.038.735-.253.187-.172.282-.583.282-.769,0-.33-.253-.458-.649-.458h-.459c-.205,0-.215.014-.258.181l-.325,1.299Z"/>
  </g>
  <line class="cls-8" x1="23.482" y1="37.79" x2="30.982" y2="30.382"/>
  <line class="cls-8" x1="30.982" y1="30.382" x2="45.982" y2="22.882"/>
  <line class="cls-8" x1="45.982" y1="22.882" x2="53.482" y2="15.471"/>
  <path class="cls-3" d="m23.482,37.382c.276,0,.5.224.5.5s-.224.5-.5.5-.5-.224-.5-.5.224-.5.5-.5Z"/>
  <path class="cls-3" d="m30.982,29.882c.276,0,.5.224.5.5s-.224.5-.5.5-.5-.224-.5-.5.224-.5.5-.5Z"/>
  <path class="cls-3" d="m45.982,22.382c.276,0,.5.224.5.5s-.224.5-.5.5-.5-.224-.5-.5.224-.5.5-.5Z"/>
  <path class="cls-3" d="m53.482,14.971c.276,0,.5.224.5.5s-.224.5-.5.5-.5-.224-.5-.5.224-.5.5-.5Z"/>
  <g>
    <path d="m13.426,3.845c-.281.606-.711.932-.759.932-.029,0-.048-.02-.048-.048,0-.015,0-.023.062-.081.593-.602.77-1.442.77-2.259,0-.999-.272-1.758-.74-2.23-.091-.086-.091-.096-.091-.11,0-.028.019-.048.048-.048.048,0,.458.311.745.898.263.539.314,1.117.314,1.49,0,.4-.057.931-.301,1.456Z"/>
    <path d="m11.365,3.37c.084-.207.104-.257.104-.334,0-.09-.03-.116-.083-.116-.124,0-.271.12-.357.407-.011.037-.014.054-.061.054-.01,0-.057,0-.057-.044,0-.057.153-.511.484-.511.184,0,.317.127.317.284,0,.033-.01.073-.02.106-.014.04-.134.345-.164.425-.037.087-.073.177-.107.267-.029.074-.053.138-.053.214,0,.074.017.117.083.117.131,0,.277-.137.354-.404.014-.037.017-.057.063-.057.01,0,.054,0,.054.043,0,.051-.147.512-.481.512-.184,0-.317-.127-.317-.284,0-.057.017-.097.03-.141l.21-.538Zm.284-.976c-.09,0-.134-.07-.134-.127,0-.097.097-.184.188-.184.094,0,.134.073.134.127,0,.09-.091.184-.188.184Z"/>
    <path d="m9.285,3.842c0,.097.061.197.167.221.027.003.147.003.221.003.324,0,.521,0,.719.104.184.101.224.281.224.381,0,.268-.395.435-.818.435-.451,0-.819-.184-.819-.428,0-.174.174-.284.324-.334-.13-.097-.14-.254-.14-.298,0-.13.073-.24.1-.271-.094-.087-.16-.207-.16-.337,0-.261.251-.491.595-.491.147,0,.287.047.388.12.157-.144.338-.154.388-.154.134,0,.197.094.197.171s-.061.11-.107.11c-.057,0-.106-.04-.106-.107,0-.053.017-.066.03-.08-.057,0-.188.004-.338.11.08.087.141.19.141.321,0,.261-.251.491-.595.491-.194,0-.314-.074-.364-.104-.021.026-.044.053-.044.137Zm.218.447c-.214.004-.321.147-.321.265,0,.174.265.331.615.331s.614-.154.614-.331c0-.265-.417-.265-.715-.265h-.193Zm.451-.698c.066-.087.066-.221.066-.273,0-.07,0-.392-.327-.392-.12,0-.211.061-.258.117-.066.087-.066.221-.066.274,0,.07,0,.391.327.391.12,0,.211-.061.258-.117Z"/>
    <path d="m6.93,3.267c-.005.029-.015.053-.015.082,0,.086.134.086.311.086.091,0,.134,0,.134.052,0,.096-.062.096-.096.096-.101,0-.205-.01-.311-.01-.101,0-.205-.004-.306-.004-.134,0-.473.014-.606.014-.015,0-.071,0-.071-.057,0-.091.052-.091.134-.091.377,0,.387-.038.435-.225l.64-2.564c.015-.058.02-.072.02-.091,0-.053-.029-.067-.105-.077-.058-.005-.144-.009-.205-.009-.096,0-.139,0-.139-.058,0-.091.053-.091.144-.091h1.547c.626,0,.941.354.941.721,0,.535-.664,1.032-1.343,1.032h-.812l-.296,1.193Zm.314-1.317h.674c.21,0,.497-.038.735-.254.187-.172.282-.582.282-.769,0-.329-.254-.458-.649-.458h-.459c-.205,0-.215.014-.258.181l-.325,1.3Z"/>
    <path d="m5.451,4.776c-.048,0-.459-.311-.745-.898-.263-.539-.315-1.117-.315-1.489,0-.401.058-.932.301-1.457.282-.606.712-.932.76-.932.028,0,.048.015.048.048,0,.015,0,.024-.062.081-.587.598-.769,1.429-.769,2.26,0,.73.152,1.633.75,2.234.081.082.081.091.081.105,0,.033-.02.048-.048.048Z"/>
    <path d="m2.938,3.37c.084-.207.104-.257.104-.334,0-.09-.03-.116-.083-.116-.124,0-.271.12-.357.407-.011.037-.014.054-.061.054-.01,0-.057,0-.057-.044,0-.057.153-.511.484-.511.184,0,.317.127.317.284,0,.033-.01.073-.02.106-.014.04-.134.345-.164.425-.037.087-.073.177-.107.267-.029.074-.053.138-.053.214,0,.074.017.117.083.117.131,0,.277-.137.354-.404.014-.037.017-.057.063-.057.01,0,.054,0,.054.043,0,.051-.147.512-.481.512-.184,0-.317-.127-.317-.284,0-.057.017-.097.03-.141l.21-.538Zm.284-.976c-.09,0-.134-.07-.134-.127,0-.097.097-.184.188-.184.094,0,.134.073.134.127,0,.09-.091.184-.188.184Z"/>
    <path d="m1.45,3.186c-.004.034-.114.611-.267.912-.086.182-.277.464-.54.464-.196,0-.406-.115-.406-.33,0-.181.139-.286.263-.286.091,0,.177.058.177.167,0,.071-.043.244-.263.258.091.086.21.086.229.086.248,0,.329-.435.415-.897l.358-1.887h-.315c-.091,0-.134,0-.134-.058,0-.091.053-.091.144-.091h.33c.114-.602.129-.649.157-.749.144-.474.444-.56.606-.56.196,0,.416.11.416.33,0,.182-.139.286-.263.286-.091,0-.177-.057-.177-.167,0-.071.048-.238.258-.258-.091-.086-.215-.086-.234-.086-.101,0-.182.071-.225.162-.028.058-.096.396-.114.497l-.101.544h.396c.081,0,.129,0,.129.053,0,.096-.048.096-.144.096h-.41l-.287,1.514Z"/>
  </g>
  <g>
    <path d="m57.301,50.913v.219c0,.091,0,.123.217.123h.072v.096c-.134-.005-.305-.011-.404-.011-.096,0-.267.005-.401.011v-.096h.072c.216,0,.216-.032.216-.123v-.219h-.786v-.096l.885-1.23c.027-.037.037-.037.07-.037.059,0,.059.019.059.075v1.192h.297v.096h-.297Zm-.914-.096h.705v-.979l-.705.979Z"/>
    <g>
      <path d="m54.682,50.608c.067-.166.083-.206.083-.267,0-.072-.024-.093-.066-.093-.099,0-.216.096-.286.326-.009.03-.011.043-.048.043-.008,0-.045,0-.045-.035,0-.045.123-.409.388-.409.147,0,.254.102.254.227,0,.027-.008.059-.016.086-.011.032-.107.275-.131.339-.03.07-.059.141-.086.214-.023.059-.042.11-.042.171,0,.059.013.094.066.094.105,0,.222-.11.284-.323.011-.03.013-.046.051-.046.008,0,.043,0,.043.035,0,.04-.118.409-.385.409-.147,0-.254-.102-.254-.227,0-.046.013-.078.024-.113l.168-.43Zm.227-.78c-.072,0-.107-.056-.107-.102,0-.077.077-.147.15-.147.075,0,.107.059.107.102,0,.072-.073.147-.15.147Z"/>
      <path d="m55.729,51.352c-.094,0-.155-.07-.155-.155,0-.083.064-.152.152-.152.123,0,.188.126.188.291,0,.318-.227.532-.265.532-.016,0-.038-.019-.038-.037,0-.013.008-.021.019-.032.182-.171.209-.342.209-.489-.002,0-.045.043-.109.043Z"/>
    </g>
    <path d="m53.018,50.985c0,.078.048.158.134.177.022.003.118.003.177.003.259,0,.417,0,.575.083.147.08.179.225.179.305,0,.214-.316.348-.655.348-.361,0-.655-.147-.655-.342,0-.139.139-.227.259-.267-.104-.078-.112-.204-.112-.238,0-.104.059-.193.08-.217-.075-.07-.128-.166-.128-.27,0-.209.201-.393.476-.393.118,0,.23.037.31.096.126-.115.27-.123.31-.123.107,0,.158.075.158.136,0,.062-.048.088-.086.088-.045,0-.085-.032-.085-.086,0-.043.013-.054.024-.064-.045,0-.15.003-.27.088.064.07.113.152.113.257,0,.209-.201.393-.476.393-.155,0-.252-.059-.291-.083-.016.021-.035.043-.035.109Zm.174.358c-.171.003-.257.118-.257.211,0,.139.212.265.492.265s.491-.123.491-.265c0-.211-.334-.211-.572-.211h-.155Zm.361-.559c.053-.07.053-.177.053-.219,0-.056,0-.313-.262-.313-.096,0-.169.048-.206.094-.053.07-.053.176-.053.219,0,.056,0,.313.262.313.096,0,.169-.048.206-.094Z"/>
    <path d="m51.134,50.526c-.004.023-.012.042-.012.065,0,.069.107.069.248.069.073,0,.107,0,.107.042,0,.077-.05.077-.077.077-.08,0-.164-.008-.248-.008-.08,0-.164-.004-.245-.004-.107,0-.378.011-.485.011-.012,0-.057,0-.057-.046,0-.073.041-.073.107-.073.302,0,.309-.03.348-.18l.512-2.052c.012-.046.016-.057.016-.073,0-.042-.023-.054-.084-.061-.046-.004-.115-.007-.164-.007-.077,0-.111,0-.111-.046,0-.073.042-.073.115-.073h1.238c.501,0,.753.283.753.577,0,.428-.531.825-1.074.825h-.649l-.237.955Zm.252-1.054h.539c.168,0,.398-.03.588-.203.149-.137.226-.466.226-.615,0-.264-.203-.367-.52-.367h-.367c-.164,0-.172.011-.206.145l-.26,1.039Z"/>
  </g>
  <g>
    <path d="m48.289,50.459c-.045,0-.07,0-.07-.038,0-.029.022-.035.027-.035.013-.002.019-.002.085-.008.134-.008.209-.013.297-.115.07-.083.107-.206.107-.318,0-.232-.169-.291-.289-.291-.098,0-.283.03-.377.147.083.005.136.061.136.139,0,.075-.053.137-.136.137-.08,0-.139-.051-.139-.142,0-.214.227-.358.524-.358s.54.158.54.369c0,.163-.102.364-.383.465.295.061.466.27.466.479,0,.267-.257.516-.628.516-.323,0-.602-.163-.602-.414,0-.109.075-.155.149-.155.083,0,.148.062.148.147,0,.056-.03.144-.155.15.112.158.348.187.455.187.155,0,.348-.099.348-.43,0-.286-.15-.43-.359-.43h-.145Z"/>
    <g>
      <path d="m46.203,50.608c.067-.166.083-.206.083-.267,0-.072-.024-.093-.066-.093-.099,0-.216.096-.286.326-.009.03-.011.043-.048.043-.008,0-.045,0-.045-.035,0-.045.123-.409.388-.409.147,0,.254.102.254.227,0,.027-.008.059-.016.086-.011.032-.107.275-.131.339-.03.07-.059.141-.086.214-.023.059-.042.11-.042.171,0,.059.013.094.066.094.105,0,.222-.11.284-.323.011-.03.013-.046.051-.046.008,0,.043,0,.043.035,0,.04-.118.409-.385.409-.147,0-.254-.102-.254-.227,0-.046.013-.078.024-.113l.168-.43Zm.227-.78c-.072,0-.107-.056-.107-.102,0-.077.077-.147.15-.147.075,0,.107.059.107.102,0,.072-.073.147-.15.147Z"/>
      <path d="m47.25,51.352c-.094,0-.155-.07-.155-.155,0-.083.064-.152.152-.152.123,0,.188.126.188.291,0,.318-.227.532-.265.532-.016,0-.038-.019-.038-.037,0-.013.008-.021.019-.032.182-.171.209-.342.209-.489-.002,0-.045.043-.109.043Z"/>
    </g>
    <path d="m44.539,50.985c0,.078.048.158.134.177.022.003.118.003.177.003.259,0,.417,0,.575.083.147.08.179.225.179.305,0,.214-.316.348-.655.348-.361,0-.655-.147-.655-.342,0-.139.139-.227.259-.267-.104-.078-.112-.204-.112-.238,0-.104.059-.193.08-.217-.074-.07-.128-.166-.128-.27,0-.209.201-.393.476-.393.118,0,.23.037.31.096.126-.115.27-.123.31-.123.107,0,.158.075.158.136,0,.062-.048.088-.086.088-.045,0-.085-.032-.085-.086,0-.043.013-.054.024-.064-.045,0-.15.003-.27.088.064.07.112.152.112.257,0,.209-.201.393-.476.393-.155,0-.252-.059-.291-.083-.016.021-.035.043-.035.109Zm.174.358c-.171.003-.257.118-.257.211,0,.139.212.265.492.265s.491-.123.491-.265c0-.211-.334-.211-.572-.211h-.155Zm.361-.559c.053-.07.053-.177.053-.219,0-.056,0-.313-.262-.313-.096,0-.169.048-.206.094-.053.07-.053.176-.053.219,0,.056,0,.313.262.313.096,0,.169-.048.206-.094Z"/>
    <path d="m42.653,50.526c-.004.023-.012.042-.012.065,0,.069.107.069.248.069.073,0,.107,0,.107.042,0,.077-.05.077-.077.077-.08,0-.164-.008-.248-.008-.08,0-.164-.004-.245-.004-.107,0-.378.011-.485.011-.012,0-.057,0-.057-.046,0-.073.041-.073.107-.073.302,0,.309-.03.348-.18l.512-2.052c.012-.046.016-.057.016-.073,0-.042-.023-.054-.084-.061-.046-.004-.115-.007-.164-.007-.077,0-.111,0-.111-.046,0-.073.042-.073.115-.073h1.237c.501,0,.753.283.753.577,0,.428-.531.825-1.074.825h-.649l-.237.955Zm.252-1.054h.539c.168,0,.398-.03.588-.203.149-.137.226-.466.226-.615,0-.264-.203-.367-.52-.367h-.367c-.164,0-.172.011-.206.145l-.26,1.039Z"/>
  </g>
  <g>
    <path d="m34.991,51.352h-1.101c0-.075,0-.08.027-.104l.644-.636c.086-.096.252-.28.252-.513,0-.216-.139-.425-.406-.425-.126,0-.308.059-.391.249.139,0,.158.093.158.141,0,.096-.077.142-.141.142-.027,0-.141-.013-.141-.15,0-.246.224-.479.555-.479.342,0,.626.198.626.521,0,.254-.184.42-.382.578-.161.125-.254.2-.535.449h.492c.038,0,.243,0,.265-.016.034-.027.061-.184.07-.243h.091l-.08.487Z"/>
    <g>
      <path d="m32.22,50.608c.067-.166.083-.206.083-.267,0-.072-.024-.093-.066-.093-.099,0-.216.096-.286.326-.009.03-.011.043-.048.043-.008,0-.045,0-.045-.035,0-.045.123-.409.387-.409.147,0,.254.102.254.227,0,.027-.008.059-.016.086-.011.032-.107.275-.131.339-.03.07-.059.141-.086.214-.023.059-.042.11-.042.171,0,.059.013.094.066.094.105,0,.222-.11.284-.323.011-.03.013-.046.051-.046.008,0,.043,0,.043.035,0,.04-.118.409-.385.409-.147,0-.254-.102-.254-.227,0-.046.013-.078.024-.113l.168-.43Zm.227-.78c-.072,0-.107-.056-.107-.102,0-.077.077-.147.15-.147.075,0,.107.059.107.102,0,.072-.073.147-.15.147Z"/>
      <path d="m33.267,51.352c-.094,0-.155-.07-.155-.155,0-.083.064-.152.152-.152.123,0,.188.126.188.291,0,.318-.227.532-.265.532-.016,0-.038-.019-.038-.037,0-.013.008-.021.019-.032.182-.171.209-.342.209-.489-.002,0-.045.043-.109.043Z"/>
    </g>
    <path d="m30.556,50.985c0,.078.048.158.134.177.022.003.118.003.177.003.259,0,.417,0,.575.083.147.08.179.225.179.305,0,.214-.316.348-.655.348-.361,0-.655-.147-.655-.342,0-.139.139-.227.259-.267-.104-.078-.112-.204-.112-.238,0-.104.059-.193.08-.217-.075-.07-.128-.166-.128-.27,0-.209.201-.393.476-.393.118,0,.23.037.31.096.126-.115.27-.123.31-.123.107,0,.158.075.158.136,0,.062-.048.088-.086.088-.045,0-.085-.032-.085-.086,0-.043.013-.054.024-.064-.045,0-.15.003-.27.088.064.07.112.152.112.257,0,.209-.201.393-.476.393-.155,0-.252-.059-.291-.083-.016.021-.035.043-.035.109Zm.174.358c-.171.003-.257.118-.257.211,0,.139.212.265.492.265s.491-.123.491-.265c0-.211-.334-.211-.572-.211h-.155Zm.361-.559c.053-.07.053-.177.053-.219,0-.056,0-.313-.262-.313-.096,0-.169.048-.206.094-.053.07-.053.176-.053.219,0,.056,0,.313.262.313.096,0,.169-.048.206-.094Z"/>
    <path d="m28.67,50.526c-.004.023-.012.042-.012.065,0,.069.107.069.248.069.073,0,.107,0,.107.042,0,.077-.05.077-.077.077-.08,0-.164-.008-.248-.008-.08,0-.164-.004-.245-.004-.107,0-.378.011-.485.011-.012,0-.057,0-.057-.046,0-.073.041-.073.107-.073.302,0,.309-.03.348-.18l.512-2.052c.012-.046.016-.057.016-.073,0-.042-.023-.054-.084-.061-.046-.004-.115-.007-.164-.007-.077,0-.111,0-.111-.046,0-.073.042-.073.115-.073h1.237c.501,0,.753.283.753.577,0,.428-.531.825-1.074.825h-.649l-.237.955Zm.252-1.054h.539c.168,0,.398-.03.588-.203.149-.137.226-.466.226-.615,0-.264-.202-.367-.52-.367h-.367c-.164,0-.172.011-.206.145l-.26,1.039Z"/>
  </g>
  <g>
    <path d="m26.41,51.132c0,.088,0,.123.268.123h.102v.096c-.059-.003-.396-.011-.479-.011-.099,0-.427.008-.476.011v-.096h.102c.267,0,.267-.035.267-.123v-1.364c-.147.075-.323.075-.387.075v-.096c.109,0,.353-.003.524-.171.074,0,.08.003.08.075v1.481Z"/>
    <g>
      <path d="m24.012,50.608c.067-.166.083-.206.083-.267,0-.072-.024-.093-.066-.093-.099,0-.216.096-.286.326-.009.03-.011.043-.048.043-.008,0-.045,0-.045-.035,0-.045.123-.409.388-.409.147,0,.254.102.254.227,0,.027-.008.059-.016.086-.011.032-.107.275-.131.339-.03.07-.059.141-.086.214-.023.059-.042.11-.042.171,0,.059.013.094.066.094.105,0,.222-.11.284-.323.011-.03.013-.046.051-.046.008,0,.043,0,.043.035,0,.04-.118.409-.385.409-.147,0-.254-.102-.254-.227,0-.046.013-.078.024-.113l.168-.43Zm.227-.78c-.072,0-.107-.056-.107-.102,0-.077.077-.147.15-.147.075,0,.107.059.107.102,0,.072-.073.147-.15.147Z"/>
      <path d="m25.059,51.352c-.094,0-.155-.07-.155-.155,0-.083.064-.152.152-.152.123,0,.188.126.188.291,0,.318-.227.532-.265.532-.016,0-.038-.019-.038-.037,0-.013.008-.021.019-.032.182-.171.209-.342.209-.489-.002,0-.045.043-.109.043Z"/>
    </g>
    <path d="m22.348,50.985c0,.078.048.158.134.177.022.003.118.003.177.003.259,0,.417,0,.575.083.147.08.179.225.179.305,0,.214-.316.348-.655.348-.361,0-.655-.147-.655-.342,0-.139.139-.227.259-.267-.104-.078-.112-.204-.112-.238,0-.104.059-.193.08-.217-.075-.07-.128-.166-.128-.27,0-.209.201-.393.476-.393.118,0,.23.037.31.096.126-.115.27-.123.31-.123.107,0,.158.075.158.136,0,.062-.048.088-.086.088-.045,0-.085-.032-.085-.086,0-.043.013-.054.024-.064-.045,0-.15.003-.27.088.064.07.113.152.113.257,0,.209-.201.393-.476.393-.155,0-.252-.059-.291-.083-.016.021-.035.043-.035.109Zm.174.358c-.171.003-.257.118-.257.211,0,.139.212.265.492.265s.491-.123.491-.265c0-.211-.334-.211-.572-.211h-.155Zm.361-.559c.053-.07.053-.177.053-.219,0-.056,0-.313-.262-.313-.096,0-.169.048-.206.094-.053.07-.053.176-.053.219,0,.056,0,.313.262.313.096,0,.169-.048.206-.094Z"/>
    <path d="m20.463,50.526c-.004.023-.012.042-.012.065,0,.069.107.069.248.069.073,0,.107,0,.107.042,0,.077-.05.077-.077.077-.08,0-.164-.008-.248-.008-.08,0-.164-.004-.245-.004-.107,0-.378.011-.485.011-.012,0-.057,0-.057-.046,0-.073.041-.073.107-.073.302,0,.309-.03.348-.18l.512-2.052c.012-.046.016-.057.016-.073,0-.042-.023-.054-.084-.061-.046-.004-.115-.007-.164-.007-.077,0-.111,0-.111-.046,0-.073.042-.073.115-.073h1.238c.501,0,.753.283.753.577,0,.428-.531.825-1.074.825h-.649l-.237.955Zm.252-1.054h.539c.168,0,.398-.03.588-.203.149-.137.226-.466.226-.615,0-.264-.202-.367-.52-.367h-.367c-.164,0-.172.011-.206.145l-.26,1.039Z"/>
  </g>
  <g>
    <path d="m12.985,16.412c-.226.462-.57.709-.608.709-.023,0-.038-.014-.038-.037,0-.011,0-.018.05-.062.475-.458.616-1.098.616-1.72,0-.76-.219-1.338-.594-1.698-.072-.065-.072-.073-.072-.083,0-.022.015-.037.038-.037.038,0,.367.236.598.684.21.411.252.851.252,1.135,0,.306-.046.709-.241,1.109Z"/>
    <path d="m11.525,16.338v.209c0,.087,0,.117.218.117h.073v.092c-.135-.005-.307-.01-.406-.01-.097,0-.269.005-.402.01v-.092h.072c.218,0,.218-.031.218-.117v-.209h-.79v-.092l.889-1.173c.027-.036.038-.036.07-.036.059,0,.059.018.059.071v1.137h.299v.092h-.299Zm-.918-.092h.709v-.933l-.709.933Z"/>
    <g>
      <path d="m8.904,16.047c.067-.158.084-.196.084-.255,0-.069-.024-.089-.067-.089-.1,0-.218.092-.288.312-.008.028-.01.041-.048.041-.008,0-.046,0-.046-.033,0-.044.124-.39.39-.39.147,0,.255.097.255.217,0,.026-.008.056-.016.082-.011.031-.107.262-.132.324-.029.067-.06.135-.086.204-.024.057-.043.105-.043.163,0,.057.014.089.067.089.104,0,.223-.104.284-.308.011-.028.014-.044.052-.044.008,0,.043,0,.043.033,0,.038-.119.39-.387.39-.148,0-.256-.097-.256-.217,0-.044.014-.074.024-.108l.169-.41Zm.229-.745c-.072,0-.107-.053-.107-.097,0-.074.078-.14.15-.14.075,0,.107.056.107.096,0,.069-.072.14-.15.14Z"/>
      <path d="m9.951,16.756c-.094,0-.155-.066-.155-.148,0-.079.064-.145.153-.145.123,0,.188.12.188.278,0,.304-.229.508-.266.508-.016,0-.037-.018-.037-.036,0-.013.008-.02.019-.031.183-.163.209-.326.209-.466-.003,0-.046.041-.11.041Z"/>
    </g>
    <path d="m7.239,16.407c0,.074.049.151.135.169.021.002.118.002.177.002.261,0,.419,0,.578.079.147.076.18.214.18.29,0,.204-.317.332-.658.332-.362,0-.658-.14-.658-.326,0-.133.14-.217.261-.255-.104-.074-.112-.194-.112-.227,0-.099.059-.184.08-.207-.075-.066-.129-.158-.129-.257,0-.199.201-.375.479-.375.117,0,.23.036.311.092.127-.109.271-.117.312-.117.107,0,.158.071.158.13s-.049.084-.086.084c-.046,0-.086-.031-.086-.082,0-.041.014-.051.023-.061-.045,0-.15.002-.271.084.064.066.112.145.112.245,0,.199-.201.375-.478.375-.156,0-.253-.057-.293-.079-.017.02-.035.041-.035.104Zm.175.342c-.172.002-.258.112-.258.201,0,.133.212.252.494.252s.494-.117.494-.252c0-.201-.336-.201-.574-.201h-.156Zm.362-.533c.054-.066.054-.168.054-.209,0-.053,0-.298-.263-.298-.097,0-.169.045-.207.089-.054.066-.054.168-.054.209,0,.053,0,.298.264.298.096,0,.169-.045.206-.089Z"/>
    <path d="m5.354,15.972c-.004.022-.012.04-.012.062,0,.065.107.065.249.065.073,0,.107,0,.107.04,0,.073-.05.073-.076.073-.081,0-.165-.007-.249-.007-.081,0-.165-.004-.245-.004-.107,0-.379.011-.486.011-.012,0-.058,0-.058-.044,0-.069.042-.069.107-.069.303,0,.31-.029.349-.171l.513-1.953c.012-.044.016-.055.016-.069,0-.04-.023-.051-.084-.058-.047-.004-.115-.007-.165-.007-.077,0-.111,0-.111-.044,0-.069.042-.069.115-.069h1.24c.502,0,.755.269.755.549,0,.408-.532.785-1.076.785h-.651l-.237.909Zm.253-1.004h.54c.169,0,.398-.029.59-.192.149-.131.226-.444.226-.586,0-.251-.203-.349-.521-.349h-.368c-.164,0-.172.011-.206.138l-.261.989Z"/>
    <path d="m4.174,17.121c-.038,0-.368-.236-.598-.684-.211-.411-.253-.851-.253-1.135,0-.306.046-.709.241-1.109.227-.462.571-.709.609-.709.022,0,.038.011.038.037,0,.011,0,.018-.05.062-.471.454-.616,1.087-.616,1.72,0,.556.122,1.244.601,1.702.065.062.065.069.065.08,0,.026-.016.037-.038.037Z"/>
    <path d="m2.161,16.047c.067-.158.083-.196.083-.255,0-.069-.023-.089-.066-.089-.1,0-.218.092-.287.312-.009.028-.012.041-.049.041-.008,0-.046,0-.046-.033,0-.044.124-.39.39-.39.147,0,.255.097.255.217,0,.026-.008.056-.016.082-.011.031-.107.262-.132.324-.029.067-.059.135-.086.204-.024.057-.043.105-.043.163,0,.057.014.089.067.089.104,0,.223-.104.284-.308.011-.028.014-.044.051-.044.009,0,.043,0,.043.033,0,.038-.117.39-.387.39-.147,0-.255-.097-.255-.217,0-.044.014-.074.024-.108l.169-.41Zm.229-.745c-.072,0-.107-.053-.107-.097,0-.074.078-.14.15-.14.075,0,.107.056.107.096,0,.069-.072.14-.15.14Z"/>
    <path d="m.973,15.91c-.004.026-.092.465-.215.695-.068.138-.222.353-.433.353-.157,0-.325-.087-.325-.251,0-.138.111-.218.211-.218.072,0,.142.044.142.128,0,.054-.035.185-.211.196.072.065.169.065.184.065.199,0,.265-.331.333-.683l.288-1.437h-.253c-.073,0-.107,0-.107-.044,0-.069.042-.069.115-.069h.264c.092-.458.104-.494.127-.571.114-.36.355-.426.486-.426.156,0,.333.084.333.251,0,.138-.111.218-.211.218-.072,0-.142-.044-.142-.128,0-.054.038-.182.207-.196-.073-.065-.173-.065-.188-.065-.081,0-.146.054-.181.123-.022.044-.076.302-.092.378l-.08.414h.317c.065,0,.104,0,.104.04,0,.072-.038.072-.114.072h-.33l-.229,1.153Z"/>
  </g>
  <g>
    <path d="m12.985,23.912c-.226.462-.57.709-.608.709-.023,0-.038-.014-.038-.037,0-.011,0-.018.05-.062.475-.458.616-1.098.616-1.72,0-.76-.219-1.338-.594-1.698-.072-.065-.072-.073-.072-.083,0-.022.015-.037.038-.037.038,0,.367.236.598.684.21.411.252.851.252,1.135,0,.306-.046.709-.241,1.109Z"/>
    <path d="m10.991,23.404c-.046,0-.069,0-.069-.036,0-.028.021-.033.026-.033.014-.002.019-.002.086-.007.135-.007.21-.013.298-.109.07-.079.107-.197.107-.304,0-.222-.169-.278-.289-.278-.1,0-.285.028-.379.14.083.005.137.058.137.133,0,.071-.054.13-.137.13-.081,0-.14-.048-.14-.135,0-.204.228-.342.526-.342s.542.15.542.352c0,.155-.102.347-.384.444.295.058.467.258.467.456,0,.255-.258.492-.631.492-.324,0-.604-.156-.604-.395,0-.105.074-.148.15-.148.083,0,.147.059.147.14,0,.053-.03.138-.156.143.113.151.35.179.457.179.155,0,.349-.095.349-.411,0-.273-.15-.41-.359-.41h-.146Z"/>
    <g>
      <path d="m8.903,23.547c.067-.158.083-.196.083-.255,0-.069-.023-.089-.066-.089-.1,0-.218.092-.287.312-.009.028-.012.041-.049.041-.008,0-.046,0-.046-.033,0-.044.124-.39.39-.39.147,0,.255.097.255.217,0,.026-.008.056-.016.082-.011.031-.107.262-.132.324-.029.067-.059.135-.086.204-.024.057-.043.105-.043.163,0,.057.014.089.067.089.104,0,.223-.104.284-.308.011-.028.014-.044.051-.044.009,0,.043,0,.043.033,0,.038-.117.39-.387.39-.147,0-.255-.097-.255-.217,0-.044.014-.074.024-.108l.169-.41Zm.229-.745c-.072,0-.107-.053-.107-.097,0-.074.078-.14.15-.14.075,0,.107.056.107.096,0,.069-.072.14-.15.14Z"/>
      <path d="m9.951,24.256c-.095,0-.156-.066-.156-.148,0-.079.064-.145.153-.145.123,0,.188.12.188.278,0,.304-.228.508-.266.508-.017,0-.038-.018-.038-.036,0-.013.009-.02.02-.031.183-.163.209-.326.209-.466-.002,0-.045.041-.109.041Z"/>
    </g>
    <path d="m7.239,23.907c0,.074.049.151.135.169.021.002.118.002.177.002.261,0,.419,0,.578.079.147.076.18.214.18.29,0,.204-.317.332-.658.332-.362,0-.658-.14-.658-.326,0-.133.14-.217.261-.255-.104-.074-.112-.194-.112-.227,0-.099.059-.184.08-.207-.075-.066-.129-.158-.129-.257,0-.199.201-.375.479-.375.117,0,.23.036.311.092.127-.109.271-.117.312-.117.107,0,.158.071.158.13s-.049.084-.086.084c-.046,0-.086-.031-.086-.082,0-.041.014-.051.023-.061-.045,0-.15.002-.271.084.064.066.112.145.112.245,0,.199-.201.375-.478.375-.156,0-.253-.057-.293-.079-.017.02-.035.041-.035.104Zm.175.342c-.172.002-.258.112-.258.201,0,.133.212.252.494.252s.494-.117.494-.252c0-.201-.336-.201-.574-.201h-.156Zm.362-.533c.054-.066.054-.168.054-.209,0-.053,0-.298-.263-.298-.097,0-.169.045-.207.089-.054.066-.054.168-.054.209,0,.053,0,.298.264.298.096,0,.169-.045.206-.089Z"/>
    <path d="m5.354,23.472c-.004.022-.012.04-.012.062,0,.065.107.065.249.065.073,0,.107,0,.107.04,0,.073-.05.073-.076.073-.081,0-.165-.007-.249-.007-.081,0-.165-.004-.245-.004-.107,0-.379.011-.486.011-.012,0-.058,0-.058-.044,0-.069.042-.069.107-.069.303,0,.31-.029.349-.171l.513-1.953c.012-.044.016-.055.016-.069,0-.04-.023-.051-.084-.058-.047-.004-.115-.007-.165-.007-.077,0-.111,0-.111-.044,0-.069.042-.069.115-.069h1.24c.502,0,.755.269.755.549,0,.408-.532.785-1.076.785h-.651l-.237.909Zm.253-1.004h.54c.169,0,.398-.029.59-.192.149-.131.226-.444.226-.586,0-.251-.202-.349-.521-.349h-.368c-.164,0-.172.011-.206.138l-.261.989Z"/>
    <path d="m4.173,24.621c-.038,0-.368-.236-.598-.684-.211-.411-.253-.851-.253-1.135,0-.306.046-.709.241-1.109.227-.462.571-.709.609-.709.022,0,.038.011.038.037,0,.011,0,.018-.05.062-.471.454-.616,1.087-.616,1.72,0,.556.122,1.244.601,1.702.065.062.065.069.065.08,0,.026-.016.037-.038.037Z"/>
    <path d="m2.161,23.547c.067-.158.083-.196.083-.255,0-.069-.023-.089-.066-.089-.1,0-.218.092-.287.312-.009.028-.012.041-.049.041-.008,0-.046,0-.046-.033,0-.044.124-.39.39-.39.147,0,.255.097.255.217,0,.026-.008.056-.016.082-.011.031-.107.262-.132.324-.029.067-.059.135-.086.204-.024.057-.043.105-.043.163,0,.057.014.089.067.089.104,0,.223-.104.284-.308.011-.028.014-.044.051-.044.009,0,.043,0,.043.033,0,.038-.117.39-.387.39-.147,0-.255-.097-.255-.217,0-.044.014-.074.024-.108l.169-.41Zm.229-.745c-.072,0-.107-.053-.107-.097,0-.074.078-.14.15-.14.075,0,.107.056.107.096,0,.069-.072.14-.15.14Z"/>
    <path d="m.973,23.41c-.004.026-.092.465-.215.695-.068.138-.222.353-.433.353-.157,0-.325-.087-.325-.251,0-.138.111-.218.211-.218.072,0,.142.044.142.128,0,.054-.035.185-.211.196.072.065.169.065.184.065.199,0,.265-.331.333-.683l.288-1.437h-.253c-.073,0-.107,0-.107-.044,0-.069.042-.069.115-.069h.264c.092-.458.104-.494.127-.571.114-.36.355-.426.486-.426.156,0,.333.084.333.251,0,.138-.111.218-.211.218-.072,0-.142-.044-.142-.128,0-.054.038-.182.207-.196-.073-.065-.173-.065-.188-.065-.081,0-.146.054-.181.123-.022.044-.076.302-.092.378l-.08.414h.317c.065,0,.104,0,.104.04,0,.072-.038.072-.114.072h-.33l-.229,1.153Z"/>
  </g>
  <g>
    <path d="m12.985,31.412c-.226.462-.57.709-.608.709-.023,0-.038-.014-.038-.037,0-.011,0-.018.05-.062.475-.458.616-1.098.616-1.72,0-.76-.219-1.338-.594-1.698-.072-.065-.072-.073-.072-.083,0-.022.015-.037.038-.037.038,0,.367.236.598.684.21.411.252.851.252,1.135,0,.306-.046.709-.241,1.109Z"/>
    <path d="m11.679,31.756h-1.106c0-.071,0-.077.027-.099l.646-.607c.086-.092.253-.268.253-.49,0-.206-.14-.405-.408-.405-.126,0-.309.056-.392.237.139,0,.158.089.158.135,0,.092-.078.135-.143.135-.027,0-.143-.013-.143-.143,0-.235.226-.456.559-.456.344,0,.629.189.629.497,0,.242-.186.401-.385.551-.16.12-.255.191-.537.428h.494c.038,0,.245,0,.267-.015.034-.026.062-.176.069-.232h.092l-.081.464Z"/>
    <g>
      <path d="m8.904,31.047c.067-.158.084-.196.084-.255,0-.069-.024-.089-.067-.089-.1,0-.218.092-.288.312-.008.028-.01.041-.048.041-.008,0-.046,0-.046-.033,0-.044.124-.39.39-.39.147,0,.255.097.255.217,0,.026-.008.056-.016.082-.011.031-.107.262-.132.324-.029.067-.06.135-.086.204-.024.057-.043.105-.043.163,0,.057.014.089.067.089.104,0,.223-.104.284-.308.011-.028.014-.044.052-.044.008,0,.043,0,.043.033,0,.038-.119.39-.387.39-.148,0-.256-.097-.256-.217,0-.044.014-.074.024-.108l.169-.41Zm.229-.745c-.072,0-.107-.053-.107-.097,0-.074.078-.14.15-.14.075,0,.107.056.107.096,0,.069-.072.14-.15.14Z"/>
      <path d="m9.951,31.756c-.094,0-.155-.066-.155-.148,0-.079.064-.145.153-.145.123,0,.188.12.188.278,0,.304-.229.508-.266.508-.016,0-.037-.018-.037-.036,0-.013.008-.02.019-.031.183-.163.209-.326.209-.466-.003,0-.046.041-.11.041Z"/>
    </g>
    <path d="m7.239,31.407c0,.074.049.151.135.169.021.002.118.002.177.002.261,0,.419,0,.578.079.147.076.18.214.18.29,0,.204-.317.332-.658.332-.362,0-.658-.14-.658-.326,0-.133.14-.217.261-.255-.104-.074-.112-.194-.112-.227,0-.099.059-.184.08-.207-.075-.066-.129-.158-.129-.257,0-.199.201-.375.479-.375.117,0,.23.036.311.092.127-.109.271-.117.312-.117.107,0,.158.071.158.13s-.049.084-.086.084c-.046,0-.086-.031-.086-.082,0-.041.014-.051.023-.061-.045,0-.15.002-.271.084.064.066.112.145.112.245,0,.199-.201.375-.478.375-.156,0-.253-.057-.293-.079-.017.02-.035.041-.035.104Zm.175.342c-.172.002-.258.112-.258.201,0,.133.212.252.494.252s.494-.117.494-.252c0-.201-.336-.201-.574-.201h-.156Zm.362-.533c.054-.066.054-.168.054-.209,0-.053,0-.298-.263-.298-.097,0-.169.045-.207.089-.054.066-.054.168-.054.209,0,.053,0,.298.264.298.096,0,.169-.045.206-.089Z"/>
    <path d="m5.354,30.972c-.004.022-.012.04-.012.062,0,.065.107.065.249.065.073,0,.107,0,.107.04,0,.073-.05.073-.076.073-.081,0-.165-.007-.249-.007-.081,0-.165-.004-.245-.004-.107,0-.379.011-.486.011-.012,0-.058,0-.058-.044,0-.069.042-.069.107-.069.303,0,.31-.029.349-.171l.513-1.953c.012-.044.016-.055.016-.069,0-.04-.023-.051-.084-.058-.047-.004-.115-.007-.165-.007-.077,0-.111,0-.111-.044,0-.069.042-.069.115-.069h1.24c.502,0,.755.269.755.549,0,.408-.532.785-1.076.785h-.651l-.237.909Zm.253-1.004h.54c.169,0,.398-.029.59-.192.149-.131.226-.444.226-.586,0-.251-.203-.349-.521-.349h-.368c-.164,0-.172.011-.206.138l-.261.989Z"/>
    <path d="m4.174,32.121c-.038,0-.368-.236-.598-.684-.211-.411-.253-.851-.253-1.135,0-.306.046-.709.241-1.109.227-.462.571-.709.609-.709.022,0,.038.011.038.037,0,.011,0,.018-.05.062-.471.454-.616,1.087-.616,1.72,0,.556.122,1.244.601,1.702.065.062.065.069.065.08,0,.026-.016.037-.038.037Z"/>
    <path d="m2.161,31.047c.067-.158.083-.196.083-.255,0-.069-.023-.089-.066-.089-.1,0-.218.092-.287.312-.009.028-.012.041-.049.041-.008,0-.046,0-.046-.033,0-.044.124-.39.39-.39.147,0,.255.097.255.217,0,.026-.008.056-.016.082-.011.031-.107.262-.132.324-.029.067-.059.135-.086.204-.024.057-.043.105-.043.163,0,.057.014.089.067.089.104,0,.223-.104.284-.308.011-.028.014-.044.051-.044.009,0,.043,0,.043.033,0,.038-.117.39-.387.39-.147,0-.255-.097-.255-.217,0-.044.014-.074.024-.108l.169-.41Zm.229-.745c-.072,0-.107-.053-.107-.097,0-.074.078-.14.15-.14.075,0,.107.056.107.096,0,.069-.072.14-.15.14Z"/>
    <path d="m.973,30.91c-.004.026-.092.465-.215.695-.068.138-.222.353-.433.353-.157,0-.325-.087-.325-.251,0-.138.111-.218.211-.218.072,0,.142.044.142.128,0,.054-.035.185-.211.196.072.065.169.065.184.065.199,0,.265-.331.333-.683l.288-1.437h-.253c-.073,0-.107,0-.107-.044,0-.069.042-.069.115-.069h.264c.092-.458.104-.494.127-.571.114-.36.355-.426.486-.426.156,0,.333.084.333.251,0,.138-.111.218-.211.218-.072,0-.142-.044-.142-.128,0-.054.038-.182.207-.196-.073-.065-.173-.065-.188-.065-.081,0-.146.054-.181.123-.022.044-.076.302-.092.378l-.08.414h.317c.065,0,.104,0,.104.04,0,.072-.038.072-.114.072h-.33l-.229,1.153Z"/>
  </g>
  <g>
    <path d="m12.985,38.912c-.226.462-.57.709-.608.709-.023,0-.038-.014-.038-.037,0-.011,0-.018.05-.062.475-.458.616-1.098.616-1.72,0-.76-.219-1.338-.594-1.698-.072-.065-.072-.073-.072-.083,0-.022.015-.037.038-.037.038,0,.367.236.598.684.21.411.252.851.252,1.135,0,.306-.046.709-.241,1.109Z"/>
    <path d="m11.303,39.047c0,.084,0,.117.269.117h.103v.092c-.06-.003-.397-.01-.48-.01-.1,0-.43.007-.479.01v-.092h.102c.27,0,.27-.033.27-.117v-1.301c-.148.071-.325.071-.39.071v-.092c.11,0,.354-.003.526-.163.075,0,.08.003.08.071v1.413Z"/>
    <g>
      <path d="m8.904,38.547c.067-.158.084-.196.084-.255,0-.069-.024-.089-.067-.089-.1,0-.218.092-.288.312-.008.028-.01.041-.048.041-.008,0-.046,0-.046-.033,0-.044.124-.39.39-.39.147,0,.255.097.255.217,0,.026-.008.056-.016.082-.011.031-.107.262-.132.324-.029.067-.06.135-.086.204-.024.057-.043.105-.043.163,0,.057.014.089.067.089.104,0,.223-.104.284-.308.011-.028.014-.044.052-.044.008,0,.043,0,.043.033,0,.038-.119.39-.387.39-.148,0-.256-.097-.256-.217,0-.044.014-.074.024-.108l.169-.41Zm.229-.745c-.072,0-.107-.053-.107-.097,0-.074.078-.14.15-.14.075,0,.107.056.107.096,0,.069-.072.14-.15.14Z"/>
      <path d="m9.951,39.256c-.094,0-.155-.066-.155-.148,0-.079.064-.145.153-.145.123,0,.188.12.188.278,0,.304-.229.508-.266.508-.016,0-.037-.018-.037-.036,0-.013.008-.02.019-.031.183-.163.209-.326.209-.466-.003,0-.046.041-.11.041Z"/>
    </g>
    <path d="m7.239,38.907c0,.074.049.151.135.169.021.002.118.002.177.002.261,0,.419,0,.578.079.147.076.18.214.18.29,0,.204-.317.332-.658.332-.362,0-.658-.14-.658-.326,0-.133.14-.217.261-.255-.104-.074-.112-.194-.112-.227,0-.099.059-.184.08-.207-.075-.066-.129-.158-.129-.257,0-.199.201-.375.479-.375.117,0,.23.036.311.092.127-.109.271-.117.312-.117.107,0,.158.071.158.13s-.049.084-.086.084c-.046,0-.086-.031-.086-.082,0-.041.014-.051.023-.061-.045,0-.15.002-.271.084.064.066.112.145.112.245,0,.199-.201.375-.478.375-.156,0-.253-.057-.293-.079-.017.02-.035.041-.035.104Zm.175.342c-.172.002-.258.112-.258.201,0,.133.212.252.494.252s.494-.117.494-.252c0-.201-.336-.201-.574-.201h-.156Zm.362-.533c.054-.066.054-.168.054-.209,0-.053,0-.298-.263-.298-.097,0-.169.045-.207.089-.054.066-.054.168-.054.209,0,.053,0,.298.264.298.096,0,.169-.045.206-.089Z"/>
    <path d="m5.354,38.472c-.004.022-.012.04-.012.062,0,.065.107.065.249.065.073,0,.107,0,.107.04,0,.073-.05.073-.076.073-.081,0-.165-.007-.249-.007-.081,0-.165-.004-.245-.004-.107,0-.379.011-.486.011-.012,0-.058,0-.058-.044,0-.069.042-.069.107-.069.303,0,.31-.029.349-.171l.513-1.953c.012-.044.016-.055.016-.069,0-.04-.023-.051-.084-.058-.047-.004-.115-.007-.165-.007-.077,0-.111,0-.111-.044,0-.069.042-.069.115-.069h1.24c.502,0,.755.269.755.549,0,.408-.532.785-1.076.785h-.651l-.237.909Zm.253-1.004h.54c.169,0,.398-.029.59-.192.149-.131.226-.444.226-.586,0-.251-.203-.349-.521-.349h-.368c-.164,0-.172.011-.206.138l-.261.989Z"/>
    <path d="m4.173,39.621c-.038,0-.368-.236-.598-.684-.211-.411-.253-.851-.253-1.135,0-.306.046-.709.241-1.109.227-.462.571-.709.609-.709.022,0,.038.011.038.037,0,.011,0,.018-.05.062-.471.454-.616,1.087-.616,1.72,0,.556.122,1.244.601,1.702.065.062.065.069.065.08,0,.026-.016.037-.038.037Z"/>
    <path d="m2.161,38.547c.067-.158.083-.196.083-.255,0-.069-.023-.089-.066-.089-.1,0-.218.092-.287.312-.009.028-.012.041-.049.041-.008,0-.046,0-.046-.033,0-.044.124-.39.39-.39.147,0,.255.097.255.217,0,.026-.008.056-.016.082-.011.031-.107.262-.132.324-.029.067-.059.135-.086.204-.024.057-.043.105-.043.163,0,.057.014.089.067.089.104,0,.223-.104.284-.308.011-.028.014-.044.051-.044.009,0,.043,0,.043.033,0,.038-.117.39-.387.39-.147,0-.255-.097-.255-.217,0-.044.014-.074.024-.108l.169-.41Zm.229-.745c-.072,0-.107-.053-.107-.097,0-.074.078-.14.15-.14.075,0,.107.056.107.096,0,.069-.072.14-.15.14Z"/>
    <path d="m.974,38.41c-.004.026-.092.465-.215.695-.068.138-.222.353-.433.353-.157,0-.325-.087-.325-.251,0-.138.111-.218.211-.218.072,0,.142.044.142.128,0,.054-.035.185-.211.196.072.065.169.065.184.065.199,0,.265-.331.333-.683l.288-1.437h-.253c-.073,0-.107,0-.107-.044,0-.069.042-.069.115-.069h.264c.092-.458.104-.494.127-.571.114-.36.355-.426.486-.426.156,0,.333.084.333.251,0,.138-.111.218-.211.218-.072,0-.142-.044-.142-.128,0-.054.038-.182.207-.196-.073-.065-.173-.065-.188-.065-.081,0-.146.054-.181.123-.022.044-.076.302-.092.378l-.08.414h.317c.065,0,.104,0,.104.04,0,.072-.038.072-.114.072h-.33l-.229,1.153Z"/>
  </g>
</svg>