<svg id="Layer_1" data-name="Layer 1" xmlns="http://www.w3.org/2000/svg" viewBox="0 0 188.66 124.069"><defs><style>.cls-1,.cls-4{fill:none;}.cls-1{stroke:#010101;stroke-width:1.9px;}.cls-1,.cls-3,.cls-4,.cls-5{stroke-miterlimit:10;}.cls-2{fill:#231f20;}.cls-3{fill:#fff;}.cls-3,.cls-4,.cls-5{stroke:#231f20;}.cls-5{fill:#ed1c24;stroke-width:0.5px;}</style></defs><path d="M19.859,5.311a1.466,1.466,0,0,1-1.6,1.313H15.447V6.4h.172c.553,0,.567-.079.567-.338V2.284c0-.258-.014-.337-.567-.337h-.172V1.725h2.626a1.44,1.44,0,0,1,1.592,1.212c0,.531-.495.99-1.19,1.126A1.408,1.408,0,0,1,19.859,5.311ZM17.822,4A1.083,1.083,0,0,0,18.97,2.937a.954.954,0,0,0-.948-.99h-.889c-.337,0-.352.05-.352.287V4ZM19.142,5.3A1.075,1.075,0,0,0,18.13,4.156H16.781V6.115c0,.237.015.287.352.287h.9A1.085,1.085,0,0,0,19.142,5.3Z" transform="translate(-2.295 -1.567)"/><path d="M22.147,6.7c-1.091,0-1.091-.653-1.091-1.212V4.415c0-.638,0-.66-.559-.66V3.533l1.054-.08V5.835c0,.373.029.71.631.71.524,0,.869-.488.869-1.111V4.156c0-.351-.058-.4-.56-.4V3.533l1.055-.08V6c0,.351.057.4.559.4v.222L23.072,6.7V6.057A.977.977,0,0,1,22.147,6.7Z" transform="translate(-2.295 -1.567)"/><path d="M24.794,4.9a.762.762,0,0,1-.309-.609c0-.4.273-.883,1.148-.883a1.1,1.1,0,0,1,.674.2.946.946,0,0,0,.122-.114c.093-.087.108-.087.144-.087.078,0,.078.051.078.172v.725c0,.136,0,.173-.093.173a.077.077,0,0,1-.086-.065.791.791,0,0,0-.839-.868c-.617,0-.8.293-.8.545,0,.416.481.509.883.588a1.467,1.467,0,0,1,.818.345.923.923,0,0,1,.3.681c0,.517-.33,1-1.155,1a1.071,1.071,0,0,1-.789-.308,2.063,2.063,0,0,0-.144.164c-.136.137-.143.144-.179.144-.079,0-.079-.05-.079-.172V5.584c0-.129,0-.179.093-.179.072,0,.079.029.1.122.137.609.395,1.018,1,1.018.56,0,.811-.286.811-.652,0-.517-.589-.631-.747-.66A1.875,1.875,0,0,1,24.794,4.9Z" transform="translate(-2.295 -1.567)"/><path d="M31.572,6.057c0,.266.022.345.667.345h.23v.222c-.251-.021-.875-.021-1.163-.021s-.91,0-1.161.021V6.4h.229c.646,0,.667-.086.667-.345V2.341a2.143,2.143,0,0,1-.94.187V2.306a1.771,1.771,0,0,0,1.306-.46c.165,0,.165.014.165.187Z" transform="translate(-2.295 -1.567)"/><line class="cls-1" x1="21.663" y1="7.455" x2="21.663" y2="37.389"/><path class="cls-2" d="M19.827,69.878a1.433,1.433,0,0,1-1.563,1.282H15.519v-.217h.168c.539,0,.554-.077.554-.329V66.923c0-.252-.015-.329-.554-.329h-.168v-.217h2.563a1.406,1.406,0,0,1,1.555,1.183c0,.519-.483.967-1.163,1.1A1.376,1.376,0,0,1,19.827,69.878ZM17.837,68.6a1.056,1.056,0,0,0,1.12-1.037.93.93,0,0,0-.923-.966h-.87c-.329,0-.342.049-.342.28V68.6Zm1.288,1.275a1.049,1.049,0,0,0-.987-1.121H16.822v1.912c0,.231.013.28.342.28h.876A1.057,1.057,0,0,0,19.125,69.872Z" transform="translate(-2.295 -1.567)"/><path class="cls-2" d="M22.058,71.237c-1.064,0-1.064-.637-1.064-1.183V69c0-.623,0-.645-.547-.645v-.216l1.03-.077V70.39c0,.364.027.693.616.693.511,0,.847-.476.847-1.085V68.751c0-.343-.056-.393-.546-.393v-.216l1.029-.077v2.486c0,.343.057.392.547.392v.217l-1.009.077v-.63A.955.955,0,0,1,22.058,71.237Z" transform="translate(-2.295 -1.567)"/><path class="cls-2" d="M24.64,69.48a.75.75,0,0,1-.3-.6c0-.392.267-.861,1.121-.861a1.079,1.079,0,0,1,.659.2.968.968,0,0,0,.119-.112c.091-.084.105-.084.139-.084.078,0,.078.048.078.168V68.9c0,.133,0,.168-.091.168A.075.075,0,0,1,26.279,69a.773.773,0,0,0-.82-.847c-.6,0-.784.287-.784.532,0,.406.469.5.862.574a1.422,1.422,0,0,1,.8.336.906.906,0,0,1,.3.666c0,.5-.322.973-1.128.973a1.046,1.046,0,0,1-.77-.3,1.585,1.585,0,0,0-.14.161c-.134.133-.14.14-.176.14-.077,0-.077-.049-.077-.168v-.924c0-.126,0-.175.092-.175.069,0,.077.028.1.118.133.6.386,1,.973,1,.546,0,.791-.28.791-.637,0-.5-.574-.616-.727-.645A1.846,1.846,0,0,1,24.64,69.48Z" transform="translate(-2.295 -1.567)"/><path class="cls-2" d="M31,68.17a1.468,1.468,0,0,1,1.4,1.562,1.5,1.5,0,0,1-1.442,1.583c-.652,0-1.464-.5-1.464-2.368,0-1.548.945-2.451,1.841-2.451.582,0,.89.336.89.756a.322.322,0,1,1-.644.014c0-.315.28-.315.385-.315a.722.722,0,0,0-.616-.28c-.357,0-1.226.252-1.226,2.024v.168A.968.968,0,0,1,31,68.17Zm.651,2.493a3.738,3.738,0,0,0-.007-1.9.676.676,0,0,0-.651-.434c-.631,0-.855.7-.855,1.246a3.423,3.423,0,0,0,.126,1.016.806.806,0,0,0,.694.525A.732.732,0,0,0,31.648,70.663Z" transform="translate(-2.295 -1.567)"/><line class="cls-1" x1="94.37" y1="15.079" x2="94.37" y2="45.012"/><path d="M92.458,12.935a1.467,1.467,0,0,1-1.6,1.313H88.047v-.223h.171c.553,0,.567-.079.567-.337V9.908c0-.259-.014-.338-.567-.338h-.171V9.348h2.625a1.44,1.44,0,0,1,1.593,1.212c0,.531-.5.99-1.191,1.126A1.41,1.41,0,0,1,92.458,12.935Zm-2.037-1.313a1.083,1.083,0,0,0,1.148-1.062.953.953,0,0,0-.947-.99h-.89c-.337,0-.351.051-.351.287v1.765Zm1.32,1.3A1.074,1.074,0,0,0,90.73,11.78H89.381v1.958c0,.237.014.287.351.287h.9A1.084,1.084,0,0,0,91.741,12.927Z" transform="translate(-2.295 -1.567)"/><path d="M94.746,14.327c-1.09,0-1.09-.653-1.09-1.213V12.038c0-.639,0-.659-.56-.659v-.223l1.055-.079v2.381c0,.374.028.711.631.711.524,0,.868-.488.868-1.112V11.78c0-.352-.057-.4-.56-.4v-.223l1.055-.079v2.546c0,.352.058.4.56.4v.223l-1.033.079v-.646A.98.98,0,0,1,94.746,14.327Z" transform="translate(-2.295 -1.567)"/><path d="M97.393,12.526a.764.764,0,0,1-.309-.61c0-.4.273-.882,1.148-.882a1.111,1.111,0,0,1,.675.2,1.011,1.011,0,0,0,.122-.114c.093-.086.107-.086.143-.086.079,0,.079.05.079.172v.724c0,.137,0,.173-.093.173a.076.076,0,0,1-.086-.065.793.793,0,0,0-.84-.868c-.617,0-.8.294-.8.545,0,.417.48.509.882.589a1.459,1.459,0,0,1,.818.344.925.925,0,0,1,.3.682c0,.516-.33,1-1.155,1a1.07,1.07,0,0,1-.789-.309,1.521,1.521,0,0,0-.143.165c-.137.137-.144.144-.18.144-.079,0-.079-.05-.079-.173v-.947c0-.128,0-.179.094-.179.071,0,.079.029.1.122.136.61.395,1.019,1,1.019.56,0,.811-.287.811-.653,0-.517-.588-.632-.746-.66A1.877,1.877,0,0,1,97.393,12.526Z" transform="translate(-2.295 -1.567)"/><path d="M104.265,13.7a2.348,2.348,0,0,0,.681-.057A2.356,2.356,0,0,0,105.1,13h.179l-.2,1.249h-2.662c0-.172,0-.187.079-.266l1.377-1.535a2.569,2.569,0,0,0,.753-1.585c0-.589-.308-1.17-.961-1.17a1.033,1.033,0,0,0-.968.732.277.277,0,0,1,.093-.007.363.363,0,0,1,.38.373.377.377,0,1,1-.753-.022,1.326,1.326,0,0,1,1.342-1.3,1.409,1.409,0,0,1,1.52,1.393c0,.717-.43,1.1-1.549,2.094l-.76.739Z" transform="translate(-2.295 -1.567)"/><line class="cls-3" x1="21.663" y1="22.422" x2="93.612" y2="22.422"/><line class="cls-1" x1="166.743" y1="87.388" x2="166.743" y2="117.322"/><polyline class="cls-4" points="94.109 37.571 69.912 37.571 69.911 79.647 22.19 79.648"/><line class="cls-3" x1="21.892" y1="94.765" x2="93.841" y2="94.765"/><line class="cls-1" x1="21.663" y1="102.141" x2="21.663" y2="72.207"/><line class="cls-3" x1="94.587" y1="102.448" x2="166.535" y2="102.448"/><line class="cls-1" x1="94.37" y1="79.798" x2="94.37" y2="109.732"/><line class="cls-3" x1="94.587" y1="22.422" x2="166.535" y2="22.422"/><line class="cls-1" x1="166.743" y1="7.455" x2="166.743" y2="37.389"/><path d="M164.8,5.153a1.467,1.467,0,0,1-1.6,1.314H160.39V6.244h.172c.553,0,.567-.079.567-.337V2.126c0-.258-.014-.337-.567-.337h-.172V1.567h2.626a1.439,1.439,0,0,1,1.592,1.212c0,.531-.5.99-1.19,1.126A1.409,1.409,0,0,1,164.8,5.153ZM162.765,3.84a1.082,1.082,0,0,0,1.148-1.061.953.953,0,0,0-.947-.99h-.89c-.337,0-.351.05-.351.287V3.84Zm1.32,1.306A1.074,1.074,0,0,0,163.074,4h-1.349V5.957c0,.237.014.287.351.287h.9A1.085,1.085,0,0,0,164.085,5.146Z" transform="translate(-2.295 -1.567)"/><path d="M167.09,6.546c-1.09,0-1.09-.653-1.09-1.213V4.257c0-.639,0-.66-.56-.66V3.374L166.5,3.3V5.677c0,.374.028.711.631.711.524,0,.868-.488.868-1.112V4c0-.352-.058-.4-.56-.4V3.374l1.055-.078V5.842c0,.352.057.4.559.4v.223l-1.033.079V5.9A.979.979,0,0,1,167.09,6.546Z" transform="translate(-2.295 -1.567)"/><path d="M169.737,4.744a.762.762,0,0,1-.309-.609c0-.4.273-.883,1.148-.883a1.108,1.108,0,0,1,.675.2,1.011,1.011,0,0,0,.122-.114c.093-.087.107-.087.143-.087.079,0,.079.051.079.173v.724c0,.137,0,.172-.093.172-.015,0-.08,0-.087-.064a.791.791,0,0,0-.839-.869c-.617,0-.8.294-.8.546,0,.416.48.509.882.588a1.473,1.473,0,0,1,.818.344.925.925,0,0,1,.3.682c0,.517-.33,1-1.155,1a1.074,1.074,0,0,1-.789-.309,1.521,1.521,0,0,0-.143.165c-.137.136-.144.144-.18.144-.079,0-.079-.051-.079-.173V5.426c0-.129,0-.179.094-.179.071,0,.078.029.1.121.136.611.395,1.02,1,1.02.56,0,.811-.288.811-.653,0-.517-.589-.632-.747-.66A1.866,1.866,0,0,1,169.737,4.744Z" transform="translate(-2.295 -1.567)"/><path d="M177.685,5.24a1.463,1.463,0,0,1-1.528,1.384,1.31,1.31,0,0,1-1.45-1.126.4.4,0,1,1,.8-.014.392.392,0,0,1-.473.394,1.3,1.3,0,0,0,1.1.545c.316,0,.811-.208.811-1.183,0-.7-.266-1.191-.854-1.191h-.315c-.122,0-.173,0-.173-.079s.051-.079.108-.087.222-.014.28-.021a.693.693,0,0,0,.638-.373,1.787,1.787,0,0,0,.2-.818c0-.645-.394-.8-.689-.8a1.162,1.162,0,0,0-.954.445c.108,0,.445,0,.445.358a.366.366,0,1,1-.732-.007c0-.545.546-.976,1.27-.976.689,0,1.32.4,1.32.99a1.382,1.382,0,0,1-1,1.263A1.384,1.384,0,0,1,177.685,5.24Z" transform="translate(-2.295 -1.567)"/><path d="M164.752,85.245a1.466,1.466,0,0,1-1.6,1.312H160.34v-.223h.173c.552,0,.566-.078.566-.336V82.217c0-.258-.014-.338-.566-.338h-.173v-.222h2.626a1.44,1.44,0,0,1,1.592,1.212c0,.531-.5.99-1.19,1.127A1.408,1.408,0,0,1,164.752,85.245Zm-2.037-1.314a1.083,1.083,0,0,0,1.148-1.062.954.954,0,0,0-.947-.99h-.89c-.337,0-.351.051-.351.287v1.765Zm1.32,1.306a1.075,1.075,0,0,0-1.012-1.148h-1.348v1.959c0,.236.014.286.351.286h.9A1.083,1.083,0,0,0,164.035,85.237Z" transform="translate(-2.295 -1.567)"/><path d="M167.04,86.636c-1.09,0-1.09-.653-1.09-1.212V84.347c0-.638,0-.659-.56-.659v-.223l1.055-.079v2.382c0,.373.028.71.631.71.523,0,.868-.487.868-1.112V84.089c0-.351-.058-.4-.56-.4v-.223l1.055-.079v2.547c0,.351.058.4.56.4v.223l-1.033.079v-.645A.98.98,0,0,1,167.04,86.636Z" transform="translate(-2.295 -1.567)"/><path d="M169.687,84.835a.762.762,0,0,1-.309-.609c0-.4.273-.883,1.148-.883a1.108,1.108,0,0,1,.675.2.877.877,0,0,0,.121-.115c.094-.086.108-.086.144-.086.079,0,.079.05.079.173v.724c0,.136,0,.172-.093.172a.077.077,0,0,1-.087-.065.79.79,0,0,0-.839-.867c-.617,0-.8.294-.8.545,0,.416.48.509.882.588a1.466,1.466,0,0,1,.818.344.928.928,0,0,1,.3.682c0,.516-.33,1-1.155,1a1.069,1.069,0,0,1-.789-.309,1.765,1.765,0,0,0-.144.166c-.136.136-.143.143-.179.143-.079,0-.079-.05-.079-.172v-.947c0-.129,0-.18.094-.18.072,0,.079.029.1.123.136.609.4,1.018,1,1.018.56,0,.811-.287.811-.653,0-.517-.588-.631-.747-.66A1.867,1.867,0,0,1,169.687,84.835Z" transform="translate(-2.295 -1.567)"/><path d="M174.557,85.373v-.222l2.2-3.364c.057-.087.078-.087.143-.087.115,0,.115.043.115.187v3.264h.717v.222h-.717V86c0,.258.015.336.545.336h.151v.223c-.295-.022-.674-.022-.976-.022s-.674,0-.968.022v-.223h.15c.531,0,.545-.078.545-.336v-.625Zm1.952-2.9-1.751,2.676h1.751Z" transform="translate(-2.295 -1.567)"/><path class="cls-2" d="M92.561,77.46A1.433,1.433,0,0,1,91,78.742H88.254v-.218h.168c.539,0,.554-.076.554-.329V74.5c0-.252-.015-.329-.554-.329h-.168v-.217h2.563a1.406,1.406,0,0,1,1.555,1.184c0,.518-.483.966-1.163,1.1A1.376,1.376,0,0,1,92.561,77.46Zm-1.989-1.282a1.056,1.056,0,0,0,1.121-1.036.931.931,0,0,0-.924-.967H89.9c-.329,0-.343.049-.343.281v1.722Zm1.289,1.275a1.049,1.049,0,0,0-.987-1.12H89.557v1.912c0,.231.014.279.343.279h.875A1.058,1.058,0,0,0,91.861,77.453Z" transform="translate(-2.295 -1.567)"/><path class="cls-2" d="M94.793,78.819c-1.065,0-1.065-.638-1.065-1.184v-1.05c0-.624,0-.645-.546-.645v-.217l1.03-.077v2.325c0,.364.028.694.616.694.511,0,.847-.476.847-1.086V76.333c0-.344-.055-.393-.546-.393v-.217l1.03-.077v2.486c0,.344.056.392.546.392v.218l-1.009.077v-.63A.955.955,0,0,1,94.793,78.819Z" transform="translate(-2.295 -1.567)"/><path class="cls-2" d="M97.375,77.061a.748.748,0,0,1-.3-.6c0-.392.266-.861,1.12-.861a1.079,1.079,0,0,1,.659.2.9.9,0,0,0,.119-.112c.091-.084.105-.084.14-.084.077,0,.077.049.077.168v.708c0,.133,0,.167-.091.167-.014,0-.077,0-.084-.062a.773.773,0,0,0-.82-.848c-.6,0-.784.287-.784.533,0,.406.469.5.861.574a1.427,1.427,0,0,1,.8.336.9.9,0,0,1,.294.665c0,.5-.322.974-1.128.974a1.046,1.046,0,0,1-.77-.3,1.585,1.585,0,0,0-.14.161c-.133.133-.14.14-.175.14-.077,0-.077-.049-.077-.168v-.925c0-.126,0-.175.091-.175.07,0,.077.028.1.119.133.6.385,1,.973,1,.547,0,.792-.281.792-.638,0-.5-.574-.616-.728-.644A1.835,1.835,0,0,1,97.375,77.061Z" transform="translate(-2.295 -1.567)"/><path class="cls-2" d="M103.549,78.9a1.286,1.286,0,0,1-1.267-1.282.347.347,0,1,1,.343.315.316.316,0,0,1-.119-.014,1.091,1.091,0,0,0,1.03.785.876.876,0,0,0,.749-.455,2.041,2.041,0,0,0,.168-.96,2.161,2.161,0,0,0-.126-.883.685.685,0,0,0-.6-.448,1.053,1.053,0,0,0-.9.49c-.028.042-.042.063-.091.063-.1,0-.1-.055-.1-.182V74.252c0-.112,0-.168.07-.168a.209.209,0,0,1,.084.021,2.274,2.274,0,0,0,.932.2,2.315,2.315,0,0,0,.952-.2.1.1,0,0,1,.056-.021.068.068,0,0,1,.07.077,1.526,1.526,0,0,1-1.351.729,2.226,2.226,0,0,1-.6-.091v1.365a1.233,1.233,0,0,1,.89-.357,1.437,1.437,0,0,1,1.33,1.534A1.547,1.547,0,0,1,103.549,78.9Z" transform="translate(-2.295 -1.567)"/><polyline class="cls-4" points="95.148 37.571 118.675 37.572 118.675 62.546 118.675 87.082 95.182 87.082"/><polyline class="cls-4" points="167.133 22.422 188.16 22.423 188.16 62.79 188.16 102.448 167.167 102.448"/><polyline class="cls-4" points="21.527 22.422 0.5 22.422 0.5 55.039 0.5 87.082 21.493 87.082"/><rect class="cls-5" x="79.577" y="91.967" width="5.669" height="5.669"/><rect class="cls-5" x="103.494" y="84.285" width="5.669" height="5.669"/><rect class="cls-5" x="103.494" y="99.65" width="5.669" height="5.669"/><rect class="cls-5" x="91.535" y="111.48" width="5.669" height="5.669"/><rect class="cls-5" x="79.577" y="19.587" width="5.669" height="5.669"/><rect class="cls-5" x="79.577" y="34.737" width="5.669" height="5.669"/><rect class="cls-5" x="103.494" y="34.737" width="5.669" height="5.669"/><rect class="cls-5" x="103.494" y="19.587" width="5.669" height="5.669"/><rect class="cls-5" x="91.535" y="46.893" width="5.669" height="5.669"/><path class="cls-2" d="M117.668,18.484h-.174c-.113-.967-.288-1.359-1.338-1.359h-.841c-.329,0-.343.049-.343.28v1.772h.6c.673,0,.743-.231.743-.82h.175v1.856h-.175c0-.6-.07-.819-.743-.819h-.6v1.723c0,.245,0,.336.665.336h.232v.217c-.253-.021-.89-.021-1.177-.021s-.819,0-1.065.021v-.217h.168c.539,0,.553-.077.553-.329v-3.67c0-.252-.014-.329-.553-.329h-.168v-.217h3.845Z" transform="translate(-2.295 -1.567)"/><path class="cls-2" d="M119.991,18.575a.478.478,0,0,1,.518.427.3.3,0,0,1-.3.308.289.289,0,0,1-.3-.3.3.3,0,0,1,.161-.273.18.18,0,0,0-.077-.007c-.533,0-.826.623-.826,1.316v1.079c0,.252.013.329.532.329h.146v.217c-.28-.021-.609-.021-.889-.021-.2,0-.525.014-.8.021v-.217c.468,0,.546,0,.546-.315V19.261c0-.343-.056-.393-.546-.393v-.216l.973-.077v.77A.98.98,0,0,1,119.991,18.575Z" transform="translate(-2.295 -1.567)"/><path class="cls-2" d="M122.441,21.747a1.564,1.564,0,0,1-1.548-1.576,1.554,1.554,0,1,1,3.1,0A1.56,1.56,0,0,1,122.441,21.747Zm.819-.693a2.114,2.114,0,0,0,.155-.938,1.914,1.914,0,0,0-.183-.974.918.918,0,0,0-.791-.455.941.941,0,0,0-.8.469,2.009,2.009,0,0,0-.168.96,2.083,2.083,0,0,0,.175.987.916.916,0,0,0,.8.469A.9.9,0,0,0,123.26,21.054Z" transform="translate(-2.295 -1.567)"/><path class="cls-2" d="M124.421,18.868v-.216l.988-.077v.735a1.1,1.1,0,0,1,1.036-.735.828.828,0,0,1,.931.686,1.11,1.11,0,0,1,1.016-.686.932.932,0,0,1,.735.259c.217.252.217.469.217,1.071v1.338c.007.21.183.21.547.21v.217c-.238-.007-.6-.021-.785-.021s-.546.014-.791.021v-.217c.47,0,.546,0,.546-.315V19.506c0-.4-.076-.777-.518-.777a1.022,1.022,0,0,0-.945,1.12v1.289c0,.315.076.315.546.315v.217c-.238-.007-.6-.021-.784-.021s-.547.014-.792.021v-.217c.469,0,.547,0,.547-.315V19.506c0-.4-.078-.777-.519-.777a1.022,1.022,0,0,0-.945,1.12v1.289c0,.315.077.315.546.315v.217c-.239-.007-.6-.021-.785-.021s-.546.014-.791.021v-.217c.469,0,.546,0,.546-.315V19.261C124.967,18.918,124.912,18.868,124.421,18.868Z" transform="translate(-2.295 -1.567)"/><path class="cls-2" d="M136.918,20.388a1.432,1.432,0,0,1-1.561,1.282h-2.746v-.217h.168c.54,0,.553-.077.553-.329V17.433c0-.252-.013-.329-.553-.329h-.168v-.217h2.563a1.406,1.406,0,0,1,1.555,1.183c0,.519-.483.967-1.162,1.1A1.374,1.374,0,0,1,136.918,20.388Zm-1.989-1.281a1.057,1.057,0,0,0,1.121-1.037.93.93,0,0,0-.925-.966h-.868c-.33,0-.343.049-.343.28v1.723Zm1.289,1.275a1.05,1.05,0,0,0-.988-1.121h-1.316v1.912c0,.231.013.28.343.28h.875A1.058,1.058,0,0,0,136.218,20.382Z" transform="translate(-2.295 -1.567)"/><path class="cls-2" d="M139.346,18.575a.479.479,0,0,1,.519.427.3.3,0,0,1-.3.308.29.29,0,0,1-.3-.3.3.3,0,0,1,.161-.273.177.177,0,0,0-.077-.007c-.532,0-.826.623-.826,1.316v1.079c0,.252.014.329.532.329h.147v.217c-.281-.021-.61-.021-.89-.021-.195,0-.524.014-.8.021v-.217c.469,0,.546,0,.546-.315V19.261c0-.343-.056-.393-.546-.393v-.216l.974-.077v.77A.978.978,0,0,1,139.346,18.575Z" transform="translate(-2.295 -1.567)"/><path class="cls-2" d="M141.466,21.747c-.441,0-1.121-.175-1.121-.742a1.02,1.02,0,0,1,.7-.91,3.4,3.4,0,0,1,1.289-.253v-.259a.793.793,0,0,0-.742-.9.983.983,0,0,0-.757.322c.323.007.358.238.358.322a.323.323,0,1,1-.645-.007c0-.462.484-.791,1.058-.791a1.341,1.341,0,0,1,.96.385,1.035,1.035,0,0,1,.252.826v1.4c0,.035.028.35.259.35.077,0,.252-.042.252-.448v-.392h.175v.392a.594.594,0,0,1-.574.665.588.588,0,0,1-.547-.574A.968.968,0,0,1,141.466,21.747ZM140.884,21a.6.6,0,0,0,.631.595.84.84,0,0,0,.819-.9v-.7C141.179,20.032,140.884,20.613,140.884,21Z" transform="translate(-2.295 -1.567)"/><path class="cls-2" d="M143.775,18.868v-.216l.988-.077v.735a1.1,1.1,0,0,1,1.036-.735.934.934,0,0,1,.736.259c.217.252.217.469.217,1.071v1.338c.007.21.182.21.546.21v.217c-.238-.007-.6-.021-.784-.021s-.547.014-.792.021v-.217c.47,0,.547,0,.547-.315V19.506c0-.4-.077-.777-.519-.777a1.022,1.022,0,0,0-.945,1.12v1.289c0,.315.077.315.546.315v.217c-.238-.007-.6-.021-.784-.021s-.546.014-.792.021v-.217c.47,0,.547,0,.547-.315V19.261C144.322,18.918,144.266,18.868,143.775,18.868Z" transform="translate(-2.295 -1.567)"/><path class="cls-2" d="M149.244,21.572a.916.916,0,0,0,.918-.735.08.08,0,0,1,.09-.07c.022,0,.091,0,.091.07a1.151,1.151,0,0,1-1.162.91,1.55,1.55,0,0,1-1.506-1.589,1.57,1.57,0,0,1,1.52-1.625c.539,0,1.071.272,1.071.749a.322.322,0,1,1-.643.007.316.316,0,0,1,.329-.322,1.145,1.145,0,0,0-.75-.259c-.371,0-.946.294-.946,1.435S148.873,21.572,149.244,21.572Z" transform="translate(-2.295 -1.567)"/><path class="cls-2" d="M151.315,17.5c0-.343-.056-.392-.546-.392v-.217l1.008-.078v2.452a1.109,1.109,0,0,1,1.015-.686.934.934,0,0,1,.736.259c.218.252.218.469.218,1.071v1.338c.006.21.181.21.545.21v.217c-.238-.007-.6-.021-.784-.021s-.547.014-.792.021v-.217c.47,0,.547,0,.547-.315V19.506c0-.4-.077-.777-.518-.777a1.022,1.022,0,0,0-.946,1.12v1.289c0,.315.077.315.546.315v.217c-.238-.007-.6-.021-.784-.021s-.546.014-.791.021v-.217c.469,0,.546,0,.546-.315Z" transform="translate(-2.295 -1.567)"/><path class="cls-2" d="M158.911,21.131a2.281,2.281,0,0,0,.665-.056,2.312,2.312,0,0,0,.154-.624h.175l-.2,1.219h-2.6c0-.168,0-.182.076-.259l1.345-1.5a2.509,2.509,0,0,0,.736-1.547c0-.575-.3-1.142-.938-1.142a1.011,1.011,0,0,0-.947.714.274.274,0,0,1,.092-.007.354.354,0,0,1,.371.364.368.368,0,1,1-.735-.021,1.293,1.293,0,0,1,1.309-1.267,1.376,1.376,0,0,1,1.485,1.359c0,.7-.42,1.078-1.513,2.044l-.742.722Z" transform="translate(-2.295 -1.567)"/><path d="M92.458,59.81a1.467,1.467,0,0,1-1.6,1.313H88.047V60.9h.171c.553,0,.567-.079.567-.337V56.782c0-.258-.014-.337-.567-.337h-.171v-.222h2.625a1.44,1.44,0,0,1,1.593,1.212c0,.531-.5.99-1.191,1.126A1.41,1.41,0,0,1,92.458,59.81ZM90.421,58.5a1.082,1.082,0,0,0,1.148-1.061.953.953,0,0,0-.947-.99h-.89c-.337,0-.351.05-.351.287V58.5Zm1.32,1.306a1.074,1.074,0,0,0-1.011-1.147H89.381v1.958c0,.237.014.287.351.287h.9A1.084,1.084,0,0,0,91.741,59.8Z" transform="translate(-2.295 -1.567)"/><path d="M94.746,61.2c-1.09,0-1.09-.652-1.09-1.212V58.913c0-.639,0-.66-.56-.66V58.03l1.055-.078v2.381c0,.373.028.711.631.711.524,0,.868-.488.868-1.112V58.655c0-.352-.057-.4-.56-.4V58.03l1.055-.078V60.5c0,.352.058.4.56.4v.223l-1.033.078v-.645A.98.98,0,0,1,94.746,61.2Z" transform="translate(-2.295 -1.567)"/><path d="M97.393,59.4a.765.765,0,0,1-.309-.61c0-.4.273-.882,1.148-.882a1.111,1.111,0,0,1,.675.2.945.945,0,0,0,.122-.115c.093-.085.107-.085.143-.085.079,0,.079.05.079.172v.724c0,.137,0,.172-.093.172-.015,0-.079,0-.086-.064a.793.793,0,0,0-.84-.868c-.617,0-.8.294-.8.545,0,.416.48.509.882.589a1.458,1.458,0,0,1,.818.343.93.93,0,0,1,.3.682c0,.516-.33,1-1.155,1a1.072,1.072,0,0,1-.789-.308,1.521,1.521,0,0,0-.143.165c-.137.136-.144.143-.18.143-.079,0-.079-.05-.079-.172v-.947c0-.129,0-.179.094-.179.071,0,.079.029.1.122.136.61.395,1.019,1,1.019.56,0,.811-.288.811-.653,0-.517-.588-.632-.746-.661A1.868,1.868,0,0,1,97.393,59.4Z" transform="translate(-2.295 -1.567)"/><path d="M104.265,60.57a2.309,2.309,0,0,0,.681-.058,2.338,2.338,0,0,0,.158-.638h.179l-.2,1.249h-2.662c0-.173,0-.187.079-.266l1.377-1.535a2.569,2.569,0,0,0,.753-1.586c0-.588-.308-1.169-.961-1.169a1.034,1.034,0,0,0-.968.731.277.277,0,0,1,.093-.007.363.363,0,0,1,.38.374.377.377,0,1,1-.753-.022,1.326,1.326,0,0,1,1.342-1.3,1.409,1.409,0,0,1,1.52,1.392c0,.718-.43,1.105-1.549,2.1l-.76.739Z" transform="translate(-2.295 -1.567)"/><path class="cls-2" d="M92.354,124.2a1.433,1.433,0,0,1-1.562,1.282H88.047v-.217h.168c.539,0,.553-.077.553-.33v-3.69c0-.252-.014-.33-.553-.33h-.168V120.7H90.61a1.406,1.406,0,0,1,1.555,1.184c0,.518-.483.967-1.163,1.1A1.376,1.376,0,0,1,92.354,124.2Zm-1.989-1.282a1.057,1.057,0,0,0,1.121-1.036.931.931,0,0,0-.925-.967h-.868c-.329,0-.344.049-.344.281v1.722Zm1.289,1.275a1.049,1.049,0,0,0-.988-1.12H89.349v1.912c0,.231.015.28.344.28h.875A1.059,1.059,0,0,0,91.654,124.192Z" transform="translate(-2.295 -1.567)"/><path class="cls-2" d="M94.586,125.558c-1.065,0-1.065-.638-1.065-1.184v-1.05c0-.623,0-.645-.546-.645v-.217l1.03-.077v2.325c0,.365.028.694.616.694.511,0,.847-.476.847-1.086v-1.246c0-.344-.056-.393-.546-.393v-.217l1.029-.077v2.486c0,.344.057.393.547.393v.217l-1.009.077v-.63A.955.955,0,0,1,94.586,125.558Z" transform="translate(-2.295 -1.567)"/><path class="cls-2" d="M97.168,123.8a.747.747,0,0,1-.3-.595c0-.393.267-.862,1.121-.862a1.079,1.079,0,0,1,.659.2.893.893,0,0,0,.118-.112c.092-.084.106-.084.141-.084.077,0,.077.049.077.168v.708c0,.133,0,.168-.091.168a.075.075,0,0,1-.084-.063.773.773,0,0,0-.82-.848c-.6,0-.784.288-.784.533,0,.406.469.5.861.574a1.427,1.427,0,0,1,.8.336.9.9,0,0,1,.294.665c0,.5-.322.974-1.128.974a1.046,1.046,0,0,1-.77-.3,1.585,1.585,0,0,0-.14.161c-.133.133-.14.14-.175.14-.078,0-.078-.049-.078-.168v-.925c0-.126,0-.175.092-.175.07,0,.077.028.1.119.133.6.385.995.973.995.546,0,.792-.281.792-.637,0-.5-.575-.617-.728-.645A1.835,1.835,0,0,1,97.168,123.8Z" transform="translate(-2.295 -1.567)"/><path class="cls-2" d="M103.342,125.635a1.287,1.287,0,0,1-1.268-1.282.348.348,0,1,1,.344.315.3.3,0,0,1-.119-.014,1.09,1.09,0,0,0,1.029.785.877.877,0,0,0,.75-.455,2.041,2.041,0,0,0,.168-.96,2.153,2.153,0,0,0-.126-.882.687.687,0,0,0-.6-.449,1.051,1.051,0,0,0-.9.491c-.028.041-.042.062-.091.062-.1,0-.1-.055-.1-.182v-2.072c0-.113,0-.169.07-.169a.209.209,0,0,1,.084.021,2.256,2.256,0,0,0,.931.2,2.317,2.317,0,0,0,.953-.2.1.1,0,0,1,.056-.021.068.068,0,0,1,.07.077,1.527,1.527,0,0,1-1.352.729,2.218,2.218,0,0,1-.595-.091V122.9a1.231,1.231,0,0,1,.889-.357,1.438,1.438,0,0,1,1.331,1.534A1.547,1.547,0,0,1,103.342,125.635Z" transform="translate(-2.295 -1.567)"/><path class="cls-2" d="M46.208,18.505h-.176c-.1-1.128-.2-1.359-1.26-1.359a3.3,3.3,0,0,0-.4.014c-.126.028-.126.126-.126.266v3.691c0,.238,0,.336.736.336h.28v.217c-.288-.021-1.009-.021-1.331-.021s-1.037,0-1.324.021v-.217h.28c.735,0,.735-.1.735-.336V17.426c0-.161,0-.238-.146-.266a2.953,2.953,0,0,0-.379-.014c-1.058,0-1.162.231-1.261,1.359h-.175l.133-1.576h4.279Z" transform="translate(-2.295 -1.567)"/><path class="cls-2" d="M48.208,21.747a1.564,1.564,0,0,1-1.548-1.576,1.554,1.554,0,1,1,3.1,0A1.56,1.56,0,0,1,48.208,21.747Zm.82-.693a2.126,2.126,0,0,0,.154-.938A1.914,1.914,0,0,0,49,19.142a.916.916,0,0,0-.791-.455.942.942,0,0,0-.8.469,2.009,2.009,0,0,0-.168.96,2.083,2.083,0,0,0,.175.987.917.917,0,0,0,.8.469A.9.9,0,0,0,49.028,21.054Z" transform="translate(-2.295 -1.567)"/><path class="cls-2" d="M56.855,20.388a1.433,1.433,0,0,1-1.562,1.282H52.547v-.217h.168c.54,0,.554-.077.554-.329V17.433c0-.252-.014-.329-.554-.329h-.168v-.217h2.564a1.405,1.405,0,0,1,1.554,1.183c0,.519-.483.967-1.162,1.1A1.376,1.376,0,0,1,56.855,20.388Zm-1.99-1.281a1.058,1.058,0,0,0,1.122-1.037.931.931,0,0,0-.925-.966h-.868c-.331,0-.344.049-.344.28v1.723Zm1.289,1.275a1.049,1.049,0,0,0-.988-1.121H53.85v1.912c0,.231.013.28.344.28h.875A1.058,1.058,0,0,0,56.154,20.382Z" transform="translate(-2.295 -1.567)"/><path class="cls-2" d="M59.282,18.575A.479.479,0,0,1,59.8,19a.3.3,0,0,1-.3.308.29.29,0,0,1-.3-.3.3.3,0,0,1,.162-.273.186.186,0,0,0-.078-.007c-.532,0-.826.623-.826,1.316v1.079c0,.252.014.329.532.329h.147v.217c-.28-.021-.609-.021-.89-.021-.2,0-.524.014-.8.021v-.217c.469,0,.546,0,.546-.315V19.261c0-.343-.055-.393-.546-.393v-.216l.974-.077v.77A.98.98,0,0,1,59.282,18.575Z" transform="translate(-2.295 -1.567)"/><path class="cls-2" d="M61.4,21.747c-.442,0-1.122-.175-1.122-.742a1.02,1.02,0,0,1,.7-.91,3.391,3.391,0,0,1,1.289-.253v-.259a.793.793,0,0,0-.743-.9.98.98,0,0,0-.756.322c.322.007.357.238.357.322a.322.322,0,1,1-.644-.007c0-.462.483-.791,1.057-.791a1.339,1.339,0,0,1,.96.385,1.035,1.035,0,0,1,.252.826v1.4c0,.035.028.35.259.35.077,0,.252-.042.252-.448v-.392h.176v.392a.6.6,0,0,1-.575.665.586.586,0,0,1-.546-.574A.969.969,0,0,1,61.4,21.747ZM60.821,21a.6.6,0,0,0,.631.595.841.841,0,0,0,.82-.9v-.7C61.116,20.032,60.821,20.613,60.821,21Z" transform="translate(-2.295 -1.567)"/><path class="cls-2" d="M63.713,18.868v-.216l.987-.077v.735a1.106,1.106,0,0,1,1.037-.735.933.933,0,0,1,.735.259c.218.252.218.469.218,1.071v1.338c.006.21.181.21.546.21v.217c-.239-.007-.6-.021-.785-.021s-.547.014-.792.021v-.217c.47,0,.547,0,.547-.315V19.506c0-.4-.077-.777-.518-.777a1.022,1.022,0,0,0-.946,1.12v1.289c0,.315.078.315.546.315v.217c-.238-.007-.6-.021-.784-.021s-.546.014-.791.021v-.217c.469,0,.546,0,.546-.315V19.261C64.259,18.918,64.2,18.868,63.713,18.868Z" transform="translate(-2.295 -1.567)"/><path class="cls-2" d="M69.18,21.572a.915.915,0,0,0,.918-.735c.014-.042.028-.07.091-.07.021,0,.09,0,.09.07a1.151,1.151,0,0,1-1.162.91,1.549,1.549,0,0,1-1.505-1.589,1.569,1.569,0,0,1,1.519-1.625c.539,0,1.071.272,1.071.749a.322.322,0,1,1-.643.007.316.316,0,0,1,.329-.322,1.143,1.143,0,0,0-.75-.259c-.371,0-.945.294-.945,1.435S68.809,21.572,69.18,21.572Z" transform="translate(-2.295 -1.567)"/><path class="cls-2" d="M71.251,17.5c0-.343-.055-.392-.546-.392v-.217l1.008-.078v2.452a1.109,1.109,0,0,1,1.016-.686.933.933,0,0,1,.735.259c.218.252.218.469.218,1.071v1.338c.007.21.181.21.546.21v.217c-.239-.007-.6-.021-.784-.021s-.547.014-.792.021v-.217c.469,0,.546,0,.546-.315V19.506c0-.4-.077-.777-.518-.777a1.022,1.022,0,0,0-.945,1.12v1.289c0,.315.077.315.545.315v.217c-.238-.007-.6-.021-.784-.021s-.546.014-.791.021v-.217c.469,0,.546,0,.546-.315Z" transform="translate(-2.295 -1.567)"/><path class="cls-2" d="M78.756,21.117c0,.259.021.336.651.336h.224v.217c-.245-.021-.854-.021-1.135-.021s-.889,0-1.134.021v-.217h.224c.63,0,.651-.084.651-.336V17.489a2.1,2.1,0,0,1-.917.182v-.217a1.733,1.733,0,0,0,1.275-.448c.161,0,.161.014.161.182Z" transform="translate(-2.295 -1.567)"/><path class="cls-2" d="M37.143,33.556h-.175c-.112-.967-.287-1.359-1.338-1.359h-.841c-.329,0-.343.049-.343.281v1.771h.6c.673,0,.743-.231.743-.819h.175v1.856h-.175c0-.6-.07-.82-.743-.82h-.6v1.723c0,.246,0,.336.666.336h.231v.218c-.253-.021-.89-.021-1.177-.021s-.819,0-1.064.021v-.218h.168c.539,0,.552-.076.552-.329v-3.67c0-.252-.013-.329-.552-.329H33.1V31.98h3.844Z" transform="translate(-2.295 -1.567)"/><path class="cls-2" d="M39.465,33.647a.479.479,0,0,1,.519.427.3.3,0,0,1-.3.308.29.29,0,0,1-.3-.3.3.3,0,0,1,.161-.273.177.177,0,0,0-.077-.007c-.532,0-.826.623-.826,1.317V36.2c0,.253.014.329.532.329h.147v.218c-.281-.021-.61-.021-.89-.021-.2,0-.524.014-.8.021v-.218c.469,0,.546,0,.546-.315V34.333c0-.343-.056-.392-.546-.392v-.217l.974-.077v.77A.978.978,0,0,1,39.465,33.647Z" transform="translate(-2.295 -1.567)"/><path class="cls-2" d="M41.915,36.82a1.564,1.564,0,0,1-1.548-1.576,1.554,1.554,0,1,1,3.1,0A1.561,1.561,0,0,1,41.915,36.82Zm.82-.694a2.126,2.126,0,0,0,.154-.938,1.918,1.918,0,0,0-.183-.974.916.916,0,0,0-.791-.455.942.942,0,0,0-.8.469,2.013,2.013,0,0,0-.168.96,2.083,2.083,0,0,0,.175.987.915.915,0,0,0,.8.469A.9.9,0,0,0,42.735,36.126Z" transform="translate(-2.295 -1.567)"/><path class="cls-2" d="M43.9,33.941v-.217l.987-.077v.735a1.1,1.1,0,0,1,1.036-.735.829.829,0,0,1,.932.686,1.109,1.109,0,0,1,1.015-.686.934.934,0,0,1,.736.259c.217.252.217.469.217,1.072v1.337c.006.21.182.21.546.21v.218c-.238-.007-.6-.021-.785-.021s-.546.014-.791.021v-.218c.47,0,.546,0,.546-.315V34.579c0-.4-.076-.778-.517-.778a1.023,1.023,0,0,0-.946,1.121V36.21c0,.315.076.315.546.315v.218c-.238-.007-.6-.021-.784-.021s-.547.014-.792.021v-.218c.47,0,.547,0,.547-.315V34.579c0-.4-.077-.778-.519-.778a1.023,1.023,0,0,0-.945,1.121V36.21c0,.315.077.315.546.315v.218c-.238-.007-.6-.021-.784-.021s-.546.014-.791.021v-.218c.468,0,.546,0,.546-.315V34.333C44.442,33.99,44.386,33.941,43.9,33.941Z" transform="translate(-2.295 -1.567)"/><path class="cls-2" d="M56.393,35.461a1.433,1.433,0,0,1-1.562,1.282H52.085v-.218h.168c.54,0,.554-.076.554-.329V32.505c0-.252-.014-.329-.554-.329h-.168v-.217h2.564A1.405,1.405,0,0,1,56.2,33.143c0,.518-.483.966-1.162,1.1A1.376,1.376,0,0,1,56.393,35.461ZM54.4,34.179a1.057,1.057,0,0,0,1.121-1.036.931.931,0,0,0-.925-.967h-.868c-.33,0-.344.049-.344.281v1.722Zm1.289,1.275a1.051,1.051,0,0,0-.989-1.121H53.388v1.913c0,.231.014.279.344.279h.875A1.059,1.059,0,0,0,55.693,35.454Z" transform="translate(-2.295 -1.567)"/><path class="cls-2" d="M58.821,33.647a.478.478,0,0,1,.518.427.3.3,0,0,1-.3.308.289.289,0,0,1-.3-.3.3.3,0,0,1,.161-.273.183.183,0,0,0-.077-.007c-.533,0-.827.623-.827,1.317V36.2c0,.253.014.329.533.329h.146v.218c-.28-.021-.609-.021-.89-.021-.2,0-.524.014-.8.021v-.218c.468,0,.545,0,.545-.315V34.333c0-.343-.055-.392-.545-.392v-.217l.973-.077v.77A.98.98,0,0,1,58.821,33.647Z" transform="translate(-2.295 -1.567)"/><path class="cls-2" d="M60.941,36.82c-.442,0-1.121-.176-1.121-.743a1.02,1.02,0,0,1,.7-.91,3.408,3.408,0,0,1,1.289-.252v-.259a.794.794,0,0,0-.742-.9.984.984,0,0,0-.757.322c.322.007.357.238.357.322a.322.322,0,1,1-.644-.007c0-.462.483-.791,1.057-.791a1.339,1.339,0,0,1,.96.385,1.035,1.035,0,0,1,.252.826v1.4c0,.035.029.35.259.35.077,0,.252-.042.252-.448v-.392h.176v.392a.6.6,0,0,1-.575.666.586.586,0,0,1-.546-.575A.968.968,0,0,1,60.941,36.82Zm-.582-.75a.6.6,0,0,0,.63.595.84.84,0,0,0,.82-.9v-.7C60.654,35.1,60.359,35.685,60.359,36.07Z" transform="translate(-2.295 -1.567)"/><path class="cls-2" d="M63.249,33.941v-.217l.988-.077v.735a1.106,1.106,0,0,1,1.037-.735.933.933,0,0,1,.735.259c.218.252.218.469.218,1.072v1.337c.007.21.181.21.546.21v.218c-.239-.007-.6-.021-.785-.021s-.546.014-.792.021v-.218c.47,0,.547,0,.547-.315V34.579c0-.4-.077-.778-.518-.778a1.023,1.023,0,0,0-.946,1.121V36.21c0,.315.078.315.546.315v.218c-.238-.007-.6-.021-.784-.021s-.546.014-.792.021v-.218c.47,0,.547,0,.547-.315V34.333C63.8,33.99,63.74,33.941,63.249,33.941Z" transform="translate(-2.295 -1.567)"/><path class="cls-2" d="M68.718,36.644a.913.913,0,0,0,.918-.735c.014-.042.028-.07.091-.07.021,0,.091,0,.091.07a1.153,1.153,0,0,1-1.163.911,1.55,1.55,0,0,1-1.5-1.59A1.569,1.569,0,0,1,68.669,33.6c.539,0,1.071.273,1.071.749a.322.322,0,1,1-.643.007.316.316,0,0,1,.329-.322,1.143,1.143,0,0,0-.75-.259c-.371,0-.945.294-.945,1.436C67.731,36.343,68.347,36.644,68.718,36.644Z" transform="translate(-2.295 -1.567)"/><path class="cls-2" d="M70.789,32.568c0-.343-.055-.392-.546-.392v-.217l1.008-.077v2.451a1.109,1.109,0,0,1,1.016-.686.933.933,0,0,1,.735.259c.218.252.218.469.218,1.072v1.337c.007.21.182.21.546.21v.218c-.238-.007-.6-.021-.784-.021s-.547.014-.792.021v-.218c.469,0,.547,0,.547-.315V34.579c0-.4-.078-.778-.519-.778a1.023,1.023,0,0,0-.945,1.121V36.21c0,.315.077.315.546.315v.218c-.239-.007-.6-.021-.785-.021s-.546.014-.791.021v-.218c.469,0,.546,0,.546-.315Z" transform="translate(-2.295 -1.567)"/><path class="cls-2" d="M78.623,33.808a3.077,3.077,0,0,0-.434,1.2,7.843,7.843,0,0,0-.077,1.148v.358c0,.07,0,.385-.323.385s-.322-.315-.322-.385a4.9,4.9,0,0,1,.861-2.634c.155-.231.708-.994.785-1.107h-1.45a3.541,3.541,0,0,0-.686.042,1.937,1.937,0,0,0-.175.638h-.175l.231-1.443h.175c.028.133.042.224.9.224h1.7c0,.147,0,.162-.062.246Z" transform="translate(-2.295 -1.567)"/><path class="cls-2" d="M37.4,90.632H37.22c-.112-.966-.287-1.359-1.338-1.359h-.841c-.329,0-.343.049-.343.281v1.772h.6c.673,0,.743-.232.743-.82h.175v1.856h-.175c0-.595-.07-.82-.743-.82h-.6v1.724c0,.245,0,.336.665.336H35.6v.217c-.253-.021-.89-.021-1.177-.021s-.819,0-1.064.021V93.6h.168c.539,0,.552-.077.552-.33V89.6c0-.252-.013-.33-.552-.33h-.168v-.217H37.2Z" transform="translate(-2.295 -1.567)"/><path class="cls-2" d="M39.717,90.723a.479.479,0,0,1,.519.427.3.3,0,0,1-.3.308.289.289,0,0,1-.3-.3.3.3,0,0,1,.161-.273.18.18,0,0,0-.077-.007c-.532,0-.826.623-.826,1.317v1.078c0,.253.013.33.532.33h.147v.217c-.281-.021-.61-.021-.89-.021-.2,0-.525.014-.8.021V93.6c.469,0,.546,0,.546-.315V91.41c0-.344-.056-.393-.546-.393V90.8l.974-.077v.771A.978.978,0,0,1,39.717,90.723Z" transform="translate(-2.295 -1.567)"/><path class="cls-2" d="M42.167,93.9a1.564,1.564,0,0,1-1.548-1.576,1.554,1.554,0,1,1,3.1,0A1.561,1.561,0,0,1,42.167,93.9Zm.82-.693a2.131,2.131,0,0,0,.154-.939,1.912,1.912,0,0,0-.183-.973.915.915,0,0,0-.791-.456.941.941,0,0,0-.8.47,2.007,2.007,0,0,0-.168.959,2.083,2.083,0,0,0,.175.987.916.916,0,0,0,.8.47A.9.9,0,0,0,42.987,93.2Z" transform="translate(-2.295 -1.567)"/><path class="cls-2" d="M44.148,91.017V90.8l.987-.077v.735a1.1,1.1,0,0,1,1.036-.735.829.829,0,0,1,.932.687,1.108,1.108,0,0,1,1.015-.687.934.934,0,0,1,.736.259c.217.252.217.47.217,1.072v1.338c.006.21.182.21.546.21v.217c-.238-.007-.6-.021-.785-.021s-.546.014-.791.021V93.6c.47,0,.546,0,.546-.315V91.655c0-.4-.076-.778-.517-.778A1.023,1.023,0,0,0,47.124,92v1.289c0,.315.076.315.546.315v.217c-.238-.007-.6-.021-.784-.021s-.547.014-.792.021V93.6c.47,0,.547,0,.547-.315V91.655c0-.4-.077-.778-.519-.778A1.023,1.023,0,0,0,45.177,92v1.289c0,.315.077.315.546.315v.217c-.238-.007-.6-.021-.784-.021s-.546.014-.791.021V93.6c.468,0,.546,0,.546-.315V91.41C44.694,91.066,44.638,91.017,44.148,91.017Z" transform="translate(-2.295 -1.567)"/><path class="cls-2" d="M56.645,92.537a1.433,1.433,0,0,1-1.562,1.282H52.337V93.6h.168c.54,0,.554-.077.554-.33v-3.69c0-.252-.014-.33-.554-.33h-.168v-.217H54.9a1.405,1.405,0,0,1,1.554,1.184,1.271,1.271,0,0,1-1.162,1.1A1.376,1.376,0,0,1,56.645,92.537Zm-1.99-1.282a1.057,1.057,0,0,0,1.122-1.036.932.932,0,0,0-.925-.967h-.868c-.33,0-.344.049-.344.281v1.722Zm1.29,1.275a1.05,1.05,0,0,0-.989-1.12H53.64v1.912c0,.231.014.28.344.28h.875A1.06,1.06,0,0,0,55.945,92.53Z" transform="translate(-2.295 -1.567)"/><path class="cls-2" d="M59.072,90.723a.479.479,0,0,1,.519.427.3.3,0,0,1-.3.308.29.29,0,0,1-.3-.3.3.3,0,0,1,.162-.273.186.186,0,0,0-.078-.007c-.532,0-.826.623-.826,1.317v1.078c0,.253.014.33.533.33h.146v.217c-.28-.021-.609-.021-.89-.021-.195,0-.524.014-.8.021V93.6c.469,0,.546,0,.546-.315V91.41c0-.344-.055-.393-.546-.393V90.8l.974-.077v.771A.98.98,0,0,1,59.072,90.723Z" transform="translate(-2.295 -1.567)"/><path class="cls-2" d="M61.193,93.9c-.442,0-1.122-.175-1.122-.743a1.021,1.021,0,0,1,.7-.91,3.408,3.408,0,0,1,1.289-.252v-.259a.794.794,0,0,0-.742-.9.984.984,0,0,0-.757.322c.322.008.357.238.357.322a.322.322,0,1,1-.644-.006c0-.463.483-.792,1.057-.792a1.339,1.339,0,0,1,.96.385,1.039,1.039,0,0,1,.252.827v1.4c0,.036.028.351.259.351.077,0,.252-.042.252-.449V92.8h.176V93.2a.6.6,0,0,1-.575.666.586.586,0,0,1-.546-.574A.969.969,0,0,1,61.193,93.9Zm-.582-.75a.6.6,0,0,0,.63.6.841.841,0,0,0,.82-.9v-.7C60.905,92.18,60.611,92.761,60.611,93.146Z" transform="translate(-2.295 -1.567)"/><path class="cls-2" d="M63.5,91.017V90.8l.988-.077v.735a1.106,1.106,0,0,1,1.037-.735.933.933,0,0,1,.735.259c.218.252.218.47.218,1.072v1.338c.007.21.181.21.546.21v.217c-.239-.007-.6-.021-.785-.021s-.546.014-.792.021V93.6c.47,0,.547,0,.547-.315V91.655c0-.4-.077-.778-.518-.778A1.024,1.024,0,0,0,64.531,92v1.289c0,.315.078.315.546.315v.217c-.238-.007-.6-.021-.784-.021s-.546.014-.792.021V93.6c.47,0,.547,0,.547-.315V91.41C64.048,91.066,63.992,91.017,63.5,91.017Z" transform="translate(-2.295 -1.567)"/><path class="cls-2" d="M68.97,93.721a.915.915,0,0,0,.918-.736.08.08,0,0,1,.091-.069c.021,0,.091,0,.091.069a1.152,1.152,0,0,1-1.163.911,1.55,1.55,0,0,1-1.5-1.59,1.569,1.569,0,0,1,1.519-1.625c.539,0,1.071.273,1.071.75a.322.322,0,1,1-.643.006.316.316,0,0,1,.329-.322,1.143,1.143,0,0,0-.75-.259c-.371,0-.945.294-.945,1.436C67.983,93.419,68.6,93.721,68.97,93.721Z" transform="translate(-2.295 -1.567)"/><path class="cls-2" d="M71.041,89.645c0-.344-.055-.393-.546-.393v-.217l1.008-.077V91.41a1.11,1.11,0,0,1,1.016-.687.933.933,0,0,1,.735.259c.218.252.218.47.218,1.072v1.338c.007.21.182.21.546.21v.217c-.239-.007-.6-.021-.784-.021s-.547.014-.792.021V93.6c.469,0,.546,0,.546-.315V91.655c0-.4-.077-.778-.518-.778A1.023,1.023,0,0,0,71.525,92v1.289c0,.315.077.315.546.315v.217c-.239-.007-.6-.021-.785-.021s-.546.014-.791.021V93.6c.469,0,.546,0,.546-.315Z" transform="translate(-2.295 -1.567)"/><path class="cls-2" d="M78.105,93.973a1.286,1.286,0,0,1-1.268-1.282.347.347,0,1,1,.343.315.316.316,0,0,1-.119-.014,1.09,1.09,0,0,0,1.029.785.877.877,0,0,0,.75-.455,2.041,2.041,0,0,0,.168-.96,2.161,2.161,0,0,0-.126-.883.686.686,0,0,0-.6-.448,1.053,1.053,0,0,0-.9.49c-.028.042-.042.063-.091.063-.1,0-.1-.055-.1-.182V89.33c0-.113,0-.169.07-.169a.209.209,0,0,1,.084.021,2.256,2.256,0,0,0,.931.2,2.317,2.317,0,0,0,.953-.2.1.1,0,0,1,.056-.021.068.068,0,0,1,.07.077,1.529,1.529,0,0,1-1.352.729,2.218,2.218,0,0,1-.595-.091v1.365a1.232,1.232,0,0,1,.89-.357,1.437,1.437,0,0,1,1.33,1.534A1.547,1.547,0,0,1,78.105,93.973Z" transform="translate(-2.295 -1.567)"/><path class="cls-2" d="M118.173,107.988H118c-.1-1.128-.2-1.359-1.261-1.359a3.3,3.3,0,0,0-.4.014c-.126.028-.126.126-.126.267v3.69c0,.239,0,.336.736.336h.28v.218c-.288-.021-1.009-.021-1.331-.021s-1.037,0-1.324.021v-.218h.28c.735,0,.735-.1.735-.336v-3.69c0-.162,0-.239-.146-.267a2.945,2.945,0,0,0-.379-.014c-1.058,0-1.162.231-1.261,1.359h-.175l.133-1.576h4.28Z" transform="translate(-2.295 -1.567)"/><path class="cls-2" d="M120.173,111.231a1.564,1.564,0,0,1-1.548-1.576,1.554,1.554,0,1,1,3.1,0A1.561,1.561,0,0,1,120.173,111.231Zm.82-.694a2.126,2.126,0,0,0,.154-.938,1.918,1.918,0,0,0-.183-.974.916.916,0,0,0-.791-.455.941.941,0,0,0-.8.47,2.007,2.007,0,0,0-.168.959,2.083,2.083,0,0,0,.175.987.916.916,0,0,0,.8.47A.905.905,0,0,0,120.993,110.537Z" transform="translate(-2.295 -1.567)"/><path class="cls-2" d="M128.82,109.872a1.433,1.433,0,0,1-1.562,1.282h-2.746v-.218h.168c.54,0,.554-.076.554-.329v-3.691c0-.252-.014-.329-.554-.329h-.168v-.217h2.564a1.405,1.405,0,0,1,1.554,1.184c0,.518-.483.966-1.162,1.1A1.376,1.376,0,0,1,128.82,109.872Zm-1.989-1.282a1.057,1.057,0,0,0,1.121-1.036.931.931,0,0,0-.925-.967h-.868c-.33,0-.344.049-.344.281v1.722Zm1.289,1.275a1.05,1.05,0,0,0-.989-1.12h-1.316v1.912c0,.231.014.279.344.279h.875A1.059,1.059,0,0,0,128.12,109.865Z" transform="translate(-2.295 -1.567)"/><path class="cls-2" d="M131.248,108.058a.478.478,0,0,1,.518.427.3.3,0,0,1-.3.308.289.289,0,0,1-.3-.3.3.3,0,0,1,.161-.273.183.183,0,0,0-.077-.007c-.533,0-.827.623-.827,1.317v1.078c0,.253.014.329.533.329h.146v.218c-.28-.021-.609-.021-.89-.021-.2,0-.524.014-.8.021v-.218c.468,0,.545,0,.545-.315v-1.876c0-.344-.055-.393-.545-.393v-.217l.973-.077v.77A.98.98,0,0,1,131.248,108.058Z" transform="translate(-2.295 -1.567)"/><path class="cls-2" d="M133.369,111.231c-.442,0-1.121-.175-1.121-.743a1.02,1.02,0,0,1,.7-.91,3.408,3.408,0,0,1,1.289-.252v-.259a.794.794,0,0,0-.742-.9.984.984,0,0,0-.757.322c.322.007.357.238.357.322a.322.322,0,1,1-.644-.007c0-.462.483-.791,1.057-.791a1.339,1.339,0,0,1,.96.385,1.037,1.037,0,0,1,.252.826v1.4c0,.035.028.35.259.35.077,0,.252-.042.252-.448v-.392h.176v.392a.6.6,0,0,1-.575.666.586.586,0,0,1-.546-.575A.968.968,0,0,1,133.369,111.231Zm-.582-.75a.6.6,0,0,0,.63.6.841.841,0,0,0,.82-.9v-.7C133.081,109.515,132.787,110.1,132.787,110.481Z" transform="translate(-2.295 -1.567)"/><path class="cls-2" d="M135.678,108.352v-.217l.987-.077v.735a1.106,1.106,0,0,1,1.037-.735.933.933,0,0,1,.735.259c.218.252.218.47.218,1.072v1.337c.007.21.181.21.546.21v.218c-.239-.007-.6-.021-.785-.021s-.546.014-.792.021v-.218c.47,0,.547,0,.547-.315V108.99c0-.4-.077-.778-.518-.778a1.023,1.023,0,0,0-.946,1.121v1.288c0,.315.078.315.546.315v.218c-.238-.007-.6-.021-.784-.021s-.546.014-.791.021v-.218c.469,0,.546,0,.546-.315v-1.876C136.224,108.4,136.168,108.352,135.678,108.352Z" transform="translate(-2.295 -1.567)"/><path class="cls-2" d="M141.145,111.056a.915.915,0,0,0,.918-.736c.014-.042.028-.07.091-.07.021,0,.091,0,.091.07a1.152,1.152,0,0,1-1.163.911,1.55,1.55,0,0,1-1.5-1.59,1.569,1.569,0,0,1,1.519-1.625c.539,0,1.071.273,1.071.75a.322.322,0,1,1-.643.006.316.316,0,0,1,.329-.322,1.143,1.143,0,0,0-.75-.259c-.371,0-.945.294-.945,1.436S140.774,111.056,141.145,111.056Z" transform="translate(-2.295 -1.567)"/><path class="cls-2" d="M143.216,106.979c0-.343-.055-.392-.546-.392v-.217l1.008-.077v2.452a1.108,1.108,0,0,1,1.016-.687.933.933,0,0,1,.735.259c.218.252.218.47.218,1.072v1.337c.007.21.182.21.546.21v.218c-.238-.007-.6-.021-.784-.021s-.547.014-.792.021v-.218c.469,0,.547,0,.547-.315V108.99c0-.4-.078-.778-.519-.778a1.023,1.023,0,0,0-.945,1.121v1.288c0,.315.077.315.546.315v.218c-.239-.007-.6-.021-.785-.021s-.546.014-.791.021v-.218c.469,0,.546,0,.546-.315Z" transform="translate(-2.295 -1.567)"/><path class="cls-2" d="M148.858,110v-.217l2.15-3.285c.056-.084.076-.084.14-.084.112,0,.112.042.112.182v3.187h.7V110h-.7v.609c0,.253.014.329.532.329h.147v.218c-.287-.021-.658-.021-.952-.021s-.658,0-.946.021v-.218h.147c.518,0,.533-.076.533-.329V110Zm1.905-2.83-1.709,2.613h1.709Z" transform="translate(-2.295 -1.567)"/><path class="cls-2" d="M118.173,33.577H118c-.1-1.128-.2-1.359-1.261-1.359a3.3,3.3,0,0,0-.4.014c-.126.028-.126.126-.126.267v3.69c0,.239,0,.336.736.336h.28v.218c-.288-.021-1.009-.021-1.331-.021s-1.037,0-1.324.021v-.218h.28c.735,0,.735-.1.735-.336V32.5c0-.162,0-.239-.146-.267a2.945,2.945,0,0,0-.379-.014c-1.058,0-1.162.231-1.261,1.359h-.175L113.76,32h4.28Z" transform="translate(-2.295 -1.567)"/><path class="cls-2" d="M120.173,36.82a1.564,1.564,0,0,1-1.548-1.576,1.554,1.554,0,1,1,3.1,0A1.561,1.561,0,0,1,120.173,36.82Zm.82-.694a2.126,2.126,0,0,0,.154-.938,1.918,1.918,0,0,0-.183-.974.916.916,0,0,0-.791-.455.942.942,0,0,0-.8.469,2.013,2.013,0,0,0-.168.96,2.083,2.083,0,0,0,.175.987.915.915,0,0,0,.8.469A.9.9,0,0,0,120.993,36.126Z" transform="translate(-2.295 -1.567)"/><path class="cls-2" d="M128.82,35.461a1.433,1.433,0,0,1-1.562,1.282h-2.746v-.218h.168c.54,0,.554-.076.554-.329V32.505c0-.252-.014-.329-.554-.329h-.168v-.217h2.564a1.405,1.405,0,0,1,1.554,1.184c0,.518-.483.966-1.162,1.1A1.376,1.376,0,0,1,128.82,35.461Zm-1.989-1.282a1.057,1.057,0,0,0,1.121-1.036.931.931,0,0,0-.925-.967h-.868c-.33,0-.344.049-.344.281v1.722Zm1.289,1.275a1.051,1.051,0,0,0-.989-1.121h-1.316v1.913c0,.231.014.279.344.279h.875A1.059,1.059,0,0,0,128.12,35.454Z" transform="translate(-2.295 -1.567)"/><path class="cls-2" d="M131.248,33.647a.478.478,0,0,1,.518.427.3.3,0,0,1-.3.308.289.289,0,0,1-.3-.3.3.3,0,0,1,.161-.273.183.183,0,0,0-.077-.007c-.533,0-.827.623-.827,1.317V36.2c0,.253.014.329.533.329h.146v.218c-.28-.021-.609-.021-.89-.021-.2,0-.524.014-.8.021v-.218c.468,0,.545,0,.545-.315V34.333c0-.343-.055-.392-.545-.392v-.217l.973-.077v.77A.98.98,0,0,1,131.248,33.647Z" transform="translate(-2.295 -1.567)"/><path class="cls-2" d="M133.369,36.82c-.442,0-1.121-.176-1.121-.743a1.02,1.02,0,0,1,.7-.91,3.408,3.408,0,0,1,1.289-.252v-.259a.794.794,0,0,0-.742-.9.984.984,0,0,0-.757.322c.322.007.357.238.357.322a.322.322,0,1,1-.644-.007c0-.462.483-.791,1.057-.791a1.339,1.339,0,0,1,.96.385,1.035,1.035,0,0,1,.252.826v1.4c0,.035.028.35.259.35.077,0,.252-.042.252-.448v-.392h.176v.392a.6.6,0,0,1-.575.666.586.586,0,0,1-.546-.575A.968.968,0,0,1,133.369,36.82Zm-.582-.75a.6.6,0,0,0,.63.595.84.84,0,0,0,.82-.9v-.7C133.081,35.1,132.787,35.685,132.787,36.07Z" transform="translate(-2.295 -1.567)"/><path class="cls-2" d="M135.678,33.941v-.217l.987-.077v.735a1.106,1.106,0,0,1,1.037-.735.933.933,0,0,1,.735.259c.218.252.218.469.218,1.072v1.337c.007.21.181.21.546.21v.218c-.239-.007-.6-.021-.785-.021s-.546.014-.792.021v-.218c.47,0,.547,0,.547-.315V34.579c0-.4-.077-.778-.518-.778a1.023,1.023,0,0,0-.946,1.121V36.21c0,.315.078.315.546.315v.218c-.238-.007-.6-.021-.784-.021s-.546.014-.791.021v-.218c.469,0,.546,0,.546-.315V34.333C136.224,33.99,136.168,33.941,135.678,33.941Z" transform="translate(-2.295 -1.567)"/><path class="cls-2" d="M141.145,36.644a.913.913,0,0,0,.918-.735c.014-.042.028-.07.091-.07.021,0,.091,0,.091.07a1.153,1.153,0,0,1-1.163.911,1.55,1.55,0,0,1-1.5-1.59A1.569,1.569,0,0,1,141.1,33.6c.539,0,1.071.273,1.071.749a.322.322,0,1,1-.643.007.316.316,0,0,1,.329-.322,1.143,1.143,0,0,0-.75-.259c-.371,0-.945.294-.945,1.436C140.158,36.343,140.774,36.644,141.145,36.644Z" transform="translate(-2.295 -1.567)"/><path class="cls-2" d="M143.216,32.568c0-.343-.055-.392-.546-.392v-.217l1.008-.077v2.451a1.109,1.109,0,0,1,1.016-.686.933.933,0,0,1,.735.259c.218.252.218.469.218,1.072v1.337c.007.21.182.21.546.21v.218c-.238-.007-.6-.021-.784-.021s-.547.014-.792.021v-.218c.469,0,.547,0,.547-.315V34.579c0-.4-.078-.778-.519-.778a1.023,1.023,0,0,0-.945,1.121V36.21c0,.315.077.315.546.315v.218c-.239-.007-.6-.021-.785-.021s-.546.014-.791.021v-.218c.469,0,.546,0,.546-.315Z" transform="translate(-2.295 -1.567)"/><path class="cls-2" d="M151.519,34.705a1.262,1.262,0,0,1,.344.861,1.4,1.4,0,0,1-1.457,1.331,1.337,1.337,0,0,1-1.45-1.212,1.549,1.549,0,0,1,1.008-1.289,4.5,4.5,0,0,1-.511-.378,1.119,1.119,0,0,1-.308-.77,1.218,1.218,0,0,1,1.268-1.17,1.157,1.157,0,0,1,1.26,1.044,1.3,1.3,0,0,1-.847,1.085A2.944,2.944,0,0,1,151.519,34.705Zm-2.213.98a1.056,1.056,0,0,0,1.107,1.016,1.008,1.008,0,0,0,1.1-.883.937.937,0,0,0-.525-.77l-.862-.547A1.374,1.374,0,0,0,149.306,35.685Zm1.365-1.583a1.187,1.187,0,0,0,.694-.98.914.914,0,0,0-.959-.869c-.5,0-.953.294-.953.722a.653.653,0,0,0,.35.567Z" transform="translate(-2.295 -1.567)"/><path class="cls-2" d="M117.668,92.564h-.174c-.113-.967-.288-1.359-1.338-1.359h-.841c-.329,0-.343.049-.343.281v1.772h.6c.673,0,.743-.232.743-.82h.175v1.856h-.175c0-.595-.07-.82-.743-.82h-.6V95.2c0,.245,0,.336.665.336h.232v.217c-.253-.021-.89-.021-1.177-.021s-.819,0-1.065.021v-.217h.168c.539,0,.553-.077.553-.33v-3.67c0-.251-.014-.329-.553-.329h-.168v-.217h3.845Z" transform="translate(-2.295 -1.567)"/><path class="cls-2" d="M119.991,92.655a.478.478,0,0,1,.518.427.3.3,0,0,1-.3.308.289.289,0,0,1-.3-.3.3.3,0,0,1,.161-.273.18.18,0,0,0-.077-.007c-.533,0-.826.623-.826,1.317V95.2c0,.253.013.33.532.33h.146v.217c-.28-.021-.609-.021-.889-.021-.2,0-.525.014-.8.021v-.217c.468,0,.546,0,.546-.315V93.342c0-.344-.056-.393-.546-.393v-.217l.973-.077v.771A.98.98,0,0,1,119.991,92.655Z" transform="translate(-2.295 -1.567)"/><path class="cls-2" d="M122.441,95.828a1.564,1.564,0,0,1-1.548-1.576,1.554,1.554,0,1,1,3.1,0A1.561,1.561,0,0,1,122.441,95.828Zm.819-.693a2.12,2.12,0,0,0,.155-.939,1.918,1.918,0,0,0-.183-.974.918.918,0,0,0-.791-.455.94.94,0,0,0-.8.47,2.007,2.007,0,0,0-.168.959,2.083,2.083,0,0,0,.175.987.915.915,0,0,0,.8.47A.9.9,0,0,0,123.26,95.135Z" transform="translate(-2.295 -1.567)"/><path class="cls-2" d="M124.421,92.949v-.217l.988-.077v.735a1.1,1.1,0,0,1,1.036-.735.828.828,0,0,1,.931.687,1.11,1.11,0,0,1,1.016-.687.932.932,0,0,1,.735.259c.217.252.217.47.217,1.072v1.338c.007.21.183.21.547.21v.217c-.238-.007-.6-.021-.785-.021s-.546.014-.791.021v-.217c.47,0,.546,0,.546-.315V93.587c0-.4-.076-.778-.518-.778a1.023,1.023,0,0,0-.945,1.121v1.289c0,.315.076.315.546.315v.217c-.238-.007-.6-.021-.784-.021s-.547.014-.792.021v-.217c.469,0,.547,0,.547-.315V93.587c0-.4-.078-.778-.519-.778a1.023,1.023,0,0,0-.945,1.121v1.289c0,.315.077.315.546.315v.217c-.239-.007-.6-.021-.785-.021s-.546.014-.791.021v-.217c.469,0,.546,0,.546-.315V93.342C124.967,93,124.912,92.949,124.421,92.949Z" transform="translate(-2.295 -1.567)"/><path class="cls-2" d="M136.918,94.469a1.432,1.432,0,0,1-1.561,1.282h-2.746v-.217h.168c.54,0,.553-.077.553-.33V91.513c0-.251-.013-.329-.553-.329h-.168v-.217h2.563a1.406,1.406,0,0,1,1.555,1.184c0,.518-.483.966-1.162,1.1A1.375,1.375,0,0,1,136.918,94.469Zm-1.989-1.282a1.057,1.057,0,0,0,1.121-1.036.931.931,0,0,0-.925-.967h-.868c-.33,0-.343.049-.343.281v1.722Zm1.289,1.275a1.05,1.05,0,0,0-.988-1.12h-1.316v1.912c0,.231.013.28.343.28h.875A1.059,1.059,0,0,0,136.218,94.462Z" transform="translate(-2.295 -1.567)"/><path class="cls-2" d="M139.346,92.655a.479.479,0,0,1,.519.427.3.3,0,0,1-.3.308.29.29,0,0,1-.3-.3.3.3,0,0,1,.161-.273.177.177,0,0,0-.077-.007c-.532,0-.826.623-.826,1.317V95.2c0,.253.014.33.532.33h.147v.217c-.281-.021-.61-.021-.89-.021-.195,0-.524.014-.8.021v-.217c.469,0,.546,0,.546-.315V93.342c0-.344-.056-.393-.546-.393v-.217l.974-.077v.771A.978.978,0,0,1,139.346,92.655Z" transform="translate(-2.295 -1.567)"/><path class="cls-2" d="M141.466,95.828c-.441,0-1.121-.175-1.121-.743a1.021,1.021,0,0,1,.7-.91,3.415,3.415,0,0,1,1.289-.252v-.259a.793.793,0,0,0-.742-.9.987.987,0,0,0-.757.322c.323.007.358.238.358.322a.323.323,0,1,1-.645-.006c0-.463.484-.792,1.058-.792a1.341,1.341,0,0,1,.96.385,1.039,1.039,0,0,1,.252.827v1.4c0,.036.028.35.259.35.077,0,.252-.041.252-.448v-.392h.175v.392a.6.6,0,0,1-.574.666.588.588,0,0,1-.547-.574A.968.968,0,0,1,141.466,95.828Zm-.582-.75a.6.6,0,0,0,.631.6.841.841,0,0,0,.819-.9v-.7C141.179,94.112,140.884,94.693,140.884,95.078Z" transform="translate(-2.295 -1.567)"/><path class="cls-2" d="M143.775,92.949v-.217l.988-.077v.735a1.1,1.1,0,0,1,1.036-.735.934.934,0,0,1,.736.259c.217.252.217.47.217,1.072v1.338c.007.21.182.21.546.21v.217c-.238-.007-.6-.021-.784-.021s-.547.014-.792.021v-.217c.47,0,.547,0,.547-.315V93.587c0-.4-.077-.778-.519-.778a1.023,1.023,0,0,0-.945,1.121v1.289c0,.315.077.315.546.315v.217c-.238-.007-.6-.021-.784-.021s-.546.014-.792.021v-.217c.47,0,.547,0,.547-.315V93.342C144.322,93,144.266,92.949,143.775,92.949Z" transform="translate(-2.295 -1.567)"/><path class="cls-2" d="M149.244,95.653a.916.916,0,0,0,.918-.736.08.08,0,0,1,.09-.07c.022,0,.091,0,.091.07a1.15,1.15,0,0,1-1.162.911,1.55,1.55,0,0,1-1.506-1.59,1.57,1.57,0,0,1,1.52-1.625c.539,0,1.071.273,1.071.75a.322.322,0,1,1-.643.006.316.316,0,0,1,.329-.322,1.145,1.145,0,0,0-.75-.259c-.371,0-.946.294-.946,1.436C148.256,95.351,148.873,95.653,149.244,95.653Z" transform="translate(-2.295 -1.567)"/><path class="cls-2" d="M151.315,91.576c0-.343-.056-.392-.546-.392v-.217l1.008-.077v2.452a1.108,1.108,0,0,1,1.015-.687.934.934,0,0,1,.736.259c.218.252.218.47.218,1.072v1.338c.006.21.181.21.545.21v.217c-.238-.007-.6-.021-.784-.021s-.547.014-.792.021v-.217c.47,0,.547,0,.547-.315V93.587c0-.4-.077-.778-.518-.778a1.023,1.023,0,0,0-.946,1.121v1.289c0,.315.077.315.546.315v.217c-.238-.007-.6-.021-.784-.021s-.546.014-.791.021v-.217c.469,0,.546,0,.546-.315Z" transform="translate(-2.295 -1.567)"/><path class="cls-2" d="M159.618,93.713a1.266,1.266,0,0,1,.343.861,1.4,1.4,0,0,1-1.457,1.331,1.337,1.337,0,0,1-1.45-1.212,1.547,1.547,0,0,1,1.009-1.288,4.547,4.547,0,0,1-.512-.379,1.116,1.116,0,0,1-.307-.77,1.217,1.217,0,0,1,1.267-1.17,1.158,1.158,0,0,1,1.261,1.044,1.3,1.3,0,0,1-.848,1.086A2.913,2.913,0,0,1,159.618,93.713Zm-2.213.98a1.056,1.056,0,0,0,1.106,1.016,1.009,1.009,0,0,0,1.1-.883.935.935,0,0,0-.526-.77l-.861-.546A1.37,1.37,0,0,0,157.405,94.693Zm1.365-1.583a1.186,1.186,0,0,0,.693-.98.912.912,0,0,0-.959-.868c-.5,0-.953.293-.953.721a.655.655,0,0,0,.351.567Z" transform="translate(-2.295 -1.567)"/></svg>