<svg id="Layer_1" data-name="Layer 1" xmlns="http://www.w3.org/2000/svg" viewBox="0 0 231.51 92.371"><defs><style>.cls-1,.cls-10,.cls-3,.cls-4,.cls-5,.cls-9{fill:none;}.cls-1,.cls-3{stroke:#010101;}.cls-1,.cls-10,.cls-2,.cls-3,.cls-4,.cls-5,.cls-7,.cls-9{stroke-miterlimit:10;}.cls-2{fill:#fff;}.cls-2,.cls-4,.cls-5{stroke:#231f20;}.cls-3{stroke-width:1.9px;}.cls-5{stroke-width:0.7px;}.cls-6{fill:#231f20;}.cls-7,.cls-8{fill:#be1e2d;}.cls-7{stroke:#be1e2d;}.cls-9{stroke:#000;}.cls-10{stroke:#ed1c24;}</style></defs><line class="cls-1" x1="155.149" y1="22.381" x2="158.859" y2="22.381"/><line class="cls-2" x1="128.662" y1="22.381" x2="131.761" y2="22.381"/><line class="cls-2" x1="63.686" y1="22.381" x2="108.439" y2="22.381"/><path class="cls-2" d="M74.232,23.464" transform="translate(-1.803 -1.082)"/><path class="cls-2" d="M62.674,23.464" transform="translate(-1.803 -1.082)"/><line class="cls-2" x1="40.817" y1="22.381" x2="43.463" y2="22.381"/><line class="cls-3" x1="40.3" y1="14.898" x2="40.3" y2="44.832"/><line class="cls-4" x1="43.557" y1="37.349" x2="40.163" y2="37.348"/><polyline class="cls-4" points="78.511 44.999 78.511 37.349 63.782 37.349"/><line class="cls-3" x1="71.027" y1="68.115" x2="100.961" y2="68.115"/><line class="cls-3" x1="131.757" y1="14.898" x2="131.757" y2="44.832"/><line class="cls-1" x1="132.665" y1="22.381" x2="134.999" y2="22.381"/><line class="cls-1" x1="207.671" y1="22.381" x2="211.865" y2="22.381"/><path d="M38,12.349a1.466,1.466,0,0,1-1.6,1.312H33.592v-.222h.172c.552,0,.566-.079.566-.337V9.321c0-.258-.014-.337-.566-.337h-.172V8.762h2.625A1.44,1.44,0,0,1,37.81,9.974c0,.531-.5.99-1.191,1.127A1.407,1.407,0,0,1,38,12.349Zm-2.037-1.313a1.083,1.083,0,0,0,1.148-1.062.953.953,0,0,0-.947-.99h-.89c-.337,0-.351.05-.351.287v1.765Zm1.32,1.306a1.075,1.075,0,0,0-1.011-1.149H34.926v1.959c0,.237.014.287.351.287h.9A1.084,1.084,0,0,0,37.286,12.342Z" transform="translate(-1.803 -1.082)"/><path d="M40.291,13.74c-1.09,0-1.09-.652-1.09-1.212V11.452c0-.638,0-.66-.56-.66V10.57l1.055-.08v2.382c0,.373.028.711.631.711.524,0,.868-.488.868-1.112V11.193c0-.351-.057-.4-.559-.4V10.57l1.054-.08v2.548c0,.351.058.4.56.4v.222l-1.033.079V13.1A.978.978,0,0,1,40.291,13.74Z" transform="translate(-1.803 -1.082)"/><path d="M42.938,11.939a.762.762,0,0,1-.309-.609c0-.4.273-.883,1.148-.883a1.106,1.106,0,0,1,.675.2,1.011,1.011,0,0,0,.122-.114c.093-.087.107-.087.143-.087.079,0,.079.051.079.173v.725c0,.135,0,.172-.093.172a.076.076,0,0,1-.086-.065.792.792,0,0,0-.84-.868c-.617,0-.8.294-.8.545,0,.416.48.509.882.588a1.464,1.464,0,0,1,.818.345.925.925,0,0,1,.3.681c0,.517-.33,1-1.155,1a1.073,1.073,0,0,1-.789-.308,1.67,1.67,0,0,0-.143.165c-.137.136-.144.143-.18.143-.079,0-.079-.05-.079-.171v-.948c0-.129,0-.179.094-.179.072,0,.079.029.1.122.136.609.4,1.019,1,1.019.56,0,.811-.287.811-.653,0-.517-.588-.631-.746-.66A1.88,1.88,0,0,1,42.938,11.939Z" transform="translate(-1.803 -1.082)"/><path d="M49.716,13.1c0,.265.022.344.668.344h.229v.222c-.251-.021-.875-.021-1.162-.021s-.911,0-1.162.021v-.222h.23c.645,0,.667-.086.667-.344V9.379a2.156,2.156,0,0,1-.94.186V9.343a1.774,1.774,0,0,0,1.306-.459c.164,0,.164.014.164.186Z" transform="translate(-1.803 -1.082)"/><line class="cls-4" x1="128.662" y1="37.348" x2="131.761" y2="37.348"/><polyline class="cls-4" points="93.413 44.999 93.413 37.349 108.439 37.348"/><line class="cls-4" x1="152.372" y1="36.848" x2="152.372" y2="51.85"/><path class="cls-4" d="M161.533,60.353a7.087,7.087,0,1,0-7.087,7.088A7.087,7.087,0,0,0,161.533,60.353Z" transform="translate(-1.803 -1.082)"/><path class="cls-5" d="M159.406,60.353a4.96,4.96,0,1,0-4.96,4.96A4.96,4.96,0,0,0,159.406,60.353Z" transform="translate(-1.803 -1.082)"/><path class="cls-6" d="M155.984,62.749a3.3,3.3,0,0,1-1.353.243A2.393,2.393,0,0,1,152.1,60.4a2.548,2.548,0,0,1,2.674-2.689,2.727,2.727,0,0,1,1.215.228l-.16.539a2.4,2.4,0,0,0-1.033-.213,1.9,1.9,0,0,0-2,2.112,1.861,1.861,0,0,0,1.967,2.058,2.649,2.649,0,0,0,1.079-.212Z" transform="translate(-1.803 -1.082)"/><path d="M109.171,70.334a1.466,1.466,0,0,1-1.6,1.313H104.76v-.223h.172c.552,0,.566-.078.566-.337v-3.78c0-.258-.014-.338-.566-.338h-.172v-.222h2.625a1.441,1.441,0,0,1,1.593,1.212c0,.531-.495.99-1.191,1.127A1.408,1.408,0,0,1,109.171,70.334Zm-2.037-1.313a1.083,1.083,0,0,0,1.148-1.062.954.954,0,0,0-.947-.99h-.89c-.337,0-.351.051-.351.287v1.765Zm1.32,1.306a1.075,1.075,0,0,0-1.011-1.148h-1.349v1.958c0,.237.014.287.351.287h.9A1.084,1.084,0,0,0,108.454,70.327Z" transform="translate(-1.803 -1.082)"/><path d="M111.459,71.726c-1.09,0-1.09-.653-1.09-1.212V69.437c0-.638,0-.659-.56-.659v-.223l1.055-.079v2.381c0,.374.028.711.631.711.524,0,.868-.488.868-1.112V69.179c0-.351-.057-.4-.559-.4v-.223l1.054-.079v2.547c0,.351.058.4.56.4v.223l-1.033.079V71.08A.979.979,0,0,1,111.459,71.726Z" transform="translate(-1.803 -1.082)"/><path d="M114.106,69.925a.762.762,0,0,1-.309-.609c0-.4.273-.883,1.148-.883a1.106,1.106,0,0,1,.675.2,1.019,1.019,0,0,0,.122-.115c.093-.086.107-.086.143-.086.079,0,.079.05.079.172v.725c0,.136,0,.172-.093.172a.076.076,0,0,1-.086-.065.792.792,0,0,0-.84-.867c-.617,0-.8.293-.8.544,0,.417.48.51.882.589a1.463,1.463,0,0,1,.818.344.925.925,0,0,1,.3.682c0,.516-.329,1-1.155,1a1.071,1.071,0,0,1-.789-.309,1.67,1.67,0,0,0-.143.165c-.137.137-.144.144-.18.144-.079,0-.079-.05-.079-.172v-.947c0-.129,0-.18.094-.18.072,0,.079.029.1.123.136.609.395,1.018,1,1.018.56,0,.811-.287.811-.653,0-.517-.588-.631-.746-.66A1.871,1.871,0,0,1,114.106,69.925Z" transform="translate(-1.803 -1.082)"/><path d="M120.978,71.094a2.348,2.348,0,0,0,.681-.057,2.356,2.356,0,0,0,.158-.639H122l-.2,1.249h-2.662c0-.172,0-.187.079-.266l1.378-1.535a2.572,2.572,0,0,0,.753-1.585c0-.589-.309-1.169-.962-1.169a1.034,1.034,0,0,0-.968.731.277.277,0,0,1,.093-.007.363.363,0,0,1,.38.373.377.377,0,1,1-.753-.022,1.326,1.326,0,0,1,1.342-1.3A1.409,1.409,0,0,1,122,68.261c0,.717-.43,1.105-1.549,2.095l-.76.738Z" transform="translate(-1.803 -1.082)"/><path d="M129.3,12.269a1.467,1.467,0,0,1-1.6,1.314h-2.812V13.36h.172c.553,0,.567-.079.567-.337V9.242c0-.258-.014-.337-.567-.337h-.172V8.683h2.626A1.44,1.44,0,0,1,129.1,9.9c0,.531-.5.99-1.19,1.126A1.409,1.409,0,0,1,129.3,12.269Zm-2.037-1.313A1.082,1.082,0,0,0,128.407,9.9a.953.953,0,0,0-.948-.99h-.889c-.337,0-.352.05-.352.287v1.764Zm1.32,1.306a1.075,1.075,0,0,0-1.012-1.147h-1.349v1.958c0,.237.015.287.352.287h.9A1.085,1.085,0,0,0,128.579,12.262Z" transform="translate(-1.803 -1.082)"/><path d="M131.584,13.661c-1.091,0-1.091-.652-1.091-1.212V11.373c0-.639,0-.661-.559-.661V10.49l1.054-.078v2.381c0,.373.029.711.631.711.524,0,.869-.488.869-1.112V11.115c0-.352-.058-.4-.56-.4V10.49l1.055-.078v2.546c0,.352.057.4.559.4v.223l-1.033.078v-.645A.979.979,0,0,1,131.584,13.661Z" transform="translate(-1.803 -1.082)"/><path d="M134.231,11.86a.764.764,0,0,1-.309-.609c0-.4.273-.883,1.148-.883a1.1,1.1,0,0,1,.674.2.831.831,0,0,0,.122-.115c.094-.086.108-.086.144-.086.079,0,.079.051.079.173v.724c0,.137,0,.172-.094.172-.014,0-.079,0-.086-.064a.791.791,0,0,0-.839-.869c-.617,0-.8.294-.8.546,0,.416.481.509.883.588a1.466,1.466,0,0,1,.818.344.925.925,0,0,1,.3.682c0,.516-.33,1-1.155,1a1.071,1.071,0,0,1-.789-.308,1.9,1.9,0,0,0-.144.165c-.136.136-.143.143-.179.143-.079,0-.079-.05-.079-.172v-.947c0-.129,0-.179.093-.179.072,0,.079.029.1.121.136.611.394,1.02,1,1.02.56,0,.811-.288.811-.653,0-.517-.589-.632-.747-.661A1.858,1.858,0,0,1,134.231,11.86Z" transform="translate(-1.803 -1.082)"/><path d="M142.179,12.356a1.463,1.463,0,0,1-1.529,1.384,1.309,1.309,0,0,1-1.449-1.126.4.4,0,1,1,.8-.014.393.393,0,0,1-.474.394,1.306,1.306,0,0,0,1.1.545c.316,0,.811-.208.811-1.183,0-.7-.266-1.191-.854-1.191h-.316c-.122,0-.172,0-.172-.079s.05-.08.108-.087.222-.014.28-.021a.7.7,0,0,0,.638-.373,1.787,1.787,0,0,0,.2-.818c0-.645-.395-.8-.689-.8a1.161,1.161,0,0,0-.954.445c.107,0,.445,0,.445.358a.366.366,0,1,1-.732-.007c0-.545.545-.976,1.27-.976.689,0,1.32.4,1.32.99a1.382,1.382,0,0,1-1,1.263A1.383,1.383,0,0,1,142.179,12.356Z" transform="translate(-1.803 -1.082)"/><path class="cls-6" d="M47.207,21.115a1.955,1.955,0,0,0,.57-.048,1.975,1.975,0,0,0,.132-.534h.15l-.168,1.044H45.666c0-.144,0-.156.067-.222l1.151-1.284a2.148,2.148,0,0,0,.629-1.325c0-.492-.258-.978-.8-.978a.866.866,0,0,0-.81.612.228.228,0,0,1,.078-.006.3.3,0,0,1,.318.312.315.315,0,1,1-.63-.018,1.108,1.108,0,0,1,1.121-1.085,1.178,1.178,0,0,1,1.272,1.163c0,.6-.36.924-1.295,1.751l-.636.618Z" transform="translate(-1.803 -1.082)"/><path class="cls-6" d="M49.817,20.269a1.261,1.261,0,0,1-1.2-1.337A1.286,1.286,0,0,1,49,17.96a1.163,1.163,0,0,1,.882-.377c.533,0,1.223.408,1.223,2.02,0,1.29-.732,2.1-1.505,2.1-.51,0-.834-.245-.834-.647a.276.276,0,1,1,.551-.012c0,.1-.047.276-.311.276a.779.779,0,0,0,.588.215c.347,0,.971-.275.971-1.678V19.67A.818.818,0,0,1,49.817,20.269Zm.738-1.217a2.985,2.985,0,0,0-.1-.846.621.621,0,0,0-1.175-.1,1.689,1.689,0,0,0-.126.828,1.948,1.948,0,0,0,.108.815.576.576,0,0,0,.557.378C50.352,20.131,50.555,19.55,50.555,19.052Z" transform="translate(-1.803 -1.082)"/><path class="cls-6" d="M52.2,21.577a.318.318,0,1,1,.318-.318A.319.319,0,0,1,52.2,21.577Z" transform="translate(-1.803 -1.082)"/><path class="cls-6" d="M54.869,21.115a1.962,1.962,0,0,0,.571-.048,2.016,2.016,0,0,0,.131-.534h.15l-.168,1.044H53.328c0-.144,0-.156.067-.222l1.151-1.284a2.148,2.148,0,0,0,.629-1.325c0-.492-.258-.978-.8-.978a.864.864,0,0,0-.809.612.218.218,0,0,1,.077-.006.3.3,0,0,1,.318.312.315.315,0,1,1-.63-.018,1.108,1.108,0,0,1,1.121-1.085,1.178,1.178,0,0,1,1.272,1.163c0,.6-.36.924-1.295,1.751l-.636.618Z" transform="translate(-1.803 -1.082)"/><path class="cls-6" d="M58.769,20.551a1.223,1.223,0,0,1-1.278,1.157,1.093,1.093,0,0,1-1.211-.941.336.336,0,1,1,.672-.012.329.329,0,0,1-.4.33,1.091,1.091,0,0,0,.918.455c.263,0,.677-.173.677-.989,0-.588-.221-.995-.713-.995h-.264c-.1,0-.145,0-.145-.066s.042-.066.091-.072.186-.012.234-.018a.582.582,0,0,0,.534-.312,1.512,1.512,0,0,0,.168-.684c0-.539-.33-.671-.576-.671a.971.971,0,0,0-.8.371c.09,0,.372,0,.372.3a.306.306,0,1,1-.612-.006c0-.455.456-.815,1.062-.815.575,0,1.1.335,1.1.828a1.155,1.155,0,0,1-.839,1.055A1.157,1.157,0,0,1,58.769,20.551Z" transform="translate(-1.803 -1.082)"/><line class="cls-7" x1="43.863" y1="22.382" x2="60.093" y2="22.382"/><polygon class="cls-8" points="58.757 24.292 59.57 22.382 58.757 20.471 63.286 22.381 58.757 24.292"/><line class="cls-7" x1="108.838" y1="22.382" x2="125.068" y2="22.382"/><polygon class="cls-8" points="123.732 24.292 124.545 22.382 123.732 20.471 128.261 22.382 123.732 24.292"/><path class="cls-6" d="M112.182,21.114a1.962,1.962,0,0,0,.571-.048,2.043,2.043,0,0,0,.132-.533h.149l-.168,1.043h-2.225c0-.144,0-.156.067-.222l1.151-1.283a2.151,2.151,0,0,0,.629-1.325c0-.492-.258-.978-.8-.978a.863.863,0,0,0-.809.612.218.218,0,0,1,.077-.006.3.3,0,0,1,.318.311.315.315,0,1,1-.63-.017,1.109,1.109,0,0,1,1.122-1.086,1.178,1.178,0,0,1,1.271,1.164c0,.6-.359.923-1.3,1.751l-.636.617Z" transform="translate(-1.803 -1.082)"/><path class="cls-6" d="M114.793,20.269a1.261,1.261,0,0,1-1.2-1.337,1.286,1.286,0,0,1,.383-.972,1.161,1.161,0,0,1,.882-.378c.533,0,1.223.408,1.223,2.021,0,1.29-.732,2.1-1.5,2.1-.51,0-.834-.246-.834-.648a.276.276,0,1,1,.552-.012c0,.1-.048.276-.312.276a.782.782,0,0,0,.588.216c.348,0,.972-.276.972-1.679v-.192A.821.821,0,0,1,114.793,20.269Zm.737-1.217a2.949,2.949,0,0,0-.1-.846.62.62,0,0,0-1.174-.1,1.687,1.687,0,0,0-.126.827,1.972,1.972,0,0,0,.107.816.578.578,0,0,0,.558.378C115.327,20.131,115.53,19.549,115.53,19.052Z" transform="translate(-1.803 -1.082)"/><path class="cls-6" d="M117.176,21.576a.318.318,0,1,1,.317-.318A.32.32,0,0,1,117.176,21.576Z" transform="translate(-1.803 -1.082)"/><path class="cls-6" d="M120.54,21.013a1.121,1.121,0,0,1-2.032.089,3.037,3.037,0,0,1-.271-1.445,3.191,3.191,0,0,1,.223-1.361,1.1,1.1,0,0,1,1.043-.714,1.11,1.11,0,0,1,1.019.672,3.213,3.213,0,0,1,.241,1.4A3.2,3.2,0,0,1,120.54,21.013Zm-.342-.186a7.432,7.432,0,0,0,.066-1.242,7.488,7.488,0,0,0-.059-1.169c-.114-.594-.51-.7-.708-.7-.15,0-.6.054-.714.768a8.04,8.04,0,0,0-.048,1.1,8.058,8.058,0,0,0,.067,1.266c.107.575.461.725.695.725C119.766,21.576,120.108,21.4,120.2,20.827Z" transform="translate(-1.803 -1.082)"/><path class="cls-6" d="M122.388,21.708a1.1,1.1,0,0,1-1.084-1.1.3.3,0,1,1,.293.269.3.3,0,0,1-.1-.011.933.933,0,0,0,.881.671.748.748,0,0,0,.641-.39,1.73,1.73,0,0,0,.145-.821,1.863,1.863,0,0,0-.108-.756.588.588,0,0,0-.51-.384.9.9,0,0,0-.774.42c-.024.036-.036.054-.078.054-.084,0-.084-.048-.084-.156V17.732c0-.1,0-.144.061-.144a.18.18,0,0,1,.071.018,1.948,1.948,0,0,0,.8.168,2,2,0,0,0,.815-.173c.031-.019.042-.019.048-.019a.059.059,0,0,1,.061.066,1.308,1.308,0,0,1-1.158.624,1.886,1.886,0,0,1-.509-.078v1.169a1.051,1.051,0,0,1,.76-.3,1.23,1.23,0,0,1,1.14,1.313A1.325,1.325,0,0,1,122.388,21.708Z" transform="translate(-1.803 -1.082)"/><path class="cls-6" d="M46.9,36.07c0,.221.018.287.557.287h.193v.186c-.21-.018-.732-.018-.972-.018s-.762,0-.972.018v-.186h.193c.54,0,.557-.071.557-.287V32.963a1.793,1.793,0,0,1-.785.156v-.185a1.48,1.48,0,0,0,1.091-.384c.138,0,.138.011.138.155Z" transform="translate(-1.803 -1.082)"/><path class="cls-6" d="M49.517,36.675a1.1,1.1,0,0,1-1.085-1.1.3.3,0,1,1,.294.27.267.267,0,0,1-.1-.012.934.934,0,0,0,.881.671.752.752,0,0,0,.642-.389,1.744,1.744,0,0,0,.144-.822,1.863,1.863,0,0,0-.108-.756.589.589,0,0,0-.51-.383.9.9,0,0,0-.773.42c-.025.035-.037.053-.079.053-.084,0-.084-.048-.084-.155V32.7c0-.1,0-.144.061-.144a.176.176,0,0,1,.071.018,1.948,1.948,0,0,0,.8.168,1.994,1.994,0,0,0,.816-.174.088.088,0,0,1,.047-.018.059.059,0,0,1,.061.066,1.31,1.31,0,0,1-1.157.623,1.888,1.888,0,0,1-.51-.078V34.33a1.058,1.058,0,0,1,.761-.3,1.23,1.23,0,0,1,1.139,1.313A1.324,1.324,0,0,1,49.517,36.675Z" transform="translate(-1.803 -1.082)"/><path class="cls-6" d="M51.966,36.543a.318.318,0,1,1,.317-.317A.319.319,0,0,1,51.966,36.543Z" transform="translate(-1.803 -1.082)"/><path class="cls-6" d="M55.24,34.8a1.08,1.08,0,0,1,.294.738,1.2,1.2,0,0,1-1.247,1.139,1.144,1.144,0,0,1-1.241-1.037,1.323,1.323,0,0,1,.863-1.1,3.757,3.757,0,0,1-.437-.324.959.959,0,0,1-.264-.66,1.042,1.042,0,0,1,1.085-1,.99.99,0,0,1,1.079.893,1.111,1.111,0,0,1-.725.929A2.515,2.515,0,0,1,55.24,34.8Zm-1.894.84a.9.9,0,0,0,.947.869.862.862,0,0,0,.941-.755.8.8,0,0,0-.449-.66l-.738-.468A1.175,1.175,0,0,0,53.346,35.638Zm1.169-1.355a1.017,1.017,0,0,0,.593-.84.78.78,0,0,0-.821-.743c-.426,0-.815.252-.815.617a.557.557,0,0,0,.3.486Z" transform="translate(-1.803 -1.082)"/><path class="cls-6" d="M57.839,34.031a2.631,2.631,0,0,0-.372,1.025,6.718,6.718,0,0,0-.066.983v.307c0,.06,0,.329-.276.329s-.275-.269-.275-.329a4.184,4.184,0,0,1,.737-2.255c.132-.2.6-.852.672-.948H57.018a3.035,3.035,0,0,0-.588.036,1.7,1.7,0,0,0-.151.546H56.13l.2-1.235h.15c.024.113.036.192.767.192H58.7c0,.126,0,.137-.053.21Z" transform="translate(-1.803 -1.082)"/><line class="cls-7" x1="43.863" y1="37.349" x2="60.095" y2="37.349"/><polygon class="cls-8" points="58.759 39.258 59.572 37.349 58.759 35.438 63.289 37.349 58.759 39.258"/><line class="cls-7" x1="78.511" y1="45.399" x2="78.51" y2="61.628"/><polygon class="cls-8" points="76.601 60.292 78.51 61.106 80.422 60.292 78.51 64.822 76.601 60.292"/><path class="cls-6" d="M66.09,57.65c0,.221.018.287.557.287h.193v.186c-.21-.018-.732-.018-.972-.018s-.762,0-.971.018v-.186h.192c.54,0,.558-.072.558-.287V54.543a1.8,1.8,0,0,1-.786.156v-.186a1.483,1.483,0,0,0,1.091-.383c.138,0,.138.011.138.155Z" transform="translate(-1.803 -1.082)"/><path class="cls-6" d="M68.712,58.255a1.1,1.1,0,0,1-1.085-1.1.3.3,0,1,1,.294.269.281.281,0,0,1-.1-.011.935.935,0,0,0,.881.671.75.75,0,0,0,.642-.39,1.738,1.738,0,0,0,.144-.821,1.846,1.846,0,0,0-.108-.756.586.586,0,0,0-.51-.383.9.9,0,0,0-.773.419c-.025.036-.036.054-.078.054-.084,0-.084-.048-.084-.156V54.28c0-.1,0-.145.06-.145a.166.166,0,0,1,.071.019,1.951,1.951,0,0,0,.8.168,2,2,0,0,0,.816-.174.088.088,0,0,1,.048-.018.058.058,0,0,1,.06.066,1.31,1.31,0,0,1-1.157.623,1.894,1.894,0,0,1-.51-.078V55.91a1.054,1.054,0,0,1,.761-.3,1.23,1.23,0,0,1,1.14,1.313A1.325,1.325,0,0,1,68.712,58.255Z" transform="translate(-1.803 -1.082)"/><path class="cls-6" d="M71.161,58.123a.318.318,0,1,1,.318-.318A.319.319,0,0,1,71.161,58.123Z" transform="translate(-1.803 -1.082)"/><path class="cls-6" d="M73.374,58.255a1.1,1.1,0,0,1-1.085-1.1.3.3,0,1,1,.294.269.281.281,0,0,1-.1-.011.935.935,0,0,0,.881.671A.75.75,0,0,0,74,57.7a1.738,1.738,0,0,0,.144-.821,1.846,1.846,0,0,0-.108-.756.586.586,0,0,0-.51-.383.9.9,0,0,0-.773.419c-.025.036-.036.054-.078.054-.084,0-.084-.048-.084-.156V54.28c0-.1,0-.145.06-.145a.171.171,0,0,1,.072.019,1.944,1.944,0,0,0,.8.168,2,2,0,0,0,.816-.174.088.088,0,0,1,.048-.018.058.058,0,0,1,.06.066,1.31,1.31,0,0,1-1.157.623,1.894,1.894,0,0,1-.51-.078V55.91a1.054,1.054,0,0,1,.761-.3,1.23,1.23,0,0,1,1.14,1.313A1.325,1.325,0,0,1,73.374,58.255Z" transform="translate(-1.803 -1.082)"/><path class="cls-6" d="M76.44,56.816a1.261,1.261,0,0,1-1.2-1.337,1.286,1.286,0,0,1,.384-.972,1.163,1.163,0,0,1,.882-.377c.533,0,1.223.407,1.223,2.02,0,1.29-.732,2.105-1.505,2.105-.51,0-.834-.246-.834-.647a.276.276,0,1,1,.551-.013c0,.1-.047.276-.311.276a.78.78,0,0,0,.588.216c.347,0,.971-.276.971-1.679v-.191A.819.819,0,0,1,76.44,56.816Zm.738-1.217a2.985,2.985,0,0,0-.1-.846.621.621,0,0,0-1.175-.1,1.689,1.689,0,0,0-.126.828,1.95,1.95,0,0,0,.108.815.576.576,0,0,0,.557.378C76.975,56.678,77.178,56.1,77.178,55.6Z" transform="translate(-1.803 -1.082)"/><line class="cls-7" x1="93.413" y1="64.822" x2="93.412" y2="48.592"/><polygon class="cls-8" points="91.503 49.928 93.412 49.115 95.323 49.928 93.412 45.399 91.503 49.928"/><path class="cls-6" d="M99.028,57.65c0,.221.018.287.557.287h.193v.186c-.21-.018-.732-.018-.972-.018s-.762,0-.972.018v-.186h.193c.54,0,.557-.072.557-.287V54.543a1.793,1.793,0,0,1-.785.156v-.186a1.483,1.483,0,0,0,1.091-.383c.138,0,.138.011.138.155Z" transform="translate(-1.803 -1.082)"/><path class="cls-6" d="M103.005,57.1a1.223,1.223,0,0,1-1.277,1.157,1.093,1.093,0,0,1-1.211-.941.336.336,0,1,1,.672-.013.33.33,0,0,1-.4.331,1.092,1.092,0,0,0,.918.455c.264,0,.678-.174.678-.989,0-.588-.222-1-.714-1h-.263c-.1,0-.145,0-.145-.066s.042-.066.091-.071.185-.013.233-.018a.58.58,0,0,0,.534-.313,1.492,1.492,0,0,0,.168-.683c0-.54-.33-.671-.576-.671a.972.972,0,0,0-.8.371c.09,0,.372,0,.372.3a.306.306,0,1,1-.611-.006c0-.456.455-.815,1.062-.815.575,0,1.1.335,1.1.827A1.154,1.154,0,0,1,102,56.012,1.157,1.157,0,0,1,103.005,57.1Z" transform="translate(-1.803 -1.082)"/><path class="cls-6" d="M104.1,58.123a.318.318,0,1,1,.317-.318A.319.319,0,0,1,104.1,58.123Z" transform="translate(-1.803 -1.082)"/><path class="cls-6" d="M106.69,57.65c0,.221.018.287.557.287h.193v.186c-.21-.018-.732-.018-.972-.018s-.762,0-.972.018v-.186h.193c.54,0,.557-.072.557-.287V54.543a1.793,1.793,0,0,1-.785.156v-.186a1.483,1.483,0,0,0,1.091-.383c.138,0,.138.011.138.155Z" transform="translate(-1.803 -1.082)"/><path class="cls-6" d="M109.378,56.816a1.261,1.261,0,0,1-1.2-1.337,1.286,1.286,0,0,1,.384-.972,1.163,1.163,0,0,1,.882-.377c.533,0,1.222.407,1.222,2.02,0,1.29-.731,2.105-1.5,2.105-.509,0-.833-.246-.833-.647a.276.276,0,1,1,.551-.013c0,.1-.048.276-.311.276a.78.78,0,0,0,.588.216c.347,0,.971-.276.971-1.679v-.191A.819.819,0,0,1,109.378,56.816Zm.738-1.217a2.985,2.985,0,0,0-.1-.846.621.621,0,0,0-1.175-.1,1.689,1.689,0,0,0-.126.828,1.95,1.95,0,0,0,.108.815.576.576,0,0,0,.557.378C109.912,56.678,110.116,56.1,110.116,55.6Z" transform="translate(-1.803 -1.082)"/><line class="cls-7" x1="108.838" y1="37.349" x2="125.068" y2="37.349"/><polygon class="cls-8" points="123.732 39.258 124.546 37.349 123.732 35.438 128.261 37.349 123.732 39.258"/><path class="cls-6" d="M111.87,36.069c0,.222.018.288.558.288h.192v.186c-.21-.018-.732-.018-.972-.018s-.761,0-.971.018v-.186h.192c.54,0,.558-.072.558-.288V32.963a1.8,1.8,0,0,1-.786.156v-.186a1.48,1.48,0,0,0,1.091-.384c.138,0,.138.012.138.156Z" transform="translate(-1.803 -1.082)"/><path class="cls-6" d="M115.847,35.518a1.223,1.223,0,0,1-1.277,1.157,1.094,1.094,0,0,1-1.211-.942.336.336,0,1,1,.672-.012.329.329,0,0,1-.4.33,1.092,1.092,0,0,0,.918.456c.263,0,.677-.174.677-.989,0-.588-.221-1-.714-1h-.263c-.1,0-.145,0-.145-.066s.042-.066.091-.072.186-.012.233-.018a.583.583,0,0,0,.535-.312,1.508,1.508,0,0,0,.168-.683c0-.54-.33-.672-.577-.672a.972.972,0,0,0-.8.372c.089,0,.372,0,.372.3a.306.306,0,1,1-.612-.006c0-.456.455-.816,1.062-.816.575,0,1.1.336,1.1.828a1.153,1.153,0,0,1-.839,1.055A1.156,1.156,0,0,1,115.847,35.518Z" transform="translate(-1.803 -1.082)"/><path class="cls-6" d="M116.941,36.543a.318.318,0,1,1,.318-.318A.319.319,0,0,1,116.941,36.543Z" transform="translate(-1.803 -1.082)"/><path class="cls-6" d="M120.305,35.979a1.12,1.12,0,0,1-2.032.09,3.036,3.036,0,0,1-.27-1.445,3.2,3.2,0,0,1,.222-1.361,1.1,1.1,0,0,1,1.043-.714,1.112,1.112,0,0,1,1.02.672,3.207,3.207,0,0,1,.24,1.4A3.177,3.177,0,0,1,120.305,35.979Zm-.341-.186a7.413,7.413,0,0,0,.066-1.241,7.488,7.488,0,0,0-.059-1.169c-.115-.594-.51-.7-.708-.7-.15,0-.6.054-.714.768a8.025,8.025,0,0,0-.048,1.1,8.166,8.166,0,0,0,.066,1.265c.108.576.462.726.7.726C119.532,36.543,119.874,36.363,119.964,35.793Z" transform="translate(-1.803 -1.082)"/><path class="cls-6" d="M120.937,35.554v-.186l1.841-2.813c.048-.072.067-.072.12-.072.1,0,.1.036.1.156v2.729h.6v.186h-.6v.521c0,.216.012.282.456.282h.126v.186c-.246-.018-.563-.018-.815-.018s-.565,0-.81.018v-.186h.126c.443,0,.455-.066.455-.282v-.521Zm1.631-2.423-1.463,2.237h1.463Z" transform="translate(-1.803 -1.082)"/><path class="cls-6" d="M137.211,20.429v-.186l1.841-2.813c.048-.072.067-.072.12-.072.1,0,.1.036.1.156v2.729h.6v.186h-.6v.521c0,.216.012.282.456.282h.126v.186c-.246-.018-.564-.018-.815-.018s-.565,0-.81.018v-.186h.126c.443,0,.455-.066.455-.282v-.521Zm1.631-2.423-1.463,2.237h1.463Z" transform="translate(-1.803 -1.082)"/><path class="cls-6" d="M141.884,20.956a1.955,1.955,0,0,0,.57-.048,1.965,1.965,0,0,0,.132-.534h.15l-.168,1.044h-2.225c0-.144,0-.156.067-.222l1.151-1.283a2.153,2.153,0,0,0,.629-1.326c0-.491-.258-.977-.8-.977a.862.862,0,0,0-.809.612.218.218,0,0,1,.077-.006.3.3,0,0,1,.318.311.315.315,0,1,1-.63-.017,1.108,1.108,0,0,1,1.121-1.086,1.178,1.178,0,0,1,1.272,1.163c0,.6-.36.924-1.295,1.751l-.636.618Z" transform="translate(-1.803 -1.082)"/><path class="cls-6" d="M143.877,21.418a.318.318,0,1,1,.318-.318A.32.32,0,0,1,143.877,21.418Z" transform="translate(-1.803 -1.082)"/><path class="cls-6" d="M147.242,20.854a1.121,1.121,0,0,1-2.033.09,3.036,3.036,0,0,1-.27-1.445,3.2,3.2,0,0,1,.222-1.361,1.1,1.1,0,0,1,1.043-.714,1.112,1.112,0,0,1,1.02.672,3.207,3.207,0,0,1,.24,1.4A3.192,3.192,0,0,1,147.242,20.854Zm-.342-.186a7.413,7.413,0,0,0,.066-1.241,7.488,7.488,0,0,0-.059-1.169c-.115-.594-.51-.7-.708-.7-.15,0-.6.054-.714.768a8.025,8.025,0,0,0-.048,1.1,8.166,8.166,0,0,0,.066,1.265c.108.576.462.726.7.726C146.468,21.418,146.81,21.238,146.9,20.668Z" transform="translate(-1.803 -1.082)"/><path class="cls-6" d="M150.242,20.854a1.121,1.121,0,0,1-2.033.09,3.036,3.036,0,0,1-.27-1.445,3.2,3.2,0,0,1,.222-1.361,1.1,1.1,0,0,1,1.043-.714,1.112,1.112,0,0,1,1.02.672,3.207,3.207,0,0,1,.24,1.4A3.192,3.192,0,0,1,150.242,20.854Zm-.342-.186a7.413,7.413,0,0,0,.066-1.241,7.488,7.488,0,0,0-.059-1.169c-.115-.594-.51-.7-.708-.7-.15,0-.6.054-.714.768a8.025,8.025,0,0,0-.048,1.1,8.166,8.166,0,0,0,.066,1.265c.108.576.462.726.7.726C149.468,21.418,149.81,21.238,149.9,20.668Z" transform="translate(-1.803 -1.082)"/><line class="cls-7" x1="135.408" y1="22.382" x2="151.555" y2="22.382"/><polygon class="cls-8" points="150.219 24.292 151.032 22.382 150.219 20.471 154.748 22.381 150.219 24.292"/><path class="cls-6" d="M189.708,20.429v-.186l1.841-2.813c.048-.072.066-.072.12-.072.1,0,.1.036.1.156v2.729h.6v.186h-.6v.521c0,.216.011.282.456.282h.126v.186c-.246-.018-.564-.018-.816-.018s-.564,0-.809.018v-.186h.126c.443,0,.455-.066.455-.282v-.521Zm1.631-2.423-1.463,2.237h1.463Z" transform="translate(-1.803 -1.082)"/><path class="cls-6" d="M194.381,20.956a1.955,1.955,0,0,0,.57-.048,1.965,1.965,0,0,0,.132-.534h.149l-.168,1.044H192.84c0-.144,0-.156.066-.222l1.152-1.283a2.153,2.153,0,0,0,.629-1.326c0-.491-.258-.977-.8-.977a.864.864,0,0,0-.81.612.225.225,0,0,1,.077-.006.3.3,0,0,1,.319.311.315.315,0,1,1-.63-.017,1.108,1.108,0,0,1,1.121-1.086,1.178,1.178,0,0,1,1.271,1.163c0,.6-.359.924-1.294,1.751l-.636.618Z" transform="translate(-1.803 -1.082)"/><path class="cls-6" d="M196.374,21.418a.318.318,0,1,1,.317-.318A.319.319,0,0,1,196.374,21.418Z" transform="translate(-1.803 -1.082)"/><path class="cls-6" d="M199.738,20.854a1.12,1.12,0,0,1-2.032.09,3.036,3.036,0,0,1-.27-1.445,3.2,3.2,0,0,1,.222-1.361,1.1,1.1,0,0,1,1.043-.714,1.113,1.113,0,0,1,1.02.672,3.207,3.207,0,0,1,.24,1.4A3.177,3.177,0,0,1,199.738,20.854Zm-.341-.186a7.413,7.413,0,0,0,.066-1.241,7.365,7.365,0,0,0-.06-1.169c-.114-.594-.509-.7-.708-.7-.149,0-.6.054-.714.768a8.2,8.2,0,0,0-.047,1.1A8.166,8.166,0,0,0,198,20.692c.107.576.462.726.695.726C198.965,21.418,199.307,21.238,199.4,20.668Z" transform="translate(-1.803 -1.082)"/><path class="cls-6" d="M202.738,20.854a1.12,1.12,0,0,1-2.032.09,3.036,3.036,0,0,1-.27-1.445,3.2,3.2,0,0,1,.222-1.361,1.1,1.1,0,0,1,1.043-.714,1.113,1.113,0,0,1,1.02.672,3.207,3.207,0,0,1,.24,1.4A3.177,3.177,0,0,1,202.738,20.854Zm-.341-.186a7.413,7.413,0,0,0,.066-1.241,7.365,7.365,0,0,0-.06-1.169c-.114-.594-.509-.7-.708-.7-.149,0-.6.054-.714.768a8.2,8.2,0,0,0-.047,1.1A8.166,8.166,0,0,0,201,20.692c.107.576.462.726.695.726C201.965,21.418,202.307,21.238,202.4,20.668Z" transform="translate(-1.803 -1.082)"/><line class="cls-7" x1="187.905" y1="22.382" x2="204.076" y2="22.382"/><polygon class="cls-8" points="202.74 24.292 203.554 22.382 202.74 20.471 207.27 22.381 202.74 24.292"/><line class="cls-1" x1="183.993" y1="22.381" x2="187.505" y2="22.381"/><circle class="cls-4" cx="11.827" cy="30.947" r="9.524" transform="translate(-6.621 1.22) rotate(-9.245)"/><path class="cls-9" d="M16.636,29.9s-1.5,1.986-2.266,2.1c-.931.142-2.546-1.058-2.546-1.058S9.478,29.757,8.987,29.9C8.274,30.1,6.9,32,6.9,32" transform="translate(-1.803 -1.082)"/><line class="cls-2" x1="19.784" y1="30.023" x2="39.627" y2="30.023"/><circle class="cls-4" cx="50.69" cy="83.429" r="9.524" transform="translate(-40.121 122.438) rotate(-82.966)"/><path class="cls-9" d="M55.615,82.377s-1.5,1.987-2.266,2.1c-.93.142-2.546-1.058-2.546-1.058s-2.345-1.184-2.837-1.045c-.712.2-2.084,2.1-2.084,2.1" transform="translate(-1.803 -1.082)"/><polyline class="cls-4" points="58.669 82.528 60.684 82.528 76.088 82.528 78.511 82.528 78.511 67.561 78.511 65.222"/><polyline class="cls-4" points="108.778 82.527 107.074 82.527 94.802 82.528 93.414 82.528 93.414 67.561 93.413 65.222"/><polygon class="cls-6" points="106.673 79.749 107.852 82.527 106.671 85.304 113.256 82.528 106.673 79.749"/><polyline class="cls-1" points="132.106 37.349 134.19 37.349 150.109 37.348 151.948 37.348"/><polyline class="cls-4" points="227.032 22.381 225.294 22.381 213.055 22.381 211.667 22.381"/><polygon class="cls-6" points="224.926 19.604 226.106 22.381 224.926 25.158 231.51 22.381 224.926 19.604"/><line class="cls-3" x1="210.85" y1="7.414" x2="210.85" y2="37.348"/><circle class="cls-10" cx="167.544" cy="22.381" r="8.504"/><circle class="cls-1" cx="175.121" cy="22.381" r="8.504"/><path d="M208.367,4.67a1.466,1.466,0,0,1-1.6,1.312h-2.813V5.759h.173c.552,0,.566-.078.566-.336V1.642c0-.258-.014-.338-.566-.338h-.173V1.082h2.626a1.44,1.44,0,0,1,1.592,1.212c0,.531-.5.99-1.19,1.127A1.408,1.408,0,0,1,208.367,4.67ZM206.33,3.356a1.083,1.083,0,0,0,1.148-1.062.954.954,0,0,0-.947-.99h-.89c-.337,0-.351.051-.351.287V3.356Zm1.32,1.306a1.075,1.075,0,0,0-1.011-1.148H205.29V5.473c0,.236.014.286.351.286h.9A1.083,1.083,0,0,0,207.65,4.662Z" transform="translate(-1.803 -1.082)"/><path d="M210.655,6.061c-1.09,0-1.09-.653-1.09-1.212V3.772c0-.638,0-.659-.56-.659V2.89l1.055-.079V5.193c0,.373.028.71.631.71.523,0,.868-.487.868-1.112V3.514c0-.351-.058-.4-.56-.4V2.89l1.055-.079V5.358c0,.351.058.4.56.4v.223l-1.033.079V5.416A.98.98,0,0,1,210.655,6.061Z" transform="translate(-1.803 -1.082)"/><path d="M213.3,4.26a.762.762,0,0,1-.309-.609c0-.4.273-.883,1.148-.883a1.108,1.108,0,0,1,.675.2.877.877,0,0,0,.121-.115c.094-.086.108-.086.144-.086.079,0,.079.05.079.173v.724c0,.136,0,.172-.093.172a.077.077,0,0,1-.087-.065.79.79,0,0,0-.839-.867c-.617,0-.8.294-.8.545,0,.416.48.509.882.588a1.466,1.466,0,0,1,.818.344.928.928,0,0,1,.3.682c0,.516-.33,1-1.155,1a1.07,1.07,0,0,1-.789-.309,1.765,1.765,0,0,0-.144.166c-.136.136-.143.143-.179.143-.079,0-.079-.05-.079-.172V4.942c0-.129,0-.18.094-.18.072,0,.079.029.1.123.136.609.395,1.018,1,1.018.56,0,.811-.287.811-.653,0-.517-.588-.631-.747-.66A1.867,1.867,0,0,1,213.3,4.26Z" transform="translate(-1.803 -1.082)"/><path d="M218.172,4.8V4.576l2.2-3.364c.057-.087.079-.087.143-.087.115,0,.115.043.115.187V4.576h.717V4.8h-.717v.625c0,.258.015.336.545.336h.151v.223c-.3-.022-.674-.022-.976-.022s-.674,0-.968.022V5.759h.15c.531,0,.545-.078.545-.336V4.8Zm1.952-2.9-1.751,2.676h1.751Z" transform="translate(-1.803 -1.082)"/></svg>