<svg id="Layer_1" data-name="Layer 1" xmlns="http://www.w3.org/2000/svg" viewBox="0 0 343.317 144.067"><defs><style>.cls-1,.cls-4,.cls-8{fill:#fff;}.cls-1{stroke:#231f20;stroke-miterlimit:2;stroke-width:0.567px;}.cls-10,.cls-11,.cls-13,.cls-14,.cls-15,.cls-16,.cls-17,.cls-18,.cls-19,.cls-2,.cls-20,.cls-21,.cls-22,.cls-3,.cls-5,.cls-6,.cls-7{fill:none;}.cls-10,.cls-11,.cls-12,.cls-13,.cls-14,.cls-15,.cls-16,.cls-17,.cls-18,.cls-19,.cls-2,.cls-20,.cls-21,.cls-22,.cls-3,.cls-4,.cls-5,.cls-6,.cls-7,.cls-8{stroke:#000;stroke-miterlimit:10;}.cls-2{stroke-width:0.821px;}.cls-3{stroke-width:0.719px;}.cls-4{stroke-width:0.756px;}.cls-5{stroke-width:1.92px;}.cls-6{stroke-width:1.787px;}.cls-7{stroke-width:0.776px;}.cls-17,.cls-8{stroke-width:0.816px;}.cls-9{isolation:isolate;}.cls-10,.cls-11,.cls-14{stroke-width:0.544px;}.cls-11{stroke-dasharray:0.992 0.992;}.cls-12{stroke-width:0.72px;}.cls-13{stroke-width:0.519px;}.cls-14{stroke-dasharray:0.991 0.991;}.cls-15{stroke-width:0.516px;}.cls-16{stroke-width:0.528px;}.cls-18{stroke-width:0.523px;}.cls-19{stroke-width:0.748px;}.cls-20{stroke-width:0.68px;}.cls-21{stroke-width:0.633px;}.cls-22{stroke-width:0.516px;}</style></defs><path class="cls-1" d="M5.953.283H337.364a5.669,5.669,0,0,1,5.669,5.669V138.114a5.669,5.669,0,0,1-5.669,5.669H5.952a5.669,5.669,0,0,1-5.669-5.669V5.953A5.67,5.67,0,0,1,5.953.283Z"/><line class="cls-2" x1="117.834" y1="40.225" x2="287.946" y2="40.225"/><line class="cls-3" x1="55.407" y1="40.225" x2="90.3" y2="40.225"/><rect class="cls-4" x="193.678" y="34.783" width="27.74" height="10.885"/><line class="cls-5" x1="55.409" y1="25.259" x2="55.409" y2="55.192"/><line class="cls-6" x1="287.946" y1="25.259" x2="287.946" y2="55.192"/><line class="cls-7" x1="169.453" y1="125.522" x2="169.453" y2="40.225"/><rect class="cls-8" x="164.01" y="69.003" width="10.884" height="27.742"/><line class="cls-7" x1="245.546" y1="125.522" x2="245.546" y2="40.225"/><rect class="cls-8" x="240.102" y="69.003" width="10.883" height="27.742"/><g class="cls-9"><path d="M208.239,29.187a1.22,1.22,0,0,0,.085-.412c0-.215-.077-.253-.184-.253-.229,0-.581.207-.794.933-.024.076-.032.122-.13.122-.062,0-.116-.03-.116-.1,0-.1.322-1.17,1.063-1.17a.656.656,0,0,1,.7.65,2.01,2.01,0,0,1-.161.543l-.237.619c-.084.206-.16.413-.237.619a1.376,1.376,0,0,0-.153.558c0,.207.092.245.184.245.305,0,.619-.314.8-.925.023-.077.038-.13.13-.13.053,0,.115.023.115.1,0,.1-.314,1.17-1.056,1.17a.652.652,0,0,1-.695-.65.987.987,0,0,1,.076-.336l.413-1.055Zm.489-1.865a.284.284,0,0,1-.3-.291.439.439,0,0,1,.421-.412.283.283,0,0,1,.3.29A.439.439,0,0,1,208.728,27.322Z"/><path d="M211.912,29.2a1.6,1.6,0,0,0,.045-.32c0-.253-.091-.36-.252-.36-.382,0-.772.39-1,.918-.054.114-.062.137-.146.137-.061,0-.114-.03-.114-.1,0-.1.474-1.17,1.284-1.17a.729.729,0,0,1,.78.719.976.976,0,0,1-.038.267l-.689,2.737a1.6,1.6,0,0,1-1.536,1.208c-.436,0-.719-.191-.719-.481a.441.441,0,0,1,.429-.444.277.277,0,0,1,.3.283.445.445,0,0,1-.268.39.862.862,0,0,0,.252.038c.467,0,.841-.5.956-.963Zm.45-1.88a.293.293,0,0,1-.3-.291.446.446,0,0,1,.428-.412.292.292,0,0,1,.3.29A.447.447,0,0,1,212.362,27.322Z"/></g><g class="cls-9"><path d="M206.085,29.983a2.762,2.762,0,0,1-2.45,2.135.99.99,0,0,1-1.11-.91.6.6,0,0,1,.586-.681.357.357,0,0,1,.388.366.57.57,0,0,1-.209.43.6.6,0,0,1-.45.125.843.843,0,0,0,.795.44,1.5,1.5,0,0,0,1.151-.66,4.007,4.007,0,0,0,.681-1.612,1.479,1.479,0,0,1-1.057.472,1.167,1.167,0,0,1-1.277-1.246,6.892,6.892,0,0,1,.607-2.2,2.222,2.222,0,0,0,.178-.733c0-.335-.178-.335-.262-.335-.356,0-.774.314-1.058,1.3-.051.168-.062.188-.167.188-.021,0-.126,0-.126-.1s.388-1.612,1.382-1.612a.83.83,0,0,1,.859.858,1.9,1.9,0,0,1-.209.754,6.215,6.215,0,0,0-.534,2.052c0,.387.115.847.648.847a1.458,1.458,0,0,0,1.184-.889l.47-1.885c.063-.282.136-.565.209-.837.042-.189.126-.513.147-.565a.454.454,0,0,1,.367-.22.28.28,0,0,1,.3.282.669.669,0,0,1-.041.241Z"/></g><g class="cls-9"><path d="M261.763,82.768c0,.146,0,.2-.123.2a.1.1,0,0,1-.115-.084.8.8,0,0,0-.909-.841c-.727,0-.894.321-.894.551,0,.3.359.466.6.52.031,0,.459.076.521.091.909.168,1.131.7,1.131,1.07,0,.506-.336,1.063-1.307,1.063a1.255,1.255,0,0,1-.9-.329c-.038.039-.122.138-.162.176-.136.145-.144.153-.19.153-.1,0-.1-.077-.1-.2V84.19c0-.145,0-.206.122-.206.092,0,.1.038.13.137a1.106,1.106,0,0,0,1.094,1c.7,0,.9-.351.9-.65,0-.52-.587-.627-.947-.695a1.89,1.89,0,0,1-.994-.352.853.853,0,0,1-.306-.627c0-.367.238-.948,1.308-.948a1.222,1.222,0,0,1,.688.168c.045.031.061.031.069.031s.092-.069.106-.077c.122-.122.146-.122.184-.122.1,0,.1.076.1.2Z"/></g><g class="cls-9"><path d="M263.615,82.768a1.209,1.209,0,0,0,.084-.412c0-.215-.076-.253-.184-.253-.228,0-.58.207-.794.933-.023.077-.031.122-.13.122-.061,0-.115-.03-.115-.1,0-.1.322-1.17,1.063-1.17a.656.656,0,0,1,.695.65,2.041,2.041,0,0,1-.16.543l-.237.619c-.084.206-.16.413-.237.62a1.368,1.368,0,0,0-.153.557c0,.206.092.245.184.245.305,0,.619-.314.8-.925.022-.077.038-.13.129-.13.054,0,.116.023.116.1,0,.1-.314,1.17-1.056,1.17a.651.651,0,0,1-.695-.649.982.982,0,0,1,.076-.337l.413-1.055ZM264.1,80.9a.283.283,0,0,1-.3-.29.439.439,0,0,1,.42-.413.283.283,0,0,1,.3.29A.439.439,0,0,1,264.1,80.9Z"/><path d="M267.287,82.783a1.6,1.6,0,0,0,.046-.32c0-.253-.092-.36-.253-.36-.382,0-.772.39-1,.918-.054.114-.062.137-.146.137-.06,0-.114-.03-.114-.1,0-.1.474-1.17,1.284-1.17a.729.729,0,0,1,.78.719.94.94,0,0,1-.038.267l-.688,2.737a1.605,1.605,0,0,1-1.537,1.209c-.436,0-.719-.192-.719-.483a.441.441,0,0,1,.429-.443.277.277,0,0,1,.3.283.446.446,0,0,1-.268.39.869.869,0,0,0,.252.038c.467,0,.842-.5.956-.963Zm.451-1.88a.293.293,0,0,1-.3-.29.447.447,0,0,1,.429-.413.291.291,0,0,1,.3.29A.447.447,0,0,1,267.738,80.9Z"/></g><g class="cls-9"><path d="M257.981,83.564a2.761,2.761,0,0,1-2.449,2.135.99.99,0,0,1-1.109-.91.6.6,0,0,1,.586-.681.357.357,0,0,1,.387.367.562.562,0,0,1-.21.429.594.594,0,0,1-.449.126.845.845,0,0,0,.8.439,1.5,1.5,0,0,0,1.151-.659,4.017,4.017,0,0,0,.681-1.613,1.48,1.48,0,0,1-1.058.472,1.167,1.167,0,0,1-1.276-1.246,6.92,6.92,0,0,1,.607-2.2,2.222,2.222,0,0,0,.178-.733c0-.335-.178-.335-.261-.335-.357,0-.776.314-1.058,1.3-.053.167-.063.188-.168.188-.021,0-.125,0-.125-.1s.387-1.612,1.382-1.612a.83.83,0,0,1,.858.858,1.887,1.887,0,0,1-.21.754,6.258,6.258,0,0,0-.533,2.052c0,.387.115.847.648.847a1.453,1.453,0,0,0,1.183-.889L258,80.664c.062-.282.135-.565.209-.837.042-.189.126-.513.146-.565a.456.456,0,0,1,.366-.22.28.28,0,0,1,.3.282.654.654,0,0,1-.042.241Z"/></g><line class="cls-10" x1="29.635" y1="40.225" x2="30.115" y2="40.225"/><line class="cls-11" x1="31.108" y1="40.225" x2="54.431" y2="40.225"/><line class="cls-10" x1="54.929" y1="40.225" x2="55.409" y2="40.225"/><path class="cls-12" d="M29.443,38.783A1.443,1.443,0,1,1,28,40.225,1.443,1.443,0,0,1,29.443,38.783Z"/><line class="cls-13" x1="29.443" y1="43.549" x2="29.443" y2="121.091"/><polygon points="27.519 119.632 29.443 120.448 31.366 119.632 29.443 124.19 27.519 119.632"/><g class="cls-9"><path d="M23.935,37.384V39.3H25.78v.49H23.935v1.934h-.523V39.792H21.568V39.3h1.844V37.384Z"/></g><line class="cls-10" x1="313.673" y1="40.225" x2="313.194" y2="40.225"/><line class="cls-14" x1="312.204" y1="40.225" x2="288.921" y2="40.225"/><line class="cls-10" x1="288.427" y1="40.225" x2="287.946" y2="40.225"/><path class="cls-12" d="M313.868,38.786a1.44,1.44,0,1,1-1.441,1.439A1.439,1.439,0,0,1,313.868,38.786Z"/><line class="cls-13" x1="313.868" y1="43.549" x2="313.868" y2="121.091"/><polygon points="311.942 119.632 313.868 120.448 315.788 119.632 313.868 124.19 311.942 119.632"/><g class="cls-9"><path d="M320.72,37.384V39.3h1.845v.49H320.72v1.934H320.2V39.792h-1.845V39.3H320.2V37.384Z"/></g><g class="cls-9"><path d="M154.79,82.7c0,.145,0,.2-.122.2a.1.1,0,0,1-.115-.084.8.8,0,0,0-.91-.84c-.726,0-.894.32-.894.55,0,.306.359.466.6.52.03,0,.458.076.519.091.91.169,1.131.7,1.131,1.071,0,.5-.336,1.063-1.307,1.063a1.26,1.26,0,0,1-.9-.33c-.038.039-.122.139-.16.176-.138.146-.146.154-.191.154-.1,0-.1-.077-.1-.2v-.948c0-.145,0-.207.122-.207.092,0,.1.039.131.138a1.1,1.1,0,0,0,1.092,1c.7,0,.9-.351.9-.65,0-.519-.589-.626-.948-.7a1.89,1.89,0,0,1-.994-.352.847.847,0,0,1-.306-.627c0-.367.237-.948,1.307-.948a1.215,1.215,0,0,1,.688.169c.046.03.062.03.069.03.023,0,.092-.069.107-.076.123-.123.146-.123.184-.123.1,0,.1.077.1.2Z"/></g><g class="cls-9"><path d="M156.642,82.7a1.229,1.229,0,0,0,.085-.413c0-.214-.077-.252-.184-.252-.229,0-.581.206-.8.932-.023.077-.03.123-.13.123a.1.1,0,0,1-.114-.1c0-.1.321-1.169,1.062-1.169a.656.656,0,0,1,.7.649,2,2,0,0,1-.161.543l-.236.619c-.085.207-.161.413-.238.619a1.38,1.38,0,0,0-.153.559c0,.206.092.244.184.244.306,0,.619-.313.8-.925.023-.076.038-.13.13-.13.054,0,.115.023.115.1,0,.1-.314,1.17-1.056,1.17a.652.652,0,0,1-.695-.65.993.993,0,0,1,.076-.337l.413-1.055Zm.49-1.866a.283.283,0,0,1-.3-.29.438.438,0,0,1,.42-.413.283.283,0,0,1,.3.29A.439.439,0,0,1,157.132,80.835Z"/><path d="M160.315,82.716a1.544,1.544,0,0,0,.046-.321c0-.252-.092-.359-.253-.359-.382,0-.772.389-1,.917-.054.115-.061.138-.146.138a.1.1,0,0,1-.114-.1c0-.1.474-1.169,1.284-1.169a.728.728,0,0,1,.78.718.94.94,0,0,1-.039.268l-.688,2.736a1.6,1.6,0,0,1-1.536,1.208c-.436,0-.718-.191-.718-.481a.441.441,0,0,1,.428-.444.277.277,0,0,1,.3.283.445.445,0,0,1-.268.39.821.821,0,0,0,.252.039c.467,0,.841-.5.956-.964Zm.45-1.881a.291.291,0,0,1-.3-.29.446.446,0,0,1,.427-.413.292.292,0,0,1,.3.29A.446.446,0,0,1,160.765,80.835Z"/></g><g class="cls-9"><path d="M150.744,83.632a2.762,2.762,0,0,1-2.45,2.136.99.99,0,0,1-1.109-.911.6.6,0,0,1,.586-.681.357.357,0,0,1,.388.366.563.563,0,0,1-.21.429.593.593,0,0,1-.45.127.846.846,0,0,0,.8.44,1.5,1.5,0,0,0,1.152-.661,4.006,4.006,0,0,0,.68-1.611,1.478,1.478,0,0,1-1.057.471,1.167,1.167,0,0,1-1.277-1.246,6.892,6.892,0,0,1,.607-2.2,2.222,2.222,0,0,0,.178-.733c0-.335-.178-.335-.262-.335-.356,0-.774.314-1.057,1.3-.052.168-.063.188-.167.188-.021,0-.126,0-.126-.1S147.352,79,148.347,79a.83.83,0,0,1,.858.858,1.9,1.9,0,0,1-.209.754,6.24,6.24,0,0,0-.534,2.052c0,.387.115.847.649.847a1.456,1.456,0,0,0,1.183-.889l.471-1.885c.062-.282.136-.565.209-.837.042-.188.126-.513.146-.565a.457.457,0,0,1,.367-.22.279.279,0,0,1,.3.283.667.667,0,0,1-.041.24Z"/></g><g class="cls-9"><path d="M55.389,21.552a3.189,3.189,0,0,0-.334,1.153c0,.265.081.38.276.38.588,0,.968-.7,1.176-1.429.057-.172.057-.207.173-.207.034,0,.138,0,.138.115s-.427,1.775-1.51,1.775a.914.914,0,0,1-.944-.945,3.216,3.216,0,0,1,.265-.922c.184-.5.7-1.832.8-2.131a1.731,1.731,0,0,0,.127-.6c0-.369-.2-.369-.288-.369-.392,0-.853.346-1.164,1.429-.058.184-.069.207-.185.207-.023,0-.138,0-.138-.115s.438-1.774,1.521-1.774a.914.914,0,0,1,.945.944,1.535,1.535,0,0,1-.15.611c-.115.311-.115.334-.253.668Zm.714-4.93a.412.412,0,0,1-.437-.415.658.658,0,0,1,.622-.61.4.4,0,0,1,.426.414A.656.656,0,0,1,56.1,16.622Z"/></g><g class="cls-9"><path d="M288.964,16.77a2.125,2.125,0,0,0,.081-.587c0-.484-.208-.53-.369-.53-.634,0-1.163.7-1.452,1.4-.092.219-.1.231-.208.231-.022,0-.137,0-.137-.115s.656-1.774,1.832-1.774a1.021,1.021,0,0,1,1.059,1.059,1.77,1.77,0,0,1-.057.426l-1.06,4.217a2.347,2.347,0,0,1-2.166,1.751c-.553,0-1.014-.253-1.014-.714a.642.642,0,0,1,.623-.657.4.4,0,0,1,.437.4.656.656,0,0,1-.519.611.961.961,0,0,0,.45.1c.645,0,1.2-.657,1.417-1.532Zm.61-2.868a.4.4,0,0,1-.426-.415.655.655,0,0,1,.611-.61.411.411,0,0,1,.437.414A.658.658,0,0,1,289.574,13.9Z"/></g><line class="cls-15" x1="59.623" y1="34.367" x2="83.749" y2="34.367"/><polygon points="82.299 36.276 83.112 34.367 82.299 32.456 86.828 34.367 82.299 36.276"/><line class="cls-16" x1="258.386" y1="34.367" x2="282.446" y2="34.367"/><polygon points="259.868 36.323 259.04 34.367 259.868 32.41 255.231 34.367 259.868 36.323"/><circle class="cls-17" cx="99.823" cy="40.225" r="9.524" transform="translate(-7.795 41.263) rotate(-22.5)"/><circle class="cls-17" cx="108.309" cy="40.225" r="9.524"/><path class="cls-12" d="M136.594,38.786a1.44,1.44,0,1,1-1.441,1.439A1.439,1.439,0,0,1,136.594,38.786Z"/><line class="cls-18" x1="136.594" y1="42.443" x2="136.594" y2="121.069"/><polygon points="134.657 119.598 136.594 120.423 138.528 119.598 136.594 124.19 134.657 119.598"/><line class="cls-19" x1="147.44" y1="125.522" x2="125.671" y2="125.522"/><line class="cls-20" x1="143.358" y1="128.546" x2="129.752" y2="128.546"/><line class="cls-21" x1="139.274" y1="131.569" x2="133.831" y2="131.569"/><line class="cls-22" x1="126.408" y1="34.37" x2="150.54" y2="34.37"/><polygon points="149.089 36.283 149.9 34.37 149.089 32.457 153.622 34.37 149.089 36.283"/><line class="cls-19" x1="40.328" y1="125.522" x2="18.557" y2="125.522"/><line class="cls-20" x1="36.246" y1="128.546" x2="22.64" y2="128.546"/><line class="cls-21" x1="32.161" y1="131.569" x2="26.718" y2="131.569"/><line class="cls-19" x1="180.337" y1="125.522" x2="158.566" y2="125.522"/><line class="cls-20" x1="176.256" y1="128.546" x2="162.648" y2="128.546"/><line class="cls-21" x1="172.17" y1="131.569" x2="166.726" y2="131.569"/><line class="cls-19" x1="256.305" y1="125.522" x2="234.532" y2="125.522"/><line class="cls-20" x1="252.221" y1="128.546" x2="238.616" y2="128.546"/><line class="cls-21" x1="248.136" y1="131.569" x2="242.694" y2="131.569"/><line class="cls-19" x1="324.831" y1="125.522" x2="303.061" y2="125.522"/><line class="cls-20" x1="320.751" y1="128.546" x2="307.141" y2="128.546"/><line class="cls-21" x1="316.665" y1="131.569" x2="311.22" y2="131.569"/><g class="cls-9"><path d="M25.255,86.722a1.792,1.792,0,0,0,.208-.67c0-.181-.061-.235-.168-.235-.248,0-.542.242-.717.818-.02.073-.026.107-.12.107-.02,0-.114,0-.114-.087,0-.114.308-1.025.971-1.025a.594.594,0,0,1,.636.569.814.814,0,0,1-.04.215c-.026.08-.268.689-.328.85s-.147.356-.214.536a1.086,1.086,0,0,0-.107.429c0,.147.033.234.167.234.261,0,.556-.274.71-.81.027-.074.034-.114.127-.114.02,0,.108,0,.108.087s-.295,1.025-.965,1.025a.6.6,0,0,1-.636-.569.869.869,0,0,1,.06-.282Zm.57-1.956a.257.257,0,0,1-.269-.255.4.4,0,0,1,.375-.368.257.257,0,0,1,.269.254A.4.4,0,0,1,25.825,84.766Z"/></g><g class="cls-9"><path d="M21.015,87.188c-.077.124-.115.172-.268.172-.124,0-.163-.028-.191-.22l-.756-5.9c-.029-.239-.038-.325-.574-.325-.153,0-.239,0-.239-.115,0-.182.114-.182.182-.182.162,0,.344.02.516.02s.354.009.526.009c.393,0,.8-.029,1.187-.029.057,0,.134.02.134.106,0,.191-.105.191-.24.191-.44,0-.66.125-.66.287l.651,5.061,2.937-4.669a.98.98,0,0,0,.144-.363c0-.2-.182-.3-.44-.316-.068,0-.154-.01-.154-.115,0-.182.125-.182.182-.182.306,0,.632.029.947.029.259,0,.536-.029.785-.029a.108.108,0,0,1,.124.115c0,.01-.009.172-.124.182a1.33,1.33,0,0,0-1.225.794Z"/></g><g class="cls-9"><path d="M20.573,79.384v-.3h3.453v.3Z"/></g><g class="cls-9"><path d="M72.736,29.487a1.813,1.813,0,0,0,.208-.67c0-.181-.061-.234-.168-.234-.248,0-.542.241-.717.817-.02.074-.026.107-.12.107-.02,0-.114,0-.114-.087,0-.114.308-1.025.971-1.025a.6.6,0,0,1,.636.57.815.815,0,0,1-.04.214c-.026.081-.268.69-.328.851s-.147.355-.214.536a1.077,1.077,0,0,0-.107.428c0,.148.033.235.167.235.261,0,.556-.275.71-.811.027-.074.034-.114.127-.114.02,0,.108,0,.108.087s-.3,1.025-.965,1.025a.594.594,0,0,1-.636-.569.862.862,0,0,1,.06-.281Zm.569-1.956a.257.257,0,0,1-.268-.254.4.4,0,0,1,.375-.369.256.256,0,0,1,.268.255A.4.4,0,0,1,73.305,27.531Z"/><path d="M76.378,29.112a1.221,1.221,0,0,0,.02-.2c0-.214-.06-.328-.227-.328-.389,0-.737.415-.905.8-.046.1-.053.121-.134.121-.02,0-.114,0-.114-.087s.429-1.025,1.173-1.025a.661.661,0,0,1,.717.63.8.8,0,0,1-.034.235l-.6,2.4a1.449,1.449,0,0,1-1.393,1.059c-.4,0-.663-.167-.663-.422A.393.393,0,0,1,74.6,31.9a.246.246,0,0,1,.261.248.383.383,0,0,1-.228.341.693.693,0,0,0,.241.04,1.025,1.025,0,0,0,.864-.851Zm.4-1.581a.256.256,0,0,1-.267-.254.4.4,0,0,1,.375-.369.258.258,0,0,1,.268.255A.4.4,0,0,1,76.78,27.531Z"/></g><g class="cls-9"><path d="M69.6,29.218a.81.81,0,0,0-.038.219c0,.106.038.144.24.163a3.116,3.116,0,0,0,.411.019c.211,0,.287,0,.287.115,0,.182-.115.182-.192.182-.286,0-.994-.029-1.281-.029s-.976.029-1.254.029c-.029,0-.143,0-.143-.106,0-.191.086-.191.306-.191.756,0,.785-.095.87-.449L70.1,24.013a.544.544,0,0,0,.019-.153c0-.182-.258-.182-.66-.182-.182,0-.268,0-.268-.105,0-.192.125-.192.192-.192.287,0,.985.029,1.272.029s.985-.029,1.263-.029c.038,0,.143,0,.143.115,0,.182-.076.182-.306.182-.756,0-.784.1-.87.44Z"/></g><g class="cls-9"><path d="M69.115,22.149v-.3h3.454v.3Z"/></g><g class="cls-9"><path d="M273.105,28.417a1.357,1.357,0,0,0,.02-.2c0-.215-.061-.329-.228-.329-.388,0-.737.416-.9.8-.047.1-.054.121-.134.121-.02,0-.114,0-.114-.087s.429-1.025,1.173-1.025a.66.66,0,0,1,.716.63.761.761,0,0,1-.034.234l-.6,2.4a1.45,1.45,0,0,1-1.394,1.059c-.4,0-.663-.168-.663-.423a.393.393,0,0,1,.382-.395.247.247,0,0,1,.262.248.382.382,0,0,1-.229.342.7.7,0,0,0,.241.04,1.026,1.026,0,0,0,.865-.851Zm.4-1.581a.257.257,0,0,1-.268-.255.4.4,0,0,1,.375-.368.257.257,0,0,1,.268.255A.4.4,0,0,1,273.507,26.836Z"/></g><g class="cls-9"><path d="M275.716,28.792a1.792,1.792,0,0,0,.208-.67c0-.181-.061-.235-.168-.235-.247,0-.542.242-.717.818-.02.074-.026.107-.12.107-.021,0-.114,0-.114-.087,0-.114.308-1.025.971-1.025a.6.6,0,0,1,.637.569.816.816,0,0,1-.041.215c-.026.08-.268.69-.328.85-.073.175-.148.355-.214.536a1.087,1.087,0,0,0-.108.429c0,.148.034.234.168.234.261,0,.556-.274.71-.81.027-.074.034-.114.127-.114.021,0,.108,0,.108.087s-.295,1.025-.965,1.025a.6.6,0,0,1-.637-.569.868.868,0,0,1,.061-.282Zm.569-1.956a.257.257,0,0,1-.268-.255.4.4,0,0,1,.375-.368.256.256,0,0,1,.268.255A.4.4,0,0,1,276.285,26.836Z"/></g><g class="cls-9"><path d="M269.033,28.522a.816.816,0,0,0-.038.219c0,.106.038.144.239.163a2.969,2.969,0,0,0,.411.02c.211,0,.287,0,.287.114,0,.182-.114.182-.191.182-.287,0-1-.029-1.282-.029s-.976.029-1.253.029c-.028,0-.144,0-.144-.106,0-.19.086-.19.307-.19.756,0,.784-.1.87-.45l1.292-5.157a.541.541,0,0,0,.019-.153c0-.182-.258-.182-.661-.182-.181,0-.267,0-.267-.105,0-.192.124-.192.191-.192.287,0,.986.029,1.273.029s.985-.029,1.262-.029c.039,0,.144,0,.144.116,0,.181-.076.181-.306.181-.756,0-.785.1-.871.44Z"/></g><g class="cls-9"><path d="M268.548,21.452v-.3H272v.3Z"/></g><g class="cls-9"><path d="M323.871,85.7a1.368,1.368,0,0,0,.019-.2c0-.215-.06-.328-.227-.328-.389,0-.737.415-.9.8-.047.1-.054.121-.134.121-.021,0-.114,0-.114-.087s.428-1.025,1.172-1.025a.66.66,0,0,1,.716.63.758.758,0,0,1-.033.234l-.6,2.4A1.449,1.449,0,0,1,322.37,89.3c-.4,0-.663-.167-.663-.422a.393.393,0,0,1,.382-.4.246.246,0,0,1,.261.248.381.381,0,0,1-.228.341.721.721,0,0,0,.241.04,1.025,1.025,0,0,0,.864-.851Zm.4-1.581a.256.256,0,0,1-.267-.254.4.4,0,0,1,.375-.369.257.257,0,0,1,.267.255A.4.4,0,0,1,324.272,84.116Z"/></g><g class="cls-9"><path d="M318.693,86.538c-.077.124-.115.173-.268.173-.124,0-.162-.03-.192-.221l-.756-5.9c-.028-.239-.038-.325-.573-.325-.153,0-.239,0-.239-.115,0-.182.114-.182.182-.182.162,0,.343.02.516.02s.354.009.526.009c.392,0,.8-.029,1.186-.029.058,0,.135.02.135.106,0,.191-.106.191-.239.191-.441,0-.661.124-.661.287l.651,5.061,2.937-4.669a.991.991,0,0,0,.143-.364c0-.2-.182-.3-.44-.315-.067,0-.153-.01-.153-.115,0-.182.124-.182.182-.182.306,0,.632.029.947.029.259,0,.536-.029.784-.029a.109.109,0,0,1,.125.115c0,.01-.01.172-.125.182a1.329,1.329,0,0,0-1.224.794Z"/></g><g class="cls-9"><path d="M318.251,78.735v-.3h3.454v.3Z"/></g><path d="M111.8,26.153a1.8,1.8,0,0,0,.207-.67c0-.181-.06-.234-.167-.234-.248,0-.543.241-.717.817-.02.074-.027.107-.121.107-.02,0-.113,0-.113-.087,0-.114.308-1.025.971-1.025a.6.6,0,0,1,.636.57.807.807,0,0,1-.04.214c-.027.081-.268.69-.328.851s-.148.355-.214.536a1.078,1.078,0,0,0-.108.428c0,.148.034.235.168.235.261,0,.556-.275.71-.811.026-.074.033-.114.127-.114.02,0,.107,0,.107.087s-.3,1.025-.964,1.025a.6.6,0,0,1-.637-.569.889.889,0,0,1,.06-.281Zm.569-1.956a.257.257,0,0,1-.268-.254.4.4,0,0,1,.375-.369.256.256,0,0,1,.268.255A.4.4,0,0,1,112.364,24.2Z"/><path d="M115.437,25.778a1.221,1.221,0,0,0,.02-.2c0-.214-.06-.328-.228-.328-.388,0-.736.415-.9.8-.047.1-.054.121-.134.121-.02,0-.114,0-.114-.087s.429-1.025,1.172-1.025a.661.661,0,0,1,.717.63.768.768,0,0,1-.034.235l-.6,2.4a1.45,1.45,0,0,1-1.394,1.059c-.4,0-.663-.167-.663-.422a.393.393,0,0,1,.382-.395.246.246,0,0,1,.261.248.381.381,0,0,1-.227.341.693.693,0,0,0,.241.04,1.025,1.025,0,0,0,.864-.85Zm.4-1.581a.256.256,0,0,1-.268-.254.4.4,0,0,1,.375-.369.257.257,0,0,1,.268.255A.4.4,0,0,1,115.839,24.2Z"/><path d="M109.014,24.918a5.612,5.612,0,0,0,.937-1.894c.048-.173.048-.2.144-.2s.115.076.115.1a5.539,5.539,0,0,1-1.1,2.248c-.1.114-.1.134-.1.335,0,.229,0,.975.3.975.019,0,.363,0,.536-.468.028-.067.057-.1.124-.1s.115.029.115.1a.886.886,0,0,1-.8.679.913.913,0,0,1-.871-.8,3.227,3.227,0,0,1-2.018.8,1.514,1.514,0,0,1-1.55-1.617,2.836,2.836,0,0,1,2.573-2.717c.708,0,1.6.469,1.6,1.971Zm-.66-.354c0-.746,0-2-.947-2a1.617,1.617,0,0,0-1.3.88,4.96,4.96,0,0,0-.555,1.99c0,.612.287,1.042.861,1.042a2.975,2.975,0,0,0,1.961-.842C108.354,25.473,108.354,24.918,108.354,24.564Z"/><path d="M94.513,25.827c0,.354.028.459.889.459h.306v.3c-.335-.029-1.167-.029-1.549-.029s-1.216,0-1.551.029v-.3h.306c.862,0,.891-.115.891-.459V20.871a2.865,2.865,0,0,1-1.254.249v-.3a2.364,2.364,0,0,0,1.741-.612c.221,0,.221.019.221.249Z"/><path d="M100.461,23.473a.507.507,0,1,1,.507-.506A.509.509,0,0,1,100.461,23.473Zm0,3.11a.507.507,0,1,1,.507-.507A.51.51,0,0,1,100.461,26.583Z"/><path d="M131.586,85.519a1.787,1.787,0,0,0,.208-.67c0-.18-.061-.234-.168-.234-.248,0-.542.241-.717.817-.02.074-.026.107-.12.107-.02,0-.114,0-.114-.087,0-.113.308-1.024.971-1.024a.6.6,0,0,1,.637.569.807.807,0,0,1-.04.214c-.027.081-.269.69-.329.851s-.147.355-.214.535a1.1,1.1,0,0,0-.107.43c0,.147.033.234.167.234.261,0,.556-.275.71-.81.027-.074.034-.114.127-.114.021,0,.108,0,.108.087s-.3,1.025-.965,1.025a.6.6,0,0,1-.636-.57.874.874,0,0,1,.06-.282Zm.57-1.956a.256.256,0,0,1-.268-.254.4.4,0,0,1,.375-.369.257.257,0,0,1,.268.255A.4.4,0,0,1,132.156,83.563Z"/><path d="M127.345,85.987c-.077.124-.115.173-.268.173-.124,0-.163-.029-.191-.221l-.756-5.9c-.029-.239-.038-.325-.574-.325-.153,0-.239,0-.239-.115,0-.182.114-.182.182-.182.162,0,.344.02.516.02s.354.009.526.009c.393,0,.8-.029,1.187-.029.057,0,.134.02.134.106,0,.191-.1.191-.24.191-.44,0-.66.125-.66.287l.651,5.061,2.937-4.669a.98.98,0,0,0,.144-.363c0-.2-.182-.3-.44-.316-.068,0-.154-.01-.154-.115,0-.182.125-.182.182-.182.306,0,.632.029.947.029.259,0,.536-.029.785-.029a.109.109,0,0,1,.124.116c0,.009-.009.171-.124.181a1.33,1.33,0,0,0-1.225.794Z"/><path d="M126.9,78.182v-.3h3.454v.3Z"/><path d="M119.272,85.519a1.8,1.8,0,0,0,.207-.67c0-.18-.06-.234-.167-.234-.248,0-.543.241-.717.817-.02.074-.027.107-.121.107-.02,0-.113,0-.113-.087,0-.113.308-1.024.971-1.024a.594.594,0,0,1,.636.569.807.807,0,0,1-.04.214c-.027.081-.268.69-.328.851s-.148.355-.214.535a1.1,1.1,0,0,0-.108.43c0,.147.034.234.168.234.261,0,.556-.275.71-.81.026-.074.033-.114.127-.114.02,0,.107,0,.107.087s-.294,1.025-.964,1.025a.6.6,0,0,1-.637-.57.9.9,0,0,1,.06-.282Zm.569-1.956a.256.256,0,0,1-.268-.254.4.4,0,0,1,.375-.369.257.257,0,0,1,.268.255A.4.4,0,0,1,119.841,83.563Z"/><path d="M122.914,85.144a1.208,1.208,0,0,0,.02-.2c0-.214-.06-.328-.228-.328-.388,0-.736.416-.9.8-.047.1-.054.12-.134.12-.02,0-.114,0-.114-.087s.429-1.024,1.172-1.024a.66.66,0,0,1,.717.629.768.768,0,0,1-.034.235l-.6,2.4a1.449,1.449,0,0,1-1.394,1.059c-.4,0-.663-.167-.663-.422a.393.393,0,0,1,.382-.395.245.245,0,0,1,.261.248.381.381,0,0,1-.227.341.693.693,0,0,0,.241.04,1.025,1.025,0,0,0,.864-.85Zm.4-1.581a.256.256,0,0,1-.268-.254.4.4,0,0,1,.375-.369.257.257,0,0,1,.268.255A.4.4,0,0,1,123.316,83.563Z"/><path d="M116.49,84.284a5.633,5.633,0,0,0,.938-1.894c.047-.172.047-.2.143-.2s.115.076.115.1a5.539,5.539,0,0,1-1.1,2.248c-.1.115-.1.134-.1.335,0,.229,0,.976.3.976.019,0,.363,0,.536-.469.028-.067.057-.1.124-.1s.115.029.115.1a.886.886,0,0,1-.8.679.91.91,0,0,1-.87-.8,3.23,3.23,0,0,1-2.019.8,1.514,1.514,0,0,1-1.55-1.617,2.836,2.836,0,0,1,2.573-2.717c.708,0,1.6.469,1.6,1.971Zm-.66-.354c0-.746,0-2-.947-2a1.621,1.621,0,0,0-1.3.88,4.96,4.96,0,0,0-.555,1.99c0,.612.287,1.043.861,1.043A2.98,2.98,0,0,0,115.849,85C115.83,84.839,115.83,84.284,115.83,83.93Z"/><path d="M149.557,28.659a1.868,1.868,0,0,0,.217-.7c0-.188-.063-.244-.175-.244-.258,0-.565.251-.746.851-.021.077-.028.111-.125.111-.022,0-.119,0-.119-.091,0-.118.321-1.066,1.011-1.066a.619.619,0,0,1,.662.592.791.791,0,0,1-.042.223c-.027.084-.278.719-.341.886s-.154.37-.223.558a1.154,1.154,0,0,0-.111.447c0,.153.034.243.174.243.272,0,.579-.285.739-.844.028-.076.035-.118.133-.118.02,0,.111,0,.111.091s-.307,1.066-1,1.066a.619.619,0,0,1-.663-.593.9.9,0,0,1,.063-.292Zm.593-2.036a.267.267,0,0,1-.279-.264.414.414,0,0,1,.391-.384.266.266,0,0,1,.278.264A.412.412,0,0,1,150.15,26.623Z"/><path d="M153.351,28.269a1.3,1.3,0,0,0,.021-.209c0-.224-.063-.342-.237-.342-.4,0-.768.433-.941.837-.049.1-.056.125-.14.125-.021,0-.118,0-.118-.091s.446-1.066,1.22-1.066a.687.687,0,0,1,.746.655.818.818,0,0,1-.035.244l-.627,2.5a1.51,1.51,0,0,1-1.451,1.1c-.419,0-.69-.175-.69-.44a.409.409,0,0,1,.4-.411.255.255,0,0,1,.272.258.4.4,0,0,1-.237.355.731.731,0,0,0,.251.042,1.067,1.067,0,0,0,.9-.885Zm.419-1.646a.267.267,0,0,1-.28-.264.414.414,0,0,1,.391-.384.266.266,0,0,1,.278.264A.413.413,0,0,1,153.77,26.623Z"/><path d="M151.623,23.092a.2.2,0,0,1,.147.2.218.218,0,0,1-.216.223c-.063,0-.077,0-.258-.139l-.837-.558c.014.161.063.663.076.781.008.07.036.279.036.342a.217.217,0,0,1-.433,0l.112-1.123-.948.634c-.084.063-.1.063-.146.063a.219.219,0,0,1-.217-.223c0-.133.063-.16.195-.216.175-.084.433-.181,1-.432l-1.053-.44a.2.2,0,0,1-.146-.2.219.219,0,0,1,.217-.223c.062,0,.083.021.153.063l.941.634c-.014-.16-.063-.662-.077-.78-.007-.071-.035-.28-.035-.342a.209.209,0,0,1,.217-.209c.209,0,.222.174.209.3l-.1,1.031.948-.634c.084-.063.1-.063.147-.063a.218.218,0,0,1,.216.223c0,.133-.063.16-.2.216-.173.084-.431.182-1,.433Z"/><path d="M137.894,30.257c-.06.169-.09.239-.22.239a.2.2,0,0,1-.2-.2.535.535,0,0,1,.05-.18l3.458-9.5a.185.185,0,0,1,.169-.089.2.2,0,0,1,.2.2.533.533,0,0,1-.05.178Z"/><path d="M146.661,26.272a5.889,5.889,0,0,0,.977-1.974c.05-.179.05-.209.149-.209s.12.08.12.1a5.766,5.766,0,0,1-1.146,2.342c-.1.119-.1.139-.1.348,0,.239,0,1.017.309,1.017.02,0,.379,0,.559-.489.029-.07.059-.1.128-.1s.121.029.121.1a.922.922,0,0,1-.837.707.95.95,0,0,1-.908-.836,3.352,3.352,0,0,1-2.1.836,1.575,1.575,0,0,1-1.613-1.683A2.953,2.953,0,0,1,145,23.6c.738,0,1.664.488,1.664,2.053Zm-.687-.369c0-.778,0-2.082-.986-2.082a1.689,1.689,0,0,0-1.356.916,5.178,5.178,0,0,0-.577,2.073c0,.638.3,1.086.9,1.086a3.1,3.1,0,0,0,2.043-.877C145.974,26.849,145.974,26.272,145.974,25.9Z"/><path d="M131.187,27.561a1.884,1.884,0,0,0,.216-.7c0-.189-.063-.245-.174-.245-.258,0-.566.251-.746.851-.022.077-.029.111-.126.111-.021,0-.118,0-.118-.09,0-.119.32-1.067,1.01-1.067a.62.62,0,0,1,.663.593.828.828,0,0,1-.042.222c-.028.084-.279.719-.341.886-.078.182-.154.37-.224.559a1.128,1.128,0,0,0-.111.446c0,.153.035.243.174.243.272,0,.579-.285.74-.843.027-.077.034-.119.132-.119.021,0,.111,0,.111.091s-.307,1.067-1,1.067a.619.619,0,0,1-.662-.593.925.925,0,0,1,.062-.292Zm.593-2.036a.268.268,0,0,1-.28-.266.413.413,0,0,1,.391-.383.267.267,0,0,1,.279.265A.414.414,0,0,1,131.78,25.525Z"/><path d="M134.981,27.17a1.326,1.326,0,0,0,.02-.209c0-.223-.062-.342-.237-.342-.4,0-.767.433-.941.837-.049.105-.056.125-.139.125-.022,0-.119,0-.119-.09s.446-1.067,1.22-1.067a.689.689,0,0,1,.747.655.811.811,0,0,1-.036.244l-.628,2.5a1.507,1.507,0,0,1-1.45,1.1c-.418,0-.69-.175-.69-.439a.408.408,0,0,1,.4-.411.255.255,0,0,1,.273.257.4.4,0,0,1-.238.356.76.76,0,0,0,.251.042,1.066,1.066,0,0,0,.9-.886Zm.418-1.645a.268.268,0,0,1-.28-.266.415.415,0,0,1,.391-.383.267.267,0,0,1,.279.265A.414.414,0,0,1,135.4,25.525Z"/><path d="M127.922,27.278a.885.885,0,0,0-.039.229c0,.109.039.149.249.169a3.061,3.061,0,0,0,.428.021c.22,0,.3,0,.3.119,0,.189-.12.189-.2.189-.3,0-1.037-.03-1.336-.03s-1.015.03-1.3.03c-.03,0-.15,0-.15-.109,0-.2.089-.2.319-.2.787,0,.817-.1.907-.469l1.345-5.37a.6.6,0,0,0,.019-.16c0-.189-.268-.189-.687-.189-.189,0-.279,0-.279-.11,0-.2.129-.2.2-.2.3,0,1.026.031,1.325.031s1.026-.031,1.315-.031c.039,0,.15,0,.15.121,0,.189-.08.189-.32.189-.787,0-.816.1-.906.458Z"/><path d="M127.416,19.916v-.308h3.6v.308Z"/><line class="cls-22" x1="182.25" y1="69.267" x2="182.25" y2="93.399"/><polygon points="180.337 91.948 182.25 92.759 184.163 91.948 182.25 96.481 180.337 91.948"/><line class="cls-22" x1="234.532" y1="69.267" x2="234.532" y2="93.399"/><polygon points="232.619 91.948 234.532 92.759 236.445 91.948 234.532 96.481 232.619 91.948"/><path d="M231.006,84.779a1.3,1.3,0,0,0,.021-.209c0-.224-.063-.342-.237-.342-.4,0-.768.433-.942.837-.048.105-.055.125-.139.125-.021,0-.118,0-.118-.091s.446-1.066,1.219-1.066a.687.687,0,0,1,.746.655.815.815,0,0,1-.034.244l-.628,2.5a1.508,1.508,0,0,1-1.45,1.1c-.419,0-.69-.175-.69-.439a.408.408,0,0,1,.4-.412.255.255,0,0,1,.272.258.4.4,0,0,1-.238.356.766.766,0,0,0,.252.042,1.069,1.069,0,0,0,.9-.886Zm.419-1.645a.268.268,0,0,1-.28-.265.414.414,0,0,1,.391-.384.267.267,0,0,1,.278.265A.414.414,0,0,1,231.425,83.134Z"/><path d="M228.241,84.828c0,.133,0,.182-.119.182-.027,0-.111,0-.118-.078-.015-.2-.049-.766-.859-.766-.662,0-.85.271-.85.5,0,.369.453.453,1.011.551a1.522,1.522,0,0,1,.83.341.851.851,0,0,1,.3.642c0,.5-.334.983-1.241.983a1.214,1.214,0,0,1-.85-.3c-.14.153-.272.3-.334.3-.1,0-.1-.063-.1-.181v-.859c0-.138,0-.187.118-.187.1,0,.1.027.126.118a1.022,1.022,0,0,0,1.038.913c.67,0,.859-.32.859-.592,0-.467-.566-.565-.915-.628a1.717,1.717,0,0,1-.961-.348.689.689,0,0,1-.265-.544c0-.349.236-.872,1.233-.872a1.269,1.269,0,0,1,.733.188c.042-.035.111-.1.126-.1.091-.084.1-.084.139-.084.1,0,.1.063.1.181Z"/><path d="M223.609,84.887a.859.859,0,0,0-.04.23c0,.109.04.149.249.169a3.22,3.22,0,0,0,.429.02c.219,0,.3,0,.3.12,0,.189-.12.189-.2.189-.3,0-1.038-.03-1.336-.03s-1.016.03-1.305.03c-.03,0-.15,0-.15-.109,0-.2.089-.2.319-.2.787,0,.817-.1.907-.468l1.345-5.37a.6.6,0,0,0,.019-.161c0-.188-.268-.188-.687-.188-.189,0-.279,0-.279-.11,0-.2.129-.2.2-.2.3,0,1.026.031,1.325.031s1.026-.031,1.315-.031c.039,0,.15,0,.15.12,0,.19-.08.19-.32.19-.787,0-.816.1-.906.458Z"/><path d="M223.1,77.525v-.308h3.6v.308Z"/><path d="M193.359,85.846a1.858,1.858,0,0,0,.216-.7c0-.188-.062-.244-.174-.244-.258,0-.565.251-.746.851-.021.077-.028.111-.125.111-.021,0-.119,0-.119-.091,0-.118.321-1.066,1.011-1.066a.62.62,0,0,1,.663.593.869.869,0,0,1-.042.222c-.029.084-.28.719-.342.886-.077.182-.153.37-.224.559a1.145,1.145,0,0,0-.111.446c0,.153.035.243.175.243.271,0,.578-.285.739-.844.027-.076.034-.118.132-.118.021,0,.111,0,.111.091s-.306,1.066-1,1.066a.619.619,0,0,1-.662-.593.886.886,0,0,1,.063-.291Zm.593-2.036a.267.267,0,0,1-.279-.264.413.413,0,0,1,.39-.384.267.267,0,0,1,.28.265A.414.414,0,0,1,193.952,83.81Z"/><path d="M191.57,85.505c0,.132,0,.181-.119.181-.028,0-.112,0-.119-.077-.014-.2-.048-.766-.858-.766-.662,0-.85.271-.85.495,0,.369.453.453,1.011.55a1.527,1.527,0,0,1,.83.342.851.851,0,0,1,.3.642c0,.5-.334.982-1.241.982a1.209,1.209,0,0,1-.85-.3c-.14.154-.272.3-.335.3-.1,0-.1-.062-.1-.18v-.859c0-.138,0-.187.118-.187.1,0,.1.027.125.118a1.025,1.025,0,0,0,1.039.913c.67,0,.858-.32.858-.592,0-.468-.565-.565-.913-.628a1.721,1.721,0,0,1-.963-.348.69.69,0,0,1-.264-.544c0-.349.236-.872,1.233-.872a1.269,1.269,0,0,1,.733.188c.042-.035.111-.1.125-.1.091-.084.105-.084.14-.084.1,0,.1.063.1.181Z"/><path d="M186.938,85.564a.9.9,0,0,0-.039.23c0,.109.039.149.249.169a3.212,3.212,0,0,0,.428.02c.219,0,.3,0,.3.119,0,.19-.119.19-.2.19-.3,0-1.037-.031-1.335-.031s-1.016.031-1.306.031c-.029,0-.149,0-.149-.11,0-.2.089-.2.319-.2.787,0,.817-.1.907-.469l1.345-5.37a.591.591,0,0,0,.019-.16c0-.188-.269-.188-.687-.188-.189,0-.279,0-.279-.111,0-.2.129-.2.2-.2.3,0,1.027.03,1.325.03s1.027-.03,1.316-.03c.039,0,.149,0,.149.12,0,.19-.079.19-.319.19-.787,0-.816.1-.906.458Z"/><path d="M186.432,78.2v-.309h3.6V78.2Z"/><path d="M209.484,61.973a1.866,1.866,0,0,0,.216-.7c0-.188-.063-.244-.174-.244-.258,0-.566.251-.746.851-.022.077-.029.111-.126.111-.021,0-.119,0-.119-.09,0-.119.321-1.067,1.011-1.067a.62.62,0,0,1,.663.593.828.828,0,0,1-.042.222c-.028.084-.279.719-.341.886-.078.182-.154.37-.224.559a1.128,1.128,0,0,0-.111.446c0,.153.035.243.174.243.272,0,.578-.285.74-.844.027-.076.034-.118.131-.118.022,0,.112,0,.112.091s-.307,1.066-1,1.066a.618.618,0,0,1-.662-.592.913.913,0,0,1,.062-.292Zm.592-2.037a.267.267,0,0,1-.279-.265.413.413,0,0,1,.391-.383.267.267,0,0,1,.279.265A.413.413,0,0,1,210.076,59.936Z"/><path d="M213.278,61.582a1.459,1.459,0,0,0,.02-.209c0-.224-.062-.342-.237-.342-.4,0-.767.433-.942.837-.048.1-.055.125-.138.125-.022,0-.119,0-.119-.09s.446-1.067,1.22-1.067a.687.687,0,0,1,.746.655.782.782,0,0,1-.035.244l-.628,2.5a1.507,1.507,0,0,1-1.45,1.1c-.418,0-.69-.175-.69-.44a.409.409,0,0,1,.4-.411.256.256,0,0,1,.273.258.4.4,0,0,1-.238.356.755.755,0,0,0,.251.042,1.068,1.068,0,0,0,.9-.886Zm.418-1.646a.267.267,0,0,1-.28-.265.414.414,0,0,1,.391-.383.268.268,0,0,1,.279.265A.413.413,0,0,1,213.7,59.936Z"/><path d="M207.694,61.631c0,.133,0,.181-.118.181-.029,0-.113,0-.12-.077-.013-.2-.048-.766-.857-.766-.662,0-.851.271-.851.495,0,.369.453.453,1.011.551a1.522,1.522,0,0,1,.83.341.848.848,0,0,1,.3.642c0,.5-.335.982-1.241.982a1.216,1.216,0,0,1-.851-.3c-.139.153-.272.3-.335.3-.1,0-.1-.062-.1-.18v-.859c0-.138,0-.187.118-.187.1,0,.1.027.126.118a1.023,1.023,0,0,0,1.039.913c.669,0,.857-.32.857-.592,0-.467-.564-.565-.913-.628a1.724,1.724,0,0,1-.963-.348.69.69,0,0,1-.264-.544c0-.349.237-.872,1.234-.872a1.268,1.268,0,0,1,.732.188c.042-.035.112-.1.125-.1.091-.084.105-.084.14-.084.1,0,.1.063.1.181Z"/><path d="M203.063,61.689a.859.859,0,0,0-.04.23c0,.109.04.149.249.169a3.22,3.22,0,0,0,.429.02c.218,0,.3,0,.3.119,0,.19-.119.19-.2.19-.3,0-1.036-.03-1.335-.03s-1.016.03-1.306.03c-.029,0-.149,0-.149-.109,0-.2.09-.2.319-.2.788,0,.817-.1.907-.468l1.345-5.371a.559.559,0,0,0,.02-.16c0-.188-.27-.188-.688-.188-.189,0-.279,0-.279-.111,0-.2.13-.2.2-.2.3,0,1.027.031,1.326.031s1.026-.031,1.315-.031c.04,0,.149,0,.149.12,0,.19-.079.19-.318.19-.787,0-.817.1-.907.458Z"/><path d="M202.556,54.328v-.309h3.6v.309Z"/><line class="cls-22" x1="193.941" y1="51.663" x2="218.073" y2="51.663"/><polygon points="216.622 53.576 217.433 51.663 216.622 49.75 221.155 51.663 216.622 53.576"/></svg>