<?xml version="1.0" encoding="utf-8"?>
<!-- Generator: Adobe Illustrator 16.0.0, SVG Export Plug-In . SVG Version: 6.00 Build 0)  -->
<!DOCTYPE svg PUBLIC "-//W3C//DTD SVG 1.1//EN" "http://www.w3.org/Graphics/SVG/1.1/DTD/svg11.dtd">
<svg version="1.1" id="Layer_1" xmlns="http://www.w3.org/2000/svg" xmlns:xlink="http://www.w3.org/1999/xlink" x="0px" y="0px"
	 width="673px" height="272px" viewBox="0 0 673 272" enable-background="new 0 0 673 272" xml:space="preserve">
<path fill="#DEEDFB" d="M662.941,196.96c0,4.548-3.688,8.231-8.231,8.231H533.857c-4.545,0-8.231-3.688-8.231-8.231v-31.97
	c0-4.547,3.688-8.23,8.231-8.23H654.71c4.545,0,8.231,3.688,8.231,8.23V196.96L662.941,196.96z"/>
<path fill="#DEEDFB" d="M403.403,256.547c0,4.18-3.688,7.561-8.233,7.561h-84.188c-4.547,0-8.234-3.381-8.234-7.561v-23.138
	c0-4.177,3.688-7.563,8.234-7.563h84.188c4.547,0,8.233,3.389,8.233,7.563V256.547L403.403,256.547z"/>
<path fill="#DEEDFB" d="M428.561,46.149c0,4.546-3.688,8.231-8.23,8.231H285.821c-4.548,0-8.231-3.686-8.231-8.231v-21.32
	c0-4.547,3.684-8.231,8.231-8.231h134.506c4.546,0,8.229,3.685,8.229,8.231v21.32H428.561z"/>
<path fill="#DEEDFB" d="M253.319,171.025c0,4.551-3.685,8.229-8.231,8.229h-99.761c-4.545,0-8.23-3.685-8.23-8.229V108.99
	c0-4.547,3.686-8.232,8.23-8.232h99.76c4.546,0,8.229,3.686,8.229,8.232L253.319,171.025L253.319,171.025z"/>
<path fill="#DEEDFB" d="M107.762,151.783c0,4.178-3.686,7.563-8.231,7.563H15.352c-4.546,0-8.231-3.386-8.231-7.563V128.64
	c0-4.177,3.686-7.562,8.231-7.562h84.179c4.546,0,8.231,3.386,8.231,7.562V151.783z"/>
<path fill="#E6E7E8" d="M623.319,36.814l-6.523-2.093c-5.786-1.857-15.364-2.232-21.276-0.834c0,0-28.205,3.351-37.541,3.354
	c-8.938,0.006-13.795-0.563-13.795-0.563c-5.188-0.604-9.552-3.97-10.686-8.756c-0.182,0-0.294,0.001-0.294,0.001v19.935
	l1.479,2.816l4.796,2.622h87.776c0,0,3.957-1.674,4.83-2.805c0.937-1.205,1.767-2.267,1.767-2.267V27.921c-0.02,0-0.029,0-0.049,0
	C633.321,33.604,628.796,38.568,623.319,36.814z"/>
<text transform="matrix(1 0 0 1 312.6001 104.1738)" font-family="'Tahoma'" font-size="12.3477">AC Power Flow</text>
<g>
	<line fill="none" x1="109.942" y1="140.216" x2="134.625" y2="140.216"/>
	<g>
		
			<line fill="none" stroke="#000000" stroke-width="0.8231" stroke-miterlimit="10" x1="109.942" y1="140.216" x2="130.695" y2="140.216"/>
		<g>
			<polygon points="128.845,142.656 129.88,140.216 128.845,137.777 134.625,140.216 			"/>
		</g>
	</g>
</g>
<path fill="none" stroke="#000000" stroke-width="1.2348" stroke-miterlimit="10" d="M410.961,107.536
	c0,4.546-3.396,8.231-7.584,8.231h-100.61c-4.188,0-7.583-3.686-7.583-8.231V92.443c0-4.547,3.395-8.231,7.583-8.231h100.61
	c4.188,0,7.584,3.687,7.584,8.231V107.536L410.961,107.536z"/>
<text transform="matrix(1 0 0 1 312.084 185.1406)" font-family="'Tahoma'" font-size="12.3477">DC Power Flow</text>
<path fill="none" stroke="#000000" stroke-width="1.2348" stroke-miterlimit="10" d="M410.963,187.945
	c0,4.548-3.396,8.23-7.584,8.23H302.767c-4.188,0-7.583-3.688-7.583-8.23V172.85c0-4.545,3.395-8.229,7.583-8.229h100.614
	c4.188,0,7.582,3.688,7.582,8.229V187.945L410.963,187.945z"/>
<g>
	<g>
		<path fill="none" stroke="#000000" stroke-width="0.8231" stroke-miterlimit="10" d="M289.581,100.05h-8.971
			c-4.528,0-8.232,3.704-8.232,8.232v17.555c0,4.526-3.704,8.232-8.231,8.232h-9.173"/>
		<g>
			<polygon points="287.733,97.612 288.769,100.05 287.733,102.491 293.514,100.05 			"/>
		</g>
	</g>
</g>
<g>
	<g>
		<path fill="none" stroke="#000000" stroke-width="0.8231" stroke-miterlimit="10" d="M289.581,180.625h-8.971
			c-4.528,0-8.232-3.706-8.232-8.232v-17.558c0-4.524-3.704-8.229-8.231-8.229h-9.173"/>
		<g>
			<polygon points="287.733,178.184 288.769,180.625 287.733,183.063 293.514,180.625 			"/>
		</g>
	</g>
</g>
<g>
	<g>
		<path fill="none" stroke="#000000" stroke-width="0.8231" stroke-miterlimit="10" d="M447.089,132.776h-8.974
			c-4.527,0-8.232-3.703-8.232-8.231V106.99c0-4.527-3.702-8.231-8.229-8.231h-9.176"/>
		<g>
			<polygon points="445.242,130.337 446.281,132.776 445.242,135.22 451.023,132.776 			"/>
		</g>
	</g>
</g>
<g>
	<g>
		<path fill="none" stroke="#000000" stroke-width="0.8231" stroke-miterlimit="10" d="M447.089,148.604h-8.974
			c-4.527,0-8.232,3.707-8.232,8.233v17.558c0,4.525-3.702,8.229-8.229,8.229h-9.176"/>
		<g>
			<polygon points="445.242,146.171 446.281,148.604 445.242,151.045 451.023,148.604 			"/>
		</g>
	</g>
</g>
<g>
	<line fill="none" x1="57.439" y1="92.084" x2="57.439" y2="116.769"/>
	<g>
		
			<line fill="none" stroke="#000000" stroke-width="0.8231" stroke-miterlimit="10" x1="57.439" y1="92.084" x2="57.439" y2="112.837"/>
		<g>
			<polygon points="55,110.988 57.439,112.023 59.881,110.988 57.439,116.769 			"/>
		</g>
	</g>
</g>
<g>
	<path fill="#BE362A" d="M101.581,51.793l-89.016,0.411c0,0-3.104,1.245-3.681,2.216c-1.207,2.031-1.765,4.187-1.765,4.187v14.382
		c0,0,62.881,0.304,100.643,0v-8.866c0,0-0.007-6.462-0.938-8.16C105.951,54.373,101.581,51.793,101.581,51.793z"/>
	<path fill="#E6E7E8" d="M101.167,90.054H13.389l-4.792-2.933l-1.478-3.146V73.231c0,0,62.881-0.242,100.643,0v11.157
		c0,0-0.83,1.184-1.763,2.53C105.124,88.182,101.167,90.054,101.167,90.054z"/>
	<path fill="#FFFFFF" stroke="#000000" stroke-width="0.8231" stroke-miterlimit="10" d="M7.119,73.212h100.643H7.119z"/>
	<text transform="matrix(1 0 0 1 25.2134 66.3945)" fill="#FFFFFF" font-family="'Tahoma'" font-size="12.3477">Power Flow</text>
	<text transform="matrix(1 0 0 1 37.0317 85.1973)" font-family="'Tahoma'" font-size="10.2897">runpf(...)</text>
	<path fill="none" stroke="#000000" stroke-width="1.2348" stroke-miterlimit="10" d="M107.761,82.494
		c0,4.177-3.686,7.562-8.229,7.562h-84.18c-4.546,0-8.231-3.386-8.231-7.562V59.356c0-4.178,3.686-7.563,8.231-7.563H99.53
		c4.546,0,8.229,3.386,8.229,7.563L107.761,82.494L107.761,82.494z"/>
</g>
<text transform="matrix(1 0 0 1 42.9097 136.6758)" font-family="'Tahoma'" font-size="12.3477">DATA</text>
<path fill="#E6E7E8" d="M101.167,159.346H13.389l-4.792-2.934l-1.478-3.146v-10.742c0,0,62.881-0.239,100.643,0v11.152
	c0,0-0.83,1.188-1.763,2.533C105.124,157.475,101.167,159.346,101.167,159.346z"/>
<path fill="#FFFFFF" stroke="#000000" stroke-width="0.8231" stroke-miterlimit="10" d="M7.119,142.508h100.643H7.119z"/>
<text transform="matrix(1 0 0 1 18.4419 155.0527)" font-family="'Tahoma'" font-size="10.2897">h5-file</text>
<path fill="none" stroke="#000000" stroke-width="1.2348" stroke-miterlimit="10" d="M107.762,151.783
	c0,4.178-3.686,7.563-8.231,7.563H15.352c-4.546,0-8.231-3.386-8.231-7.563V128.64c0-4.177,3.686-7.562,8.231-7.562h84.179
	c4.546,0,8.231,3.386,8.231,7.562V151.783z"/>
<path fill="#E6E7E8" d="M252.885,173.613l-1.832,3.621l-3.244,2.188l-15.573-0.271l-18.417,0.271v-78.666
	c0,0,19.023,0.104,28.343,0.226c7.926,0.106,7.858-0.891,10.02,2.472c0.716,1.113,1.141,4.782,1.131,11.923
	c-0.017,12.151-0.037,27.5,0,37.061C253.371,168.035,252.885,173.613,252.885,173.613z"/>
<text transform="matrix(1 0 0 1 220.563 112.8906)" font-family="'Tahoma'" font-size="10.2897">nr</text>
<text transform="matrix(1 0 0 1 220.563 127.8408)" font-family="'Tahoma'" font-size="10.2897">gs</text>
<text transform="matrix(1 0 0 1 220.4243 159.998)" font-family="'Tahoma'" font-size="10.2897">fnrbx</text>
<path fill="#FFFFFF" stroke="#000000" stroke-width="0.8231" stroke-miterlimit="10" d="M213.819,101.262v77.994V101.262z"/>
<text transform="matrix(1 0 0 1 146.9009 144.5)" font-family="'Tahoma'" font-size="12.3477">METHOD</text>
<line fill="none" stroke="#000000" stroke-width="0.8231" stroke-miterlimit="10" x1="213.736" y1="148.283" x2="253.209" y2="148.283"/>
<line fill="none" stroke="#000000" stroke-width="0.8231" stroke-miterlimit="10" x1="213.767" y1="132.208" x2="253.243" y2="132.208"/>
<line fill="none" stroke="#000000" stroke-width="0.8231" stroke-miterlimit="10" x1="213.736" y1="163.771" x2="253.209" y2="163.771"/>
<text transform="matrix(1 0 0 1 220.563 144.2158)" font-family="'Tahoma'" font-size="10.2897">fnrxb</text>
<line fill="none" stroke="#000000" stroke-width="0.8231" stroke-miterlimit="10" x1="213.755" y1="116.935" x2="253.229" y2="116.935"/>
<text transform="matrix(1 0 0 1 220.563 176.1182)" font-family="'Tahoma'" font-size="10.2897">dc</text>
<text transform="matrix(1 0 0 1 335.3599 241.4355)" font-family="'Tahoma'" font-size="12.3477">SOLVE</text>
<path fill="#E6E7E8" d="M396.811,264.105h-87.792l-4.792-2.931l-1.479-3.146v-10.746c0,0,62.893-0.239,100.654,0v11.154
	c0,0-0.829,1.188-1.768,2.533C400.766,262.236,396.811,264.105,396.811,264.105z"/>
<path fill="#FFFFFF" stroke="#000000" stroke-width="0.8231" stroke-miterlimit="10" d="M302.75,247.27h100.654H302.75z"/>
<text transform="matrix(1 0 0 1 316.9473 259.2432)" font-family="'Tahoma'" font-size="10.2897">builtin</text>
<path fill="none" stroke="#000000" stroke-width="1.2348" stroke-miterlimit="10" d="M403.403,256.547
	c0,4.18-3.688,7.561-8.233,7.561h-84.188c-4.547,0-8.234-3.381-8.234-7.561v-23.138c0-4.177,3.688-7.563,8.234-7.563h84.188
	c4.547,0,8.233,3.389,8.233,7.563V256.547L403.403,256.547z"/>
<text transform="matrix(1 0 0 1 318.6216 31.9063)" font-family="'Tahoma'" font-size="12.3477">ACCONTROL</text>
<path fill="#E6E7E8" d="M418.672,55.296H286.993l-7.188-2.932l-2.216-3.146V38.474c0,0,94.329-0.241,150.972,0v11.157
	c0,0-1.241,1.183-2.645,2.529C424.604,53.425,418.672,55.296,418.672,55.296z"/>
<path fill="#FFFFFF" stroke="#000000" stroke-width="0.8231" stroke-miterlimit="10" d="M277.589,38.019h150.972H277.589z"/>
<text transform="matrix(1 0 0 1 293.6675 49.998)" font-family="'Tahoma'" font-size="10.2897">max</text>
<text transform="matrix(1 0 0 1 343.6328 49.998)" font-family="'Tahoma'" font-size="10.2897">stop</text>
<path fill="#FFFFFF" stroke="#000000" stroke-width="0.8231" stroke-miterlimit="10" d="M327.927,38.405v15.976V38.405z"/>
<path fill="none" stroke="#000000" stroke-width="1.2348" stroke-miterlimit="10" d="M428.561,46.149
	c0,4.546-3.688,8.231-8.23,8.231H285.821c-4.548,0-8.231-3.686-8.231-8.231v-21.32c0-4.547,3.684-8.231,8.231-8.231h134.506
	c4.546,0,8.229,3.685,8.229,8.231v21.32H428.561z"/>
<path fill="#FFFFFF" stroke="#000000" stroke-width="0.8231" stroke-miterlimit="10" d="M378.24,38.021v15.978V38.021z"/>
<text transform="matrix(1 0 0 1 385.4922 49.998)" font-family="'Tahoma'" font-size="10.2897">reactive</text>
<g>
	<line fill="none" x1="353.08" y1="56.945" x2="353.08" y2="81.627"/>
	<g>
		
			<line fill="none" stroke="#000000" stroke-width="0.8231" stroke-miterlimit="10" x1="353.08" y1="56.945" x2="353.08" y2="77.696"/>
		<g>
			<polygon points="350.641,75.845 353.08,76.883 355.52,75.845 353.08,81.627 			"/>
		</g>
	</g>
</g>
<g>
	<line fill="none" x1="353.102" y1="162.568" x2="353.102" y2="117.286"/>
	<g>
		
			<line fill="none" stroke="#000000" stroke-width="0.8231" stroke-miterlimit="10" x1="353.102" y1="162.568" x2="353.102" y2="121.217"/>
		<g>
			<polygon points="355.534,123.066 353.102,122.031 350.661,123.066 353.102,117.286 			"/>
		</g>
	</g>
</g>
<path fill="none" stroke="#000000" stroke-width="1.2348" stroke-miterlimit="10" d="M453.124,116.33v47.225
	c0,0,32.594-13.225,32.666-23.25C485.864,130.168,453.124,116.33,453.124,116.33z"/>
<text transform="matrix(1 0 0 1 569.5527 103.0508)" font-family="'Tahoma'" font-size="12.3477">SAVE</text>
<path fill="none" stroke="#000000" stroke-width="1.2348" stroke-miterlimit="10" d="M641.521,106.128
	c0,4.546-3.396,8.23-7.584,8.23H533.337c-4.188,0-7.582-3.685-7.582-8.23V91.037c0-4.547,3.396-8.231,7.582-8.231h100.601
	c4.188,0,7.584,3.687,7.584,8.231V106.128L641.521,106.128z"/>
<g>
	<line fill="none" x1="583.528" y1="80.712" x2="583.528" y2="56.027"/>
	<g>
		
			<line fill="none" stroke="#000000" stroke-width="0.8231" stroke-miterlimit="10" x1="583.528" y1="80.712" x2="583.528" y2="59.96"/>
		<g>
			<polygon points="585.968,61.809 583.528,60.773 581.085,61.809 583.528,56.027 			"/>
		</g>
	</g>
</g>
<path fill="#E6E7E8" d="M659.253,203.825c-1.679,1.664-5.812,1.366-5.812,1.366h-48.528l-0.193-47.789c0,0,30.381-1.188,49.396-0.33
	c2.627,0.119,3.758,1.082,5.728,1.48c1.071,0.219,2.798,4.229,2.712,9.123c-0.128,7.311,0.343,17.742,0.375,23.27
	c0.022,4.335,1.265,5.128-0.128,7.521C661.755,200.28,661.694,201.42,659.253,203.825z"/>
<line fill="none" stroke="#000000" stroke-width="0.8231" stroke-miterlimit="10" x1="604.917" y1="189.413" x2="662.941" y2="189.413"/>
<text transform="matrix(1 0 0 1 612.0488 185.3809)" font-family="'Tahoma'" font-size="10.2897">flow</text>
<text transform="matrix(1 0 0 1 612.0488 200.3223)" font-family="'Tahoma'" font-size="10.2897">generator</text>
<path fill="#FFFFFF" stroke="#000000" stroke-width="0.8231" stroke-miterlimit="10" d="M604.917,157.404v47.787V157.404z"/>
<text transform="matrix(1 0 0 1 538.2305 186.043)" font-family="'Tahoma'" font-size="12.3477">DISPLAY</text>
<text transform="matrix(1 0 0 1 612.0488 169.4141)" font-family="'Tahoma'" font-size="10.2897">main</text>
<line fill="none" stroke="#000000" stroke-width="0.8231" stroke-miterlimit="10" x1="604.921" y1="173" x2="662.95" y2="173"/>
<path fill="none" stroke="#000000" stroke-width="1.2348" stroke-miterlimit="10" d="M662.941,196.96
	c0,4.548-3.688,8.231-8.231,8.231H533.857c-4.545,0-8.231-3.688-8.231-8.231v-31.97c0-4.547,3.688-8.23,8.231-8.23H654.71
	c4.545,0,8.231,3.688,8.231,8.23V196.96L662.941,196.96z"/>
<g>
	<g>
		<path fill="none" stroke="#000000" stroke-width="0.8231" stroke-miterlimit="10" d="M519.542,98.817h-8.973
			c-4.527,0-8.232,3.704-8.232,8.231l0.004,17.554c0,4.529-3.702,8.231-8.229,8.231h-9.174"/>
		<g>
			<polygon points="517.691,96.379 518.729,98.817 517.691,101.254 523.477,98.817 			"/>
		</g>
	</g>
</g>
<g>
	<g>
		<path fill="none" stroke="#000000" stroke-width="0.8231" stroke-miterlimit="10" d="M519.542,181.389h-8.973
			c-4.527,0-8.232-3.705-8.232-8.229l0.004-17.557c0-4.527-3.702-8.23-8.229-8.23h-9.174"/>
		<g>
			<polygon points="517.691,178.951 518.729,181.389 517.691,183.828 523.477,181.389 			"/>
		</g>
	</g>
</g>
<g>
	<path fill="#F1F2F2" d="M639.692,249.323c0.206,5.637-1.571,12.479-1.571,12.479c-0.566,2.192-2.885,3.985-5.148,3.985H565.2
		c-2.267,0-5.298-1.42-6.748-3.162l-6.39-7.674c-1.447-1.736-1.65-4.729-0.447-6.646l6.464-10.313c1.2-1.914,4.036-3.48,6.302-3.48
		h66.125c2.27,0,5.026,1.611,6.145,3.583C636.639,238.094,639.462,243.084,639.692,249.323z"/>
	<path fill="none" stroke="#000000" stroke-width="1.2348" stroke-miterlimit="10" d="M639.692,249.323
		c0.206,5.637-1.571,12.479-1.571,12.479c-0.566,2.192-2.885,3.985-5.148,3.985H565.2c-2.267,0-5.298-1.42-6.748-3.162l-6.39-7.674
		c-1.447-1.736-1.65-4.729-0.447-6.646l6.464-10.313c1.2-1.914,4.036-3.48,6.302-3.48h66.125c2.27,0,5.026,1.611,6.145,3.583
		C636.639,238.094,639.462,243.084,639.692,249.323z"/>
</g>
<text transform="matrix(1 0 0 1 575.8125 255.1719)" font-family="'Tahoma'" font-size="12.3477">Display</text>
<g>
	<line fill="none" x1="595.037" y1="207.788" x2="595.037" y2="232.47"/>
	<g>
		
			<line fill="none" stroke="#000000" stroke-width="0.8231" stroke-miterlimit="10" x1="595.037" y1="207.788" x2="595.037" y2="228.538"/>
		<g>
			<polygon points="592.597,226.693 595.037,227.727 597.475,226.693 595.037,232.47 			"/>
		</g>
	</g>
</g>
<path fill="#FFFFFF" stroke="#000000" stroke-width="0.8231" stroke-miterlimit="10" d="M57.439,142.417v16.618V142.417z"/>
<text transform="matrix(1 0 0 1 65.3149 155.0527)" font-family="'Tahoma'" font-size="10.2897">xlsx-file</text>
<path fill="#FFFFFF" stroke="#000000" stroke-width="0.8231" stroke-miterlimit="10" d="M353.082,247.331v16.619V247.331z"/>
<text transform="matrix(1 0 0 1 374.1113 259.2432)" font-family="'Tahoma'" font-size="10.2897">lu</text>
<text transform="matrix(1 0 0 1 544.5156 48.7139)" font-family="'Tahoma'" font-size="10.2897">h5-file</text>
<path fill="none" stroke="#000000" stroke-width="1.2348" stroke-miterlimit="10" d="M633.846,22.98v22.443
	c0,4.177-3.687,7.561-8.229,7.561h-84.179c-4.547,0-8.23-3.384-8.23-7.561V22.567"/>
<path fill="#FFFFFF" stroke="#000000" stroke-width="0.8231" stroke-miterlimit="10" d="M583.528,35.21V53.3V35.21z"/>
<text transform="matrix(1 0 0 1 591.3906 48.7139)" font-family="'Tahoma'" font-size="10.2897">xlsx-file</text>
<text transform="matrix(1 0 0 1 555.6758 24.9844)" font-family="'Tahoma'" font-size="12.3477">Save Data</text>
<g>
	<path fill="none" stroke="#000000" stroke-width="1.2348" stroke-miterlimit="10" d="M633.848,25.989
		c0,6.791-4.734,13.12-10.525,11.045l-6.523-2.339c-5.786-2.075-15.363-2.494-21.275-0.932c0,0-28.205,3.744-37.539,3.749
		c-8.938,0.003-13.795-0.629-13.795-0.629c-6.039-0.787-10.979-5.752-10.979-12.542v-6.846c0-6.791,4.976-12.348,11.055-12.348
		H622.8c6.08,0,11.058,5.557,11.058,12.348L633.848,25.989L633.848,25.989z"/>
</g>
<path fill="none" stroke="#000000" stroke-width="1.2348" stroke-miterlimit="10" d="M253.319,171.025
	c0,4.551-3.685,8.229-8.231,8.229h-99.761c-4.545,0-8.23-3.685-8.23-8.229V108.99c0-4.547,3.686-8.232,8.23-8.232h99.76
	c4.546,0,8.229,3.686,8.229,8.232L253.319,171.025L253.319,171.025z"/>
<g>
	<path fill="none" d="M353.072,224.624"/>
	<g>
		<path fill="none" stroke="#000000" stroke-width="0.8231" stroke-miterlimit="10" d="M353.072,196.555"/>
		
			<line fill="none" stroke="#000000" stroke-width="0.8231" stroke-miterlimit="10" x1="353.072" y1="224.624" x2="353.072" y2="196.555"/>
	</g>
</g>
</svg>
