<?xml version="1.0" encoding="UTF-8"?>
<svg id="Layer_1" data-name="Layer 1" xmlns="http://www.w3.org/2000/svg" viewBox="0 0 412.071 115.783">
  <defs>
    <style>
      .cls-1 {
        stroke-width: .516px;
      }

      .cls-1, .cls-2, .cls-3, .cls-4, .cls-5, .cls-6, .cls-7, .cls-8, .cls-9, .cls-10, .cls-11, .cls-12 {
        fill: none;
        stroke: #000;
        stroke-miterlimit: 10;
      }

      .cls-2 {
        stroke-width: .756px;
      }

      .cls-3 {
        stroke-width: .719px;
      }

      .cls-4 {
        stroke-width: .748px;
      }

      .cls-5 {
        stroke-width: 1.92px;
      }

      .cls-6 {
        stroke-width: .776px;
      }

      .cls-7 {
        stroke-width: .528px;
      }

      .cls-8 {
        stroke-width: 1.787px;
      }

      .cls-9 {
        stroke-width: .75px;
      }

      .cls-10 {
        stroke-width: .816px;
      }

      .cls-11 {
        stroke-width: .633px;
      }

      .cls-12 {
        stroke-width: .68px;
      }
    </style>
  </defs>
  <line class="cls-9" x1="343.387" y1="24.041" x2="410.004" y2="24.041"/>
  <line class="cls-9" x1="268.035" y1="24.041" x2="315.646" y2="24.041"/>
  <line class="cls-3" x1="205.834" y1="24.041" x2="240.726" y2="24.041"/>
  <rect class="cls-2" x="315.646" y="18.599" width="27.741" height="10.885"/>
  <line class="cls-5" x1="205.835" y1="9.075" x2="205.835" y2="39.008"/>
  <line class="cls-8" x1="410.004" y1="9.075" x2="410.004" y2="39.008"/>
  <line class="cls-6" x1="291.51" y1="52.72" x2="291.51" y2="24.041"/>
  <line class="cls-6" x1="291.51" y1="109.337" x2="291.51" y2="80.46"/>
  <rect class="cls-10" x="286.067" y="52.819" width="10.884" height="27.74"/>
  <line class="cls-6" x1="367.604" y1="52.819" x2="367.604" y2="24.041"/>
  <line class="cls-6" x1="367.604" y1="109.337" x2="367.604" y2="80.559"/>
  <rect class="cls-10" x="362.16" y="52.819" width="10.883" height="27.74"/>
  <g>
    <line class="cls-1" x1="210.049" y1="18.183" x2="234.175" y2="18.183"/>
    <polygon points="232.725 20.092 233.539 18.183 232.725 16.272 237.254 18.183 232.725 20.092"/>
  </g>
  <g>
    <line class="cls-7" x1="380.443" y1="18.183" x2="404.504" y2="18.183"/>
    <polygon points="381.926 20.139 381.098 18.183 381.926 16.226 377.289 18.183 381.926 20.139"/>
  </g>
  <g>
    <circle class="cls-10" cx="250.25" cy="24.042" r="9.524"/>
    <circle class="cls-10" cx="258.736" cy="24.042" r="9.524"/>
  </g>
  <line class="cls-4" x1="302.394" y1="109.337" x2="280.624" y2="109.337"/>
  <line class="cls-12" x1="298.313" y1="112.36" x2="284.706" y2="112.36"/>
  <line class="cls-11" x1="294.227" y1="115.383" x2="288.784" y2="115.383"/>
  <line class="cls-4" x1="378.363" y1="109.337" x2="356.59" y2="109.337"/>
  <line class="cls-12" x1="374.279" y1="112.36" x2="360.674" y2="112.36"/>
  <line class="cls-11" x1="370.193" y1="115.383" x2="364.752" y2="115.383"/>
  <line class="cls-9" x1="139.195" y1="23.942" x2="205.813" y2="23.942"/>
  <line class="cls-9" x1="63.844" y1="23.942" x2="111.455" y2="23.942"/>
  <line class="cls-3" x1="1.642" y1="23.942" x2="36.535" y2="23.942"/>
  <rect class="cls-2" x="111.455" y="18.5" width="27.74" height="10.885"/>
  <line class="cls-5" x1="1.644" y1="8.976" x2="1.644" y2="38.909"/>
  <line class="cls-6" x1="87.319" y1="52.72" x2="87.319" y2="23.942"/>
  <line class="cls-6" x1="87.319" y1="109.239" x2="87.319" y2="80.46"/>
  <polyline class="cls-10" points="87.319 80.46 81.875 80.46 81.875 52.72 92.76 52.72 92.76 80.46 87.319 80.46"/>
  <line class="cls-6" x1="163.412" y1="52.72" x2="163.412" y2="23.942"/>
  <line class="cls-6" x1="163.412" y1="109.239" x2="163.412" y2="80.46"/>
  <rect class="cls-10" x="157.969" y="52.72" width="10.883" height="27.741"/>
  <g>
    <line class="cls-1" x1="5.858" y1="18.084" x2="29.984" y2="18.084"/>
    <polygon points="28.534 19.993 29.347 18.084 28.534 16.173 33.063 18.084 28.534 19.993"/>
  </g>
  <g>
    <line class="cls-7" x1="176.252" y1="18.084" x2="200.313" y2="18.084"/>
    <polygon points="177.734 20.04 176.906 18.084 177.734 16.127 173.098 18.084 177.734 20.04"/>
  </g>
  <g>
    <circle class="cls-10" cx="46.058" cy="23.942" r="9.524"/>
    <circle class="cls-10" cx="54.544" cy="23.942" r="9.524"/>
  </g>
  <line class="cls-4" x1="98.203" y1="109.239" x2="76.432" y2="109.239"/>
  <line class="cls-12" x1="94.121" y1="112.261" x2="80.514" y2="112.261"/>
  <line class="cls-11" x1="90.036" y1="115.285" x2="84.592" y2="115.285"/>
  <line class="cls-4" x1="174.172" y1="109.239" x2="152.398" y2="109.239"/>
  <line class="cls-12" x1="170.088" y1="112.261" x2="156.482" y2="112.261"/>
  <line class="cls-11" x1="166.002" y1="115.285" x2="160.561" y2="115.285"/>
  <polyline class="cls-6" points="225.324 56.207 225.324 31.111 206.624 31.111"/>
  <line class="cls-6" x1="225.324" y1="109.049" x2="225.324" y2="83.954"/>
  <rect class="cls-10" x="219.88" y="56.207" width="10.884" height="27.746"/>
  <g>
    <line class="cls-1" x1="215.259" y1="39.35" x2="215.259" y2="63.476"/>
    <polygon points="217.168 62.026 215.259 62.839 213.348 62.026 215.259 66.555 217.168 62.026"/>
  </g>
  <g>
    <line class="cls-4" x1="236.208" y1="109.242" x2="214.437" y2="109.242"/>
    <line class="cls-12" x1="232.126" y1="112.265" x2="218.519" y2="112.265"/>
    <line class="cls-11" x1="228.046" y1="115.466" x2="222.603" y2="115.466"/>
  </g>
  <g>
    <g>
      <path d="m20.559,15.643c0,.23,0,.321.697.321h.265v.251c-.153-.007-1.032-.028-1.248-.028-.258,0-1.115.021-1.241.028v-.251h.265c.697,0,.697-.091.697-.321v-3.556c-.383.195-.844.195-1.011.195v-.251c.286,0,.921-.008,1.367-.446.195,0,.209.007.209.195v3.862Z"/>
      <path d="m25.503,16.215h-2.873c0-.195,0-.209.069-.271l1.681-1.66c.223-.251.655-.732.655-1.339,0-.564-.362-1.108-1.06-1.108-.328,0-.802.153-1.019.648.363,0,.412.244.412.369,0,.251-.203.37-.37.37-.069,0-.369-.035-.369-.391,0-.642.585-1.248,1.45-1.248.893,0,1.632.516,1.632,1.359,0,.662-.481,1.095-.997,1.506-.419.328-.663.523-1.395,1.172h1.282c.098,0,.635,0,.69-.042.091-.069.161-.48.182-.635h.237l-.209,1.27Z"/>
    </g>
    <path d="m16.234,13.993c-.02.07-.04.149-.04.229,0,.109.04.149.249.169.199.021.249.021.429.021.219,0,.299,0,.299.119,0,.189-.119.189-.199.189-.299,0-1.036-.03-1.335-.03-.289,0-1.017.03-1.306.03-.029,0-.149,0-.149-.109,0-.199.09-.199.319-.199.787,0,.816-.1.906-.469l1.346-5.37c.02-.09.02-.11.02-.16,0-.188-.27-.188-.688-.188-.189,0-.279,0-.279-.11,0-.199.13-.199.199-.199.299,0,1.026.03,1.325.03.289,0,1.026-.03,1.315-.03.04,0,.149,0,.149.12,0,.189-.079.189-.318.189-.787,0-.817.1-.907.458l-1.335,5.311Z"/>
    <path d="m15.728,6.632v-.309h3.598v.309h-3.598Z"/>
  </g>
  <g>
    <g>
      <path d="m192.648,16.215h-2.873c0-.195,0-.209.07-.271l1.68-1.66c.223-.251.656-.732.656-1.339,0-.564-.363-1.108-1.06-1.108-.328,0-.802.153-1.018.648.363,0,.412.244.412.369,0,.251-.203.37-.37.37-.07,0-.37-.035-.37-.391,0-.642.585-1.248,1.45-1.248.893,0,1.632.516,1.632,1.359,0,.662-.481,1.095-.997,1.506-.418.328-.663.523-1.395,1.172h1.283c.098,0,.635,0,.69-.042.091-.069.161-.48.181-.635h.237l-.209,1.27Z"/>
      <path d="m195.64,15.643c0,.23,0,.321.697.321h.265v.251c-.153-.007-1.032-.028-1.248-.028-.258,0-1.116.021-1.241.028v-.251h.265c.697,0,.697-.091.697-.321v-3.556c-.383.195-.844.195-1.011.195v-.251c.286,0,.92-.008,1.367-.446.195,0,.209.007.209.195v3.862Z"/>
    </g>
    <path d="m187.348,13.993c-.02.07-.04.149-.04.229,0,.109.04.149.249.169.199.021.249.021.428.021.219,0,.299,0,.299.119,0,.189-.12.189-.199.189-.299,0-1.037-.03-1.335-.03-.289,0-1.016.03-1.305.03-.03,0-.149,0-.149-.109,0-.199.089-.199.319-.199.787,0,.817-.1.907-.469l1.345-5.37c.02-.09.02-.11.02-.16,0-.188-.269-.188-.688-.188-.189,0-.279,0-.279-.11,0-.199.129-.199.199-.199.299,0,1.026.03,1.325.03.289,0,1.026-.03,1.315-.03.04,0,.149,0,.149.12,0,.189-.08.189-.319.189-.787,0-.817.1-.907.458l-1.335,5.311Z"/>
    <path d="m186.841,6.632v-.309h3.597v.309h-3.597Z"/>
  </g>
  <g>
    <g>
      <path d="m225.388,16.075h-2.873c0-.195,0-.209.07-.271l1.68-1.66c.223-.251.656-.732.656-1.339,0-.564-.363-1.108-1.06-1.108-.328,0-.802.153-1.018.648.363,0,.412.244.412.369,0,.251-.203.37-.37.37-.07,0-.37-.035-.37-.391,0-.642.585-1.248,1.45-1.248.893,0,1.632.516,1.632,1.359,0,.662-.481,1.095-.997,1.506-.418.328-.663.523-1.395,1.172h1.283c.098,0,.635,0,.69-.042.091-.069.161-.48.181-.635h.237l-.209,1.27Z"/>
      <path d="m227.57,13.746c-.119,0-.182,0-.182-.098,0-.076.056-.091.07-.091.035-.007.049-.007.223-.021.349-.021.544-.035.774-.3.182-.217.279-.537.279-.83,0-.606-.439-.76-.753-.76-.258,0-.739.076-.983.383.216.015.355.161.355.363,0,.195-.14.355-.355.355-.209,0-.363-.133-.363-.37,0-.558.593-.934,1.367-.934s1.409.411,1.409.962c0,.426-.265.948-.997,1.213.767.161,1.213.705,1.213,1.249,0,.697-.669,1.346-1.639,1.346-.844,0-1.569-.426-1.569-1.081,0-.286.195-.404.391-.404.216,0,.383.16.383.384,0,.146-.077.376-.404.39.293.412.907.488,1.186.488.404,0,.906-.258.906-1.122,0-.746-.39-1.123-.934-1.123h-.376Z"/>
    </g>
    <path d="m220.087,13.854c-.02.07-.04.149-.04.229,0,.109.04.149.249.169.199.021.249.021.428.021.219,0,.299,0,.299.119,0,.189-.12.189-.199.189-.299,0-1.037-.03-1.335-.03-.289,0-1.016.03-1.305.03-.03,0-.149,0-.149-.109,0-.199.089-.199.319-.199.787,0,.817-.1.907-.469l1.345-5.37c.02-.09.02-.11.02-.16,0-.188-.269-.188-.688-.188-.189,0-.279,0-.279-.11,0-.199.129-.199.199-.199.299,0,1.026.03,1.325.03.289,0,1.026-.03,1.315-.03.04,0,.149,0,.149.12,0,.189-.08.189-.319.189-.787,0-.817.1-.907.458l-1.335,5.311Z"/>
    <path d="m219.581,6.492v-.309h3.597v.309h-3.597Z"/>
  </g>
  <g>
    <g>
      <path d="m394.336,13.746c-.119,0-.182,0-.182-.098,0-.076.056-.091.069-.091.035-.007.049-.007.224-.021.349-.021.544-.035.773-.3.182-.217.279-.537.279-.83,0-.606-.439-.76-.753-.76-.258,0-.739.076-.983.383.216.015.355.161.355.363,0,.195-.14.355-.355.355-.209,0-.362-.133-.362-.37,0-.558.593-.934,1.366-.934s1.409.411,1.409.962c0,.426-.266.948-.997,1.213.767.161,1.213.705,1.213,1.249,0,.697-.669,1.346-1.639,1.346-.844,0-1.569-.426-1.569-1.081,0-.286.195-.404.391-.404.217,0,.384.16.384.384,0,.146-.077.376-.404.39.293.412.906.488,1.186.488.404,0,.906-.258.906-1.122,0-.746-.391-1.123-.935-1.123h-.376Z"/>
      <path d="m400.089,16.075h-2.873c0-.195,0-.209.069-.271l1.681-1.66c.223-.251.655-.732.655-1.339,0-.564-.362-1.108-1.06-1.108-.328,0-.802.153-1.019.648.363,0,.412.244.412.369,0,.251-.203.37-.37.37-.069,0-.369-.035-.369-.391,0-.642.585-1.248,1.45-1.248.893,0,1.632.516,1.632,1.359,0,.662-.481,1.095-.997,1.506-.419.328-.663.523-1.395,1.172h1.282c.098,0,.635,0,.69-.042.091-.069.161-.48.182-.635h.237l-.209,1.27Z"/>
    </g>
    <path d="m390.82,13.854c-.02.07-.04.149-.04.229,0,.109.04.149.249.169.199.021.249.021.429.021.219,0,.299,0,.299.119,0,.189-.119.189-.199.189-.299,0-1.036-.03-1.335-.03-.289,0-1.017.03-1.306.03-.029,0-.149,0-.149-.109,0-.199.09-.199.319-.199.787,0,.816-.1.906-.469l1.346-5.37c.02-.09.02-.11.02-.16,0-.188-.27-.188-.688-.188-.189,0-.279,0-.279-.11,0-.199.13-.199.199-.199.299,0,1.026.03,1.325.03.289,0,1.026-.03,1.315-.03.04,0,.149,0,.149.12,0,.189-.079.189-.318.189-.787,0-.817.1-.907.458l-1.335,5.311Z"/>
    <path d="m390.313,6.492v-.309h3.598v.309h-3.598Z"/>
  </g>
  <g>
    <g>
      <path d="m203.721,54.808c0,.133,0,.182-.119.182-.028,0-.112,0-.119-.077-.014-.202-.049-.767-.858-.767-.662,0-.851.271-.851.495,0,.369.453.453,1.011.551.244.042.565.098.83.342.182.167.3.376.3.642,0,.495-.334.982-1.241.982-.167,0-.544-.014-.851-.3-.14.153-.272.3-.334.3-.098,0-.098-.062-.098-.181v-.858c0-.139,0-.188.118-.188.098,0,.105.027.125.118.126.475.37.913,1.039.913s.858-.32.858-.592c0-.468-.565-.565-.914-.628-.432-.07-.697-.119-.962-.349-.167-.14-.265-.321-.265-.544,0-.349.237-.872,1.234-.872.258,0,.523.042.732.188.042-.035.111-.098.125-.104.091-.084.104-.084.14-.084.098,0,.098.063.098.182v.648Z"/>
      <path d="m207.822,56.538c0,.3.07.3.523.3v.251c-.063-.007-.544-.028-.802-.028-.293,0-.781.028-.795.028v-.251c.453,0,.523,0,.523-.3v-1.59c0-.355-.063-.739-.551-.739-.46,0-1.039.342-1.039,1.074v1.255c0,.3.07.3.523.3v.251c-.063-.007-.544-.028-.802-.028-.293,0-.781.028-.795.028v-.251c.453,0,.523,0,.523-.3v-3.57c0-.342-.056-.391-.523-.391v-.251l1.046-.077v2.399h.007c.153-.266.495-.635,1.116-.635.746,0,1.046.355,1.046.962v1.562Z"/>
      <path d="m211.936,57.088h-2.873c0-.195,0-.209.07-.271l1.68-1.66c.223-.251.656-.732.656-1.339,0-.564-.363-1.108-1.06-1.108-.328,0-.802.153-1.018.648.363,0,.412.244.412.369,0,.251-.203.37-.37.37-.07,0-.37-.035-.37-.391,0-.642.585-1.248,1.45-1.248.893,0,1.632.516,1.632,1.359,0,.662-.481,1.095-.997,1.506-.418.328-.663.523-1.395,1.172h1.283c.098,0,.635,0,.69-.042.091-.069.161-.48.181-.635h.237l-.209,1.27Z"/>
    </g>
    <path d="m199.09,54.867c-.02.07-.04.149-.04.229,0,.109.04.149.249.169.199.021.249.021.428.021.219,0,.299,0,.299.119,0,.189-.12.189-.199.189-.299,0-1.037-.03-1.335-.03-.289,0-1.016.03-1.305.03-.03,0-.149,0-.149-.109,0-.199.089-.199.319-.199.787,0,.817-.1.907-.469l1.345-5.37c.02-.09.02-.11.02-.16,0-.188-.269-.188-.688-.188-.189,0-.279,0-.279-.11,0-.199.129-.199.199-.199.299,0,1.026.03,1.325.03.289,0,1.026-.03,1.315-.03.04,0,.149,0,.149.12,0,.189-.08.189-.319.189-.787,0-.817.1-.907.458l-1.335,5.311Z"/>
    <path d="m198.583,47.505v-.309h3.597v.309h-3.597Z"/>
  </g>
  <path d="m412.071,4.932c0,1.017-.906,1.923-2.122,1.923-1.086,0-2.013-.657-2.013-1.563,0-.438.318-.578.558-.578.289,0,.559.199.559.558,0,.379-.31.598-.658.548.349.588,1.096.758,1.524.758.438,0,1.126-.289,1.126-1.645,0-.977-.368-1.653-1.186-1.653h-.438c-.169,0-.239,0-.239-.11,0-.1.07-.109.149-.119.07,0,.31-.021.389-.03.249-.01.588-.04.887-.518.26-.438.279-1.017.279-1.136,0-.897-.548-1.116-.957-1.116-.358,0-1.016.129-1.325.617.149,0,.618,0,.618.499,0,.288-.199.508-.508.508-.289,0-.509-.189-.509-.519,0-.757.758-1.354,1.764-1.354.957,0,1.834.558,1.834,1.375,0,.787-.578,1.484-1.396,1.753,1.036.21,1.664.987,1.664,1.804Z"/>
  <path d="m2.042,6.067c0,.368.03.479.927.479h.319v.309c-.349-.03-1.216-.03-1.614-.03s-1.266,0-1.614.03v-.309h.319c.896,0,.926-.12.926-.479V.906c-.518.259-1.105.259-1.305.259v-.309C.318.856,1.195.856,1.813.219c.229,0,.229.02.229.259v5.59Z"/>
  <path d="m206.409,6.086c.219,0,.876,0,.946-.079.1-.149.169-.588.219-.887h.249l-.279,1.734h-3.697c0-.239,0-.259.11-.369l1.913-2.132c.548-.618,1.046-1.405,1.046-2.202,0-.817-.428-1.624-1.335-1.624-.578,0-1.116.369-1.345,1.017.03-.01.05-.01.129-.01.349,0,.528.259.528.518,0,.408-.349.528-.518.528-.03,0-.528,0-.528-.559,0-.887.737-1.803,1.863-1.803,1.216,0,2.112.797,2.112,1.933,0,.996-.598,1.534-2.152,2.909l-1.056,1.026h1.793Z"/>
  <g>
    <g>
      <path d="m263.414,11.919h-2.873c0-.195,0-.209.07-.271l1.68-1.66c.223-.251.656-.732.656-1.339,0-.564-.363-1.108-1.06-1.108-.328,0-.802.153-1.018.648.363,0,.412.244.412.369,0,.251-.203.37-.37.37-.07,0-.37-.035-.37-.391,0-.642.585-1.248,1.45-1.248.893,0,1.632.516,1.632,1.359,0,.662-.481,1.095-.997,1.506-.418.328-.663.523-1.395,1.172h1.283c.098,0,.635,0,.69-.042.091-.069.161-.48.181-.635h.237l-.209,1.27Z"/>
      <path d="m265.596,9.59c-.119,0-.182,0-.182-.098,0-.076.056-.091.07-.091.035-.007.049-.007.223-.021.349-.021.544-.035.774-.3.182-.217.279-.537.279-.83,0-.606-.439-.76-.753-.76-.258,0-.739.076-.983.383.216.015.355.161.355.363,0,.195-.14.355-.355.355-.209,0-.363-.133-.363-.37,0-.558.593-.934,1.367-.934s1.409.411,1.409.962c0,.426-.265.948-.997,1.213.767.161,1.213.705,1.213,1.249,0,.697-.669,1.346-1.639,1.346-.844,0-1.569-.426-1.569-1.081,0-.286.195-.404.391-.404.216,0,.383.16.383.384,0,.146-.077.376-.404.39.293.412.907.488,1.186.488.404,0,.906-.258.906-1.122,0-.746-.39-1.123-.934-1.123h-.376Z"/>
    </g>
    <path d="m258.481,8.691c.468-.588.797-1.346.977-1.974.05-.179.05-.209.149-.209.109,0,.12.08.12.1,0,.01-.209,1.166-1.146,2.342-.1.119-.1.14-.1.349,0,.239,0,1.017.309,1.017.02,0,.379,0,.558-.488.03-.07.06-.1.129-.1.06,0,.12.029.12.1,0,.159-.309.707-.837.707-.448,0-.777-.309-.907-.837-.757.608-1.475.837-2.103.837-1.016,0-1.614-.757-1.614-1.684,0-1.405,1.315-2.83,2.68-2.83.737,0,1.664.488,1.664,2.053v.618Zm-.688-.369c0-.777,0-2.082-.986-2.082-.349,0-.887.189-1.355.916-.319.509-.578,1.585-.578,2.073,0,.638.299,1.086.896,1.086.399,0,1.166-.109,2.043-.877-.02-.17-.02-.747-.02-1.116Z"/>
    <g>
      <path d="m243.374,9.638c0,.368.03.479.927.479h.319v.309c-.349-.03-1.215-.03-1.614-.03s-1.265,0-1.614.03v-.309h.319c.896,0,.926-.12.926-.479v-5.161c-.518.259-1.106.259-1.305.259v-.309c.319,0,1.196,0,1.813-.638.229,0,.229.02.229.259v5.59Z"/>
      <path d="m249.581,7.187c-.289,0-.528-.239-.528-.528s.239-.528.528-.528.528.239.528.528-.239.528-.528.528Zm0,3.238c-.289,0-.528-.239-.528-.528s.239-.528.528-.528.528.239.528.528-.239.528-.528.528Z"/>
    </g>
  </g>
  <g>
    <g>
      <path d="m58.277,11.486c0,.23,0,.321.697.321h.265v.251c-.153-.007-1.032-.028-1.248-.028-.258,0-1.116.021-1.241.028v-.251h.265c.697,0,.697-.091.697-.321v-3.556c-.383.195-.844.195-1.011.195v-.251c.286,0,.92-.008,1.367-.446.195,0,.209.007.209.195v3.862Z"/>
      <path d="m63.222,12.059h-2.873c0-.195,0-.209.07-.271l1.68-1.66c.223-.251.656-.732.656-1.339,0-.564-.363-1.108-1.06-1.108-.328,0-.802.153-1.018.648.363,0,.412.244.412.369,0,.251-.203.37-.37.37-.07,0-.37-.035-.37-.391,0-.642.585-1.248,1.45-1.248.893,0,1.632.516,1.632,1.359,0,.662-.481,1.095-.997,1.506-.418.328-.663.523-1.395,1.172h1.283c.098,0,.635,0,.69-.042.091-.069.161-.48.181-.635h.237l-.209,1.27Z"/>
    </g>
    <path d="m54.321,8.831c.468-.588.797-1.346.977-1.974.05-.179.05-.209.149-.209.109,0,.12.08.12.1,0,.01-.209,1.166-1.146,2.342-.1.119-.1.14-.1.349,0,.239,0,1.017.309,1.017.02,0,.379,0,.558-.488.03-.07.06-.1.129-.1.06,0,.12.029.12.1,0,.159-.309.707-.837.707-.448,0-.777-.309-.907-.837-.757.608-1.475.837-2.103.837-1.016,0-1.614-.757-1.614-1.684,0-1.405,1.315-2.83,2.68-2.83.737,0,1.664.488,1.664,2.053v.618Zm-.688-.369c0-.777,0-2.082-.986-2.082-.349,0-.887.189-1.355.916-.319.509-.578,1.585-.578,2.073,0,.638.299,1.086.896,1.086.399,0,1.166-.109,2.043-.877-.02-.17-.02-.747-.02-1.116Z"/>
    <g>
      <path d="m39.214,9.777c0,.368.03.479.927.479h.319v.309c-.349-.03-1.215-.03-1.614-.03s-1.265,0-1.614.03v-.309h.319c.896,0,.926-.12.926-.479v-5.161c-.518.259-1.106.259-1.305.259v-.309c.319,0,1.196,0,1.813-.638.229,0,.229.02.229.259v5.59Z"/>
      <path d="m45.421,7.326c-.289,0-.528-.239-.528-.528s.239-.528.528-.528.528.239.528.528-.239.528-.528.528Zm0,3.238c-.289,0-.528-.239-.528-.528s.239-.528.528-.528.528.239.528.528-.239.528-.528.528Z"/>
    </g>
  </g>
  <g>
    <g>
      <path d="m71.225,66.984c0,.133,0,.182-.119.182-.028,0-.112,0-.119-.077-.014-.202-.049-.767-.858-.767-.662,0-.851.271-.851.495,0,.369.453.453,1.011.551.244.042.565.098.83.342.182.167.3.376.3.642,0,.495-.334.982-1.241.982-.167,0-.544-.014-.851-.3-.14.153-.272.3-.334.3-.098,0-.098-.062-.098-.181v-.858c0-.139,0-.188.118-.188.098,0,.105.027.126.118.125.475.369.913,1.039.913s.858-.32.858-.592c0-.468-.565-.565-.914-.628-.432-.07-.697-.119-.962-.349-.167-.14-.265-.321-.265-.544,0-.349.237-.872,1.234-.872.258,0,.523.042.732.188.042-.035.111-.098.125-.104.091-.084.104-.084.14-.084.098,0,.098.063.098.182v.648Z"/>
      <path d="m74.07,68.692c0,.23,0,.321.697.321h.265v.251c-.153-.007-1.032-.028-1.248-.028-.258,0-1.116.021-1.241.028v-.251h.265c.697,0,.697-.091.697-.321v-3.556c-.383.195-.844.195-1.011.195v-.251c.286,0,.92-.008,1.367-.446.195,0,.209.007.209.195v3.862Z"/>
      <path d="m79.014,69.264h-2.873c0-.195,0-.209.07-.271l1.68-1.66c.223-.251.656-.732.656-1.339,0-.564-.363-1.108-1.06-1.108-.328,0-.802.153-1.018.648.363,0,.412.244.412.369,0,.251-.203.37-.37.37-.07,0-.37-.035-.37-.391,0-.642.585-1.248,1.45-1.248.893,0,1.632.516,1.632,1.359,0,.662-.481,1.095-.997,1.506-.418.328-.663.523-1.395,1.172h1.283c.098,0,.635,0,.69-.042.091-.069.161-.48.181-.635h.237l-.209,1.27Z"/>
    </g>
    <path d="m67.583,67.781c-.279,1.126-1.305,2.033-2.332,2.033-.618,0-1.056-.369-1.056-.867,0-.488.329-.647.558-.647.1,0,.369.04.369.349,0,.189-.1.318-.199.408-.14.12-.269.12-.428.12.169.389.618.418.757.418.458,0,.837-.289,1.096-.628.398-.527.518-1.016.647-1.534-.279.279-.618.448-1.006.448-.588,0-1.215-.299-1.215-1.186,0-.468.179-1.036.578-2.093.07-.188.169-.448.169-.697,0-.318-.169-.318-.249-.318-.339,0-.737.299-1.006,1.235-.05.159-.06.18-.159.18-.02,0-.12,0-.12-.101,0-.089.369-1.534,1.315-1.534.499,0,.817.369.817.817,0,.199-.04.309-.199.717-.339.877-.508,1.495-.508,1.953,0,.369.109.808.618.808.658,0,1.086-.697,1.126-.847l.448-1.794c.06-.27.13-.538.199-.797.04-.18.12-.488.14-.538.09-.149.249-.21.349-.21.149,0,.289.09.289.27,0,.069,0,.09-.04.229l-.957,3.806Z"/>
  </g>
  <g>
    <g>
      <path d="m331.35,16.179h-2.873c0-.195,0-.209.07-.271l1.68-1.66c.223-.251.656-.732.656-1.339,0-.564-.363-1.108-1.06-1.108-.328,0-.802.153-1.018.648.363,0,.412.244.412.369,0,.251-.203.37-.37.37-.07,0-.37-.035-.37-.391,0-.642.585-1.248,1.45-1.248.893,0,1.632.516,1.632,1.359,0,.662-.481,1.095-.997,1.506-.418.328-.663.523-1.395,1.172h1.283c.098,0,.635,0,.69-.042.091-.069.161-.48.181-.635h.237l-.209,1.27Z"/>
      <path d="m333.533,13.85c-.119,0-.182,0-.182-.098,0-.076.056-.091.07-.091.035-.007.049-.007.223-.021.349-.021.544-.035.774-.3.182-.217.279-.537.279-.83,0-.606-.439-.76-.753-.76-.258,0-.739.076-.983.383.216.015.355.161.355.363,0,.195-.14.355-.355.355-.209,0-.363-.133-.363-.37,0-.558.593-.934,1.367-.934s1.409.411,1.409.962c0,.426-.265.948-.997,1.213.767.161,1.213.705,1.213,1.249,0,.697-.669,1.346-1.639,1.346-.844,0-1.569-.426-1.569-1.081,0-.286.195-.404.391-.404.216,0,.383.16.383.384,0,.146-.077.376-.404.39.293.412.907.488,1.186.488.404,0,.906-.258.906-1.122,0-.746-.39-1.123-.934-1.123h-.376Z"/>
    </g>
    <path d="m327.039,14.695c-.279,1.126-1.305,2.033-2.332,2.033-.618,0-1.056-.369-1.056-.867,0-.488.329-.647.558-.647.1,0,.369.04.369.349,0,.189-.1.318-.199.408-.14.12-.269.12-.428.12.169.389.618.418.757.418.458,0,.837-.289,1.096-.628.398-.527.518-1.016.647-1.534-.279.279-.618.448-1.006.448-.588,0-1.215-.299-1.215-1.186,0-.468.179-1.036.578-2.093.07-.188.169-.448.169-.697,0-.318-.169-.318-.249-.318-.339,0-.737.299-1.006,1.235-.05.159-.06.18-.159.18-.02,0-.12,0-.12-.101,0-.089.369-1.534,1.315-1.534.499,0,.817.369.817.817,0,.199-.04.309-.199.717-.339.877-.508,1.495-.508,1.953,0,.369.109.808.618.808.658,0,1.086-.697,1.126-.847l.448-1.794c.06-.27.13-.538.199-.797.04-.18.12-.488.14-.538.09-.149.249-.21.349-.21.149,0,.289.09.289.27,0,.069,0,.09-.04.229l-.957,3.806Z"/>
  </g>
  <g>
    <g>
      <path d="m126.214,15.606c0,.23,0,.321.697.321h.265v.251c-.153-.007-1.032-.028-1.248-.028-.258,0-1.116.021-1.241.028v-.251h.265c.697,0,.697-.091.697-.321v-3.556c-.383.195-.844.195-1.011.195v-.251c.286,0,.92-.008,1.367-.446.195,0,.209.007.209.195v3.862Z"/>
      <path d="m131.158,16.179h-2.873c0-.195,0-.209.07-.271l1.68-1.66c.223-.251.656-.732.656-1.339,0-.564-.363-1.108-1.06-1.108-.328,0-.802.153-1.018.648.363,0,.412.244.412.369,0,.251-.203.37-.37.37-.07,0-.37-.035-.37-.391,0-.642.585-1.248,1.45-1.248.893,0,1.632.516,1.632,1.359,0,.662-.481,1.095-.997,1.506-.418.328-.663.523-1.395,1.172h1.283c.098,0,.635,0,.69-.042.091-.069.161-.48.181-.635h.237l-.209,1.27Z"/>
    </g>
    <path d="m122.88,14.695c-.279,1.126-1.305,2.033-2.332,2.033-.618,0-1.056-.369-1.056-.867,0-.488.329-.647.558-.647.1,0,.369.04.369.349,0,.189-.1.318-.199.408-.14.12-.269.12-.428.12.169.389.618.418.757.418.458,0,.837-.289,1.096-.628.398-.527.518-1.016.647-1.534-.279.279-.618.448-1.006.448-.588,0-1.215-.299-1.215-1.186,0-.468.179-1.036.578-2.093.07-.188.169-.448.169-.697,0-.318-.169-.318-.249-.318-.339,0-.737.299-1.006,1.235-.05.159-.06.18-.159.18-.02,0-.12,0-.12-.101,0-.089.369-1.534,1.315-1.534.499,0,.817.369.817.817,0,.199-.04.309-.199.717-.339.877-.508,1.495-.508,1.953,0,.369.109.808.618.808.658,0,1.086-.697,1.126-.847l.448-1.794c.06-.27.13-.538.199-.797.04-.18.12-.488.14-.538.09-.149.249-.21.349-.21.149,0,.289.09.289.27,0,.069,0,.09-.04.229l-.957,3.806Z"/>
  </g>
  <g>
    <g>
      <path d="m178.837,66.984c0,.133,0,.182-.119.182-.027,0-.111,0-.118-.077-.015-.202-.049-.767-.858-.767-.662,0-.851.271-.851.495,0,.369.453.453,1.012.551.244.042.564.098.829.342.182.167.3.376.3.642,0,.495-.334.982-1.241.982-.167,0-.544-.014-.851-.3-.14.153-.271.3-.334.3-.098,0-.098-.062-.098-.181v-.858c0-.139,0-.188.118-.188.098,0,.104.027.126.118.125.475.369.913,1.038.913s.858-.32.858-.592c0-.468-.565-.565-.914-.628-.432-.07-.697-.119-.962-.349-.167-.14-.265-.321-.265-.544,0-.349.236-.872,1.233-.872.259,0,.523.042.732.188.042-.035.111-.098.126-.104.091-.084.104-.084.14-.084.098,0,.098.063.098.182v.648Z"/>
      <path d="m181.682,68.692c0,.23,0,.321.697.321h.266v.251c-.153-.007-1.032-.028-1.248-.028-.259,0-1.116.021-1.241.028v-.251h.265c.697,0,.697-.091.697-.321v-3.556c-.384.195-.844.195-1.011.195v-.251c.285,0,.92-.008,1.366-.446.195,0,.209.007.209.195v3.862Z"/>
      <path d="m186.626,69.264h-2.873c0-.195,0-.209.07-.271l1.68-1.66c.224-.251.656-.732.656-1.339,0-.564-.363-1.108-1.061-1.108-.327,0-.802.153-1.018.648.362,0,.411.244.411.369,0,.251-.202.37-.369.37-.07,0-.37-.035-.37-.391,0-.642.586-1.248,1.45-1.248.893,0,1.632.516,1.632,1.359,0,.662-.48,1.095-.997,1.506-.418.328-.662.523-1.395,1.172h1.283c.098,0,.635,0,.69-.042.091-.069.16-.48.181-.635h.237l-.209,1.27Z"/>
    </g>
    <path d="m175.195,67.781c-.278,1.126-1.305,2.033-2.331,2.033-.618,0-1.057-.369-1.057-.867,0-.488.329-.647.559-.647.1,0,.368.04.368.349,0,.189-.1.318-.199.408-.14.12-.269.12-.428.12.169.389.617.418.757.418.458,0,.837-.289,1.096-.628.398-.527.519-1.016.647-1.534-.278.279-.617.448-1.006.448-.588,0-1.216-.299-1.216-1.186,0-.468.18-1.036.578-2.093.069-.188.169-.448.169-.697,0-.318-.169-.318-.249-.318-.339,0-.737.299-1.006,1.235-.05.159-.06.18-.159.18-.021,0-.12,0-.12-.101,0-.089.369-1.534,1.315-1.534.498,0,.817.369.817.817,0,.199-.04.309-.199.717-.339.877-.509,1.495-.509,1.953,0,.369.109.808.618.808.657,0,1.086-.697,1.126-.847l.448-1.794c.06-.27.13-.538.199-.797.04-.18.119-.488.14-.538.09-.149.249-.21.349-.21.149,0,.289.09.289.27,0,.069,0,.09-.04.229l-.957,3.806Z"/>
  </g>
  <g>
    <g>
      <path d="m241.413,70.474c0,.133,0,.182-.119.182-.028,0-.112,0-.119-.077-.014-.202-.049-.767-.858-.767-.662,0-.851.271-.851.495,0,.369.453.453,1.011.551.244.042.565.098.83.342.182.167.3.376.3.642,0,.495-.334.982-1.241.982-.167,0-.544-.014-.851-.3-.14.153-.272.3-.334.3-.098,0-.098-.062-.098-.181v-.858c0-.139,0-.188.118-.188.098,0,.105.027.126.118.125.475.369.913,1.039.913s.858-.32.858-.592c0-.468-.565-.565-.914-.628-.432-.07-.697-.119-.962-.349-.167-.14-.265-.321-.265-.544,0-.349.237-.872,1.234-.872.258,0,.523.042.732.188.042-.035.111-.098.125-.104.091-.084.104-.084.14-.084.098,0,.098.063.098.182v.648Z"/>
      <path d="m245.514,72.203c0,.3.07.3.523.3v.251c-.063-.007-.544-.028-.802-.028-.293,0-.781.028-.795.028v-.251c.453,0,.523,0,.523-.3v-1.59c0-.355-.063-.739-.551-.739-.46,0-1.039.342-1.039,1.074v1.255c0,.3.069.3.523.3v.251c-.063-.007-.544-.028-.802-.028-.293,0-.781.028-.795.028v-.251c.453,0,.523,0,.523-.3v-3.57c0-.342-.056-.391-.523-.391v-.251l1.046-.077v2.399h.007c.153-.266.495-.635,1.116-.635.746,0,1.046.355,1.046.962v1.562Z"/>
      <path d="m249.628,72.754h-2.873c0-.195,0-.209.07-.271l1.68-1.66c.223-.251.656-.732.656-1.339,0-.564-.363-1.108-1.06-1.108-.328,0-.802.153-1.018.648.363,0,.412.244.412.369,0,.251-.203.37-.37.37-.07,0-.37-.035-.37-.391,0-.642.585-1.248,1.45-1.248.893,0,1.632.516,1.632,1.359,0,.662-.481,1.095-.997,1.506-.418.328-.663.523-1.395,1.172h1.283c.098,0,.635,0,.69-.042.091-.069.161-.48.181-.635h.237l-.209,1.27Z"/>
    </g>
    <path d="m237.772,71.271c-.279,1.126-1.305,2.033-2.332,2.033-.618,0-1.056-.369-1.056-.867,0-.488.329-.647.558-.647.1,0,.369.04.369.349,0,.189-.1.318-.199.408-.14.12-.269.12-.428.12.169.389.618.418.757.418.458,0,.837-.289,1.096-.628.398-.527.518-1.016.647-1.534-.279.279-.618.448-1.006.448-.588,0-1.215-.299-1.215-1.186,0-.468.179-1.036.578-2.093.07-.188.169-.448.169-.697,0-.318-.169-.318-.249-.318-.339,0-.737.299-1.006,1.235-.05.159-.06.18-.159.18-.02,0-.12,0-.12-.101,0-.089.369-1.534,1.315-1.534.499,0,.817.369.817.817,0,.199-.04.309-.199.717-.339.877-.508,1.495-.508,1.953,0,.369.109.808.618.808.658,0,1.086-.697,1.126-.847l.448-1.794c.06-.27.13-.538.199-.797.04-.18.12-.488.14-.538.09-.149.249-.21.349-.21.149,0,.289.09.289.27,0,.069,0,.09-.04.229l-.957,3.806Z"/>
  </g>
  <g>
    <g>
      <path d="m275.544,66.984c0,.133,0,.182-.119.182-.027,0-.111,0-.118-.077-.015-.202-.049-.767-.858-.767-.662,0-.851.271-.851.495,0,.369.453.453,1.012.551.244.042.564.098.829.342.182.167.3.376.3.642,0,.495-.334.982-1.241.982-.167,0-.544-.014-.851-.3-.14.153-.271.3-.334.3-.098,0-.098-.062-.098-.181v-.858c0-.139,0-.188.118-.188.098,0,.104.027.126.118.125.475.369.913,1.038.913s.858-.32.858-.592c0-.468-.565-.565-.914-.628-.432-.07-.697-.119-.962-.349-.167-.14-.265-.321-.265-.544,0-.349.236-.872,1.233-.872.259,0,.523.042.732.188.042-.035.111-.098.126-.104.091-.084.104-.084.14-.084.098,0,.098.063.098.182v.648Z"/>
      <path d="m279.365,69.264h-2.873c0-.195,0-.209.07-.271l1.68-1.66c.224-.251.656-.732.656-1.339,0-.564-.363-1.108-1.061-1.108-.327,0-.802.153-1.018.648.362,0,.411.244.411.369,0,.251-.202.37-.369.37-.07,0-.37-.035-.37-.391,0-.642.586-1.248,1.45-1.248.893,0,1.632.516,1.632,1.359,0,.662-.48,1.095-.997,1.506-.418.328-.662.523-1.395,1.172h1.283c.098,0,.635,0,.69-.042.091-.069.16-.48.181-.635h.237l-.209,1.27Z"/>
      <path d="m281.548,66.935c-.118,0-.182,0-.182-.098,0-.076.057-.091.07-.091.035-.007.049-.007.223-.021.349-.021.544-.035.774-.3.182-.217.279-.537.279-.83,0-.606-.439-.76-.754-.76-.258,0-.739.076-.982.383.216.015.355.161.355.363,0,.195-.14.355-.355.355-.21,0-.363-.133-.363-.37,0-.558.593-.934,1.367-.934s1.408.411,1.408.962c0,.426-.265.948-.997,1.213.768.161,1.214.705,1.214,1.249,0,.697-.67,1.346-1.64,1.346-.844,0-1.568-.426-1.568-1.081,0-.286.195-.404.391-.404.216,0,.383.16.383.384,0,.146-.076.376-.404.39.293.412.907.488,1.186.488.404,0,.906-.258.906-1.122,0-.746-.39-1.123-.934-1.123h-.377Z"/>
    </g>
    <path d="m271.902,67.781c-.278,1.126-1.305,2.033-2.331,2.033-.618,0-1.057-.369-1.057-.867,0-.488.329-.647.559-.647.1,0,.368.04.368.349,0,.189-.1.318-.199.408-.14.12-.269.12-.428.12.169.389.617.418.757.418.458,0,.837-.289,1.096-.628.398-.527.519-1.016.647-1.534-.278.279-.617.448-1.006.448-.588,0-1.216-.299-1.216-1.186,0-.468.18-1.036.578-2.093.069-.188.169-.448.169-.697,0-.318-.169-.318-.249-.318-.339,0-.737.299-1.006,1.235-.05.159-.06.18-.159.18-.021,0-.12,0-.12-.101,0-.089.369-1.534,1.315-1.534.498,0,.817.369.817.817,0,.199-.04.309-.199.717-.339.877-.509,1.495-.509,1.953,0,.369.109.808.618.808.657,0,1.086-.697,1.126-.847l.448-1.794c.06-.27.13-.538.199-.797.04-.18.119-.488.14-.538.09-.149.249-.21.349-.21.149,0,.289.09.289.27,0,.069,0,.09-.04.229l-.957,3.806Z"/>
  </g>
  <g>
    <g>
      <path d="m383.342,66.984c0,.133,0,.182-.119.182-.027,0-.111,0-.118-.077-.015-.202-.049-.767-.858-.767-.662,0-.851.271-.851.495,0,.369.453.453,1.012.551.244.042.564.098.829.342.182.167.3.376.3.642,0,.495-.334.982-1.241.982-.167,0-.544-.014-.851-.3-.14.153-.271.3-.334.3-.098,0-.098-.062-.098-.181v-.858c0-.139,0-.188.118-.188.098,0,.104.027.126.118.125.475.369.913,1.038.913s.858-.32.858-.592c0-.468-.565-.565-.914-.628-.432-.07-.697-.119-.962-.349-.167-.14-.265-.321-.265-.544,0-.349.236-.872,1.233-.872.259,0,.523.042.732.188.042-.035.111-.098.126-.104.091-.084.104-.084.14-.084.098,0,.098.063.098.182v.648Z"/>
      <path d="m387.164,69.264h-2.873c0-.195,0-.209.07-.271l1.68-1.66c.224-.251.656-.732.656-1.339,0-.564-.363-1.108-1.061-1.108-.327,0-.802.153-1.018.648.362,0,.411.244.411.369,0,.251-.202.37-.369.37-.07,0-.37-.035-.37-.391,0-.642.586-1.248,1.45-1.248.893,0,1.632.516,1.632,1.359,0,.662-.48,1.095-.997,1.506-.418.328-.662.523-1.395,1.172h1.283c.098,0,.635,0,.69-.042.091-.069.16-.48.181-.635h.237l-.209,1.27Z"/>
      <path d="m389.346,66.935c-.118,0-.182,0-.182-.098,0-.076.057-.091.07-.091.035-.007.049-.007.223-.021.349-.021.544-.035.774-.3.182-.217.279-.537.279-.83,0-.606-.439-.76-.754-.76-.258,0-.739.076-.982.383.216.015.355.161.355.363,0,.195-.14.355-.355.355-.21,0-.363-.133-.363-.37,0-.558.593-.934,1.367-.934s1.408.411,1.408.962c0,.426-.265.948-.997,1.213.768.161,1.214.705,1.214,1.249,0,.697-.67,1.346-1.64,1.346-.844,0-1.568-.426-1.568-1.081,0-.286.195-.404.391-.404.216,0,.383.16.383.384,0,.146-.076.376-.404.39.293.412.907.488,1.186.488.404,0,.906-.258.906-1.122,0-.746-.39-1.123-.934-1.123h-.377Z"/>
    </g>
    <path d="m379.701,67.781c-.278,1.126-1.305,2.033-2.331,2.033-.618,0-1.057-.369-1.057-.867,0-.488.329-.647.559-.647.1,0,.368.04.368.349,0,.189-.1.318-.199.408-.14.12-.269.12-.428.12.169.389.617.418.757.418.458,0,.837-.289,1.096-.628.398-.527.519-1.016.647-1.534-.278.279-.617.448-1.006.448-.588,0-1.216-.299-1.216-1.186,0-.468.18-1.036.578-2.093.069-.188.169-.448.169-.697,0-.318-.169-.318-.249-.318-.339,0-.737.299-1.006,1.235-.05.159-.06.18-.159.18-.021,0-.12,0-.12-.101,0-.089.369-1.534,1.315-1.534.498,0,.817.369.817.817,0,.199-.04.309-.199.717-.339.877-.509,1.495-.509,1.953,0,.369.109.808.618.808.657,0,1.086-.697,1.126-.847l.448-1.794c.06-.27.13-.538.199-.797.04-.18.119-.488.14-.538.09-.149.249-.21.349-.21.149,0,.289.09.289.27,0,.069,0,.09-.04.229l-.957,3.806Z"/>
  </g>
</svg>