<?xml version="1.0" encoding="UTF-8"?>
<svg id="Layer_1" data-name="Layer 1" xmlns="http://www.w3.org/2000/svg" viewBox="0 0 171.355 71.106">
  <defs>
    <style>
      .cls-1, .cls-2, .cls-3, .cls-4 {
        stroke-miterlimit: 10;
      }

      .cls-1, .cls-2, .cls-4 {
        stroke: #231f20;
      }

      .cls-1, .cls-3 {
        fill: none;
      }

      .cls-2 {
        fill: #fff;
      }

      .cls-3 {
        stroke: #010101;
        stroke-width: 1.9px;
      }

      .cls-4 {
        fill: #ed1c24;
        stroke-width: .5px;
      }

      .cls-5 {
        fill: #231f20;
      }
    </style>
  </defs>
  <line class="cls-2" x1="11.648" y1="14.781" x2="159.688" y2="14.781"/>
  <line class="cls-3" x1="11.648" y1="7.298" x2="11.648" y2="37.231"/>
  <polyline class="cls-1" points="78.249 59.961 78.249 29.749 12.166 29.748"/>
  <line class="cls-3" x1="70.701" y1="60.514" x2="100.635" y2="60.514"/>
  <line class="cls-3" x1="159.706" y1="7.298" x2="159.706" y2="37.231"/>
  <g>
    <path d="m7.549,3.666c0,.674-.645,1.313-1.599,1.313h-2.812v-.222h.172c.553,0,.567-.079.567-.337V.638c0-.258-.014-.337-.567-.337h-.172V.079h2.625c.933,0,1.593.588,1.593,1.212,0,.531-.495.99-1.191,1.126.796.086,1.384.624,1.384,1.248Zm-2.037-1.313c.796,0,1.148-.603,1.148-1.062,0-.38-.251-.99-.947-.99h-.89c-.337,0-.351.05-.351.287v1.765h1.04Zm1.32,1.306c0-.481-.301-1.148-1.011-1.148h-1.349v1.959c0,.237.014.287.351.287h.897c.739,0,1.112-.588,1.112-1.097Z"/>
    <path d="m9.837,5.058c-1.09,0-1.09-.653-1.09-1.212v-1.076c0-.638,0-.66-.56-.66v-.222l1.055-.08v2.382c0,.373.028.71.631.71.524,0,.868-.488.868-1.112v-1.278c0-.352-.058-.401-.56-.401v-.222l1.055-.08v2.548c0,.352.057.401.559.401v.222l-1.033.079v-.646c-.208.445-.524.646-.925.646Z"/>
    <path d="m12.484,3.257c-.194-.158-.309-.359-.309-.61,0-.401.273-.882,1.148-.882.108,0,.402,0,.675.201.028-.022.1-.086.122-.115.093-.087.108-.087.144-.087.079,0,.079.051.079.172v.725c0,.136,0,.172-.093.172-.014,0-.079,0-.086-.065-.014-.223-.05-.868-.839-.868-.617,0-.803.294-.803.546,0,.416.481.509.882.588.301.058.581.115.818.344.086.086.301.301.301.681,0,.517-.33.997-1.155.997-.151,0-.474-.007-.789-.308-.129.137-.129.15-.143.165-.136.137-.143.144-.179.144-.079,0-.079-.05-.079-.172v-.947c0-.129,0-.179.093-.179.072,0,.079.029.1.122.136.61.395,1.019.997,1.019.56,0,.811-.287.811-.652,0-.517-.588-.631-.746-.66-.516-.101-.717-.144-.947-.331Z"/>
    <path d="m19.262,4.412c0,.266.022.344.667.344h.23v.222c-.251-.021-.875-.021-1.162-.021s-.911,0-1.162.021v-.222h.229c.645,0,.667-.086.667-.344V.696c-.373.186-.796.186-.94.186v-.222c.23,0,.861,0,1.306-.459.165,0,.165.014.165.186v4.025Z"/>
  </g>
  <g>
    <path d="m76.204,10.476c0,.674-.645,1.313-1.6,1.313h-2.812v-.222h.172c.553,0,.567-.079.567-.338v-3.781c0-.258-.014-.337-.567-.337h-.172v-.222h2.625c.933,0,1.593.588,1.593,1.212,0,.531-.495.99-1.191,1.126.796.086,1.384.624,1.384,1.248Zm-2.037-1.313c.796,0,1.148-.603,1.148-1.062,0-.38-.251-.99-.947-.99h-.889c-.337,0-.352.05-.352.287v1.765h1.04Zm1.32,1.306c0-.481-.301-1.148-1.011-1.148h-1.349v1.959c0,.237.014.287.352.287h.897c.739,0,1.112-.588,1.112-1.098Z"/>
    <path d="m78.693,8.618c.308,0,.531.208.531.438s-.179.316-.309.316c-.158,0-.308-.108-.308-.309,0-.186.143-.273.165-.28-.014-.007-.028-.007-.079-.007-.545,0-.847.638-.847,1.349v1.105c0,.259.014.338.545.338h.15v.222c-.287-.021-.624-.021-.911-.021-.201,0-.538.014-.818.021v-.222c.481,0,.56,0,.56-.323v-1.923c0-.352-.057-.401-.56-.401v-.222l.997-.08v.79c.1-.309.359-.79.882-.79Z"/>
    <path d="m80.866,11.868c-.452,0-1.148-.179-1.148-.76,0-.316.179-.689.718-.932.452-.216.954-.237,1.32-.259v-.265c0-.638-.409-.918-.761-.918-.229,0-.581.079-.775.33.33.007.366.244.366.33,0,.187-.129.331-.33.331-.187,0-.33-.122-.33-.337,0-.473.495-.811,1.083-.811.345,0,.703.115.983.394.258.266.258.546.258.847v1.435c0,.036.029.359.266.359.079,0,.258-.043.258-.459v-.401h.179v.401c0,.582-.437.681-.588.681-.337,0-.531-.301-.56-.588-.136.337-.466.624-.94.624Zm-.595-.767c0,.359.294.61.646.61.323,0,.839-.244.839-.925v-.718c-1.184.044-1.485.639-1.485,1.034Z"/>
    <path d="m83.233,8.92v-.222l1.012-.08v.754c.201-.445.538-.754,1.062-.754.416,0,.653.144.753.266.222.258.222.481.222,1.097v1.37c.007.215.186.215.559.215v.222c-.244-.007-.617-.021-.803-.021-.194,0-.56.014-.811.021v-.222c.481,0,.56,0,.56-.323v-1.672c0-.408-.079-.796-.531-.796-.459,0-.969.401-.969,1.147v1.32c0,.323.079.323.559.323v.222c-.244-.007-.617-.021-.803-.021-.194,0-.56.014-.811.021v-.222c.481,0,.56,0,.56-.323v-1.923c0-.352-.058-.401-.56-.401Z"/>
    <path d="m88.835,11.689c.265,0,.731-.086.94-.753.014-.043.029-.072.093-.072.022,0,.093,0,.093.072s-.23.932-1.191.932c-.832,0-1.542-.71-1.542-1.628,0-.889.66-1.664,1.557-1.664.552,0,1.098.28,1.098.768,0,.215-.143.337-.33.337-.201,0-.33-.144-.33-.33,0-.093.043-.309.337-.33-.251-.258-.703-.266-.768-.266-.38,0-.968.302-.968,1.471,0,1.155.631,1.463,1.011,1.463Z"/>
    <path d="m90.958,7.513c0-.352-.058-.401-.56-.401v-.222l1.033-.079v2.511c.122-.272.437-.703,1.04-.703.416,0,.653.144.753.266.222.258.222.481.222,1.097v1.37c.007.215.186.215.559.215v.222c-.244-.007-.617-.021-.803-.021-.194,0-.56.014-.811.021v-.222c.481,0,.56,0,.56-.323v-1.672c0-.408-.079-.796-.531-.796-.459,0-.969.401-.969,1.147v1.32c0,.323.079.323.559.323v.222c-.244-.007-.617-.021-.803-.021-.194,0-.56.014-.811.021v-.222c.481,0,.56,0,.56-.323v-3.731Z"/>
    <path d="m98.648,11.222c0,.266.022.345.667.345h.23v.222c-.251-.021-.875-.021-1.162-.021s-.911,0-1.162.021v-.222h.229c.645,0,.667-.086.667-.345v-3.716c-.373.186-.796.186-.94.186v-.222c.23,0,.861,0,1.306-.459.165,0,.165.014.165.186v4.025Z"/>
  </g>
  <g>
    <path d="m53.846,25.648c0,.674-.645,1.313-1.599,1.313h-2.812v-.223h.172c.553,0,.567-.079.567-.337v-3.781c0-.258-.014-.337-.567-.337h-.172v-.222h2.625c.933,0,1.593.588,1.593,1.212,0,.531-.495.99-1.191,1.126.796.086,1.384.624,1.384,1.249Zm-2.037-1.313c.796,0,1.148-.603,1.148-1.062,0-.38-.251-.99-.947-.99h-.889c-.337,0-.352.051-.352.287v1.765h1.04Zm1.32,1.306c0-.48-.301-1.148-1.011-1.148h-1.349v1.958c0,.237.014.287.352.287h.897c.739,0,1.112-.588,1.112-1.097Z"/>
    <path d="m56.334,23.79c.308,0,.531.208.531.437s-.179.316-.309.316c-.158,0-.308-.108-.308-.308,0-.187.143-.273.165-.28-.014-.008-.028-.008-.079-.008-.545,0-.846.639-.846,1.349v1.104c0,.258.014.337.545.337h.15v.223c-.287-.022-.624-.022-.911-.022-.201,0-.538.015-.818.022v-.223c.481,0,.56,0,.56-.323v-1.922c0-.351-.057-.401-.56-.401v-.223l.997-.079v.789c.101-.308.359-.789.882-.789Z"/>
    <path d="m58.508,27.04c-.452,0-1.148-.179-1.148-.761,0-.315.179-.688.718-.932.452-.215.954-.237,1.32-.258v-.266c0-.638-.409-.918-.76-.918-.23,0-.581.079-.774.33.33.007.365.243.365.33,0,.186-.129.33-.33.33-.187,0-.33-.122-.33-.337,0-.474.495-.811,1.083-.811.344,0,.703.115.983.395.258.265.258.545.258.846v1.435c0,.036.029.359.266.359.079,0,.258-.044.258-.459v-.402h.179v.402c0,.581-.437.681-.588.681-.337,0-.531-.302-.56-.589-.136.338-.466.624-.94.624Zm-.596-.768c0,.359.294.61.646.61.323,0,.839-.244.839-.926v-.717c-1.184.043-1.485.638-1.485,1.033Z"/>
    <path d="m60.875,24.092v-.223l1.011-.079v.753c.201-.444.538-.753,1.062-.753.416,0,.653.143.753.265.222.259.222.481.222,1.098v1.37c.007.215.186.215.559.215v.223c-.244-.007-.617-.022-.803-.022-.194,0-.56.015-.811.022v-.223c.481,0,.56,0,.56-.323v-1.671c0-.409-.079-.797-.531-.797-.459,0-.969.402-.969,1.148v1.32c0,.323.079.323.559.323v.223c-.244-.007-.617-.022-.803-.022-.194,0-.56.015-.811.022v-.223c.48,0,.56,0,.56-.323v-1.922c0-.351-.058-.401-.56-.401Z"/>
    <path d="m66.477,26.86c.266,0,.732-.087.94-.753.014-.044.029-.072.093-.072.022,0,.093,0,.093.072s-.23.932-1.191.932c-.832,0-1.542-.71-1.542-1.629,0-.889.66-1.664,1.557-1.664.552,0,1.097.28,1.097.767,0,.216-.143.337-.33.337-.201,0-.33-.143-.33-.33,0-.094.043-.309.337-.331-.251-.258-.703-.265-.768-.265-.38,0-.968.301-.968,1.47,0,1.155.631,1.464,1.011,1.464Z"/>
    <path d="m68.6,22.685c0-.352-.058-.402-.56-.402v-.222l1.033-.079v2.511c.122-.273.437-.703,1.04-.703.416,0,.653.143.753.265.223.259.223.481.223,1.098v1.37c.007.215.186.215.559.215v.223c-.244-.007-.617-.022-.803-.022-.194,0-.56.015-.811.022v-.223c.481,0,.56,0,.56-.323v-1.671c0-.409-.079-.797-.531-.797-.459,0-.969.402-.969,1.148v1.32c0,.323.079.323.559.323v.223c-.244-.007-.617-.022-.803-.022-.194,0-.56.015-.811.022v-.223c.481,0,.56,0,.56-.323v-3.73Z"/>
    <path d="m76.383,26.408c.158,0,.631,0,.681-.058.072-.108.122-.423.158-.639h.179l-.201,1.249h-2.662c0-.172,0-.187.079-.266l1.377-1.535c.394-.445.753-1.012.753-1.586,0-.588-.308-1.169-.961-1.169-.416,0-.803.265-.969.731.021-.007.036-.007.093-.007.251,0,.381.187.381.373,0,.294-.251.38-.373.38-.021,0-.38,0-.38-.402,0-.639.531-1.299,1.341-1.299.875,0,1.521.574,1.521,1.392,0,.717-.43,1.105-1.549,2.095l-.76.739h1.291Z"/>
  </g>
  <g>
    <path d="m98.389,25.508c0,.674-.645,1.313-1.6,1.313h-2.812v-.223h.172c.553,0,.567-.079.567-.337v-3.781c0-.258-.014-.337-.567-.337h-.172v-.222h2.625c.933,0,1.593.588,1.593,1.212,0,.531-.495.99-1.191,1.126.796.086,1.384.624,1.384,1.249Zm-2.037-1.313c.796,0,1.148-.602,1.148-1.062,0-.38-.251-.99-.947-.99h-.889c-.337,0-.351.051-.351.287v1.765h1.04Zm1.32,1.306c0-.481-.301-1.148-1.011-1.148h-1.349v1.958c0,.238.014.287.351.287h.897c.739,0,1.112-.588,1.112-1.097Z"/>
    <path d="m100.878,23.65c.308,0,.531.208.531.438s-.179.315-.309.315c-.158,0-.308-.107-.308-.308,0-.187.143-.273.165-.28-.014-.007-.028-.007-.079-.007-.545,0-.847.638-.847,1.349v1.105c0,.258.014.337.545.337h.15v.223c-.287-.022-.624-.022-.911-.022-.201,0-.538.015-.818.022v-.223c.481,0,.56,0,.56-.322v-1.923c0-.351-.057-.401-.56-.401v-.222l.997-.08v.79c.101-.309.359-.79.882-.79Z"/>
    <path d="m103.051,26.899c-.452,0-1.148-.179-1.148-.76,0-.316.179-.689.718-.932.452-.216.954-.238,1.32-.259v-.266c0-.638-.409-.918-.76-.918-.229,0-.581.079-.774.331.33.007.365.243.365.33,0,.186-.129.33-.33.33-.187,0-.33-.122-.33-.337,0-.473.495-.811,1.083-.811.344,0,.703.114.983.395.258.265.258.545.258.846v1.435c0,.036.029.359.266.359.079,0,.258-.044.258-.459v-.401h.179v.401c0,.581-.437.681-.588.681-.337,0-.531-.301-.56-.588-.136.337-.466.624-.94.624Zm-.595-.767c0,.359.294.61.646.61.323,0,.839-.244.839-.926v-.717c-1.184.044-1.485.638-1.485,1.034Z"/>
    <path d="m105.418,23.951v-.222l1.012-.08v.753c.201-.444.538-.753,1.062-.753.416,0,.653.144.753.265.222.259.222.481.222,1.098v1.37c.007.215.186.215.559.215v.223c-.244-.007-.617-.022-.803-.022-.194,0-.56.015-.811.022v-.223c.481,0,.56,0,.56-.322v-1.672c0-.409-.079-.796-.531-.796-.459,0-.968.401-.968,1.147v1.32c0,.322.079.322.559.322v.223c-.244-.007-.617-.022-.803-.022-.194,0-.56.015-.811.022v-.223c.481,0,.56,0,.56-.322v-1.923c0-.351-.058-.401-.56-.401Z"/>
    <path d="m111.02,26.72c.265,0,.732-.086.94-.753.014-.043.029-.072.093-.072.022,0,.093,0,.093.072s-.229.932-1.191.932c-.832,0-1.542-.71-1.542-1.628,0-.89.66-1.664,1.557-1.664.552,0,1.098.28,1.098.768,0,.215-.143.337-.33.337-.201,0-.33-.144-.33-.331,0-.093.043-.309.337-.331-.251-.257-.703-.265-.768-.265-.38,0-.968.302-.968,1.47,0,1.156.631,1.464,1.011,1.464Z"/>
    <path d="m113.143,22.545c0-.352-.058-.402-.56-.402v-.222l1.033-.079v2.511c.122-.272.437-.703,1.04-.703.416,0,.653.144.753.265.222.259.222.481.222,1.098v1.37c.007.215.186.215.559.215v.223c-.244-.007-.617-.022-.803-.022-.194,0-.56.015-.811.022v-.223c.481,0,.56,0,.56-.322v-1.672c0-.409-.079-.796-.531-.796-.459,0-.969.401-.969,1.147v1.32c0,.322.079.322.559.322v.223c-.244-.007-.617-.022-.803-.022-.194,0-.56.015-.811.022v-.223c.48,0,.56,0,.56-.322v-3.731Z"/>
    <path d="m122.002,25.594c0,.732-.653,1.385-1.528,1.385-.782,0-1.449-.474-1.449-1.126,0-.316.23-.416.402-.416.208,0,.402.144.402.401,0,.273-.223.431-.474.395.251.423.789.546,1.098.546.316,0,.811-.208.811-1.184,0-.703-.265-1.191-.854-1.191h-.315c-.122,0-.172,0-.172-.079,0-.072.05-.079.108-.086.05,0,.222-.014.28-.021.179-.008.423-.03.638-.374.186-.315.201-.731.201-.817,0-.646-.394-.804-.689-.804-.258,0-.732.094-.954.445.107,0,.445,0,.445.359,0,.208-.143.366-.366.366-.208,0-.366-.136-.366-.373,0-.546.545-.976,1.27-.976.689,0,1.32.401,1.32.99,0,.567-.416,1.069-1.004,1.263.746.15,1.198.71,1.198,1.298Z"/>
  </g>
  <polyline class="cls-1" points="93.087 59.961 93.087 29.748 159.688 29.748"/>
  <g>
    <path d="m155.442,3.587c0,.675-.645,1.313-1.6,1.313h-2.812v-.223h.172c.553,0,.567-.079.567-.337V.559c0-.257-.014-.337-.567-.337h-.172v-.222h2.625c.933,0,1.593.588,1.593,1.212,0,.531-.495.99-1.191,1.126.796.086,1.384.624,1.384,1.248Zm-2.037-1.313c.796,0,1.148-.602,1.148-1.062,0-.38-.251-.99-.947-.99h-.889c-.337,0-.351.05-.351.287v1.765h1.04Zm1.32,1.306c0-.481-.301-1.147-1.011-1.147h-1.349v1.958c0,.237.014.287.351.287h.897c.739,0,1.112-.588,1.112-1.098Z"/>
    <path d="m157.73,4.979c-1.09,0-1.09-.653-1.09-1.212v-1.077c0-.638,0-.66-.56-.66v-.222l1.055-.079v2.381c0,.373.028.711.631.711.524,0,.868-.488.868-1.112v-1.277c0-.352-.058-.402-.56-.402v-.222l1.055-.079v2.547c0,.351.057.401.559.401v.223l-1.033.079v-.645c-.208.444-.524.645-.926.645Z"/>
    <path d="m160.376,3.177c-.194-.158-.309-.359-.309-.609,0-.402.273-.883,1.148-.883.108,0,.402,0,.675.201.028-.021.1-.086.122-.115.093-.086.108-.086.143-.086.079,0,.079.051.079.173v.724c0,.136,0,.172-.093.172-.014,0-.079,0-.086-.065-.014-.223-.05-.868-.84-.868-.617,0-.803.294-.803.546,0,.416.481.509.882.588.301.058.581.115.818.345.086.086.301.301.301.682,0,.516-.33.997-1.155.997-.151,0-.473-.007-.789-.309-.129.136-.129.151-.143.165-.136.136-.143.144-.179.144-.079,0-.079-.051-.079-.172v-.947c0-.13,0-.179.094-.179.072,0,.079.029.1.122.136.61.395,1.02.997,1.02.56,0,.811-.288.811-.653,0-.517-.589-.631-.746-.66-.516-.1-.717-.143-.947-.331Z"/>
    <path d="m168.325,3.673c0,.732-.653,1.384-1.528,1.384-.782,0-1.449-.474-1.449-1.126,0-.316.23-.416.402-.416.208,0,.402.144.402.402,0,.273-.223.43-.474.394.251.423.789.545,1.098.545.316,0,.811-.208.811-1.183,0-.703-.265-1.191-.854-1.191h-.315c-.122,0-.172,0-.172-.079,0-.072.05-.079.108-.086.05,0,.223-.014.28-.021.179-.007.423-.029.638-.373.187-.316.201-.732.201-.818,0-.645-.394-.803-.689-.803-.258,0-.732.093-.954.444.108,0,.445,0,.445.359,0,.208-.143.366-.366.366-.208,0-.366-.136-.366-.373,0-.546.545-.976,1.27-.976.689,0,1.32.402,1.32.99,0,.567-.416,1.069-1.004,1.263.746.15,1.198.71,1.198,1.299Z"/>
  </g>
  <g>
    <path d="m107.043,61.612c0,.674-.645,1.313-1.6,1.313h-2.812v-.223h.172c.553,0,.567-.079.567-.337v-3.781c0-.258-.014-.338-.567-.338h-.172v-.222h2.625c.933,0,1.593.589,1.593,1.212,0,.531-.495.99-1.191,1.127.796.086,1.384.624,1.384,1.249Zm-2.037-1.314c.796,0,1.148-.602,1.148-1.062,0-.38-.251-.99-.947-.99h-.889c-.337,0-.351.051-.351.287v1.765h1.04Zm1.32,1.306c0-.48-.301-1.147-1.011-1.147h-1.349v1.958c0,.237.014.287.351.287h.897c.739,0,1.112-.588,1.112-1.097Z"/>
    <path d="m109.33,63.004c-1.09,0-1.09-.653-1.09-1.212v-1.076c0-.639,0-.66-.56-.66v-.223l1.055-.079v2.381c0,.373.028.711.631.711.524,0,.868-.488.868-1.112v-1.277c0-.352-.058-.401-.56-.401v-.223l1.055-.079v2.547c0,.352.057.401.559.401v.223l-1.033.079v-.646c-.208.444-.524.646-.926.646Z"/>
    <path d="m111.977,61.203c-.194-.157-.309-.359-.309-.61,0-.402.273-.882,1.148-.882.108,0,.402,0,.675.2.028-.021.1-.086.122-.115.093-.086.107-.086.143-.086.079,0,.079.05.079.172v.724c0,.136,0,.172-.093.172-.014,0-.079,0-.086-.065-.014-.222-.05-.868-.84-.868-.617,0-.803.294-.803.545,0,.416.481.509.883.588.301.057.581.115.818.344.086.086.301.302.301.682,0,.516-.33.997-1.155.997-.151,0-.474-.007-.789-.309-.129.136-.129.151-.143.165-.136.136-.143.143-.179.143-.079,0-.079-.05-.079-.172v-.947c0-.129,0-.179.094-.179.072,0,.079.029.1.122.136.61.395,1.019.997,1.019.56,0,.811-.288.811-.653,0-.517-.588-.631-.746-.66-.516-.1-.717-.143-.947-.33Z"/>
    <path d="m118.849,62.373c.158,0,.631,0,.681-.058.072-.108.122-.423.158-.638h.179l-.201,1.249h-2.662c0-.172,0-.187.079-.266l1.377-1.535c.394-.445.753-1.012.753-1.586,0-.588-.308-1.169-.961-1.169-.416,0-.804.265-.968.731.021-.007.036-.007.093-.007.251,0,.38.187.38.373,0,.294-.251.38-.373.38-.021,0-.38,0-.38-.402,0-.639.531-1.299,1.342-1.299.875,0,1.521.575,1.521,1.392,0,.717-.43,1.105-1.549,2.095l-.76.739h1.291Z"/>
  </g>
  <rect class="cls-4" x="8.814" y="39.05" width="5.669" height="5.669"/>
  <g>
    <path class="cls-5" d="m150.95,51.778l1.534-3.943c.049-.126.049-.133.231-.133h1.184v.217h-.168c-.54,0-.553.077-.553.329v3.691c0,.252.014.329.553.329h.168v.217c-.259-.021-.729-.021-1.001-.021s-.75,0-1.009.021v-.217h.168c.539,0,.553-.077.553-.329v-4.02h-.007l-1.723,4.433c-.028.077-.049.133-.126.133-.07,0-.105-.063-.14-.154l-1.688-4.356h-.007v3.775c0,.189,0,.518.721.518v.217c-.245-.007-.588-.021-.819-.021s-.574.014-.819.021v-.217c.721,0,.721-.329.721-.518v-3.502c0-.252-.014-.329-.553-.329h-.168v-.217h1.184c.161,0,.182,0,.245.154l1.52,3.922Z"/>
    <path class="cls-5" d="m155.142,51.918c.161.259.441.469.792.469.07,0,.701,0,.946-.721.014-.056.028-.098.091-.098.035,0,.091.014.091.084,0,.133-.315.911-1.17.911-.805,0-1.541-.68-1.541-1.618,0-.875.644-1.597,1.457-1.597.875,0,1.254.679,1.254,1.373,0,.147-.021.147-.175.147h-1.954c0,.252,0,.714.21,1.05Zm1.457-1.198c0-.273-.07-1.218-.792-1.218-.238,0-.826.175-.868,1.218h1.66Z"/>
    <path class="cls-5" d="m158.474,51.631c0,.119,0,.756.469.756.26,0,.47-.266.47-.784v-.385h.175v.399c0,.448-.196.946-.693.946-.252,0-.903-.084-.903-.946v-1.933h-.595v-.154c.686-.028.896-.777.903-1.352h.175v1.289h1.002v.217h-1.002v1.947Z"/>
    <path class="cls-5" d="m160.965,51.918c.161.259.441.469.792.469.07,0,.7,0,.945-.721.014-.056.028-.098.091-.098.035,0,.092.014.092.084,0,.133-.315.911-1.17.911-.806,0-1.541-.68-1.541-1.618,0-.875.645-1.597,1.457-1.597.875,0,1.254.679,1.254,1.373,0,.147-.021.147-.176.147h-1.954c0,.252,0,.714.21,1.05Zm1.457-1.198c0-.273-.069-1.218-.791-1.218-.238,0-.826.175-.869,1.218h1.66Z"/>
    <path class="cls-5" d="m165.117,49.389c.301,0,.518.203.518.427s-.175.308-.301.308c-.154,0-.301-.105-.301-.301,0-.182.14-.266.16-.273-.014-.007-.027-.007-.076-.007-.532,0-.827.623-.827,1.316v1.079c0,.252.015.329.532.329h.147v.217c-.28-.021-.609-.021-.89-.021-.196,0-.525.014-.798.021v-.217c.469,0,.546,0,.546-.315v-1.877c0-.343-.056-.392-.546-.392v-.217l.973-.077v.771c.099-.301.351-.771.862-.771Z"/>
    <path class="cls-5" d="m171.355,51.287c0,.714-.638,1.352-1.492,1.352-.764,0-1.415-.462-1.415-1.1,0-.309.225-.406.393-.406.203,0,.393.14.393.392,0,.266-.218.42-.463.385.245.413.771.532,1.072.532.308,0,.791-.203.791-1.156,0-.686-.259-1.163-.833-1.163h-.309c-.119,0-.168,0-.168-.077,0-.07.049-.077.105-.084.049,0,.217-.014.272-.021.176-.007.413-.028.624-.364.182-.308.195-.714.195-.798,0-.63-.385-.784-.672-.784-.252,0-.715.091-.932.434.105,0,.435,0,.435.35,0,.203-.141.357-.357.357-.203,0-.357-.133-.357-.364,0-.532.532-.953,1.24-.953.672,0,1.288.392,1.288.967,0,.553-.406,1.043-.98,1.232.729.147,1.17.693,1.17,1.268Z"/>
  </g>
  <g>
    <path class="cls-5" d="m20.74,24.595l1.534-3.943c.049-.126.049-.133.231-.133h1.184v.217h-.168c-.54,0-.553.077-.553.329v3.691c0,.252.014.329.553.329h.168v.217c-.259-.021-.729-.021-1.001-.021s-.75,0-1.009.021v-.217h.168c.539,0,.553-.077.553-.329v-4.02h-.007l-1.723,4.433c-.028.077-.049.133-.126.133-.07,0-.105-.063-.14-.154l-1.688-4.356h-.007v3.775c0,.189,0,.518.721.518v.217c-.245-.007-.588-.021-.819-.021s-.574.014-.819.021v-.217c.721,0,.721-.329.721-.518v-3.502c0-.252-.014-.329-.553-.329h-.168v-.217h1.184c.161,0,.182,0,.245.154l1.52,3.922Z"/>
    <path class="cls-5" d="m24.932,24.735c.161.259.441.469.792.469.07,0,.701,0,.946-.721.014-.056.028-.098.091-.098.035,0,.091.014.091.084,0,.133-.315.911-1.17.911-.805,0-1.541-.68-1.541-1.618,0-.875.644-1.597,1.457-1.597.875,0,1.254.679,1.254,1.373,0,.147-.021.147-.175.147h-1.954c0,.252,0,.714.21,1.05Zm1.457-1.198c0-.273-.07-1.218-.792-1.218-.238,0-.826.175-.868,1.218h1.66Z"/>
    <path class="cls-5" d="m28.264,24.448c0,.119,0,.756.469.756.259,0,.47-.266.47-.784v-.385h.175v.399c0,.448-.196.946-.693.946-.252,0-.903-.084-.903-.946v-1.933h-.595v-.154c.686-.028.896-.777.903-1.352h.175v1.289h1.002v.217h-1.002v1.947Z"/>
    <path class="cls-5" d="m30.756,24.735c.161.259.441.469.792.469.07,0,.701,0,.946-.721.014-.056.028-.098.091-.098.035,0,.091.014.091.084,0,.133-.315.911-1.17.911-.805,0-1.541-.68-1.541-1.618,0-.875.644-1.597,1.457-1.597.875,0,1.254.679,1.254,1.373,0,.147-.021.147-.175.147h-1.954c0,.252,0,.714.21,1.05Zm1.457-1.198c0-.273-.07-1.218-.792-1.218-.238,0-.826.175-.869,1.218h1.66Z"/>
    <path class="cls-5" d="m34.907,22.207c.301,0,.518.203.518.427s-.175.308-.301.308c-.154,0-.301-.105-.301-.301,0-.182.14-.266.161-.273-.014-.007-.028-.007-.077-.007-.532,0-.827.623-.827,1.316v1.079c0,.252.014.329.532.329h.147v.217c-.28-.021-.609-.021-.889-.021-.196,0-.525.014-.798.021v-.217c.469,0,.546,0,.546-.315v-1.877c0-.343-.056-.392-.546-.392v-.217l.973-.077v.771c.098-.301.351-.771.862-.771Z"/>
    <path class="cls-5" d="m38.14,24.147v-.217l2.15-3.285c.056-.084.077-.084.14-.084.112,0,.112.042.112.182v3.187h.7v.217h-.7v.609c0,.252.014.329.532.329h.147v.217c-.287-.021-.658-.021-.953-.021s-.658,0-.945.021v-.217h.147c.518,0,.532-.077.532-.329v-.609h-1.863Zm1.905-2.83l-1.709,2.613h1.709v-2.613Z"/>
  </g>
  <g>
    <path class="cls-5" d="m133.11,24.595l1.534-3.943c.049-.126.049-.133.231-.133h1.184v.217h-.168c-.54,0-.553.077-.553.329v3.691c0,.252.014.329.553.329h.168v.217c-.259-.021-.729-.021-1.001-.021s-.75,0-1.009.021v-.217h.168c.539,0,.553-.077.553-.329v-4.02h-.007l-1.723,4.433c-.028.077-.049.133-.126.133-.07,0-.105-.063-.14-.154l-1.688-4.356h-.007v3.775c0,.189,0,.518.721.518v.217c-.245-.007-.588-.021-.819-.021s-.574.014-.819.021v-.217c.721,0,.721-.329.721-.518v-3.502c0-.252-.014-.329-.553-.329h-.168v-.217h1.184c.161,0,.182,0,.245.154l1.52,3.922Z"/>
    <path class="cls-5" d="m137.302,24.735c.161.259.441.469.792.469.07,0,.701,0,.946-.721.014-.056.028-.098.091-.098.035,0,.091.014.091.084,0,.133-.315.911-1.17.911-.805,0-1.541-.68-1.541-1.618,0-.875.644-1.597,1.457-1.597.875,0,1.254.679,1.254,1.373,0,.147-.021.147-.175.147h-1.954c0,.252,0,.714.21,1.05Zm1.457-1.198c0-.273-.07-1.218-.792-1.218-.238,0-.826.175-.868,1.218h1.66Z"/>
    <path class="cls-5" d="m140.634,24.448c0,.119,0,.756.469.756.259,0,.47-.266.47-.784v-.385h.175v.399c0,.448-.196.946-.693.946-.252,0-.903-.084-.903-.946v-1.933h-.595v-.154c.686-.028.896-.777.903-1.352h.175v1.289h1.002v.217h-1.002v1.947Z"/>
    <path class="cls-5" d="m143.125,24.735c.161.259.441.469.792.469.07,0,.701,0,.946-.721.014-.056.028-.098.091-.098.035,0,.091.014.091.084,0,.133-.315.911-1.17.911-.805,0-1.541-.68-1.541-1.618,0-.875.644-1.597,1.457-1.597.875,0,1.254.679,1.254,1.373,0,.147-.021.147-.175.147h-1.954c0,.252,0,.714.21,1.05Zm1.457-1.198c0-.273-.07-1.218-.792-1.218-.238,0-.826.175-.869,1.218h1.66Z"/>
    <path class="cls-5" d="m147.277,22.207c.301,0,.518.203.518.427s-.175.308-.301.308c-.154,0-.301-.105-.301-.301,0-.182.14-.266.161-.273-.014-.007-.028-.007-.077-.007-.532,0-.827.623-.827,1.316v1.079c0,.252.014.329.532.329h.147v.217c-.28-.021-.609-.021-.889-.021-.196,0-.525.014-.798.021v-.217c.469,0,.546,0,.546-.315v-1.877c0-.343-.056-.392-.546-.392v-.217l.973-.077v.771c.098-.301.351-.771.862-.771Z"/>
    <path class="cls-5" d="m151.932,25.457c-.784,0-1.268-.68-1.268-1.282,0-.322.245-.372.343-.372.231,0,.35.175.35.343s-.119.343-.35.343c-.077,0-.098-.007-.119-.014.119.414.519.785,1.03.785.322,0,.581-.182.75-.455.168-.294.168-.714.168-.959,0-.351-.014-.624-.126-.883-.056-.126-.231-.448-.596-.448-.567,0-.826.378-.903.49-.028.042-.042.063-.091.063-.098,0-.098-.056-.098-.182v-2.073c0-.112,0-.168.07-.168.014,0,.028,0,.084.021.329.147.651.196.932.196.469,0,.812-.14.953-.203.035-.021.049-.021.056-.021.049,0,.07.035.07.077,0,.091-.49.729-1.352.729-.224,0-.456-.049-.596-.091v1.366c.252-.245.554-.357.89-.357.756,0,1.331.7,1.331,1.534,0,.89-.714,1.562-1.527,1.562Z"/>
  </g>
  <g>
    <rect class="cls-4" x="63.26" y="57.594" width="5.669" height="5.669"/>
    <g>
      <path class="cls-5" d="m57.394,70.322l1.534-3.943c.049-.126.049-.133.231-.133h1.184v.217h-.168c-.54,0-.553.077-.553.329v3.691c0,.252.014.329.553.329h.168v.217c-.259-.021-.729-.021-1.001-.021s-.75,0-1.008.021v-.217h.168c.539,0,.553-.077.553-.329v-4.02h-.007l-1.723,4.433c-.028.077-.049.133-.126.133-.07,0-.105-.063-.14-.154l-1.688-4.356h-.007v3.775c0,.189,0,.518.721.518v.217c-.245-.007-.588-.021-.819-.021s-.574.014-.819.021v-.217c.721,0,.721-.329.721-.518v-3.502c0-.252-.014-.329-.553-.329h-.168v-.217h1.184c.161,0,.182,0,.245.154l1.52,3.922Z"/>
      <path class="cls-5" d="m61.586,70.462c.161.259.441.469.792.469.07,0,.701,0,.946-.721.014-.056.028-.098.091-.098.035,0,.091.014.091.084,0,.133-.315.911-1.17.911-.805,0-1.541-.68-1.541-1.618,0-.875.644-1.597,1.457-1.597.875,0,1.254.679,1.254,1.373,0,.147-.021.147-.175.147h-1.954c0,.252,0,.714.21,1.05Zm1.457-1.198c0-.273-.07-1.218-.792-1.218-.238,0-.826.175-.869,1.218h1.66Z"/>
      <path class="cls-5" d="m64.918,70.175c0,.119,0,.756.47.756.259,0,.469-.266.469-.784v-.385h.175v.399c0,.448-.196.946-.693.946-.252,0-.903-.084-.903-.946v-1.933h-.595v-.154c.686-.028.896-.777.903-1.352h.175v1.289h1.002v.217h-1.002v1.947Z"/>
      <path class="cls-5" d="m67.41,70.462c.161.259.441.469.792.469.07,0,.701,0,.946-.721.014-.056.028-.098.091-.098.035,0,.091.014.091.084,0,.133-.315.911-1.17.911-.805,0-1.541-.68-1.541-1.618,0-.875.644-1.597,1.457-1.597.875,0,1.254.679,1.254,1.373,0,.147-.021.147-.175.147h-1.954c0,.252,0,.714.21,1.05Zm1.457-1.198c0-.273-.07-1.218-.792-1.218-.238,0-.826.175-.868,1.218h1.66Z"/>
      <path class="cls-5" d="m71.561,67.933c.301,0,.518.203.518.427s-.175.308-.301.308c-.154,0-.301-.105-.301-.301,0-.182.14-.266.161-.273-.014-.007-.028-.007-.077-.007-.532,0-.827.623-.827,1.316v1.079c0,.252.014.329.532.329h.147v.217c-.28-.021-.609-.021-.889-.021-.196,0-.525.014-.798.021v-.217c.469,0,.546,0,.546-.315v-1.877c0-.343-.056-.393-.546-.393v-.217l.973-.077v.771c.098-.301.351-.771.862-.771Z"/>
      <path class="cls-5" d="m76.749,70.49c.154,0,.616,0,.665-.056.07-.105.119-.414.154-.624h.175l-.196,1.219h-2.599c0-.168,0-.182.077-.259l1.345-1.499c.385-.435.735-.988.735-1.548,0-.574-.301-1.142-.938-1.142-.406,0-.784.259-.945.714.021-.007.035-.007.091-.007.245,0,.371.182.371.364,0,.287-.245.372-.364.372-.021,0-.371,0-.371-.393,0-.623.519-1.268,1.31-1.268.854,0,1.485.561,1.485,1.359,0,.7-.42,1.079-1.513,2.045l-.742.722h1.261Z"/>
    </g>
  </g>
  <rect class="cls-4" x="156.872" y="39.05" width="5.669" height="5.669"/>
  <rect class="cls-4" x="26.606" y="11.868" width="5.669" height="5.669"/>
  <rect class="cls-4" x="138.975" y="11.868" width="5.669" height="5.669"/>
  <g>
    <path class="cls-5" d="m2.948,51.778l1.534-3.943c.049-.126.049-.133.231-.133h1.184v.217h-.168c-.54,0-.553.077-.553.329v3.691c0,.252.014.329.553.329h.168v.217c-.259-.021-.729-.021-1.001-.021s-.75,0-1.009.021v-.217h.168c.539,0,.553-.077.553-.329v-4.02h-.007l-1.723,4.433c-.028.077-.049.133-.126.133-.07,0-.105-.063-.14-.154l-1.688-4.356h-.007v3.775c0,.189,0,.518.721.518v.217c-.245-.007-.588-.021-.819-.021s-.574.014-.819.021v-.217c.721,0,.721-.329.721-.518v-3.502c0-.252-.014-.329-.553-.329h-.168v-.217h1.184c.161,0,.182,0,.245.154l1.52,3.922Z"/>
    <path class="cls-5" d="m7.14,51.918c.161.259.441.469.792.469.07,0,.701,0,.946-.721.014-.056.028-.098.091-.098.035,0,.091.014.091.084,0,.133-.315.911-1.17.911-.805,0-1.541-.68-1.541-1.618,0-.875.644-1.597,1.457-1.597.875,0,1.254.679,1.254,1.373,0,.147-.021.147-.175.147h-1.954c0,.252,0,.714.21,1.05Zm1.457-1.198c0-.273-.07-1.218-.792-1.218-.238,0-.826.175-.868,1.218h1.66Z"/>
    <path class="cls-5" d="m10.472,51.631c0,.119,0,.756.469.756.259,0,.47-.266.47-.784v-.385h.175v.399c0,.448-.196.946-.693.946-.252,0-.903-.084-.903-.946v-1.933h-.595v-.154c.686-.028.896-.777.903-1.352h.175v1.289h1.002v.217h-1.002v1.947Z"/>
    <path class="cls-5" d="m12.964,51.918c.161.259.441.469.792.469.07,0,.701,0,.946-.721.014-.056.028-.098.091-.098.035,0,.091.014.091.084,0,.133-.315.911-1.17.911-.805,0-1.541-.68-1.541-1.618,0-.875.644-1.597,1.457-1.597.875,0,1.254.679,1.254,1.373,0,.147-.021.147-.175.147h-1.954c0,.252,0,.714.21,1.05Zm1.457-1.198c0-.273-.07-1.218-.792-1.218-.238,0-.826.175-.869,1.218h1.66Z"/>
    <path class="cls-5" d="m17.116,49.389c.301,0,.518.203.518.427s-.175.308-.301.308c-.154,0-.301-.105-.301-.301,0-.182.14-.266.161-.273-.014-.007-.028-.007-.077-.007-.532,0-.827.623-.827,1.316v1.079c0,.252.014.329.532.329h.147v.217c-.28-.021-.609-.021-.889-.021-.196,0-.525.014-.798.021v-.217c.469,0,.546,0,.546-.315v-1.877c0-.343-.056-.392-.546-.392v-.217l.973-.077v.771c.098-.301.351-.771.862-.771Z"/>
    <path class="cls-5" d="m22.211,51.932c0,.259.021.336.651.336h.224v.217c-.245-.021-.854-.021-1.135-.021s-.889,0-1.134.021v-.217h.224c.63,0,.651-.084.651-.336v-3.628c-.364.182-.778.182-.917.182v-.217c.224,0,.84,0,1.274-.448.161,0,.161.014.161.182v3.929Z"/>
  </g>
</svg>