<?xml version="1.0" encoding="UTF-8"?>
<svg id="Layer_1" data-name="Layer 1" xmlns="http://www.w3.org/2000/svg" viewBox="0 0 267.072 115.266">
  <defs>
    <style>
      .cls-1, .cls-2, .cls-3, .cls-4, .cls-5, .cls-6, .cls-7, .cls-8 {
        stroke-miterlimit: 10;
      }

      .cls-1, .cls-2, .cls-5, .cls-6, .cls-7, .cls-8 {
        fill: none;
      }

      .cls-1, .cls-3, .cls-7, .cls-9 {
        stroke: #231f20;
      }

      .cls-2 {
        stroke: #000;
      }

      .cls-3, .cls-9 {
        fill: #fff;
      }

      .cls-4 {
        stroke: #be1e2d;
      }

      .cls-4, .cls-10 {
        fill: #be1e2d;
      }

      .cls-5, .cls-8 {
        stroke: #010101;
      }

      .cls-6 {
        stroke: #ed1c24;
      }

      .cls-7 {
        stroke-width: .7px;
      }

      .cls-11 {
        font-family: CMR10, 'CM R 10';
        font-size: 6px;
      }

      .cls-11, .cls-12 {
        fill: #231f20;
      }

      .cls-8 {
        stroke-width: 1.9px;
      }

      .cls-9 {
        stroke-miterlimit: 2;
        stroke-width: .582px;
      }
    </style>
  </defs>
  <rect class="cls-9" x=".291" y=".291" width="266.49" height="114.684" rx="4" ry="4"/>
  <line class="cls-5" x1="174.878" y1="29.936" x2="177.089" y2="29.936"/>
  <line class="cls-3" x1="148.391" y1="29.936" x2="151.49" y2="29.936"/>
  <line class="cls-3" x1="83.416" y1="29.936" x2="128.168" y2="29.936"/>
  <line class="cls-3" x1="60.547" y1="29.936" x2="63.193" y2="29.936"/>
  <line class="cls-8" x1="60.029" y1="22.453" x2="60.029" y2="52.387"/>
  <line class="cls-1" x1="63.286" y1="44.904" x2="59.892" y2="44.903"/>
  <polyline class="cls-1" points="98.241 52.554 98.241 44.904 83.512 44.904"/>
  <line class="cls-8" x1="90.757" y1="75.67" x2="120.69" y2="75.67"/>
  <line class="cls-8" x1="151.487" y1="22.453" x2="151.487" y2="52.387"/>
  <circle class="cls-3" cx="24.054" cy="37.42" r="9.524" transform="translate(-5.699 4.351) rotate(-9.245)"/>
  <path class="cls-2" d="m28.863,36.368s-1.502,1.987-2.266,2.103c-.93.142-2.546-1.058-2.546-1.058,0,0-2.345-1.184-2.837-1.045-.712.202-2.084,2.103-2.084,2.103"/>
  <line class="cls-8" x1="227.7" y1="14.969" x2="227.7" y2="44.903"/>
  <line class="cls-5" x1="151.97" y1="29.936" x2="154.728" y2="29.936"/>
  <g>
    <circle class="cls-6" cx="185.855" cy="29.936" r="8.334"/>
    <circle class="cls-5" cx="193.28" cy="29.936" r="8.334"/>
  </g>
  <line class="cls-5" x1="224.4" y1="29.936" x2="226.995" y2="29.936"/>
  <g>
    <path d="m55.93,18.821c0,.674-.645,1.313-1.599,1.313h-2.812v-.222h.172c.553,0,.567-.079.567-.337v-3.781c0-.258-.014-.337-.567-.337h-.172v-.222h2.625c.933,0,1.593.588,1.593,1.212,0,.531-.495.99-1.191,1.126.796.086,1.384.624,1.384,1.248Zm-2.037-1.313c.796,0,1.148-.603,1.148-1.062,0-.38-.251-.99-.947-.99h-.89c-.337,0-.351.05-.351.287v1.765h1.04Zm1.32,1.306c0-.481-.301-1.148-1.011-1.148h-1.349v1.959c0,.237.014.287.351.287h.897c.739,0,1.112-.588,1.112-1.097Z"/>
    <path d="m58.218,20.213c-1.09,0-1.09-.653-1.09-1.212v-1.076c0-.638,0-.66-.56-.66v-.222l1.055-.08v2.382c0,.373.028.71.631.71.524,0,.868-.488.868-1.112v-1.278c0-.352-.058-.401-.56-.401v-.222l1.055-.08v2.548c0,.352.057.401.559.401v.222l-1.033.079v-.646c-.208.445-.524.646-.925.646Z"/>
    <path d="m60.865,18.412c-.194-.158-.309-.359-.309-.61,0-.401.273-.882,1.148-.882.108,0,.402,0,.675.201.028-.022.1-.086.122-.115.093-.087.108-.087.144-.087.079,0,.079.051.079.172v.725c0,.136,0,.172-.093.172-.014,0-.079,0-.086-.065-.014-.223-.05-.868-.839-.868-.617,0-.803.294-.803.546,0,.416.481.509.882.588.301.058.581.115.818.344.086.086.301.301.301.681,0,.517-.33.997-1.155.997-.151,0-.474-.007-.789-.308-.129.137-.129.151-.143.165-.136.137-.143.144-.179.144-.079,0-.079-.05-.079-.172v-.947c0-.129,0-.179.093-.179.072,0,.079.029.1.122.136.61.395,1.019.997,1.019.56,0,.811-.287.811-.652,0-.517-.588-.631-.746-.66-.516-.101-.717-.144-.947-.331Z"/>
    <path d="m67.643,19.567c0,.266.022.344.667.344h.23v.222c-.251-.021-.875-.021-1.162-.021s-.911,0-1.162.021v-.222h.229c.645,0,.667-.086.667-.344v-3.716c-.373.186-.796.186-.94.186v-.222c.23,0,.861,0,1.306-.459.165,0,.165.014.165.186v4.025Z"/>
  </g>
  <g>
    <path d="m223.014,11.343c0,.674-.645,1.313-1.599,1.313h-2.812v-.223h.172c.553,0,.567-.079.567-.337v-3.781c0-.258-.014-.337-.567-.337h-.172v-.222h2.625c.933,0,1.593.588,1.593,1.212,0,.531-.495.99-1.19,1.127.796.087,1.384.624,1.384,1.249Zm-2.038-1.314c.797,0,1.148-.603,1.148-1.062,0-.38-.251-.99-.947-.99h-.889c-.337,0-.351.051-.351.287v1.765h1.04Zm1.32,1.306c0-.48-.302-1.147-1.012-1.147h-1.349v1.958c0,.237.014.287.351.287h.896c.739,0,1.112-.588,1.112-1.098Z"/>
    <path d="m225.302,12.734c-1.09,0-1.09-.653-1.09-1.212v-1.077c0-.639,0-.659-.56-.659v-.223l1.055-.079v2.381c0,.373.028.711.631.711.524,0,.868-.488.868-1.112v-1.277c0-.352-.058-.402-.56-.402v-.223l1.055-.079v2.547c0,.352.058.402.56.402v.223l-1.033.079v-.645c-.208.444-.524.645-.926.645Z"/>
    <path d="m227.949,10.934c-.194-.157-.309-.359-.309-.61,0-.402.273-.882,1.147-.882.108,0,.402,0,.675.201.028-.021.1-.086.122-.115.093-.086.108-.086.143-.086.079,0,.079.05.079.172v.724c0,.136,0,.172-.093.172-.015,0-.079,0-.086-.065-.014-.222-.05-.868-.84-.868-.617,0-.803.294-.803.545,0,.416.48.509.882.588.301.057.581.115.818.344.086.087.301.302.301.682,0,.516-.33.997-1.154.997-.151,0-.474-.007-.79-.309-.129.136-.129.151-.143.165-.136.136-.143.144-.179.144-.079,0-.079-.05-.079-.172v-.947c0-.129,0-.179.093-.179.072,0,.079.029.1.122.136.61.395,1.019.998,1.019.56,0,.811-.288.811-.653,0-.517-.588-.631-.747-.66-.516-.1-.717-.143-.946-.33Z"/>
    <path d="m232.819,11.471v-.222l2.203-3.364c.057-.087.079-.087.143-.087.115,0,.115.043.115.187v3.264h.717v.222h-.717v.624c0,.258.015.337.546.337h.15v.223c-.295-.022-.674-.022-.976-.022s-.674,0-.968.022v-.223h.15c.531,0,.545-.079.545-.337v-.624h-1.908Zm1.952-2.898l-1.751,2.676h1.751v-2.676Z"/>
  </g>
  <g>
    <path d="m8.299,55.027c-1.363,0-2.511-1.14-2.511-2.612s1.162-2.604,2.497-2.604c.71,0,1.097.388,1.327.617l.359-.532c.057-.086.086-.086.115-.086.079,0,.079.051.079.172v1.701c0,.15,0,.172-.115.172-.1,0-.1-.021-.114-.122-.144-1.054-.797-1.7-1.564-1.7-.43,0-1.844.238-1.844,2.382s1.42,2.389,1.886,2.389c.201,0,1.112-.065,1.112-.869v-.459c0-.266-.021-.345-.667-.345h-.229v-.222c.258.021.868.021,1.155.021.215,0,.61-.014.875-.021v.222c-.466,0-.495.037-.495.316v1.247c0,.108,0,.166-.065.166-.079,0-.366-.288-.459-.446-.244.423-.818.61-1.341.61Z"/>
    <path d="m12.021,54.288c.165.265.452.48.811.48.072,0,.718,0,.968-.738.014-.058.029-.1.093-.1.036,0,.093.015.093.086,0,.136-.323.932-1.198.932-.825,0-1.579-.696-1.579-1.657,0-.896.66-1.636,1.492-1.636.897,0,1.284.696,1.284,1.406,0,.15-.022.15-.18.15h-2.001c0,.259,0,.733.215,1.077Zm1.492-1.227c0-.28-.072-1.248-.811-1.248-.244,0-.846.179-.89,1.248h1.7Z"/>
    <path d="m14.424,51.999v-.222l1.011-.079v.753c.201-.445.538-.753,1.062-.753.416,0,.653.143.753.265.223.258.223.481.223,1.097v1.37c.007.215.186.215.559.215v.223c-.244-.007-.617-.022-.803-.022-.194,0-.56.015-.811.022v-.223c.481,0,.56,0,.56-.323v-1.672c0-.408-.079-.796-.531-.796-.459,0-.969.402-.969,1.147v1.32c0,.323.079.323.559.323v.223c-.244-.007-.617-.022-.803-.022-.194,0-.56.015-.811.022v-.223c.481,0,.56,0,.56-.323v-1.922c0-.352-.058-.402-.56-.402Z"/>
    <path d="m19.187,54.288c.165.265.452.48.811.48.072,0,.717,0,.968-.738.014-.058.029-.1.093-.1.036,0,.094.015.094.086,0,.136-.323.932-1.198.932-.825,0-1.578-.696-1.578-1.657,0-.896.66-1.636,1.492-1.636.897,0,1.284.696,1.284,1.406,0,.15-.022.15-.18.15h-2.001c0,.259,0,.733.215,1.077Zm1.492-1.227c0-.28-.072-1.248-.811-1.248-.244,0-.847.179-.889,1.248h1.7Z"/>
    <path d="m23.441,51.698c.308,0,.531.208.531.437s-.179.316-.309.316c-.158,0-.308-.108-.308-.309,0-.186.143-.273.165-.28-.014-.007-.028-.007-.079-.007-.545,0-.846.638-.846,1.349v1.105c0,.258.014.337.545.337h.15v.223c-.287-.022-.624-.022-.911-.022-.201,0-.538.015-.818.022v-.223c.481,0,.56,0,.56-.323v-1.922c0-.352-.057-.402-.56-.402v-.222l.997-.079v.789c.101-.308.359-.789.882-.789Z"/>
    <path d="m25.614,54.948c-.452,0-1.148-.18-1.148-.761,0-.315.179-.689.718-.932.452-.215.954-.237,1.32-.259v-.265c0-.638-.409-.918-.76-.918-.23,0-.581.079-.774.33.33.007.366.244.366.331,0,.186-.129.33-.33.33-.187,0-.33-.122-.33-.337,0-.474.495-.811,1.083-.811.344,0,.703.115.983.395.258.265.258.545.258.847v1.434c0,.036.029.359.266.359.079,0,.258-.043.258-.459v-.402h.179v.402c0,.581-.437.681-.588.681-.337,0-.531-.301-.56-.588-.136.338-.466.624-.94.624Zm-.596-.768c0,.359.294.61.646.61.323,0,.839-.245.839-.926v-.718c-1.184.044-1.485.639-1.485,1.034Z"/>
    <path d="m28.993,53.993c0,.122,0,.775.481.775.265,0,.48-.272.48-.803v-.395h.179v.409c0,.46-.201.969-.71.969-.258,0-.926-.086-.926-.969v-1.98h-.61v-.157c.703-.029.918-.797.925-1.385h.179v1.32h1.026v.222h-1.026v1.994Z"/>
    <path d="m32.321,54.948c-.839,0-1.586-.689-1.586-1.614,0-.897.696-1.679,1.593-1.679.868,0,1.585.761,1.585,1.679,0,.911-.725,1.614-1.592,1.614Zm.839-.71c.158-.316.158-.703.158-.962,0-.273,0-.688-.187-.997-.187-.308-.495-.466-.811-.466-.287,0-.624.15-.818.48-.172.317-.172.703-.172.983,0,.259,0,.696.179,1.012.194.33.509.48.818.48.359,0,.674-.207.832-.53Z"/>
    <path d="m36.202,51.698c.308,0,.531.208.531.437s-.179.316-.309.316c-.158,0-.308-.108-.308-.309,0-.186.143-.273.165-.28-.014-.007-.028-.007-.079-.007-.545,0-.847.638-.847,1.349v1.105c0,.258.014.337.545.337h.15v.223c-.287-.022-.624-.022-.911-.022-.201,0-.538.015-.818.022v-.223c.481,0,.56,0,.56-.323v-1.922c0-.352-.057-.402-.56-.402v-.222l.997-.079v.789c.101-.308.359-.789.882-.789Z"/>
    <path d="m41.423,54.303c0,.265.022.344.667.344h.229v.223c-.251-.022-.875-.022-1.162-.022s-.911,0-1.162.022v-.223h.23c.645,0,.667-.086.667-.344v-3.717c-.373.187-.796.187-.94.187v-.223c.229,0,.861,0,1.306-.459.165,0,.165.014.165.187v4.025Z"/>
  </g>
  <circle class="cls-3" cx="62.317" cy="89.901" r="9.524" transform="translate(-34.539 140.74) rotate(-82.966)"/>
  <path class="cls-2" d="m67.242,88.85s-1.502,1.987-2.266,2.103c-.93.142-2.546-1.058-2.546-1.058,0,0-2.345-1.184-2.837-1.045-.712.201-2.084,2.103-2.084,2.103"/>
  <line class="cls-1" x1="148.391" y1="44.903" x2="151.49" y2="44.903"/>
  <polyline class="cls-1" points="113.143 52.554 113.143 44.904 128.168 44.903"/>
  <polyline class="cls-3" points="113.144 72.777 113.145 75.116 113.145 90.083 115.438 90.083"/>
  <g>
    <path d="m46.453,107.511c-1.362,0-2.509-1.14-2.509-2.61s1.161-2.602,2.495-2.602c.71,0,1.097.387,1.326.617l.359-.531c.057-.086.086-.086.115-.086.079,0,.079.05.079.172v1.699c0,.151,0,.172-.115.172-.1,0-.1-.022-.115-.122-.143-1.054-.796-1.699-1.563-1.699-.43,0-1.842.237-1.842,2.38s1.419,2.387,1.885,2.387c.201,0,1.111-.065,1.111-.868v-.459c0-.265-.022-.344-.667-.344h-.229v-.222c.258.022.867.022,1.154.022.215,0,.609-.014.874-.022v.222c-.466,0-.495.036-.495.316v1.247c0,.107,0,.165-.064.165-.079,0-.366-.287-.459-.445-.243.423-.817.61-1.34.61Z"/>
    <path d="m50.177,106.772c.165.265.452.48.81.48.072,0,.717,0,.968-.739.014-.057.029-.1.093-.1.036,0,.093.015.093.086,0,.136-.323.932-1.197.932-.824,0-1.577-.695-1.577-1.656,0-.896.66-1.634,1.491-1.634.896,0,1.283.695,1.283,1.405,0,.151-.022.151-.179.151h-2c0,.258,0,.731.215,1.075Zm1.491-1.226c0-.28-.072-1.247-.81-1.247-.244,0-.846.179-.889,1.247h1.699Z"/>
    <path d="m52.581,104.485v-.222l1.011-.079v.753c.201-.445.537-.753,1.061-.753.416,0,.653.143.753.265.222.258.222.48.222,1.097v1.369c.007.215.186.215.559.215v.222c-.243-.007-.616-.022-.803-.022-.193,0-.559.015-.81.022v-.222c.48,0,.559,0,.559-.323v-1.67c0-.408-.079-.795-.53-.795-.459,0-.968.401-.968,1.147v1.319c0,.323.079.323.559.323v.222c-.243-.007-.616-.022-.803-.022-.193,0-.559.015-.81.022v-.222c.48,0,.559,0,.559-.323v-1.921c0-.352-.057-.402-.559-.402Z"/>
    <path d="m57.343,106.772c.165.265.452.48.81.48.072,0,.717,0,.968-.739.014-.057.029-.1.093-.1.036,0,.093.015.093.086,0,.136-.323.932-1.197.932-.824,0-1.577-.695-1.577-1.656,0-.896.66-1.634,1.491-1.634.896,0,1.283.695,1.283,1.405,0,.151-.022.151-.179.151h-2c0,.258,0,.731.215,1.075Zm1.491-1.226c0-.28-.072-1.247-.81-1.247-.244,0-.846.179-.889,1.247h1.699Z"/>
    <path d="m61.596,104.184c.308,0,.53.208.53.437s-.179.315-.308.315c-.158,0-.308-.108-.308-.308,0-.186.143-.272.165-.279-.015-.007-.029-.007-.079-.007-.545,0-.846.638-.846,1.347v1.104c0,.258.014.337.545.337h.151v.222c-.286-.022-.623-.022-.91-.022-.2,0-.537.015-.817.022v-.222c.48,0,.559,0,.559-.323v-1.921c0-.352-.057-.402-.559-.402v-.222l.996-.079v.788c.101-.308.359-.788.882-.788Z"/>
    <path d="m63.77,107.432c-.452,0-1.147-.179-1.147-.76,0-.315.179-.688.717-.932.452-.215.954-.237,1.319-.258v-.265c0-.638-.409-.918-.76-.918-.229,0-.581.079-.774.33.33.007.366.244.366.33,0,.186-.129.33-.33.33-.187,0-.33-.122-.33-.337,0-.473.495-.81,1.082-.81.344,0,.703.115.982.394.258.265.258.545.258.846v1.434c0,.035.029.358.265.358.079,0,.258-.043.258-.459v-.401h.179v.401c0,.581-.437.681-.588.681-.337,0-.53-.301-.559-.588-.136.337-.466.624-.939.624Zm-.595-.767c0,.359.294.61.645.61.323,0,.839-.244.839-.925v-.717c-1.183.043-1.484.638-1.484,1.032Z"/>
    <path d="m67.148,106.478c0,.122,0,.774.48.774.265,0,.48-.272.48-.803v-.395h.179v.409c0,.459-.201.968-.71.968-.258,0-.925-.086-.925-.968v-1.978h-.609v-.158c.703-.029.918-.796.925-1.383h.179v1.319h1.025v.222h-1.025v1.993Z"/>
    <path d="m70.476,107.432c-.839,0-1.584-.688-1.584-1.613,0-.896.695-1.677,1.591-1.677.867,0,1.584.76,1.584,1.677,0,.91-.724,1.613-1.591,1.613Zm.838-.709c.158-.316.158-.703.158-.961,0-.272,0-.688-.186-.997-.186-.308-.494-.466-.81-.466-.287,0-.623.15-.817.48-.172.316-.172.702-.172.982,0,.258,0,.695.179,1.011.193.33.509.48.817.48.359,0,.674-.208.831-.53Z"/>
    <path d="m74.357,104.184c.308,0,.53.208.53.437s-.179.315-.309.315c-.158,0-.308-.108-.308-.308,0-.186.143-.272.165-.279-.014-.007-.029-.007-.079-.007-.545,0-.846.638-.846,1.347v1.104c0,.258.014.337.544.337h.151v.222c-.286-.022-.624-.022-.911-.022-.2,0-.537.015-.817.022v-.222c.48,0,.559,0,.559-.323v-1.921c0-.352-.057-.402-.559-.402v-.222l.996-.079v.788c.101-.308.359-.788.882-.788Z"/>
    <path d="m79.672,106.801c.158,0,.631,0,.681-.058.072-.107.122-.423.157-.638h.179l-.2,1.247h-2.66c0-.172,0-.186.079-.266l1.376-1.534c.394-.445.753-1.011.753-1.584,0-.588-.308-1.169-.961-1.169-.416,0-.803.265-.968.731.021-.007.036-.007.093-.007.251,0,.38.186.38.373,0,.294-.25.38-.373.38-.021,0-.38,0-.38-.402,0-.638.53-1.297,1.34-1.297.875,0,1.52.573,1.52,1.391,0,.717-.43,1.104-1.548,2.093l-.76.738h1.29Z"/>
  </g>
  <polygon class="cls-12" points="137.151 86.378 138.724 90.081 137.15 93.784 145.929 90.083 137.151 86.378"/>
  <g>
    <path d="m127.098,76.807c0,.674-.645,1.313-1.6,1.313h-2.812v-.223h.172c.553,0,.567-.079.567-.337v-3.781c0-.258-.014-.338-.567-.338h-.172v-.222h2.625c.933,0,1.593.589,1.593,1.212,0,.531-.495.99-1.191,1.127.796.086,1.384.624,1.384,1.249Zm-2.037-1.314c.796,0,1.148-.602,1.148-1.062,0-.38-.251-.99-.947-.99h-.889c-.337,0-.351.051-.351.287v1.765h1.04Zm1.32,1.306c0-.48-.301-1.147-1.011-1.147h-1.349v1.958c0,.237.014.287.351.287h.897c.739,0,1.112-.588,1.112-1.097Z"/>
    <path d="m129.386,78.199c-1.09,0-1.09-.653-1.09-1.212v-1.076c0-.639,0-.659-.56-.659v-.223l1.055-.079v2.381c0,.373.028.711.631.711.524,0,.868-.488.868-1.112v-1.277c0-.352-.058-.401-.56-.401v-.223l1.055-.079v2.547c0,.352.057.401.559.401v.223l-1.033.079v-.646c-.208.444-.524.646-.926.646Z"/>
    <path d="m132.032,76.398c-.194-.157-.309-.359-.309-.61,0-.402.273-.882,1.148-.882.108,0,.402,0,.675.2.028-.021.1-.086.122-.115.093-.086.107-.086.143-.086.079,0,.079.05.079.172v.724c0,.136,0,.172-.093.172-.014,0-.079,0-.086-.065-.014-.222-.05-.868-.84-.868-.617,0-.803.294-.803.545,0,.416.481.509.883.588.301.057.581.115.818.344.086.086.301.302.301.682,0,.516-.33.997-1.155.997-.151,0-.474-.007-.789-.309-.129.136-.129.151-.143.165-.136.136-.143.143-.179.143-.079,0-.079-.05-.079-.172v-.947c0-.129,0-.179.094-.179.072,0,.079.029.1.122.136.61.395,1.019.997,1.019.56,0,.811-.287.811-.653,0-.517-.588-.631-.746-.66-.516-.1-.717-.143-.947-.33Z"/>
    <path d="m138.905,77.567c.158,0,.631,0,.681-.058.072-.108.122-.423.158-.638h.179l-.201,1.249h-2.662c0-.172,0-.187.079-.266l1.377-1.535c.394-.445.753-1.012.753-1.586,0-.588-.308-1.169-.961-1.169-.416,0-.804.265-.968.731.021-.007.036-.007.093-.007.251,0,.38.187.38.373,0,.294-.251.38-.373.38-.021,0-.38,0-.38-.402,0-.639.531-1.299,1.342-1.299.875,0,1.521.574,1.521,1.392,0,.717-.43,1.105-1.549,2.095l-.76.739h1.291Z"/>
  </g>
  <g>
    <path d="m147.223,18.742c0,.675-.645,1.313-1.6,1.313h-2.812v-.223h.172c.553,0,.567-.079.567-.337v-3.781c0-.257-.014-.337-.567-.337h-.172v-.222h2.625c.933,0,1.593.588,1.593,1.212,0,.531-.495.99-1.191,1.126.796.086,1.384.624,1.384,1.248Zm-2.037-1.313c.796,0,1.148-.602,1.148-1.062,0-.38-.251-.99-.947-.99h-.889c-.337,0-.351.05-.351.287v1.765h1.04Zm1.32,1.306c0-.481-.301-1.147-1.011-1.147h-1.349v1.958c0,.237.014.287.351.287h.897c.739,0,1.112-.588,1.112-1.098Z"/>
    <path d="m149.51,20.134c-1.09,0-1.09-.653-1.09-1.212v-1.077c0-.638,0-.66-.56-.66v-.222l1.055-.079v2.381c0,.373.028.711.631.711.524,0,.868-.488.868-1.112v-1.277c0-.352-.058-.402-.56-.402v-.222l1.055-.079v2.547c0,.351.057.401.559.401v.223l-1.033.079v-.646c-.208.444-.524.646-.926.646Z"/>
    <path d="m152.157,18.333c-.194-.158-.309-.359-.309-.609,0-.402.273-.883,1.148-.883.108,0,.402,0,.675.201.028-.021.1-.086.122-.115.093-.086.108-.086.143-.086.079,0,.079.051.079.173v.724c0,.136,0,.172-.093.172-.014,0-.079,0-.086-.065-.014-.223-.05-.868-.84-.868-.617,0-.803.294-.803.546,0,.416.481.509.882.588.301.058.581.115.818.345.086.086.301.301.301.682,0,.516-.33.997-1.155.997-.151,0-.473-.007-.789-.309-.129.136-.129.151-.143.165-.136.136-.143.144-.179.144-.079,0-.079-.051-.079-.172v-.947c0-.13,0-.179.094-.179.072,0,.079.029.1.122.136.61.395,1.02.997,1.02.56,0,.811-.288.811-.653,0-.517-.589-.631-.746-.66-.516-.1-.717-.143-.947-.331Z"/>
    <path d="m160.105,18.829c0,.732-.653,1.384-1.528,1.384-.782,0-1.449-.474-1.449-1.126,0-.316.23-.416.402-.416.208,0,.402.144.402.402,0,.273-.223.43-.474.394.251.423.789.545,1.098.545.316,0,.811-.208.811-1.183,0-.703-.265-1.191-.854-1.191h-.315c-.122,0-.172,0-.172-.079,0-.072.05-.079.108-.086.05,0,.223-.014.28-.021.179-.007.423-.029.638-.373.187-.316.201-.732.201-.818,0-.645-.394-.803-.689-.803-.258,0-.732.093-.954.444.108,0,.445,0,.445.359,0,.208-.143.366-.366.366-.208,0-.366-.136-.366-.373,0-.546.545-.976,1.27-.976.689,0,1.32.402,1.32.99,0,.567-.416,1.069-1.004,1.263.746.15,1.198.71,1.198,1.299Z"/>
  </g>
  <text class="cls-11" transform="translate(63.593 28.049)"><tspan x="0" y="0">34.60</tspan></text>
  <g>
    <line class="cls-4" x1="63.593" y1="29.937" x2="79.822" y2="29.937"/>
    <polygon class="cls-10" points="78.486 31.847 79.3 29.937 78.486 28.026 83.016 29.936 78.486 31.847"/>
  </g>
  <g>
    <line class="cls-4" x1="128.568" y1="29.937" x2="144.798" y2="29.937"/>
    <polygon class="cls-10" points="143.462 31.847 144.275 29.937 143.462 28.026 147.991 29.937 143.462 31.847"/>
  </g>
  <text class="cls-11" transform="translate(128.568 28.049)"><tspan x="0" y="0">34.60</tspan></text>
  <text class="cls-11" transform="translate(63.687 43.016)"><tspan x="0" y="0">18.30</tspan></text>
  <g>
    <line class="cls-4" x1="63.686" y1="44.904" x2="79.918" y2="44.904"/>
    <polygon class="cls-10" points="78.582 46.813 79.396 44.904 78.582 42.993 83.112 44.904 78.582 46.813"/>
  </g>
  <g>
    <line class="cls-4" x1="98.241" y1="52.954" x2="98.24" y2="69.183"/>
    <polygon class="cls-10" points="96.331 67.847 98.24 68.661 100.151 67.847 98.24 72.377 96.331 67.847"/>
  </g>
  <text class="cls-11" transform="translate(82.606 63.799)"><tspan x="0" y="0">18.30</tspan></text>
  <g>
    <line class="cls-4" x1="113.142" y1="72.377" x2="113.142" y2="56.147"/>
    <polygon class="cls-10" points="111.233 57.483 113.142 56.67 115.053 57.483 113.142 52.954 111.233 57.483"/>
  </g>
  <text class="cls-11" transform="translate(115.174 63.799)"><tspan x="0" y="0">16.30</tspan></text>
  <g>
    <line class="cls-4" x1="128.568" y1="44.904" x2="144.798" y2="44.904"/>
    <polygon class="cls-10" points="143.462 46.813 144.275 44.904 143.462 42.993 147.991 44.904 143.462 46.813"/>
  </g>
  <text class="cls-11" transform="translate(128.568 43.016)"><tspan x="0" y="0">16.30</tspan></text>
  <text class="cls-11" transform="translate(155.054 27.891)"><tspan x="0" y="0">50.80</tspan></text>
  <g>
    <line class="cls-4" x1="155.138" y1="29.937" x2="171.284" y2="29.937"/>
    <polygon class="cls-10" points="169.948 31.847 170.761 29.937 169.948 28.026 174.477 29.936 169.948 31.847"/>
  </g>
  <text class="cls-11" transform="translate(204.576 27.891)"><tspan x="0" y="0">50.80</tspan></text>
  <g>
    <line class="cls-4" x1="204.634" y1="29.937" x2="220.806" y2="29.937"/>
    <polygon class="cls-10" points="219.47 31.847 220.283 29.937 219.47 28.026 223.999 29.936 219.47 31.847"/>
  </g>
  <line class="cls-5" x1="202.023" y1="29.936" x2="204.234" y2="29.936"/>
  <line class="cls-3" x1="56.682" y1="37.578" x2="59.176" y2="37.578"/>
  <line class="cls-3" x1="33.814" y1="37.578" x2="36.46" y2="37.578"/>
  <text class="cls-11" transform="translate(36.86 35.691)"><tspan x="0" y="0">52.90</tspan></text>
  <g>
    <line class="cls-4" x1="36.86" y1="37.579" x2="53.089" y2="37.579"/>
    <polygon class="cls-10" points="51.753 39.488 52.567 37.579 51.753 35.668 56.283 37.578 51.753 39.488"/>
  </g>
  <polyline class="cls-1" points="95.06 90.083 98.24 90.083 98.24 75.116 98.241 72.777"/>
  <line class="cls-3" x1="72.191" y1="90.083" x2="74.837" y2="90.083"/>
  <text class="cls-11" transform="translate(75.237 88.196)"><tspan x="0" y="0">18.20</tspan></text>
  <g>
    <line class="cls-4" x1="75.237" y1="90.084" x2="91.467" y2="90.084"/>
    <polygon class="cls-10" points="90.131 91.993 90.944 90.084 90.131 88.173 94.66 90.083 90.131 91.993"/>
  </g>
  <text class="cls-11" transform="translate(115.737 88.196)"><tspan x="0" y="0">20.20</tspan></text>
  <line class="cls-1" x1="135.66" y1="90.083" x2="138.84" y2="90.083"/>
  <g>
    <line class="cls-4" x1="115.837" y1="90.084" x2="132.067" y2="90.084"/>
    <polygon class="cls-10" points="130.731 91.993 131.544 90.084 130.731 88.173 135.26 90.083 130.731 91.993"/>
  </g>
  <line class="cls-3" x1="228.5" y1="29.936" x2="230.793" y2="29.936"/>
  <polygon class="cls-12" points="252.506 26.231 254.079 29.934 252.505 33.637 261.284 29.936 252.506 26.231"/>
  <text class="cls-11" transform="translate(231.092 28.049)"><tspan x="0" y="0">50.80</tspan></text>
  <line class="cls-1" x1="251.015" y1="29.936" x2="254.195" y2="29.936"/>
  <g>
    <line class="cls-4" x1="231.192" y1="29.937" x2="247.422" y2="29.937"/>
    <polygon class="cls-10" points="246.086 31.846 246.899 29.937 246.086 28.026 250.615 29.936 246.086 31.846"/>
  </g>
  <g>
    <line class="cls-1" x1="178.001" y1="44.402" x2="178.001" y2="59.404"/>
    <path class="cls-1" d="m185.359,66.825c0-3.915-3.174-7.087-7.087-7.087s-7.087,3.172-7.087,7.087,3.172,7.087,7.087,7.087,7.087-3.174,7.087-7.087Z"/>
    <path class="cls-7" d="m183.232,66.825c0-2.74-2.221-4.96-4.96-4.96s-4.96,2.22-4.96,4.96,2.221,4.96,4.96,4.96,4.96-2.222,4.96-4.96Z"/>
    <path class="cls-12" d="m179.81,69.221c-.243.121-.73.243-1.352.243-1.443,0-2.529-.912-2.529-2.59,0-1.603,1.087-2.689,2.674-2.689.638,0,1.041.137,1.215.228l-.16.539c-.25-.121-.607-.213-1.033-.213-1.2,0-1.997.767-1.997,2.111,0,1.253.721,2.059,1.967,2.059.403,0,.813-.083,1.079-.213l.137.524Z"/>
    <line class="cls-3" x1="152.394" y1="44.903" x2="155.039" y2="44.903"/>
    <text class="cls-11" transform="translate(155.439 43.016)"><tspan x="0" y="0">0.10</tspan></text>
    <g>
      <line class="cls-4" x1="155.439" y1="44.904" x2="171.669" y2="44.904"/>
      <polygon class="cls-10" points="170.333 46.813 171.146 44.904 170.333 42.993 174.862 44.903 170.333 46.813"/>
    </g>
    <line class="cls-5" x1="175.243" y1="44.902" x2="177.577" y2="44.902"/>
  </g>
</svg>