<?xml version="1.0" encoding="UTF-8"?>
<svg id="Layer_1" data-name="Layer 1" xmlns="http://www.w3.org/2000/svg" viewBox="0 0 249.08 108.367">
  <defs>
    <style>
      .cls-1, .cls-2, .cls-3, .cls-4, .cls-5, .cls-6, .cls-7, .cls-8 {
        stroke-miterlimit: 10;
      }

      .cls-1, .cls-2, .cls-5, .cls-6, .cls-7, .cls-8 {
        fill: none;
      }

      .cls-1, .cls-3, .cls-7, .cls-9 {
        stroke: #231f20;
      }

      .cls-2 {
        stroke: #000;
      }

      .cls-3, .cls-9 {
        fill: #fff;
      }

      .cls-4 {
        stroke: #be1e2d;
      }

      .cls-4, .cls-10 {
        fill: #be1e2d;
      }

      .cls-5, .cls-8 {
        stroke: #010101;
      }

      .cls-6 {
        stroke: #ed1c24;
      }

      .cls-7 {
        stroke-width: .7px;
      }

      .cls-11 {
        font-family: CMR10, 'CM R 10';
        font-size: 6px;
      }

      .cls-11, .cls-12 {
        fill: #231f20;
      }

      .cls-8 {
        stroke-width: 1.9px;
      }

      .cls-9 {
        stroke-miterlimit: 2;
        stroke-width: .561px;
      }
    </style>
  </defs>
  <rect class="cls-9" x=".28" y=".28" width="248.519" height="107.807" rx="4" ry="4"/>
  <g>
    <line class="cls-5" x1="163.784" y1="31.08" x2="167.494" y2="31.08"/>
    <line class="cls-3" x1="137.296" y1="31.08" x2="140.396" y2="31.08"/>
    <line class="cls-3" x1="72.321" y1="31.08" x2="117.074" y2="31.08"/>
    <line class="cls-3" x1="49.452" y1="31.08" x2="52.098" y2="31.08"/>
    <line class="cls-8" x1="48.934" y1="23.596" x2="48.934" y2="53.53"/>
    <line class="cls-1" x1="52.192" y1="46.047" x2="48.798" y2="46.047"/>
    <polyline class="cls-1" points="87.146 53.697 87.146 46.047 72.417 46.047"/>
    <line class="cls-8" x1="79.662" y1="76.813" x2="109.596" y2="76.813"/>
    <line class="cls-8" x1="140.392" y1="23.596" x2="140.392" y2="53.53"/>
    <line class="cls-5" x1="141.3" y1="31.08" x2="143.634" y2="31.08"/>
    <line class="cls-5" x1="216.305" y1="31.079" x2="220.5" y2="31.08"/>
    <g>
      <path d="m44.835,19.965c0,.674-.645,1.313-1.599,1.313h-2.812v-.222h.172c.553,0,.567-.079.567-.337v-3.781c0-.258-.014-.337-.567-.337h-.172v-.222h2.625c.933,0,1.593.588,1.593,1.212,0,.531-.495.99-1.191,1.126.796.086,1.384.624,1.384,1.248Zm-2.037-1.313c.796,0,1.148-.603,1.148-1.062,0-.38-.251-.99-.947-.99h-.89c-.337,0-.351.05-.351.287v1.765h1.04Zm1.32,1.306c0-.481-.301-1.148-1.011-1.148h-1.349v1.959c0,.237.014.287.351.287h.897c.739,0,1.112-.589,1.112-1.098Z"/>
      <path d="m47.123,21.356c-1.09,0-1.09-.653-1.09-1.212v-1.076c0-.638,0-.66-.56-.66v-.222l1.055-.08v2.382c0,.373.028.71.631.71.524,0,.868-.488.868-1.112v-1.278c0-.352-.058-.401-.56-.401v-.222l1.055-.08v2.547c0,.352.057.401.559.401v.222l-1.033.079v-.645c-.208.445-.524.645-.925.645Z"/>
      <path d="m49.77,19.556c-.194-.157-.309-.359-.309-.61,0-.401.273-.882,1.148-.882.108,0,.402,0,.675.201.028-.022.1-.087.122-.115.093-.086.108-.086.144-.086.079,0,.079.051.079.172v.725c0,.136,0,.172-.093.172-.014,0-.079,0-.086-.065-.014-.223-.05-.868-.839-.868-.617,0-.803.294-.803.546,0,.415.481.509.882.588.301.058.581.115.818.345.086.086.301.301.301.681,0,.517-.33.997-1.155.997-.151,0-.474-.007-.789-.308-.129.136-.129.15-.143.165-.136.137-.143.144-.179.144-.079,0-.079-.05-.079-.172v-.947c0-.129,0-.179.093-.179.072,0,.079.029.1.122.136.61.395,1.019.997,1.019.56,0,.811-.287.811-.652,0-.517-.588-.631-.746-.66-.516-.101-.717-.144-.947-.331Z"/>
      <path d="m56.548,20.711c0,.266.022.344.667.344h.23v.222c-.251-.021-.875-.021-1.162-.021s-.911,0-1.162.021v-.222h.229c.645,0,.667-.086.667-.344v-3.716c-.373.186-.796.186-.94.186v-.222c.23,0,.861,0,1.306-.459.165,0,.165.014.165.186v4.025Z"/>
    </g>
    <line class="cls-1" x1="137.296" y1="46.047" x2="140.396" y2="46.047"/>
    <polyline class="cls-1" points="102.048 53.697 102.048 46.047 117.074 46.047"/>
    <line class="cls-1" x1="161.307" y1="45.547" x2="161.307" y2="60.549"/>
    <path class="cls-1" d="m168.665,67.969c0-3.915-3.174-7.087-7.087-7.087s-7.087,3.172-7.087,7.087,3.172,7.087,7.087,7.087,7.087-3.174,7.087-7.087Z"/>
    <path class="cls-7" d="m166.538,67.969c0-2.74-2.221-4.96-4.96-4.96s-4.96,2.22-4.96,4.96,2.221,4.96,4.96,4.96,4.96-2.222,4.96-4.96Z"/>
    <path class="cls-12" d="m163.116,70.365c-.243.121-.73.243-1.352.243-1.443,0-2.529-.912-2.529-2.59,0-1.603,1.087-2.689,2.674-2.689.638,0,1.041.137,1.215.228l-.16.539c-.25-.121-.607-.213-1.033-.213-1.2,0-1.997.767-1.997,2.112,0,1.253.721,2.058,1.967,2.058.403,0,.813-.083,1.079-.213l.137.524Z"/>
    <g>
      <path d="m116.003,77.95c0,.674-.645,1.313-1.6,1.313h-2.812v-.223h.172c.553,0,.567-.079.567-.337v-3.781c0-.258-.014-.338-.567-.338h-.172v-.222h2.625c.933,0,1.593.589,1.593,1.212,0,.531-.495.99-1.191,1.127.796.086,1.384.624,1.384,1.249Zm-2.037-1.314c.796,0,1.148-.603,1.148-1.062,0-.38-.251-.99-.947-.99h-.889c-.337,0-.351.051-.351.287v1.765h1.04Zm1.32,1.306c0-.48-.301-1.148-1.011-1.148h-1.349v1.958c0,.237.014.287.351.287h.897c.739,0,1.112-.588,1.112-1.097Z"/>
      <path d="m118.291,79.342c-1.09,0-1.09-.653-1.09-1.212v-1.076c0-.639,0-.66-.56-.66v-.223l1.055-.079v2.381c0,.373.028.711.631.711.524,0,.868-.488.868-1.112v-1.277c0-.352-.058-.401-.56-.401v-.223l1.055-.079v2.547c0,.352.057.401.559.401v.223l-1.033.079v-.646c-.208.444-.524.646-.926.646Z"/>
      <path d="m120.938,77.541c-.194-.157-.309-.359-.309-.61,0-.402.273-.882,1.148-.882.108,0,.402,0,.675.2.028-.021.1-.086.122-.115.093-.086.107-.086.143-.086.079,0,.079.05.079.172v.724c0,.136,0,.172-.093.172-.014,0-.079,0-.086-.065-.014-.222-.05-.868-.84-.868-.617,0-.803.294-.803.545,0,.416.481.509.883.588.301.057.581.115.818.344.086.087.301.302.301.682,0,.516-.33.997-1.155.997-.151,0-.474-.007-.789-.309-.129.136-.129.151-.143.165-.136.136-.143.143-.179.143-.079,0-.079-.05-.079-.172v-.947c0-.129,0-.179.094-.179.072,0,.079.029.1.122.136.61.395,1.019.997,1.019.56,0,.811-.287.811-.653,0-.517-.588-.632-.746-.66-.516-.1-.717-.143-.947-.33Z"/>
      <path d="m127.81,78.711c.158,0,.631,0,.681-.058.072-.108.122-.423.158-.638h.179l-.201,1.249h-2.662c0-.172,0-.187.079-.266l1.377-1.535c.394-.445.753-1.012.753-1.585,0-.588-.308-1.169-.961-1.169-.416,0-.804.265-.968.731.021-.007.036-.007.093-.007.251,0,.38.187.38.373,0,.294-.251.38-.373.38-.021,0-.38,0-.38-.402,0-.638.531-1.299,1.342-1.299.875,0,1.521.575,1.521,1.392,0,.717-.43,1.105-1.549,2.095l-.76.739h1.291Z"/>
    </g>
    <g>
      <path d="m136.128,19.885c0,.675-.645,1.313-1.6,1.313h-2.812v-.223h.172c.553,0,.567-.079.567-.337v-3.781c0-.257-.014-.337-.567-.337h-.172v-.222h2.625c.933,0,1.593.588,1.593,1.212,0,.531-.495.99-1.191,1.126.796.086,1.384.624,1.384,1.248Zm-2.037-1.313c.796,0,1.148-.603,1.148-1.062,0-.38-.251-.99-.947-.99h-.889c-.337,0-.351.05-.351.287v1.765h1.04Zm1.32,1.306c0-.481-.301-1.148-1.011-1.148h-1.349v1.958c0,.237.014.287.351.287h.897c.739,0,1.112-.588,1.112-1.098Z"/>
      <path d="m138.416,21.278c-1.09,0-1.09-.653-1.09-1.212v-1.076c0-.639,0-.66-.56-.66v-.222l1.055-.079v2.381c0,.373.028.711.631.711.524,0,.868-.488.868-1.112v-1.277c0-.352-.058-.402-.56-.402v-.222l1.055-.079v2.547c0,.352.057.401.559.401v.223l-1.033.079v-.645c-.208.444-.524.645-.926.645Z"/>
      <path d="m141.062,19.476c-.194-.157-.309-.359-.309-.609,0-.402.273-.883,1.148-.883.108,0,.402,0,.675.201.028-.021.1-.086.122-.115.093-.086.108-.086.143-.086.079,0,.079.051.079.173v.724c0,.136,0,.172-.093.172-.014,0-.079,0-.086-.065-.014-.223-.05-.868-.84-.868-.617,0-.803.294-.803.546,0,.416.481.509.882.588.301.058.581.115.818.345.086.086.301.301.301.682,0,.516-.33.997-1.155.997-.151,0-.473-.007-.789-.309-.129.136-.129.151-.143.165-.136.136-.143.144-.179.144-.079,0-.079-.051-.079-.172v-.947c0-.129,0-.179.094-.179.072,0,.079.029.1.122.136.61.395,1.02.997,1.02.56,0,.811-.288.811-.653,0-.517-.589-.631-.746-.66-.516-.1-.717-.143-.947-.331Z"/>
      <path d="m149.011,19.972c0,.732-.653,1.384-1.528,1.384-.782,0-1.449-.474-1.449-1.126,0-.316.23-.416.402-.416.208,0,.402.144.402.402,0,.273-.223.43-.474.394.251.423.789.545,1.098.545.316,0,.811-.208.811-1.183,0-.703-.265-1.191-.854-1.191h-.315c-.122,0-.172,0-.172-.079,0-.072.05-.079.108-.086.05,0,.223-.014.28-.021.179-.007.423-.029.638-.373.187-.316.201-.732.201-.818,0-.646-.394-.803-.689-.803-.258,0-.732.093-.954.444.108,0,.445,0,.445.359,0,.208-.143.366-.366.366-.208,0-.366-.136-.366-.373,0-.546.545-.976,1.27-.976.689,0,1.32.402,1.32.99,0,.567-.416,1.069-1.004,1.263.746.15,1.198.71,1.198,1.299Z"/>
    </g>
    <text class="cls-11" transform="translate(52.498 29.193)"><tspan x="0" y="0">28.90</tspan></text>
    <g>
      <line class="cls-4" x1="52.498" y1="31.081" x2="68.728" y2="31.081"/>
      <polygon class="cls-10" points="67.392 32.99 68.205 31.081 67.392 29.17 71.921 31.08 67.392 32.99"/>
    </g>
    <g>
      <line class="cls-4" x1="117.473" y1="31.081" x2="133.703" y2="31.081"/>
      <polygon class="cls-10" points="132.367 32.99 133.18 31.081 132.367 29.17 136.896 31.081 132.367 32.99"/>
    </g>
    <text class="cls-11" transform="translate(117.473 29.192)"><tspan x="0" y="0">28.90</tspan></text>
    <text class="cls-11" transform="translate(52.593 44.159)"><tspan x="0" y="0">15.70</tspan></text>
    <g>
      <line class="cls-4" x1="52.592" y1="46.048" x2="68.824" y2="46.048"/>
      <polygon class="cls-10" points="67.488 47.957 68.301 46.048 67.488 44.136 72.017 46.048 67.488 47.957"/>
    </g>
    <g>
      <line class="cls-4" x1="87.146" y1="54.097" x2="87.145" y2="70.326"/>
      <polygon class="cls-10" points="85.236 68.99 87.145 69.804 89.056 68.99 87.145 73.52 85.236 68.99"/>
    </g>
    <text class="cls-11" transform="translate(71.511 64.942)"><tspan x="0" y="0">15.70</tspan></text>
    <g>
      <line class="cls-4" x1="102.048" y1="73.52" x2="102.047" y2="57.291"/>
      <polygon class="cls-10" points="100.138 58.627 102.047 57.813 103.958 58.627 102.047 54.097 100.138 58.627"/>
    </g>
    <text class="cls-11" transform="translate(104.079 64.942)"><tspan x="0" y="0">13.20</tspan></text>
    <g>
      <line class="cls-4" x1="117.473" y1="46.048" x2="133.703" y2="46.048"/>
      <polygon class="cls-10" points="132.367 47.957 133.181 46.048 132.367 44.136 136.896 46.048 132.367 47.957"/>
    </g>
    <text class="cls-11" transform="translate(117.473 44.159)"><tspan x="0" y="0">13.20</tspan></text>
    <text class="cls-11" transform="translate(143.96 29.034)"><tspan x="0" y="0">42.00</tspan></text>
    <g>
      <line class="cls-4" x1="144.043" y1="31.081" x2="160.189" y2="31.081"/>
      <polygon class="cls-10" points="158.853 32.99 159.667 31.081 158.853 29.17 163.383 31.08 158.853 32.99"/>
    </g>
    <text class="cls-11" transform="translate(196.481 29.034)"><tspan x="0" y="0">42.00</tspan></text>
    <g>
      <line class="cls-4" x1="196.54" y1="31.081" x2="212.711" y2="31.081"/>
      <polygon class="cls-10" points="211.375 32.99 212.189 31.081 211.375 29.17 215.904 31.08 211.375 32.99"/>
    </g>
    <line class="cls-5" x1="192.628" y1="31.08" x2="196.14" y2="31.08"/>
    <circle class="cls-3" cx="18.459" cy="38.563" r="9.524" transform="translate(-5.956 3.467) rotate(-9.245)"/>
    <path class="cls-2" d="m23.268,37.512s-1.502,1.987-2.266,2.103c-.93.142-2.546-1.058-2.546-1.058,0,0-2.345-1.184-2.837-1.045-.712.202-2.084,2.103-2.084,2.103"/>
    <polyline class="cls-3" points="28.219 38.722 30.289 38.722 46.111 38.721 48.062 38.721"/>
    <circle class="cls-3" cx="57.522" cy="91.045" r="9.524" transform="translate(-39.882 136.984) rotate(-82.966)"/>
    <path class="cls-2" d="m62.447,89.993s-1.502,1.987-2.266,2.103c-.93.142-2.546-1.058-2.546-1.058,0,0-2.345-1.184-2.837-1.045-.712.201-2.084,2.103-2.084,2.103"/>
    <polyline class="cls-1" points="67.304 91.226 69.319 91.226 84.723 91.226 87.146 91.226 87.146 76.259 87.146 73.92"/>
    <g>
      <polyline class="cls-1" points="117.413 91.225 115.709 91.225 103.437 91.226 102.049 91.226 102.049 76.259 102.048 73.92"/>
      <polygon class="cls-12" points="115.307 88.447 116.487 91.225 115.306 94.002 121.891 91.226 115.307 88.447"/>
    </g>
    <polyline class="cls-5" points="141.041 46.048 143.125 46.048 159.044 46.047 160.883 46.047"/>
    <g>
      <polyline class="cls-1" points="235.667 31.079 233.929 31.079 221.69 31.079 220.302 31.079"/>
      <polygon class="cls-12" points="233.561 28.302 234.741 31.079 233.561 33.857 240.145 31.079 233.561 28.302"/>
    </g>
    <line class="cls-8" x1="219.485" y1="16.113" x2="219.485" y2="46.046"/>
    <g>
      <circle class="cls-6" cx="176.179" cy="31.079" r="8.504"/>
      <circle class="cls-5" cx="183.756" cy="31.079" r="8.504"/>
    </g>
    <g>
      <path d="m215.199,12.286c0,.674-.645,1.313-1.599,1.313h-2.812v-.223h.172c.553,0,.567-.079.567-.337v-3.781c0-.258-.014-.337-.567-.337h-.172v-.222h2.625c.933,0,1.593.588,1.593,1.212,0,.531-.495.99-1.19,1.127.796.086,1.384.624,1.384,1.249Zm-2.038-1.314c.797,0,1.148-.603,1.148-1.062,0-.38-.251-.99-.947-.99h-.889c-.337,0-.351.051-.351.287v1.765h1.04Zm1.32,1.306c0-.48-.302-1.148-1.012-1.148h-1.349v1.958c0,.237.014.287.351.287h.896c.739,0,1.112-.588,1.112-1.097Z"/>
      <path d="m217.487,13.677c-1.09,0-1.09-.653-1.09-1.212v-1.076c0-.639,0-.66-.56-.66v-.223l1.055-.079v2.382c0,.373.028.711.631.711.524,0,.868-.488.868-1.112v-1.277c0-.352-.058-.401-.56-.401v-.223l1.055-.079v2.547c0,.352.058.401.56.401v.223l-1.033.079v-.646c-.208.444-.524.646-.926.646Z"/>
      <path d="m220.134,11.877c-.194-.158-.309-.359-.309-.61,0-.402.273-.882,1.147-.882.108,0,.402,0,.675.2.028-.021.1-.086.122-.115.093-.086.108-.086.143-.086.079,0,.079.05.079.172v.724c0,.136,0,.172-.093.172-.015,0-.079,0-.086-.065-.014-.222-.05-.868-.84-.868-.617,0-.803.294-.803.545,0,.416.48.509.882.588.301.057.581.115.818.344.086.086.301.302.301.682,0,.516-.33.997-1.154.997-.151,0-.474-.007-.79-.309-.129.136-.129.151-.143.165-.136.136-.143.144-.179.144-.079,0-.079-.05-.079-.172v-.947c0-.129,0-.179.093-.179.072,0,.079.029.1.122.136.61.395,1.019.998,1.019.56,0,.811-.288.811-.653,0-.517-.588-.631-.747-.66-.516-.1-.717-.143-.946-.33Z"/>
      <path d="m225.004,12.414v-.222l2.203-3.364c.057-.087.079-.087.143-.087.115,0,.115.043.115.187v3.264h.717v.222h-.717v.624c0,.258.015.337.546.337h.15v.223c-.295-.022-.674-.022-.976-.022s-.674,0-.968.022v-.223h.15c.531,0,.545-.079.545-.337v-.624h-1.908Zm1.952-2.898l-1.751,2.676h1.751v-2.676Z"/>
    </g>
  </g>
</svg>