<?xml version="1.0" encoding="UTF-8"?>
<svg id="Layer_1" data-name="Layer 1" xmlns="http://www.w3.org/2000/svg" viewBox="0 0 503.579 123.21">
  <defs>
    <style>
      .cls-1, .cls-2, .cls-3, .cls-4, .cls-5, .cls-6, .cls-7, .cls-8 {
        stroke-miterlimit: 10;
      }

      .cls-1, .cls-2, .cls-5, .cls-6, .cls-7, .cls-8 {
        fill: none;
      }

      .cls-1, .cls-3, .cls-7, .cls-9 {
        stroke: #231f20;
      }

      .cls-2 {
        stroke: #000;
      }

      .cls-3, .cls-9 {
        fill: #fff;
      }

      .cls-4 {
        stroke: #be1e2d;
      }

      .cls-4, .cls-10 {
        fill: #be1e2d;
      }

      .cls-5, .cls-8 {
        stroke: #010101;
      }

      .cls-6 {
        stroke: #ed1c24;
      }

      .cls-7 {
        stroke-width: .7px;
      }

      .cls-11 {
        font-size: 6px;
      }

      .cls-11, .cls-12 {
        font-family: CMR10, 'CM R 10';
      }

      .cls-11, .cls-13 {
        fill: #231f20;
      }

      .cls-8 {
        stroke-width: 1.9px;
      }

      .cls-12 {
        font-size: 10px;
      }

      .cls-9 {
        stroke-miterlimit: 2;
        stroke-width: .561px;
      }
    </style>
  </defs>
  <rect class="cls-9" x=".28" y=".28" width="248.519" height="107.807" rx="4" ry="4"/>
  <rect class="cls-9" x="254.779" y=".28" width="248.519" height="107.807" rx="4" ry="4"/>
  <text class="cls-12" transform="translate(118.16 120.71)"><tspan x="0" y="0">(a)</tspan></text>
  <text class="cls-12" transform="translate(372.385 120.71)"><tspan x="0" y="0">(b)</tspan></text>
  <line class="cls-5" x1="163.854" y1="30.63" x2="167.565" y2="30.63"/>
  <line class="cls-3" x1="137.367" y1="30.63" x2="140.466" y2="30.63"/>
  <line class="cls-3" x1="72.392" y1="30.63" x2="117.144" y2="30.63"/>
  <line class="cls-3" x1="49.523" y1="30.63" x2="52.169" y2="30.63"/>
  <line class="cls-8" x1="49.005" y1="23.146" x2="49.005" y2="53.08"/>
  <line class="cls-1" x1="52.262" y1="45.597" x2="48.869" y2="45.596"/>
  <polyline class="cls-1" points="87.217 53.247 87.217 45.597 72.488 45.597"/>
  <line class="cls-8" x1="79.733" y1="76.363" x2="109.666" y2="76.363"/>
  <line class="cls-8" x1="140.463" y1="23.146" x2="140.463" y2="53.08"/>
  <line class="cls-5" x1="141.37" y1="30.63" x2="143.705" y2="30.63"/>
  <line class="cls-5" x1="216.376" y1="30.629" x2="220.571" y2="30.63"/>
  <g>
    <path d="m44.906,19.515c0,.674-.645,1.313-1.599,1.313h-2.812v-.222h.172c.553,0,.567-.079.567-.337v-3.781c0-.258-.014-.337-.567-.337h-.172v-.222h2.625c.933,0,1.593.588,1.593,1.212,0,.531-.495.99-1.191,1.126.796.086,1.384.624,1.384,1.248Zm-2.037-1.313c.796,0,1.148-.603,1.148-1.062,0-.38-.251-.99-.947-.99h-.89c-.337,0-.351.05-.351.287v1.765h1.04Zm1.32,1.306c0-.481-.301-1.148-1.011-1.148h-1.349v1.959c0,.237.014.287.351.287h.897c.739,0,1.112-.589,1.112-1.098Z"/>
    <path d="m47.194,20.906c-1.09,0-1.09-.653-1.09-1.212v-1.076c0-.638,0-.66-.56-.66v-.222l1.055-.08v2.382c0,.373.028.71.631.71.524,0,.868-.488.868-1.112v-1.278c0-.352-.058-.401-.56-.401v-.222l1.055-.08v2.547c0,.352.057.401.559.401v.222l-1.033.079v-.645c-.208.445-.524.645-.925.645Z"/>
    <path d="m49.841,19.105c-.194-.157-.309-.359-.309-.61,0-.401.273-.882,1.148-.882.108,0,.402,0,.675.201.028-.022.1-.087.122-.115.093-.086.108-.086.144-.086.079,0,.079.051.079.172v.725c0,.136,0,.172-.093.172-.014,0-.079,0-.086-.065-.014-.223-.05-.868-.839-.868-.617,0-.803.294-.803.546,0,.415.481.509.882.588.301.058.581.115.818.345.086.086.301.301.301.681,0,.517-.33.997-1.155.997-.151,0-.474-.007-.789-.308-.129.136-.129.15-.143.165-.136.137-.143.144-.179.144-.079,0-.079-.05-.079-.172v-.947c0-.129,0-.179.093-.179.072,0,.079.029.1.122.136.61.395,1.019.997,1.019.56,0,.811-.287.811-.652,0-.517-.588-.631-.746-.66-.516-.101-.717-.144-.947-.331Z"/>
    <path d="m56.619,20.261c0,.266.022.344.667.344h.23v.222c-.251-.021-.875-.021-1.162-.021s-.911,0-1.162.021v-.222h.229c.645,0,.667-.086.667-.344v-3.716c-.373.186-.796.186-.94.186v-.222c.23,0,.861,0,1.306-.459.165,0,.165.014.165.186v4.025Z"/>
  </g>
  <line class="cls-1" x1="137.367" y1="45.597" x2="140.466" y2="45.596"/>
  <polyline class="cls-1" points="102.119 53.247 102.119 45.597 117.144 45.597"/>
  <line class="cls-1" x1="161.078" y1="45.096" x2="161.078" y2="60.098"/>
  <path class="cls-1" d="m168.436,67.519c0-3.915-3.174-7.087-7.087-7.087s-7.087,3.172-7.087,7.087,3.172,7.087,7.087,7.087,7.087-3.174,7.087-7.087Z"/>
  <path class="cls-7" d="m166.308,67.519c0-2.74-2.221-4.96-4.96-4.96s-4.96,2.22-4.96,4.96,2.221,4.96,4.96,4.96,4.96-2.222,4.96-4.96Z"/>
  <path class="cls-13" d="m162.886,69.915c-.243.121-.73.243-1.352.243-1.443,0-2.529-.912-2.529-2.59,0-1.603,1.087-2.689,2.674-2.689.638,0,1.041.137,1.215.228l-.16.539c-.25-.121-.607-.213-1.033-.213-1.2,0-1.997.767-1.997,2.112,0,1.253.721,2.058,1.967,2.058.403,0,.813-.083,1.079-.213l.137.524Z"/>
  <g>
    <path d="m116.074,77.5c0,.674-.645,1.313-1.6,1.313h-2.812v-.223h.172c.553,0,.567-.079.567-.337v-3.781c0-.258-.014-.338-.567-.338h-.172v-.222h2.625c.933,0,1.593.589,1.593,1.212,0,.531-.495.99-1.191,1.127.796.086,1.384.624,1.384,1.249Zm-2.037-1.314c.796,0,1.148-.603,1.148-1.062,0-.38-.251-.99-.947-.99h-.889c-.337,0-.351.051-.351.287v1.765h1.04Zm1.32,1.306c0-.48-.301-1.148-1.011-1.148h-1.349v1.958c0,.237.014.287.351.287h.897c.739,0,1.112-.588,1.112-1.097Z"/>
    <path d="m118.362,78.892c-1.09,0-1.09-.653-1.09-1.212v-1.076c0-.639,0-.66-.56-.66v-.223l1.055-.079v2.381c0,.373.028.711.631.711.524,0,.868-.488.868-1.112v-1.277c0-.352-.058-.401-.56-.401v-.223l1.055-.079v2.547c0,.352.057.401.559.401v.223l-1.033.079v-.646c-.208.444-.524.646-.926.646Z"/>
    <path d="m121.009,77.091c-.194-.157-.309-.359-.309-.61,0-.402.273-.882,1.148-.882.108,0,.402,0,.675.2.028-.021.1-.086.122-.115.093-.086.107-.086.143-.086.079,0,.079.05.079.172v.724c0,.136,0,.172-.093.172-.014,0-.079,0-.086-.065-.014-.222-.05-.868-.84-.868-.617,0-.803.294-.803.545,0,.416.481.509.883.588.301.057.581.115.818.344.086.087.301.302.301.682,0,.516-.33.997-1.155.997-.151,0-.474-.007-.789-.309-.129.136-.129.151-.143.165-.136.136-.143.143-.179.143-.079,0-.079-.05-.079-.172v-.947c0-.129,0-.179.094-.179.072,0,.079.029.1.122.136.61.395,1.019.997,1.019.56,0,.811-.287.811-.653,0-.517-.588-.632-.746-.66-.516-.1-.717-.143-.947-.33Z"/>
    <path d="m127.881,78.26c.158,0,.631,0,.681-.058.072-.108.122-.423.158-.638h.179l-.201,1.249h-2.662c0-.172,0-.187.079-.266l1.377-1.535c.394-.445.753-1.012.753-1.585,0-.588-.308-1.169-.961-1.169-.416,0-.804.265-.968.731.021-.007.036-.007.093-.007.251,0,.38.187.38.373,0,.294-.251.38-.373.38-.021,0-.38,0-.38-.402,0-.638.531-1.299,1.342-1.299.875,0,1.521.575,1.521,1.392,0,.717-.43,1.105-1.549,2.095l-.76.739h1.291Z"/>
  </g>
  <g>
    <path d="m136.199,19.435c0,.675-.645,1.313-1.6,1.313h-2.812v-.223h.172c.553,0,.567-.079.567-.337v-3.781c0-.257-.014-.337-.567-.337h-.172v-.222h2.625c.933,0,1.593.588,1.593,1.212,0,.531-.495.99-1.191,1.126.796.086,1.384.624,1.384,1.248Zm-2.037-1.313c.796,0,1.148-.603,1.148-1.062,0-.38-.251-.99-.947-.99h-.889c-.337,0-.351.05-.351.287v1.765h1.04Zm1.32,1.306c0-.481-.301-1.148-1.011-1.148h-1.349v1.958c0,.237.014.287.351.287h.897c.739,0,1.112-.588,1.112-1.098Z"/>
    <path d="m138.486,20.827c-1.09,0-1.09-.653-1.09-1.212v-1.076c0-.639,0-.66-.56-.66v-.222l1.055-.079v2.381c0,.373.028.711.631.711.524,0,.868-.488.868-1.112v-1.277c0-.352-.058-.402-.56-.402v-.222l1.055-.079v2.547c0,.352.057.401.559.401v.223l-1.033.079v-.645c-.208.444-.524.645-.926.645Z"/>
    <path d="m141.133,19.026c-.194-.157-.309-.359-.309-.609,0-.402.273-.883,1.148-.883.108,0,.402,0,.675.201.028-.021.1-.086.122-.115.093-.086.108-.086.143-.086.079,0,.079.051.079.173v.724c0,.136,0,.172-.093.172-.014,0-.079,0-.086-.065-.014-.223-.05-.868-.84-.868-.617,0-.803.294-.803.546,0,.416.481.509.882.588.301.058.581.115.818.345.086.086.301.301.301.682,0,.516-.33.997-1.155.997-.151,0-.473-.007-.789-.309-.129.136-.129.151-.143.165-.136.136-.143.144-.179.144-.079,0-.079-.051-.079-.172v-.947c0-.129,0-.179.094-.179.072,0,.079.029.1.122.136.61.395,1.02.997,1.02.56,0,.811-.288.811-.653,0-.517-.589-.631-.746-.66-.516-.1-.717-.143-.947-.331Z"/>
    <path d="m149.081,19.522c0,.732-.653,1.384-1.528,1.384-.782,0-1.449-.474-1.449-1.126,0-.316.23-.416.402-.416.208,0,.402.144.402.402,0,.273-.223.43-.474.394.251.423.789.545,1.098.545.316,0,.811-.208.811-1.183,0-.703-.265-1.191-.854-1.191h-.315c-.122,0-.172,0-.172-.079,0-.072.05-.079.108-.086.05,0,.223-.014.28-.021.179-.007.423-.029.638-.373.187-.316.201-.732.201-.818,0-.646-.394-.803-.689-.803-.258,0-.732.093-.954.444.108,0,.445,0,.445.359,0,.208-.143.366-.366.366-.208,0-.366-.136-.366-.373,0-.546.545-.976,1.27-.976.689,0,1.32.402,1.32.99,0,.567-.416,1.069-1.004,1.263.746.15,1.198.71,1.198,1.299Z"/>
  </g>
  <text class="cls-11" transform="translate(52.569 28.742)"><tspan x="0" y="0">29.23</tspan></text>
  <g>
    <line class="cls-4" x1="52.569" y1="30.631" x2="68.798" y2="30.631"/>
    <polygon class="cls-10" points="67.462 32.54 68.276 30.631 67.462 28.72 71.992 30.63 67.462 32.54"/>
  </g>
  <g>
    <line class="cls-4" x1="117.544" y1="30.631" x2="133.774" y2="30.631"/>
    <polygon class="cls-10" points="132.438 32.54 133.251 30.631 132.438 28.72 136.967 30.631 132.438 32.54"/>
  </g>
  <text class="cls-11" transform="translate(117.544 28.742)"><tspan x="0" y="0">29.05</tspan></text>
  <text class="cls-11" transform="translate(52.663 43.709)"><tspan x="0" y="0">15.87</tspan></text>
  <g>
    <line class="cls-4" x1="52.662" y1="45.597" x2="68.894" y2="45.597"/>
    <polygon class="cls-10" points="67.558 47.507 68.372 45.597 67.558 43.686 72.088 45.597 67.558 47.507"/>
  </g>
  <g>
    <line class="cls-4" x1="87.217" y1="53.647" x2="87.216" y2="69.876"/>
    <polygon class="cls-10" points="85.307 68.54 87.216 69.354 89.127 68.54 87.216 73.07 85.307 68.54"/>
  </g>
  <text class="cls-11" transform="translate(71.582 64.492)"><tspan x="0" y="0">15.59</tspan></text>
  <g>
    <line class="cls-4" x1="102.118" y1="73.07" x2="102.118" y2="56.84"/>
    <polygon class="cls-10" points="100.209 58.176 102.118 57.363 104.029 58.176 102.118 53.647 100.209 58.176"/>
  </g>
  <text class="cls-11" transform="translate(104.15 64.492)"><tspan x="0" y="0">13.19</tspan></text>
  <g>
    <line class="cls-4" x1="117.544" y1="45.597" x2="133.774" y2="45.597"/>
    <polygon class="cls-10" points="132.438 47.507 133.251 45.597 132.438 43.686 136.967 45.597 132.438 47.507"/>
  </g>
  <text class="cls-11" transform="translate(117.544 43.709)"><tspan x="0" y="0">13.04</tspan></text>
  <text class="cls-11" transform="translate(144.03 28.584)"><tspan x="0" y="0">42.00</tspan></text>
  <g>
    <line class="cls-4" x1="144.114" y1="30.631" x2="160.26" y2="30.631"/>
    <polygon class="cls-10" points="158.924 32.54 159.738 30.631 158.924 28.72 163.453 30.63 158.924 32.54"/>
  </g>
  <text class="cls-11" transform="translate(196.552 28.584)"><tspan x="0" y="0">42.00</tspan></text>
  <g>
    <line class="cls-4" x1="196.611" y1="30.631" x2="212.782" y2="30.631"/>
    <polygon class="cls-10" points="211.446 32.54 212.259 30.631 211.446 28.72 215.975 30.63 211.446 32.54"/>
  </g>
  <line class="cls-5" x1="192.699" y1="30.63" x2="196.211" y2="30.63"/>
  <circle class="cls-3" cx="18.73" cy="38.113" r="9.524" transform="translate(-5.88 3.504) rotate(-9.245)"/>
  <path class="cls-2" d="m23.539,37.062s-1.502,1.987-2.266,2.103c-.93.142-2.546-1.058-2.546-1.058,0,0-2.345-1.184-2.837-1.045-.712.202-2.084,2.103-2.084,2.103"/>
  <line class="cls-3" x1="28.49" y1="38.271" x2="48.332" y2="38.271"/>
  <circle class="cls-3" cx="57.593" cy="90.595" r="9.524" transform="translate(-39.373 136.66) rotate(-82.966)"/>
  <path class="cls-2" d="m62.518,89.543s-1.502,1.987-2.266,2.103c-.93.142-2.546-1.058-2.546-1.058,0,0-2.345-1.184-2.837-1.045-.712.201-2.084,2.103-2.084,2.103"/>
  <polyline class="cls-1" points="67.375 90.776 69.39 90.776 84.794 90.776 87.217 90.776 87.217 75.809 87.217 73.47"/>
  <g>
    <polyline class="cls-1" points="117.484 90.775 115.78 90.775 103.507 90.776 102.119 90.776 102.119 75.809 102.119 73.47"/>
    <polygon class="cls-13" points="115.378 87.997 116.558 90.775 115.377 93.552 121.961 90.776 115.378 87.997"/>
  </g>
  <polyline class="cls-5" points="140.811 45.597 142.896 45.597 158.815 45.596 160.654 45.596"/>
  <g>
    <g>
      <polyline class="cls-1" points="235.738 30.629 234 30.629 221.761 30.629 220.373 30.629"/>
      <polygon class="cls-13" points="233.632 27.852 234.812 30.629 233.632 33.407 240.215 30.629 233.632 27.852"/>
    </g>
    <line class="cls-8" x1="219.555" y1="15.663" x2="219.555" y2="45.596"/>
    <g>
      <circle class="cls-6" cx="176.25" cy="30.629" r="8.504"/>
      <circle class="cls-5" cx="183.827" cy="30.629" r="8.504"/>
    </g>
    <g>
      <path d="m215.27,11.836c0,.674-.645,1.313-1.599,1.313h-2.812v-.223h.172c.553,0,.567-.079.567-.337v-3.781c0-.258-.014-.337-.567-.337h-.172v-.222h2.625c.933,0,1.593.588,1.593,1.212,0,.531-.495.99-1.19,1.127.796.086,1.384.624,1.384,1.249Zm-2.038-1.314c.797,0,1.148-.603,1.148-1.062,0-.38-.251-.99-.947-.99h-.889c-.337,0-.351.051-.351.287v1.765h1.04Zm1.32,1.306c0-.48-.302-1.148-1.012-1.148h-1.349v1.958c0,.237.014.287.351.287h.896c.739,0,1.112-.588,1.112-1.097Z"/>
      <path d="m217.557,13.227c-1.09,0-1.09-.653-1.09-1.212v-1.076c0-.639,0-.66-.56-.66v-.223l1.055-.079v2.382c0,.373.028.711.631.711.524,0,.868-.488.868-1.112v-1.277c0-.352-.058-.401-.56-.401v-.223l1.055-.079v2.547c0,.352.058.401.56.401v.223l-1.033.079v-.646c-.208.444-.524.646-.926.646Z"/>
      <path d="m220.205,11.426c-.194-.158-.309-.359-.309-.61,0-.402.273-.882,1.147-.882.108,0,.402,0,.675.2.028-.021.1-.086.122-.115.093-.086.108-.086.143-.086.079,0,.079.05.079.172v.724c0,.136,0,.172-.093.172-.015,0-.079,0-.086-.065-.014-.222-.05-.868-.84-.868-.617,0-.803.294-.803.545,0,.416.48.509.882.588.301.057.581.115.818.344.086.086.301.302.301.682,0,.516-.33.997-1.154.997-.151,0-.474-.007-.79-.309-.129.136-.129.151-.143.165-.136.136-.143.144-.179.144-.079,0-.079-.05-.079-.172v-.947c0-.129,0-.179.093-.179.072,0,.079.029.1.122.136.61.395,1.019.998,1.019.56,0,.811-.288.811-.653,0-.517-.588-.631-.747-.66-.516-.1-.717-.143-.946-.33Z"/>
      <path d="m225.074,11.964v-.222l2.203-3.364c.057-.087.079-.087.143-.087.115,0,.115.043.115.187v3.264h.717v.222h-.717v.624c0,.258.015.337.546.337h.15v.223c-.295-.022-.674-.022-.976-.022s-.674,0-.968.022v-.223h.15c.531,0,.545-.079.545-.337v-.624h-1.908Zm1.952-2.898l-1.751,2.676h1.751v-2.676Z"/>
    </g>
  </g>
  <g>
    <line class="cls-5" x1="418.233" y1="30.63" x2="421.943" y2="30.63"/>
    <line class="cls-3" x1="391.746" y1="30.63" x2="394.845" y2="30.63"/>
    <line class="cls-3" x1="326.77" y1="30.63" x2="371.523" y2="30.63"/>
    <line class="cls-3" x1="303.901" y1="30.63" x2="306.547" y2="30.63"/>
    <line class="cls-8" x1="303.384" y1="23.146" x2="303.384" y2="53.08"/>
    <line class="cls-1" x1="306.641" y1="45.597" x2="303.247" y2="45.596"/>
    <polyline class="cls-1" points="341.595 53.247 341.595 45.597 326.867 45.597"/>
    <line class="cls-8" x1="334.111" y1="76.363" x2="364.045" y2="76.363"/>
    <line class="cls-8" x1="394.841" y1="23.146" x2="394.841" y2="53.08"/>
    <line class="cls-5" x1="395.749" y1="30.63" x2="398.083" y2="30.63"/>
    <line class="cls-5" x1="470.855" y1="30.629" x2="475.049" y2="30.63"/>
    <g>
      <path d="m299.284,19.515c0,.674-.645,1.313-1.599,1.313h-2.812v-.222h.172c.553,0,.567-.079.567-.337v-3.781c0-.258-.014-.337-.567-.337h-.172v-.222h2.625c.933,0,1.593.588,1.593,1.212,0,.531-.495.99-1.191,1.127.796.086,1.384.624,1.384,1.248Zm-2.037-1.313c.796,0,1.148-.603,1.148-1.062,0-.38-.251-.99-.947-.99h-.89c-.337,0-.351.05-.351.287v1.765h1.04Zm1.32,1.306c0-.481-.301-1.148-1.011-1.148h-1.349v1.959c0,.237.014.287.351.287h.897c.739,0,1.112-.588,1.112-1.097Z"/>
      <path d="m301.572,20.906c-1.09,0-1.09-.653-1.09-1.212v-1.076c0-.638,0-.66-.56-.66v-.222l1.055-.08v2.382c0,.373.028.71.631.71.524,0,.868-.488.868-1.112v-1.278c0-.352-.058-.401-.56-.401v-.222l1.055-.08v2.548c0,.352.057.401.559.401v.222l-1.033.079v-.646c-.208.445-.524.646-.925.646Z"/>
      <path d="m304.219,19.105c-.194-.158-.309-.359-.309-.61,0-.401.273-.882,1.148-.882.108,0,.402,0,.675.201.028-.022.1-.086.122-.115.093-.086.108-.086.144-.086.079,0,.079.051.079.172v.725c0,.136,0,.172-.093.172-.014,0-.079,0-.086-.065-.014-.223-.05-.868-.839-.868-.617,0-.803.294-.803.546,0,.415.481.509.882.588.301.058.581.115.818.344.086.086.301.301.301.681,0,.517-.33.997-1.155.997-.151,0-.474-.007-.789-.308-.129.137-.129.15-.143.165-.136.137-.143.144-.179.144-.079,0-.079-.05-.079-.172v-.947c0-.129,0-.179.093-.179.072,0,.079.029.1.122.136.61.395,1.019.997,1.019.56,0,.811-.287.811-.652,0-.517-.588-.631-.746-.66-.516-.101-.717-.144-.947-.331Z"/>
      <path d="m310.997,20.261c0,.266.022.344.667.344h.23v.222c-.251-.021-.875-.021-1.162-.021s-.911,0-1.162.021v-.222h.229c.645,0,.667-.086.667-.344v-3.716c-.373.186-.796.186-.94.186v-.222c.23,0,.861,0,1.306-.459.165,0,.165.014.165.186v4.025Z"/>
    </g>
    <line class="cls-1" x1="391.746" y1="45.597" x2="394.845" y2="45.596"/>
    <polyline class="cls-1" points="356.497 53.247 356.497 45.597 371.523 45.597"/>
    <line class="cls-1" x1="415.556" y1="45.096" x2="415.556" y2="60.098"/>
    <path class="cls-1" d="m422.914,67.519c0-3.915-3.174-7.087-7.087-7.087s-7.087,3.172-7.087,7.087,3.172,7.087,7.087,7.087,7.087-3.174,7.087-7.087Z"/>
    <path class="cls-7" d="m420.787,67.519c0-2.74-2.221-4.96-4.96-4.96s-4.96,2.22-4.96,4.96,2.221,4.96,4.96,4.96,4.96-2.222,4.96-4.96Z"/>
    <path class="cls-13" d="m417.365,69.915c-.243.121-.73.243-1.352.243-1.443,0-2.529-.912-2.529-2.59,0-1.603,1.087-2.689,2.674-2.689.638,0,1.041.137,1.215.228l-.16.539c-.25-.121-.607-.213-1.033-.213-1.2,0-1.997.767-1.997,2.111,0,1.254.721,2.059,1.967,2.059.403,0,.813-.084,1.079-.213l.137.524Z"/>
    <g>
      <path d="m370.452,77.5c0,.674-.645,1.313-1.6,1.313h-2.812v-.223h.172c.553,0,.567-.079.567-.337v-3.781c0-.258-.014-.338-.567-.338h-.172v-.222h2.625c.933,0,1.593.589,1.593,1.212,0,.531-.495.99-1.191,1.127.796.087,1.384.624,1.384,1.249Zm-2.037-1.314c.796,0,1.148-.602,1.148-1.062,0-.38-.251-.99-.947-.99h-.889c-.337,0-.351.051-.351.287v1.765h1.04Zm1.32,1.306c0-.48-.301-1.147-1.011-1.147h-1.349v1.958c0,.237.014.287.351.287h.897c.739,0,1.112-.588,1.112-1.097Z"/>
      <path d="m372.74,78.892c-1.09,0-1.09-.653-1.09-1.212v-1.076c0-.639,0-.659-.56-.659v-.223l1.055-.079v2.381c0,.373.028.711.631.711.524,0,.868-.488.868-1.112v-1.277c0-.352-.058-.401-.56-.401v-.223l1.055-.079v2.547c0,.352.057.401.559.401v.223l-1.033.079v-.646c-.208.444-.524.646-.926.646Z"/>
      <path d="m375.387,77.091c-.194-.157-.309-.359-.309-.61,0-.402.273-.882,1.148-.882.108,0,.402,0,.675.2.028-.021.1-.086.122-.115.093-.086.107-.086.143-.086.079,0,.079.05.079.172v.724c0,.136,0,.172-.093.172-.014,0-.079,0-.086-.065-.014-.222-.05-.868-.84-.868-.617,0-.803.294-.803.545,0,.416.481.509.883.588.301.057.581.115.818.344.086.086.301.302.301.682,0,.516-.33.997-1.155.997-.151,0-.474-.007-.789-.309-.129.136-.129.151-.143.165-.136.136-.143.143-.179.143-.079,0-.079-.05-.079-.172v-.947c0-.129,0-.179.094-.179.072,0,.079.029.1.122.136.61.395,1.019.997,1.019.56,0,.811-.288.811-.653,0-.517-.588-.631-.746-.66-.516-.1-.717-.143-.947-.33Z"/>
      <path d="m382.259,78.26c.158,0,.631,0,.681-.058.072-.108.122-.423.158-.638h.179l-.201,1.249h-2.662c0-.172,0-.187.079-.266l1.377-1.535c.394-.445.753-1.012.753-1.586,0-.588-.308-1.169-.961-1.169-.416,0-.804.265-.968.731.021-.007.036-.007.093-.007.251,0,.38.187.38.373,0,.294-.251.38-.373.38-.021,0-.38,0-.38-.402,0-.639.531-1.299,1.342-1.299.875,0,1.521.574,1.521,1.392,0,.717-.43,1.105-1.549,2.095l-.76.739h1.291Z"/>
    </g>
    <g>
      <path d="m390.577,19.435c0,.675-.645,1.313-1.6,1.313h-2.812v-.223h.172c.553,0,.567-.079.567-.337v-3.781c0-.257-.014-.337-.567-.337h-.172v-.222h2.625c.933,0,1.593.588,1.593,1.212,0,.531-.495.99-1.191,1.126.796.086,1.384.624,1.384,1.248Zm-2.037-1.313c.796,0,1.148-.603,1.148-1.062,0-.38-.251-.99-.947-.99h-.889c-.337,0-.351.05-.351.287v1.765h1.04Zm1.32,1.306c0-.481-.301-1.147-1.011-1.147h-1.349v1.958c0,.237.014.287.351.287h.897c.739,0,1.112-.588,1.112-1.098Z"/>
      <path d="m392.865,20.827c-1.09,0-1.09-.653-1.09-1.212v-1.077c0-.638,0-.66-.56-.66v-.222l1.055-.079v2.381c0,.373.028.711.631.711.524,0,.868-.488.868-1.112v-1.277c0-.352-.058-.402-.56-.402v-.222l1.055-.079v2.547c0,.352.057.401.559.401v.223l-1.033.079v-.646c-.208.444-.524.646-.926.646Z"/>
      <path d="m395.512,19.026c-.194-.158-.309-.359-.309-.609,0-.402.273-.883,1.148-.883.108,0,.402,0,.675.201.028-.021.1-.086.122-.115.093-.086.108-.086.143-.086.079,0,.079.051.079.173v.724c0,.136,0,.172-.093.172-.014,0-.079,0-.086-.065-.014-.223-.05-.868-.84-.868-.617,0-.803.294-.803.546,0,.416.481.509.882.588.301.058.581.115.818.345.086.086.301.301.301.682,0,.516-.33.997-1.155.997-.151,0-.473-.007-.789-.309-.129.136-.129.151-.143.165-.136.136-.143.144-.179.144-.079,0-.079-.051-.079-.172v-.947c0-.13,0-.179.094-.179.072,0,.079.029.1.122.136.61.395,1.02.997,1.02.56,0,.811-.288.811-.653,0-.517-.589-.631-.746-.66-.516-.1-.717-.143-.947-.331Z"/>
      <path d="m403.46,19.522c0,.732-.653,1.384-1.528,1.384-.782,0-1.449-.474-1.449-1.126,0-.316.23-.416.402-.416.208,0,.402.144.402.402,0,.273-.223.43-.474.394.251.423.789.545,1.098.545.316,0,.811-.208.811-1.183,0-.703-.265-1.191-.854-1.191h-.315c-.122,0-.172,0-.172-.079,0-.072.05-.079.108-.086.05,0,.223-.014.28-.021.179-.007.423-.029.638-.373.187-.316.201-.732.201-.818,0-.645-.394-.803-.689-.803-.258,0-.732.093-.954.444.108,0,.445,0,.445.359,0,.208-.143.366-.366.366-.208,0-.366-.136-.366-.373,0-.546.545-.976,1.27-.976.689,0,1.32.402,1.32.99,0,.567-.416,1.069-1.004,1.263.746.15,1.198.71,1.198,1.299Z"/>
    </g>
    <text class="cls-11" transform="translate(315.708 28.742)"><tspan x="0" y="0">0.96</tspan></text>
    <g>
      <line class="cls-4" x1="326.37" y1="30.631" x2="310.14" y2="30.631"/>
      <polygon class="cls-10" points="311.476 32.54 310.663 30.631 311.476 28.72 306.947 30.63 311.476 32.54"/>
    </g>
    <g>
      <line class="cls-4" x1="371.922" y1="30.631" x2="388.152" y2="30.631"/>
      <polygon class="cls-10" points="386.816 32.54 387.629 30.631 386.816 28.72 391.345 30.631 386.816 32.54"/>
    </g>
    <text class="cls-11" transform="translate(371.923 28.742)"><tspan x="0" y="0">1.85</tspan></text>
    <text class="cls-11" transform="translate(312.804 43.709)"><tspan x="0" y="0">18.46</tspan></text>
    <g>
      <line class="cls-4" x1="326.467" y1="45.597" x2="310.235" y2="45.597"/>
      <polygon class="cls-10" points="311.571 47.507 310.757 45.597 311.571 43.686 307.041 45.597 311.571 47.507"/>
    </g>
    <g>
      <line class="cls-4" x1="341.595" y1="73.07" x2="341.595" y2="56.84"/>
      <polygon class="cls-10" points="339.685 58.176 341.595 57.363 343.506 58.176 341.595 53.647 339.685 58.176"/>
    </g>
    <text class="cls-11" transform="translate(325.96 64.492)"><tspan x="0" y="0">15.71</tspan></text>
    <g>
      <line class="cls-4" x1="356.497" y1="73.07" x2="356.496" y2="56.84"/>
      <polygon class="cls-10" points="354.587 58.176 356.496 57.363 358.407 58.176 356.496 53.647 354.587 58.176"/>
    </g>
    <text class="cls-11" transform="translate(358.528 64.492)"><tspan x="0" y="0">12.67</tspan></text>
    <g>
      <line class="cls-4" x1="371.922" y1="45.597" x2="388.152" y2="45.597"/>
      <polygon class="cls-10" points="386.816 47.507 387.63 45.597 386.816 43.686 391.345 45.597 386.816 47.507"/>
    </g>
    <text class="cls-11" transform="translate(371.922 43.709)"><tspan x="0" y="0">15.76</tspan></text>
    <text class="cls-11" transform="translate(398.409 28.584)"><tspan x="0" y="0">25.37</tspan></text>
    <g>
      <line class="cls-4" x1="398.492" y1="30.631" x2="414.639" y2="30.631"/>
      <polygon class="cls-10" points="413.303 32.54 414.116 30.631 413.303 28.72 417.832 30.63 413.303 32.54"/>
    </g>
    <text class="cls-11" transform="translate(451.031 28.584)"><tspan x="0" y="0">20.00</tspan></text>
    <g>
      <line class="cls-4" x1="451.088" y1="30.631" x2="467.26" y2="30.631"/>
      <polygon class="cls-10" points="465.924 32.54 466.738 30.631 465.924 28.72 470.454 30.63 465.924 32.54"/>
    </g>
    <line class="cls-5" x1="446.577" y1="30.63" x2="450.688" y2="30.63"/>
    <circle class="cls-3" cx="273.008" cy="38.113" r="9.524" transform="translate(-2.577 44.356) rotate(-9.245)"/>
    <path class="cls-2" d="m277.817,37.062s-1.502,1.987-2.266,2.103c-.93.142-2.546-1.058-2.546-1.058,0,0-2.345-1.184-2.837-1.045-.712.202-2.084,2.103-2.084,2.103"/>
    <polyline class="cls-3" points="282.768 38.271 284.838 38.271 300.66 38.271 302.611 38.271"/>
    <circle class="cls-3" cx="311.971" cy="90.595" r="9.524" transform="translate(183.853 389.123) rotate(-82.966)"/>
    <path class="cls-2" d="m316.896,89.543s-1.502,1.987-2.266,2.103c-.93.142-2.546-1.058-2.546-1.058,0,0-2.345-1.184-2.837-1.045-.712.201-2.084,2.103-2.084,2.103"/>
    <polyline class="cls-1" points="321.753 90.776 323.768 90.776 339.172 90.776 341.595 90.776 341.595 75.809 341.595 73.47"/>
    <g>
      <polyline class="cls-1" points="371.862 90.775 370.158 90.775 357.886 90.776 356.498 90.776 356.498 75.809 356.497 73.47"/>
      <polygon class="cls-13" points="369.757 87.997 370.936 90.775 369.755 93.552 376.34 90.776 369.757 87.997"/>
    </g>
    <polyline class="cls-5" points="395.29 45.597 397.374 45.597 413.293 45.596 415.132 45.596"/>
    <g>
      <g>
        <polyline class="cls-1" points="490.117 30.629 488.378 30.629 476.139 30.629 474.751 30.629"/>
        <polygon class="cls-13" points="488.01 27.852 489.19 30.629 488.01 33.407 494.594 30.629 488.01 27.852"/>
      </g>
      <line class="cls-8" x1="473.934" y1="15.663" x2="473.934" y2="45.596"/>
      <g>
        <circle class="cls-6" cx="430.628" cy="30.629" r="8.504"/>
        <circle class="cls-5" cx="438.206" cy="30.629" r="8.504"/>
      </g>
      <g>
        <path d="m469.648,11.836c0,.674-.645,1.313-1.599,1.313h-2.812v-.223h.172c.553,0,.567-.079.567-.337v-3.781c0-.258-.014-.337-.567-.337h-.172v-.222h2.625c.933,0,1.593.588,1.593,1.212,0,.531-.495.99-1.19,1.127.796.086,1.384.624,1.384,1.249Zm-2.038-1.314c.797,0,1.148-.603,1.148-1.062,0-.38-.251-.99-.947-.99h-.889c-.337,0-.351.051-.351.287v1.765h1.04Zm1.32,1.306c0-.48-.302-1.148-1.012-1.148h-1.349v1.958c0,.237.014.287.351.287h.896c.739,0,1.112-.588,1.112-1.097Z"/>
        <path d="m471.936,13.227c-1.09,0-1.09-.653-1.09-1.212v-1.076c0-.639,0-.66-.56-.66v-.223l1.055-.079v2.382c0,.373.028.711.631.711.524,0,.868-.488.868-1.112v-1.277c0-.352-.058-.401-.56-.401v-.223l1.055-.079v2.547c0,.352.058.401.56.401v.223l-1.033.079v-.646c-.208.444-.524.646-.926.646Z"/>
        <path d="m474.583,11.426c-.194-.158-.309-.359-.309-.61,0-.402.273-.882,1.147-.882.108,0,.402,0,.675.2.028-.021.1-.086.122-.115.093-.086.108-.086.143-.086.079,0,.079.05.079.172v.724c0,.136,0,.172-.093.172-.015,0-.079,0-.086-.065-.014-.222-.05-.868-.84-.868-.617,0-.803.294-.803.545,0,.416.48.509.882.588.301.057.581.115.818.344.086.086.301.302.301.682,0,.516-.33.997-1.154.997-.151,0-.474-.007-.79-.309-.129.136-.129.151-.143.165-.136.136-.143.144-.179.144-.079,0-.079-.05-.079-.172v-.947c0-.129,0-.179.093-.179.072,0,.079.029.1.122.136.61.395,1.019.998,1.019.56,0,.811-.288.811-.653,0-.517-.588-.631-.747-.66-.516-.1-.717-.143-.946-.33Z"/>
        <path d="m479.453,11.964v-.222l2.203-3.364c.057-.086.079-.086.143-.086.115,0,.115.043.115.187v3.264h.717v.222h-.717v.624c0,.258.015.337.546.337h.15v.223c-.295-.022-.674-.022-.976-.022s-.674,0-.968.022v-.223h.15c.531,0,.545-.079.545-.337v-.624h-1.908Zm1.952-2.898l-1.751,2.676h1.751v-2.676Z"/>
      </g>
    </g>
  </g>
</svg>