<?xml version="1.0" encoding="UTF-8"?>
<svg id="Layer_1" data-name="Layer 1" xmlns="http://www.w3.org/2000/svg" viewBox="0 0 514.568 132.892">
  <defs>
    <style>
      .cls-1, .cls-2, .cls-3, .cls-4, .cls-5, .cls-6, .cls-7, .cls-8 {
        stroke-miterlimit: 10;
      }

      .cls-1, .cls-2, .cls-5, .cls-6, .cls-7, .cls-8 {
        fill: none;
      }

      .cls-1, .cls-3, .cls-7, .cls-9 {
        stroke: #231f20;
      }

      .cls-2 {
        stroke: #000;
      }

      .cls-3, .cls-9 {
        fill: #fff;
      }

      .cls-4 {
        stroke: #be1e2d;
      }

      .cls-4, .cls-10 {
        fill: #be1e2d;
      }

      .cls-5, .cls-8 {
        stroke: #010101;
      }

      .cls-6 {
        stroke: #ed1c24;
      }

      .cls-7 {
        stroke-width: .7px;
      }

      .cls-11 {
        font-size: 6px;
      }

      .cls-11, .cls-12 {
        font-family: CMR10, 'CM R 10';
      }

      .cls-11, .cls-13 {
        fill: #231f20;
      }

      .cls-8 {
        stroke-width: 1.9px;
      }

      .cls-9 {
        stroke-miterlimit: 2;
        stroke-width: .582px;
      }

      .cls-12 {
        font-size: 10px;
      }
    </style>
  </defs>
  <rect class="cls-9" x=".291" y=".291" width="254.826" height="117.264" rx="4" ry="4"/>
  <g>
    <line class="cls-5" x1="170.518" y1="31.426" x2="172.728" y2="31.426"/>
    <line class="cls-3" x1="144.03" y1="31.426" x2="147.13" y2="31.426"/>
    <line class="cls-3" x1="79.055" y1="31.426" x2="123.808" y2="31.426"/>
    <line class="cls-3" x1="56.186" y1="31.426" x2="58.832" y2="31.426"/>
    <g>
      <line class="cls-1" x1="243.211" y1="31.426" x2="223.669" y2="31.426"/>
      <polygon class="cls-13" points="240.403 27.723 241.976 31.426 240.403 35.129 249.181 31.426 240.403 27.723"/>
    </g>
    <line class="cls-8" x1="55.668" y1="23.943" x2="55.668" y2="53.876"/>
    <line class="cls-1" x1="58.925" y1="46.393" x2="55.532" y2="46.393"/>
    <polyline class="cls-1" points="93.88 54.044 93.88 46.394 79.151 46.393"/>
    <line class="cls-1" x1="93.88" y1="76.606" x2="93.88" y2="74.266"/>
    <line class="cls-8" x1="86.396" y1="77.16" x2="116.33" y2="77.16"/>
    <line class="cls-8" x1="147.126" y1="23.943" x2="147.126" y2="53.876"/>
    <line class="cls-3" x1="55.445" y1="39.067" x2="29.934" y2="39.068"/>
    <circle class="cls-3" cx="24.493" cy="38.91" r="9.524" transform="translate(-5.933 4.44) rotate(-9.245)"/>
    <path class="cls-2" d="m29.302,37.858s-1.502,1.987-2.266,2.103c-.93.142-2.546-1.058-2.546-1.058,0,0-2.345-1.184-2.837-1.045-.712.202-2.084,2.103-2.084,2.103"/>
    <line class="cls-8" x1="223.339" y1="16.459" x2="223.339" y2="46.393"/>
    <line class="cls-5" x1="148.157" y1="31.426" x2="150.368" y2="31.426"/>
    <g>
      <circle class="cls-6" cx="181.494" cy="31.426" r="8.334"/>
      <circle class="cls-5" cx="188.92" cy="31.426" r="8.334"/>
    </g>
    <line class="cls-5" x1="220.039" y1="31.426" x2="222.634" y2="31.426"/>
    <g>
      <path d="m51.569,20.311c0,.674-.645,1.313-1.599,1.313h-2.812v-.222h.172c.553,0,.567-.079.567-.337v-3.781c0-.258-.014-.337-.567-.337h-.172v-.222h2.625c.933,0,1.593.588,1.593,1.212,0,.531-.495.99-1.191,1.126.796.086,1.384.624,1.384,1.248Zm-2.037-1.313c.796,0,1.148-.603,1.148-1.062,0-.38-.251-.99-.947-.99h-.89c-.337,0-.351.05-.351.287v1.765h1.04Zm1.32,1.306c0-.481-.301-1.148-1.011-1.148h-1.349v1.959c0,.237.014.287.351.287h.897c.739,0,1.112-.588,1.112-1.097Z"/>
      <path d="m53.857,21.703c-1.09,0-1.09-.653-1.09-1.212v-1.076c0-.638,0-.66-.56-.66v-.222l1.055-.08v2.382c0,.373.028.71.631.71.524,0,.868-.488.868-1.112v-1.278c0-.352-.058-.401-.56-.401v-.222l1.055-.08v2.547c0,.352.057.401.559.401v.222l-1.033.079v-.645c-.208.445-.524.645-.925.645Z"/>
      <path d="m56.504,19.902c-.194-.158-.309-.359-.309-.61,0-.401.273-.882,1.148-.882.108,0,.402,0,.675.201.028-.022.1-.087.122-.115.093-.087.108-.087.144-.087.079,0,.079.051.079.172v.725c0,.136,0,.172-.093.172-.014,0-.079,0-.086-.065-.014-.223-.05-.868-.839-.868-.617,0-.803.294-.803.546,0,.416.481.509.882.588.301.058.581.115.818.345.086.086.301.301.301.681,0,.517-.33.997-1.155.997-.151,0-.474-.007-.789-.308-.129.137-.129.151-.143.165-.136.137-.143.144-.179.144-.079,0-.079-.05-.079-.172v-.947c0-.129,0-.179.093-.179.072,0,.079.029.1.122.136.61.395,1.019.997,1.019.56,0,.811-.287.811-.652,0-.517-.588-.631-.746-.66-.516-.101-.717-.144-.947-.331Z"/>
      <path d="m63.282,21.057c0,.266.022.344.667.344h.23v.222c-.251-.021-.875-.021-1.162-.021s-.911,0-1.162.021v-.222h.229c.645,0,.667-.086.667-.344v-3.716c-.373.186-.796.186-.94.186v-.222c.23,0,.861,0,1.306-.459.165,0,.165.014.165.186v4.025Z"/>
    </g>
    <g>
      <path d="m218.654,12.833c0,.674-.645,1.313-1.599,1.313h-2.812v-.223h.172c.553,0,.567-.079.567-.337v-3.781c0-.258-.014-.337-.567-.337h-.172v-.222h2.625c.933,0,1.593.588,1.593,1.212,0,.531-.495.99-1.19,1.127.796.087,1.384.624,1.384,1.249Zm-2.038-1.314c.797,0,1.148-.603,1.148-1.062,0-.38-.251-.99-.947-.99h-.889c-.337,0-.351.051-.351.287v1.765h1.04Zm1.32,1.306c0-.48-.302-1.147-1.012-1.147h-1.349v1.958c0,.237.014.287.351.287h.896c.739,0,1.112-.588,1.112-1.097Z"/>
      <path d="m220.941,14.224c-1.09,0-1.09-.653-1.09-1.212v-1.077c0-.639,0-.659-.56-.659v-.223l1.055-.079v2.382c0,.373.028.711.631.711.524,0,.868-.488.868-1.112v-1.277c0-.352-.058-.402-.56-.402v-.223l1.055-.079v2.547c0,.352.058.402.56.402v.223l-1.033.079v-.645c-.208.444-.524.645-.926.645Z"/>
      <path d="m223.588,12.423c-.194-.158-.309-.359-.309-.61,0-.402.273-.882,1.147-.882.108,0,.402,0,.675.201.028-.021.1-.086.122-.115.093-.086.108-.086.143-.086.079,0,.079.05.079.172v.724c0,.136,0,.172-.093.172-.015,0-.079,0-.086-.065-.014-.222-.05-.868-.84-.868-.617,0-.803.294-.803.545,0,.416.48.509.882.588.301.057.581.115.818.344.086.086.301.302.301.682,0,.516-.33.997-1.154.997-.151,0-.474-.007-.79-.309-.129.136-.129.151-.143.165-.136.136-.143.144-.179.144-.079,0-.079-.05-.079-.172v-.947c0-.129,0-.179.093-.179.072,0,.079.029.1.122.136.61.395,1.019.998,1.019.56,0,.811-.287.811-.653,0-.517-.588-.631-.747-.66-.516-.1-.717-.143-.946-.33Z"/>
      <path d="m228.458,12.961v-.222l2.203-3.364c.057-.087.079-.087.143-.087.115,0,.115.043.115.187v3.264h.717v.222h-.717v.624c0,.258.015.337.546.337h.15v.223c-.295-.022-.674-.022-.976-.022s-.674,0-.968.022v-.223h.15c.531,0,.545-.079.545-.337v-.624h-1.908Zm1.952-2.898l-1.751,2.676h1.751v-2.676Z"/>
    </g>
    <g>
      <path d="m8.738,56.517c-1.363,0-2.511-1.14-2.511-2.611s1.162-2.604,2.497-2.604c.71,0,1.097.388,1.327.617l.359-.532c.057-.086.086-.086.115-.086.079,0,.079.051.079.172v1.701c0,.15,0,.172-.115.172-.1,0-.1-.021-.114-.122-.144-1.054-.797-1.7-1.564-1.7-.43,0-1.844.238-1.844,2.382s1.42,2.389,1.886,2.389c.201,0,1.112-.065,1.112-.869v-.459c0-.266-.021-.345-.667-.345h-.229v-.222c.258.021.868.021,1.155.021.215,0,.61-.014.875-.021v.222c-.466,0-.495.037-.495.316v1.247c0,.108,0,.166-.065.166-.079,0-.366-.288-.459-.446-.244.423-.818.61-1.341.61Z"/>
      <path d="m12.461,55.778c.165.265.452.48.811.48.072,0,.718,0,.968-.738.014-.058.029-.1.093-.1.036,0,.093.015.093.086,0,.136-.323.932-1.198.932-.825,0-1.579-.696-1.579-1.657,0-.896.66-1.636,1.492-1.636.897,0,1.284.696,1.284,1.406,0,.15-.022.15-.18.15h-2.001c0,.259,0,.733.215,1.077Zm1.492-1.227c0-.28-.072-1.248-.811-1.248-.244,0-.846.179-.89,1.248h1.7Z"/>
      <path d="m14.863,53.489v-.222l1.011-.079v.753c.201-.445.538-.753,1.062-.753.416,0,.653.143.753.265.223.258.223.481.223,1.097v1.37c.007.215.186.215.559.215v.223c-.244-.007-.617-.022-.803-.022-.194,0-.56.015-.811.022v-.223c.481,0,.56,0,.56-.323v-1.672c0-.409-.079-.796-.531-.796-.459,0-.969.402-.969,1.147v1.32c0,.323.079.323.559.323v.223c-.244-.007-.617-.022-.803-.022-.194,0-.56.015-.811.022v-.223c.481,0,.56,0,.56-.323v-1.922c0-.352-.058-.402-.56-.402Z"/>
      <path d="m19.626,55.778c.165.265.452.48.811.48.072,0,.717,0,.968-.738.014-.058.029-.1.093-.1.036,0,.094.015.094.086,0,.136-.323.932-1.198.932-.825,0-1.578-.696-1.578-1.657,0-.896.66-1.636,1.492-1.636.897,0,1.284.696,1.284,1.406,0,.15-.022.15-.18.15h-2.001c0,.259,0,.733.215,1.077Zm1.492-1.227c0-.28-.072-1.248-.811-1.248-.244,0-.847.179-.889,1.248h1.7Z"/>
      <path d="m23.88,53.188c.308,0,.531.208.531.437s-.179.316-.309.316c-.158,0-.308-.108-.308-.309,0-.186.143-.273.165-.28-.014-.007-.028-.007-.079-.007-.545,0-.846.638-.846,1.349v1.105c0,.258.014.337.545.337h.15v.223c-.287-.022-.624-.022-.911-.022-.201,0-.538.015-.818.022v-.223c.481,0,.56,0,.56-.323v-1.922c0-.352-.057-.402-.56-.402v-.222l.997-.079v.789c.101-.308.359-.789.882-.789Z"/>
      <path d="m26.053,56.438c-.452,0-1.148-.18-1.148-.761,0-.315.179-.689.718-.932.452-.215.954-.237,1.32-.259v-.265c0-.638-.409-.918-.76-.918-.23,0-.581.079-.774.33.33.007.366.244.366.331,0,.186-.129.33-.33.33-.187,0-.33-.122-.33-.337,0-.474.495-.811,1.083-.811.344,0,.703.115.983.395.258.265.258.545.258.847v1.434c0,.036.029.359.266.359.079,0,.258-.043.258-.458v-.402h.179v.402c0,.581-.437.681-.588.681-.337,0-.531-.301-.56-.588-.136.338-.466.624-.94.624Zm-.596-.768c0,.359.294.61.646.61.323,0,.839-.245.839-.926v-.718c-1.184.044-1.485.639-1.485,1.034Z"/>
      <path d="m29.432,55.483c0,.122,0,.775.481.775.265,0,.48-.272.48-.803v-.395h.179v.409c0,.46-.201.969-.71.969-.258,0-.926-.086-.926-.969v-1.98h-.61v-.158c.703-.029.918-.797.925-1.385h.179v1.32h1.026v.222h-1.026v1.994Z"/>
      <path d="m32.76,56.438c-.839,0-1.586-.689-1.586-1.614,0-.897.696-1.679,1.593-1.679.868,0,1.585.761,1.585,1.679,0,.911-.725,1.614-1.592,1.614Zm.839-.71c.158-.316.158-.703.158-.962,0-.273,0-.688-.187-.997-.187-.308-.495-.466-.811-.466-.287,0-.624.151-.818.48-.172.317-.172.703-.172.983,0,.259,0,.696.179,1.012.194.33.509.48.818.48.359,0,.674-.207.832-.53Z"/>
      <path d="m36.641,53.188c.308,0,.531.208.531.437s-.179.316-.309.316c-.158,0-.308-.108-.308-.309,0-.186.143-.273.165-.28-.014-.007-.028-.007-.079-.007-.545,0-.847.638-.847,1.349v1.105c0,.258.014.337.545.337h.15v.223c-.287-.022-.624-.022-.911-.022-.201,0-.538.015-.818.022v-.223c.481,0,.56,0,.56-.323v-1.922c0-.352-.057-.402-.56-.402v-.222l.997-.079v.789c.101-.308.359-.789.882-.789Z"/>
      <path d="m41.862,55.793c0,.265.022.344.667.344h.229v.223c-.251-.022-.875-.022-1.162-.022s-.911,0-1.162.022v-.223h.23c.645,0,.667-.086.667-.344v-3.717c-.373.187-.796.187-.94.187v-.223c.229,0,.861,0,1.306-.459.165,0,.165.014.165.187v4.025Z"/>
    </g>
    <circle class="cls-3" cx="62.556" cy="91.391" r="9.524" transform="translate(-35.808 142.284) rotate(-82.966)"/>
    <path class="cls-2" d="m67.481,90.34s-1.502,1.987-2.266,2.103c-.93.142-2.546-1.058-2.546-1.058,0,0-2.345-1.184-2.837-1.045-.712.201-2.084,2.103-2.084,2.103"/>
    <line class="cls-1" x1="144.03" y1="46.393" x2="147.13" y2="46.393"/>
    <polyline class="cls-1" points="108.782 54.044 108.782 46.394 123.808 46.393"/>
    <line class="cls-1" x1="108.782" y1="76.606" x2="108.782" y2="74.266"/>
    <polyline class="cls-1" points="72.331 91.571 93.778 91.571 93.778 77.642"/>
    <g>
      <path d="m46.693,109c-1.362,0-2.509-1.14-2.509-2.61s1.161-2.602,2.495-2.602c.71,0,1.097.387,1.326.617l.359-.531c.057-.086.086-.086.115-.086.079,0,.079.05.079.172v1.699c0,.151,0,.172-.115.172-.1,0-.1-.022-.115-.122-.143-1.054-.796-1.699-1.563-1.699-.43,0-1.842.237-1.842,2.38s1.419,2.387,1.885,2.387c.201,0,1.111-.065,1.111-.868v-.459c0-.265-.022-.344-.667-.344h-.229v-.222c.258.022.867.022,1.154.022.215,0,.609-.015.874-.022v.222c-.466,0-.495.036-.495.316v1.247c0,.107,0,.165-.064.165-.079,0-.366-.287-.459-.445-.243.423-.817.61-1.34.61Z"/>
      <path d="m50.417,108.262c.165.265.452.48.81.48.072,0,.717,0,.968-.739.014-.057.029-.1.093-.1.036,0,.093.015.093.086,0,.136-.323.932-1.197.932-.824,0-1.577-.695-1.577-1.656,0-.896.66-1.634,1.491-1.634.896,0,1.283.695,1.283,1.405,0,.151-.022.151-.179.151h-2c0,.258,0,.731.215,1.075Zm1.491-1.226c0-.28-.072-1.247-.81-1.247-.244,0-.846.179-.889,1.247h1.699Z"/>
      <path d="m52.82,105.975v-.222l1.011-.079v.753c.201-.445.537-.753,1.061-.753.416,0,.653.143.753.265.222.258.222.48.222,1.097v1.369c.007.215.186.215.559.215v.222c-.243-.007-.616-.022-.803-.022-.193,0-.559.015-.81.022v-.222c.48,0,.559,0,.559-.323v-1.67c0-.408-.079-.795-.53-.795-.459,0-.968.401-.968,1.147v1.319c0,.323.079.323.559.323v.222c-.243-.007-.616-.022-.803-.022-.193,0-.559.015-.81.022v-.222c.48,0,.559,0,.559-.323v-1.921c0-.351-.057-.402-.559-.402Z"/>
      <path d="m57.582,108.262c.165.265.452.48.81.48.072,0,.717,0,.968-.739.014-.057.029-.1.093-.1.036,0,.093.015.093.086,0,.136-.323.932-1.197.932-.824,0-1.577-.695-1.577-1.656,0-.896.66-1.634,1.491-1.634.896,0,1.283.695,1.283,1.405,0,.151-.022.151-.179.151h-2c0,.258,0,.731.215,1.075Zm1.491-1.226c0-.28-.072-1.247-.81-1.247-.244,0-.846.179-.889,1.247h1.699Z"/>
      <path d="m61.835,105.674c.308,0,.53.208.53.437s-.179.315-.308.315c-.158,0-.308-.108-.308-.308,0-.186.143-.272.165-.279-.015-.007-.029-.007-.079-.007-.545,0-.846.638-.846,1.347v1.104c0,.258.014.337.545.337h.151v.222c-.286-.022-.623-.022-.91-.022-.2,0-.537.015-.817.022v-.222c.48,0,.559,0,.559-.323v-1.921c0-.351-.057-.402-.559-.402v-.222l.996-.079v.788c.101-.308.359-.788.882-.788Z"/>
      <path d="m64.009,108.921c-.452,0-1.147-.179-1.147-.76,0-.315.179-.688.717-.932.452-.215.954-.237,1.319-.258v-.265c0-.638-.409-.918-.76-.918-.229,0-.581.079-.774.33.33.007.366.244.366.33,0,.186-.129.33-.33.33-.187,0-.33-.122-.33-.337,0-.473.495-.81,1.082-.81.344,0,.703.115.982.394.258.265.258.545.258.846v1.434c0,.035.029.358.265.358.079,0,.258-.043.258-.459v-.401h.179v.401c0,.581-.437.681-.588.681-.337,0-.53-.301-.559-.588-.136.337-.466.624-.939.624Zm-.595-.767c0,.359.294.61.645.61.323,0,.839-.244.839-.925v-.717c-1.183.043-1.484.638-1.484,1.032Z"/>
      <path d="m67.388,107.968c0,.122,0,.774.48.774.265,0,.48-.273.48-.803v-.395h.179v.409c0,.459-.201.968-.71.968-.258,0-.925-.086-.925-.968v-1.979h-.609v-.158c.703-.029.918-.796.925-1.383h.179v1.319h1.025v.222h-1.025v1.993Z"/>
      <path d="m70.715,108.921c-.839,0-1.584-.688-1.584-1.613,0-.896.695-1.677,1.591-1.677.867,0,1.584.76,1.584,1.677,0,.91-.724,1.613-1.591,1.613Zm.838-.709c.158-.315.158-.703.158-.961,0-.272,0-.688-.186-.997-.186-.308-.494-.466-.81-.466-.287,0-.623.15-.817.48-.172.316-.172.702-.172.982,0,.258,0,.695.179,1.011.193.33.509.48.817.48.359,0,.674-.208.831-.53Z"/>
      <path d="m74.596,105.674c.308,0,.53.208.53.437s-.179.315-.309.315c-.158,0-.308-.108-.308-.308,0-.186.143-.272.165-.279-.014-.007-.029-.007-.079-.007-.545,0-.846.638-.846,1.347v1.104c0,.258.014.337.544.337h.151v.222c-.286-.022-.624-.022-.911-.022-.2,0-.537.015-.817.022v-.222c.48,0,.559,0,.559-.323v-1.921c0-.351-.057-.402-.559-.402v-.222l.996-.079v.788c.101-.308.359-.788.882-.788Z"/>
      <path d="m79.911,108.291c.158,0,.631,0,.681-.058.072-.107.122-.423.157-.638h.179l-.2,1.247h-2.66c0-.172,0-.186.079-.266l1.376-1.534c.394-.445.753-1.011.753-1.584,0-.588-.308-1.169-.961-1.169-.416,0-.803.265-.968.731.021-.007.036-.007.093-.007.251,0,.38.186.38.373,0,.294-.25.38-.373.38-.021,0-.38,0-.38-.402,0-.638.53-1.297,1.34-1.297.875,0,1.52.573,1.52,1.391,0,.717-.43,1.104-1.548,2.093l-.76.738h1.29Z"/>
    </g>
    <g>
      <polyline class="cls-1" points="128.411 91.572 108.867 91.571 108.694 77.514"/>
      <polygon class="cls-13" points="125.602 87.869 127.175 91.572 125.602 95.275 134.38 91.573 125.602 87.869"/>
    </g>
    <polyline class="cls-1" points="147.04 46.393 161.241 46.393 161.241 60.895"/>
    <path class="cls-1" d="m168.599,68.316c0-3.915-3.174-7.087-7.087-7.087s-7.087,3.172-7.087,7.087,3.172,7.087,7.087,7.087,7.087-3.174,7.087-7.087Z"/>
    <path class="cls-7" d="m166.472,68.316c0-2.74-2.221-4.96-4.96-4.96s-4.96,2.22-4.96,4.96,2.221,4.96,4.96,4.96,4.96-2.222,4.96-4.96Z"/>
    <path class="cls-13" d="m163.049,70.711c-.243.121-.73.243-1.352.243-1.443,0-2.529-.912-2.529-2.59,0-1.603,1.087-2.689,2.674-2.689.638,0,1.041.137,1.215.228l-.16.539c-.25-.121-.607-.213-1.033-.213-1.2,0-1.997.767-1.997,2.111,0,1.253.721,2.059,1.967,2.059.403,0,.813-.083,1.079-.213l.137.524Z"/>
    <g>
      <path d="m122.737,78.297c0,.674-.645,1.313-1.6,1.313h-2.812v-.223h.172c.553,0,.567-.079.567-.337v-3.781c0-.258-.014-.338-.567-.338h-.172v-.222h2.625c.933,0,1.593.589,1.593,1.212,0,.531-.495.99-1.191,1.127.796.086,1.384.624,1.384,1.249Zm-2.037-1.314c.796,0,1.148-.602,1.148-1.062,0-.38-.251-.99-.947-.99h-.889c-.337,0-.351.051-.351.287v1.765h1.04Zm1.32,1.306c0-.48-.301-1.148-1.011-1.148h-1.349v1.958c0,.237.014.287.351.287h.897c.739,0,1.112-.588,1.112-1.097Z"/>
      <path d="m125.025,79.688c-1.09,0-1.09-.653-1.09-1.212v-1.076c0-.639,0-.66-.56-.66v-.223l1.055-.079v2.381c0,.373.028.711.631.711.524,0,.868-.488.868-1.112v-1.277c0-.352-.058-.401-.56-.401v-.223l1.055-.079v2.547c0,.352.057.401.559.401v.223l-1.033.079v-.646c-.208.444-.524.646-.926.646Z"/>
      <path d="m127.672,77.888c-.194-.157-.309-.359-.309-.61,0-.402.273-.882,1.148-.882.108,0,.402,0,.675.2.028-.021.1-.086.122-.115.093-.086.107-.086.143-.086.079,0,.079.05.079.172v.724c0,.136,0,.172-.093.172-.014,0-.079,0-.086-.065-.014-.222-.05-.868-.84-.868-.617,0-.803.294-.803.545,0,.416.481.509.883.588.301.057.581.115.818.344.086.087.301.302.301.682,0,.516-.33.997-1.155.997-.151,0-.474-.007-.789-.309-.129.136-.129.151-.143.165-.136.136-.143.143-.179.143-.079,0-.079-.05-.079-.172v-.947c0-.129,0-.179.094-.179.072,0,.079.029.1.122.136.61.395,1.019.997,1.019.56,0,.811-.287.811-.653,0-.517-.588-.632-.746-.66-.516-.1-.717-.143-.947-.33Z"/>
      <path d="m134.544,79.057c.158,0,.631,0,.681-.058.072-.108.122-.423.158-.638h.179l-.201,1.249h-2.662c0-.172,0-.187.079-.266l1.377-1.535c.394-.445.753-1.012.753-1.586,0-.588-.308-1.169-.961-1.169-.416,0-.804.265-.968.731.021-.007.036-.007.093-.007.251,0,.38.187.38.373,0,.294-.251.38-.373.38-.021,0-.38,0-.38-.402,0-.639.531-1.299,1.342-1.299.875,0,1.521.575,1.521,1.392,0,.717-.43,1.105-1.549,2.095l-.76.739h1.291Z"/>
    </g>
    <g>
      <path d="m142.862,20.232c0,.675-.645,1.313-1.6,1.313h-2.812v-.223h.172c.553,0,.567-.079.567-.337v-3.781c0-.257-.014-.337-.567-.337h-.172v-.222h2.625c.933,0,1.593.588,1.593,1.212,0,.531-.495.99-1.191,1.126.796.086,1.384.624,1.384,1.248Zm-2.037-1.313c.796,0,1.148-.602,1.148-1.062,0-.38-.251-.99-.947-.99h-.889c-.337,0-.351.05-.351.287v1.765h1.04Zm1.32,1.306c0-.481-.301-1.148-1.011-1.148h-1.349v1.958c0,.237.014.287.351.287h.897c.739,0,1.112-.588,1.112-1.098Z"/>
      <path d="m145.149,21.624c-1.09,0-1.09-.653-1.09-1.212v-1.077c0-.639,0-.66-.56-.66v-.222l1.055-.079v2.381c0,.373.028.711.631.711.524,0,.868-.488.868-1.112v-1.277c0-.352-.058-.402-.56-.402v-.222l1.055-.079v2.547c0,.351.057.401.559.401v.223l-1.033.079v-.645c-.208.444-.524.645-.926.645Z"/>
      <path d="m147.796,19.823c-.194-.158-.309-.359-.309-.609,0-.402.273-.883,1.148-.883.108,0,.402,0,.675.201.028-.021.1-.086.122-.115.093-.086.108-.086.143-.086.079,0,.079.051.079.173v.724c0,.136,0,.172-.093.172-.014,0-.079,0-.086-.065-.014-.223-.05-.868-.84-.868-.617,0-.803.294-.803.546,0,.416.481.509.882.588.301.058.581.115.818.345.086.086.301.301.301.682,0,.516-.33.997-1.155.997-.151,0-.473-.007-.789-.309-.129.136-.129.151-.143.165-.136.136-.143.144-.179.144-.079,0-.079-.051-.079-.172v-.947c0-.13,0-.179.094-.179.072,0,.079.029.1.122.136.61.395,1.02.997,1.02.56,0,.811-.288.811-.653,0-.517-.589-.631-.746-.66-.516-.1-.717-.143-.947-.331Z"/>
      <path d="m155.745,20.318c0,.732-.653,1.384-1.528,1.384-.782,0-1.449-.474-1.449-1.126,0-.316.23-.416.402-.416.208,0,.402.144.402.402,0,.273-.223.43-.474.394.251.423.789.545,1.098.545.316,0,.811-.208.811-1.183,0-.703-.265-1.191-.854-1.191h-.315c-.122,0-.172,0-.172-.079,0-.072.05-.079.108-.086.05,0,.223-.014.28-.021.179-.007.423-.029.638-.373.187-.316.201-.732.201-.818,0-.645-.394-.803-.689-.803-.258,0-.732.093-.954.444.108,0,.445,0,.445.359,0,.208-.143.366-.366.366-.208,0-.366-.136-.366-.373,0-.546.545-.976,1.27-.976.689,0,1.32.402,1.32.99,0,.567-.416,1.069-1.004,1.263.746.15,1.198.71,1.198,1.299Z"/>
    </g>
    <text class="cls-11" transform="translate(59.232 29.539)"><tspan x="0" y="0">30.49</tspan></text>
    <g>
      <line class="cls-4" x1="59.232" y1="31.427" x2="75.462" y2="31.427"/>
      <polygon class="cls-10" points="74.126 33.336 74.939 31.427 74.126 29.516 78.655 31.426 74.126 33.336"/>
    </g>
    <g>
      <line class="cls-4" x1="124.207" y1="31.427" x2="140.437" y2="31.427"/>
      <polygon class="cls-10" points="139.101 33.336 139.914 31.427 139.101 29.516 143.63 31.427 139.101 33.336"/>
    </g>
    <text class="cls-11" transform="translate(124.207 29.539)"><tspan x="0" y="0">30.21</tspan></text>
    <text class="cls-11" transform="translate(59.327 44.506)"><tspan x="0" y="0">16.60</tspan></text>
    <g>
      <line class="cls-4" x1="59.325" y1="46.394" x2="75.557" y2="46.394"/>
      <polygon class="cls-10" points="74.221 48.303 75.035 46.394 74.221 44.483 78.751 46.394 74.221 48.303"/>
    </g>
    <g>
      <line class="cls-4" x1="93.88" y1="54.443" x2="93.879" y2="70.673"/>
      <polygon class="cls-10" points="91.97 69.337 93.879 70.15 95.79 69.337 93.879 73.866 91.97 69.337"/>
    </g>
    <text class="cls-11" transform="translate(78.245 65.288)"><tspan x="0" y="0">14.80</tspan></text>
    <g>
      <line class="cls-4" x1="108.781" y1="73.866" x2="108.781" y2="57.637"/>
      <polygon class="cls-10" points="106.872 58.973 108.781 58.16 110.692 58.973 108.781 54.443 106.872 58.973"/>
    </g>
    <text class="cls-11" transform="translate(110.813 65.288)"><tspan x="0" y="0">12.40</tspan></text>
    <g>
      <line class="cls-4" x1="124.207" y1="46.394" x2="140.437" y2="46.394"/>
      <polygon class="cls-10" points="139.101 48.303 139.914 46.394 139.101 44.483 143.63 46.394 139.101 48.303"/>
    </g>
    <text class="cls-11" transform="translate(124.207 44.505)"><tspan x="0" y="0">11.89</tspan></text>
    <text class="cls-11" transform="translate(150.694 29.381)"><tspan x="0" y="0">42.00</tspan></text>
    <g>
      <line class="cls-4" x1="150.777" y1="31.427" x2="166.923" y2="31.427"/>
      <polygon class="cls-10" points="165.587 33.336 166.401 31.427 165.587 29.516 170.117 31.426 165.587 33.336"/>
    </g>
    <text class="cls-11" transform="translate(200.215 29.381)"><tspan x="0" y="0">42.00</tspan></text>
    <g>
      <line class="cls-4" x1="200.273" y1="31.427" x2="216.445" y2="31.427"/>
      <polygon class="cls-10" points="215.109 33.336 215.922 31.427 215.109 29.516 219.638 31.426 215.109 33.336"/>
    </g>
    <line class="cls-5" x1="197.662" y1="31.426" x2="199.873" y2="31.426"/>
  </g>
  <rect class="cls-9" x="259.451" y=".291" width="254.826" height="117.264" rx="4" ry="4"/>
  <g>
    <line class="cls-5" x1="429.678" y1="31.426" x2="431.889" y2="31.426"/>
    <line class="cls-3" x1="403.191" y1="31.426" x2="406.29" y2="31.426"/>
    <line class="cls-3" x1="338.215" y1="31.426" x2="382.968" y2="31.426"/>
    <line class="cls-3" x1="315.347" y1="31.426" x2="317.992" y2="31.426"/>
    <g>
      <line class="cls-1" x1="502.371" y1="31.426" x2="482.829" y2="31.426"/>
      <polygon class="cls-13" points="499.563 27.723 501.136 31.426 499.563 35.129 508.341 31.426 499.563 27.723"/>
    </g>
    <line class="cls-8" x1="314.829" y1="23.943" x2="314.829" y2="53.876"/>
    <line class="cls-1" x1="318.086" y1="46.393" x2="314.692" y2="46.393"/>
    <polyline class="cls-1" points="353.041 54.044 353.041 46.394 338.312 46.393"/>
    <line class="cls-1" x1="353.041" y1="76.606" x2="353.041" y2="74.266"/>
    <line class="cls-8" x1="345.556" y1="77.16" x2="375.49" y2="77.16"/>
    <line class="cls-8" x1="406.287" y1="23.943" x2="406.287" y2="53.876"/>
    <line class="cls-3" x1="314.606" y1="39.067" x2="289.094" y2="39.068"/>
    <circle class="cls-3" cx="283.654" cy="38.91" r="9.524" transform="translate(-2.567 46.077) rotate(-9.245)"/>
    <path class="cls-2" d="m288.462,37.858s-1.502,1.987-2.266,2.103c-.93.142-2.546-1.058-2.546-1.058,0,0-2.345-1.184-2.837-1.045-.712.202-2.084,2.103-2.084,2.103"/>
    <line class="cls-8" x1="482.499" y1="16.459" x2="482.499" y2="46.393"/>
    <line class="cls-5" x1="407.317" y1="31.426" x2="409.528" y2="31.426"/>
    <g>
      <circle class="cls-6" cx="440.654" cy="31.426" r="8.334"/>
      <circle class="cls-5" cx="448.08" cy="31.426" r="8.334"/>
    </g>
    <line class="cls-5" x1="479.2" y1="31.426" x2="481.795" y2="31.426"/>
    <g>
      <path d="m310.729,20.311c0,.674-.645,1.313-1.599,1.313h-2.812v-.222h.172c.553,0,.567-.079.567-.337v-3.781c0-.258-.014-.337-.567-.337h-.172v-.222h2.625c.933,0,1.593.588,1.593,1.212,0,.531-.495.99-1.191,1.126.796.086,1.384.624,1.384,1.248Zm-2.037-1.313c.796,0,1.148-.603,1.148-1.062,0-.38-.251-.99-.947-.99h-.89c-.337,0-.351.05-.351.287v1.765h1.04Zm1.32,1.306c0-.481-.301-1.148-1.011-1.148h-1.349v1.959c0,.237.014.287.351.287h.897c.739,0,1.112-.588,1.112-1.097Z"/>
      <path d="m313.017,21.703c-1.09,0-1.09-.653-1.09-1.212v-1.076c0-.638,0-.66-.56-.66v-.222l1.055-.08v2.382c0,.373.028.71.631.71.524,0,.868-.488.868-1.112v-1.278c0-.352-.058-.401-.56-.401v-.222l1.055-.08v2.547c0,.352.057.401.559.401v.222l-1.033.079v-.645c-.208.445-.524.645-.925.645Z"/>
      <path d="m315.664,19.902c-.194-.158-.309-.359-.309-.61,0-.401.273-.882,1.148-.882.108,0,.402,0,.675.201.028-.022.1-.087.122-.115.093-.087.108-.087.144-.087.079,0,.079.051.079.172v.725c0,.136,0,.172-.093.172-.014,0-.079,0-.086-.065-.014-.223-.05-.868-.839-.868-.617,0-.803.294-.803.546,0,.416.481.509.882.588.301.058.581.115.818.345.086.086.301.301.301.681,0,.517-.33.997-1.155.997-.151,0-.474-.007-.789-.308-.129.137-.129.151-.143.165-.136.137-.143.144-.179.144-.079,0-.079-.05-.079-.172v-.947c0-.129,0-.179.093-.179.072,0,.079.029.1.122.136.61.395,1.019.997,1.019.56,0,.811-.287.811-.652,0-.517-.588-.631-.746-.66-.516-.101-.717-.144-.947-.331Z"/>
      <path d="m322.443,21.057c0,.266.022.344.667.344h.23v.222c-.251-.021-.875-.021-1.162-.021s-.911,0-1.162.021v-.222h.229c.645,0,.667-.086.667-.344v-3.716c-.373.186-.796.186-.94.186v-.222c.23,0,.861,0,1.306-.459.165,0,.165.014.165.186v4.025Z"/>
    </g>
    <g>
      <path d="m477.814,12.833c0,.674-.645,1.313-1.599,1.313h-2.812v-.223h.172c.553,0,.567-.079.567-.337v-3.781c0-.258-.014-.337-.567-.337h-.172v-.222h2.625c.933,0,1.593.588,1.593,1.212,0,.531-.495.99-1.19,1.127.796.087,1.384.624,1.384,1.249Zm-2.038-1.314c.797,0,1.148-.603,1.148-1.062,0-.38-.251-.99-.947-.99h-.889c-.337,0-.351.051-.351.287v1.765h1.04Zm1.32,1.306c0-.48-.302-1.147-1.012-1.147h-1.349v1.958c0,.237.014.287.351.287h.896c.739,0,1.112-.588,1.112-1.097Z"/>
      <path d="m480.101,14.224c-1.09,0-1.09-.653-1.09-1.212v-1.077c0-.639,0-.659-.56-.659v-.223l1.055-.079v2.382c0,.373.028.711.631.711.524,0,.868-.488.868-1.112v-1.277c0-.352-.058-.402-.56-.402v-.223l1.055-.079v2.547c0,.352.058.402.56.402v.223l-1.033.079v-.645c-.208.444-.524.645-.926.645Z"/>
      <path d="m482.749,12.423c-.194-.158-.309-.359-.309-.61,0-.402.273-.882,1.147-.882.108,0,.402,0,.675.201.028-.021.1-.086.122-.115.093-.086.108-.086.143-.086.079,0,.079.05.079.172v.724c0,.136,0,.172-.093.172-.015,0-.079,0-.086-.065-.014-.222-.05-.868-.84-.868-.617,0-.803.294-.803.545,0,.416.48.509.882.588.301.057.581.115.818.344.086.086.301.302.301.682,0,.516-.33.997-1.154.997-.151,0-.474-.007-.79-.309-.129.136-.129.151-.143.165-.136.136-.143.144-.179.144-.079,0-.079-.05-.079-.172v-.947c0-.129,0-.179.093-.179.072,0,.079.029.1.122.136.61.395,1.019.998,1.019.56,0,.811-.287.811-.653,0-.517-.588-.631-.747-.66-.516-.1-.717-.143-.946-.33Z"/>
      <path d="m487.618,12.961v-.222l2.203-3.364c.057-.087.079-.087.143-.087.115,0,.115.043.115.187v3.264h.717v.222h-.717v.624c0,.258.015.337.546.337h.15v.223c-.295-.022-.674-.022-.976-.022s-.674,0-.968.022v-.223h.15c.531,0,.545-.079.545-.337v-.624h-1.908Zm1.952-2.898l-1.751,2.676h1.751v-2.676Z"/>
    </g>
    <g>
      <path d="m267.899,56.517c-1.363,0-2.511-1.14-2.511-2.611s1.162-2.604,2.497-2.604c.71,0,1.097.388,1.327.617l.359-.532c.057-.086.086-.086.115-.086.079,0,.079.051.079.172v1.701c0,.15,0,.172-.115.172-.1,0-.1-.021-.114-.122-.144-1.054-.797-1.7-1.564-1.7-.43,0-1.844.238-1.844,2.382s1.42,2.389,1.886,2.389c.201,0,1.112-.065,1.112-.869v-.459c0-.266-.021-.345-.667-.345h-.229v-.222c.258.021.868.021,1.155.021.215,0,.61-.014.875-.021v.222c-.466,0-.495.037-.495.316v1.247c0,.108,0,.166-.065.166-.079,0-.366-.288-.459-.446-.244.423-.818.61-1.341.61Z"/>
      <path d="m271.621,55.778c.165.265.452.48.811.48.072,0,.718,0,.968-.738.014-.058.029-.1.093-.1.036,0,.093.015.093.086,0,.136-.323.932-1.198.932-.825,0-1.579-.696-1.579-1.657,0-.896.66-1.636,1.492-1.636.897,0,1.284.696,1.284,1.406,0,.15-.022.15-.18.15h-2.001c0,.259,0,.733.215,1.077Zm1.492-1.227c0-.28-.072-1.248-.811-1.248-.244,0-.846.179-.89,1.248h1.7Z"/>
      <path d="m274.024,53.489v-.222l1.011-.079v.753c.201-.445.538-.753,1.062-.753.416,0,.653.143.753.265.223.258.223.481.223,1.097v1.37c.007.215.186.215.559.215v.223c-.244-.007-.617-.022-.803-.022-.194,0-.56.015-.811.022v-.223c.481,0,.56,0,.56-.323v-1.672c0-.409-.079-.796-.531-.796-.459,0-.969.402-.969,1.147v1.32c0,.323.079.323.559.323v.223c-.244-.007-.617-.022-.803-.022-.194,0-.56.015-.811.022v-.223c.481,0,.56,0,.56-.323v-1.922c0-.352-.058-.402-.56-.402Z"/>
      <path d="m278.787,55.778c.165.265.452.48.811.48.072,0,.717,0,.968-.738.014-.058.029-.1.093-.1.036,0,.094.015.094.086,0,.136-.323.932-1.198.932-.825,0-1.578-.696-1.578-1.657,0-.896.66-1.636,1.492-1.636.897,0,1.284.696,1.284,1.406,0,.15-.022.15-.18.15h-2.001c0,.259,0,.733.215,1.077Zm1.492-1.227c0-.28-.072-1.248-.811-1.248-.244,0-.847.179-.889,1.248h1.7Z"/>
      <path d="m283.04,53.188c.308,0,.531.208.531.437s-.179.316-.309.316c-.158,0-.308-.108-.308-.309,0-.186.143-.273.165-.28-.014-.007-.028-.007-.079-.007-.545,0-.846.638-.846,1.349v1.105c0,.258.014.337.545.337h.15v.223c-.287-.022-.624-.022-.911-.022-.201,0-.538.015-.818.022v-.223c.481,0,.56,0,.56-.323v-1.922c0-.352-.057-.402-.56-.402v-.222l.997-.079v.789c.101-.308.359-.789.882-.789Z"/>
      <path d="m285.214,56.438c-.452,0-1.148-.18-1.148-.761,0-.315.179-.689.718-.932.452-.215.954-.237,1.32-.259v-.265c0-.638-.409-.918-.76-.918-.23,0-.581.079-.774.33.33.007.366.244.366.331,0,.186-.129.33-.33.33-.187,0-.33-.122-.33-.337,0-.474.495-.811,1.083-.811.344,0,.703.115.983.395.258.265.258.545.258.847v1.434c0,.036.029.359.266.359.079,0,.258-.043.258-.458v-.402h.179v.402c0,.581-.437.681-.588.681-.337,0-.531-.301-.56-.588-.136.338-.466.624-.94.624Zm-.596-.768c0,.359.294.61.646.61.323,0,.839-.245.839-.926v-.718c-1.184.044-1.485.639-1.485,1.034Z"/>
      <path d="m288.592,55.483c0,.122,0,.775.481.775.265,0,.48-.272.48-.803v-.395h.179v.409c0,.46-.201.969-.71.969-.258,0-.926-.086-.926-.969v-1.98h-.61v-.158c.703-.029.918-.797.925-1.385h.179v1.32h1.026v.222h-1.026v1.994Z"/>
      <path d="m291.92,56.438c-.839,0-1.586-.689-1.586-1.614,0-.897.696-1.679,1.593-1.679.868,0,1.585.761,1.585,1.679,0,.911-.725,1.614-1.592,1.614Zm.839-.71c.158-.316.158-.703.158-.962,0-.273,0-.688-.187-.997-.187-.308-.495-.466-.811-.466-.287,0-.624.151-.818.48-.172.317-.172.703-.172.983,0,.259,0,.696.179,1.012.194.33.509.48.818.48.359,0,.674-.207.832-.53Z"/>
      <path d="m295.801,53.188c.308,0,.531.208.531.437s-.179.316-.309.316c-.158,0-.308-.108-.308-.309,0-.186.143-.273.165-.28-.014-.007-.028-.007-.079-.007-.545,0-.847.638-.847,1.349v1.105c0,.258.014.337.545.337h.15v.223c-.287-.022-.624-.022-.911-.022-.201,0-.538.015-.818.022v-.223c.481,0,.56,0,.56-.323v-1.922c0-.352-.057-.402-.56-.402v-.222l.997-.079v.789c.101-.308.359-.789.882-.789Z"/>
      <path d="m301.023,55.793c0,.265.022.344.667.344h.229v.223c-.251-.022-.875-.022-1.162-.022s-.911,0-1.162.022v-.223h.23c.645,0,.667-.086.667-.344v-3.717c-.373.187-.796.187-.94.187v-.223c.229,0,.861,0,1.306-.459.165,0,.165.014.165.187v4.025Z"/>
    </g>
    <circle class="cls-3" cx="321.717" cy="91.391" r="9.524" transform="translate(191.614 399.494) rotate(-82.966)"/>
    <path class="cls-2" d="m326.641,90.34s-1.502,1.987-2.266,2.103c-.93.142-2.546-1.058-2.546-1.058,0,0-2.345-1.184-2.837-1.045-.712.201-2.084,2.103-2.084,2.103"/>
    <line class="cls-1" x1="403.191" y1="46.393" x2="406.29" y2="46.393"/>
    <polyline class="cls-1" points="367.942 54.044 367.942 46.394 382.968 46.393"/>
    <line class="cls-1" x1="367.942" y1="76.606" x2="367.942" y2="74.266"/>
    <polyline class="cls-1" points="331.491 91.571 352.938 91.571 352.938 77.642"/>
    <g>
      <path d="m305.853,109c-1.362,0-2.509-1.14-2.509-2.61s1.161-2.602,2.495-2.602c.71,0,1.097.387,1.326.617l.359-.531c.057-.086.086-.086.115-.086.079,0,.079.05.079.172v1.699c0,.151,0,.172-.115.172-.1,0-.1-.022-.115-.122-.143-1.054-.796-1.699-1.563-1.699-.43,0-1.842.237-1.842,2.38s1.419,2.387,1.885,2.387c.201,0,1.111-.065,1.111-.868v-.459c0-.265-.022-.344-.667-.344h-.229v-.222c.258.022.867.022,1.154.022.215,0,.609-.015.874-.022v.222c-.466,0-.495.036-.495.316v1.247c0,.107,0,.165-.064.165-.079,0-.366-.287-.459-.445-.243.423-.817.61-1.34.61Z"/>
      <path d="m309.577,108.262c.165.265.452.48.81.48.072,0,.717,0,.968-.739.014-.057.029-.1.093-.1.036,0,.093.015.093.086,0,.136-.323.932-1.197.932-.824,0-1.577-.695-1.577-1.656,0-.896.66-1.634,1.491-1.634.896,0,1.283.695,1.283,1.405,0,.151-.022.151-.179.151h-2c0,.258,0,.731.215,1.075Zm1.491-1.226c0-.28-.072-1.247-.81-1.247-.244,0-.846.179-.889,1.247h1.699Z"/>
      <path d="m311.98,105.975v-.222l1.011-.079v.753c.201-.445.537-.753,1.061-.753.416,0,.653.143.753.265.222.258.222.48.222,1.097v1.369c.007.215.186.215.559.215v.222c-.243-.007-.616-.022-.803-.022-.193,0-.559.015-.81.022v-.222c.48,0,.559,0,.559-.323v-1.67c0-.408-.079-.795-.53-.795-.459,0-.968.401-.968,1.147v1.319c0,.323.079.323.559.323v.222c-.243-.007-.616-.022-.803-.022-.193,0-.559.015-.81.022v-.222c.48,0,.559,0,.559-.323v-1.921c0-.351-.057-.402-.559-.402Z"/>
      <path d="m316.743,108.262c.165.265.452.48.81.48.072,0,.717,0,.968-.739.014-.057.029-.1.093-.1.036,0,.093.015.093.086,0,.136-.323.932-1.197.932-.824,0-1.577-.695-1.577-1.656,0-.896.66-1.634,1.491-1.634.896,0,1.283.695,1.283,1.405,0,.151-.022.151-.179.151h-2c0,.258,0,.731.215,1.075Zm1.491-1.226c0-.28-.072-1.247-.81-1.247-.244,0-.846.179-.889,1.247h1.699Z"/>
      <path d="m320.996,105.674c.308,0,.53.208.53.437s-.179.315-.308.315c-.158,0-.308-.108-.308-.308,0-.186.143-.272.165-.279-.015-.007-.029-.007-.079-.007-.545,0-.846.638-.846,1.347v1.104c0,.258.014.337.545.337h.151v.222c-.286-.022-.623-.022-.91-.022-.2,0-.537.015-.817.022v-.222c.48,0,.559,0,.559-.323v-1.921c0-.351-.057-.402-.559-.402v-.222l.996-.079v.788c.101-.308.359-.788.882-.788Z"/>
      <path d="m323.169,108.921c-.452,0-1.147-.179-1.147-.76,0-.315.179-.688.717-.932.452-.215.954-.237,1.319-.258v-.265c0-.638-.409-.918-.76-.918-.229,0-.581.079-.774.33.33.007.366.244.366.33,0,.186-.129.33-.33.33-.187,0-.33-.122-.33-.337,0-.473.495-.81,1.082-.81.344,0,.703.115.982.394.258.265.258.545.258.846v1.434c0,.035.029.358.265.358.079,0,.258-.043.258-.459v-.401h.179v.401c0,.581-.437.681-.588.681-.337,0-.53-.301-.559-.588-.136.337-.466.624-.939.624Zm-.595-.767c0,.359.294.61.645.61.323,0,.839-.244.839-.925v-.717c-1.183.043-1.484.638-1.484,1.032Z"/>
      <path d="m326.548,107.968c0,.122,0,.774.48.774.265,0,.48-.273.48-.803v-.395h.179v.409c0,.459-.201.968-.71.968-.258,0-.925-.086-.925-.968v-1.979h-.609v-.158c.703-.029.918-.796.925-1.383h.179v1.319h1.025v.222h-1.025v1.993Z"/>
      <path d="m329.876,108.921c-.839,0-1.584-.688-1.584-1.613,0-.896.695-1.677,1.591-1.677.867,0,1.584.76,1.584,1.677,0,.91-.724,1.613-1.591,1.613Zm.838-.709c.158-.315.158-.703.158-.961,0-.272,0-.688-.186-.997-.186-.308-.494-.466-.81-.466-.287,0-.623.15-.817.48-.172.316-.172.702-.172.982,0,.258,0,.695.179,1.011.193.33.509.48.817.48.359,0,.674-.208.831-.53Z"/>
      <path d="m333.757,105.674c.308,0,.53.208.53.437s-.179.315-.309.315c-.158,0-.308-.108-.308-.308,0-.186.143-.272.165-.279-.014-.007-.029-.007-.079-.007-.545,0-.846.638-.846,1.347v1.104c0,.258.014.337.544.337h.151v.222c-.286-.022-.624-.022-.911-.022-.2,0-.537.015-.817.022v-.222c.48,0,.559,0,.559-.323v-1.921c0-.351-.057-.402-.559-.402v-.222l.996-.079v.788c.101-.308.359-.788.882-.788Z"/>
      <path d="m339.071,108.291c.158,0,.631,0,.681-.058.072-.107.122-.423.157-.638h.179l-.2,1.247h-2.66c0-.172,0-.186.079-.266l1.376-1.534c.394-.445.753-1.011.753-1.584,0-.588-.308-1.169-.961-1.169-.416,0-.803.265-.968.731.021-.007.036-.007.093-.007.251,0,.38.186.38.373,0,.294-.25.38-.373.38-.021,0-.38,0-.38-.402,0-.638.53-1.297,1.34-1.297.875,0,1.52.573,1.52,1.391,0,.717-.43,1.104-1.548,2.093l-.76.738h1.29Z"/>
    </g>
    <g>
      <polyline class="cls-1" points="387.571 91.572 368.027 91.571 367.854 77.514"/>
      <polygon class="cls-13" points="384.762 87.869 386.336 91.572 384.762 95.275 393.541 91.573 384.762 87.869"/>
    </g>
    <polyline class="cls-1" points="406.2 46.393 420.401 46.393 420.401 60.895"/>
    <path class="cls-1" d="m427.759,68.316c0-3.915-3.174-7.087-7.087-7.087s-7.087,3.172-7.087,7.087,3.172,7.087,7.087,7.087,7.087-3.174,7.087-7.087Z"/>
    <path class="cls-7" d="m425.632,68.316c0-2.74-2.221-4.96-4.96-4.96s-4.96,2.22-4.96,4.96,2.221,4.96,4.96,4.96,4.96-2.222,4.96-4.96Z"/>
    <path class="cls-13" d="m422.21,70.711c-.243.121-.73.243-1.352.243-1.443,0-2.529-.912-2.529-2.59,0-1.603,1.087-2.689,2.674-2.689.638,0,1.041.137,1.215.228l-.16.539c-.25-.121-.607-.213-1.033-.213-1.2,0-1.997.767-1.997,2.111,0,1.253.721,2.059,1.967,2.059.403,0,.813-.083,1.079-.213l.137.524Z"/>
    <g>
      <path d="m381.898,78.297c0,.674-.645,1.313-1.6,1.313h-2.812v-.223h.172c.553,0,.567-.079.567-.337v-3.781c0-.258-.014-.338-.567-.338h-.172v-.222h2.625c.933,0,1.593.589,1.593,1.212,0,.531-.495.99-1.191,1.127.796.086,1.384.624,1.384,1.249Zm-2.037-1.314c.796,0,1.148-.602,1.148-1.062,0-.38-.251-.99-.947-.99h-.889c-.337,0-.351.051-.351.287v1.765h1.04Zm1.32,1.306c0-.48-.301-1.148-1.011-1.148h-1.349v1.958c0,.237.014.287.351.287h.897c.739,0,1.112-.588,1.112-1.097Z"/>
      <path d="m384.185,79.688c-1.09,0-1.09-.653-1.09-1.212v-1.076c0-.639,0-.66-.56-.66v-.223l1.055-.079v2.381c0,.373.028.711.631.711.524,0,.868-.488.868-1.112v-1.277c0-.352-.058-.401-.56-.401v-.223l1.055-.079v2.547c0,.352.057.401.559.401v.223l-1.033.079v-.646c-.208.444-.524.646-.926.646Z"/>
      <path d="m386.832,77.888c-.194-.157-.309-.359-.309-.61,0-.402.273-.882,1.148-.882.108,0,.402,0,.675.2.028-.021.1-.086.122-.115.093-.086.107-.086.143-.086.079,0,.079.05.079.172v.724c0,.136,0,.172-.093.172-.014,0-.079,0-.086-.065-.014-.222-.05-.868-.84-.868-.617,0-.803.294-.803.545,0,.416.481.509.883.588.301.057.581.115.818.344.086.087.301.302.301.682,0,.516-.33.997-1.155.997-.151,0-.474-.007-.789-.309-.129.136-.129.151-.143.165-.136.136-.143.143-.179.143-.079,0-.079-.05-.079-.172v-.947c0-.129,0-.179.094-.179.072,0,.079.029.1.122.136.61.395,1.019.997,1.019.56,0,.811-.287.811-.653,0-.517-.588-.632-.746-.66-.516-.1-.717-.143-.947-.33Z"/>
      <path d="m393.704,79.057c.158,0,.631,0,.681-.058.072-.108.122-.423.158-.638h.179l-.201,1.249h-2.662c0-.172,0-.187.079-.266l1.377-1.535c.394-.445.753-1.012.753-1.586,0-.588-.308-1.169-.961-1.169-.416,0-.804.265-.968.731.021-.007.036-.007.093-.007.251,0,.38.187.38.373,0,.294-.251.38-.373.38-.021,0-.38,0-.38-.402,0-.639.531-1.299,1.342-1.299.875,0,1.521.575,1.521,1.392,0,.717-.43,1.105-1.549,2.095l-.76.739h1.291Z"/>
    </g>
    <g>
      <path d="m402.022,20.232c0,.675-.645,1.313-1.6,1.313h-2.812v-.223h.172c.553,0,.567-.079.567-.337v-3.781c0-.257-.014-.337-.567-.337h-.172v-.222h2.625c.933,0,1.593.588,1.593,1.212,0,.531-.495.99-1.191,1.126.796.086,1.384.624,1.384,1.248Zm-2.037-1.313c.796,0,1.148-.602,1.148-1.062,0-.38-.251-.99-.947-.99h-.889c-.337,0-.351.05-.351.287v1.765h1.04Zm1.32,1.306c0-.481-.301-1.148-1.011-1.148h-1.349v1.958c0,.237.014.287.351.287h.897c.739,0,1.112-.588,1.112-1.098Z"/>
      <path d="m404.31,21.624c-1.09,0-1.09-.653-1.09-1.212v-1.077c0-.639,0-.66-.56-.66v-.222l1.055-.079v2.381c0,.373.028.711.631.711.524,0,.868-.488.868-1.112v-1.277c0-.352-.058-.402-.56-.402v-.222l1.055-.079v2.547c0,.351.057.401.559.401v.223l-1.033.079v-.645c-.208.444-.524.645-.926.645Z"/>
      <path d="m406.957,19.823c-.194-.158-.309-.359-.309-.609,0-.402.273-.883,1.148-.883.108,0,.402,0,.675.201.028-.021.1-.086.122-.115.093-.086.108-.086.143-.086.079,0,.079.051.079.173v.724c0,.136,0,.172-.093.172-.014,0-.079,0-.086-.065-.014-.223-.05-.868-.84-.868-.617,0-.803.294-.803.546,0,.416.481.509.882.588.301.058.581.115.818.345.086.086.301.301.301.682,0,.516-.33.997-1.155.997-.151,0-.473-.007-.789-.309-.129.136-.129.151-.143.165-.136.136-.143.144-.179.144-.079,0-.079-.051-.079-.172v-.947c0-.13,0-.179.094-.179.072,0,.079.029.1.122.136.61.395,1.02.997,1.02.56,0,.811-.288.811-.653,0-.517-.589-.631-.746-.66-.516-.1-.717-.143-.947-.331Z"/>
      <path d="m414.905,20.318c0,.732-.653,1.384-1.528,1.384-.782,0-1.449-.474-1.449-1.126,0-.316.23-.416.402-.416.208,0,.402.144.402.402,0,.273-.223.43-.474.394.251.423.789.545,1.098.545.316,0,.811-.208.811-1.183,0-.703-.265-1.191-.854-1.191h-.315c-.122,0-.172,0-.172-.079,0-.072.05-.079.108-.086.05,0,.223-.014.28-.021.179-.007.423-.029.638-.373.187-.316.201-.732.201-.818,0-.645-.394-.803-.689-.803-.258,0-.732.093-.954.444.108,0,.445,0,.445.359,0,.208-.143.366-.366.366-.208,0-.366-.136-.366-.373,0-.546.545-.976,1.27-.976.689,0,1.32.402,1.32.99,0,.567-.416,1.069-1.004,1.263.746.15,1.198.71,1.198,1.299Z"/>
    </g>
    <text class="cls-11" transform="translate(324.153 29.539)"><tspan x="0" y="0">22.27</tspan></text>
    <g>
      <line class="cls-4" x1="337.815" y1="31.427" x2="321.586" y2="31.427"/>
      <polygon class="cls-10" points="322.922 33.336 322.108 31.427 322.922 29.516 318.392 31.426 322.922 33.336"/>
    </g>
    <g>
      <line class="cls-4" x1="402.79" y1="31.427" x2="386.561" y2="31.427"/>
      <polygon class="cls-10" points="387.897 33.336 387.083 31.427 387.897 29.516 383.368 31.427 387.897 33.336"/>
    </g>
    <text class="cls-11" transform="translate(389.128 29.539)"><tspan x="0" y="0">20.30</tspan></text>
    <text class="cls-11" transform="translate(324.249 44.506)"><tspan x="0" y="0">58.27</tspan></text>
    <g>
      <line class="cls-4" x1="337.912" y1="46.394" x2="321.68" y2="46.394"/>
      <polygon class="cls-10" points="323.016 48.303 322.202 46.394 323.016 44.483 318.486 46.394 323.016 48.303"/>
    </g>
    <g>
      <line class="cls-4" x1="353.04" y1="73.866" x2="353.04" y2="57.637"/>
      <polygon class="cls-10" points="351.13 58.973 353.04 58.16 354.951 58.973 353.04 54.443 351.13 58.973"/>
    </g>
    <text class="cls-11" transform="translate(337.405 65.288)"><tspan x="0" y="0">61.83</tspan></text>
    <g>
      <line class="cls-4" x1="367.942" y1="73.866" x2="367.941" y2="57.637"/>
      <polygon class="cls-10" points="366.032 58.973 367.941 58.16 369.852 58.973 367.941 54.443 366.032 58.973"/>
    </g>
    <text class="cls-11" transform="translate(369.973 65.288)"><tspan x="0" y="0">34.88</tspan></text>
    <g>
      <line class="cls-4" x1="383.368" y1="46.394" x2="399.597" y2="46.394"/>
      <polygon class="cls-10" points="398.261 48.303 399.075 46.394 398.261 44.483 402.791 46.394 398.261 48.303"/>
    </g>
    <text class="cls-11" transform="translate(383.367 44.505)"><tspan x="0" y="0">36.57</tspan></text>
    <text class="cls-11" transform="translate(409.854 29.381)"><tspan x="0" y="0">24.82</tspan></text>
    <g>
      <line class="cls-4" x1="409.937" y1="31.427" x2="426.084" y2="31.427"/>
      <polygon class="cls-10" points="424.748 33.336 425.561 31.427 424.748 29.516 429.277 31.426 424.748 33.336"/>
    </g>
    <text class="cls-11" transform="translate(459.375 29.381)"><tspan x="0" y="0">20.00</tspan></text>
    <g>
      <line class="cls-4" x1="459.433" y1="31.427" x2="475.605" y2="31.427"/>
      <polygon class="cls-10" points="474.269 33.336 475.083 31.427 474.269 29.516 478.799 31.426 474.269 33.336"/>
    </g>
    <line class="cls-5" x1="456.822" y1="31.426" x2="459.033" y2="31.426"/>
  </g>
  <text class="cls-12" transform="translate(121.324 130.392)"><tspan x="0" y="0">(a)</tspan></text>
  <text class="cls-12" transform="translate(380.209 130.392)"><tspan x="0" y="0">(b)</tspan></text>
</svg>