<svg id="Layer_1" data-name="Layer 1" xmlns="http://www.w3.org/2000/svg" viewBox="0 0 250.148 92.371"><defs><style>.cls-1,.cls-10,.cls-3,.cls-4,.cls-5,.cls-9{fill:none;}.cls-1,.cls-3{stroke:#010101;}.cls-1,.cls-10,.cls-2,.cls-3,.cls-4,.cls-5,.cls-7,.cls-9{stroke-miterlimit:10;}.cls-2{fill:#fff;}.cls-2,.cls-4,.cls-5{stroke:#231f20;}.cls-3{stroke-width:1.9px;}.cls-5{stroke-width:0.7px;}.cls-6{fill:#231f20;}.cls-7,.cls-8{fill:#be1e2d;}.cls-7{stroke:#be1e2d;}.cls-9{stroke:#000;}.cls-10{stroke:#ed1c24;}</style></defs><line class="cls-1" x1="160.849" y1="22.381" x2="164.559" y2="22.381"/><line class="cls-2" x1="134.362" y1="22.381" x2="137.461" y2="22.381"/><line class="cls-2" x1="69.386" y1="22.381" x2="114.139" y2="22.381"/><path class="cls-2" d="M79.131,23.349" transform="translate(-1.002 -0.967)"/><path class="cls-2" d="M67.573,23.349" transform="translate(-1.002 -0.967)"/><line class="cls-2" x1="46.517" y1="22.381" x2="49.163" y2="22.381"/><line class="cls-3" x1="46" y1="14.898" x2="46" y2="44.832"/><line class="cls-4" x1="49.257" y1="37.349" x2="45.863" y2="37.348"/><polyline class="cls-4" points="84.211 44.999 84.211 37.349 69.482 37.349"/><line class="cls-3" x1="76.727" y1="68.115" x2="106.661" y2="68.115"/><line class="cls-3" x1="137.457" y1="14.898" x2="137.457" y2="44.832"/><line class="cls-1" x1="138.365" y1="22.381" x2="140.699" y2="22.381"/><line class="cls-1" x1="213.371" y1="22.381" x2="217.565" y2="22.381"/><path d="M42.9,12.234a1.467,1.467,0,0,1-1.6,1.312H38.491v-.222h.172c.552,0,.567-.079.567-.337V9.206c0-.258-.015-.337-.567-.337h-.172V8.647h2.625a1.44,1.44,0,0,1,1.593,1.212c0,.531-.5.99-1.191,1.127A1.407,1.407,0,0,1,42.9,12.234Zm-2.038-1.313a1.082,1.082,0,0,0,1.148-1.062.953.953,0,0,0-.947-.99h-.889c-.337,0-.352.05-.352.287v1.765Zm1.32,1.306a1.075,1.075,0,0,0-1.011-1.149H39.825v1.959c0,.237.015.287.352.287h.9A1.083,1.083,0,0,0,42.185,12.227Z" transform="translate(-1.002 -0.967)"/><path d="M45.19,13.625c-1.09,0-1.09-.653-1.09-1.212V11.337c0-.638,0-.66-.559-.66v-.222l1.054-.08v2.382c0,.373.029.71.631.71.524,0,.869-.487.869-1.111V11.078c0-.351-.058-.4-.56-.4v-.222l1.055-.08v2.548c0,.351.057.4.559.4v.222l-1.033.079V12.98A.978.978,0,0,1,45.19,13.625Z" transform="translate(-1.002 -0.967)"/><path d="M47.837,11.824a.764.764,0,0,1-.308-.609c0-.4.272-.883,1.147-.883a1.106,1.106,0,0,1,.675.2.941.941,0,0,0,.122-.114c.093-.087.108-.087.144-.087.078,0,.078.051.078.173v.724c0,.136,0,.173-.093.173a.077.077,0,0,1-.086-.065.791.791,0,0,0-.84-.868c-.617,0-.8.294-.8.545,0,.416.481.509.882.588a1.461,1.461,0,0,1,.818.345.923.923,0,0,1,.3.681c0,.517-.33,1-1.155,1a1.074,1.074,0,0,1-.79-.308,1.4,1.4,0,0,0-.143.165c-.136.136-.143.143-.179.143-.079,0-.079-.05-.079-.172v-.947c0-.129,0-.179.093-.179.072,0,.079.029.1.122.137.609.395,1.018,1,1.018.559,0,.81-.286.81-.652,0-.517-.588-.631-.746-.66A1.884,1.884,0,0,1,47.837,11.824Z" transform="translate(-1.002 -0.967)"/><path d="M54.616,12.98c0,.265.022.344.667.344h.23v.222c-.251-.021-.875-.021-1.163-.021s-.911,0-1.162.021v-.222h.23c.645,0,.667-.086.667-.344V9.264a2.153,2.153,0,0,1-.94.186V9.228a1.773,1.773,0,0,0,1.306-.459c.165,0,.165.014.165.186Z" transform="translate(-1.002 -0.967)"/><line class="cls-4" x1="134.362" y1="37.348" x2="137.461" y2="37.348"/><polyline class="cls-4" points="99.113 44.999 99.113 37.349 114.139 37.348"/><line class="cls-4" x1="163.972" y1="36.848" x2="163.972" y2="51.85"/><path class="cls-4" d="M172.332,60.238a7.087,7.087,0,1,0-7.087,7.087A7.086,7.086,0,0,0,172.332,60.238Z" transform="translate(-1.002 -0.967)"/><path class="cls-5" d="M170.205,60.238a4.96,4.96,0,1,0-4.96,4.96A4.96,4.96,0,0,0,170.205,60.238Z" transform="translate(-1.002 -0.967)"/><path class="cls-6" d="M166.783,62.634a3.292,3.292,0,0,1-1.352.243,2.393,2.393,0,0,1-2.53-2.59,2.548,2.548,0,0,1,2.674-2.689,2.746,2.746,0,0,1,1.215.227l-.159.54a2.4,2.4,0,0,0-1.033-.213,1.9,1.9,0,0,0-2,2.112,1.861,1.861,0,0,0,1.967,2.058,2.628,2.628,0,0,0,1.079-.213Z" transform="translate(-1.002 -0.967)"/><path d="M114.071,70.219a1.467,1.467,0,0,1-1.6,1.313h-2.812v-.223h.172c.553,0,.567-.079.567-.337v-3.78c0-.258-.014-.338-.567-.338h-.172v-.222h2.625a1.44,1.44,0,0,1,1.593,1.212c0,.531-.495.99-1.191,1.127A1.408,1.408,0,0,1,114.071,70.219Zm-2.038-1.313a1.082,1.082,0,0,0,1.148-1.062.953.953,0,0,0-.947-.99h-.889c-.337,0-.352.051-.352.287v1.765Zm1.321,1.306a1.075,1.075,0,0,0-1.012-1.148h-1.349v1.958c0,.237.015.287.352.287h.9A1.084,1.084,0,0,0,113.354,70.212Z" transform="translate(-1.002 -0.967)"/><path d="M116.358,71.611c-1.09,0-1.09-.653-1.09-1.212V69.322c0-.638,0-.659-.56-.659V68.44l1.055-.079v2.381c0,.374.029.711.631.711.524,0,.869-.488.869-1.112V69.064c0-.352-.058-.4-.56-.4V68.44l1.055-.079v2.547c0,.351.057.4.559.4v.223l-1.033.079v-.646A.979.979,0,0,1,116.358,71.611Z" transform="translate(-1.002 -0.967)"/><path d="M119.005,69.81a.765.765,0,0,1-.308-.61c0-.4.272-.882,1.147-.882a1.111,1.111,0,0,1,.675.2.877.877,0,0,0,.122-.114c.093-.086.108-.086.144-.086.078,0,.078.05.078.172v.725c0,.136,0,.172-.093.172a.077.077,0,0,1-.086-.065.791.791,0,0,0-.84-.868c-.617,0-.8.294-.8.545,0,.417.481.509.883.589a1.453,1.453,0,0,1,.817.344.925.925,0,0,1,.3.682c0,.516-.33,1-1.155,1a1.072,1.072,0,0,1-.79-.309,1.521,1.521,0,0,0-.143.165c-.136.137-.143.144-.179.144-.079,0-.079-.05-.079-.173v-.947c0-.128,0-.179.093-.179.072,0,.079.029.1.122.137.61.395,1.019,1,1.019.559,0,.81-.287.81-.653,0-.517-.588-.631-.746-.66A1.885,1.885,0,0,1,119.005,69.81Z" transform="translate(-1.002 -0.967)"/><path d="M125.877,70.979a2.359,2.359,0,0,0,.682-.057,2.36,2.36,0,0,0,.157-.639h.18l-.2,1.249h-2.662c0-.172,0-.187.079-.266l1.378-1.535a2.572,2.572,0,0,0,.753-1.585c0-.589-.308-1.17-.961-1.17a1.036,1.036,0,0,0-.969.732.281.281,0,0,1,.093-.007.363.363,0,0,1,.381.373.377.377,0,1,1-.754-.022,1.326,1.326,0,0,1,1.342-1.3,1.41,1.41,0,0,1,1.521,1.392c0,.717-.431,1.1-1.55,2.094l-.76.739Z" transform="translate(-1.002 -0.967)"/><path d="M134.2,12.154a1.466,1.466,0,0,1-1.6,1.313h-2.812v-.222h.171c.553,0,.567-.079.567-.337V9.126c0-.257-.014-.336-.567-.336h-.171V8.567h2.625A1.441,1.441,0,0,1,134,9.78c0,.53-.5.99-1.191,1.126A1.408,1.408,0,0,1,134.2,12.154Zm-2.037-1.313a1.082,1.082,0,0,0,1.148-1.061.953.953,0,0,0-.947-.99h-.89c-.337,0-.351.05-.351.287v1.764Zm1.32,1.306A1.074,1.074,0,0,0,132.467,11h-1.349v1.958c0,.237.014.287.351.287h.9A1.085,1.085,0,0,0,133.478,12.147Z" transform="translate(-1.002 -0.967)"/><path d="M136.483,13.546c-1.09,0-1.09-.652-1.09-1.212V11.258c0-.639,0-.661-.56-.661v-.222l1.055-.079v2.382c0,.373.028.711.631.711.524,0,.868-.488.868-1.113V11c0-.352-.058-.4-.56-.4v-.222l1.055-.079v2.547c0,.352.057.4.559.4v.222l-1.032.079V12.9A.98.98,0,0,1,136.483,13.546Z" transform="translate(-1.002 -0.967)"/><path d="M139.13,11.745a.764.764,0,0,1-.309-.609c0-.4.273-.883,1.148-.883a1.106,1.106,0,0,1,.675.2.945.945,0,0,0,.122-.115c.093-.086.107-.086.143-.086.079,0,.079.05.079.173v.724c0,.136,0,.172-.093.172-.015,0-.079,0-.086-.064a.793.793,0,0,0-.84-.869c-.617,0-.8.294-.8.546,0,.416.48.509.882.588a1.466,1.466,0,0,1,.818.344.925.925,0,0,1,.3.682c0,.516-.33,1-1.155,1a1.072,1.072,0,0,1-.789-.308,1.521,1.521,0,0,0-.143.165c-.137.136-.144.143-.18.143-.079,0-.079-.05-.079-.172v-.947c0-.13,0-.179.094-.179.071,0,.078.028.1.121.136.611.4,1.02,1,1.02.56,0,.811-.288.811-.653,0-.517-.589-.632-.746-.661A1.867,1.867,0,0,1,139.13,11.745Z" transform="translate(-1.002 -0.967)"/><path d="M147.078,12.241a1.463,1.463,0,0,1-1.528,1.384A1.309,1.309,0,0,1,144.1,12.5a.4.4,0,1,1,.8-.014.392.392,0,0,1-.473.394,1.305,1.305,0,0,0,1.1.545c.316,0,.811-.208.811-1.183,0-.7-.265-1.192-.854-1.192h-.315c-.122,0-.173,0-.173-.078s.051-.08.108-.087.223-.014.28-.021a.7.7,0,0,0,.638-.373,1.787,1.787,0,0,0,.2-.818c0-.645-.394-.8-.689-.8a1.164,1.164,0,0,0-.954.444c.108,0,.445,0,.445.359a.366.366,0,1,1-.732-.007c0-.546.546-.976,1.27-.976.689,0,1.32.4,1.32.99a1.382,1.382,0,0,1-1,1.263A1.383,1.383,0,0,1,147.078,12.241Z" transform="translate(-1.002 -0.967)"/><path class="cls-6" d="M53.054,20.436a1.223,1.223,0,0,1-1.278,1.157,1.093,1.093,0,0,1-1.211-.941.336.336,0,1,1,.672-.012.329.329,0,0,1-.4.33,1.091,1.091,0,0,0,.918.455c.263,0,.677-.173.677-.989,0-.588-.221-1-.713-1h-.264c-.1,0-.145,0-.145-.065s.042-.066.091-.072.186-.012.234-.018a.582.582,0,0,0,.534-.312,1.512,1.512,0,0,0,.168-.684c0-.539-.33-.671-.576-.671a.971.971,0,0,0-.8.371c.09,0,.372,0,.372.3a.306.306,0,1,1-.612-.006c0-.455.456-.815,1.062-.815.575,0,1.1.335,1.1.827a1.156,1.156,0,0,1-.839,1.056A1.156,1.156,0,0,1,53.054,20.436Z" transform="translate(-1.002 -0.967)"/><path class="cls-6" d="M53.481,20.472v-.186l1.841-2.812c.048-.072.067-.072.12-.072.1,0,.1.036.1.156v2.728h.6v.186h-.6v.522c0,.216.012.281.456.281h.126v.186c-.246-.018-.563-.018-.815-.018s-.565,0-.81.018v-.186h.126c.443,0,.455-.065.455-.281v-.522Zm1.631-2.423-1.463,2.237h1.463Z" transform="translate(-1.002 -0.967)"/><path class="cls-6" d="M57.147,21.461a.318.318,0,1,1,.318-.317A.32.32,0,0,1,57.147,21.461Z" transform="translate(-1.002 -0.967)"/><path class="cls-6" d="M59.517,18.9a1.257,1.257,0,0,1,1.2,1.337,1.283,1.283,0,0,1-1.236,1.355c-.557,0-1.253-.425-1.253-2.027,0-1.325.81-2.1,1.578-2.1.5,0,.761.287.761.647a.276.276,0,1,1-.551.012c0-.27.239-.27.33-.27a.62.62,0,0,0-.529-.239c-.3,0-1.048.216-1.048,1.733V19.5A.827.827,0,0,1,59.517,18.9Zm.557,2.135a1.983,1.983,0,0,0,.1-.8,1.962,1.962,0,0,0-.109-.821.578.578,0,0,0-.557-.372c-.54,0-.732.6-.732,1.067a2.929,2.929,0,0,0,.108.87.689.689,0,0,0,.593.449A.625.625,0,0,0,60.074,21.036Z" transform="translate(-1.002 -0.967)"/><path class="cls-6" d="M63.512,20.9a1.122,1.122,0,0,1-2.033.09,3.038,3.038,0,0,1-.27-1.445,3.193,3.193,0,0,1,.223-1.362,1.1,1.1,0,0,1,1.043-.713,1.111,1.111,0,0,1,1.019.671,3.214,3.214,0,0,1,.24,1.4A3.194,3.194,0,0,1,63.512,20.9Zm-.342-.186a7.425,7.425,0,0,0,.066-1.241,7.5,7.5,0,0,0-.059-1.17c-.115-.593-.51-.7-.708-.7-.15,0-.6.053-.714.767a8.048,8.048,0,0,0-.048,1.1,8.172,8.172,0,0,0,.066,1.265c.108.576.462.725.7.725C62.738,21.461,63.08,21.282,63.17,20.712Z" transform="translate(-1.002 -0.967)"/><line class="cls-7" x1="49.563" y1="22.382" x2="65.793" y2="22.382"/><polygon class="cls-8" points="64.457 24.292 65.27 22.382 64.457 20.471 68.986 22.381 64.457 24.292"/><line class="cls-7" x1="114.538" y1="22.382" x2="130.768" y2="22.382"/><polygon class="cls-8" points="129.432 24.292 130.245 22.382 129.432 20.471 133.961 22.382 129.432 24.292"/><path class="cls-6" d="M118.029,20.436a1.223,1.223,0,0,1-1.277,1.157,1.093,1.093,0,0,1-1.211-.942.336.336,0,1,1,.672-.012.329.329,0,0,1-.4.33,1.092,1.092,0,0,0,.918.456c.264,0,.678-.174.678-.989,0-.588-.222-1-.714-1h-.264c-.1,0-.144,0-.144-.066s.042-.066.091-.072.185-.012.233-.018a.582.582,0,0,0,.534-.312,1.506,1.506,0,0,0,.168-.683c0-.54-.33-.672-.576-.672a.974.974,0,0,0-.8.372c.09,0,.372,0,.372.3a.306.306,0,1,1-.611-.006c0-.456.455-.816,1.061-.816.576,0,1.1.336,1.1.828a1.154,1.154,0,0,1-.839,1.055A1.157,1.157,0,0,1,118.029,20.436Z" transform="translate(-1.002 -0.967)"/><path class="cls-6" d="M118.457,20.472v-.186l1.841-2.813c.047-.072.066-.072.12-.072.095,0,.095.036.095.156v2.729h.6v.186h-.6v.521c0,.216.012.282.456.282h.126v.186c-.246-.018-.563-.018-.815-.018s-.564,0-.81.018v-.186h.126c.444,0,.455-.066.455-.282v-.521Zm1.631-2.423-1.463,2.237h1.463Z" transform="translate(-1.002 -0.967)"/><path class="cls-6" d="M122.123,21.461a.318.318,0,1,1,.317-.318A.32.32,0,0,1,122.123,21.461Z" transform="translate(-1.002 -0.967)"/><path class="cls-6" d="M124.492,18.9a1.257,1.257,0,0,1,1.2,1.338,1.283,1.283,0,0,1-1.235,1.355c-.558,0-1.253-.426-1.253-2.027,0-1.325.809-2.1,1.577-2.1.5,0,.762.288.762.648a.276.276,0,1,1-.552.012c0-.27.239-.27.33-.27a.62.62,0,0,0-.528-.24c-.306,0-1.049.216-1.049,1.733v.144A.828.828,0,0,1,124.492,18.9Zm.557,2.135a1.978,1.978,0,0,0,.1-.8,1.984,1.984,0,0,0-.108-.822.579.579,0,0,0-.558-.372c-.54,0-.731.6-.731,1.068a2.949,2.949,0,0,0,.107.869.69.69,0,0,0,.594.45A.625.625,0,0,0,125.049,21.035Z" transform="translate(-1.002 -0.967)"/><path class="cls-6" d="M128.487,20.9a1.121,1.121,0,0,1-2.032.089,3.037,3.037,0,0,1-.271-1.445,3.207,3.207,0,0,1,.223-1.361,1.1,1.1,0,0,1,1.043-.714,1.11,1.11,0,0,1,1.019.672,3.213,3.213,0,0,1,.241,1.4A3.2,3.2,0,0,1,128.487,20.9Zm-.342-.187a7.3,7.3,0,0,0,.067-1.241,7.365,7.365,0,0,0-.06-1.169c-.114-.594-.51-.7-.708-.7-.149,0-.6.054-.714.768a8.025,8.025,0,0,0-.048,1.1,8.039,8.039,0,0,0,.067,1.265c.107.576.462.726.7.726C127.714,21.461,128.055,21.281,128.145,20.711Z" transform="translate(-1.002 -0.967)"/><path class="cls-6" d="M51.794,35.955c0,.221.018.287.558.287h.192v.186c-.21-.018-.732-.018-.972-.018s-.761,0-.971.018v-.186h.192c.54,0,.558-.072.558-.287V32.848a1.8,1.8,0,0,1-.786.156v-.186a1.483,1.483,0,0,0,1.091-.383c.138,0,.138.011.138.155Z" transform="translate(-1.002 -0.967)"/><path class="cls-6" d="M55.477,34.683a1.08,1.08,0,0,1,.294.738,1.2,1.2,0,0,1-1.247,1.139,1.144,1.144,0,0,1-1.241-1.037,1.326,1.326,0,0,1,.863-1.1,3.767,3.767,0,0,1-.437-.323.959.959,0,0,1-.264-.66,1.042,1.042,0,0,1,1.085-1,.99.99,0,0,1,1.079.893,1.111,1.111,0,0,1-.725.929A2.492,2.492,0,0,1,55.477,34.683Zm-1.894.84a.9.9,0,0,0,.947.869.863.863,0,0,0,.942-.755.8.8,0,0,0-.45-.66l-.738-.468A1.175,1.175,0,0,0,53.583,35.523Zm1.169-1.355a1.018,1.018,0,0,0,.594-.84.781.781,0,0,0-.822-.743c-.425,0-.815.251-.815.617a.557.557,0,0,0,.3.486Z" transform="translate(-1.002 -0.967)"/><path class="cls-6" d="M56.865,36.428a.318.318,0,1,1,.318-.318A.319.319,0,0,1,56.865,36.428Z" transform="translate(-1.002 -0.967)"/><path class="cls-6" d="M60.434,35.4a1.223,1.223,0,0,1-1.278,1.157,1.093,1.093,0,0,1-1.211-.941.336.336,0,1,1,.672-.012.329.329,0,0,1-.4.33,1.091,1.091,0,0,0,.918.455c.263,0,.677-.174.677-.989,0-.588-.221-1-.714-1h-.263c-.1,0-.145,0-.145-.066s.042-.066.091-.071.186-.013.234-.018a.582.582,0,0,0,.534-.312,1.512,1.512,0,0,0,.168-.684c0-.54-.33-.671-.577-.671a.971.971,0,0,0-.8.371c.089,0,.372,0,.372.3a.306.306,0,1,1-.612-.006c0-.456.455-.815,1.062-.815.575,0,1.1.335,1.1.827a1.153,1.153,0,0,1-.838,1.055A1.157,1.157,0,0,1,60.434,35.4Z" transform="translate(-1.002 -0.967)"/><path class="cls-6" d="M63.229,35.865a1.121,1.121,0,0,1-2.032.09,3.039,3.039,0,0,1-.27-1.446,3.206,3.206,0,0,1,.222-1.361,1.1,1.1,0,0,1,1.043-.713,1.111,1.111,0,0,1,1.02.671,3.212,3.212,0,0,1,.24,1.4A3.181,3.181,0,0,1,63.229,35.865Zm-.341-.186a7.425,7.425,0,0,0,.066-1.241,7.378,7.378,0,0,0-.06-1.17c-.114-.594-.509-.7-.708-.7-.149,0-.6.054-.713.768a8.048,8.048,0,0,0-.048,1.1,8.172,8.172,0,0,0,.066,1.265c.108.575.462.725.7.725C62.456,36.428,62.8,36.249,62.888,35.679Z" transform="translate(-1.002 -0.967)"/><line class="cls-7" x1="49.563" y1="37.349" x2="65.795" y2="37.349"/><polygon class="cls-8" points="64.459 39.258 65.272 37.349 64.459 35.438 68.989 37.349 64.459 39.258"/><line class="cls-7" x1="84.211" y1="45.399" x2="84.21" y2="61.628"/><polygon class="cls-8" points="82.301 60.292 84.21 61.106 86.122 60.292 84.21 64.822 82.301 60.292"/><path class="cls-6" d="M70.971,57.535c0,.221.018.287.557.287h.193v.186c-.21-.018-.732-.018-.972-.018s-.762,0-.972.018v-.186h.193c.54,0,.557-.072.557-.287V54.428a1.793,1.793,0,0,1-.785.156V54.4a1.484,1.484,0,0,0,1.091-.383c.138,0,.138.011.138.155Z" transform="translate(-1.002 -0.967)"/><path class="cls-6" d="M74.654,56.263a1.08,1.08,0,0,1,.294.738A1.2,1.2,0,0,1,73.7,58.14,1.144,1.144,0,0,1,72.46,57.1a1.324,1.324,0,0,1,.863-1.1,3.887,3.887,0,0,1-.437-.323.96.96,0,0,1-.264-.66,1.042,1.042,0,0,1,1.085-1,.99.99,0,0,1,1.079.893,1.11,1.11,0,0,1-.726.929A2.506,2.506,0,0,1,74.654,56.263Zm-1.894.84a.9.9,0,0,0,.947.869.863.863,0,0,0,.941-.755.8.8,0,0,0-.449-.66l-.738-.468A1.175,1.175,0,0,0,72.76,57.1Zm1.169-1.356a1.016,1.016,0,0,0,.593-.839.781.781,0,0,0-.821-.744c-.426,0-.815.252-.815.618a.556.556,0,0,0,.3.485Z" transform="translate(-1.002 -0.967)"/><path class="cls-6" d="M76.042,58.008a.318.318,0,1,1,.317-.318A.319.319,0,0,1,76.042,58.008Z" transform="translate(-1.002 -0.967)"/><path class="cls-6" d="M79.61,56.983a1.223,1.223,0,0,1-1.277,1.157,1.094,1.094,0,0,1-1.211-.941.336.336,0,1,1,.672-.013.329.329,0,0,1-.4.33,1.093,1.093,0,0,0,.918.456c.264,0,.678-.174.678-.989,0-.588-.222-1-.714-1h-.263c-.1,0-.145,0-.145-.066s.042-.066.091-.072.185-.012.233-.018a.579.579,0,0,0,.534-.312,1.492,1.492,0,0,0,.168-.683c0-.54-.33-.672-.576-.672a.974.974,0,0,0-.8.372c.09,0,.372,0,.372.3a.306.306,0,1,1-.611-.006c0-.456.455-.815,1.062-.815.575,0,1.1.335,1.1.827a1.154,1.154,0,0,1-.839,1.055A1.157,1.157,0,0,1,79.61,56.983Z" transform="translate(-1.002 -0.967)"/><path class="cls-6" d="M82.406,57.445a1.121,1.121,0,0,1-2.032.09,3.043,3.043,0,0,1-.271-1.446,3.207,3.207,0,0,1,.223-1.361,1.1,1.1,0,0,1,1.043-.713,1.111,1.111,0,0,1,1.02.671,4.227,4.227,0,0,1,.017,2.759Zm-.342-.186a11.483,11.483,0,0,0,.007-2.411c-.114-.594-.51-.7-.708-.7-.149,0-.6.054-.714.768a12.311,12.311,0,0,0,.019,2.369c.107.575.462.725.695.725C81.633,58.008,81.974,57.828,82.064,57.259Z" transform="translate(-1.002 -0.967)"/><line class="cls-7" x1="99.113" y1="64.822" x2="99.112" y2="48.592"/><polygon class="cls-8" points="97.203 49.928 99.112 49.115 101.023 49.928 99.112 45.399 97.203 49.928"/><path class="cls-6" d="M103.928,57.535c0,.221.019.287.558.287h.192v.186c-.21-.018-.731-.018-.972-.018s-.761,0-.971.018v-.186h.192c.54,0,.558-.072.558-.287V54.428a1.8,1.8,0,0,1-.786.156V54.4a1.483,1.483,0,0,0,1.091-.383c.138,0,.138.011.138.155Z" transform="translate(-1.002 -0.967)"/><path class="cls-6" d="M106.706,55.448a1.257,1.257,0,0,1,1.2,1.337,1.282,1.282,0,0,1-1.235,1.355c-.557,0-1.253-.426-1.253-2.027,0-1.325.81-2.1,1.577-2.1.5,0,.762.287.762.647a.276.276,0,1,1-.552.012c0-.27.24-.27.33-.27a.618.618,0,0,0-.528-.24c-.306,0-1.049.216-1.049,1.733v.144A.827.827,0,0,1,106.706,55.448Zm.558,2.134a3.2,3.2,0,0,0-.006-1.625.579.579,0,0,0-.558-.372c-.54,0-.731.6-.731,1.068a2.946,2.946,0,0,0,.107.869.692.692,0,0,0,.594.45A.627.627,0,0,0,107.264,57.582Z" transform="translate(-1.002 -0.967)"/><path class="cls-6" d="M109,58.008a.318.318,0,1,1,.318-.318A.319.319,0,0,1,109,58.008Z" transform="translate(-1.002 -0.967)"/><path class="cls-6" d="M112.568,56.983a1.223,1.223,0,0,1-1.278,1.157,1.094,1.094,0,0,1-1.211-.941.336.336,0,1,1,.672-.013.329.329,0,0,1-.4.33,1.092,1.092,0,0,0,.918.456c.263,0,.677-.174.677-.989,0-.588-.221-1-.713-1h-.264c-.1,0-.145,0-.145-.066s.042-.066.091-.072.186-.012.234-.018a.58.58,0,0,0,.534-.312,1.506,1.506,0,0,0,.168-.683c0-.54-.33-.672-.576-.672a.972.972,0,0,0-.8.372c.09,0,.372,0,.372.3a.306.306,0,1,1-.612-.006c0-.456.456-.815,1.062-.815.575,0,1.1.335,1.1.827a1.153,1.153,0,0,1-.838,1.055A1.157,1.157,0,0,1,112.568,56.983Z" transform="translate(-1.002 -0.967)"/><path class="cls-6" d="M115.364,57.445a1.122,1.122,0,0,1-2.033.09,3.042,3.042,0,0,1-.27-1.446,3.206,3.206,0,0,1,.222-1.361,1.1,1.1,0,0,1,1.043-.713,1.11,1.11,0,0,1,1.02.671,4.236,4.236,0,0,1,.018,2.759Zm-.342-.186a11.666,11.666,0,0,0,.007-2.411c-.115-.594-.51-.7-.708-.7-.15,0-.6.054-.714.768a8.04,8.04,0,0,0-.048,1.1,8.178,8.178,0,0,0,.066,1.266c.108.575.462.725.7.725C114.59,58.008,114.932,57.828,115.022,57.259Z" transform="translate(-1.002 -0.967)"/><line class="cls-7" x1="114.538" y1="37.349" x2="130.768" y2="37.349"/><polygon class="cls-8" points="129.432 39.258 130.246 37.349 129.432 35.438 133.961 37.349 129.432 39.258"/><path class="cls-6" d="M116.769,35.954c0,.222.019.288.558.288h.192v.186c-.21-.018-.731-.018-.971-.018s-.762,0-.972.018v-.186h.192c.54,0,.558-.072.558-.288V32.848a1.806,1.806,0,0,1-.785.155v-.185a1.483,1.483,0,0,0,1.091-.384c.137,0,.137.012.137.156Z" transform="translate(-1.002 -0.967)"/><path class="cls-6" d="M119.548,33.867a1.257,1.257,0,0,1,1.2,1.338,1.284,1.284,0,0,1-1.236,1.355c-.557,0-1.253-.426-1.253-2.027,0-1.325.81-2.1,1.578-2.1.5,0,.761.288.761.648a.276.276,0,1,1-.551.012c0-.27.239-.27.33-.27a.621.621,0,0,0-.529-.24c-.3,0-1.048.216-1.048,1.733v.144A.827.827,0,0,1,119.548,33.867ZM120.105,36a3.168,3.168,0,0,0-.006-1.625.578.578,0,0,0-.557-.372c-.54,0-.732.6-.732,1.067a2.926,2.926,0,0,0,.108.87.688.688,0,0,0,.593.45A.627.627,0,0,0,120.105,36Z" transform="translate(-1.002 -0.967)"/><path class="cls-6" d="M121.841,36.428a.318.318,0,1,1,.317-.318A.32.32,0,0,1,121.841,36.428Z" transform="translate(-1.002 -0.967)"/><path class="cls-6" d="M125.409,35.4a1.224,1.224,0,0,1-1.277,1.158,1.093,1.093,0,0,1-1.211-.942.336.336,0,1,1,.671-.012.329.329,0,0,1-.4.33,1.092,1.092,0,0,0,.918.456c.264,0,.678-.174.678-.99,0-.587-.222-1-.714-1h-.264c-.1,0-.144,0-.144-.066s.042-.066.09-.072.186-.012.234-.018a.582.582,0,0,0,.534-.312,1.509,1.509,0,0,0,.168-.684c0-.539-.33-.671-.576-.671a.972.972,0,0,0-.8.372c.09,0,.372,0,.372.3a.306.306,0,1,1-.611-.005c0-.456.455-.816,1.061-.816.575,0,1.1.336,1.1.828a1.155,1.155,0,0,1-.839,1.055A1.157,1.157,0,0,1,125.409,35.4Z" transform="translate(-1.002 -0.967)"/><path class="cls-6" d="M128.205,35.864a1.12,1.12,0,0,1-2.032.09,3.025,3.025,0,0,1-.271-1.445,3.189,3.189,0,0,1,.223-1.361,1.1,1.1,0,0,1,1.043-.714,1.11,1.11,0,0,1,1.019.672,3.207,3.207,0,0,1,.24,1.4A3.194,3.194,0,0,1,128.205,35.864Zm-.342-.186a7.419,7.419,0,0,0,.066-1.241,7.488,7.488,0,0,0-.059-1.169c-.114-.594-.51-.7-.708-.7-.15,0-.6.054-.714.768a8.025,8.025,0,0,0-.048,1.1,8.166,8.166,0,0,0,.066,1.265c.108.576.462.726.7.726C127.431,36.428,127.773,36.248,127.863,35.678Z" transform="translate(-1.002 -0.967)"/><path class="cls-6" d="M143.2,21.435a1.1,1.1,0,0,1-1.085-1.1.3.3,0,1,1,.294.27.267.267,0,0,1-.1-.012.934.934,0,0,0,.881.672.748.748,0,0,0,.641-.39,1.731,1.731,0,0,0,.145-.821,1.86,1.86,0,0,0-.108-.756.588.588,0,0,0-.51-.384.9.9,0,0,0-.774.42c-.024.036-.036.054-.078.054-.084,0-.084-.048-.084-.156V17.459c0-.1,0-.144.061-.144a.176.176,0,0,1,.071.018,1.948,1.948,0,0,0,.8.168,1.983,1.983,0,0,0,.815-.174.09.09,0,0,1,.048-.018.059.059,0,0,1,.061.066,1.308,1.308,0,0,1-1.157.624,1.845,1.845,0,0,1-.51-.079v1.17a1.053,1.053,0,0,1,.761-.306A1.23,1.23,0,0,1,144.5,20.1,1.325,1.325,0,0,1,143.2,21.435Z" transform="translate(-1.002 -0.967)"/><path class="cls-6" d="M147.347,20.739a1.12,1.12,0,0,1-2.032.09,3.037,3.037,0,0,1-.271-1.445,3.189,3.189,0,0,1,.223-1.361,1.1,1.1,0,0,1,1.043-.714,1.11,1.11,0,0,1,1.019.672,3.208,3.208,0,0,1,.241,1.4A3.2,3.2,0,0,1,147.347,20.739Zm-.342-.186a7.31,7.31,0,0,0,.067-1.241,7.365,7.365,0,0,0-.06-1.169c-.114-.594-.51-.7-.708-.7-.149,0-.6.054-.714.768a8.025,8.025,0,0,0-.048,1.1,8.045,8.045,0,0,0,.067,1.265c.107.576.462.726.695.726C146.573,21.3,146.915,21.123,147.005,20.553Z" transform="translate(-1.002 -0.967)"/><path class="cls-6" d="M148.645,21.3a.318.318,0,1,1,.317-.318A.32.32,0,0,1,148.645,21.3Z" transform="translate(-1.002 -0.967)"/><path class="cls-6" d="M151.919,19.558a1.08,1.08,0,0,1,.294.737,1.2,1.2,0,0,1-1.247,1.14,1.144,1.144,0,0,1-1.241-1.037,1.324,1.324,0,0,1,.863-1.1,3.757,3.757,0,0,1-.437-.324.957.957,0,0,1-.264-.659,1.042,1.042,0,0,1,1.085-1,.99.99,0,0,1,1.079.894,1.113,1.113,0,0,1-.726.929A2.506,2.506,0,0,1,151.919,19.558Zm-1.894.84a.9.9,0,0,0,.947.869.863.863,0,0,0,.941-.756.8.8,0,0,0-.449-.659l-.738-.468A1.173,1.173,0,0,0,150.025,20.4Zm1.169-1.356a1.017,1.017,0,0,0,.593-.839.781.781,0,0,0-.821-.744c-.426,0-.815.252-.815.618a.558.558,0,0,0,.3.485Z" transform="translate(-1.002 -0.967)"/><path class="cls-6" d="M155.009,20.739a1.12,1.12,0,0,1-2.032.09,3.037,3.037,0,0,1-.271-1.445,3.2,3.2,0,0,1,.223-1.361,1.1,1.1,0,0,1,1.043-.714,1.11,1.11,0,0,1,1.019.672,3.208,3.208,0,0,1,.241,1.4A3.2,3.2,0,0,1,155.009,20.739Zm-.342-.186a7.31,7.31,0,0,0,.067-1.241,7.365,7.365,0,0,0-.06-1.169c-.114-.594-.51-.7-.708-.7-.149,0-.6.054-.714.768a8.025,8.025,0,0,0-.048,1.1,8.045,8.045,0,0,0,.067,1.265c.107.576.462.726.7.726C154.236,21.3,154.577,21.123,154.667,20.553Z" transform="translate(-1.002 -0.967)"/><line class="cls-7" x1="141.108" y1="22.382" x2="157.255" y2="22.382"/><polygon class="cls-8" points="155.919 24.292 156.732 22.382 155.919 20.471 160.448 22.381 155.919 24.292"/><path class="cls-6" d="M195.692,21.435a1.1,1.1,0,0,1-1.085-1.1.3.3,0,1,1,.294.27.26.26,0,0,1-.1-.012.933.933,0,0,0,.881.672.748.748,0,0,0,.641-.39,1.731,1.731,0,0,0,.145-.821,1.842,1.842,0,0,0-.109-.756.586.586,0,0,0-.509-.384.9.9,0,0,0-.774.42c-.024.036-.036.054-.078.054-.084,0-.084-.048-.084-.156V17.459c0-.1,0-.144.061-.144a.18.18,0,0,1,.071.018,1.945,1.945,0,0,0,.8.168,1.983,1.983,0,0,0,.815-.174.088.088,0,0,1,.048-.018.058.058,0,0,1,.06.066,1.306,1.306,0,0,1-1.157.624,1.858,1.858,0,0,1-.51-.079v1.17a1.055,1.055,0,0,1,.761-.306A1.23,1.23,0,0,1,197,20.1,1.325,1.325,0,0,1,195.692,21.435Z" transform="translate(-1.002 -0.967)"/><path class="cls-6" d="M199.844,20.739a1.121,1.121,0,0,1-2.033.09,3.036,3.036,0,0,1-.27-1.445,3.189,3.189,0,0,1,.223-1.361,1.1,1.1,0,0,1,1.043-.714,1.111,1.111,0,0,1,1.019.672,3.207,3.207,0,0,1,.24,1.4A3.194,3.194,0,0,1,199.844,20.739Zm-.342-.186a7.419,7.419,0,0,0,.066-1.241,7.488,7.488,0,0,0-.059-1.169c-.115-.594-.51-.7-.708-.7-.15,0-.6.054-.714.768a8.025,8.025,0,0,0-.048,1.1,8.166,8.166,0,0,0,.066,1.265c.108.576.462.726.7.726C199.07,21.3,199.412,21.123,199.5,20.553Z" transform="translate(-1.002 -0.967)"/><path class="cls-6" d="M201.141,21.3a.318.318,0,1,1,.318-.318A.32.32,0,0,1,201.141,21.3Z" transform="translate(-1.002 -0.967)"/><path class="cls-6" d="M204.416,19.558a1.084,1.084,0,0,1,.294.737,1.2,1.2,0,0,1-1.247,1.14,1.144,1.144,0,0,1-1.241-1.037,1.324,1.324,0,0,1,.863-1.1,3.782,3.782,0,0,1-.438-.324.954.954,0,0,1-.263-.659,1.042,1.042,0,0,1,1.085-1,.99.99,0,0,1,1.079.894,1.113,1.113,0,0,1-.726.929A2.506,2.506,0,0,1,204.416,19.558Zm-1.9.84a.9.9,0,0,0,.948.869.863.863,0,0,0,.941-.756.8.8,0,0,0-.449-.659l-.738-.468A1.175,1.175,0,0,0,202.521,20.4Zm1.169-1.356a1.016,1.016,0,0,0,.594-.839.782.782,0,0,0-.821-.744c-.426,0-.816.252-.816.618a.559.559,0,0,0,.3.485Z" transform="translate(-1.002 -0.967)"/><path class="cls-6" d="M207.506,20.739a1.12,1.12,0,0,1-2.032.09,3.025,3.025,0,0,1-.271-1.445,3.189,3.189,0,0,1,.223-1.361,1.1,1.1,0,0,1,1.043-.714,1.11,1.11,0,0,1,1.019.672,3.207,3.207,0,0,1,.24,1.4A3.194,3.194,0,0,1,207.506,20.739Zm-.342-.186a7.419,7.419,0,0,0,.066-1.241,7.488,7.488,0,0,0-.059-1.169c-.114-.594-.51-.7-.708-.7-.15,0-.6.054-.714.768a8.025,8.025,0,0,0-.048,1.1,8.166,8.166,0,0,0,.066,1.265c.108.576.462.726.7.726C206.732,21.3,207.074,21.123,207.164,20.553Z" transform="translate(-1.002 -0.967)"/><line class="cls-7" x1="193.605" y1="22.382" x2="209.776" y2="22.382"/><polygon class="cls-8" points="208.44 24.292 209.254 22.382 208.44 20.471 212.97 22.381 208.44 24.292"/><line class="cls-1" x1="189.693" y1="22.381" x2="193.205" y2="22.381"/><circle class="cls-2" cx="11.027" cy="30.832" r="9.524" transform="translate(-5.812 1.205) rotate(-9.245)"/><path class="cls-9" d="M15.835,29.78s-1.5,1.987-2.266,2.1c-.931.142-2.546-1.058-2.546-1.058S8.678,29.641,8.186,29.78c-.712.2-2.084,2.1-2.084,2.1" transform="translate(-1.002 -0.967)"/><line class="cls-2" x1="42.653" y1="30.023" x2="45.146" y2="30.023"/><line class="cls-2" x1="19.784" y1="30.023" x2="22.43" y2="30.023"/><path class="cls-6" d="M24.917,29.235a1.1,1.1,0,0,1-1.085-1.1.3.3,0,1,1,.294.269.3.3,0,0,1-.1-.011.933.933,0,0,0,.88.671.748.748,0,0,0,.642-.39,1.731,1.731,0,0,0,.145-.821,1.845,1.845,0,0,0-.109-.756.587.587,0,0,0-.51-.384.9.9,0,0,0-.773.42c-.024.036-.036.054-.078.054-.084,0-.084-.048-.084-.156V25.259c0-.1,0-.144.06-.144a.179.179,0,0,1,.072.018,1.945,1.945,0,0,0,.8.168,1.983,1.983,0,0,0,.815-.174.088.088,0,0,1,.048-.018.058.058,0,0,1,.06.066,1.308,1.308,0,0,1-1.157.624,1.9,1.9,0,0,1-.51-.078V26.89a1.054,1.054,0,0,1,.761-.3,1.23,1.23,0,0,1,1.14,1.313A1.325,1.325,0,0,1,24.917,29.235Z" transform="translate(-1.002 -0.967)"/><path class="cls-6" d="M28.373,28.641a1.962,1.962,0,0,0,.571-.048,2.008,2.008,0,0,0,.131-.533h.15L29.057,29.1H26.832c0-.144,0-.156.067-.222L28.05,27.6a2.153,2.153,0,0,0,.629-1.325c0-.492-.258-.978-.8-.978a.863.863,0,0,0-.809.612.218.218,0,0,1,.077-.006.3.3,0,0,1,.318.311.315.315,0,1,1-.63-.017,1.108,1.108,0,0,1,1.121-1.086,1.179,1.179,0,0,1,1.272,1.164c0,.6-.36.923-1.3,1.75l-.636.618Z" transform="translate(-1.002 -0.967)"/><path class="cls-6" d="M30.366,29.1a.318.318,0,1,1,.318-.318A.32.32,0,0,1,30.366,29.1Z" transform="translate(-1.002 -0.967)"/><path class="cls-6" d="M32.646,27.8a1.261,1.261,0,0,1-1.2-1.337,1.286,1.286,0,0,1,.384-.972,1.161,1.161,0,0,1,.882-.378c.533,0,1.223.408,1.223,2.021,0,1.289-.732,2.105-1.505,2.105-.51,0-.834-.246-.834-.648a.276.276,0,1,1,.552-.012c0,.1-.048.276-.312.276a.78.78,0,0,0,.588.216c.348,0,.972-.276.972-1.679V27.2A.821.821,0,0,1,32.646,27.8Zm.737-1.217a2.949,2.949,0,0,0-.1-.846.62.62,0,0,0-1.174-.1,1.687,1.687,0,0,0-.126.827,1.972,1.972,0,0,0,.107.816.578.578,0,0,0,.558.378C33.18,27.658,33.383,27.076,33.383,26.579Z" transform="translate(-1.002 -0.967)"/><path class="cls-6" d="M36.731,28.54a1.121,1.121,0,0,1-2.033.089,3.036,3.036,0,0,1-.27-1.445,3.191,3.191,0,0,1,.223-1.361,1.1,1.1,0,0,1,1.043-.714,1.11,1.11,0,0,1,1.019.672,3.212,3.212,0,0,1,.24,1.4A3.2,3.2,0,0,1,36.731,28.54Zm-.342-.186a7.432,7.432,0,0,0,.066-1.242,7.488,7.488,0,0,0-.059-1.169c-.115-.594-.51-.7-.708-.7-.15,0-.6.054-.714.768a8.04,8.04,0,0,0-.048,1.1,8.159,8.159,0,0,0,.066,1.265c.108.576.462.726.7.726C35.957,29.1,36.3,28.923,36.389,28.354Z" transform="translate(-1.002 -0.967)"/><line class="cls-7" x1="22.83" y1="30.024" x2="39.06" y2="30.024"/><polygon class="cls-8" points="37.724 31.933 38.537 30.024 37.724 28.113 42.253 30.023 37.724 31.933"/><circle class="cls-2" cx="49.29" cy="83.313" r="9.524" transform="translate(-40.435 121.062) rotate(-82.966)"/><path class="cls-9" d="M54.215,82.262s-1.5,1.987-2.267,2.1c-.93.142-2.546-1.058-2.546-1.058s-2.345-1.184-2.837-1.045c-.712.2-2.084,2.1-2.084,2.1" transform="translate(-1.002 -0.967)"/><polyline class="cls-4" points="81.03 82.528 84.211 82.528 84.211 67.561 84.211 65.222"/><line class="cls-2" x1="58.162" y1="82.528" x2="60.807" y2="82.528"/><path class="cls-6" d="M63.438,81.134c0,.222.019.288.558.288h.192v.186c-.21-.018-.731-.018-.971-.018s-.762,0-.972.018v-.186h.192c.54,0,.558-.072.558-.288V78.028a1.8,1.8,0,0,1-.785.156V78a1.482,1.482,0,0,0,1.091-.384c.137,0,.137.012.137.156Z" transform="translate(-1.002 -0.967)"/><path class="cls-6" d="M67.122,79.863a1.085,1.085,0,0,1,.294.738,1.2,1.2,0,0,1-1.247,1.139A1.144,1.144,0,0,1,64.928,80.7a1.324,1.324,0,0,1,.863-1.1,3.782,3.782,0,0,1-.438-.324.954.954,0,0,1-.263-.659,1.042,1.042,0,0,1,1.085-1,.99.99,0,0,1,1.079.894,1.113,1.113,0,0,1-.726.929A2.506,2.506,0,0,1,67.122,79.863Zm-1.895.84a.9.9,0,0,0,.948.869.863.863,0,0,0,.941-.756.8.8,0,0,0-.449-.659l-.738-.468A1.176,1.176,0,0,0,65.227,80.7ZM66.4,79.347a1.015,1.015,0,0,0,.594-.839.782.782,0,0,0-.821-.744c-.426,0-.816.252-.816.618a.558.558,0,0,0,.3.485Z" transform="translate(-1.002 -0.967)"/><path class="cls-6" d="M68.51,81.608a.318.318,0,1,1,.317-.318A.32.32,0,0,1,68.51,81.608Z" transform="translate(-1.002 -0.967)"/><path class="cls-6" d="M71.179,81.146a1.959,1.959,0,0,0,.57-.048,2.043,2.043,0,0,0,.132-.533h.149l-.168,1.043H69.638c0-.144,0-.156.066-.222L70.855,80.1a2.153,2.153,0,0,0,.629-1.326c0-.491-.258-.977-.8-.977a.864.864,0,0,0-.809.612.218.218,0,0,1,.077-.006.3.3,0,0,1,.318.311.315.315,0,1,1-.629-.017,1.108,1.108,0,0,1,1.121-1.086,1.178,1.178,0,0,1,1.271,1.163c0,.6-.359.924-1.3,1.751l-.636.618Z" transform="translate(-1.002 -0.967)"/><path class="cls-6" d="M74.874,81.044a1.12,1.12,0,0,1-2.032.09,3.037,3.037,0,0,1-.271-1.445,3.191,3.191,0,0,1,.223-1.361,1.1,1.1,0,0,1,1.043-.714,1.11,1.11,0,0,1,1.019.672,4.216,4.216,0,0,1,.018,2.758Zm-.342-.186a7.413,7.413,0,0,0,.066-1.241,7.488,7.488,0,0,0-.059-1.169c-.114-.594-.51-.7-.708-.7-.15,0-.6.054-.714.768a12.3,12.3,0,0,0,.019,2.368c.107.576.461.726.7.726C74.1,81.608,74.442,81.428,74.532,80.858Z" transform="translate(-1.002 -0.967)"/><line class="cls-7" x1="61.207" y1="82.529" x2="77.437" y2="82.529"/><polygon class="cls-8" points="76.101 84.438 76.915 82.529 76.101 80.618 80.63 82.528 76.101 84.438"/><polyline class="cls-2" points="99.113 65.222 99.114 67.561 99.114 82.528 101.407 82.528"/><line class="cls-4" x1="127.421" y1="82.527" x2="121.685" y2="82.527"/><polygon class="cls-6" points="125.315 79.75 126.494 82.527 125.314 85.304 131.898 82.528 125.315 79.75"/><path class="cls-6" d="M104.35,81.146a1.955,1.955,0,0,0,.57-.048,1.966,1.966,0,0,0,.132-.533h.149l-.168,1.043h-2.224c0-.144,0-.156.066-.222l1.151-1.283a2.148,2.148,0,0,0,.629-1.326c0-.491-.257-.977-.8-.977a.864.864,0,0,0-.81.612.221.221,0,0,1,.077-.006.3.3,0,0,1,.319.311.315.315,0,1,1-.63-.017,1.108,1.108,0,0,1,1.121-1.086,1.178,1.178,0,0,1,1.271,1.163c0,.6-.359.924-1.295,1.751l-.635.618Z" transform="translate(-1.002 -0.967)"/><path class="cls-6" d="M108.045,81.044a1.12,1.12,0,0,1-2.032.09,3.037,3.037,0,0,1-.271-1.445,3.207,3.207,0,0,1,.223-1.361,1.1,1.1,0,0,1,1.043-.714,1.11,1.11,0,0,1,1.019.672,4.216,4.216,0,0,1,.018,2.758Zm-.342-.186a11.474,11.474,0,0,0,.007-2.41c-.114-.594-.51-.7-.708-.7-.149,0-.6.054-.714.768a12.3,12.3,0,0,0,.019,2.368c.107.576.462.726.695.726C107.272,81.608,107.613,81.428,107.7,80.858Z" transform="translate(-1.002 -0.967)"/><path class="cls-6" d="M109.343,81.608a.318.318,0,1,1,.317-.318A.319.319,0,0,1,109.343,81.608Z" transform="translate(-1.002 -0.967)"/><path class="cls-6" d="M112.012,81.146a1.955,1.955,0,0,0,.57-.048,1.966,1.966,0,0,0,.132-.533h.149l-.168,1.043h-2.224c0-.144,0-.156.066-.222l1.152-1.283a2.152,2.152,0,0,0,.628-1.326c0-.491-.257-.977-.8-.977a.864.864,0,0,0-.81.612.221.221,0,0,1,.077-.006.3.3,0,0,1,.319.311.315.315,0,1,1-.63-.017,1.108,1.108,0,0,1,1.121-1.086,1.178,1.178,0,0,1,1.271,1.163c0,.6-.359.924-1.3,1.751l-.635.618Z" transform="translate(-1.002 -0.967)"/><path class="cls-6" d="M115.707,81.044a1.12,1.12,0,0,1-2.032.09,3.037,3.037,0,0,1-.271-1.445,3.207,3.207,0,0,1,.223-1.361,1.1,1.1,0,0,1,1.043-.714,1.113,1.113,0,0,1,1.02.672,3.212,3.212,0,0,1,.24,1.4A3.177,3.177,0,0,1,115.707,81.044Zm-.342-.186a11.474,11.474,0,0,0,.007-2.41c-.114-.594-.51-.7-.708-.7-.149,0-.6.054-.714.768a12.3,12.3,0,0,0,.019,2.368c.107.576.462.726.7.726C114.934,81.608,115.276,81.428,115.365,80.858Z" transform="translate(-1.002 -0.967)"/><line class="cls-7" x1="101.806" y1="82.529" x2="118.036" y2="82.529"/><polygon class="cls-8" points="116.7 84.438 117.513 82.529 116.7 80.618 121.229 82.528 116.7 84.438"/><line class="cls-2" x1="217.367" y1="22.381" x2="219.66" y2="22.381"/><path class="cls-6" d="M222.147,21.592a1.1,1.1,0,0,1-1.085-1.1.3.3,0,1,1,.294.27.267.267,0,0,1-.1-.012.933.933,0,0,0,.881.671.75.75,0,0,0,.642-.389,1.744,1.744,0,0,0,.144-.822,1.855,1.855,0,0,0-.108-.755.588.588,0,0,0-.51-.384.9.9,0,0,0-.774.42c-.024.035-.036.053-.078.053-.084,0-.084-.047-.084-.155V17.617c0-.1,0-.144.061-.144a.176.176,0,0,1,.071.018,1.948,1.948,0,0,0,.8.168,1.983,1.983,0,0,0,.815-.174.09.09,0,0,1,.048-.018.059.059,0,0,1,.061.066,1.31,1.31,0,0,1-1.157.623,1.888,1.888,0,0,1-.51-.078v1.17a1.053,1.053,0,0,1,.761-.306,1.23,1.23,0,0,1,1.139,1.313A1.324,1.324,0,0,1,222.147,21.592Z" transform="translate(-1.002 -0.967)"/><path class="cls-6" d="M226.3,20.9a1.121,1.121,0,0,1-2.032.09A3.039,3.039,0,0,1,224,19.542a3.209,3.209,0,0,1,.223-1.362,1.1,1.1,0,0,1,1.043-.713,1.111,1.111,0,0,1,1.019.671,3.215,3.215,0,0,1,.241,1.4A3.2,3.2,0,0,1,226.3,20.9Zm-.342-.186a7.316,7.316,0,0,0,.067-1.241,7.378,7.378,0,0,0-.06-1.17c-.114-.593-.51-.7-.708-.7-.149,0-.6.053-.714.767a8.048,8.048,0,0,0-.048,1.1,8.051,8.051,0,0,0,.067,1.265c.107.576.462.726.695.726C225.525,21.461,225.866,21.281,225.956,20.711Z" transform="translate(-1.002 -0.967)"/><path class="cls-6" d="M227.6,21.461a.318.318,0,1,1,.317-.318A.321.321,0,0,1,227.6,21.461Z" transform="translate(-1.002 -0.967)"/><path class="cls-6" d="M230.87,19.715a1.08,1.08,0,0,1,.294.738,1.2,1.2,0,0,1-1.247,1.139,1.144,1.144,0,0,1-1.241-1.037,1.324,1.324,0,0,1,.863-1.1,3.757,3.757,0,0,1-.437-.324.959.959,0,0,1-.264-.66,1.042,1.042,0,0,1,1.085-1A.99.99,0,0,1,231,18.36a1.113,1.113,0,0,1-.725.93A2.493,2.493,0,0,1,230.87,19.715Zm-1.894.84a.9.9,0,0,0,.947.869.862.862,0,0,0,.941-.755.8.8,0,0,0-.449-.66l-.738-.467A1.172,1.172,0,0,0,228.976,20.555Zm1.169-1.355a1.017,1.017,0,0,0,.593-.84.78.78,0,0,0-.821-.743c-.426,0-.815.252-.815.617a.557.557,0,0,0,.3.486Z" transform="translate(-1.002 -0.967)"/><path class="cls-6" d="M233.96,20.9a1.121,1.121,0,0,1-2.032.09,3.039,3.039,0,0,1-.271-1.445,3.209,3.209,0,0,1,.223-1.362,1.1,1.1,0,0,1,1.043-.713,1.113,1.113,0,0,1,1.02.671,3.229,3.229,0,0,1,.24,1.4A3.2,3.2,0,0,1,233.96,20.9Zm-.342-.186a7.316,7.316,0,0,0,.067-1.241,7.378,7.378,0,0,0-.06-1.17c-.114-.593-.51-.7-.708-.7-.149,0-.6.053-.714.767a8.048,8.048,0,0,0-.048,1.1,8.051,8.051,0,0,0,.067,1.265c.107.576.462.726.695.726C233.187,21.461,233.528,21.281,233.618,20.711Z" transform="translate(-1.002 -0.967)"/><line class="cls-7" x1="220.059" y1="22.382" x2="236.289" y2="22.382"/><polygon class="cls-8" points="234.953 24.291 235.766 22.382 234.953 20.471 239.482 22.381 234.953 24.291"/><line class="cls-2" x1="138.365" y1="37.349" x2="140.699" y2="37.349"/><path class="cls-6" d="M144.413,35.866a1.121,1.121,0,0,1-2.032.09,3.039,3.039,0,0,1-.27-1.446,3.206,3.206,0,0,1,.222-1.361,1.1,1.1,0,0,1,1.043-.713,1.111,1.111,0,0,1,1.02.671,3.212,3.212,0,0,1,.24,1.4A3.181,3.181,0,0,1,144.413,35.866Zm-.341-.186a7.425,7.425,0,0,0,.066-1.241,7.378,7.378,0,0,0-.06-1.17c-.114-.594-.509-.7-.708-.7-.149,0-.6.054-.714.768a8.217,8.217,0,0,0-.047,1.1,8.172,8.172,0,0,0,.066,1.265c.107.575.462.725.695.725C143.64,36.429,143.982,36.25,144.072,35.68Z" transform="translate(-1.002 -0.967)"/><path class="cls-6" d="M145.711,36.429a.318.318,0,1,1,.318-.318A.319.319,0,0,1,145.711,36.429Z" transform="translate(-1.002 -0.967)"/><path class="cls-6" d="M148.3,35.956c0,.221.019.287.558.287h.192v.186c-.21-.018-.731-.018-.972-.018s-.761,0-.971.018v-.186h.192c.54,0,.558-.072.558-.287V32.849a1.8,1.8,0,0,1-.786.156v-.186a1.483,1.483,0,0,0,1.091-.383c.138,0,.138.011.138.155Z" transform="translate(-1.002 -0.967)"/><path class="cls-6" d="M152.075,35.866a1.121,1.121,0,0,1-2.032.09,3.039,3.039,0,0,1-.27-1.446A3.206,3.206,0,0,1,150,33.149a1.1,1.1,0,0,1,1.043-.713,1.111,1.111,0,0,1,1.02.671,3.212,3.212,0,0,1,.24,1.4A3.181,3.181,0,0,1,152.075,35.866Zm-.341-.186a7.425,7.425,0,0,0,.066-1.241,7.378,7.378,0,0,0-.06-1.17c-.114-.594-.509-.7-.708-.7-.149,0-.6.054-.713.768a8.048,8.048,0,0,0-.048,1.1,8.172,8.172,0,0,0,.066,1.265c.108.575.462.725.7.725C151.3,36.429,151.644,36.25,151.734,35.68Z" transform="translate(-1.002 -0.967)"/><line class="cls-7" x1="141.108" y1="37.35" x2="157.338" y2="37.35"/><polygon class="cls-8" points="156.002 39.259 156.815 37.35 156.002 35.439 160.531 37.349 156.002 39.259"/><line class="cls-1" x1="160.847" y1="37.349" x2="163.548" y2="37.348"/><line class="cls-4" x1="245.67" y1="22.381" x2="239.88" y2="22.381"/><polygon class="cls-6" points="243.564 19.604 244.744 22.381 243.564 25.158 250.148 22.381 243.564 19.604"/><line class="cls-3" x1="216.55" y1="7.414" x2="216.55" y2="37.348"/><circle class="cls-10" cx="173.244" cy="22.381" r="8.504"/><circle class="cls-1" cx="180.821" cy="22.381" r="8.504"/><path d="M213.267,4.554a1.467,1.467,0,0,1-1.6,1.313h-2.812V5.644h.172c.553,0,.567-.078.567-.337V1.527c0-.258-.014-.338-.567-.338h-.172V.967h2.625a1.441,1.441,0,0,1,1.593,1.212c0,.531-.5.99-1.191,1.127A1.409,1.409,0,0,1,213.267,4.554Zm-2.038-1.313a1.082,1.082,0,0,0,1.148-1.062.954.954,0,0,0-.947-.99h-.889c-.338,0-.352.051-.352.287V3.241Zm1.321,1.306A1.075,1.075,0,0,0,211.538,3.4h-1.349V5.357c0,.237.014.287.352.287h.9A1.085,1.085,0,0,0,212.55,4.547Z" transform="translate(-1.002 -0.967)"/><path d="M215.554,5.946c-1.09,0-1.09-.653-1.09-1.212V3.657c0-.638,0-.659-.559-.659V2.775l1.054-.079V5.078c0,.373.028.71.631.71.524,0,.868-.488.868-1.112V3.4c0-.351-.057-.4-.559-.4V2.775l1.054-.079V5.243c0,.351.058.4.56.4v.223l-1.033.079V5.3A.979.979,0,0,1,215.554,5.946Z" transform="translate(-1.002 -0.967)"/><path d="M218.2,4.145a.761.761,0,0,1-.308-.609c0-.4.272-.883,1.147-.883a1.106,1.106,0,0,1,.675.2,1.019,1.019,0,0,0,.122-.115c.093-.086.107-.086.143-.086.079,0,.079.05.079.172V3.55c0,.136,0,.172-.093.172a.076.076,0,0,1-.086-.065.791.791,0,0,0-.84-.867c-.616,0-.8.293-.8.545,0,.416.48.509.883.588a1.463,1.463,0,0,1,.817.344.928.928,0,0,1,.3.682c0,.516-.329,1-1.154,1a1.072,1.072,0,0,1-.79-.309,1.67,1.67,0,0,0-.143.165c-.137.137-.144.144-.18.144-.078,0-.078-.05-.078-.172V4.827c0-.129,0-.18.093-.18.072,0,.079.029.1.123.136.609.395,1.018,1,1.018.559,0,.81-.287.81-.653,0-.517-.588-.631-.746-.66A1.875,1.875,0,0,1,218.2,4.145Z" transform="translate(-1.002 -0.967)"/><path d="M223.071,4.683V4.461l2.2-3.365c.057-.086.079-.086.143-.086.115,0,.115.043.115.187V4.461h.717v.222h-.717v.624c0,.259.015.337.546.337h.15v.223c-.294-.022-.674-.022-.976-.022s-.674,0-.968.022V5.644h.151c.53,0,.544-.078.544-.337V4.683Zm1.952-2.9-1.751,2.676h1.751Z" transform="translate(-1.002 -0.967)"/></svg>