<?xml version="1.0" encoding="UTF-8"?>
<svg id="Layer_1" data-name="Layer 1" xmlns="http://www.w3.org/2000/svg" viewBox="0 0 371.433 139.248">
  <defs>
    <style>
      .cls-1 {
        stroke-width: .516px;
      }

      .cls-1, .cls-2, .cls-3, .cls-4, .cls-5, .cls-6, .cls-7, .cls-8, .cls-9, .cls-10, .cls-11, .cls-12, .cls-13 {
        stroke: #000;
        stroke-miterlimit: 10;
      }

      .cls-1, .cls-3, .cls-4, .cls-6, .cls-7, .cls-8, .cls-9, .cls-10, .cls-11, .cls-12, .cls-13 {
        fill: none;
      }

      .cls-2, .cls-5, .cls-14 {
        fill: #fff;
      }

      .cls-2, .cls-11 {
        stroke-width: .816px;
      }

      .cls-3 {
        stroke-width: .719px;
      }

      .cls-4 {
        stroke-width: .748px;
      }

      .cls-15 {
        isolation: isolate;
      }

      .cls-5 {
        stroke-width: .756px;
      }

      .cls-6 {
        stroke-width: 1.92px;
      }

      .cls-7 {
        stroke-width: .776px;
      }

      .cls-8 {
        stroke-width: .528px;
      }

      .cls-9 {
        stroke-width: 1.787px;
      }

      .cls-10 {
        stroke-width: .75px;
      }

      .cls-14 {
        stroke: #231f20;
        stroke-miterlimit: 2;
        stroke-width: .582px;
      }

      .cls-12 {
        stroke-width: .633px;
      }

      .cls-13 {
        stroke-width: .68px;
      }
    </style>
  </defs>
  <rect class="cls-14" x=".291" y=".291" width="370.851" height="138.666" rx="4" ry="4"/>
  <line class="cls-10" x1="247.654" y1="38.667" x2="352.897" y2="38.667"/>
  <line class="cls-3" x1="185.227" y1="38.667" x2="220.119" y2="38.667"/>
  <rect class="cls-5" x="270.039" y="33.225" width="27.741" height="10.885"/>
  <line class="cls-6" x1="185.229" y1="23.701" x2="185.229" y2="53.634"/>
  <line class="cls-9" x1="352.897" y1="23.701" x2="352.897" y2="53.634"/>
  <g class="cls-15">
    <path d="m184.214,18.746c.438-.173.887-.634,1.279-1.071.829-.922,1.359-1.014,1.682-1.014.519,0,.784.38.784.726,0,.449-.334.703-.634.703-.311,0-.438-.219-.438-.403,0-.138.104-.587.657-.622-.023-.023-.023-.034-.046-.046-.092-.069-.104-.069-.242-.092-.023-.011-.034-.011-.104-.011-.564,0-1.094.495-1.647,1.106-.265.276-.634.645-.991.853.979.126,1.705.46,1.705,1.209,0,.115,0,.161-.046.357-.046.185-.092.449-.092.646,0,.415.15.541.369.541.507,0,.772-.587,1.002-1.428.034-.161.046-.208.161-.208.035,0,.138,0,.138.115,0,.023-.127.657-.415,1.164-.254.426-.565.611-.91.611-.599,0-1.06-.461-1.06-1.141,0-.127.023-.265.046-.403.035-.115.035-.161.035-.242,0-.76-.944-.944-1.336-.979-.069.288-.587,2.419-.645,2.523-.069.138-.242.242-.392.242-.104,0-.334-.058-.334-.323,0-.069,0-.092.046-.253l1.67-6.636.035-.23c0-.115-.023-.196-.576-.196-.173,0-.276,0-.276-.138,0-.208.127-.219.219-.23.3-.023,1.141-.115,1.406-.115.149,0,.149.115.149.126l-1.198,4.862Z"/>
  </g>
  <g class="cls-15">
    <path d="m353.907,21.208c-.022.104-.046.173-.046.253,0,.104,0,.185.553.185.185,0,.3,0,.3.126,0,.23-.149.23-.207.23-.381,0-.795-.035-1.187-.035-.381,0-.784.035-1.152.035-.149,0-.149-.115-.149-.126,0-.23.114-.23.265-.23.645-.012.737-.058.829-.38.035-.104.415-1.659.519-2.062-.415.415-.864.691-1.359.691-.841,0-1.521-.714-1.521-1.843,0-1.671,1.417-3.375,2.776-3.375.368,0,.818.184,1.071.806.196-.334.656-.795.783-.795.081,0,.115.069.115.115l-1.59,6.405Zm-.138-2.626c.034-.046.668-2.569.668-2.638,0-.081-.161-1.014-.91-1.014-.473,0-1.071.484-1.429,1.336-.195.484-.53,1.74-.53,2.293,0,.196.047,1.083.737,1.083.646,0,1.291-.737,1.464-1.06Z"/>
  </g>
  <g>
    <line class="cls-1" x1="189.443" y1="32.809" x2="213.569" y2="32.809"/>
    <polygon points="212.118 34.718 212.932 32.809 212.118 30.898 216.648 32.809 212.118 34.718"/>
  </g>
  <g>
    <line class="cls-8" x1="323.337" y1="32.809" x2="347.397" y2="32.809"/>
    <polygon points="324.819 34.765 323.991 32.809 324.819 30.852 320.182 32.809 324.819 34.765"/>
  </g>
  <g>
    <circle class="cls-11" cx="229.643" cy="38.667" r="9.524"/>
    <circle class="cls-11" cx="238.129" cy="38.667" r="9.524"/>
  </g>
  <g>
    <g>
      <path d="m240.971,24.683c.274-.114.496-.322.777-.59.342-.315.69-.589,1.072-.589.355,0,.516.248.516.469,0,.282-.201.429-.382.429-.154,0-.268-.1-.268-.248,0-.101.06-.328.348-.375-.054-.067-.141-.087-.221-.087-.375,0-.71.315-1.051.636-.114.101-.362.322-.556.442.281.02,1.085.114,1.085.71,0,.074-.026.188-.033.208-.041.174-.041.188-.041.302,0,.181.054.348.235.348.328,0,.509-.476.589-.764.033-.127.04-.161.134-.161.02,0,.107,0,.107.087,0,.007-.201,1.025-.851,1.025-.322,0-.71-.214-.71-.69,0-.074,0-.107.027-.208.014-.067.014-.101.014-.134,0-.348-.382-.502-.857-.549-.027.094-.315,1.272-.329,1.299-.04.147-.127.281-.308.281-.147,0-.228-.114-.228-.214,0-.013,0-.027.033-.147l.945-3.791c.013-.061.027-.101.027-.147,0-.054,0-.101-.322-.101-.08,0-.174,0-.174-.094,0-.141.094-.147.147-.154.167-.013.724-.067.857-.067.081,0,.107.061.107.094,0,.007-.02.094-.027.107l-.663,2.673Z"/>
      <path d="m246.114,27.288c-.034.114-.034.127-.034.147,0,.081.181.081.328.081.081,0,.174,0,.174.094,0,.127-.074.147-.134.147-.208,0-.489-.026-.716-.026s-.476.026-.697.026c-.067,0-.101-.053-.101-.094,0-.147.094-.147.174-.147.415-.007.422-.014.516-.382.027-.114.234-.958.241-.978-.147.127-.462.368-.844.368-.576,0-1.011-.462-1.011-1.112,0-.965.871-1.909,1.728-1.909.429,0,.65.308.717.442.134-.214.416-.442.482-.442.06,0,.087.054.087.094,0,.034-.006.074-.013.101l-.897,3.59Zm.201-2.914c.007-.026.02-.067.02-.1,0-.067-.127-.583-.596-.583-.188,0-.529.101-.837.636-.154.268-.348,1.005-.348,1.36,0,.476.241.65.489.65.261,0,.576-.181.837-.489.087-.107.087-.121.121-.235l.315-1.239Z"/>
    </g>
    <path d="m237.983,23.36c.45-.564.766-1.292.938-1.895.048-.172.048-.201.144-.201.105,0,.115.076.115.096,0,.009-.201,1.119-1.1,2.248-.096.115-.096.134-.096.335,0,.23,0,.976.297.976.019,0,.363,0,.536-.469.029-.067.057-.096.125-.096.057,0,.115.029.115.096,0,.153-.297.68-.804.68-.431,0-.746-.297-.871-.804-.727.583-1.416.804-2.019.804-.976,0-1.55-.728-1.55-1.617,0-1.349,1.263-2.717,2.574-2.717.708,0,1.598.469,1.598,1.971v.593Zm-.66-.354c0-.747,0-2-.947-2-.334,0-.851.182-1.301.88-.306.488-.555,1.521-.555,1.99,0,.612.287,1.042.861,1.042.382,0,1.119-.105,1.961-.842-.019-.163-.019-.717-.019-1.071Z"/>
    <g>
      <path d="m223.482,24.269c0,.354.028.459.89.459h.306v.296c-.335-.029-1.167-.029-1.55-.029s-1.215,0-1.55.029v-.296h.306c.861,0,.89-.115.89-.459v-4.956c-.498.249-1.062.249-1.253.249v-.296c.306,0,1.148,0,1.741-.612.22,0,.22.019.22.249v5.367Z"/>
      <path d="m229.43,21.915c-.278,0-.507-.229-.507-.507s.229-.507.507-.507.507.229.507.507-.229.507-.507.507Zm0,3.109c-.278,0-.507-.229-.507-.507s.229-.507.507-.507.507.229.507.507-.229.507-.507.507Z"/>
    </g>
  </g>
  <line class="cls-10" x1="81.421" y1="38.568" x2="185.206" y2="38.568"/>
  <line class="cls-3" x1="18.535" y1="38.568" x2="53.428" y2="38.568"/>
  <rect class="cls-5" x="103.348" y="33.126" width="27.74" height="10.885"/>
  <line class="cls-6" x1="18.537" y1="23.601" x2="18.537" y2="53.535"/>
  <g class="cls-15">
    <path d="m17.79,15.765c.046-.196.081-.322.081-.587,0-.438-.161-.53-.357-.53-.415,0-.645.553-.841,1.371-.069.253-.081.265-.196.265-.023,0-.139,0-.139-.115,0-.035.15-.726.357-1.118.104-.207.322-.656.853-.656.426,0,.921.242,1.037.864.38-.449.933-.864,1.509-.864.875,0,1.532.76,1.532,1.843,0,1.693-1.44,3.375-2.776,3.375-.587,0-.91-.403-1.06-.737-.081.288-.564,2.166-.564,2.304,0,.104,0,.185.576.185.161,0,.276,0,.276.126,0,.23-.15.23-.208.23-.369,0-.76-.035-1.14-.035-.323,0-.657.035-.968.035-.092,0-.15-.046-.15-.138,0-.219.127-.219.265-.219.507,0,.53-.081.622-.473l1.29-5.126Zm.173,2.385c-.035.138-.035.161-.035.185,0,.069.15,1.025.91,1.025.426,0,.979-.38,1.371-1.187.208-.438.587-1.763.587-2.442s-.276-1.083-.737-1.083c-.196,0-.53.081-.933.438-.208.173-.519.496-.599.807l-.564,2.258Z"/>
  </g>
  <g>
    <line class="cls-1" x1="22.751" y1="32.71" x2="46.877" y2="32.71"/>
    <polygon points="45.427 34.619 46.24 32.71 45.427 30.799 49.956 32.71 45.427 34.619"/>
  </g>
  <g>
    <line class="cls-8" x1="155.645" y1="32.71" x2="179.706" y2="32.71"/>
    <polygon points="157.128 34.666 156.3 32.71 157.128 30.753 152.491 32.71 157.128 34.666"/>
  </g>
  <g>
    <circle class="cls-11" cx="62.951" cy="38.568" r="9.524"/>
    <circle class="cls-11" cx="71.438" cy="38.568" r="9.524"/>
  </g>
  <g>
    <g>
      <path d="m73.895,24.121c.007-.04.02-.127.02-.201,0-.181-.047-.328-.221-.328-.261,0-.388.335-.489.724-.047.181-.054.201-.147.201-.02,0-.114,0-.114-.087,0-.04.107-.442.241-.67.107-.181.268-.355.529-.355.201,0,.576.087.69.469.181-.188.536-.469.952-.469.462,0,1.004.335,1.004,1.119,0,.998-.904,1.902-1.721,1.902-.402,0-.61-.261-.69-.395-.074.281-.167.643-.248.998-.027.101-.074.274-.074.308,0,.081.181.081.328.081.081,0,.174,0,.174.094,0,.127-.074.147-.134.147-.221,0-.476-.026-.704-.026-.181,0-.402.026-.576.026-.033,0-.094-.026-.094-.1,0-.141.094-.141.181-.141.268,0,.281-.054.328-.241l.764-3.055Zm.167,1.434c-.007.027-.02.074-.02.101,0,.067.121.583.596.583.341,0,.669-.321.837-.65.201-.388.349-1.072.349-1.346,0-.456-.228-.65-.489-.65-.214,0-.549.101-.938.616l-.335,1.347Z"/>
      <path d="m77.999,24.584c.274-.114.496-.322.777-.59.342-.315.69-.589,1.072-.589.355,0,.516.248.516.469,0,.282-.201.429-.382.429-.154,0-.268-.1-.268-.248,0-.101.06-.328.348-.375-.054-.067-.141-.087-.221-.087-.375,0-.71.315-1.051.636-.114.101-.362.322-.556.442.281.02,1.085.114,1.085.71,0,.074-.026.188-.033.208-.041.174-.041.188-.041.302,0,.181.054.348.235.348.328,0,.509-.476.589-.764.033-.127.04-.161.134-.161.02,0,.107,0,.107.087,0,.007-.201,1.025-.851,1.025-.322,0-.71-.214-.71-.69,0-.074,0-.107.027-.208.014-.067.014-.101.014-.134,0-.348-.382-.502-.857-.549-.027.094-.315,1.272-.329,1.299-.04.147-.127.281-.308.281-.147,0-.228-.114-.228-.214,0-.013,0-.027.033-.147l.945-3.791c.013-.061.027-.101.027-.147,0-.054,0-.101-.322-.101-.08,0-.174,0-.174-.094,0-.141.094-.147.147-.154.167-.013.724-.067.857-.067.081,0,.107.061.107.094,0,.007-.02.094-.027.107l-.663,2.673Z"/>
    </g>
    <path d="m71.074,23.262c.45-.564.766-1.292.938-1.895.048-.172.048-.201.144-.201.105,0,.115.076.115.096,0,.009-.201,1.119-1.1,2.248-.096.115-.096.134-.096.335,0,.229,0,.976.297.976.019,0,.363,0,.536-.469.029-.067.057-.096.125-.096.057,0,.115.029.115.096,0,.153-.297.68-.804.68-.431,0-.746-.297-.871-.804-.727.583-1.416.804-2.019.804-.976,0-1.55-.728-1.55-1.617,0-1.349,1.263-2.717,2.574-2.717.708,0,1.598.469,1.598,1.971v.593Zm-.66-.354c0-.747,0-2-.947-2-.334,0-.851.182-1.301.88-.306.488-.555,1.521-.555,1.99,0,.612.287,1.042.861,1.042.382,0,1.119-.105,1.961-.842-.019-.163-.019-.717-.019-1.071Z"/>
    <g>
      <path d="m56.573,24.17c0,.354.028.459.89.459h.306v.296c-.335-.029-1.167-.029-1.55-.029s-1.215,0-1.55.029v-.296h.306c.861,0,.89-.115.89-.459v-4.956c-.498.249-1.062.249-1.253.249v-.296c.306,0,1.148,0,1.741-.612.22,0,.22.019.22.249v5.367Z"/>
      <path d="m62.521,21.817c-.278,0-.507-.229-.507-.507s.229-.507.507-.507.507.229.507.507-.229.507-.507.507Zm0,3.109c-.278,0-.507-.229-.507-.507s.229-.507.507-.507.507.229.507.507-.229.507-.507.507Z"/>
    </g>
  </g>
  <polyline class="cls-7" points="204.717 123.675 204.717 45.737 186.017 45.737"/>
  <rect class="cls-2" x="199.274" y="70.833" width="10.884" height="27.746"/>
  <g>
    <path d="m227.249,85.791c.286-.119.516-.335.809-.614.355-.327.718-.613,1.116-.613.37,0,.537.258.537.488,0,.293-.209.446-.397.446-.16,0-.279-.104-.279-.258,0-.104.063-.342.363-.391-.056-.07-.146-.091-.23-.091-.391,0-.739.328-1.095.662-.118.104-.376.335-.579.461.293.021,1.13.118,1.13.738,0,.077-.028.195-.035.217-.042.181-.042.195-.042.313,0,.188.056.362.244.362.342,0,.53-.495.614-.795.035-.132.042-.167.14-.167.021,0,.111,0,.111.091,0,.007-.209,1.066-.886,1.066-.334,0-.739-.223-.739-.718,0-.077,0-.111.028-.216.014-.07.014-.105.014-.14,0-.363-.397-.523-.893-.572-.028.098-.328,1.325-.341,1.354-.042.153-.133.292-.321.292-.154,0-.237-.118-.237-.223,0-.014,0-.028.035-.153l.983-3.947c.014-.062.028-.104.028-.153,0-.056,0-.104-.334-.104-.084,0-.182,0-.182-.098,0-.146.098-.153.154-.16.174-.014.753-.07.893-.07.083,0,.111.063.111.098,0,.008-.021.098-.028.112l-.69,2.782Z"/>
    <g>
      <path d="m220.843,85.359c0,.133,0,.182-.119.182-.028,0-.112,0-.119-.077-.014-.202-.049-.767-.858-.767-.662,0-.851.271-.851.495,0,.369.453.453,1.011.551.244.042.565.098.83.342.182.167.3.376.3.642,0,.495-.334.982-1.241.982-.167,0-.544-.014-.851-.3-.14.153-.272.3-.334.3-.098,0-.098-.062-.098-.181v-.858c0-.139,0-.188.118-.188.098,0,.105.027.125.118.126.475.37.913,1.039.913s.858-.32.858-.592c0-.468-.565-.565-.914-.628-.432-.07-.697-.119-.962-.349-.167-.14-.265-.321-.265-.544,0-.349.237-.872,1.234-.872.258,0,.523.042.732.188.042-.035.111-.098.125-.104.091-.084.104-.084.14-.084.098,0,.098.063.098.182v.648Z"/>
      <path d="m224.944,87.088c0,.3.07.3.523.3v.251c-.063-.007-.544-.028-.802-.028-.293,0-.781.028-.795.028v-.251c.453,0,.523,0,.523-.3v-1.59c0-.355-.063-.739-.551-.739-.46,0-1.039.342-1.039,1.074v1.255c0,.3.07.3.523.3v.251c-.063-.007-.544-.028-.802-.028-.293,0-.781.028-.795.028v-.251c.453,0,.523,0,.523-.3v-3.57c0-.342-.056-.391-.523-.391v-.251l1.046-.077v2.399h.007c.153-.266.495-.635,1.116-.635.746,0,1.046.355,1.046.962v1.562Z"/>
    </g>
    <path d="m216.903,86.814c-.149.598-.867,1.375-2.112,1.375-.957,0-1.325-.199-1.325-.608,0-.398.319-.578.538-.578.269,0,.378.189.378.35,0,.169-.109.428-.408.518.279.09.608.1.797.1,1.056,0,1.395-.986,1.435-1.076,0-.02.12-.428.329-1.315l-.01-.01c-.1.109-.568.578-1.156.578-.718,0-1.325-.588-1.325-1.574,0-1.435,1.235-2.83,2.371-2.83.399,0,.748.259.927.628.04-.358.309-.429.409-.429.169,0,.289.1.289.27,0,.069-.02.119-.03.179l-1.106,4.425Zm.289-3.847c.01-.04.03-.1.03-.149s-.139-.856-.797-.856c-.418,0-.847.398-1.116.887-.269.508-.558,1.684-.558,2.162,0,.398.149.917.647.917.289,0,.598-.18.807-.359.219-.189.448-.438.508-.697l.478-1.903Z"/>
  </g>
  <g>
    <line class="cls-1" x1="194.653" y1="53.976" x2="194.653" y2="78.102"/>
    <polygon points="196.562 76.652 194.653 77.465 192.741 76.652 194.653 81.181 196.562 76.652"/>
  </g>
  <g>
    <line class="cls-4" x1="215.601" y1="123.868" x2="193.83" y2="123.868"/>
    <line class="cls-13" x1="211.52" y1="126.891" x2="197.912" y2="126.891"/>
    <line class="cls-12" x1="207.44" y1="130.092" x2="201.996" y2="130.092"/>
  </g>
  <g>
    <g>
      <path d="m117.217,27.398c.007-.042.021-.133.021-.209,0-.188-.049-.342-.23-.342-.272,0-.405.349-.509.753-.049.188-.056.209-.153.209-.021,0-.119,0-.119-.091,0-.041.112-.46.251-.697.112-.188.279-.369.551-.369.209,0,.6.091.718.488.188-.195.558-.488.99-.488.481,0,1.046.349,1.046,1.164,0,1.039-.941,1.98-1.792,1.98-.418,0-.634-.271-.718-.411-.077.293-.174.67-.258,1.039-.028.104-.077.286-.077.321,0,.083.188.083.342.083.083,0,.181,0,.181.098,0,.133-.077.153-.14.153-.23,0-.495-.027-.732-.027-.188,0-.418.027-.6.027-.035,0-.098-.027-.098-.104,0-.146.098-.146.188-.146.279,0,.293-.056.342-.251l.795-3.18Zm.174,1.492c-.007.028-.021.077-.021.104,0,.07.125.606.621.606.356,0,.698-.334.872-.676.209-.404.362-1.116.362-1.401,0-.475-.237-.677-.509-.677-.223,0-.572.104-.977.642l-.349,1.401Z"/>
      <path d="m121.491,27.879c.286-.119.516-.335.809-.614.355-.327.718-.613,1.116-.613.37,0,.537.258.537.488,0,.293-.209.446-.397.446-.16,0-.279-.104-.279-.258,0-.104.063-.342.363-.391-.056-.07-.146-.091-.23-.091-.391,0-.739.328-1.095.662-.118.104-.376.335-.579.461.293.021,1.13.118,1.13.738,0,.077-.028.195-.035.217-.042.181-.042.195-.042.313,0,.188.056.362.244.362.342,0,.53-.495.614-.795.035-.132.042-.167.14-.167.021,0,.111,0,.111.091,0,.007-.209,1.066-.886,1.066-.334,0-.739-.223-.739-.718,0-.077,0-.111.028-.216.014-.07.014-.105.014-.14,0-.363-.397-.523-.893-.572-.028.098-.328,1.325-.341,1.353-.042.154-.133.293-.321.293-.154,0-.237-.118-.237-.223,0-.014,0-.028.035-.153l.983-3.947c.014-.062.028-.104.028-.153,0-.056,0-.104-.334-.104-.084,0-.182,0-.182-.098,0-.146.098-.153.154-.16.174-.014.753-.07.893-.07.083,0,.111.063.111.098,0,.008-.021.098-.028.112l-.69,2.782Z"/>
    </g>
    <path d="m113.194,26.589c-.11.438-.169.658-.169.877,0,.339.159.658.548.658.319,0,.997-.239,1.325-1.306.02-.069.04-.109.13-.109.03,0,.12,0,.12.1,0,.249-.568,1.534-1.595,1.534-.598,0-.956-.389-1.076-.757-.03.06-.389.757-1.046.757-.438,0-.937-.199-.937-.657,0-.319.249-.578.548-.578.149,0,.369.08.369.349,0,.279-.219.488-.468.538.209.13.438.13.498.13.438,0,.787-.419.947-1.036.369-1.396.538-2.062.538-2.372,0-.577-.349-.667-.538-.667-.339,0-.997.249-1.335,1.305-.02.09-.05.11-.13.11-.02,0-.12,0-.12-.1,0-.25.568-1.535,1.604-1.535.289,0,.827.1,1.076.758.12-.229.468-.758,1.046-.758.339,0,.927.14.927.658,0,.398-.319.577-.538.577-.269,0-.378-.188-.378-.349,0-.239.199-.488.478-.538-.209-.129-.448-.129-.498-.129-.698,0-.927.916-.986,1.176l-.339,1.364Z"/>
  </g>
  <g>
    <g>
      <path d="m36.703,26.599c.007-.042.021-.133.021-.209,0-.188-.049-.342-.23-.342-.272,0-.405.349-.509.753-.049.188-.056.209-.153.209-.021,0-.119,0-.119-.091,0-.041.112-.46.251-.697.112-.188.279-.369.551-.369.209,0,.6.091.718.488.188-.195.558-.488.99-.488.481,0,1.046.349,1.046,1.164,0,1.039-.941,1.98-1.792,1.98-.418,0-.634-.271-.718-.411-.077.293-.174.67-.258,1.039-.028.104-.077.286-.077.321,0,.083.188.083.342.083.083,0,.181,0,.181.098,0,.133-.077.153-.14.153-.23,0-.495-.027-.732-.027-.188,0-.418.027-.6.027-.035,0-.098-.027-.098-.104,0-.146.098-.146.188-.146.279,0,.293-.056.342-.251l.795-3.18Zm.174,1.492c-.007.028-.021.077-.021.104,0,.07.125.606.621.606.356,0,.698-.334.872-.676.209-.404.362-1.116.362-1.401,0-.475-.237-.677-.509-.677-.223,0-.572.104-.977.642l-.349,1.401Z"/>
      <path d="m40.978,27.08c.286-.119.516-.335.809-.614.355-.327.718-.613,1.116-.613.37,0,.537.258.537.488,0,.293-.209.446-.397.446-.16,0-.279-.104-.279-.258,0-.104.063-.342.363-.391-.056-.07-.146-.091-.23-.091-.391,0-.739.328-1.095.662-.118.104-.376.335-.579.461.293.021,1.13.118,1.13.738,0,.077-.028.195-.035.217-.042.181-.042.195-.042.313,0,.188.056.362.244.362.342,0,.53-.495.614-.795.035-.132.042-.167.14-.167.021,0,.111,0,.111.091,0,.007-.209,1.066-.886,1.066-.334,0-.739-.223-.739-.718,0-.077,0-.111.028-.216.014-.07.014-.105.014-.14,0-.363-.397-.523-.893-.572-.028.098-.328,1.325-.341,1.353-.042.154-.133.293-.321.293-.154,0-.237-.118-.237-.223,0-.014,0-.028.035-.153l.983-3.947c.014-.062.028-.104.028-.153,0-.056,0-.104-.334-.104-.084,0-.182,0-.182-.098,0-.146.098-.153.154-.16.174-.014.753-.07.893-.07.083,0,.111.063.111.098,0,.008-.021.098-.028.112l-.69,2.782Z"/>
    </g>
    <path d="m31.39,26.778c-.01.06-.03.109-.03.169,0,.18.279.18.647.18.189,0,.279,0,.279.109,0,.199-.129.199-.199.199-.209,0-.428-.02-.647-.02-.209,0-.429-.011-.638-.011-.279,0-.986.03-1.266.03-.03,0-.149,0-.149-.119,0-.189.11-.189.279-.189.787,0,.807-.08.907-.469l1.335-5.351c.03-.119.04-.149.04-.189,0-.109-.06-.14-.219-.159-.12-.01-.299-.02-.429-.02-.199,0-.289,0-.289-.12,0-.189.11-.189.299-.189h3.228c1.306,0,1.963.737,1.963,1.505,0,1.116-1.385,2.152-2.8,2.152h-1.694l-.618,2.491Zm.658-2.75h1.405c.438,0,1.036-.08,1.535-.528.388-.359.588-1.216.588-1.604,0-.688-.528-.956-1.355-.956h-.957c-.428,0-.448.029-.538.378l-.677,2.711Z"/>
  </g>
  <g>
    <g>
      <path d="m166.622,27.08c.286-.119.516-.335.809-.614.355-.327.718-.613,1.116-.613.37,0,.537.258.537.488,0,.293-.209.446-.397.446-.16,0-.279-.104-.279-.258,0-.104.063-.342.363-.391-.056-.07-.146-.091-.23-.091-.391,0-.739.328-1.095.662-.118.104-.376.335-.579.461.293.021,1.13.118,1.13.738,0,.077-.028.195-.035.217-.042.181-.042.195-.042.313,0,.188.056.362.244.362.342,0,.53-.495.614-.795.035-.132.042-.167.14-.167.021,0,.111,0,.111.091,0,.007-.209,1.066-.886,1.066-.334,0-.739-.223-.739-.718,0-.077,0-.111.028-.216.014-.07.014-.105.014-.14,0-.363-.397-.523-.893-.572-.028.098-.328,1.325-.341,1.353-.042.154-.133.293-.321.293-.154,0-.237-.118-.237-.223,0-.014,0-.028.035-.153l.983-3.947c.014-.062.028-.104.028-.153,0-.056,0-.104-.334-.104-.084,0-.182,0-.182-.098,0-.146.098-.153.154-.16.174-.014.753-.07.893-.07.083,0,.111.063.111.098,0,.008-.021.098-.028.112l-.69,2.782Z"/>
      <path d="m170.68,26.599c.007-.042.021-.133.021-.209,0-.188-.049-.342-.23-.342-.272,0-.405.349-.509.753-.049.188-.056.209-.153.209-.021,0-.119,0-.119-.091,0-.041.112-.46.251-.697.112-.188.279-.369.551-.369.209,0,.6.091.718.488.188-.195.558-.488.99-.488.481,0,1.046.349,1.046,1.164,0,1.039-.941,1.98-1.792,1.98-.418,0-.634-.271-.718-.411-.077.293-.174.67-.258,1.039-.028.104-.077.286-.077.321,0,.083.188.083.342.083.083,0,.181,0,.181.098,0,.133-.077.153-.14.153-.23,0-.495-.027-.732-.027-.188,0-.418.027-.6.027-.035,0-.098-.027-.098-.104,0-.146.098-.146.188-.146.279,0,.293-.056.342-.251l.795-3.18Zm.174,1.492c-.007.028-.021.077-.021.104,0,.07.125.606.621.606.356,0,.697-.334.872-.676.209-.404.362-1.116.362-1.401,0-.475-.237-.677-.509-.677-.223,0-.572.104-.977.642l-.349,1.401Z"/>
    </g>
    <path d="m161.135,26.778c-.01.06-.03.109-.03.169,0,.18.279.18.647.18.189,0,.279,0,.279.109,0,.199-.129.199-.199.199-.209,0-.428-.02-.647-.02-.209,0-.429-.011-.638-.011-.279,0-.986.03-1.266.03-.03,0-.149,0-.149-.119,0-.189.11-.189.279-.189.787,0,.807-.08.907-.469l1.335-5.351c.03-.119.04-.149.04-.189,0-.109-.06-.14-.219-.159-.12-.01-.299-.02-.429-.02-.199,0-.289,0-.289-.12,0-.189.11-.189.299-.189h3.228c1.306,0,1.963.737,1.963,1.505,0,1.116-1.385,2.152-2.8,2.152h-1.694l-.618,2.491Zm.658-2.75h1.405c.438,0,1.036-.08,1.535-.528.388-.359.588-1.216.588-1.604,0-.688-.528-.956-1.355-.956h-.957c-.428,0-.448.029-.538.378l-.677,2.711Z"/>
  </g>
  <g>
    <path d="m189.077,69.798c.286-.119.516-.335.809-.614.355-.327.718-.613,1.116-.613.37,0,.537.258.537.488,0,.293-.209.446-.397.446-.16,0-.279-.104-.279-.258,0-.104.063-.342.363-.391-.056-.07-.146-.091-.23-.091-.391,0-.739.328-1.095.662-.118.104-.376.335-.579.461.293.021,1.13.118,1.13.738,0,.077-.028.195-.035.217-.042.181-.042.195-.042.313,0,.188.056.362.244.362.342,0,.53-.495.614-.795.035-.132.042-.167.14-.167.021,0,.111,0,.111.091,0,.007-.209,1.066-.886,1.066-.334,0-.739-.223-.739-.718,0-.077,0-.111.028-.216.014-.07.014-.105.014-.14,0-.363-.397-.523-.893-.572-.028.098-.328,1.325-.341,1.353-.042.154-.133.293-.321.293-.154,0-.237-.118-.237-.223,0-.014,0-.028.035-.153l.983-3.947c.014-.062.028-.104.028-.153,0-.056,0-.104-.334-.104-.084,0-.182,0-.182-.098,0-.146.098-.153.154-.16.174-.014.753-.07.893-.07.083,0,.111.063.111.098,0,.008-.021.098-.028.112l-.69,2.782Z"/>
    <g>
      <path d="m182.672,69.365c0,.133,0,.182-.119.182-.028,0-.112,0-.119-.077-.014-.202-.049-.767-.858-.767-.662,0-.851.271-.851.495,0,.369.453.453,1.011.551.244.042.565.098.83.342.182.167.3.376.3.642,0,.495-.334.982-1.241.982-.167,0-.544-.014-.851-.3-.14.153-.272.3-.334.3-.098,0-.098-.062-.098-.181v-.858c0-.139,0-.188.118-.188.098,0,.105.027.125.118.126.475.37.913,1.039.913s.858-.32.858-.592c0-.468-.565-.565-.914-.628-.432-.07-.697-.119-.962-.349-.167-.14-.265-.321-.265-.544,0-.349.237-.872,1.234-.872.258,0,.523.042.732.188.042-.035.111-.098.125-.104.091-.084.104-.084.14-.084.098,0,.098.063.098.182v.648Z"/>
      <path d="m186.772,71.095c0,.3.07.3.523.3v.251c-.063-.007-.544-.028-.802-.028-.293,0-.781.028-.795.028v-.251c.453,0,.523,0,.523-.3v-1.59c0-.355-.063-.739-.551-.739-.46,0-1.039.342-1.039,1.074v1.255c0,.3.07.3.523.3v.251c-.063-.007-.544-.028-.802-.028-.293,0-.781.028-.795.028v-.251c.453,0,.523,0,.523-.3v-3.57c0-.342-.056-.391-.523-.391v-.251l1.046-.077v2.399h.007c.153-.266.495-.635,1.116-.635.746,0,1.046.355,1.046.962v1.562Z"/>
    </g>
    <path d="m176.034,69.495c-.01.06-.03.109-.03.169,0,.18.279.18.647.18.189,0,.279,0,.279.109,0,.199-.129.199-.199.199-.209,0-.428-.02-.647-.02-.209,0-.429-.011-.638-.011-.279,0-.986.03-1.266.03-.03,0-.149,0-.149-.119,0-.189.11-.189.279-.189.787,0,.807-.08.907-.469l1.335-5.351c.03-.119.04-.149.04-.189,0-.109-.06-.14-.219-.159-.12-.01-.299-.02-.429-.02-.199,0-.289,0-.289-.12,0-.189.11-.189.299-.189h3.228c1.305,0,1.963.737,1.963,1.505,0,1.116-1.385,2.152-2.8,2.152h-1.694l-.618,2.491Zm.658-2.75h1.405c.438,0,1.036-.08,1.535-.528.388-.359.588-1.216.588-1.604,0-.688-.528-.956-1.355-.956h-.957c-.428,0-.448.029-.538.378l-.677,2.711Z"/>
  </g>
  <g>
    <g>
      <path d="m284.309,27.828c.286-.119.516-.335.809-.614.355-.327.718-.613,1.116-.613.37,0,.537.258.537.488,0,.293-.209.446-.397.446-.16,0-.279-.104-.279-.258,0-.104.063-.342.363-.391-.056-.07-.146-.091-.23-.091-.391,0-.739.328-1.095.662-.118.104-.376.335-.579.461.293.021,1.13.118,1.13.738,0,.077-.028.195-.035.217-.042.181-.042.195-.042.313,0,.188.056.362.244.362.342,0,.53-.495.614-.795.035-.132.042-.167.14-.167.021,0,.111,0,.111.091,0,.007-.209,1.066-.886,1.066-.334,0-.739-.223-.739-.718,0-.077,0-.111.028-.216.014-.07.014-.105.014-.14,0-.363-.397-.523-.893-.572-.028.098-.328,1.325-.341,1.353-.042.154-.133.293-.321.293-.154,0-.237-.118-.237-.223,0-.014,0-.028.035-.153l.983-3.947c.014-.062.028-.104.028-.153,0-.056,0-.104-.334-.104-.084,0-.182,0-.182-.098,0-.146.098-.153.154-.16.174-.014.753-.07.893-.07.083,0,.111.063.111.098,0,.008-.021.098-.028.112l-.69,2.782Z"/>
      <path d="m289.664,30.539c-.035.119-.035.133-.035.154,0,.083.188.083.342.083.083,0,.181,0,.181.098,0,.133-.077.153-.139.153-.216,0-.509-.027-.747-.027s-.495.027-.725.027c-.07,0-.104-.056-.104-.098,0-.153.098-.153.181-.153.433-.007.439-.014.537-.397.028-.118.244-.997.251-1.018-.153.132-.481.383-.878.383-.6,0-1.053-.48-1.053-1.157,0-1.004.907-1.987,1.799-1.987.446,0,.676.32.746.46.139-.223.432-.46.502-.46.063,0,.091.056.091.098,0,.035-.007.076-.014.104l-.935,3.737Zm.209-3.033c.007-.027.021-.069.021-.104,0-.069-.133-.606-.621-.606-.195,0-.551.104-.872.662-.161.279-.363,1.046-.363,1.416,0,.495.251.676.509.676.272,0,.6-.188.872-.509.09-.111.09-.125.125-.244l.328-1.29Z"/>
    </g>
    <path d="m280.112,26.538c-.11.438-.169.658-.169.877,0,.339.159.658.548.658.319,0,.997-.239,1.325-1.306.02-.069.04-.109.13-.109.03,0,.12,0,.12.1,0,.249-.568,1.534-1.595,1.534-.598,0-.956-.389-1.076-.757-.03.06-.389.757-1.046.757-.438,0-.937-.199-.937-.657,0-.319.249-.578.548-.578.149,0,.369.08.369.349,0,.279-.219.488-.468.538.209.13.438.13.498.13.438,0,.787-.419.947-1.036.369-1.396.538-2.062.538-2.372,0-.577-.349-.667-.538-.667-.339,0-.997.249-1.335,1.305-.02.09-.05.11-.13.11-.02,0-.12,0-.12-.1,0-.25.568-1.535,1.604-1.535.289,0,.827.1,1.076.758.12-.229.468-.758,1.046-.758.339,0,.927.14.927.658,0,.398-.319.577-.538.577-.269,0-.378-.188-.378-.349,0-.239.199-.488.478-.538-.209-.129-.448-.129-.498-.129-.698,0-.927.916-.986,1.176l-.339,1.364Z"/>
  </g>
  <g>
    <g>
      <path d="m203.795,27.08c.286-.119.516-.335.809-.614.355-.327.718-.613,1.116-.613.37,0,.537.258.537.488,0,.293-.209.446-.397.446-.16,0-.279-.104-.279-.258,0-.104.063-.342.363-.391-.056-.07-.146-.091-.23-.091-.391,0-.739.328-1.095.662-.118.104-.376.335-.579.461.293.021,1.13.118,1.13.738,0,.077-.028.195-.035.217-.042.181-.042.195-.042.313,0,.188.056.362.244.362.342,0,.53-.495.614-.795.035-.132.042-.167.14-.167.021,0,.111,0,.111.091,0,.007-.209,1.066-.886,1.066-.334,0-.739-.223-.739-.718,0-.077,0-.111.028-.216.014-.07.014-.105.014-.14,0-.363-.397-.523-.893-.572-.028.098-.328,1.325-.341,1.353-.042.154-.133.293-.321.293-.154,0-.237-.118-.237-.223,0-.014,0-.028.035-.153l.983-3.947c.014-.062.028-.104.028-.153,0-.056,0-.104-.334-.104-.084,0-.182,0-.182-.098,0-.146.098-.153.154-.16.174-.014.753-.07.893-.07.083,0,.111.063.111.098,0,.008-.021.098-.028.112l-.69,2.782Z"/>
      <path d="m209.151,29.792c-.035.119-.035.133-.035.154,0,.083.188.083.342.083.083,0,.181,0,.181.098,0,.133-.077.153-.139.153-.216,0-.509-.027-.747-.027s-.495.027-.725.027c-.07,0-.104-.056-.104-.098,0-.153.098-.153.181-.153.433-.007.439-.014.537-.397.028-.118.244-.997.251-1.018-.153.132-.481.383-.878.383-.6,0-1.053-.48-1.053-1.157,0-1.004.907-1.987,1.799-1.987.446,0,.676.32.746.46.139-.223.432-.46.502-.46.063,0,.091.056.091.098,0,.035-.007.076-.014.104l-.935,3.737Zm.209-3.033c.007-.027.021-.069.021-.104,0-.069-.133-.606-.621-.606-.195,0-.551.104-.872.662-.161.279-.363,1.046-.363,1.416,0,.495.251.676.509.676.272,0,.6-.188.872-.509.09-.111.09-.125.125-.244l.328-1.29Z"/>
    </g>
    <path d="m198.308,26.778c-.01.06-.03.109-.03.169,0,.18.279.18.647.18.189,0,.279,0,.279.109,0,.199-.129.199-.199.199-.209,0-.428-.02-.647-.02-.209,0-.429-.011-.638-.011-.279,0-.986.03-1.266.03-.03,0-.149,0-.149-.119,0-.189.11-.189.279-.189.787,0,.807-.08.907-.469l1.335-5.351c.03-.119.04-.149.04-.189,0-.109-.06-.14-.219-.159-.12-.01-.299-.02-.429-.02-.199,0-.289,0-.289-.12,0-.189.11-.189.299-.189h3.228c1.306,0,1.963.737,1.963,1.505,0,1.116-1.385,2.152-2.8,2.152h-1.694l-.618,2.491Zm.658-2.75h1.405c.438,0,1.036-.08,1.535-.528.388-.359.588-1.216.588-1.604,0-.688-.528-.956-1.355-.956h-.957c-.428,0-.448.029-.538.378l-.677,2.711Z"/>
  </g>
  <g>
    <g>
      <path d="m335.662,29.792c-.034.119-.034.133-.034.154,0,.083.188.083.342.083.083,0,.181,0,.181.098,0,.133-.076.153-.139.153-.217,0-.51-.027-.746-.027s-.496.027-.726.027c-.069,0-.104-.056-.104-.098,0-.153.098-.153.182-.153.432-.007.439-.014.537-.397.027-.118.244-.997.25-1.018-.152.132-.48.383-.878.383-.601,0-1.054-.48-1.054-1.157,0-1.004.907-1.987,1.8-1.987.446,0,.677.32.746.46.14-.223.433-.46.502-.46.063,0,.091.056.091.098,0,.035-.008.076-.014.104l-.936,3.737Zm.21-3.033c.007-.027.021-.069.021-.104,0-.069-.133-.606-.62-.606-.195,0-.552.104-.872.662-.16.279-.362,1.046-.362,1.416,0,.495.251.676.509.676.271,0,.6-.188.872-.509.091-.111.091-.125.126-.244l.327-1.29Z"/>
      <path d="m338.187,27.08c.286-.119.516-.335.809-.614.355-.327.719-.613,1.116-.613.37,0,.536.258.536.488,0,.293-.209.446-.396.446-.16,0-.279-.104-.279-.258,0-.104.062-.342.363-.391-.057-.07-.146-.091-.23-.091-.391,0-.739.328-1.096.662-.117.104-.376.335-.578.461.293.021,1.13.118,1.13.738,0,.077-.028.195-.035.217-.042.181-.042.195-.042.313,0,.188.057.362.244.362.342,0,.53-.495.613-.795.035-.132.043-.167.141-.167.021,0,.111,0,.111.091,0,.007-.209,1.066-.887,1.066-.334,0-.738-.223-.738-.718,0-.077,0-.111.027-.216.014-.07.014-.105.014-.14,0-.363-.396-.523-.893-.572-.027.098-.327,1.325-.341,1.353-.042.154-.133.293-.321.293-.153,0-.236-.118-.236-.223,0-.014,0-.028.035-.153l.982-3.947c.014-.062.027-.104.027-.153,0-.056,0-.104-.334-.104-.084,0-.182,0-.182-.098,0-.146.098-.153.154-.16.174-.014.752-.07.893-.07.083,0,.111.063.111.098,0,.008-.021.098-.028.112l-.69,2.782Z"/>
    </g>
    <path d="m329.053,26.778c-.01.06-.029.109-.029.169,0,.18.279.18.647.18.189,0,.278,0,.278.109,0,.199-.129.199-.199.199-.209,0-.428-.02-.646-.02-.21,0-.43-.011-.639-.011-.278,0-.986.03-1.266.03-.029,0-.148,0-.148-.119,0-.189.109-.189.279-.189.787,0,.807-.08.906-.469l1.335-5.351c.03-.119.04-.149.04-.189,0-.109-.061-.14-.219-.159-.12-.01-.299-.02-.43-.02-.199,0-.289,0-.289-.12,0-.189.11-.189.3-.189h3.228c1.307,0,1.963.737,1.963,1.505,0,1.116-1.385,2.152-2.799,2.152h-1.694l-.618,2.491Zm.658-2.75h1.404c.439,0,1.037-.08,1.535-.528.389-.359.588-1.216.588-1.604,0-.688-.528-.956-1.355-.956h-.957c-.428,0-.447.029-.537.378l-.678,2.711Z"/>
  </g>
</svg>