<svg id="Layer_1" data-name="Layer 1" xmlns="http://www.w3.org/2000/svg" viewBox="0 0 259.048 117.847"><defs><style>.cls-1,.cls-2{fill:#fff;}.cls-1,.cls-2,.cls-3{stroke:#231f20;}.cls-1{stroke-miterlimit:2;stroke-width:0.582px;}.cls-2,.cls-3,.cls-5,.cls-6,.cls-7,.cls-8{stroke-miterlimit:10;}.cls-3,.cls-5,.cls-6,.cls-7,.cls-8{fill:none;}.cls-4{fill:#231f20;}.cls-5,.cls-7{stroke:#010101;}.cls-5{stroke-width:1.9px;}.cls-6{stroke:#000;}.cls-8{stroke:#ed1c24;}</style></defs><rect class="cls-1" x="0.291" y="0.291" width="258.466" height="117.265" rx="4"/><line class="cls-2" x1="58.906" y1="31.427" x2="149.85" y2="31.427"/><line class="cls-3" x1="244.131" y1="31.01" x2="224.589" y2="31.01"/><polygon class="cls-4" points="241.323 27.307 242.896 31.01 241.323 34.713 250.101 31.01 241.323 27.307"/><line class="cls-5" x1="58.388" y1="23.944" x2="58.388" y2="53.877"/><polyline class="cls-3" points="96.6 76.607 96.6 46.394 58.252 46.394"/><line class="cls-5" x1="89.116" y1="77.161" x2="119.05" y2="77.161"/><line class="cls-5" x1="149.846" y1="23.944" x2="149.846" y2="53.877"/><line class="cls-2" x1="58.166" y1="39.068" x2="32.654" y2="39.069"/><circle class="cls-2" cx="28.919" cy="39.966" r="9.524" transform="translate(-7.652 4.011) rotate(-9.082)"/><path class="cls-6" d="M33.728,38.914s-1.5,1.987-2.267,2.1c-.93.142-2.546-1.058-2.546-1.058s-2.345-1.184-2.836-1.045c-.713.2-2.085,2.1-2.085,2.1" transform="translate(-1.706 -1.055)"/><line class="cls-5" x1="224.259" y1="16.144" x2="224.259" y2="46.077"/><line class="cls-7" x1="150.877" y1="31.269" x2="173.554" y2="31.269"/><circle class="cls-8" cx="183.284" cy="31.269" r="9.524"/><circle class="cls-7" cx="193.476" cy="32.324" r="9.524" transform="translate(0.547 74.987) rotate(-22.363)"/><line class="cls-7" x1="200.877" y1="31.019" x2="223.554" y2="31.019"/><path d="M56,21.289A1.466,1.466,0,0,1,54.4,22.6H51.583v-.222h.172c.553,0,.567-.079.567-.337V18.261c0-.258-.014-.337-.567-.337h-.172V17.7h2.626A1.44,1.44,0,0,1,55.8,18.914c0,.531-.5.99-1.19,1.127A1.407,1.407,0,0,1,56,21.289Zm-2.037-1.313a1.083,1.083,0,0,0,1.148-1.062.953.953,0,0,0-.947-.99h-.89c-.337,0-.352.05-.352.287v1.765Zm1.32,1.306a1.076,1.076,0,0,0-1.012-1.149H52.917v1.959c0,.237.015.287.352.287h.9A1.084,1.084,0,0,0,55.278,21.282Z" transform="translate(-1.706 -1.055)"/><path d="M58.283,22.68c-1.091,0-1.091-.653-1.091-1.212V20.392c0-.638,0-.66-.559-.66V19.51l1.054-.08v2.382c0,.373.029.71.632.71.523,0,.868-.487.868-1.111V20.133c0-.351-.058-.4-.56-.4V19.51l1.055-.08v2.548c0,.351.057.4.559.4V22.6l-1.033.079v-.645A.978.978,0,0,1,58.283,22.68Z" transform="translate(-1.706 -1.055)"/><path d="M60.93,20.879a.762.762,0,0,1-.309-.609c0-.4.273-.883,1.148-.883a1.1,1.1,0,0,1,.674.2.881.881,0,0,0,.122-.114c.094-.087.108-.087.144-.087.079,0,.079.051.079.173v.724c0,.136,0,.173-.094.173a.077.077,0,0,1-.086-.065.791.791,0,0,0-.839-.868c-.617,0-.8.294-.8.545,0,.416.481.509.883.588a1.467,1.467,0,0,1,.818.345.923.923,0,0,1,.3.681c0,.517-.33,1-1.155,1a1.071,1.071,0,0,1-.789-.308,1.711,1.711,0,0,0-.144.165c-.136.136-.143.143-.179.143-.079,0-.079-.05-.079-.172v-.947c0-.129,0-.179.093-.179.072,0,.079.029.1.122.136.609.394,1.018,1,1.018.56,0,.811-.286.811-.652,0-.517-.589-.631-.747-.66A1.875,1.875,0,0,1,60.93,20.879Z" transform="translate(-1.706 -1.055)"/><path d="M67.708,22.035c0,.265.022.344.667.344h.23V22.6c-.251-.021-.875-.021-1.162-.021s-.911,0-1.162.021v-.222h.229c.646,0,.667-.086.667-.344V18.319a2.153,2.153,0,0,1-.94.186v-.222a1.773,1.773,0,0,0,1.306-.459c.165,0,.165.014.165.186Z" transform="translate(-1.706 -1.055)"/><path d="M147.345,21.289a1.466,1.466,0,0,1-1.6,1.312h-2.812v-.223h.171c.553,0,.567-.078.567-.336V18.261c0-.258-.014-.338-.567-.338h-.171V17.7h2.625a1.441,1.441,0,0,1,1.593,1.212c0,.531-.495.99-1.191,1.127A1.408,1.408,0,0,1,147.345,21.289Zm-2.037-1.314a1.082,1.082,0,0,0,1.148-1.062.954.954,0,0,0-.947-.99h-.89c-.337,0-.351.051-.351.287v1.765Zm1.32,1.306a1.075,1.075,0,0,0-1.011-1.148h-1.349v1.959c0,.237.014.286.351.286h.9A1.083,1.083,0,0,0,146.628,21.281Z" transform="translate(-1.706 -1.055)"/><path d="M149.633,22.68c-1.09,0-1.09-.652-1.09-1.212V20.391c0-.638,0-.659-.56-.659v-.223l1.055-.079v2.382c0,.373.028.711.631.711.524,0,.868-.488.868-1.113V20.133c0-.351-.057-.4-.56-.4v-.223l1.055-.079v2.547c0,.352.058.4.56.4V22.6l-1.033.079v-.645A.98.98,0,0,1,149.633,22.68Z" transform="translate(-1.706 -1.055)"/><path d="M152.28,20.879a.762.762,0,0,1-.309-.609c0-.4.273-.883,1.148-.883a1.106,1.106,0,0,1,.675.2.945.945,0,0,0,.122-.115c.093-.086.107-.086.143-.086.079,0,.079.05.079.173v.724c0,.136,0,.172-.093.172a.076.076,0,0,1-.086-.065.792.792,0,0,0-.84-.867c-.617,0-.8.294-.8.545,0,.416.48.509.882.588a1.466,1.466,0,0,1,.818.344.928.928,0,0,1,.3.682c0,.516-.33,1-1.155,1a1.07,1.07,0,0,1-.789-.309,1.564,1.564,0,0,0-.143.166c-.137.136-.144.143-.18.143-.079,0-.079-.05-.079-.172v-.947c0-.129,0-.18.094-.18.071,0,.079.029.1.123.136.609.4,1.019,1,1.019.56,0,.811-.288.811-.654,0-.516-.588-.631-.746-.66A1.867,1.867,0,0,1,152.28,20.879Z" transform="translate(-1.706 -1.055)"/><path d="M159.152,22.049a2.309,2.309,0,0,0,.681-.058,2.357,2.357,0,0,0,.158-.638h.179l-.2,1.248h-2.662c0-.172,0-.187.079-.265l1.377-1.535a2.569,2.569,0,0,0,.753-1.586c0-.588-.308-1.169-.961-1.169a1.034,1.034,0,0,0-.968.731.277.277,0,0,1,.093-.007.363.363,0,0,1,.38.373.377.377,0,1,1-.753-.021,1.326,1.326,0,0,1,1.342-1.3,1.409,1.409,0,0,1,1.52,1.392c0,.717-.43,1.105-1.549,2.095l-.76.739Z" transform="translate(-1.706 -1.055)"/><path d="M127.163,79.274a1.466,1.466,0,0,1-1.6,1.313h-2.812v-.223h.172c.553,0,.567-.079.567-.337V76.246c0-.257-.014-.337-.567-.337h-.172v-.222h2.626a1.44,1.44,0,0,1,1.592,1.212c0,.531-.495.99-1.19,1.126A1.409,1.409,0,0,1,127.163,79.274Zm-2.037-1.313a1.083,1.083,0,0,0,1.148-1.062.953.953,0,0,0-.947-.99h-.89c-.337,0-.351.05-.351.287v1.765Zm1.32,1.305a1.074,1.074,0,0,0-1.012-1.147h-1.348v1.958c0,.237.014.287.351.287h.9A1.084,1.084,0,0,0,126.446,79.266Z" transform="translate(-1.706 -1.055)"/><path d="M129.451,80.666c-1.09,0-1.09-.653-1.09-1.212V78.377c0-.638,0-.66-.56-.66V77.5l1.055-.079V79.8c0,.374.028.711.631.711.523,0,.868-.488.868-1.112V78.119c0-.352-.058-.4-.56-.4V77.5l1.055-.079v2.547c0,.351.057.4.559.4v.223l-1.033.079V80.02A.979.979,0,0,1,129.451,80.666Z" transform="translate(-1.706 -1.055)"/><path d="M132.1,78.864a.762.762,0,0,1-.309-.609c0-.4.273-.883,1.148-.883a1.1,1.1,0,0,1,.674.2.824.824,0,0,0,.122-.114c.094-.087.108-.087.144-.087.079,0,.079.051.079.173v.724c0,.137,0,.173-.093.173a.077.077,0,0,1-.087-.065.791.791,0,0,0-.839-.868c-.617,0-.8.294-.8.545,0,.417.481.509.883.588a1.467,1.467,0,0,1,.818.345.923.923,0,0,1,.3.682c0,.516-.33,1-1.155,1a1.07,1.07,0,0,1-.789-.309,1.9,1.9,0,0,0-.144.165c-.136.137-.143.144-.179.144-.079,0-.079-.051-.079-.173v-.947c0-.129,0-.179.094-.179.071,0,.078.029.1.122.136.61.395,1.019,1,1.019.56,0,.811-.287.811-.653,0-.517-.589-.631-.747-.66A1.866,1.866,0,0,1,132.1,78.864Z" transform="translate(-1.706 -1.055)"/><path d="M140.046,79.36a1.463,1.463,0,0,1-1.528,1.384,1.309,1.309,0,0,1-1.45-1.126.4.4,0,1,1,.8-.014A.393.393,0,0,1,137.4,80a1.3,1.3,0,0,0,1.1.545c.316,0,.811-.208.811-1.183,0-.7-.266-1.191-.854-1.191h-.315c-.123,0-.173,0-.173-.079s.05-.079.108-.086.222-.014.28-.021a.694.694,0,0,0,.638-.374,1.784,1.784,0,0,0,.2-.818c0-.645-.4-.8-.689-.8a1.161,1.161,0,0,0-.954.444c.108,0,.445,0,.445.358a.366.366,0,1,1-.732-.007c0-.545.545-.975,1.27-.975.689,0,1.32.4,1.32.99a1.382,1.382,0,0,1-1,1.262A1.384,1.384,0,0,1,140.046,79.36Z" transform="translate(-1.706 -1.055)"/><path d="M221.68,13.489a1.467,1.467,0,0,1-1.6,1.312h-2.812v-.223h.172c.552,0,.566-.078.566-.336V10.461c0-.258-.014-.338-.566-.338h-.172V9.9h2.625a1.441,1.441,0,0,1,1.593,1.212c0,.531-.495.99-1.191,1.127A1.409,1.409,0,0,1,221.68,13.489Zm-2.038-1.314a1.082,1.082,0,0,0,1.148-1.062.954.954,0,0,0-.947-.99h-.889c-.338,0-.352.051-.352.287v1.765Zm1.32,1.306a1.075,1.075,0,0,0-1.011-1.148H218.6v1.959c0,.236.014.286.352.286h.9A1.083,1.083,0,0,0,220.962,13.481Z" transform="translate(-1.706 -1.055)"/><path d="M223.967,14.88c-1.09,0-1.09-.653-1.09-1.212V12.591c0-.638,0-.659-.56-.659v-.223l1.055-.079v2.382c0,.373.028.71.631.71.524,0,.868-.487.868-1.112V12.333c0-.351-.058-.4-.56-.4v-.223l1.055-.079v2.547c0,.351.058.4.56.4V14.8l-1.033.079v-.645A.98.98,0,0,1,223.967,14.88Z" transform="translate(-1.706 -1.055)"/><path d="M226.614,13.079a.762.762,0,0,1-.309-.609c0-.4.273-.883,1.148-.883a1.106,1.106,0,0,1,.675.2.945.945,0,0,0,.122-.115c.093-.086.107-.086.143-.086.079,0,.079.05.079.173v.724c0,.136,0,.172-.093.172a.076.076,0,0,1-.086-.065.791.791,0,0,0-.84-.867c-.617,0-.8.294-.8.545,0,.416.48.509.882.588a1.466,1.466,0,0,1,.818.344.928.928,0,0,1,.3.682c0,.516-.33,1-1.154,1a1.07,1.07,0,0,1-.79-.309,1.434,1.434,0,0,0-.143.166c-.137.136-.144.143-.18.143-.079,0-.079-.05-.079-.172v-.947c0-.129,0-.18.094-.18.072,0,.079.029.1.123.136.609.4,1.018,1,1.018.559,0,.81-.287.81-.653,0-.517-.588-.631-.746-.66A1.867,1.867,0,0,1,226.614,13.079Z" transform="translate(-1.706 -1.055)"/><path d="M231.484,13.617V13.4l2.2-3.364c.057-.087.079-.087.143-.087.115,0,.115.043.115.187V13.4h.717v.222h-.717v.625c0,.258.015.336.546.336h.15V14.8c-.295-.022-.674-.022-.976-.022s-.674,0-.968.022v-.223h.15c.531,0,.545-.078.545-.336v-.625Zm1.952-2.9L231.685,13.4h1.751Z" transform="translate(-1.706 -1.055)"/><path d="M96.619,28.178a1.466,1.466,0,0,1-1.6,1.312H92.207v-.222h.172c.553,0,.567-.079.567-.337V25.15c0-.258-.014-.337-.567-.337h-.172v-.222h2.626A1.44,1.44,0,0,1,96.426,25.8c0,.531-.5.99-1.191,1.127A1.407,1.407,0,0,1,96.619,28.178Zm-2.037-1.313A1.083,1.083,0,0,0,95.73,25.8a.953.953,0,0,0-.947-.99h-.89c-.337,0-.351.05-.351.287v1.765Zm1.32,1.306a1.075,1.075,0,0,0-1.011-1.149H93.542v1.959c0,.237.014.287.351.287h.9A1.084,1.084,0,0,0,95.9,28.171Z" transform="translate(-1.706 -1.055)"/><path d="M99.108,26.319a.49.49,0,0,1,.531.438.3.3,0,0,1-.309.316.3.3,0,0,1-.308-.309.312.312,0,0,1,.165-.28.189.189,0,0,0-.079-.007c-.545,0-.847.639-.847,1.349v1.105c0,.258.015.337.546.337h.15v.222c-.287-.021-.624-.021-.911-.021-.2,0-.538.014-.818.021v-.222c.481,0,.56,0,.56-.323V27.022c0-.351-.057-.4-.56-.4V26.4l1-.08v.79A1,1,0,0,1,99.108,26.319Z" transform="translate(-1.706 -1.055)"/><path d="M101.281,29.569c-.452,0-1.148-.179-1.148-.76a1.044,1.044,0,0,1,.718-.932,3.487,3.487,0,0,1,1.32-.259v-.265a.812.812,0,0,0-.761-.918,1,1,0,0,0-.774.329.325.325,0,0,1,.366.33.33.33,0,1,1-.66-.007c0-.473.5-.811,1.083-.811a1.371,1.371,0,0,1,.983.395,1.062,1.062,0,0,1,.258.846v1.435c0,.036.029.359.265.359.079,0,.259-.043.259-.459v-.4h.179v.4a.609.609,0,0,1-.588.681.6.6,0,0,1-.56-.588A.992.992,0,0,1,101.281,29.569Zm-.595-.767a.618.618,0,0,0,.646.61.862.862,0,0,0,.839-.926v-.718C100.987,27.812,100.686,28.408,100.686,28.8Z" transform="translate(-1.706 -1.055)"/><path d="M103.648,26.621V26.4l1.012-.08v.754a1.131,1.131,0,0,1,1.061-.754.958.958,0,0,1,.754.266c.222.258.222.481.222,1.1v1.37c.008.215.187.215.56.215v.222c-.244-.007-.617-.021-.8-.021s-.559.014-.81.021v-.222c.48,0,.559,0,.559-.323V27.273c0-.408-.079-.8-.53-.8a1.048,1.048,0,0,0-.969,1.148v1.32c0,.323.079.323.559.323v.222c-.243-.007-.617-.021-.8-.021s-.56.014-.811.021v-.222c.481,0,.56,0,.56-.323V27.022C104.208,26.671,104.15,26.621,103.648,26.621Z" transform="translate(-1.706 -1.055)"/><path d="M109.251,29.39a.936.936,0,0,0,.939-.753c.015-.043.029-.072.093-.072.022,0,.094,0,.094.072a1.181,1.181,0,0,1-1.191.932,1.587,1.587,0,0,1-1.542-1.628,1.607,1.607,0,0,1,1.556-1.665c.553,0,1.1.28,1.1.768a.33.33,0,1,1-.66.007.324.324,0,0,1,.337-.33,1.17,1.17,0,0,0-.768-.265c-.38,0-.968.3-.968,1.471S108.87,29.39,109.251,29.39Z" transform="translate(-1.706 -1.055)"/><path d="M111.374,25.215c0-.352-.058-.4-.56-.4v-.222l1.033-.079v2.51a1.137,1.137,0,0,1,1.04-.7.955.955,0,0,1,.753.266c.223.258.223.481.223,1.1v1.37c.007.215.186.215.559.215v.222c-.243-.007-.617-.021-.8-.021s-.56.014-.811.021v-.222c.481,0,.56,0,.56-.323V27.273c0-.408-.079-.8-.531-.8a1.048,1.048,0,0,0-.968,1.148v1.32c0,.323.078.323.559.323v.222c-.244-.007-.617-.021-.8-.021s-.56.014-.811.021v-.222c.481,0,.56,0,.56-.323Z" transform="translate(-1.706 -1.055)"/><path d="M119.063,28.924c0,.265.022.344.667.344h.23v.222c-.251-.021-.875-.021-1.162-.021s-.911,0-1.162.021v-.222h.229c.646,0,.667-.086.667-.344V25.208a2.153,2.153,0,0,1-.94.186v-.222a1.773,1.773,0,0,0,1.306-.459c.165,0,.165.014.165.186Z" transform="translate(-1.706 -1.055)"/><path d="M70.243,43.289a1.466,1.466,0,0,1-1.6,1.312H65.831v-.223H66c.553,0,.567-.078.567-.336V40.261c0-.258-.014-.338-.567-.338h-.172V39.7h2.626a1.44,1.44,0,0,1,1.592,1.212c0,.531-.5.99-1.19,1.127A1.408,1.408,0,0,1,70.243,43.289Zm-2.037-1.314a1.082,1.082,0,0,0,1.148-1.062.954.954,0,0,0-.947-.99h-.89c-.337,0-.352.051-.352.287v1.765Zm1.32,1.306a1.075,1.075,0,0,0-1.012-1.148H67.165v1.959c0,.237.015.286.352.286h.9A1.083,1.083,0,0,0,69.526,43.281Z" transform="translate(-1.706 -1.055)"/><path d="M72.732,41.43a.49.49,0,0,1,.531.438.3.3,0,0,1-.309.315.3.3,0,0,1-.308-.308.311.311,0,0,1,.165-.28.189.189,0,0,0-.079-.007c-.545,0-.847.639-.847,1.349v1.105c0,.258.015.336.545.336h.151V44.6c-.287-.021-.624-.021-.911-.021-.2,0-.538.014-.818.021v-.223c.481,0,.56,0,.56-.322V42.133c0-.351-.058-.4-.56-.4v-.223l1-.079v.789A1.006,1.006,0,0,1,72.732,41.43Z" transform="translate(-1.706 -1.055)"/><path d="M74.905,44.68c-.452,0-1.148-.179-1.148-.761a1.046,1.046,0,0,1,.718-.932,3.484,3.484,0,0,1,1.32-.258v-.266a.813.813,0,0,0-.761-.918,1.006,1.006,0,0,0-.774.33.325.325,0,0,1,.365.33.33.33,0,1,1-.66-.007c0-.474.495-.811,1.084-.811a1.371,1.371,0,0,1,.983.395,1.061,1.061,0,0,1,.258.846v1.435c0,.036.028.359.265.359.079,0,.258-.044.258-.459v-.4h.18v.4a.609.609,0,0,1-.588.681.6.6,0,0,1-.56-.588A.992.992,0,0,1,74.905,44.68Zm-.595-.768a.618.618,0,0,0,.645.611.862.862,0,0,0,.84-.926v-.718C74.611,42.922,74.31,43.518,74.31,43.912Z" transform="translate(-1.706 -1.055)"/><path d="M77.272,41.732v-.223l1.012-.079v.753a1.132,1.132,0,0,1,1.061-.753.961.961,0,0,1,.754.265c.222.259.222.481.222,1.1v1.369c.007.215.187.215.56.215V44.6c-.244-.007-.617-.021-.8-.021s-.559.014-.81.021v-.223c.48,0,.559,0,.559-.322V42.384c0-.409-.079-.8-.531-.8a1.048,1.048,0,0,0-.968,1.148v1.32c0,.322.079.322.559.322V44.6c-.243-.007-.617-.021-.8-.021s-.56.014-.811.021v-.223c.481,0,.56,0,.56-.322V42.133C77.832,41.782,77.774,41.732,77.272,41.732Z" transform="translate(-1.706 -1.055)"/><path d="M82.874,44.5a.938.938,0,0,0,.94-.753c.015-.044.029-.072.093-.072.022,0,.094,0,.094.072a1.181,1.181,0,0,1-1.191.932,1.588,1.588,0,0,1-1.543-1.628,1.608,1.608,0,0,1,1.557-1.665c.552,0,1.1.28,1.1.767a.33.33,0,1,1-.66.008.324.324,0,0,1,.337-.33,1.17,1.17,0,0,0-.768-.265c-.38,0-.968.3-.968,1.47S82.494,44.5,82.874,44.5Z" transform="translate(-1.706 -1.055)"/><path d="M85,40.326c0-.352-.057-.4-.559-.4V39.7l1.033-.078v2.51a1.135,1.135,0,0,1,1.04-.7.959.959,0,0,1,.753.265c.223.259.223.481.223,1.1v1.369c.007.215.186.215.559.215V44.6c-.243-.007-.617-.021-.8-.021s-.56.014-.811.021v-.223c.481,0,.56,0,.56-.322V42.384c0-.409-.079-.8-.531-.8a1.048,1.048,0,0,0-.969,1.148v1.32c0,.322.079.322.56.322V44.6c-.244-.007-.617-.021-.8-.021s-.56.014-.811.021v-.223c.48,0,.559,0,.559-.322Z" transform="translate(-1.706 -1.055)"/><path d="M92.78,44.049a2.32,2.32,0,0,0,.682-.058,2.4,2.4,0,0,0,.158-.638H93.8L93.6,44.6H90.936c0-.172,0-.187.079-.265L92.393,42.8a2.574,2.574,0,0,0,.753-1.586c0-.588-.308-1.169-.961-1.169a1.034,1.034,0,0,0-.969.731.281.281,0,0,1,.093-.007.363.363,0,0,1,.381.373.377.377,0,1,1-.754-.021,1.326,1.326,0,0,1,1.342-1.3A1.41,1.41,0,0,1,93.8,41.215c0,.717-.43,1.1-1.55,2.095l-.76.739Z" transform="translate(-1.706 -1.055)"/><path d="M179.581,18.628a1.466,1.466,0,0,1-1.6,1.312H175.17v-.222h.172c.552,0,.566-.079.566-.337V15.6c0-.258-.014-.337-.566-.337h-.172v-.222H177.8a1.44,1.44,0,0,1,1.593,1.212c0,.531-.5.99-1.191,1.127A1.407,1.407,0,0,1,179.581,18.628Zm-2.037-1.313a1.083,1.083,0,0,0,1.148-1.062.953.953,0,0,0-.947-.99h-.89c-.337,0-.351.05-.351.287v1.765Zm1.32,1.306a1.075,1.075,0,0,0-1.011-1.149H176.5v1.959c0,.237.014.287.351.287h.9A1.084,1.084,0,0,0,178.864,18.621Z" transform="translate(-1.706 -1.055)"/><path d="M182.071,16.769a.49.49,0,0,1,.53.438.3.3,0,0,1-.308.316.3.3,0,0,1-.309-.309.312.312,0,0,1,.165-.28.186.186,0,0,0-.078-.007c-.546,0-.847.639-.847,1.349v1.105c0,.258.014.337.545.337h.15v.222c-.287-.021-.624-.021-.911-.021-.2,0-.538.014-.818.021v-.222c.481,0,.56,0,.56-.323V17.472c0-.351-.057-.4-.56-.4v-.222l1-.08v.79A1,1,0,0,1,182.071,16.769Z" transform="translate(-1.706 -1.055)"/><path d="M184.243,20.019c-.451,0-1.147-.179-1.147-.76a1.043,1.043,0,0,1,.717-.932,3.491,3.491,0,0,1,1.32-.259V17.8a.812.812,0,0,0-.76-.918,1.007,1.007,0,0,0-.775.329c.33.007.365.244.365.33a.33.33,0,1,1-.659-.007c0-.473.5-.811,1.083-.811a1.371,1.371,0,0,1,.983.395,1.062,1.062,0,0,1,.258.846V19.4c0,.036.028.359.266.359.079,0,.257-.043.257-.459v-.4h.18v.4a.608.608,0,0,1-.588.681.6.6,0,0,1-.56-.588A.991.991,0,0,1,184.243,20.019Zm-.595-.767a.618.618,0,0,0,.646.61.862.862,0,0,0,.839-.926v-.718C183.949,18.262,183.648,18.858,183.648,19.252Z" transform="translate(-1.706 -1.055)"/><path d="M186.611,17.071v-.222l1.011-.08v.754a1.131,1.131,0,0,1,1.062-.754.955.955,0,0,1,.753.266c.223.258.223.481.223,1.1V19.5c.007.215.186.215.559.215v.222c-.244-.007-.617-.021-.8-.021s-.559.014-.81.021v-.222c.481,0,.56,0,.56-.323V17.723c0-.408-.079-.8-.532-.8a1.048,1.048,0,0,0-.968,1.148V19.4c0,.323.079.323.559.323v.222c-.243-.007-.616-.021-.8-.021s-.559.014-.81.021v-.222c.48,0,.559,0,.559-.323V17.472C187.17,17.121,187.113,17.071,186.611,17.071Z" transform="translate(-1.706 -1.055)"/><path d="M192.212,19.84a.937.937,0,0,0,.94-.753c.015-.043.029-.072.094-.072.021,0,.093,0,.093.072a1.18,1.18,0,0,1-1.191.932,1.587,1.587,0,0,1-1.542-1.628,1.608,1.608,0,0,1,1.556-1.665c.552,0,1.1.28,1.1.768a.33.33,0,1,1-.659.007.323.323,0,0,1,.336-.33,1.17,1.17,0,0,0-.768-.265c-.38,0-.968.3-.968,1.471S191.833,19.84,192.212,19.84Z" transform="translate(-1.706 -1.055)"/><path d="M194.336,15.665c0-.352-.058-.4-.56-.4v-.222l1.034-.079v2.51a1.134,1.134,0,0,1,1.039-.7.959.959,0,0,1,.754.266c.222.258.222.481.222,1.1V19.5c.007.215.187.215.56.215v.222c-.244-.007-.618-.021-.8-.021s-.56.014-.812.021v-.222c.481,0,.56,0,.56-.323V17.723c0-.408-.079-.8-.53-.8a1.048,1.048,0,0,0-.969,1.148V19.4c0,.323.079.323.56.323v.222c-.244-.007-.618-.021-.8-.021s-.56.014-.811.021v-.222c.481,0,.56,0,.56-.323Z" transform="translate(-1.706 -1.055)"/><path d="M200.117,18.757v-.223l2.2-3.364c.058-.086.08-.086.144-.086.115,0,.115.043.115.186v3.264h.717v.223h-.717v.624c0,.258.014.337.545.337h.151v.222c-.295-.021-.675-.021-.976-.021s-.674,0-.969.021v-.222h.151c.531,0,.545-.079.545-.337v-.624Zm1.952-2.9-1.751,2.675h1.751Z" transform="translate(-1.706 -1.055)"/><path d="M13.164,57.573a2.61,2.61,0,0,1-.014-5.216,1.77,1.77,0,0,1,1.327.617l.359-.531c.057-.086.085-.086.114-.086.079,0,.079.051.079.172v1.7c0,.151,0,.172-.115.172-.1,0-.1-.021-.114-.123-.144-1.054-.8-1.7-1.564-1.7-.431,0-1.844.238-1.844,2.382s1.42,2.39,1.887,2.39c.2,0,1.112-.065,1.112-.869v-.459c0-.266-.022-.344-.667-.344h-.23v-.223c.258.021.868.021,1.155.021.215,0,.61-.014.875-.021v.223c-.466,0-.495.036-.495.316v1.247c0,.109,0,.166-.064.166-.079,0-.366-.287-.459-.446A1.536,1.536,0,0,1,13.164,57.573Z" transform="translate(-1.706 -1.055)"/><path d="M16.886,56.834a.968.968,0,0,0,.811.48,1.011,1.011,0,0,0,.969-.738c.014-.058.028-.1.093-.1a.084.084,0,0,1,.093.087,1.227,1.227,0,0,1-1.2.932,1.62,1.62,0,0,1-1.578-1.657A1.568,1.568,0,0,1,17.568,54.2a1.272,1.272,0,0,1,1.284,1.406c0,.15-.022.15-.179.15h-2A2.092,2.092,0,0,0,16.886,56.834Zm1.493-1.227c0-.28-.072-1.248-.811-1.248-.244,0-.847.179-.89,1.248Z" transform="translate(-1.706 -1.055)"/><path d="M19.289,54.545v-.222l1.012-.079V55a1.13,1.13,0,0,1,1.061-.753.961.961,0,0,1,.754.265c.222.258.222.481.222,1.1v1.37c.007.215.187.215.56.215v.223c-.244-.007-.617-.021-.8-.021s-.559.014-.81.021v-.223c.48,0,.559,0,.559-.322V55.2c0-.409-.079-.8-.53-.8a1.047,1.047,0,0,0-.969,1.147V56.87c0,.322.079.322.559.322v.223c-.243-.007-.617-.021-.8-.021s-.56.014-.811.021v-.223c.481,0,.56,0,.56-.322V54.947C19.849,54.6,19.791,54.545,19.289,54.545Z" transform="translate(-1.706 -1.055)"/><path d="M24.052,56.834a.966.966,0,0,0,.811.48,1.01,1.01,0,0,0,.968-.738c.015-.058.029-.1.094-.1a.084.084,0,0,1,.093.087,1.227,1.227,0,0,1-1.2.932,1.62,1.62,0,0,1-1.579-1.657A1.569,1.569,0,0,1,24.734,54.2a1.272,1.272,0,0,1,1.284,1.406c0,.15-.022.15-.179.15h-2A2.092,2.092,0,0,0,24.052,56.834Zm1.493-1.227c0-.28-.072-1.248-.811-1.248-.244,0-.847.179-.89,1.248Z" transform="translate(-1.706 -1.055)"/><path d="M28.306,54.244a.49.49,0,0,1,.531.438.3.3,0,0,1-.309.315.3.3,0,0,1-.308-.308.311.311,0,0,1,.164-.28.18.18,0,0,0-.078-.007c-.546,0-.847.638-.847,1.348v1.106c0,.258.015.336.545.336h.151v.223c-.287-.021-.624-.021-.911-.021-.2,0-.538.014-.818.021v-.223c.481,0,.56,0,.56-.322V54.947c0-.351-.058-.4-.56-.4v-.222l1-.079v.789A1.006,1.006,0,0,1,28.306,54.244Z" transform="translate(-1.706 -1.055)"/><path d="M30.479,57.494c-.452,0-1.148-.18-1.148-.761a1.045,1.045,0,0,1,.718-.932,3.507,3.507,0,0,1,1.32-.259v-.265a.813.813,0,0,0-.761-.918,1.006,1.006,0,0,0-.774.33.325.325,0,0,1,.365.33.33.33,0,1,1-.66-.007c0-.474.495-.811,1.084-.811a1.371,1.371,0,0,1,.983.395,1.061,1.061,0,0,1,.258.846v1.435c0,.036.028.358.265.358.079,0,.258-.043.258-.458v-.4h.18v.4a.608.608,0,0,1-.588.68.6.6,0,0,1-.56-.587A.992.992,0,0,1,30.479,57.494Zm-.595-.768a.618.618,0,0,0,.645.611.863.863,0,0,0,.84-.926v-.718C30.185,55.736,29.884,56.332,29.884,56.726Z" transform="translate(-1.706 -1.055)"/><path d="M33.858,56.539c0,.123,0,.775.481.775.265,0,.48-.272.48-.8v-.4H35v.409c0,.46-.2.969-.71.969a.868.868,0,0,1-.925-.969v-1.98h-.61v-.157c.7-.029.918-.8.925-1.386h.18v1.321h1.026v.222H33.858Z" transform="translate(-1.706 -1.055)"/><path d="M37.186,57.494A1.6,1.6,0,0,1,35.6,55.88a1.591,1.591,0,1,1,3.178,0A1.6,1.6,0,0,1,37.186,57.494Zm.839-.71a2.181,2.181,0,0,0,.158-.962,1.974,1.974,0,0,0-.186-1,.941.941,0,0,0-.811-.466.962.962,0,0,0-.818.48,2.062,2.062,0,0,0-.172.983,2.139,2.139,0,0,0,.179,1.012.938.938,0,0,0,.818.48A.923.923,0,0,0,38.025,56.784Z" transform="translate(-1.706 -1.055)"/><path d="M41.067,54.244a.49.49,0,0,1,.531.438.3.3,0,0,1-.309.315.3.3,0,0,1-.308-.308.309.309,0,0,1,.165-.28.189.189,0,0,0-.079-.007c-.546,0-.847.638-.847,1.348v1.106c0,.258.015.336.545.336h.151v.223c-.287-.021-.624-.021-.911-.021-.2,0-.538.014-.818.021v-.223c.481,0,.56,0,.56-.322V54.947c0-.351-.058-.4-.56-.4v-.222l1-.079v.789A1.006,1.006,0,0,1,41.067,54.244Z" transform="translate(-1.706 -1.055)"/><path d="M46.288,56.849c0,.265.022.343.667.343h.23v.223c-.251-.021-.875-.021-1.162-.021s-.911,0-1.162.021v-.223h.229c.646,0,.667-.085.667-.343V53.132a2.142,2.142,0,0,1-.939.187V53.1a1.771,1.771,0,0,0,1.3-.459c.165,0,.165.014.165.187Z" transform="translate(-1.706 -1.055)"/><path d="M122.326,43.209a1.467,1.467,0,0,1-1.6,1.313h-2.812V44.3h.172c.553,0,.567-.079.567-.337V40.181c0-.258-.014-.337-.567-.337h-.172v-.222h2.626a1.44,1.44,0,0,1,1.592,1.212c0,.532-.5.99-1.19,1.126A1.41,1.41,0,0,1,122.326,43.209ZM120.289,41.9a1.082,1.082,0,0,0,1.148-1.062.954.954,0,0,0-.948-.99H119.6c-.337,0-.352.051-.352.287V41.9Zm1.32,1.306a1.075,1.075,0,0,0-1.012-1.148h-1.349v1.958c0,.238.015.287.352.287h.9A1.084,1.084,0,0,0,121.609,43.2Z" transform="translate(-1.706 -1.055)"/><path d="M124.815,41.351a.49.49,0,0,1,.531.438.3.3,0,0,1-.309.315.3.3,0,0,1-.308-.308.311.311,0,0,1,.164-.28.18.18,0,0,0-.078-.007c-.546,0-.847.638-.847,1.349v1.1c0,.258.015.337.545.337h.151v.223c-.287-.022-.624-.022-.911-.022-.2,0-.538.015-.818.022V44.3c.481,0,.56,0,.56-.322V42.054c0-.352-.058-.4-.56-.4V41.43l1-.079v.789A1.006,1.006,0,0,1,124.815,41.351Z" transform="translate(-1.706 -1.055)"/><path d="M126.988,44.6c-.452,0-1.148-.18-1.148-.76a1.045,1.045,0,0,1,.718-.933,3.487,3.487,0,0,1,1.32-.259v-.265a.813.813,0,0,0-.761-.919,1,1,0,0,0-.774.331.324.324,0,0,1,.365.33.33.33,0,1,1-.66-.007c0-.474.5-.811,1.083-.811a1.37,1.37,0,0,1,.984.394,1.062,1.062,0,0,1,.258.847v1.435c0,.036.028.359.265.359.079,0,.258-.044.258-.46v-.4h.18v.4a.609.609,0,0,1-.589.682.6.6,0,0,1-.559-.588A.992.992,0,0,1,126.988,44.6Zm-.595-.767a.617.617,0,0,0,.645.609.862.862,0,0,0,.84-.926V42.8C126.694,42.844,126.393,43.438,126.393,43.834Z" transform="translate(-1.706 -1.055)"/><path d="M129.355,41.652V41.43l1.012-.079V42.1a1.13,1.13,0,0,1,1.061-.753.963.963,0,0,1,.754.265c.222.259.222.481.222,1.1v1.37c.007.215.187.215.56.215v.223c-.244-.007-.617-.022-.8-.022s-.559.015-.811.022V44.3c.481,0,.56,0,.56-.322V42.305c0-.409-.079-.8-.531-.8a1.047,1.047,0,0,0-.968,1.147v1.321c0,.322.079.322.559.322v.223c-.243-.007-.617-.022-.8-.022s-.56.015-.811.022V44.3c.481,0,.56,0,.56-.322V42.054C129.915,41.7,129.857,41.652,129.355,41.652Z" transform="translate(-1.706 -1.055)"/><path d="M134.957,44.421a.936.936,0,0,0,.94-.753.082.082,0,0,1,.093-.071c.022,0,.094,0,.094.071a1.181,1.181,0,0,1-1.191.933,1.588,1.588,0,0,1-1.543-1.629,1.608,1.608,0,0,1,1.557-1.664c.552,0,1.1.28,1.1.768a.33.33,0,1,1-.66.007.325.325,0,0,1,.337-.331,1.176,1.176,0,0,0-.768-.265c-.38,0-.968.3-.968,1.47S134.577,44.421,134.957,44.421Z" transform="translate(-1.706 -1.055)"/><path d="M137.08,40.246c0-.351-.057-.4-.559-.4v-.222l1.033-.079v2.511a1.135,1.135,0,0,1,1.04-.7.959.959,0,0,1,.753.265c.223.259.223.481.223,1.1v1.37c.007.215.186.215.559.215v.223c-.244-.007-.617-.022-.8-.022s-.56.015-.811.022V44.3c.481,0,.56,0,.56-.322V42.305c0-.409-.079-.8-.531-.8a1.048,1.048,0,0,0-.969,1.147v1.321c0,.322.079.322.56.322v.223c-.244-.007-.617-.022-.8-.022s-.559.015-.81.022V44.3c.48,0,.559,0,.559-.322Z" transform="translate(-1.706 -1.055)"/><path d="M145.939,43.3a1.463,1.463,0,0,1-1.528,1.385,1.309,1.309,0,0,1-1.449-1.126.4.4,0,1,1,.8-.015.392.392,0,0,1-.474.394,1.3,1.3,0,0,0,1.1.546c.315,0,.81-.208.81-1.184,0-.7-.265-1.191-.854-1.191h-.315c-.122,0-.172,0-.172-.079s.05-.079.107-.086.223-.014.28-.021a.7.7,0,0,0,.639-.374,1.789,1.789,0,0,0,.2-.817c0-.645-.394-.8-.688-.8a1.162,1.162,0,0,0-.954.446c.107,0,.444,0,.444.358a.366.366,0,1,1-.731-.007c0-.546.545-.976,1.27-.976.688,0,1.32.4,1.32.99a1.383,1.383,0,0,1-1,1.263A1.383,1.383,0,0,1,145.939,43.3Z" transform="translate(-1.706 -1.055)"/><circle class="cls-2" cx="66.982" cy="92.447" r="9.524" transform="translate(-34.363 147.116) rotate(-83.292)"/><path class="cls-6" d="M71.907,91.4s-1.5,1.986-2.266,2.1c-.931.142-2.546-1.058-2.546-1.058s-2.346-1.184-2.837-1.045c-.713.2-2.085,2.1-2.085,2.1" transform="translate(-1.706 -1.055)"/><polyline class="cls-3" points="111.502 76.607 111.502 46.394 149.85 46.394"/><polyline class="cls-3" points="75.051 91.572 96.498 91.572 96.498 77.643"/><path d="M51.119,110.056a2.608,2.608,0,0,1-.015-5.211,1.762,1.762,0,0,1,1.326.617l.359-.531c.057-.086.086-.086.115-.086.078,0,.078.05.078.172v1.7c0,.15,0,.172-.114.172s-.1-.022-.115-.122c-.143-1.054-.8-1.7-1.563-1.7-.43,0-1.842.237-1.842,2.38s1.419,2.387,1.885,2.387c.2,0,1.111-.065,1.111-.867v-.459c0-.265-.021-.344-.666-.344h-.23v-.222c.259.021.868.021,1.155.021.214,0,.609-.014.874-.021v.222c-.466,0-.495.036-.495.315v1.248c0,.107,0,.165-.064.165-.079,0-.366-.287-.459-.445A1.535,1.535,0,0,1,51.119,110.056Z" transform="translate(-1.706 -1.055)"/><path d="M54.842,109.318a.966.966,0,0,0,.81.48,1.011,1.011,0,0,0,.969-.738c.014-.057.028-.1.093-.1a.083.083,0,0,1,.093.086,1.225,1.225,0,0,1-1.2.931,1.618,1.618,0,0,1-1.577-1.656,1.566,1.566,0,0,1,1.491-1.634,1.271,1.271,0,0,1,1.283,1.405c0,.151-.022.151-.179.151h-2A2.1,2.1,0,0,0,54.842,109.318Zm1.492-1.226c0-.279-.072-1.247-.81-1.247-.244,0-.846.179-.889,1.247Z" transform="translate(-1.706 -1.055)"/><path d="M57.246,107.031v-.222l1.011-.079v.753a1.128,1.128,0,0,1,1.06-.753.955.955,0,0,1,.753.265c.223.259.223.481.223,1.1v1.369c.007.215.186.215.559.215v.223c-.244-.007-.617-.022-.8-.022s-.559.015-.81.022v-.223c.48,0,.559,0,.559-.322v-1.671c0-.408-.079-.8-.531-.8a1.047,1.047,0,0,0-.967,1.147v1.319c0,.322.078.322.559.322v.223c-.244-.007-.617-.022-.8-.022s-.559.015-.81.022v-.223c.48,0,.559,0,.559-.322v-1.921C57.805,107.081,57.748,107.031,57.246,107.031Z" transform="translate(-1.706 -1.055)"/><path d="M62.008,109.318a.966.966,0,0,0,.81.48,1.01,1.01,0,0,0,.968-.738c.014-.057.029-.1.093-.1a.084.084,0,0,1,.094.086,1.225,1.225,0,0,1-1.2.931,1.619,1.619,0,0,1-1.578-1.656,1.567,1.567,0,0,1,1.491-1.634,1.272,1.272,0,0,1,1.284,1.405c0,.151-.022.151-.18.151h-2A2.087,2.087,0,0,0,62.008,109.318Zm1.491-1.226c0-.279-.071-1.247-.81-1.247-.244,0-.846.179-.889,1.247Z" transform="translate(-1.706 -1.055)"/><path d="M66.261,106.73a.49.49,0,0,1,.531.437.3.3,0,0,1-.309.316.3.3,0,0,1-.308-.309.309.309,0,0,1,.165-.279.189.189,0,0,0-.079-.007c-.545,0-.846.638-.846,1.347v1.105c0,.258.014.336.545.336h.15v.223c-.286-.022-.623-.022-.91-.022-.2,0-.537.015-.817.022v-.223c.48,0,.559,0,.559-.322v-1.921c0-.352-.057-.4-.559-.4v-.222l1-.079v.789A1,1,0,0,1,66.261,106.73Z" transform="translate(-1.706 -1.055)"/><path d="M68.435,109.977c-.452,0-1.147-.179-1.147-.76a1.043,1.043,0,0,1,.717-.931,3.5,3.5,0,0,1,1.319-.259v-.265a.811.811,0,0,0-.76-.917,1.009,1.009,0,0,0-.774.329.325.325,0,0,1,.365.331.33.33,0,1,1-.659-.008c0-.473.494-.81,1.082-.81a1.37,1.37,0,0,1,.982.394,1.062,1.062,0,0,1,.258.846v1.434c0,.036.029.358.266.358.078,0,.258-.043.258-.458v-.4h.179v.4a.609.609,0,0,1-.588.681.6.6,0,0,1-.559-.588A.991.991,0,0,1,68.435,109.977Zm-.595-.767a.617.617,0,0,0,.645.61.862.862,0,0,0,.839-.925v-.717C68.141,108.221,67.84,108.816,67.84,109.21Z" transform="translate(-1.706 -1.055)"/><path d="M71.813,109.024c0,.122,0,.774.481.774.265,0,.48-.272.48-.8V108.6h.179v.409c0,.458-.2.967-.709.967a.867.867,0,0,1-.925-.967v-1.979h-.61v-.158c.7-.028.918-.8.925-1.383h.179v1.319h1.026v.222H71.813Z" transform="translate(-1.706 -1.055)"/><path d="M75.141,109.977a1.6,1.6,0,0,1-1.584-1.612,1.59,1.59,0,1,1,3.176,0A1.6,1.6,0,0,1,75.141,109.977Zm.839-.709a2.175,2.175,0,0,0,.158-.961,1.961,1.961,0,0,0-.187-1,.939.939,0,0,0-.81-.466.961.961,0,0,0-.817.48,2.056,2.056,0,0,0-.172.982,2.136,2.136,0,0,0,.179,1.011.936.936,0,0,0,.817.48A.924.924,0,0,0,75.98,109.268Z" transform="translate(-1.706 -1.055)"/><path d="M79.022,106.73a.49.49,0,0,1,.531.437.3.3,0,0,1-.309.316.3.3,0,0,1-.308-.309.309.309,0,0,1,.165-.279.189.189,0,0,0-.079-.007c-.545,0-.846.638-.846,1.347v1.105c0,.258.014.336.545.336h.15v.223c-.286-.022-.623-.022-.91-.022-.2,0-.538.015-.817.022v-.223c.48,0,.559,0,.559-.322v-1.921c0-.352-.057-.4-.559-.4v-.222l1-.079v.789A1,1,0,0,1,79.022,106.73Z" transform="translate(-1.706 -1.055)"/><path d="M84.337,109.347a2.312,2.312,0,0,0,.681-.058,2.315,2.315,0,0,0,.157-.638h.18l-.2,1.248H82.5c0-.172,0-.187.078-.266L83.95,108.1a2.568,2.568,0,0,0,.752-1.584c0-.588-.308-1.168-.96-1.168a1.034,1.034,0,0,0-.968.731.281.281,0,0,1,.093-.007.362.362,0,0,1,.38.372.376.376,0,1,1-.752-.021,1.324,1.324,0,0,1,1.34-1.3,1.409,1.409,0,0,1,1.52,1.391c0,.717-.43,1.1-1.549,2.093l-.759.739Z" transform="translate(-1.706 -1.055)"/><polyline class="cls-3" points="131.131 91.573 111.587 91.572 111.414 77.515"/><polygon class="cls-4" points="128.322 87.87 129.895 91.573 128.322 95.276 137.1 91.574 128.322 87.87"/><polyline class="cls-3" points="149.76 46.394 163.961 46.394 163.961 60.896"/><circle class="cls-3" cx="164.232" cy="70.516" r="9.525"/><circle class="cls-3" cx="164.232" cy="70.516" r="7.086"/><path class="cls-4" d="M167.759,74.567a4.117,4.117,0,0,1-1.69.3,2.991,2.991,0,0,1-3.162-3.237,3.186,3.186,0,0,1,3.343-3.362,3.428,3.428,0,0,1,1.519.285l-.2.674a3.015,3.015,0,0,0-1.291-.266,2.38,2.38,0,0,0-2.5,2.64,2.326,2.326,0,0,0,2.459,2.573,3.3,3.3,0,0,0,1.349-.266Z" transform="translate(-1.706 -1.055)"/></svg>