<svg id="Layer_1" data-name="Layer 1" xmlns="http://www.w3.org/2000/svg" viewBox="0 0 241.205 108.354"><defs><style>.cls-1,.cls-5{fill:none;}.cls-1{stroke:#010101;stroke-width:1.9px;}.cls-1,.cls-3,.cls-4,.cls-5{stroke-miterlimit:10;}.cls-2{fill:#231f20;}.cls-3{fill:#ed1c24;stroke-width:0.5px;}.cls-3,.cls-4,.cls-5{stroke:#231f20;}.cls-4{fill:#fff;}</style></defs><path d="M161.527,63.365a1.468,1.468,0,0,1-1.6,1.313h-2.812v-.223h.172c.552,0,.566-.079.566-.337V60.337c0-.258-.014-.337-.566-.337h-.172v-.222h2.625a1.44,1.44,0,0,1,1.593,1.212c0,.531-.5.99-1.191,1.126A1.411,1.411,0,0,1,161.527,63.365Zm-2.038-1.313a1.082,1.082,0,0,0,1.148-1.062.953.953,0,0,0-.947-.99H158.8c-.338,0-.352.051-.352.287v1.765Zm1.32,1.3A1.074,1.074,0,0,0,159.8,62.21h-1.349v1.958c0,.237.014.287.352.287h.9A1.084,1.084,0,0,0,160.809,63.357Z" transform="translate(-10.488 -3.916)"/><path d="M163.814,64.757c-1.09,0-1.09-.653-1.09-1.213V62.468c0-.639,0-.66-.56-.66v-.223l1.055-.078v2.381c0,.374.028.711.631.711.524,0,.868-.488.868-1.112V62.21c0-.352-.058-.4-.56-.4v-.223l1.055-.078v2.546c0,.352.058.4.56.4v.223l-1.033.079v-.646A.979.979,0,0,1,163.814,64.757Z" transform="translate(-10.488 -3.916)"/><path d="M166.461,62.956a.765.765,0,0,1-.309-.61c0-.4.273-.882,1.148-.882a1.111,1.111,0,0,1,.675.2,1.011,1.011,0,0,0,.122-.114c.093-.086.107-.086.143-.086.079,0,.079.05.079.172v.724c0,.137,0,.173-.093.173a.076.076,0,0,1-.086-.065.792.792,0,0,0-.84-.868c-.617,0-.8.294-.8.545,0,.416.48.509.882.589a1.459,1.459,0,0,1,.818.344.925.925,0,0,1,.3.682c0,.516-.33,1-1.154,1a1.07,1.07,0,0,1-.79-.309,1.521,1.521,0,0,0-.143.165c-.137.137-.144.144-.18.144-.079,0-.079-.05-.079-.173v-.947c0-.128,0-.179.094-.179.072,0,.079.029.1.122.136.61.4,1.019,1,1.019.559,0,.81-.287.81-.653,0-.517-.588-.632-.746-.66A1.877,1.877,0,0,1,166.461,62.956Z" transform="translate(-10.488 -3.916)"/><path d="M171.331,63.494v-.222l2.2-3.365c.057-.086.079-.086.143-.086.115,0,.115.043.115.187v3.264h.717v.222h-.717v.624c0,.258.015.337.546.337h.15v.223c-.295-.022-.674-.022-.976-.022s-.674,0-.968.022v-.223h.15c.531,0,.545-.079.545-.337v-.624Zm1.952-2.9-1.751,2.676h1.751Z" transform="translate(-10.488 -3.916)"/><path d="M136.236,77.7a1.466,1.466,0,0,1-1.6,1.313h-2.812V78.79H132c.553,0,.567-.079.567-.337v-3.78c0-.258-.014-.338-.567-.338h-.172v-.222h2.626a1.439,1.439,0,0,1,1.592,1.212c0,.532-.5.99-1.19,1.127A1.408,1.408,0,0,1,136.236,77.7ZM134.2,76.387a1.082,1.082,0,0,0,1.148-1.062.954.954,0,0,0-.948-.99h-.889c-.337,0-.351.051-.351.287v1.765Zm1.32,1.306a1.075,1.075,0,0,0-1.012-1.148h-1.348V78.5c0,.238.014.287.351.287h.9A1.084,1.084,0,0,0,135.519,77.693Z" transform="translate(-10.488 -3.916)"/><path d="M138.725,75.842a.49.49,0,0,1,.531.438.3.3,0,0,1-.309.315.3.3,0,0,1-.308-.308.309.309,0,0,1,.165-.28.189.189,0,0,0-.079-.007c-.546,0-.847.639-.847,1.349v1.1c0,.258.015.337.546.337h.15v.223c-.287-.022-.624-.022-.911-.022-.2,0-.538.015-.818.022V78.79c.481,0,.56,0,.56-.322V76.545c0-.351-.058-.4-.56-.4v-.223l1-.079v.79A1.006,1.006,0,0,1,138.725,75.842Z" transform="translate(-10.488 -3.916)"/><path d="M140.9,79.092c-.452,0-1.148-.18-1.148-.76a1.046,1.046,0,0,1,.718-.933,3.484,3.484,0,0,1,1.32-.258v-.266a.812.812,0,0,0-.761-.918,1,1,0,0,0-.774.33.324.324,0,0,1,.365.33.33.33,0,1,1-.66-.007c0-.473.5-.811,1.084-.811a1.371,1.371,0,0,1,.983.395,1.06,1.06,0,0,1,.258.846v1.435c0,.036.028.359.265.359.079,0,.258-.044.258-.459v-.4h.18v.4a.609.609,0,0,1-.588.681.6.6,0,0,1-.56-.588A.992.992,0,0,1,140.9,79.092Zm-.595-.767a.617.617,0,0,0,.645.609.862.862,0,0,0,.84-.926v-.717C140.6,77.335,140.3,77.93,140.3,78.325Z" transform="translate(-10.488 -3.916)"/><path d="M143.265,76.144v-.223l1.012-.079V76.6a1.132,1.132,0,0,1,1.061-.753.961.961,0,0,1,.754.265c.222.259.222.481.222,1.1v1.37c.007.215.187.215.56.215v.223c-.244-.007-.617-.022-.8-.022s-.559.015-.81.022V78.79c.48,0,.559,0,.559-.322V76.8c0-.409-.079-.8-.531-.8a1.048,1.048,0,0,0-.968,1.148v1.32c0,.322.079.322.559.322v.223c-.243-.007-.617-.022-.8-.022s-.56.015-.811.022V78.79c.481,0,.56,0,.56-.322V76.545C143.825,76.194,143.767,76.144,143.265,76.144Z" transform="translate(-10.488 -3.916)"/><path d="M148.867,78.912a.936.936,0,0,0,.94-.753c.015-.042.029-.071.093-.071.022,0,.094,0,.094.071a1.181,1.181,0,0,1-1.191.933,1.588,1.588,0,0,1-1.543-1.629,1.608,1.608,0,0,1,1.557-1.664c.552,0,1.1.28,1.1.768a.33.33,0,1,1-.66.007.325.325,0,0,1,.337-.331,1.176,1.176,0,0,0-.768-.265c-.38,0-.968.3-.968,1.471S148.487,78.912,148.867,78.912Z" transform="translate(-10.488 -3.916)"/><path d="M150.99,74.737c0-.351-.057-.4-.559-.4v-.222l1.033-.079v2.511a1.135,1.135,0,0,1,1.04-.7.959.959,0,0,1,.753.265c.223.259.223.481.223,1.1v1.37c.007.215.186.215.559.215v.223c-.243-.007-.617-.022-.8-.022s-.56.015-.811.022V78.79c.481,0,.56,0,.56-.322V76.8c0-.409-.079-.8-.531-.8a1.048,1.048,0,0,0-.969,1.148v1.32c0,.322.079.322.56.322v.223c-.244-.007-.617-.022-.8-.022s-.559.015-.81.022V78.79c.48,0,.559,0,.559-.322Z" transform="translate(-10.488 -3.916)"/><path d="M159.849,77.786a1.463,1.463,0,0,1-1.528,1.385,1.309,1.309,0,0,1-1.449-1.126.4.4,0,1,1,.8-.015.393.393,0,0,1-.474.395,1.306,1.306,0,0,0,1.1.545c.316,0,.811-.208.811-1.184,0-.7-.266-1.191-.854-1.191h-.316c-.122,0-.172,0-.172-.079s.05-.079.108-.086.222-.014.279-.021a.7.7,0,0,0,.639-.374,1.8,1.8,0,0,0,.2-.817c0-.645-.4-.8-.689-.8a1.161,1.161,0,0,0-.954.445c.107,0,.444,0,.444.358a.366.366,0,1,1-.731-.007c0-.545.545-.976,1.27-.976.688,0,1.32.4,1.32.99a1.383,1.383,0,0,1-1,1.263A1.384,1.384,0,0,1,159.849,77.786Z" transform="translate(-10.488 -3.916)"/><path d="M161.576,14.767a1.466,1.466,0,0,1-1.6,1.313h-2.812v-.222h.172c.552,0,.566-.079.566-.337V11.739c0-.257-.014-.336-.566-.336h-.172V11.18h2.625a1.441,1.441,0,0,1,1.593,1.213c0,.53-.5.99-1.191,1.126A1.408,1.408,0,0,1,161.576,14.767Zm-2.037-1.313a1.082,1.082,0,0,0,1.148-1.061.953.953,0,0,0-.947-.99h-.89c-.337,0-.351.05-.351.287v1.764Zm1.32,1.306a1.074,1.074,0,0,0-1.011-1.147H158.5v1.958c0,.237.014.287.351.287h.9A1.085,1.085,0,0,0,160.859,14.76Z" transform="translate(-10.488 -3.916)"/><path d="M163.864,16.159c-1.09,0-1.09-.652-1.09-1.212V13.871c0-.639,0-.661-.56-.661v-.222l1.055-.079v2.382c0,.373.028.711.631.711.524,0,.868-.488.868-1.113V13.613c0-.352-.057-.4-.559-.4v-.222l1.054-.079v2.547c0,.352.058.4.56.4v.222l-1.033.079v-.645A.98.98,0,0,1,163.864,16.159Z" transform="translate(-10.488 -3.916)"/><path d="M166.511,14.358a.764.764,0,0,1-.309-.609c0-.4.273-.883,1.148-.883a1.106,1.106,0,0,1,.675.2.945.945,0,0,0,.122-.115c.093-.086.107-.086.143-.086.079,0,.079.05.079.173v.724c0,.136,0,.172-.093.172-.015,0-.079,0-.086-.064a.793.793,0,0,0-.84-.869c-.617,0-.8.294-.8.546,0,.416.48.509.882.588a1.466,1.466,0,0,1,.818.344.925.925,0,0,1,.3.682c0,.516-.329,1-1.155,1a1.073,1.073,0,0,1-.789-.308,1.521,1.521,0,0,0-.143.165c-.137.136-.144.143-.18.143-.079,0-.079-.05-.079-.172V15.04c0-.13,0-.179.094-.179.071,0,.078.028.1.121.136.611.4,1.02,1,1.02.56,0,.811-.288.811-.653,0-.517-.588-.632-.746-.661A1.867,1.867,0,0,1,166.511,14.358Z" transform="translate(-10.488 -3.916)"/><path d="M174.459,14.854a1.463,1.463,0,0,1-1.528,1.384,1.309,1.309,0,0,1-1.449-1.126.4.4,0,1,1,.8-.014.392.392,0,0,1-.473.394,1.305,1.305,0,0,0,1.1.545c.316,0,.811-.208.811-1.183,0-.7-.265-1.192-.854-1.192h-.315c-.122,0-.173,0-.173-.078s.051-.08.108-.087.223-.014.28-.021a.7.7,0,0,0,.638-.373,1.787,1.787,0,0,0,.2-.818c0-.645-.394-.8-.689-.8a1.164,1.164,0,0,0-.954.444c.108,0,.445,0,.445.359a.366.366,0,1,1-.732-.007c0-.546.546-.976,1.27-.976.689,0,1.32.4,1.32.99a1.382,1.382,0,0,1-1,1.263A1.383,1.383,0,0,1,174.459,14.854Z" transform="translate(-10.488 -3.916)"/><path d="M19.98,39.127a1.467,1.467,0,0,1-1.6,1.313H15.569v-.223h.171c.553,0,.567-.078.567-.337V36.1c0-.258-.014-.337-.567-.337h-.171V35.54h2.625a1.44,1.44,0,0,1,1.593,1.212c0,.531-.495.99-1.191,1.127A1.408,1.408,0,0,1,19.98,39.127Zm-2.037-1.313a1.082,1.082,0,0,0,1.148-1.062.953.953,0,0,0-.947-.99h-.89c-.337,0-.351.05-.351.287v1.765Zm1.32,1.306a1.075,1.075,0,0,0-1.011-1.148H16.9v1.959c0,.237.014.286.351.286h.9A1.084,1.084,0,0,0,19.263,39.12Z" transform="translate(-10.488 -3.916)"/><path d="M22.268,40.518c-1.09,0-1.09-.652-1.09-1.212V38.23c0-.638,0-.66-.56-.66v-.222l1.055-.079v2.382c0,.372.028.71.631.71.524,0,.868-.488.868-1.112V37.972c0-.352-.057-.4-.559-.4v-.222l1.054-.079v2.547c0,.352.057.4.559.4v.223l-1.032.078v-.645A.979.979,0,0,1,22.268,40.518Z" transform="translate(-10.488 -3.916)"/><path d="M24.915,38.718a.765.765,0,0,1-.309-.61c0-.4.273-.882,1.148-.882a1.106,1.106,0,0,1,.675.2,1.106,1.106,0,0,0,.122-.115c.093-.086.107-.086.143-.086.079,0,.079.05.079.172v.725c0,.136,0,.172-.093.172a.076.076,0,0,1-.086-.065.793.793,0,0,0-.84-.868c-.617,0-.8.294-.8.546,0,.415.48.509.882.588a1.459,1.459,0,0,1,.818.344.925.925,0,0,1,.3.681c0,.517-.33,1-1.155,1a1.073,1.073,0,0,1-.789-.308,1.67,1.67,0,0,0-.143.165c-.137.136-.144.143-.18.143-.079,0-.079-.05-.079-.171V39.4c0-.13,0-.18.094-.18.071,0,.078.029.1.122.136.61.395,1.019,1,1.019.56,0,.811-.287.811-.653,0-.516-.589-.631-.746-.66A1.867,1.867,0,0,1,24.915,38.718Z" transform="translate(-10.488 -3.916)"/><path d="M31.693,39.873c0,.266.022.344.668.344h.229v.223c-.251-.021-.875-.021-1.162-.021s-.911,0-1.162.021v-.223h.23c.645,0,.667-.085.667-.344V36.157a2.158,2.158,0,0,1-.94.186v-.222a1.771,1.771,0,0,0,1.3-.459c.165,0,.165.014.165.186Z" transform="translate(-10.488 -3.916)"/><line class="cls-1" x1="13.591" y1="38.921" x2="13.591" y2="68.855"/><path class="cls-2" d="M233.986,7.418A1.433,1.433,0,0,1,232.424,8.7h-2.745V8.483h.168c.539,0,.553-.077.553-.329V4.463c0-.252-.014-.329-.553-.329h-.168V3.916h2.563A1.406,1.406,0,0,1,233.8,5.1c0,.518-.483.967-1.163,1.1A1.374,1.374,0,0,1,233.986,7.418ZM232,6.137A1.057,1.057,0,0,0,233.118,5.1a.931.931,0,0,0-.925-.966h-.868c-.329,0-.344.048-.344.28V6.137Zm1.289,1.274a1.049,1.049,0,0,0-.988-1.12h-1.317V8.2c0,.231.015.28.344.28h.875A1.059,1.059,0,0,0,233.286,7.411Z" transform="translate(-10.488 -3.916)"/><path class="cls-2" d="M236.218,8.777c-1.065,0-1.065-.638-1.065-1.183V6.543c0-.623,0-.645-.546-.645V5.681l1.03-.077V7.929c0,.365.027.694.616.694.511,0,.847-.476.847-1.086V6.291c0-.343-.056-.393-.546-.393V5.681l1.029-.077V8.091c0,.343.057.392.547.392V8.7l-1.009.077v-.63A.955.955,0,0,1,236.218,8.777Z" transform="translate(-10.488 -3.916)"/><path class="cls-2" d="M238.8,7.019a.747.747,0,0,1-.3-.595c0-.392.267-.862,1.121-.862a1.075,1.075,0,0,1,.659.2.84.84,0,0,0,.118-.113c.092-.084.106-.084.141-.084.077,0,.077.049.077.168v.708c0,.133,0,.168-.091.168a.075.075,0,0,1-.084-.063.772.772,0,0,0-.82-.847c-.6,0-.784.287-.784.532,0,.406.469.5.861.574a1.427,1.427,0,0,1,.8.336.9.9,0,0,1,.294.666c0,.5-.322.973-1.128.973a1.046,1.046,0,0,1-.77-.3,1.585,1.585,0,0,0-.14.161c-.133.133-.14.14-.175.14-.078,0-.078-.049-.078-.168V7.684c0-.126,0-.174.092-.174.07,0,.077.027.1.118.133.6.385.995.973.995.546,0,.792-.28.792-.637,0-.5-.575-.617-.728-.645A1.835,1.835,0,0,1,238.8,7.019Z" transform="translate(-10.488 -3.916)"/><path class="cls-2" d="M244.974,8.854a1.286,1.286,0,0,1-1.268-1.281.348.348,0,1,1,.344.315.287.287,0,0,1-.119-.015,1.09,1.09,0,0,0,1.029.785.877.877,0,0,0,.75-.455,2.039,2.039,0,0,0,.168-.96,2.153,2.153,0,0,0-.126-.882.687.687,0,0,0-.6-.449,1.051,1.051,0,0,0-.9.491c-.028.042-.042.063-.091.063-.1,0-.1-.056-.1-.183V4.211c0-.113,0-.169.07-.169a.209.209,0,0,1,.084.021,2.259,2.259,0,0,0,.931.2,2.313,2.313,0,0,0,.953-.2.1.1,0,0,1,.056-.021.069.069,0,0,1,.07.078,1.529,1.529,0,0,1-1.352.728,2.218,2.218,0,0,1-.595-.091V6.116a1.227,1.227,0,0,1,.889-.357A1.437,1.437,0,0,1,246.5,7.292,1.547,1.547,0,0,1,244.974,8.854Z" transform="translate(-10.488 -3.916)"/><path class="cls-2" d="M233.958,71.052a1.432,1.432,0,0,1-1.562,1.281h-2.745v-.217h.168c.539,0,.553-.077.553-.329V68.1c0-.252-.014-.329-.553-.329h-.168V67.55h2.563a1.406,1.406,0,0,1,1.555,1.183c0,.519-.483.967-1.163,1.1A1.375,1.375,0,0,1,233.958,71.052Zm-1.989-1.282a1.056,1.056,0,0,0,1.12-1.037.93.93,0,0,0-.924-.966H231.3c-.329,0-.342.049-.342.28V69.77Zm1.288,1.275a1.049,1.049,0,0,0-.987-1.121h-1.316v1.912c0,.231.013.28.342.28h.876A1.057,1.057,0,0,0,233.257,71.045Z" transform="translate(-10.488 -3.916)"/><path class="cls-2" d="M236.19,72.41c-1.065,0-1.065-.637-1.065-1.183V70.176c0-.623,0-.644-.546-.644v-.217l1.03-.077v2.325c0,.364.027.693.616.693.511,0,.847-.476.847-1.085V69.924c0-.343-.056-.392-.546-.392v-.217l1.029-.077v2.486c0,.343.057.392.547.392v.217l-1.009.077v-.63A.956.956,0,0,1,236.19,72.41Z" transform="translate(-10.488 -3.916)"/><path class="cls-2" d="M238.772,70.653a.747.747,0,0,1-.3-.6c0-.392.267-.861,1.121-.861a1.075,1.075,0,0,1,.658.2.91.91,0,0,0,.12-.112c.09-.084.1-.084.139-.084.077,0,.077.048.077.168v.707c0,.133,0,.168-.09.168-.014,0-.078,0-.084-.063a.773.773,0,0,0-.82-.847c-.6,0-.784.287-.784.532,0,.406.469.5.861.574a1.425,1.425,0,0,1,.8.336.906.906,0,0,1,.295.666c0,.5-.322.973-1.128.973a1.046,1.046,0,0,1-.77-.3,1.585,1.585,0,0,0-.14.161c-.134.133-.141.14-.176.14-.077,0-.077-.049-.077-.168v-.924c0-.126,0-.175.092-.175.069,0,.077.028.1.119.132.595.385.994.973.994.546,0,.791-.28.791-.637,0-.5-.574-.616-.727-.645A1.846,1.846,0,0,1,238.772,70.653Z" transform="translate(-10.488 -3.916)"/><path class="cls-2" d="M245.128,69.343a1.468,1.468,0,0,1,1.4,1.562,1.5,1.5,0,0,1-1.443,1.583c-.651,0-1.464-.5-1.464-2.368,0-1.548.946-2.451,1.842-2.451.581,0,.89.336.89.756a.323.323,0,1,1-.645.014c0-.315.281-.315.386-.315a.722.722,0,0,0-.616-.28c-.357,0-1.227.252-1.227,2.024v.168A.97.97,0,0,1,245.128,69.343Zm.652,2.493a3.738,3.738,0,0,0-.007-1.9.676.676,0,0,0-.651-.434c-.631,0-.855.7-.855,1.246a3.423,3.423,0,0,0,.126,1.016.805.805,0,0,0,.693.525A.733.733,0,0,0,245.78,71.836Z" transform="translate(-10.488 -3.916)"/><path d="M58.658,53.577a1.466,1.466,0,0,1-1.6,1.313H54.246v-.222h.172c.553,0,.567-.079.567-.338V50.55c0-.258-.014-.337-.567-.337h-.172v-.222h2.626A1.44,1.44,0,0,1,58.464,51.2c0,.531-.495.99-1.19,1.126A1.408,1.408,0,0,1,58.658,53.577Zm-2.037-1.312A1.083,1.083,0,0,0,57.769,51.2a.954.954,0,0,0-.948-.99h-.889c-.337,0-.352.05-.352.287v1.765Zm1.32,1.3a1.075,1.075,0,0,0-1.012-1.148H55.58v1.959c0,.237.015.287.352.287h.9A1.084,1.084,0,0,0,57.941,53.57Z" transform="translate(-10.488 -3.916)"/><path d="M61.147,51.719a.49.49,0,0,1,.531.438.3.3,0,0,1-.309.316.3.3,0,0,1-.308-.309.313.313,0,0,1,.164-.28.18.18,0,0,0-.078-.007c-.546,0-.847.639-.847,1.349v1.1c0,.259.015.338.545.338H61v.222c-.287-.021-.624-.021-.911-.021-.2,0-.538.014-.818.021v-.222c.481,0,.56,0,.56-.323V52.422c0-.351-.058-.4-.56-.4V51.8l1-.08v.79A1.006,1.006,0,0,1,61.147,51.719Z" transform="translate(-10.488 -3.916)"/><path d="M63.32,54.969c-.452,0-1.148-.179-1.148-.76a1.046,1.046,0,0,1,.718-.933,3.5,3.5,0,0,1,1.32-.258v-.265a.813.813,0,0,0-.761-.919,1.006,1.006,0,0,0-.774.33.325.325,0,0,1,.365.33.33.33,0,1,1-.66-.007c0-.473.495-.811,1.084-.811a1.367,1.367,0,0,1,.982.395,1.058,1.058,0,0,1,.259.846v1.435c0,.036.028.359.265.359.079,0,.258-.043.258-.459v-.4h.18v.4a.609.609,0,0,1-.589.681.6.6,0,0,1-.559-.588A.992.992,0,0,1,63.32,54.969Zm-.595-.767a.617.617,0,0,0,.645.609.862.862,0,0,0,.84-.925v-.718C63.026,53.212,62.725,53.807,62.725,54.2Z" transform="translate(-10.488 -3.916)"/><path d="M65.687,52.021V51.8l1.012-.08v.754a1.131,1.131,0,0,1,1.061-.754.958.958,0,0,1,.754.266c.222.258.222.481.222,1.1v1.371c.007.215.187.215.56.215v.222c-.244-.007-.617-.021-.8-.021s-.559.014-.81.021v-.222c.48,0,.559,0,.559-.323V52.673c0-.408-.079-.8-.531-.8a1.048,1.048,0,0,0-.968,1.148v1.32c0,.323.079.323.559.323v.222c-.243-.007-.617-.021-.8-.021s-.56.014-.811.021v-.222c.481,0,.56,0,.56-.323V52.422C66.247,52.071,66.189,52.021,65.687,52.021Z" transform="translate(-10.488 -3.916)"/><path d="M71.289,54.79a.937.937,0,0,0,.94-.753c.014-.043.029-.072.093-.072.022,0,.094,0,.094.072a1.181,1.181,0,0,1-1.191.932,1.588,1.588,0,0,1-1.543-1.629,1.608,1.608,0,0,1,1.557-1.664c.552,0,1.1.28,1.1.768a.33.33,0,1,1-.66.007.324.324,0,0,1,.337-.33,1.173,1.173,0,0,0-.768-.266c-.38,0-.968.3-.968,1.471S70.909,54.79,71.289,54.79Z" transform="translate(-10.488 -3.916)"/><path d="M73.412,50.615c0-.352-.057-.4-.559-.4v-.222l1.033-.08v2.511a1.135,1.135,0,0,1,1.04-.7.955.955,0,0,1,.753.266c.223.258.223.481.223,1.1v1.371c.007.215.186.215.559.215v.222c-.244-.007-.617-.021-.8-.021s-.56.014-.811.021v-.222c.481,0,.56,0,.56-.323V52.673c0-.408-.079-.8-.531-.8a1.048,1.048,0,0,0-.969,1.148v1.32c0,.323.079.323.56.323v.222c-.244-.007-.617-.021-.8-.021s-.559.014-.81.021v-.222c.48,0,.559,0,.559-.323Z" transform="translate(-10.488 -3.916)"/><path d="M81.1,54.323c0,.266.022.345.667.345H82v.222c-.251-.021-.875-.021-1.163-.021s-.911,0-1.162.021v-.222h.23c.645,0,.667-.086.667-.345V50.607a2.143,2.143,0,0,1-.94.187v-.222a1.771,1.771,0,0,0,1.306-.46c.165,0,.165.015.165.187Z" transform="translate(-10.488 -3.916)"/><path d="M135.405,29.333a1.467,1.467,0,0,1-1.6,1.313h-2.813v-.223h.172c.553,0,.567-.079.567-.337V26.305c0-.258-.014-.337-.567-.337h-.172v-.222h2.626a1.44,1.44,0,0,1,1.593,1.212c0,.531-.495.99-1.191,1.126A1.41,1.41,0,0,1,135.405,29.333Zm-2.037-1.313a1.083,1.083,0,0,0,1.148-1.062.953.953,0,0,0-.947-.99h-.89c-.337,0-.351.051-.351.287V28.02Zm1.32,1.3a1.074,1.074,0,0,0-1.011-1.147h-1.349v1.958c0,.237.014.287.351.287h.9A1.084,1.084,0,0,0,134.688,29.325Z" transform="translate(-10.488 -3.916)"/><path d="M137.894,27.475a.49.49,0,0,1,.531.437.3.3,0,0,1-.309.316.3.3,0,0,1-.308-.308.309.309,0,0,1,.165-.28c-.015-.008-.029-.008-.079-.008-.545,0-.847.639-.847,1.35v1.1c0,.258.015.337.546.337h.15v.223c-.287-.022-.624-.022-.911-.022-.2,0-.538.015-.818.022v-.223c.481,0,.56,0,.56-.323V28.178c0-.352-.057-.4-.56-.4v-.223l1-.078v.789A1,1,0,0,1,137.894,27.475Z" transform="translate(-10.488 -3.916)"/><path d="M140.067,30.725c-.452,0-1.147-.18-1.147-.761a1.046,1.046,0,0,1,.717-.933,3.5,3.5,0,0,1,1.32-.258v-.265a.813.813,0,0,0-.761-.919,1,1,0,0,0-.774.331c.33.007.365.243.365.33a.33.33,0,1,1-.659-.007c0-.474.5-.811,1.083-.811a1.37,1.37,0,0,1,.983.394,1.062,1.062,0,0,1,.258.847v1.435c0,.036.029.359.266.359.078,0,.258-.044.258-.46v-.4h.179v.4a.609.609,0,0,1-.588.682.6.6,0,0,1-.56-.589A.991.991,0,0,1,140.067,30.725Zm-.595-.768a.618.618,0,0,0,.646.61.862.862,0,0,0,.839-.926v-.717C139.773,28.967,139.472,29.562,139.472,29.957Z" transform="translate(-10.488 -3.916)"/><path d="M142.434,27.776v-.223l1.012-.078v.753a1.131,1.131,0,0,1,1.062-.753.957.957,0,0,1,.753.265c.222.259.222.481.222,1.1v1.37c.008.215.187.215.56.215v.223c-.244-.007-.617-.022-.8-.022s-.56.015-.811.022v-.223c.48,0,.559,0,.559-.323V28.429c0-.409-.079-.8-.53-.8a1.048,1.048,0,0,0-.969,1.148V30.1c0,.323.079.323.559.323v.223c-.243-.007-.617-.022-.8-.022s-.56.015-.811.022v-.223c.481,0,.56,0,.56-.323V28.178C142.994,27.826,142.936,27.776,142.434,27.776Z" transform="translate(-10.488 -3.916)"/><path d="M148.037,30.545a.936.936,0,0,0,.939-.753c.015-.043.029-.071.093-.071.022,0,.094,0,.094.071a1.181,1.181,0,0,1-1.191.933A1.588,1.588,0,0,1,146.43,29.1a1.607,1.607,0,0,1,1.556-1.664c.553,0,1.1.28,1.1.767a.33.33,0,1,1-.66.008.324.324,0,0,1,.337-.331,1.17,1.17,0,0,0-.768-.265c-.38,0-.968.3-.968,1.47S147.656,30.545,148.037,30.545Z" transform="translate(-10.488 -3.916)"/><path d="M150.16,26.37c0-.351-.058-.4-.56-.4v-.222l1.033-.079v2.511a1.135,1.135,0,0,1,1.04-.7.96.96,0,0,1,.754.265c.222.259.222.481.222,1.1v1.37c.007.215.186.215.559.215v.223c-.243-.007-.617-.022-.8-.022s-.56.015-.811.022v-.223c.481,0,.56,0,.56-.323V28.429c0-.409-.079-.8-.531-.8a1.048,1.048,0,0,0-.968,1.148V30.1c0,.323.078.323.559.323v.223c-.244-.007-.617-.022-.8-.022s-.56.015-.811.022v-.223c.481,0,.56,0,.56-.323Z" transform="translate(-10.488 -3.916)"/><path d="M157.943,30.093a2.351,2.351,0,0,0,.681-.057,2.356,2.356,0,0,0,.158-.639h.179l-.2,1.249H156.1c0-.172,0-.187.079-.266l1.377-1.535a2.569,2.569,0,0,0,.753-1.585c0-.589-.308-1.17-.961-1.17a1.036,1.036,0,0,0-.969.732.25.25,0,0,1,.094-.008.364.364,0,0,1,.38.374.377.377,0,1,1-.753-.022,1.326,1.326,0,0,1,1.341-1.3,1.41,1.41,0,0,1,1.521,1.393c0,.717-.43,1.1-1.549,2.094l-.761.739Z" transform="translate(-10.488 -3.916)"/><path class="cls-2" d="M184.484,85.255a1.433,1.433,0,0,1-1.562,1.282h-2.745v-.218h.168c.539,0,.553-.076.553-.329V82.3c0-.252-.014-.329-.553-.329h-.168v-.217h2.563a1.406,1.406,0,0,1,1.555,1.184c0,.518-.484.966-1.163,1.1A1.375,1.375,0,0,1,184.484,85.255ZM182.5,83.973a1.056,1.056,0,0,0,1.12-1.036.93.93,0,0,0-.924-.967h-.869c-.329,0-.343.049-.343.28v1.723Zm1.288,1.275a1.05,1.05,0,0,0-.987-1.121h-1.317V86.04c0,.23.014.279.343.279h.876A1.057,1.057,0,0,0,183.783,85.248Z" transform="translate(-10.488 -3.916)"/><path class="cls-2" d="M186.912,83.441a.478.478,0,0,1,.518.427.294.294,0,0,1-.3.308.289.289,0,0,1-.3-.3.3.3,0,0,1,.16-.273c-.014-.007-.027-.007-.076-.007-.532,0-.827.623-.827,1.317V85.99c0,.253.014.329.532.329h.148v.218c-.281-.021-.61-.021-.89-.021-.2,0-.526.014-.8.021v-.218c.469,0,.546,0,.546-.315V84.127c0-.343-.056-.392-.546-.392v-.217l.973-.077v.77A.98.98,0,0,1,186.912,83.441Z" transform="translate(-10.488 -3.916)"/><path class="cls-2" d="M189.032,86.614c-.441,0-1.121-.176-1.121-.743a1.021,1.021,0,0,1,.7-.91,3.394,3.394,0,0,1,1.288-.253V84.45a.793.793,0,0,0-.742-.9.983.983,0,0,0-.756.322c.322.007.357.238.357.322a.323.323,0,1,1-.645-.007c0-.462.484-.791,1.058-.791a1.339,1.339,0,0,1,.96.385,1.035,1.035,0,0,1,.252.826v1.4c0,.035.028.35.259.35.077,0,.252-.042.252-.448v-.392h.175v.392a.6.6,0,0,1-.574.666.587.587,0,0,1-.547-.575A.969.969,0,0,1,189.032,86.614Zm-.581-.75a.6.6,0,0,0,.63.595.84.84,0,0,0,.819-.9v-.7C188.745,84.9,188.451,85.479,188.451,85.864Z" transform="translate(-10.488 -3.916)"/><path class="cls-2" d="M191.342,83.735v-.217l.987-.077v.735a1.1,1.1,0,0,1,1.036-.735.932.932,0,0,1,.735.259c.218.252.218.469.218,1.071v1.338c.007.21.182.21.546.21v.218c-.238-.007-.6-.021-.784-.021s-.546.014-.791.021v-.218c.469,0,.546,0,.546-.315V84.373c0-.4-.077-.778-.519-.778a1.023,1.023,0,0,0-.945,1.121V86c0,.315.077.315.546.315v.218c-.237-.007-.6-.021-.784-.021s-.546.014-.791.021v-.218c.468,0,.546,0,.546-.315V84.127C191.888,83.784,191.832,83.735,191.342,83.735Z" transform="translate(-10.488 -3.916)"/><path class="cls-2" d="M196.809,86.438a.914.914,0,0,0,.917-.735c.014-.042.029-.07.091-.07.022,0,.092,0,.092.07a1.154,1.154,0,0,1-1.163.911,1.55,1.55,0,0,1-1.506-1.59,1.57,1.57,0,0,1,1.52-1.625c.54,0,1.072.273,1.072.749a.323.323,0,1,1-.645.007.316.316,0,0,1,.329-.322,1.141,1.141,0,0,0-.749-.259c-.372,0-.946.294-.946,1.436C195.821,86.137,196.437,86.438,196.809,86.438Z" transform="translate(-10.488 -3.916)"/><path class="cls-2" d="M198.881,82.362c0-.343-.057-.392-.547-.392v-.217l1.009-.077v2.451a1.106,1.106,0,0,1,1.015-.686.934.934,0,0,1,.736.259c.216.252.216.469.216,1.071v1.338c.007.21.183.21.547.21v.218c-.238-.007-.6-.021-.785-.021s-.546.014-.791.021v-.218c.47,0,.546,0,.546-.315V84.373c0-.4-.076-.778-.518-.778a1.023,1.023,0,0,0-.945,1.121V86c0,.315.076.315.546.315v.218c-.238-.007-.6-.021-.784-.021s-.547.014-.792.021v-.218c.47,0,.547,0,.547-.315Z" transform="translate(-10.488 -3.916)"/><path class="cls-2" d="M206.126,83.546a1.468,1.468,0,0,1,1.4,1.562,1.5,1.5,0,0,1-1.443,1.583c-.652,0-1.464-.5-1.464-2.368,0-1.548.946-2.451,1.843-2.451.581,0,.889.336.889.756a.322.322,0,1,1-.644.015c0-.316.28-.316.385-.316a.725.725,0,0,0-.617-.28c-.357,0-1.225.252-1.225,2.024v.168A.966.966,0,0,1,206.126,83.546Zm.651,2.494a3.742,3.742,0,0,0-.007-1.9.674.674,0,0,0-.651-.434c-.63,0-.854.7-.854,1.247a3.443,3.443,0,0,0,.125,1.015.808.808,0,0,0,.694.526A.734.734,0,0,0,206.777,86.04Z" transform="translate(-10.488 -3.916)"/><rect class="cls-3" x="152.489" y="94.912" width="5.669" height="5.669"/><rect class="cls-3" x="82.574" y="70.674" width="5.669" height="5.669"/><line class="cls-1" x1="85.409" y1="38.921" x2="85.409" y2="68.855"/><path d="M91.691,39.127a1.468,1.468,0,0,1-1.6,1.313H87.279v-.223h.172c.553,0,.567-.079.567-.337V36.1c0-.258-.014-.337-.567-.337h-.172V35.54H89.9A1.44,1.44,0,0,1,91.5,36.752c0,.531-.5.99-1.191,1.126A1.41,1.41,0,0,1,91.691,39.127Zm-2.038-1.314A1.081,1.081,0,0,0,90.8,36.752a.953.953,0,0,0-.947-.99h-.889c-.337,0-.352.05-.352.287v1.764Zm1.321,1.306a1.075,1.075,0,0,0-1.012-1.147H88.613V39.93c0,.237.015.287.352.287h.9A1.085,1.085,0,0,0,90.974,39.119Z" transform="translate(-10.488 -3.916)"/><path d="M93.978,40.518c-1.09,0-1.09-.652-1.09-1.212V38.23c0-.639,0-.66-.56-.66v-.223l1.055-.078V39.65c0,.373.029.711.631.711.524,0,.869-.488.869-1.112V37.972c0-.352-.058-.4-.56-.4v-.223l1.055-.078v2.546c0,.352.057.4.559.4v.223l-1.033.078v-.645A.98.98,0,0,1,93.978,40.518Z" transform="translate(-10.488 -3.916)"/><path d="M96.625,38.718a.767.767,0,0,1-.308-.61c0-.4.272-.882,1.147-.882a1.111,1.111,0,0,1,.675.2.884.884,0,0,0,.122-.115c.093-.085.108-.085.144-.085.078,0,.078.05.078.172v.724c0,.137,0,.172-.093.172-.014,0-.079,0-.086-.064a.791.791,0,0,0-.84-.868c-.617,0-.8.294-.8.545,0,.416.481.509.883.589a1.452,1.452,0,0,1,.817.343.93.93,0,0,1,.3.682c0,.516-.33,1-1.155,1a1.074,1.074,0,0,1-.79-.308,1.521,1.521,0,0,0-.143.165c-.136.136-.143.143-.179.143-.079,0-.079-.05-.079-.172V39.4c0-.129,0-.179.093-.179.072,0,.079.029.1.122.137.61.395,1.019,1,1.019.559,0,.81-.288.81-.653,0-.517-.588-.632-.746-.661A1.876,1.876,0,0,1,96.625,38.718Z" transform="translate(-10.488 -3.916)"/><path d="M103.5,39.887a2.32,2.32,0,0,0,.682-.058,2.342,2.342,0,0,0,.157-.638h.18l-.2,1.249h-2.662c0-.173,0-.187.079-.266l1.378-1.535a2.574,2.574,0,0,0,.753-1.586c0-.588-.308-1.169-.961-1.169a1.035,1.035,0,0,0-.969.731.281.281,0,0,1,.093-.007.364.364,0,0,1,.381.374.377.377,0,1,1-.754-.022,1.326,1.326,0,0,1,1.342-1.3,1.41,1.41,0,0,1,1.521,1.392c0,.718-.431,1.105-1.55,2.1l-.76.739Z" transform="translate(-10.488 -3.916)"/><line class="cls-4" x1="13.591" y1="53.888" x2="85.54" y2="53.888"/><line class="cls-1" x1="155.324" y1="14.641" x2="155.324" y2="44.574"/><polyline class="cls-5" points="155.177 29.643 118.073 29.643 116.273 29.643 116.271 46.361 86.125 46.362"/><line class="cls-1" x1="227.602" y1="7.257" x2="227.602" y2="37.19"/><line class="cls-4" x1="155.653" y1="22.224" x2="227.602" y2="22.224"/><path class="cls-2" d="M214.889,99.272l1.534-3.943c.049-.126.049-.133.231-.133h1.184v.217h-.168c-.54,0-.553.077-.553.329v3.691c0,.253.013.329.553.329h.168v.217c-.259-.021-.729-.021-1-.021s-.749,0-1.008.021v-.217H216c.539,0,.553-.076.553-.329v-4.02h-.006l-1.724,4.433c-.027.077-.048.133-.126.133s-.105-.063-.14-.154l-1.688-4.356h-.007v3.775c0,.189,0,.518.722.518v.217c-.245-.006-.589-.021-.82-.021s-.574.015-.819.021v-.217c.721,0,.721-.329.721-.518v-3.5c0-.252-.014-.329-.553-.329h-.168V95.2h1.184c.161,0,.182,0,.245.154Z" transform="translate(-10.488 -3.916)"/><path class="cls-2" d="M219.081,99.412a.944.944,0,0,0,.792.469.986.986,0,0,0,.945-.721c.014-.056.028-.1.091-.1a.082.082,0,0,1,.092.084,1.2,1.2,0,0,1-1.17.911,1.582,1.582,0,0,1-1.541-1.619,1.53,1.53,0,0,1,1.457-1.6A1.242,1.242,0,0,1,221,98.214c0,.148-.021.148-.176.148h-1.954A2.038,2.038,0,0,0,219.081,99.412Zm1.457-1.2c0-.273-.07-1.218-.791-1.218-.239,0-.827.175-.869,1.218Z" transform="translate(-10.488 -3.916)"/><path class="cls-2" d="M222.413,99.125c0,.119,0,.756.47.756.259,0,.469-.266.469-.784v-.385h.175v.4c0,.448-.2.946-.693.946a.848.848,0,0,1-.9-.946V97.178h-.595v-.154c.686-.028.9-.777.9-1.352h.175v1.289h1v.217h-1Z" transform="translate(-10.488 -3.916)"/><path class="cls-2" d="M224.905,99.412a.943.943,0,0,0,.791.469.987.987,0,0,0,.946-.721c.014-.056.028-.1.091-.1a.081.081,0,0,1,.091.084,1.2,1.2,0,0,1-1.17.911,1.582,1.582,0,0,1-1.54-1.619,1.53,1.53,0,0,1,1.456-1.6,1.242,1.242,0,0,1,1.254,1.372c0,.148-.021.148-.175.148H224.7A2.038,2.038,0,0,0,224.905,99.412Zm1.457-1.2c0-.273-.07-1.218-.792-1.218-.238,0-.826.175-.868,1.218Z" transform="translate(-10.488 -3.916)"/><path class="cls-2" d="M229.057,96.884a.478.478,0,0,1,.518.427.294.294,0,0,1-.3.308.29.29,0,0,1-.3-.3.3.3,0,0,1,.16-.273c-.013-.007-.027-.007-.076-.007-.533,0-.827.623-.827,1.316v1.079c0,.253.014.329.532.329h.147v.217c-.28-.021-.609-.021-.889-.021-.2,0-.525.015-.8.021v-.217c.469,0,.546,0,.546-.315V97.57c0-.343-.056-.392-.546-.392v-.217l.973-.077v.77A.98.98,0,0,1,229.057,96.884Z" transform="translate(-10.488 -3.916)"/><path class="cls-2" d="M232.29,98.824v-.217l2.15-3.285c.056-.084.077-.084.14-.084.112,0,.112.042.112.182v3.187h.7v.217h-.7v.609c0,.253.014.329.532.329h.147v.217c-.287-.021-.658-.021-.952-.021s-.659,0-.946.021v-.217h.147c.518,0,.532-.076.532-.329v-.609Zm1.9-2.83-1.709,2.613h1.709Z" transform="translate(-10.488 -3.916)"/><line class="cls-1" x1="155.324" y1="93.093" x2="155.324" y2="63.159"/><polyline class="cls-5" points="155.177 78.09 118.073 78.09 116.273 78.09 116.271 61.372 86.125 61.371"/><line class="cls-1" x1="227.602" y1="100.576" x2="227.602" y2="70.643"/><line class="cls-4" x1="155.653" y1="85.61" x2="227.602" y2="85.61"/><polyline class="cls-5" points="156.188 37.19 177.215 37.191 177.215 54.065 177.215 70.642 156.222 70.642"/><rect class="cls-3" x="25.135" y="51.053" width="5.669" height="5.669"/><rect class="cls-3" x="210.344" y="82.775" width="5.669" height="5.669"/><path class="cls-2" d="M29.863,67.558,31.4,63.615c.049-.126.049-.134.231-.134h1.183V63.7h-.168c-.539,0-.553.077-.553.329v3.691c0,.252.014.329.553.329h.168v.217c-.259-.021-.728-.021-1-.021s-.75,0-1.008.021v-.217h.168c.539,0,.553-.077.553-.329V63.7h-.007l-1.723,4.433c-.028.077-.049.133-.126.133s-.105-.063-.14-.154l-1.688-4.356h-.007V67.53c0,.189,0,.518.721.518v.217c-.245-.007-.588-.021-.819-.021s-.574.014-.82.021v-.217c.722,0,.722-.329.722-.518v-3.5c0-.252-.015-.329-.554-.329h-.168v-.218H28.1c.161,0,.182,0,.245.155Z" transform="translate(-10.488 -3.916)"/><path class="cls-2" d="M34.055,67.7a.943.943,0,0,0,.791.469.987.987,0,0,0,.946-.721c.014-.056.028-.1.091-.1a.081.081,0,0,1,.091.084,1.2,1.2,0,0,1-1.17.91,1.581,1.581,0,0,1-1.54-1.618,1.531,1.531,0,0,1,1.456-1.6A1.243,1.243,0,0,1,35.974,66.5c0,.147-.021.147-.175.147H33.845A2.042,2.042,0,0,0,34.055,67.7Zm1.457-1.2c0-.273-.07-1.218-.792-1.218-.238,0-.826.175-.869,1.218Z" transform="translate(-10.488 -3.916)"/><path class="cls-2" d="M37.387,67.411c0,.119,0,.756.469.756.259,0,.47-.266.47-.784V67H38.5v.4c0,.449-.2.946-.693.946a.847.847,0,0,1-.9-.946V65.463h-.6V65.31c.686-.028.9-.778.9-1.352h.175v1.289h1v.216h-1Z" transform="translate(-10.488 -3.916)"/><path class="cls-2" d="M39.878,67.7a.944.944,0,0,0,.792.469.988.988,0,0,0,.946-.721c.013-.056.027-.1.09-.1a.082.082,0,0,1,.092.084,1.2,1.2,0,0,1-1.17.91,1.581,1.581,0,0,1-1.541-1.618,1.531,1.531,0,0,1,1.457-1.6A1.243,1.243,0,0,1,41.8,66.5c0,.147-.021.147-.176.147H39.668A2.042,2.042,0,0,0,39.878,67.7Zm1.457-1.2c0-.273-.07-1.218-.791-1.218-.238,0-.826.175-.868,1.218Z" transform="translate(-10.488 -3.916)"/><path class="cls-2" d="M44.03,65.169a.478.478,0,0,1,.518.428.294.294,0,0,1-.3.308.29.29,0,0,1-.3-.3.3.3,0,0,1,.161-.272.177.177,0,0,0-.077-.007c-.532,0-.827.623-.827,1.316v1.079c0,.252.015.329.533.329h.147v.217c-.28-.021-.609-.021-.889-.021-.2,0-.526.014-.8.021v-.217c.469,0,.546,0,.546-.315V65.856c0-.343-.056-.393-.546-.393v-.216l.973-.078v.771A.982.982,0,0,1,44.03,65.169Z" transform="translate(-10.488 -3.916)"/><path class="cls-2" d="M49.126,67.712c0,.259.021.336.651.336H50v.217c-.245-.021-.854-.021-1.134-.021s-.89,0-1.135.021v-.217h.224c.631,0,.652-.084.652-.336V64.084a2.1,2.1,0,0,1-.918.182v-.217a1.732,1.732,0,0,0,1.275-.448c.161,0,.161.014.161.182Z" transform="translate(-10.488 -3.916)"/><path class="cls-2" d="M87.2,87.317l1.534-3.943c.049-.126.049-.133.231-.133h1.184v.217h-.168c-.54,0-.553.077-.553.329v3.691c0,.253.013.329.553.329h.168v.218c-.259-.021-.729-.021-1-.021s-.749,0-1.008.021v-.218H88.3c.539,0,.553-.076.553-.329v-4.02H88.85l-1.723,4.433c-.027.077-.048.134-.126.134s-.105-.063-.14-.155l-1.688-4.356h-.007v3.775c0,.189,0,.518.722.518v.218c-.246-.007-.589-.021-.82-.021s-.574.014-.819.021v-.218c.721,0,.721-.329.721-.518v-3.5c0-.252-.014-.329-.553-.329h-.168v-.217h1.184c.161,0,.182,0,.245.154Z" transform="translate(-10.488 -3.916)"/><path class="cls-2" d="M91.389,87.457a.943.943,0,0,0,.792.469.986.986,0,0,0,.945-.721c.014-.056.028-.1.091-.1a.081.081,0,0,1,.091.084,1.2,1.2,0,0,1-1.169.911A1.581,1.581,0,0,1,90.6,86.484a1.53,1.53,0,0,1,1.457-1.6,1.242,1.242,0,0,1,1.253,1.372c0,.148-.021.148-.175.148H91.179A2.038,2.038,0,0,0,91.389,87.457Zm1.457-1.2c0-.272-.07-1.218-.791-1.218-.239,0-.827.175-.869,1.218Z" transform="translate(-10.488 -3.916)"/><path class="cls-2" d="M94.721,87.17c0,.119,0,.756.47.756.259,0,.469-.266.469-.784v-.385h.175v.4c0,.448-.2.946-.694.946a.848.848,0,0,1-.9-.946V85.223h-.595v-.154c.686-.028.9-.777.9-1.352h.175v1.289h1v.217h-1Z" transform="translate(-10.488 -3.916)"/><path class="cls-2" d="M97.213,87.457a.943.943,0,0,0,.791.469.987.987,0,0,0,.946-.721c.014-.056.028-.1.091-.1a.081.081,0,0,1,.091.084,1.2,1.2,0,0,1-1.17.911,1.581,1.581,0,0,1-1.54-1.618,1.53,1.53,0,0,1,1.456-1.6,1.242,1.242,0,0,1,1.254,1.372c0,.148-.021.148-.175.148H97A2.038,2.038,0,0,0,97.213,87.457Zm1.457-1.2c0-.272-.07-1.218-.792-1.218-.238,0-.826.175-.868,1.218Z" transform="translate(-10.488 -3.916)"/><path class="cls-2" d="M101.365,84.929a.478.478,0,0,1,.518.427.294.294,0,0,1-.3.308.29.29,0,0,1-.3-.3.3.3,0,0,1,.16-.273c-.013-.007-.028-.007-.076-.007-.533,0-.827.623-.827,1.317v1.078c0,.253.014.329.532.329h.147v.218c-.28-.021-.609-.021-.889-.021-.2,0-.525.014-.8.021v-.218c.469,0,.546,0,.546-.315V85.615c0-.343-.056-.392-.546-.392v-.217l.973-.077v.77A.98.98,0,0,1,101.365,84.929Z" transform="translate(-10.488 -3.916)"/><path class="cls-2" d="M106.552,87.486a2.246,2.246,0,0,0,.665-.057,2.3,2.3,0,0,0,.154-.623h.175l-.2,1.219h-2.6c0-.168,0-.183.078-.26l1.344-1.5a2.514,2.514,0,0,0,.736-1.548c0-.574-.3-1.142-.939-1.142a1.009,1.009,0,0,0-.945.715.232.232,0,0,1,.091-.008.354.354,0,0,1,.371.365.368.368,0,1,1-.736-.021,1.3,1.3,0,0,1,1.31-1.268,1.377,1.377,0,0,1,1.485,1.359c0,.7-.42,1.079-1.513,2.045l-.742.722Z" transform="translate(-10.488 -3.916)"/><path class="cls-2" d="M157.083,111.409l1.535-3.943c.048-.126.048-.133.231-.133h1.184v.217h-.168c-.54,0-.554.077-.554.329v3.691c0,.252.014.329.554.329h.168v.217c-.26-.021-.729-.021-1-.021s-.749,0-1.008.021V111.9h.168c.539,0,.553-.077.553-.329v-4.02h-.007l-1.723,4.433c-.028.077-.049.133-.126.133s-.105-.063-.141-.154l-1.687-4.356h-.007v3.775c0,.189,0,.518.721.518v.217c-.245-.007-.588-.021-.82-.021s-.574.014-.819.021V111.9c.722,0,.722-.329.722-.518v-3.5c0-.252-.015-.329-.554-.329h-.168v-.217h1.184c.161,0,.182,0,.245.154Z" transform="translate(-10.488 -3.916)"/><path class="cls-2" d="M161.276,111.549a.943.943,0,0,0,.791.469.987.987,0,0,0,.946-.721c.014-.056.027-.1.091-.1a.081.081,0,0,1,.091.084,1.2,1.2,0,0,1-1.17.91,1.581,1.581,0,0,1-1.54-1.618,1.529,1.529,0,0,1,1.456-1.6,1.242,1.242,0,0,1,1.254,1.372c0,.148-.021.148-.175.148h-1.954A2.038,2.038,0,0,0,161.276,111.549Zm1.457-1.2c0-.273-.071-1.218-.792-1.218-.239,0-.826.175-.868,1.218Z" transform="translate(-10.488 -3.916)"/><path class="cls-2" d="M164.608,111.262c0,.119,0,.756.469.756.259,0,.469-.266.469-.784v-.385h.175v.4c0,.448-.195.945-.693.945a.848.848,0,0,1-.9-.945v-1.934h-.594v-.153c.685-.028.9-.778.9-1.352h.175V109.1h1v.216h-1Z" transform="translate(-10.488 -3.916)"/><path class="cls-2" d="M167.1,111.549a.943.943,0,0,0,.792.469.986.986,0,0,0,.945-.721c.014-.056.029-.1.091-.1a.082.082,0,0,1,.092.084,1.2,1.2,0,0,1-1.17.91,1.581,1.581,0,0,1-1.541-1.618,1.53,1.53,0,0,1,1.457-1.6,1.242,1.242,0,0,1,1.254,1.372c0,.148-.022.148-.176.148h-1.954A2.038,2.038,0,0,0,167.1,111.549Zm1.457-1.2c0-.273-.069-1.218-.791-1.218-.238,0-.826.175-.868,1.218Z" transform="translate(-10.488 -3.916)"/><path class="cls-2" d="M171.251,109.021a.478.478,0,0,1,.518.427.294.294,0,0,1-.3.308.29.29,0,0,1-.3-.3.3.3,0,0,1,.16-.273c-.013-.007-.027-.007-.076-.007-.532,0-.827.623-.827,1.316v1.079c0,.252.015.329.532.329h.148v.217c-.28-.021-.61-.021-.89-.021-.2,0-.525.014-.8.021V111.9c.469,0,.546,0,.546-.315v-1.877c0-.343-.055-.393-.546-.393V109.1l.973-.077v.77A.983.983,0,0,1,171.251,109.021Z" transform="translate(-10.488 -3.916)"/><path class="cls-2" d="M177.489,110.918A1.43,1.43,0,0,1,176,112.271a1.278,1.278,0,0,1-1.415-1.1.393.393,0,1,1,.786-.014.384.384,0,0,1-.463.385,1.274,1.274,0,0,0,1.072.532c.308,0,.791-.2.791-1.156,0-.686-.259-1.162-.833-1.162h-.309c-.119,0-.168,0-.168-.077s.049-.077.106-.084.217-.014.272-.021a.679.679,0,0,0,.624-.365,1.747,1.747,0,0,0,.2-.8c0-.63-.385-.784-.672-.784a1.136,1.136,0,0,0-.932.434c.106,0,.435,0,.435.35a.358.358,0,1,1-.715-.007c0-.532.532-.952,1.24-.952.672,0,1.288.392,1.288.966a1.348,1.348,0,0,1-.98,1.233A1.351,1.351,0,0,1,177.489,110.918Z" transform="translate(-10.488 -3.916)"/><rect class="cls-3" x="224.807" y="39.009" width="5.669" height="5.669"/><path class="cls-2" d="M225.912,55.745c0,.252.014.329.553.329h.168v.217c-.245-.021-.77-.021-1.036-.021s-.785,0-1.031.021v-.217h.168c.54,0,.554-.077.554-.329V52.054c0-.252-.014-.329-.554-.329h-.168v-.218h2.473a1.5,1.5,0,0,1,1.653,1.3,1.488,1.488,0,0,1-1.6,1.268h-1.184Zm.945-1.849c1.114,0,1.114-.757,1.114-1.086s0-1.085-1.114-1.085h-.623c-.33,0-.343.048-.343.28V53.9Z" transform="translate(-10.488 -3.916)"/><path class="cls-2" d="M229.613,54.61a.749.749,0,0,1-.3-.595c0-.392.266-.862,1.122-.862a1.076,1.076,0,0,1,.658.2,1.055,1.055,0,0,0,.119-.113c.091-.084.1-.084.14-.084.077,0,.077.049.077.168v.708c0,.133,0,.168-.091.168a.075.075,0,0,1-.084-.063.773.773,0,0,0-.819-.847c-.6,0-.786.287-.786.532,0,.406.47.5.862.574a1.427,1.427,0,0,1,.8.336.908.908,0,0,1,.294.666c0,.5-.322.973-1.128.973a1.047,1.047,0,0,1-.77-.3,1.55,1.55,0,0,0-.141.161c-.132.133-.139.14-.174.14-.078,0-.078-.049-.078-.168v-.925c0-.126,0-.174.092-.174.07,0,.076.027.1.118.133.6.385.995.973.995.546,0,.792-.28.792-.637,0-.5-.575-.617-.729-.645A1.843,1.843,0,0,1,229.613,54.61Z" transform="translate(-10.488 -3.916)"/><path class="cls-2" d="M232.827,55.724a.943.943,0,0,0,.792.469.986.986,0,0,0,.945-.721c.014-.056.028-.1.091-.1a.081.081,0,0,1,.091.084,1.2,1.2,0,0,1-1.17.91,1.581,1.581,0,0,1-1.54-1.618,1.531,1.531,0,0,1,1.456-1.6,1.243,1.243,0,0,1,1.254,1.373c0,.147-.02.147-.175.147h-1.954A2.042,2.042,0,0,0,232.827,55.724Zm1.457-1.2c0-.273-.069-1.218-.792-1.218-.238,0-.826.174-.868,1.218Z" transform="translate(-10.488 -3.916)"/><path class="cls-2" d="M236.783,56.368c-1.064,0-1.064-.637-1.064-1.183V54.134c0-.623,0-.644-.547-.644v-.218L236.2,53.2v2.326c0,.364.028.693.617.693.511,0,.847-.476.847-1.086V53.882c0-.343-.056-.392-.546-.392v-.218l1.029-.077v2.487c0,.343.057.392.547.392v.217l-1.01.077v-.63A.954.954,0,0,1,236.783,56.368Z" transform="translate(-10.488 -3.916)"/><path class="cls-2" d="M240.556,56.368a1.541,1.541,0,0,1-1.486-1.583,1.585,1.585,0,0,1,1.563-1.59,1.121,1.121,0,0,1,.883.434V52.117c0-.344-.057-.392-.547-.392v-.218l1.007-.077v4.252c0,.343.057.392.547.392v.217l-1.029.077v-.462A1.184,1.184,0,0,1,240.556,56.368Zm.861-2.6a.909.909,0,0,0-.757-.42.962.962,0,0,0-.791.448,2.411,2.411,0,0,0-.014,1.968.87.87,0,0,0,.735.448.976.976,0,0,0,.827-.49.337.337,0,0,0,.077-.26V54.029A.335.335,0,0,0,241.417,53.77Z" transform="translate(-10.488 -3.916)"/><path class="cls-2" d="M244.461,56.368a1.563,1.563,0,0,1-1.547-1.576,1.553,1.553,0,1,1,3.1,0A1.56,1.56,0,0,1,244.461,56.368Zm.82-.693a2.143,2.143,0,0,0,.153-.939,1.921,1.921,0,0,0-.182-.973.915.915,0,0,0-.791-.455.942.942,0,0,0-.8.469,2.007,2.007,0,0,0-.168.959,2.076,2.076,0,0,0,.176.988.915.915,0,0,0,.8.469A.9.9,0,0,0,245.281,55.675Z" transform="translate(-10.488 -3.916)"/><path class="cls-2" d="M250.7,55.752a2.277,2.277,0,0,0,.664-.056,2.266,2.266,0,0,0,.154-.624h.176l-.2,1.219h-2.6c0-.168,0-.182.078-.259l1.344-1.5a2.512,2.512,0,0,0,.736-1.548c0-.574-.3-1.141-.939-1.141a1.009,1.009,0,0,0-.945.714.267.267,0,0,1,.091-.007.354.354,0,0,1,.371.364.368.368,0,1,1-.736-.021,1.3,1.3,0,0,1,1.31-1.268,1.377,1.377,0,0,1,1.485,1.359c0,.7-.42,1.079-1.513,2.045l-.743.722Z" transform="translate(-10.488 -3.916)"/><rect class="cls-3" x="10.756" y="70.674" width="5.669" height="5.669"/><path class="cls-2" d="M11.833,87.332c0,.252.014.329.553.329h.168v.217c-.245-.021-.77-.021-1.036-.021s-.785,0-1.03.021v-.217h.168c.54,0,.553-.077.553-.329V83.641c0-.252-.013-.329-.553-.329h-.168v-.218H12.96a1.5,1.5,0,0,1,1.654,1.3,1.488,1.488,0,0,1-1.6,1.268H11.833Zm.945-1.849c1.114,0,1.114-.757,1.114-1.086s0-1.085-1.114-1.085h-.623c-.329,0-.343.048-.343.28v1.891Z" transform="translate(-10.488 -3.916)"/><path class="cls-2" d="M15.535,86.2a.746.746,0,0,1-.3-.595c0-.392.266-.862,1.12-.862a1.077,1.077,0,0,1,.659.2.847.847,0,0,0,.119-.113c.091-.084.1-.084.14-.084.077,0,.077.049.077.168v.708c0,.133,0,.168-.091.168a.075.075,0,0,1-.084-.063.773.773,0,0,0-.82-.847c-.6,0-.784.287-.784.532,0,.406.47.5.862.574a1.427,1.427,0,0,1,.8.336.9.9,0,0,1,.294.666c0,.5-.322.973-1.128.973a1.047,1.047,0,0,1-.77-.3,1.585,1.585,0,0,0-.14.161c-.133.133-.14.14-.175.14-.077,0-.077-.049-.077-.168v-.925c0-.126,0-.174.091-.174.07,0,.077.027.1.118.133.6.386,1,.973,1,.547,0,.792-.28.792-.637,0-.5-.574-.617-.729-.645A1.838,1.838,0,0,1,15.535,86.2Z" transform="translate(-10.488 -3.916)"/><path class="cls-2" d="M18.749,87.311a.943.943,0,0,0,.791.469.987.987,0,0,0,.946-.721c.013-.056.028-.1.091-.1a.081.081,0,0,1,.091.084,1.2,1.2,0,0,1-1.17.91,1.582,1.582,0,0,1-1.541-1.618,1.531,1.531,0,0,1,1.457-1.6,1.243,1.243,0,0,1,1.254,1.373c0,.147-.021.147-.175.147H18.539A2.042,2.042,0,0,0,18.749,87.311Zm1.457-1.2c0-.273-.07-1.218-.792-1.218-.238,0-.826.174-.869,1.218Z" transform="translate(-10.488 -3.916)"/><path class="cls-2" d="M22.7,87.955c-1.064,0-1.064-.638-1.064-1.183V85.721c0-.623,0-.645-.547-.645v-.217l1.03-.077v2.326c0,.364.028.693.616.693.511,0,.847-.476.847-1.086V85.469c0-.343-.055-.393-.546-.393v-.217l1.03-.077v2.487c0,.343.056.392.546.392v.217l-1.009.077v-.63A.955.955,0,0,1,22.7,87.955Z" transform="translate(-10.488 -3.916)"/><path class="cls-2" d="M26.477,87.955a1.54,1.54,0,0,1-1.485-1.583,1.584,1.584,0,0,1,1.562-1.59,1.117,1.117,0,0,1,.882.434V83.7c0-.344-.056-.392-.546-.392v-.218l1.008-.077v4.252c0,.343.057.392.547.392v.217l-1.03.077v-.462A1.182,1.182,0,0,1,26.477,87.955Zm.861-2.6a.908.908,0,0,0-.756-.42.964.964,0,0,0-.792.448,2.411,2.411,0,0,0-.014,1.968.872.872,0,0,0,.736.448.975.975,0,0,0,.826-.49.337.337,0,0,0,.077-.26V85.616A.335.335,0,0,0,27.338,85.357Z" transform="translate(-10.488 -3.916)"/><path class="cls-2" d="M30.383,87.955a1.563,1.563,0,0,1-1.548-1.576,1.553,1.553,0,1,1,3.1,0A1.56,1.56,0,0,1,30.383,87.955Zm.819-.693a2.131,2.131,0,0,0,.154-.939,1.921,1.921,0,0,0-.182-.973.915.915,0,0,0-.791-.455.941.941,0,0,0-.8.469,2.007,2.007,0,0,0-.168.959,2.087,2.087,0,0,0,.175.988.915.915,0,0,0,.8.469A.9.9,0,0,0,31.2,87.262Z" transform="translate(-10.488 -3.916)"/><path class="cls-2" d="M37.67,86.68a1.428,1.428,0,0,1-1.491,1.352,1.277,1.277,0,0,1-1.415-1.1.392.392,0,1,1,.784-.014.383.383,0,0,1-.462.385,1.274,1.274,0,0,0,1.072.532c.308,0,.791-.2.791-1.156,0-.686-.259-1.162-.833-1.162h-.308c-.12,0-.169,0-.169-.077s.049-.077.106-.084.216-.014.273-.021a.678.678,0,0,0,.623-.365,1.747,1.747,0,0,0,.2-.8c0-.63-.385-.784-.672-.784a1.136,1.136,0,0,0-.932.434c.105,0,.434,0,.434.35a.357.357,0,1,1-.714-.007c0-.532.532-.953,1.24-.953.672,0,1.288.393,1.288.967a1.349,1.349,0,0,1-.98,1.233A1.35,1.35,0,0,1,37.67,86.68Z" transform="translate(-10.488 -3.916)"/><path d="M192.049,22.09a1.467,1.467,0,0,1-1.6,1.313h-2.812V23.18h.171c.553,0,.567-.078.567-.337V19.062c0-.258-.014-.337-.567-.337h-.171V18.5h2.625a1.44,1.44,0,0,1,1.593,1.212c0,.531-.5.99-1.191,1.127A1.407,1.407,0,0,1,192.049,22.09Zm-2.037-1.313a1.083,1.083,0,0,0,1.148-1.062.953.953,0,0,0-.947-.99h-.89c-.337,0-.351.05-.351.287v1.765Zm1.32,1.306a1.075,1.075,0,0,0-1.011-1.148h-1.349v1.958c0,.237.014.287.351.287h.9A1.084,1.084,0,0,0,191.332,22.083Z" transform="translate(-10.488 -3.916)"/><path d="M194.538,20.231a.491.491,0,0,1,.531.438.3.3,0,0,1-.308.316.3.3,0,0,1-.309-.309.309.309,0,0,1,.165-.279.189.189,0,0,0-.079-.007c-.545,0-.846.638-.846,1.348v1.105c0,.259.014.337.545.337h.15V23.4c-.287-.022-.624-.022-.911-.022-.2,0-.538.014-.818.022V23.18c.481,0,.56,0,.56-.322V20.935c0-.352-.057-.4-.56-.4v-.222l1-.08v.79A1,1,0,0,1,194.538,20.231Z" transform="translate(-10.488 -3.916)"/><path d="M196.711,23.481c-.451,0-1.147-.179-1.147-.76a1.043,1.043,0,0,1,.717-.932,3.491,3.491,0,0,1,1.32-.259v-.265a.813.813,0,0,0-.761-.918,1.006,1.006,0,0,0-.774.329c.33.008.365.244.365.33a.33.33,0,1,1-.659-.007c0-.473.5-.81,1.082-.81a1.366,1.366,0,0,1,.983.394,1.061,1.061,0,0,1,.259.847v1.435c0,.035.028.358.266.358.079,0,.257-.043.257-.459v-.4h.18v.4a.608.608,0,0,1-.588.681.6.6,0,0,1-.56-.587A.993.993,0,0,1,196.711,23.481Zm-.595-.767a.618.618,0,0,0,.646.61.862.862,0,0,0,.839-.926v-.717C196.417,21.724,196.116,22.32,196.116,22.714Z" transform="translate(-10.488 -3.916)"/><path d="M199.078,20.533v-.222l1.012-.08v.754a1.131,1.131,0,0,1,1.062-.754.96.96,0,0,1,.753.266c.223.258.223.481.223,1.1v1.37c.007.215.186.215.559.215V23.4c-.244-.008-.617-.022-.8-.022s-.559.014-.81.022V23.18c.48,0,.56,0,.56-.322V21.186c0-.409-.08-.8-.532-.8a1.047,1.047,0,0,0-.968,1.147v1.321c0,.322.079.322.559.322V23.4c-.243-.008-.617-.022-.8-.022s-.56.014-.811.022V23.18c.481,0,.56,0,.56-.322V20.935C199.638,20.583,199.58,20.533,199.078,20.533Z" transform="translate(-10.488 -3.916)"/><path d="M204.68,23.3a.937.937,0,0,0,.94-.753c.015-.043.029-.072.094-.072.021,0,.093,0,.093.072a1.18,1.18,0,0,1-1.191.932,1.587,1.587,0,0,1-1.542-1.628,1.607,1.607,0,0,1,1.556-1.664c.552,0,1.1.279,1.1.767a.33.33,0,1,1-.66.007.323.323,0,0,1,.337-.329,1.173,1.173,0,0,0-.768-.266c-.38,0-.968.3-.968,1.471S204.3,23.3,204.68,23.3Z" transform="translate(-10.488 -3.916)"/><path d="M206.8,19.127c0-.352-.058-.4-.56-.4V18.5l1.034-.079v2.511a1.133,1.133,0,0,1,1.039-.7.963.963,0,0,1,.754.266c.222.258.222.481.222,1.1v1.37c.007.215.187.215.559.215V23.4c-.243-.008-.617-.022-.8-.022s-.559.014-.811.022V23.18c.481,0,.56,0,.56-.322V21.186c0-.409-.079-.8-.53-.8a1.047,1.047,0,0,0-.969,1.147v1.321c0,.322.078.322.559.322V23.4c-.244-.008-.617-.022-.8-.022s-.56.014-.811.022V23.18c.481,0,.56,0,.56-.322Z" transform="translate(-10.488 -3.916)"/><path d="M212.585,22.219V22l2.2-3.364c.058-.086.079-.086.143-.086.116,0,.116.043.116.186V22h.717v.223h-.717v.624c0,.259.014.337.545.337h.151V23.4c-.295-.022-.675-.022-.976-.022s-.674,0-.969.022V23.18h.151c.531,0,.545-.078.545-.337v-.624Zm1.952-2.9L212.786,22h1.751Z" transform="translate(-10.488 -3.916)"/><path class="cls-2" d="M194.907,58.925a1.432,1.432,0,0,1-1.562,1.282H190.6V59.99h.169c.539,0,.553-.077.553-.329V55.97c0-.252-.014-.329-.553-.329H190.6v-.218h2.564a1.405,1.405,0,0,1,1.554,1.184c0,.519-.482.967-1.162,1.1A1.375,1.375,0,0,1,194.907,58.925Zm-1.989-1.281a1.057,1.057,0,0,0,1.121-1.037.93.93,0,0,0-.925-.966h-.868c-.329,0-.344.049-.344.28v1.723Zm1.289,1.275a1.049,1.049,0,0,0-.988-1.121H191.9V59.71c0,.231.015.28.344.28h.875A1.059,1.059,0,0,0,194.207,58.919Z" transform="translate(-10.488 -3.916)"/><path class="cls-2" d="M197.335,57.111a.479.479,0,0,1,.518.428.294.294,0,0,1-.3.308.29.29,0,0,1-.3-.3.3.3,0,0,1,.161-.272.18.18,0,0,0-.077-.007c-.533,0-.827.623-.827,1.316v1.079c0,.252.014.329.533.329h.146v.217c-.279-.021-.608-.021-.889-.021-.2,0-.525.014-.8.021V59.99c.469,0,.546,0,.546-.315V57.8c0-.343-.056-.393-.546-.393v-.216l.973-.078v.771A.982.982,0,0,1,197.335,57.111Z" transform="translate(-10.488 -3.916)"/><path class="cls-2" d="M199.455,60.284c-.441,0-1.12-.175-1.12-.742a1.018,1.018,0,0,1,.7-.911,3.408,3.408,0,0,1,1.289-.252V58.12a.793.793,0,0,0-.742-.9.983.983,0,0,0-.757.321.318.318,0,0,1,.357.323.322.322,0,1,1-.644-.007c0-.463.483-.792,1.057-.792a1.336,1.336,0,0,1,.959.386,1.033,1.033,0,0,1,.253.826v1.4c0,.035.028.35.259.35.077,0,.252-.042.252-.448v-.393h.175v.393a.594.594,0,0,1-.574.665.585.585,0,0,1-.546-.574A.969.969,0,0,1,199.455,60.284Zm-.581-.749a.6.6,0,0,0,.63.6.842.842,0,0,0,.82-.9v-.7C199.168,58.568,198.874,59.149,198.874,59.535Z" transform="translate(-10.488 -3.916)"/><path class="cls-2" d="M201.764,57.405v-.216l.988-.078v.736a1.1,1.1,0,0,1,1.037-.736.933.933,0,0,1,.735.26c.217.252.217.469.217,1.071V59.78c.007.21.182.21.547.21v.217c-.239-.007-.6-.021-.785-.021s-.546.014-.791.021V59.99c.469,0,.545,0,.545-.315V58.043c0-.4-.076-.777-.517-.777a1.022,1.022,0,0,0-.945,1.12v1.289c0,.315.076.315.545.315v.217c-.238-.007-.6-.021-.784-.021s-.547.014-.792.021V59.99c.47,0,.547,0,.547-.315V57.8C202.311,57.455,202.254,57.405,201.764,57.405Z" transform="translate(-10.488 -3.916)"/><path class="cls-2" d="M207.232,60.109a.915.915,0,0,0,.918-.735c.014-.042.027-.07.091-.07.02,0,.091,0,.091.07a1.152,1.152,0,0,1-1.162.91,1.55,1.55,0,0,1-1.506-1.59,1.569,1.569,0,0,1,1.519-1.625c.539,0,1.071.273,1.071.75a.322.322,0,1,1-.644.007.317.317,0,0,1,.329-.323,1.143,1.143,0,0,0-.749-.258c-.371,0-.945.294-.945,1.435S206.861,60.109,207.232,60.109Z" transform="translate(-10.488 -3.916)"/><path class="cls-2" d="M209.3,56.033c0-.343-.055-.392-.546-.392v-.218l1.008-.077V57.8a1.11,1.11,0,0,1,1.016-.687.931.931,0,0,1,.735.26c.218.252.218.469.218,1.071V59.78c.007.21.182.21.546.21v.217c-.238-.007-.6-.021-.784-.021s-.546.014-.791.021V59.99c.468,0,.546,0,.546-.315V58.043c0-.4-.078-.777-.519-.777a1.022,1.022,0,0,0-.945,1.12v1.289c0,.315.077.315.546.315v.217c-.238-.007-.6-.021-.785-.021s-.545.014-.791.021V59.99c.469,0,.546,0,.546-.315Z" transform="translate(-10.488 -3.916)"/><path class="cls-2" d="M216.367,60.361A1.286,1.286,0,0,1,215.1,59.08a.348.348,0,1,1,.344.315.283.283,0,0,1-.119-.015,1.09,1.09,0,0,0,1.029.785.876.876,0,0,0,.749-.455,2.026,2.026,0,0,0,.169-.96,2.17,2.17,0,0,0-.126-.882.687.687,0,0,0-.6-.449,1.051,1.051,0,0,0-.9.491c-.028.042-.042.063-.091.063-.1,0-.1-.056-.1-.182V55.718c0-.112,0-.169.07-.169a.209.209,0,0,1,.084.021,2.26,2.26,0,0,0,.932.2,2.32,2.32,0,0,0,.952-.2.1.1,0,0,1,.055-.021.068.068,0,0,1,.071.077,1.529,1.529,0,0,1-1.352.728,2.239,2.239,0,0,1-.6-.091v1.366a1.235,1.235,0,0,1,.89-.357,1.437,1.437,0,0,1,1.331,1.533A1.547,1.547,0,0,1,216.367,60.361Z" transform="translate(-10.488 -3.916)"/></svg>