<?xml version="1.0" encoding="UTF-8"?>
<svg id="Layer_1" data-name="Layer 1" xmlns="http://www.w3.org/2000/svg" viewBox="0 0 445.582 139.248">
  <defs>
    <style>
      .cls-1 {
        stroke-width: .516px;
      }

      .cls-1, .cls-2, .cls-3, .cls-4, .cls-5, .cls-6, .cls-7, .cls-8, .cls-9, .cls-10, .cls-11, .cls-12, .cls-13 {
        stroke: #000;
        stroke-miterlimit: 10;
      }

      .cls-1, .cls-3, .cls-4, .cls-6, .cls-7, .cls-8, .cls-9, .cls-10, .cls-11, .cls-14, .cls-12, .cls-13 {
        fill: none;
      }

      .cls-2, .cls-5 {
        fill: #fff;
      }

      .cls-2, .cls-11 {
        stroke-width: .816px;
      }

      .cls-3 {
        stroke-width: .719px;
      }

      .cls-4 {
        stroke-width: .748px;
      }

      .cls-15 {
        isolation: isolate;
      }

      .cls-5 {
        stroke-width: .756px;
      }

      .cls-6 {
        stroke-width: 1.92px;
      }

      .cls-7 {
        stroke-width: .776px;
      }

      .cls-8 {
        stroke-width: .528px;
      }

      .cls-9 {
        stroke-width: 1.787px;
      }

      .cls-10 {
        stroke-width: .75px;
      }

      .cls-14 {
        stroke: #231f20;
        stroke-miterlimit: 2;
        stroke-width: .582px;
      }

      .cls-12 {
        stroke-width: .633px;
      }

      .cls-13 {
        stroke-width: .68px;
      }
    </style>
  </defs>
  <line class="cls-10" x1="285.865" y1="38.667" x2="427.833" y2="38.667"/>
  <line class="cls-3" x1="223.663" y1="38.667" x2="258.556" y2="38.667"/>
  <rect class="cls-5" x="333.476" y="33.225" width="27.741" height="10.885"/>
  <line class="cls-6" x1="223.665" y1="23.701" x2="223.665" y2="53.634"/>
  <line class="cls-9" x1="427.833" y1="23.701" x2="427.833" y2="53.634"/>
  <line class="cls-7" x1="309.34" y1="123.963" x2="309.34" y2="38.667"/>
  <rect class="cls-2" x="303.896" y="67.445" width="10.884" height="27.74"/>
  <line class="cls-7" x1="385.433" y1="123.963" x2="385.433" y2="38.667"/>
  <rect class="cls-2" x="379.99" y="67.445" width="10.883" height="27.74"/>
  <g>
    <g class="cls-15">
      <path d="m347.311,28.096c.123-.053.314-.138.758-.573.436-.436.832-.772,1.275-.772.383,0,.566.275.566.535,0,.313-.229.481-.436.481-.168,0-.299-.115-.299-.283,0-.008,0-.367.413-.42-.062-.077-.153-.1-.252-.1-.367,0-.711.283-1.132.696-.092.099-.352.359-.635.527.391.054,1.178.191,1.178.818,0,.084-.031.207-.038.237-.038.176-.046.268-.046.367,0,.207.046.375.244.375.359,0,.559-.512.658-.872.03-.137.045-.183.137-.183.055,0,.115.023.115.099,0,.046-.123.504-.306.788-.1.145-.298.382-.62.382-.443,0-.779-.329-.779-.78,0-.039.016-.146.039-.245.015-.077.015-.115.015-.153,0-.436-.513-.581-.933-.627-.084.321-.283,1.131-.359,1.452-.03.107-.092.352-.352.352-.145,0-.252-.107-.252-.237,0-.007,0-.053.03-.168l1.085-4.35c.039-.137.039-.153.039-.176,0-.069,0-.115-.367-.115-.092,0-.199,0-.199-.107,0-.138.076-.145.245-.161l.429-.03c.176-.015.412-.038.443-.038.092,0,.121.068.121.107,0,.007-.022.107-.029.122l-.758,3.05Z"/>
      <path d="m352.674,31.077c-.031.115-.031.153-.031.161,0,.069,0,.115.367.115.092,0,.199,0,.199.107,0,.145-.115.145-.146.145-.061,0-.198-.023-.81-.023h-.405c-.1.008-.275.023-.375.023-.076,0-.114-.061-.114-.107,0-.145.099-.145.19-.145.482-.008.482-.016.598-.459.029-.13.267-1.093.274-1.116-.229.199-.542.421-.925.421-.589,0-1.102-.459-1.102-1.254,0-1.131,1.002-2.194,1.912-2.194.474,0,.703.344.787.512.122-.214.436-.512.527-.512.068,0,.1.061.1.107,0,.038-.008.084-.016.115l-1.031,4.105Zm.26-3.341c.008-.038.022-.092.022-.122,0-.054-.13-.65-.642-.65-.352,0-.727.321-.948.788-.169.336-.375,1.154-.375,1.513,0,.398.177.719.528.719.16,0,.496-.061.894-.527.13-.146.13-.168.161-.283l.359-1.438Z"/>
    </g>
    <g class="cls-15">
      <path d="m345.049,28.425c-.293,1.183-1.371,2.136-2.449,2.136-.649,0-1.109-.387-1.109-.911,0-.513.345-.681.586-.681.104,0,.387.042.387.366,0,.199-.104.335-.209.429-.146.126-.283.126-.45.126.178.408.649.439.796.439.48,0,.879-.304,1.15-.66.42-.555.545-1.067.682-1.612-.293.293-.649.471-1.058.471-.618,0-1.277-.314-1.277-1.246,0-.492.188-1.089.607-2.198.073-.199.178-.471.178-.733,0-.335-.178-.335-.262-.335-.356,0-.774.314-1.058,1.298-.052.168-.062.188-.167.188-.021,0-.126,0-.126-.104,0-.094.388-1.612,1.382-1.612.523,0,.858.387.858.858,0,.209-.041.325-.209.754-.355.921-.534,1.57-.534,2.052,0,.387.115.848.649.848.69,0,1.141-.732,1.183-.89l.472-1.884c.062-.283.135-.565.209-.837.041-.188.125-.513.146-.565.094-.157.262-.22.366-.22.157,0,.304.094.304.283,0,.073,0,.094-.042.241l-1.005,3.999Z"/>
    </g>
  </g>
  <g>
    <g class="cls-15">
      <path d="m401.65,81.248c0,.146,0,.199-.122.199-.054,0-.107-.023-.115-.084-.016-.214-.054-.841-.909-.841-.727,0-.895.321-.895.55,0,.306.359.466.596.52.031,0,.459.076.521.091.909.168,1.131.704,1.131,1.07,0,.505-.336,1.063-1.307,1.063-.199,0-.559-.016-.902-.329-.038.039-.122.138-.161.176-.137.146-.145.153-.19.153-.1,0-.1-.077-.1-.199v-.948c0-.145,0-.207.122-.207.092,0,.1.039.13.138.1.405.321,1.001,1.094,1.001.703,0,.901-.352.901-.65,0-.52-.588-.626-.947-.695-.513-.092-.688-.123-.994-.352-.022-.023-.306-.245-.306-.627,0-.367.237-.948,1.308-.948.344,0,.565.084.688.168.046.03.062.03.069.03.022,0,.092-.069.106-.076.122-.123.146-.123.184-.123.1,0,.1.077.1.199v.719Z"/>
    </g>
    <g class="cls-15">
      <path d="m403.61,81.714c.122-.054.313-.138.757-.573.436-.436.833-.772,1.276-.772.383,0,.565.275.565.535,0,.313-.229.481-.436.481-.168,0-.298-.115-.298-.283,0-.008,0-.367.413-.421-.062-.076-.153-.099-.253-.099-.366,0-.711.283-1.131.696-.092.099-.352.359-.635.527.39.054,1.178.191,1.178.818,0,.084-.031.207-.039.237-.038.176-.046.267-.046.367,0,.207.046.375.245.375.359,0,.558-.512.657-.872.03-.137.046-.183.138-.183.054,0,.114.023.114.099,0,.046-.122.504-.306.788-.099.145-.298.382-.619.382-.443,0-.779-.329-.779-.78,0-.039.015-.146.038-.245.016-.077.016-.115.016-.153,0-.436-.513-.581-.933-.626-.085.321-.283,1.131-.359,1.452-.031.107-.092.352-.352.352-.146,0-.253-.107-.253-.237,0-.007,0-.053.031-.168l1.085-4.35c.038-.137.038-.153.038-.176,0-.069,0-.115-.367-.115-.091,0-.198,0-.198-.107,0-.138.076-.145.244-.161l.429-.03c.176-.015.413-.038.443-.038.092,0,.122.068.122.107,0,.007-.022.107-.03.122l-.757,3.05Z"/>
      <path d="m408.972,84.696c-.03.115-.03.153-.03.161,0,.069,0,.115.367.115.092,0,.198,0,.198.107,0,.145-.114.145-.145.145-.062,0-.199-.023-.811-.023h-.405c-.1.008-.275.023-.375.023-.076,0-.114-.061-.114-.107,0-.145.1-.145.191-.145.481-.008.481-.016.596-.459.031-.13.268-1.093.275-1.116-.229.199-.543.421-.925.421-.589,0-1.101-.459-1.101-1.254,0-1.131,1.001-2.194,1.911-2.194.474,0,.703.344.787.512.122-.214.436-.512.527-.512.069,0,.1.061.1.107,0,.038-.008.084-.016.115l-1.032,4.105Zm.261-3.341c.007-.038.022-.092.022-.122,0-.054-.13-.65-.643-.65-.352,0-.726.321-.947.788-.168.336-.375,1.154-.375,1.514,0,.397.176.718.527.718.161,0,.497-.061.895-.527.13-.146.13-.168.161-.283l.359-1.438Z"/>
    </g>
    <g class="cls-15">
      <path d="m397.869,82.043c-.293,1.183-1.371,2.136-2.449,2.136-.648,0-1.109-.388-1.109-.911,0-.513.346-.681.586-.681.104,0,.388.042.388.367,0,.199-.104.335-.21.429-.146.126-.282.126-.449.126.178.408.648.439.795.439.481,0,.879-.304,1.151-.659.419-.555.545-1.068.681-1.612-.293.293-.649.471-1.058.471-.617,0-1.276-.314-1.276-1.246,0-.492.188-1.089.606-2.198.073-.199.179-.471.179-.733,0-.335-.179-.335-.262-.335-.356,0-.775.314-1.058,1.298-.053.167-.062.188-.168.188-.021,0-.125,0-.125-.104,0-.094.387-1.612,1.382-1.612.523,0,.858.387.858.858,0,.209-.042.324-.21.753-.355.921-.533,1.57-.533,2.052,0,.387.115.848.648.848.691,0,1.142-.732,1.183-.89l.472-1.884c.062-.283.136-.565.209-.837.042-.188.126-.513.146-.565.095-.157.262-.22.366-.22.157,0,.304.094.304.283,0,.073,0,.094-.042.241l-1.005,3.999Z"/>
    </g>
  </g>
  <g>
    <g class="cls-15">
      <path d="m292.977,81.18c0,.146,0,.199-.123.199-.053,0-.107-.023-.115-.084-.015-.214-.053-.841-.91-.841-.726,0-.895.321-.895.55,0,.306.359.466.597.52.03,0,.458.076.52.091.91.168,1.131.704,1.131,1.07,0,.505-.336,1.063-1.307,1.063-.199,0-.558-.016-.902-.329-.039.039-.123.138-.161.176-.138.146-.146.153-.191.153-.1,0-.1-.077-.1-.199v-.948c0-.145,0-.207.122-.207.092,0,.1.039.13.138.099.405.321,1.001,1.093,1.001.704,0,.902-.352.902-.65,0-.52-.589-.626-.948-.695-.512-.092-.688-.123-.994-.352-.023-.022-.306-.244-.306-.626,0-.367.237-.948,1.307-.948.344,0,.566.084.688.168.046.03.062.03.069.03.023,0,.092-.069.107-.076.123-.123.146-.123.184-.123.1,0,.1.077.1.199v.719Z"/>
    </g>
    <g class="cls-15">
      <path d="m294.936,81.646c.122-.053.313-.138.757-.573.436-.436.833-.772,1.276-.772.382,0,.566.275.566.535,0,.313-.229.481-.436.481-.168,0-.298-.115-.298-.283,0-.008,0-.367.413-.42-.061-.077-.153-.1-.252-.1-.367,0-.711.283-1.132.696-.091.099-.352.359-.634.527.39.054,1.177.191,1.177.818,0,.084-.031.207-.038.237-.039.176-.046.268-.046.367,0,.207.046.375.245.375.359,0,.558-.512.657-.872.031-.137.046-.183.138-.183.054,0,.115.023.115.099,0,.046-.123.504-.306.788-.1.145-.298.382-.619.382-.444,0-.78-.329-.78-.78,0-.039.015-.146.038-.245.015-.077.015-.115.015-.153,0-.436-.512-.581-.933-.627-.084.321-.283,1.131-.359,1.452-.03.107-.092.352-.352.352-.145,0-.252-.107-.252-.237,0-.007,0-.053.031-.168l1.085-4.35c.039-.137.039-.153.039-.176,0-.069,0-.115-.367-.115-.092,0-.199,0-.199-.107,0-.138.077-.145.245-.161l.428-.03c.176-.015.413-.038.443-.038.092,0,.122.068.122.107,0,.007-.023.107-.03.122l-.757,3.05Z"/>
      <path d="m300.298,84.628c-.031.115-.031.153-.031.161,0,.069,0,.115.367.115.092,0,.199,0,.199.107,0,.145-.115.145-.146.145-.061,0-.199-.023-.81-.023h-.405c-.1.008-.275.023-.375.023-.077,0-.115-.061-.115-.107,0-.145.099-.145.191-.145.482-.008.482-.016.596-.459.031-.13.268-1.093.275-1.116-.229.199-.542.421-.925.421-.589,0-1.101-.459-1.101-1.254,0-1.131,1.001-2.194,1.911-2.194.474,0,.704.344.788.512.122-.214.436-.512.527-.512.069,0,.1.061.1.107,0,.038-.008.084-.016.115l-1.032,4.105Zm.26-3.341c.008-.038.023-.092.023-.122,0-.054-.13-.65-.642-.65-.352,0-.726.321-.948.788-.168.336-.375,1.154-.375,1.513,0,.398.176.719.528.719.16,0,.497-.061.894-.527.13-.146.13-.168.161-.283l.359-1.438Z"/>
    </g>
    <g class="cls-15">
      <path d="m288.93,82.111c-.293,1.183-1.372,2.136-2.45,2.136-.649,0-1.109-.387-1.109-.911,0-.513.345-.681.586-.681.105,0,.388.042.388.366,0,.199-.105.335-.209.429-.146.126-.283.126-.45.126.178.408.649.439.795.439.481,0,.879-.304,1.151-.66.419-.555.544-1.067.681-1.612-.293.293-.649.471-1.057.471-.618,0-1.277-.314-1.277-1.246,0-.492.188-1.089.607-2.198.073-.199.178-.471.178-.733,0-.335-.178-.335-.262-.335-.356,0-.774.314-1.057,1.298-.052.168-.063.188-.167.188-.021,0-.125,0-.125-.104,0-.094.387-1.612,1.381-1.612.523,0,.858.387.858.858,0,.209-.042.325-.209.754-.356.921-.534,1.57-.534,2.052,0,.387.115.848.649.848.691,0,1.141-.732,1.183-.89l.471-1.884c.062-.283.136-.565.209-.837.042-.188.126-.513.146-.565.094-.157.262-.22.367-.22.157,0,.303.094.303.283,0,.073,0,.094-.042.241l-1.005,3.999Z"/>
    </g>
  </g>
  <g class="cls-15">
    <path d="m222.65,18.746c.438-.173.887-.634,1.279-1.071.829-.922,1.359-1.014,1.682-1.014.519,0,.784.38.784.726,0,.449-.334.703-.634.703-.311,0-.438-.219-.438-.403,0-.138.104-.587.657-.622-.023-.023-.023-.034-.046-.046-.092-.069-.104-.069-.242-.092-.023-.011-.034-.011-.104-.011-.564,0-1.094.495-1.647,1.106-.265.276-.634.645-.991.853.979.126,1.705.46,1.705,1.209,0,.115,0,.161-.046.357-.046.185-.092.449-.092.646,0,.415.15.541.369.541.507,0,.772-.587,1.002-1.428.034-.161.046-.208.161-.208.035,0,.138,0,.138.115,0,.023-.127.657-.415,1.164-.254.426-.565.611-.91.611-.599,0-1.06-.461-1.06-1.141,0-.127.023-.265.046-.403.035-.115.035-.161.035-.242,0-.76-.944-.944-1.336-.979-.069.288-.587,2.419-.645,2.523-.069.138-.242.242-.392.242-.104,0-.334-.058-.334-.323,0-.069,0-.092.046-.253l1.67-6.636.035-.23c0-.115-.023-.196-.576-.196-.173,0-.276,0-.276-.138,0-.208.127-.219.219-.23.3-.023,1.141-.115,1.406-.115.149,0,.149.115.149.126l-1.198,4.862Z"/>
  </g>
  <g class="cls-15">
    <path d="m428.843,21.208c-.022.104-.046.173-.046.253,0,.104,0,.185.553.185.185,0,.3,0,.3.126,0,.23-.149.23-.207.23-.381,0-.795-.035-1.187-.035-.381,0-.784.035-1.152.035-.149,0-.149-.115-.149-.126,0-.23.114-.23.265-.23.645-.012.737-.058.829-.38.035-.104.415-1.659.519-2.062-.415.415-.864.691-1.359.691-.841,0-1.521-.714-1.521-1.843,0-1.671,1.417-3.375,2.776-3.375.368,0,.818.184,1.071.806.196-.334.656-.795.783-.795.081,0,.115.069.115.115l-1.59,6.405Zm-.138-2.626c.034-.046.668-2.569.668-2.638,0-.081-.161-1.014-.91-1.014-.473,0-1.071.484-1.429,1.336-.195.484-.53,1.74-.53,2.293,0,.196.047,1.083.737,1.083.646,0,1.291-.737,1.464-1.06Z"/>
  </g>
  <g>
    <line class="cls-1" x1="227.879" y1="32.809" x2="252.005" y2="32.809"/>
    <polygon points="250.555 34.718 251.368 32.809 250.555 30.898 255.084 32.809 250.555 34.718"/>
  </g>
  <g>
    <line class="cls-8" x1="398.273" y1="32.809" x2="422.333" y2="32.809"/>
    <polygon points="399.755 34.765 398.927 32.809 399.755 30.852 395.119 32.809 399.755 34.765"/>
  </g>
  <g>
    <circle class="cls-11" cx="268.079" cy="38.667" r="9.524"/>
    <circle class="cls-11" cx="276.565" cy="38.667" r="9.524"/>
  </g>
  <line class="cls-4" x1="320.224" y1="123.963" x2="298.453" y2="123.963"/>
  <line class="cls-13" x1="316.142" y1="126.986" x2="302.535" y2="126.986"/>
  <line class="cls-12" x1="312.057" y1="130.009" x2="306.613" y2="130.009"/>
  <line class="cls-4" x1="396.193" y1="123.963" x2="374.419" y2="123.963"/>
  <line class="cls-13" x1="392.109" y1="126.986" x2="378.503" y2="126.986"/>
  <line class="cls-12" x1="388.023" y1="130.009" x2="382.581" y2="130.009"/>
  <g>
    <g class="cls-15">
      <path d="m241.177,28.017c.274-.114.496-.322.777-.59.342-.315.69-.589,1.072-.589.355,0,.516.248.516.469,0,.282-.201.429-.382.429-.154,0-.268-.1-.268-.248,0-.101.06-.328.348-.375-.054-.067-.141-.087-.221-.087-.375,0-.71.315-1.051.636-.114.101-.362.322-.556.442.281.02,1.085.114,1.085.71,0,.074-.026.188-.033.208-.041.174-.041.188-.041.302,0,.181.054.348.235.348.328,0,.509-.476.589-.764.033-.127.04-.161.134-.161.02,0,.107,0,.107.087,0,.007-.201,1.025-.851,1.025-.322,0-.71-.214-.71-.69,0-.074,0-.107.027-.208.014-.067.014-.101.014-.134,0-.348-.382-.502-.857-.549-.027.094-.315,1.272-.329,1.299-.04.147-.127.281-.308.281-.147,0-.228-.114-.228-.214,0-.013,0-.027.033-.147l.945-3.791c.013-.061.027-.101.027-.147,0-.054,0-.101-.322-.101-.08,0-.174,0-.174-.094,0-.141.094-.147.147-.154.167-.013.724-.067.857-.067.081,0,.107.061.107.094,0,.007-.02.094-.027.107l-.663,2.673Z"/>
      <path d="m246.319,30.622c-.034.114-.034.127-.034.147,0,.081.181.081.328.081.081,0,.174,0,.174.094,0,.127-.074.147-.134.147-.208,0-.489-.026-.716-.026s-.476.026-.697.026c-.067,0-.101-.053-.101-.094,0-.147.094-.147.174-.147.415-.007.422-.014.516-.382.027-.114.234-.958.241-.978-.147.127-.462.368-.844.368-.576,0-1.011-.462-1.011-1.112,0-.965.871-1.909,1.728-1.909.429,0,.65.308.717.442.134-.214.416-.442.482-.442.06,0,.087.054.087.094,0,.034-.006.074-.013.101l-.897,3.59Zm.201-2.914c.007-.026.02-.067.02-.1,0-.067-.127-.583-.596-.583-.188,0-.529.101-.837.636-.154.268-.348,1.005-.348,1.36,0,.476.241.65.489.65.261,0,.576-.181.837-.489.087-.107.087-.121.121-.235l.315-1.239Z"/>
    </g>
    <g class="cls-15">
      <path d="m237.835,27.66c-.019.067-.038.144-.038.22,0,.105.038.144.239.163.191.02.239.02.411.02.211,0,.287,0,.287.115,0,.182-.115.182-.191.182-.287,0-.995-.029-1.282-.029-.277,0-.976.029-1.253.029-.029,0-.144,0-.144-.105,0-.191.086-.191.306-.191.756,0,.785-.096.871-.45l1.292-5.157c.02-.086.02-.105.02-.153,0-.182-.258-.182-.66-.182-.182,0-.268,0-.268-.105,0-.191.125-.191.191-.191.287,0,.985.029,1.272.029.277,0,.985-.029,1.263-.029.039,0,.144,0,.144.115,0,.182-.077.182-.306.182-.756,0-.785.096-.871.44l-1.282,5.1Z"/>
    </g>
    <g class="cls-15">
      <path d="m237.349,20.591v-.296h3.454v.296h-3.454Z"/>
    </g>
  </g>
  <g>
    <g class="cls-15">
      <path d="m413.34,29.927c-.033.114-.033.127-.033.147,0,.081.181.081.328.081.08,0,.174,0,.174.094,0,.127-.073.147-.134.147-.207,0-.488-.026-.717-.026s-.476.026-.696.026c-.067,0-.101-.053-.101-.094,0-.147.094-.147.174-.147.416-.007.422-.014.517-.382.026-.114.234-.958.24-.978-.146.127-.462.368-.844.368-.576,0-1.012-.462-1.012-1.112,0-.965.871-1.909,1.729-1.909.429,0,.649.308.717.442.134-.214.415-.442.482-.442.061,0,.087.054.087.094,0,.034-.007.074-.014.101l-.897,3.59Zm.201-2.914c.007-.026.021-.067.021-.1,0-.067-.128-.583-.597-.583-.188,0-.529.101-.837.636-.154.268-.349,1.005-.349,1.36,0,.476.241.65.489.65.261,0,.576-.181.837-.489.087-.107.087-.121.121-.235l.314-1.239Z"/>
      <path d="m415.763,27.321c.274-.114.496-.322.777-.59.341-.315.689-.589,1.071-.589.355,0,.516.248.516.469,0,.282-.201.429-.382.429-.153,0-.268-.1-.268-.248,0-.101.061-.328.349-.375-.054-.067-.141-.087-.222-.087-.375,0-.71.315-1.052.636-.113.101-.361.322-.556.442.281.02,1.085.114,1.085.71,0,.074-.026.188-.033.208-.04.174-.04.188-.04.302,0,.181.054.348.234.348.328,0,.509-.476.589-.764.034-.127.041-.161.135-.161.02,0,.106,0,.106.087,0,.007-.2,1.025-.851,1.025-.321,0-.71-.214-.71-.69,0-.074,0-.107.027-.208.013-.067.013-.101.013-.134,0-.348-.382-.502-.857-.549-.026.094-.314,1.272-.328,1.299-.04.147-.127.281-.308.281-.147,0-.229-.114-.229-.214,0-.013,0-.027.034-.147l.944-3.791c.014-.061.026-.101.026-.147,0-.054,0-.101-.321-.101-.08,0-.174,0-.174-.094,0-.141.094-.147.147-.154.167-.013.723-.067.857-.067.08,0,.106.061.106.094,0,.007-.02.094-.026.107l-.663,2.673Z"/>
    </g>
    <g class="cls-15">
      <path d="m408.92,26.964c-.019.067-.038.144-.038.22,0,.105.038.144.239.163.191.02.239.02.411.02.211,0,.287,0,.287.115,0,.182-.114.182-.191.182-.287,0-.995-.029-1.282-.029-.277,0-.976.029-1.253.029-.028,0-.144,0-.144-.105,0-.191.086-.191.307-.191.756,0,.784-.096.87-.45l1.292-5.157c.019-.086.019-.105.019-.153,0-.182-.258-.182-.66-.182-.182,0-.268,0-.268-.105,0-.191.124-.191.191-.191.287,0,.985.029,1.272.029.277,0,.985-.029,1.263-.029.038,0,.144,0,.144.115,0,.182-.076.182-.306.182-.756,0-.785.096-.871.44l-1.282,5.1Z"/>
    </g>
    <g class="cls-15">
      <path d="m408.435,19.894v-.296h3.454v.296h-3.454Z"/>
    </g>
  </g>
  <g>
    <g>
      <path d="m280.236,24.683c.274-.114.496-.322.777-.59.342-.315.69-.589,1.072-.589.355,0,.516.248.516.469,0,.282-.201.429-.382.429-.154,0-.268-.1-.268-.248,0-.101.06-.328.348-.375-.054-.067-.141-.087-.221-.087-.375,0-.71.315-1.051.636-.114.101-.362.322-.556.442.281.02,1.085.114,1.085.71,0,.074-.026.188-.033.208-.041.174-.041.188-.041.302,0,.181.054.348.235.348.328,0,.509-.476.589-.764.033-.127.04-.161.134-.161.02,0,.107,0,.107.087,0,.007-.201,1.025-.851,1.025-.322,0-.71-.214-.71-.69,0-.074,0-.107.027-.208.014-.067.014-.101.014-.134,0-.348-.382-.502-.857-.549-.027.094-.315,1.272-.329,1.299-.04.147-.127.281-.308.281-.147,0-.228-.114-.228-.214,0-.013,0-.027.033-.147l.945-3.791c.013-.061.027-.101.027-.147,0-.054,0-.101-.322-.101-.08,0-.174,0-.174-.094,0-.141.094-.147.147-.154.167-.013.724-.067.857-.067.081,0,.107.061.107.094,0,.007-.02.094-.027.107l-.663,2.673Z"/>
      <path d="m285.378,27.288c-.034.114-.034.127-.034.147,0,.081.181.081.328.081.081,0,.174,0,.174.094,0,.127-.074.147-.134.147-.208,0-.489-.026-.716-.026s-.476.026-.697.026c-.067,0-.101-.053-.101-.094,0-.147.094-.147.174-.147.415-.007.422-.014.516-.382.027-.114.234-.958.241-.978-.147.127-.462.368-.844.368-.576,0-1.011-.462-1.011-1.112,0-.965.871-1.909,1.728-1.909.429,0,.65.308.717.442.134-.214.416-.442.482-.442.06,0,.087.054.087.094,0,.034-.006.074-.013.101l-.897,3.59Zm.201-2.914c.007-.026.02-.067.02-.1,0-.067-.127-.583-.596-.583-.188,0-.529.101-.837.636-.154.268-.348,1.005-.348,1.36,0,.476.241.65.489.65.261,0,.576-.181.837-.489.087-.107.087-.121.121-.235l.315-1.239Z"/>
    </g>
    <path d="m277.248,23.36c.45-.564.766-1.292.938-1.895.048-.172.048-.201.144-.201.105,0,.115.076.115.096,0,.009-.201,1.119-1.1,2.248-.096.115-.096.134-.096.335,0,.229,0,.976.297.976.019,0,.363,0,.536-.469.029-.067.057-.096.125-.096.057,0,.115.029.115.096,0,.153-.297.68-.804.68-.431,0-.746-.297-.871-.804-.727.583-1.416.804-2.019.804-.976,0-1.55-.728-1.55-1.617,0-1.349,1.263-2.717,2.574-2.717.708,0,1.598.469,1.598,1.971v.593Zm-.66-.354c0-.747,0-2-.947-2-.334,0-.851.182-1.301.88-.306.488-.555,1.521-.555,1.99,0,.612.287,1.042.861,1.042.382,0,1.119-.105,1.961-.842-.019-.163-.019-.717-.019-1.071Z"/>
    <g>
      <path d="m262.746,24.269c0,.354.028.459.89.459h.306v.296c-.335-.029-1.167-.029-1.55-.029s-1.215,0-1.55.029v-.296h.306c.861,0,.89-.115.89-.459v-4.956c-.498.249-1.062.249-1.253.249v-.296c.306,0,1.148,0,1.741-.612.22,0,.22.019.22.249v5.367Z"/>
      <path d="m268.695,21.915c-.278,0-.507-.229-.507-.507s.229-.507.507-.507.507.229.507.507-.229.507-.507.507Zm0,3.109c-.278,0-.507-.229-.507-.507s.229-.507.507-.507.507.229.507.507-.229.507-.507.507Z"/>
    </g>
  </g>
  <line class="cls-10" x1="81.673" y1="38.568" x2="223.642" y2="38.568"/>
  <line class="cls-3" x1="19.472" y1="38.568" x2="54.364" y2="38.568"/>
  <rect class="cls-5" x="129.285" y="33.126" width="27.74" height="10.885"/>
  <line class="cls-6" x1="19.474" y1="23.601" x2="19.474" y2="53.535"/>
  <line class="cls-7" x1="105.148" y1="123.865" x2="105.148" y2="38.568"/>
  <rect class="cls-2" x="99.705" y="67.346" width="10.884" height="27.741"/>
  <line class="cls-7" x1="181.242" y1="123.865" x2="181.242" y2="38.568"/>
  <rect class="cls-2" x="175.798" y="67.346" width="10.883" height="27.741"/>
  <g>
    <g class="cls-15">
      <path d="m142.685,27.546c.015-.061.046-.245.046-.321,0-.184-.054-.359-.245-.359-.313,0-.451.436-.551.826-.053.199-.061.229-.16.229-.062,0-.115-.031-.115-.1,0-.023.084-.413.26-.757.122-.237.313-.413.589-.413.076,0,.588,0,.749.542.222-.229.588-.542,1.047-.542.611,0,1.101.497,1.101,1.253,0,1.108-.979,2.194-1.918,2.194-.413,0-.65-.275-.75-.451-.229.895-.367,1.437-.367,1.491,0,.069,0,.115.367.115.092,0,.199,0,.199.107,0,.145-.115.145-.145.145-.054,0-.214-.023-.765-.023-.565,0-.596.023-.673.023-.038,0-.107-.038-.107-.107,0-.145.092-.145.199-.145.306,0,.321-.062.382-.306l.856-3.402Zm.183,1.567c-.007.023-.023.107-.023.122,0,.054.123.65.643.65.359,0,.726-.336.925-.749.229-.451.397-1.269.397-1.552,0-.344-.145-.719-.527-.719-.275,0-.604.176-.895.52-.115.137-.115.153-.153.283l-.367,1.445Z"/>
      <path d="m146.992,27.997c.122-.053.313-.138.757-.573.436-.436.833-.772,1.276-.772.382,0,.566.275.566.535,0,.313-.229.481-.436.481-.168,0-.298-.115-.298-.283,0-.008,0-.367.413-.42-.061-.077-.153-.1-.252-.1-.367,0-.711.283-1.132.696-.091.099-.352.359-.634.527.39.054,1.177.191,1.177.818,0,.084-.031.207-.038.237-.039.176-.046.268-.046.367,0,.207.046.375.245.375.359,0,.558-.512.657-.872.031-.137.046-.183.138-.183.054,0,.115.023.115.099,0,.046-.123.504-.306.788-.1.145-.298.382-.62.382-.443,0-.779-.329-.779-.78,0-.039.015-.146.038-.245.015-.077.015-.115.015-.153,0-.436-.512-.581-.933-.627-.084.321-.283,1.131-.359,1.452-.03.107-.092.352-.352.352-.145,0-.252-.107-.252-.237,0-.007,0-.053.031-.168l1.085-4.35c.038-.137.038-.153.038-.176,0-.069,0-.115-.367-.115-.092,0-.199,0-.199-.107,0-.138.076-.145.245-.161l.428-.03c.176-.015.413-.038.443-.038.092,0,.122.068.122.107,0,.007-.023.107-.03.122l-.757,3.05Z"/>
    </g>
    <g class="cls-15">
      <path d="m140.644,28.326c-.293,1.183-1.372,2.136-2.45,2.136-.649,0-1.109-.387-1.109-.911,0-.513.345-.681.586-.681.105,0,.388.042.388.366,0,.199-.105.335-.209.429-.146.126-.283.126-.45.126.178.408.649.439.795.439.481,0,.879-.304,1.151-.66.419-.555.544-1.067.681-1.612-.293.293-.649.471-1.057.471-.618,0-1.277-.314-1.277-1.246,0-.492.188-1.089.607-2.198.073-.199.178-.471.178-.733,0-.335-.178-.335-.262-.335-.356,0-.774.314-1.057,1.298-.052.168-.063.188-.167.188-.021,0-.125,0-.125-.104,0-.094.387-1.612,1.381-1.612.523,0,.858.387.858.858,0,.209-.042.325-.209.754-.356.921-.534,1.57-.534,2.052,0,.387.115.848.649.848.691,0,1.141-.732,1.183-.89l.471-1.884c.062-.283.136-.565.209-.837.042-.188.126-.513.146-.565.094-.157.262-.22.367-.22.157,0,.303.094.303.283,0,.073,0,.094-.042.241l-1.005,3.999Z"/>
    </g>
  </g>
  <g>
    <g class="cls-15">
      <path d="m197.458,81.149c0,.146,0,.199-.122.199-.054,0-.107-.023-.115-.084-.016-.214-.054-.841-.909-.841-.727,0-.895.321-.895.55,0,.306.359.466.596.52.031,0,.459.076.521.091.909.168,1.131.704,1.131,1.07,0,.505-.336,1.063-1.307,1.063-.199,0-.559-.016-.902-.329-.038.039-.122.138-.161.176-.137.146-.145.153-.19.153-.1,0-.1-.077-.1-.199v-.948c0-.145,0-.207.122-.207.092,0,.1.039.13.138.1.405.321,1.001,1.094,1.001.703,0,.901-.352.901-.65,0-.52-.588-.626-.947-.695-.513-.092-.688-.123-.994-.352-.022-.023-.306-.245-.306-.627,0-.367.237-.948,1.308-.948.344,0,.565.084.688.168.046.03.062.03.069.03.022,0,.092-.069.106-.076.122-.123.146-.123.184-.123.1,0,.1.077.1.199v.719Z"/>
    </g>
    <g class="cls-15">
      <path d="m199.196,81.164c.015-.061.046-.245.046-.321,0-.184-.054-.359-.245-.359-.313,0-.451.436-.55.826-.054.199-.062.229-.161.229-.061,0-.114-.031-.114-.1,0-.023.084-.413.26-.757.122-.237.313-.413.589-.413.076,0,.589,0,.749.542.222-.229.589-.542,1.047-.542.612,0,1.102.497,1.102,1.253,0,1.108-.979,2.194-1.919,2.194-.413,0-.65-.275-.749-.451-.229.895-.367,1.437-.367,1.491,0,.069,0,.115.367.115.092,0,.198,0,.198.107,0,.145-.114.145-.146.145-.053,0-.214-.023-.764-.023-.566,0-.597.023-.673.023-.038,0-.107-.038-.107-.107,0-.145.092-.145.199-.145.306,0,.32-.062.382-.306l.856-3.402Zm.184,1.567c-.008.023-.023.107-.023.122,0,.054.122.65.643.65.359,0,.726-.336.925-.749.229-.451.397-1.269.397-1.552,0-.344-.146-.719-.527-.719-.275,0-.604.176-.895.52-.114.137-.114.153-.153.283l-.366,1.445Z"/>
      <path d="m203.504,81.615c.122-.054.313-.138.757-.573.436-.436.833-.772,1.276-.772.383,0,.565.275.565.535,0,.313-.229.481-.436.481-.168,0-.298-.115-.298-.283,0-.008,0-.367.413-.421-.062-.076-.153-.099-.253-.099-.366,0-.711.283-1.131.696-.092.099-.352.359-.635.527.39.054,1.178.191,1.178.818,0,.084-.031.207-.039.237-.038.176-.046.267-.046.367,0,.207.046.375.245.375.359,0,.558-.512.657-.872.03-.137.046-.183.138-.183.054,0,.114.023.114.099,0,.046-.122.504-.306.788-.099.145-.298.382-.619.382-.443,0-.779-.329-.779-.78,0-.039.015-.146.038-.245.016-.077.016-.115.016-.153,0-.436-.513-.581-.933-.626-.085.321-.283,1.131-.359,1.452-.031.107-.092.352-.352.352-.146,0-.253-.107-.253-.237,0-.007,0-.053.031-.168l1.085-4.35c.038-.137.038-.153.038-.176,0-.069,0-.115-.367-.115-.091,0-.198,0-.198-.107,0-.138.076-.145.244-.161l.429-.03c.176-.015.413-.038.443-.038.092,0,.122.068.122.107,0,.007-.022.107-.03.122l-.757,3.05Z"/>
    </g>
    <g class="cls-15">
      <path d="m193.677,81.945c-.293,1.183-1.371,2.136-2.449,2.136-.648,0-1.109-.388-1.109-.911,0-.513.346-.681.586-.681.104,0,.388.042.388.367,0,.199-.104.335-.21.429-.146.126-.282.126-.449.126.178.408.648.439.795.439.481,0,.879-.304,1.151-.659.419-.555.545-1.068.681-1.612-.293.293-.649.471-1.058.471-.617,0-1.276-.314-1.276-1.246,0-.492.188-1.089.606-2.198.073-.199.179-.471.179-.733,0-.335-.179-.335-.262-.335-.356,0-.775.314-1.058,1.298-.053.167-.062.188-.168.188-.021,0-.125,0-.125-.104,0-.094.387-1.612,1.382-1.612.523,0,.858.387.858.858,0,.209-.042.324-.21.753-.355.921-.533,1.57-.533,2.052,0,.387.115.848.648.848.691,0,1.142-.732,1.183-.89l.472-1.884c.062-.283.136-.565.209-.837.042-.188.126-.513.146-.565.095-.157.262-.22.366-.22.157,0,.304.094.304.283,0,.073,0,.094-.042.241l-1.005,3.999Z"/>
    </g>
  </g>
  <g>
    <g class="cls-15">
      <path d="m86.801,81.081c0,.146,0,.199-.123.199-.053,0-.107-.023-.115-.084-.015-.214-.053-.841-.91-.841-.726,0-.895.321-.895.55,0,.306.359.466.597.52.03,0,.458.076.52.091.91.168,1.131.704,1.131,1.07,0,.505-.336,1.063-1.307,1.063-.199,0-.558-.016-.902-.329-.039.039-.123.138-.161.176-.138.146-.146.153-.191.153-.1,0-.1-.077-.1-.199v-.948c0-.145,0-.207.122-.207.092,0,.1.039.13.138.099.405.321,1.001,1.093,1.001.704,0,.902-.352.902-.65,0-.52-.589-.626-.948-.695-.512-.092-.688-.123-.994-.352-.023-.022-.306-.244-.306-.626,0-.367.237-.948,1.307-.948.344,0,.566.084.688.168.046.03.062.03.069.03.023,0,.092-.069.107-.076.123-.123.146-.123.184-.123.1,0,.1.077.1.199v.719Z"/>
    </g>
    <g class="cls-15">
      <path d="m88.539,81.096c.015-.061.046-.245.046-.321,0-.184-.054-.359-.245-.359-.313,0-.451.436-.551.826-.053.199-.061.229-.16.229-.062,0-.115-.031-.115-.1,0-.023.084-.413.26-.757.123-.237.313-.413.589-.413.076,0,.588,0,.749.542.222-.229.588-.542,1.047-.542.611,0,1.101.497,1.101,1.253,0,1.108-.979,2.194-1.918,2.194-.413,0-.65-.275-.75-.451-.229.895-.367,1.437-.367,1.491,0,.069,0,.115.367.115.092,0,.199,0,.199.107,0,.145-.115.145-.145.145-.054,0-.214-.023-.765-.023-.565,0-.596.023-.673.023-.038,0-.107-.038-.107-.107,0-.145.092-.145.199-.145.306,0,.321-.062.382-.306l.856-3.402Zm.183,1.567c-.007.023-.023.107-.023.122,0,.054.123.65.643.65.359,0,.726-.336.925-.749.229-.451.397-1.269.397-1.552,0-.344-.145-.719-.527-.719-.275,0-.604.176-.895.52-.115.137-.115.153-.153.283l-.367,1.445Z"/>
      <path d="m92.846,81.548c.122-.053.313-.138.757-.573.436-.436.833-.772,1.276-.772.382,0,.566.275.566.535,0,.313-.229.481-.436.481-.168,0-.298-.115-.298-.283,0-.008,0-.367.413-.42-.061-.077-.153-.1-.252-.1-.367,0-.711.283-1.132.696-.091.099-.352.359-.634.527.39.054,1.177.191,1.177.818,0,.084-.031.207-.038.237-.039.176-.046.268-.046.367,0,.207.046.375.245.375.359,0,.558-.512.657-.872.031-.137.046-.183.138-.183.054,0,.115.023.115.099,0,.046-.123.504-.306.788-.1.145-.298.382-.619.382-.444,0-.78-.329-.78-.78,0-.039.015-.146.038-.245.015-.077.015-.115.015-.153,0-.436-.512-.581-.933-.627-.084.321-.283,1.131-.359,1.452-.03.107-.092.352-.352.352-.145,0-.252-.107-.252-.237,0-.007,0-.053.031-.168l1.085-4.35c.039-.137.039-.153.039-.176,0-.069,0-.115-.367-.115-.092,0-.199,0-.199-.107,0-.138.077-.145.245-.161l.428-.03c.176-.015.413-.038.443-.038.092,0,.122.068.122.107,0,.007-.023.107-.03.122l-.757,3.05Z"/>
    </g>
    <g class="cls-15">
      <path d="m82.754,82.012c-.293,1.183-1.372,2.136-2.45,2.136-.649,0-1.109-.387-1.109-.911,0-.513.345-.681.586-.681.105,0,.388.042.388.366,0,.199-.105.335-.209.429-.146.126-.283.126-.45.126.178.408.649.439.795.439.481,0,.879-.304,1.151-.66.419-.555.544-1.067.681-1.612-.293.293-.649.471-1.057.471-.618,0-1.277-.314-1.277-1.246,0-.492.188-1.089.607-2.198.073-.199.178-.471.178-.733,0-.335-.178-.335-.262-.335-.356,0-.774.314-1.057,1.298-.052.168-.063.188-.167.188-.021,0-.125,0-.125-.104,0-.094.387-1.612,1.381-1.612.523,0,.858.387.858.858,0,.209-.042.325-.209.754-.356.921-.534,1.57-.534,2.052,0,.387.115.848.649.848.691,0,1.141-.732,1.183-.89l.471-1.884c.062-.283.136-.565.209-.837.042-.188.126-.513.146-.565.094-.157.262-.22.367-.22.157,0,.303.094.303.283,0,.073,0,.094-.042.241l-1.005,3.999Z"/>
    </g>
  </g>
  <g class="cls-15">
    <path d="m18.726,15.765c.046-.196.081-.322.081-.587,0-.438-.161-.53-.357-.53-.415,0-.645.553-.841,1.371-.069.253-.081.265-.196.265-.023,0-.139,0-.139-.115,0-.035.15-.726.357-1.118.104-.207.322-.656.853-.656.426,0,.921.242,1.037.864.38-.449.933-.864,1.509-.864.875,0,1.532.76,1.532,1.843,0,1.693-1.44,3.375-2.776,3.375-.587,0-.91-.403-1.06-.737-.081.288-.564,2.166-.564,2.304,0,.104,0,.185.576.185.161,0,.276,0,.276.126,0,.23-.15.23-.208.23-.369,0-.76-.035-1.14-.035-.323,0-.657.035-.968.035-.092,0-.15-.046-.15-.138,0-.219.127-.219.265-.219.507,0,.53-.081.622-.473l1.29-5.126Zm.173,2.385c-.035.138-.035.161-.035.185,0,.069.15,1.025.91,1.025.426,0,.979-.38,1.371-1.187.208-.438.587-1.763.587-2.442s-.276-1.083-.737-1.083c-.196,0-.53.081-.933.438-.208.173-.519.496-.599.807l-.564,2.258Z"/>
  </g>
  <g>
    <line class="cls-1" x1="23.687" y1="32.71" x2="47.813" y2="32.71"/>
    <polygon points="46.363 34.619 47.177 32.71 46.363 30.799 50.892 32.71 46.363 34.619"/>
  </g>
  <g>
    <line class="cls-8" x1="194.081" y1="32.71" x2="218.142" y2="32.71"/>
    <polygon points="195.564 34.666 194.736 32.71 195.564 30.753 190.927 32.71 195.564 34.666"/>
  </g>
  <g>
    <circle class="cls-11" cx="63.888" cy="38.568" r="9.524"/>
    <circle class="cls-11" cx="72.374" cy="38.568" r="9.524"/>
  </g>
  <line class="cls-4" x1="116.033" y1="123.865" x2="94.262" y2="123.865"/>
  <line class="cls-13" x1="111.951" y1="126.887" x2="98.344" y2="126.887"/>
  <line class="cls-12" x1="107.865" y1="129.911" x2="102.422" y2="129.911"/>
  <line class="cls-4" x1="192.001" y1="123.865" x2="170.228" y2="123.865"/>
  <line class="cls-13" x1="187.917" y1="126.887" x2="174.312" y2="126.887"/>
  <line class="cls-12" x1="183.831" y1="129.911" x2="178.39" y2="129.911"/>
  <g>
    <g class="cls-15">
      <path d="m36.818,27.455c.007-.04.02-.127.02-.201,0-.181-.047-.328-.221-.328-.261,0-.388.335-.489.724-.047.181-.054.201-.147.201-.02,0-.114,0-.114-.087,0-.04.107-.442.241-.67.107-.181.268-.355.529-.355.201,0,.576.087.69.469.181-.188.536-.469.952-.469.462,0,1.004.335,1.004,1.119,0,.998-.904,1.902-1.721,1.902-.402,0-.61-.261-.69-.395-.074.281-.167.643-.248.998-.027.101-.074.274-.074.308,0,.081.181.081.328.081.081,0,.174,0,.174.094,0,.127-.074.147-.134.147-.221,0-.476-.026-.704-.026-.181,0-.402.026-.576.026-.033,0-.094-.026-.094-.1,0-.141.094-.141.181-.141.268,0,.281-.054.328-.241l.764-3.055Zm.167,1.434c-.007.027-.02.074-.02.101,0,.067.121.583.596.583.341,0,.669-.321.837-.65.201-.388.349-1.072.349-1.346,0-.456-.228-.65-.489-.65-.214,0-.549.101-.938.616l-.335,1.347Z"/>
      <path d="m40.922,27.918c.274-.114.496-.322.777-.59.342-.315.69-.589,1.072-.589.355,0,.516.248.516.469,0,.282-.201.429-.382.429-.154,0-.268-.1-.268-.248,0-.101.06-.328.348-.375-.054-.067-.141-.087-.221-.087-.375,0-.71.315-1.051.636-.114.101-.362.322-.556.442.281.02,1.085.114,1.085.71,0,.074-.026.188-.033.208-.041.174-.041.188-.041.302,0,.181.054.348.235.348.328,0,.509-.476.589-.764.033-.127.04-.161.134-.161.02,0,.107,0,.107.087,0,.007-.201,1.025-.851,1.025-.322,0-.71-.214-.71-.69,0-.074,0-.107.027-.208.014-.067.014-.101.014-.134,0-.348-.382-.502-.857-.549-.027.094-.315,1.272-.329,1.299-.04.147-.127.281-.308.281-.147,0-.228-.114-.228-.214,0-.013,0-.027.033-.147l.945-3.791c.013-.061.027-.101.027-.147,0-.054,0-.101-.322-.101-.08,0-.174,0-.174-.094,0-.141.094-.147.147-.154.167-.013.724-.067.857-.067.081,0,.107.061.107.094,0,.007-.02.094-.027.107l-.663,2.673Z"/>
    </g>
    <g class="cls-15">
      <path d="m33.644,27.561c-.019.067-.038.144-.038.22,0,.105.038.144.239.163.191.02.239.02.411.02.211,0,.287,0,.287.115,0,.182-.115.182-.191.182-.287,0-.995-.029-1.282-.029-.277,0-.976.029-1.253.029-.029,0-.144,0-.144-.105,0-.191.086-.191.306-.191.756,0,.785-.096.871-.45l1.292-5.157c.02-.086.02-.105.02-.153,0-.182-.258-.182-.66-.182-.182,0-.268,0-.268-.105,0-.191.125-.191.191-.191.287,0,.985.029,1.272.029.277,0,.985-.029,1.263-.029.039,0,.144,0,.144.115,0,.182-.077.182-.306.182-.756,0-.785.096-.871.44l-1.282,5.1Z"/>
    </g>
    <g class="cls-15">
      <path d="m33.157,20.493v-.296h3.454v.296h-3.454Z"/>
    </g>
  </g>
  <g>
    <g class="cls-15">
      <path d="m208.07,27.223c.274-.114.495-.322.777-.59.341-.315.689-.589,1.071-.589.355,0,.516.248.516.469,0,.282-.201.429-.382.429-.153,0-.268-.1-.268-.248,0-.101.061-.328.349-.375-.054-.067-.141-.087-.222-.087-.375,0-.71.315-1.052.636-.113.101-.361.322-.556.442.281.02,1.085.114,1.085.71,0,.074-.026.188-.033.208-.04.174-.04.188-.04.302,0,.181.054.348.234.348.328,0,.509-.476.589-.764.034-.127.041-.161.135-.161.02,0,.106,0,.106.087,0,.007-.2,1.025-.851,1.025-.321,0-.71-.214-.71-.69,0-.074,0-.107.027-.208.013-.067.013-.101.013-.134,0-.348-.382-.502-.857-.549-.026.094-.314,1.272-.328,1.299-.04.147-.127.281-.308.281-.147,0-.229-.114-.229-.214,0-.013,0-.027.034-.147l.944-3.791c.014-.061.026-.101.026-.147,0-.054,0-.101-.321-.101-.08,0-.174,0-.174-.094,0-.141.094-.147.147-.154.167-.013.723-.067.857-.067.08,0,.106.061.106.094,0,.007-.02.094-.026.107l-.663,2.673Z"/>
      <path d="m211.966,26.76c.007-.04.021-.127.021-.201,0-.181-.047-.328-.221-.328-.262,0-.389.335-.489.724-.047.181-.054.201-.147.201-.021,0-.114,0-.114-.087,0-.04.107-.442.241-.67.107-.181.269-.355.529-.355.201,0,.576.087.69.469.181-.188.535-.469.951-.469.462,0,1.005.335,1.005,1.119,0,.998-.904,1.902-1.722,1.902-.402,0-.609-.261-.69-.395-.073.281-.167.643-.247.998-.027.101-.074.274-.074.308,0,.081.181.081.328.081.08,0,.174,0,.174.094,0,.127-.073.147-.134.147-.221,0-.476-.026-.703-.026-.181,0-.401.026-.576.026-.033,0-.094-.026-.094-.1,0-.141.094-.141.181-.141.269,0,.281-.054.328-.241l.764-3.055Zm.168,1.434c-.007.027-.021.074-.021.101,0,.067.121.583.597.583.342,0,.67-.321.837-.65.201-.388.349-1.072.349-1.346,0-.456-.228-.65-.489-.65-.214,0-.549.101-.938.616l-.335,1.347Z"/>
    </g>
    <g class="cls-15">
      <path d="m204.728,26.865c-.019.067-.038.144-.038.22,0,.105.038.144.239.163.191.02.239.02.411.02.211,0,.287,0,.287.115,0,.182-.114.182-.191.182-.287,0-.995-.029-1.282-.029-.277,0-.976.029-1.253.029-.028,0-.144,0-.144-.105,0-.191.086-.191.307-.191.756,0,.784-.096.87-.45l1.292-5.157c.019-.086.019-.105.019-.153,0-.182-.258-.182-.66-.182-.182,0-.268,0-.268-.105,0-.191.124-.191.191-.191.287,0,.985.029,1.272.029.277,0,.985-.029,1.263-.029.038,0,.144,0,.144.115,0,.182-.076.182-.306.182-.756,0-.785.096-.871.44l-1.282,5.1Z"/>
    </g>
    <g class="cls-15">
      <path d="m204.243,19.796v-.296h3.454v.296h-3.454Z"/>
    </g>
  </g>
  <g>
    <g>
      <path d="m75.877,24.121c.007-.04.02-.127.02-.201,0-.181-.047-.328-.221-.328-.261,0-.388.335-.489.724-.047.181-.054.201-.147.201-.02,0-.114,0-.114-.087,0-.04.107-.442.241-.67.107-.181.268-.355.529-.355.201,0,.576.087.69.469.181-.188.536-.469.952-.469.462,0,1.004.335,1.004,1.119,0,.998-.904,1.902-1.721,1.902-.402,0-.61-.261-.69-.395-.074.281-.167.643-.248.998-.027.101-.074.274-.074.308,0,.081.181.081.328.081.081,0,.174,0,.174.094,0,.127-.074.147-.134.147-.221,0-.476-.026-.704-.026-.181,0-.402.026-.576.026-.033,0-.094-.026-.094-.1,0-.141.094-.141.181-.141.268,0,.281-.054.328-.241l.764-3.055Zm.167,1.434c-.007.027-.02.074-.02.101,0,.067.121.583.596.583.341,0,.669-.321.837-.65.201-.388.349-1.072.349-1.346,0-.456-.228-.65-.489-.65-.214,0-.549.101-.938.616l-.335,1.347Z"/>
      <path d="m79.981,24.584c.274-.114.496-.322.777-.59.342-.315.69-.589,1.072-.589.355,0,.516.248.516.469,0,.282-.201.429-.382.429-.154,0-.268-.1-.268-.248,0-.101.06-.328.348-.375-.054-.067-.141-.087-.221-.087-.375,0-.71.315-1.051.636-.114.101-.362.322-.556.442.281.02,1.085.114,1.085.71,0,.074-.026.188-.033.208-.041.174-.041.188-.041.302,0,.181.054.348.235.348.328,0,.509-.476.589-.764.033-.127.04-.161.134-.161.02,0,.107,0,.107.087,0,.007-.201,1.025-.851,1.025-.322,0-.71-.214-.71-.69,0-.074,0-.107.027-.208.014-.067.014-.101.014-.134,0-.348-.382-.502-.857-.549-.027.094-.315,1.272-.329,1.299-.04.147-.127.281-.308.281-.147,0-.228-.114-.228-.214,0-.013,0-.027.033-.147l.945-3.791c.013-.061.027-.101.027-.147,0-.054,0-.101-.322-.101-.08,0-.174,0-.174-.094,0-.141.094-.147.147-.154.167-.013.724-.067.857-.067.081,0,.107.061.107.094,0,.007-.02.094-.027.107l-.663,2.673Z"/>
    </g>
    <path d="m73.056,23.262c.45-.564.766-1.292.938-1.895.048-.172.048-.201.144-.201.105,0,.115.076.115.096,0,.009-.201,1.119-1.1,2.248-.096.115-.096.134-.096.335,0,.229,0,.976.297.976.019,0,.363,0,.536-.469.029-.067.057-.096.125-.096.057,0,.115.029.115.096,0,.153-.297.68-.804.68-.431,0-.746-.297-.871-.804-.727.583-1.416.804-2.019.804-.976,0-1.55-.728-1.55-1.617,0-1.349,1.263-2.717,2.574-2.717.708,0,1.598.469,1.598,1.971v.593Zm-.66-.354c0-.747,0-2-.947-2-.334,0-.851.182-1.301.88-.306.488-.555,1.521-.555,1.99,0,.612.287,1.042.861,1.042.382,0,1.119-.105,1.961-.842-.019-.163-.019-.717-.019-1.071Z"/>
    <g>
      <path d="m58.555,24.17c0,.354.028.459.89.459h.306v.296c-.335-.029-1.167-.029-1.55-.029s-1.215,0-1.55.029v-.296h.306c.861,0,.89-.115.89-.459v-4.956c-.498.249-1.062.249-1.253.249v-.296c.306,0,1.148,0,1.741-.612.22,0,.22.019.22.249v5.367Z"/>
      <path d="m64.503,21.817c-.278,0-.507-.229-.507-.507s.229-.507.507-.507.507.229.507.507-.229.507-.507.507Zm0,3.109c-.278,0-.507-.229-.507-.507s.229-.507.507-.507.507.229.507.507-.229.507-.507.507Z"/>
    </g>
  </g>
  <polyline class="cls-7" points="243.153 123.675 243.153 45.737 224.453 45.737"/>
  <rect class="cls-2" x="237.71" y="70.833" width="10.884" height="27.746"/>
  <g>
    <path d="m265.686,85.532c.286-.119.516-.335.809-.614.355-.327.718-.613,1.116-.613.37,0,.537.258.537.488,0,.293-.209.446-.397.446-.16,0-.279-.104-.279-.258,0-.104.063-.342.363-.391-.056-.07-.146-.091-.23-.091-.391,0-.739.328-1.095.662-.118.104-.376.335-.579.461.293.021,1.13.118,1.13.738,0,.077-.028.195-.035.217-.042.181-.042.195-.042.313,0,.188.056.362.244.362.342,0,.53-.495.614-.795.035-.132.042-.167.14-.167.021,0,.111,0,.111.091,0,.007-.209,1.066-.886,1.066-.334,0-.739-.223-.739-.718,0-.077,0-.111.028-.216.014-.07.014-.105.014-.14,0-.363-.397-.523-.893-.572-.028.098-.328,1.325-.341,1.354-.042.153-.133.292-.321.292-.154,0-.237-.118-.237-.223,0-.014,0-.028.035-.153l.983-3.947c.014-.062.028-.104.028-.153,0-.056,0-.104-.334-.104-.084,0-.182,0-.182-.098,0-.146.098-.153.154-.16.174-.014.753-.07.893-.07.083,0,.111.063.111.098,0,.008-.021.098-.028.112l-.69,2.782Z"/>
    <g>
      <path d="m259.279,85.1c0,.133,0,.182-.119.182-.028,0-.112,0-.119-.077-.014-.202-.049-.767-.858-.767-.662,0-.851.271-.851.495,0,.369.453.453,1.011.551.244.042.565.098.83.342.182.167.3.376.3.642,0,.495-.334.982-1.241.982-.167,0-.544-.014-.851-.3-.14.153-.272.3-.334.3-.098,0-.098-.062-.098-.181v-.858c0-.139,0-.188.118-.188.098,0,.105.027.125.118.126.475.37.913,1.039.913s.858-.32.858-.592c0-.468-.565-.565-.914-.628-.432-.07-.697-.119-.962-.349-.167-.14-.265-.321-.265-.544,0-.349.237-.872,1.234-.872.258,0,.523.042.732.188.042-.035.111-.098.125-.104.091-.084.104-.084.14-.084.098,0,.098.063.098.182v.648Z"/>
      <path d="m263.38,86.829c0,.3.07.3.523.3v.251c-.063-.007-.544-.028-.802-.028-.293,0-.781.028-.795.028v-.251c.453,0,.523,0,.523-.3v-1.59c0-.355-.063-.739-.551-.739-.46,0-1.039.342-1.039,1.074v1.255c0,.3.07.3.523.3v.251c-.063-.007-.544-.028-.802-.028-.293,0-.781.028-.795.028v-.251c.453,0,.523,0,.523-.3v-3.57c0-.342-.056-.391-.523-.391v-.251l1.046-.077v2.399h.007c.153-.266.495-.635,1.116-.635.746,0,1.046.355,1.046.962v1.562Z"/>
    </g>
    <path d="m255.638,85.897c-.279,1.126-1.305,2.033-2.332,2.033-.618,0-1.056-.369-1.056-.867,0-.488.329-.647.558-.647.1,0,.369.04.369.349,0,.189-.1.318-.199.408-.14.12-.269.12-.428.12.169.389.618.418.757.418.458,0,.837-.289,1.096-.628.398-.527.518-1.016.647-1.534-.279.279-.618.448-1.006.448-.588,0-1.215-.299-1.215-1.186,0-.468.179-1.036.578-2.093.07-.188.169-.448.169-.697,0-.318-.169-.318-.249-.318-.339,0-.737.299-1.006,1.235-.05.159-.06.18-.159.18-.02,0-.12,0-.12-.101,0-.089.369-1.534,1.315-1.534.499,0,.817.369.817.817,0,.199-.04.309-.199.717-.339.877-.508,1.495-.508,1.953,0,.369.109.808.618.808.658,0,1.086-.697,1.126-.847l.448-1.794c.06-.27.13-.538.199-.797.04-.18.12-.488.14-.538.09-.149.249-.21.349-.21.149,0,.289.09.289.27,0,.069,0,.09-.04.229l-.957,3.806Z"/>
  </g>
  <g>
    <line class="cls-1" x1="234.089" y1="81.181" x2="234.089" y2="57.055"/>
    <polygon points="235.998 58.505 234.089 57.692 232.178 58.505 234.089 53.976 235.998 58.505"/>
  </g>
  <g>
    <path d="m228.513,69.867c.286-.119.516-.335.809-.614.355-.327.718-.613,1.116-.613.37,0,.537.258.537.488,0,.293-.209.446-.397.446-.16,0-.279-.104-.279-.258,0-.104.063-.342.363-.391-.056-.07-.146-.091-.23-.091-.391,0-.739.328-1.095.662-.118.104-.376.335-.579.461.293.021,1.13.118,1.13.738,0,.077-.028.195-.035.217-.042.181-.042.195-.042.313,0,.188.056.362.244.362.342,0,.53-.495.614-.795.035-.132.042-.167.14-.167.021,0,.111,0,.111.091,0,.007-.209,1.066-.885,1.066-.335,0-.739-.223-.739-.718,0-.077,0-.111.028-.216.014-.07.014-.105.014-.14,0-.363-.397-.523-.893-.572-.028.098-.328,1.325-.341,1.354-.042.153-.133.292-.321.292-.154,0-.237-.118-.237-.223,0-.014,0-.028.035-.153l.983-3.947c.014-.062.028-.104.028-.153,0-.056,0-.104-.334-.104-.084,0-.182,0-.182-.098,0-.146.098-.153.154-.16.174-.014.753-.07.893-.07.083,0,.111.063.111.098,0,.008-.021.098-.028.112l-.69,2.782Z"/>
    <g>
      <path d="m222.107,69.434c0,.133,0,.182-.119.182-.028,0-.112,0-.119-.077-.014-.202-.049-.767-.858-.767-.662,0-.851.271-.851.495,0,.369.453.453,1.011.551.244.042.565.098.83.342.182.167.3.376.3.642,0,.495-.334.982-1.241.982-.167,0-.544-.014-.851-.3-.14.153-.272.3-.334.3-.098,0-.098-.062-.098-.181v-.858c0-.139,0-.188.118-.188.098,0,.105.027.125.118.126.475.37.913,1.039.913s.858-.32.858-.592c0-.468-.565-.565-.914-.628-.432-.07-.697-.119-.962-.349-.167-.14-.265-.321-.265-.544,0-.349.237-.872,1.234-.872.258,0,.523.042.732.188.042-.035.111-.098.125-.104.091-.084.104-.084.14-.084.098,0,.098.063.098.182v.648Z"/>
      <path d="m226.208,71.163c0,.3.07.3.523.3v.251c-.063-.007-.544-.028-.802-.028-.293,0-.781.028-.795.028v-.251c.453,0,.523,0,.523-.3v-1.59c0-.355-.063-.739-.551-.739-.46,0-1.039.342-1.039,1.074v1.255c0,.3.07.3.523.3v.251c-.063-.007-.544-.028-.802-.028-.293,0-.781.028-.795.028v-.251c.453,0,.523,0,.523-.3v-3.57c0-.342-.056-.391-.523-.391v-.251l1.046-.077v2.399h.007c.153-.266.495-.635,1.116-.635.746,0,1.046.355,1.046.962v1.562Z"/>
    </g>
    <path d="m217.476,69.493c-.02.07-.04.149-.04.229,0,.109.04.149.249.169.199.021.249.021.428.021.219,0,.299,0,.299.119,0,.189-.12.189-.199.189-.299,0-1.037-.03-1.335-.03-.289,0-1.016.03-1.305.03-.03,0-.149,0-.149-.109,0-.199.089-.199.319-.199.787,0,.817-.1.907-.469l1.345-5.37c.02-.09.02-.11.02-.16,0-.188-.269-.188-.688-.188-.189,0-.279,0-.279-.11,0-.199.129-.199.199-.199.299,0,1.026.03,1.325.03.289,0,1.026-.03,1.315-.03.04,0,.149,0,.149.12,0,.189-.08.189-.319.189-.787,0-.817.1-.907.458l-1.335,5.311Z"/>
    <path d="m216.97,62.131v-.309h3.597v.309h-3.597Z"/>
  </g>
  <g>
    <line class="cls-4" x1="254.037" y1="123.868" x2="232.267" y2="123.868"/>
    <line class="cls-13" x1="249.956" y1="126.891" x2="236.349" y2="126.891"/>
    <line class="cls-12" x1="245.876" y1="130.092" x2="240.433" y2="130.092"/>
  </g>
  <rect class="cls-14" x=".291" y=".291" width="445.001" height="138.666" rx="4" ry="4"/>
</svg>