<?xml version="1.0" encoding="UTF-8"?>
<svg id="Layer_1" data-name="Layer 1" xmlns="http://www.w3.org/2000/svg" viewBox="0 0 343.317 144.067">
  <defs>
    <style>
      .cls-1 {
        stroke-width: .516px;
      }

      .cls-1, .cls-2, .cls-3, .cls-4, .cls-5, .cls-6, .cls-7, .cls-8, .cls-9, .cls-10, .cls-11, .cls-12, .cls-13, .cls-14, .cls-15, .cls-16, .cls-17, .cls-18, .cls-19, .cls-20 {
        stroke: #000;
        stroke-miterlimit: 10;
      }

      .cls-1, .cls-3, .cls-4, .cls-5, .cls-8, .cls-9, .cls-10, .cls-11, .cls-12, .cls-13, .cls-14, .cls-15, .cls-16, .cls-17, .cls-18, .cls-19, .cls-20 {
        fill: none;
      }

      .cls-21 {
        stroke: #231f20;
        stroke-miterlimit: 2;
        stroke-width: .567px;
      }

      .cls-21, .cls-2, .cls-6 {
        fill: #fff;
      }

      .cls-2, .cls-16 {
        stroke-width: .816px;
      }

      .cls-3 {
        stroke-width: .719px;
      }

      .cls-4 {
        stroke-width: .821px;
      }

      .cls-5 {
        stroke-width: .748px;
      }

      .cls-22 {
        isolation: isolate;
      }

      .cls-6 {
        stroke-width: .756px;
      }

      .cls-7 {
        stroke-width: .72px;
      }

      .cls-8 {
        stroke-dasharray: 0 0 .992 .992;
      }

      .cls-8, .cls-12, .cls-19 {
        stroke-width: .544px;
      }

      .cls-9 {
        stroke-width: 1.92px;
      }

      .cls-10 {
        stroke-width: .776px;
      }

      .cls-11 {
        stroke-width: .528px;
      }

      .cls-13 {
        stroke-width: 1.787px;
      }

      .cls-14 {
        stroke-width: .516px;
      }

      .cls-15 {
        stroke-width: .523px;
      }

      .cls-17 {
        stroke-width: .633px;
      }

      .cls-18 {
        stroke-width: .519px;
      }

      .cls-19 {
        stroke-dasharray: 0 0 .991 .991;
      }

      .cls-20 {
        stroke-width: .68px;
      }
    </style>
  </defs>
  <path class="cls-21" d="m5.953.283h331.411c3.129,0,5.669,2.54,5.669,5.669v132.161c0,3.129-2.54,5.669-5.669,5.669H5.952c-3.129,0-5.669-2.54-5.669-5.669V5.953C.283,2.824,2.824.283,5.953.283Z"/>
  <line class="cls-4" x1="117.834" y1="40.225" x2="287.946" y2="40.225"/>
  <line class="cls-3" x1="55.407" y1="40.225" x2="90.3" y2="40.225"/>
  <rect class="cls-6" x="193.678" y="34.783" width="27.74" height="10.885"/>
  <line class="cls-9" x1="55.409" y1="25.259" x2="55.409" y2="55.192"/>
  <line class="cls-13" x1="287.946" y1="25.259" x2="287.946" y2="55.192"/>
  <line class="cls-10" x1="169.453" y1="125.522" x2="169.453" y2="40.225"/>
  <rect class="cls-2" x="164.01" y="69.003" width="10.884" height="27.742"/>
  <line class="cls-10" x1="245.546" y1="125.522" x2="245.546" y2="40.225"/>
  <rect class="cls-2" x="240.102" y="69.003" width="10.883" height="27.742"/>
  <g>
    <g class="cls-22">
      <path d="m208.239,29.187c.077-.229.085-.336.085-.413,0-.214-.077-.252-.184-.252-.229,0-.581.207-.795.933-.023.077-.031.123-.13.123-.062,0-.115-.031-.115-.1,0-.1.321-1.169,1.062-1.169.39,0,.696.268.696.649,0,.13-.092.367-.161.543l-.237.619c-.084.207-.16.413-.236.619-.1.237-.153.375-.153.558,0,.207.092.245.184.245.306,0,.619-.313.795-.925.023-.077.038-.13.13-.13.054,0,.115.023.115.099,0,.1-.313,1.17-1.056,1.17-.404,0-.695-.275-.695-.65,0-.13.038-.222.076-.336l.413-1.055.206-.527Zm.489-1.865c-.176,0-.298-.123-.298-.291,0-.229.222-.413.421-.413.176,0,.298.122.298.29,0,.229-.222.413-.421.413Z"/>
      <path d="m211.912,29.202c.022-.107.045-.214.045-.321,0-.252-.091-.359-.252-.359-.382,0-.771.39-1.001.917-.054.115-.062.138-.146.138-.062,0-.114-.031-.114-.1,0-.1.474-1.169,1.284-1.169.443,0,.779.298.779.718,0,.115-.016.176-.038.268l-.688,2.737c-.229.917-1.069,1.208-1.536,1.208-.436,0-.719-.191-.719-.481,0-.252.207-.444.429-.444.16,0,.298.1.298.283,0,.069-.03.275-.268.39.015.008.13.039.252.039.467,0,.841-.497.956-.963l.719-2.859Zm.45-1.88c-.183,0-.298-.146-.298-.291,0-.199.199-.413.428-.413.184,0,.299.145.299.29,0,.199-.199.413-.429.413Z"/>
    </g>
    <g class="cls-22">
      <path d="m206.085,29.983c-.294,1.183-1.372,2.136-2.45,2.136-.648,0-1.109-.387-1.109-.911,0-.513.346-.681.586-.681.105,0,.388.042.388.366,0,.199-.104.335-.209.429-.146.126-.283.126-.45.126.178.408.648.439.795.439.481,0,.88-.304,1.151-.66.419-.555.545-1.067.681-1.612-.293.293-.648.471-1.057.471-.618,0-1.277-.314-1.277-1.246,0-.492.188-1.089.607-2.198.073-.199.178-.471.178-.733,0-.335-.178-.335-.262-.335-.356,0-.774.314-1.058,1.298-.052.168-.062.188-.167.188-.021,0-.126,0-.126-.104,0-.094.388-1.612,1.382-1.612.523,0,.858.387.858.858,0,.209-.042.325-.209.754-.356.921-.534,1.57-.534,2.052,0,.387.115.848.648.848.691,0,1.142-.732,1.184-.89l.471-1.884c.062-.283.136-.565.209-.837.042-.188.126-.513.146-.565.095-.157.262-.22.367-.22.156,0,.303.094.303.283,0,.073,0,.094-.041.241l-1.005,3.999Z"/>
    </g>
  </g>
  <g>
    <g class="cls-22">
      <path d="m261.763,82.768c0,.146,0,.199-.122.199-.054,0-.107-.023-.115-.084-.016-.214-.054-.841-.909-.841-.727,0-.895.321-.895.55,0,.306.359.466.596.52.031,0,.459.076.521.091.909.168,1.131.704,1.131,1.07,0,.505-.336,1.063-1.307,1.063-.199,0-.559-.016-.902-.329-.038.039-.122.138-.161.176-.137.146-.145.153-.19.153-.1,0-.1-.077-.1-.199v-.948c0-.145,0-.207.122-.207.092,0,.1.039.13.138.1.405.321,1.002,1.094,1.002.703,0,.901-.352.901-.65,0-.52-.588-.626-.947-.695-.513-.092-.688-.123-.994-.352-.022-.023-.306-.245-.306-.627,0-.367.237-.948,1.308-.948.344,0,.565.084.688.168.046.03.062.03.069.03.022,0,.092-.069.106-.076.122-.123.146-.123.184-.123.1,0,.1.077.1.199v.719Z"/>
    </g>
    <g class="cls-22">
      <path d="m263.615,82.768c.077-.229.084-.336.084-.413,0-.214-.076-.252-.184-.252-.229,0-.58.207-.795.933-.022.077-.03.123-.13.123-.061,0-.114-.031-.114-.1,0-.1.321-1.169,1.062-1.169.39,0,.695.268.695.649,0,.13-.092.367-.16.543l-.237.619c-.084.207-.16.413-.236.62-.1.236-.153.374-.153.558,0,.206.092.245.184.245.306,0,.619-.314.795-.925.022-.077.038-.13.13-.13.054,0,.115.023.115.099,0,.1-.313,1.17-1.056,1.17-.405,0-.695-.275-.695-.649,0-.131.038-.223.076-.337l.413-1.055.206-.527Zm.489-1.865c-.176,0-.298-.123-.298-.291,0-.229.222-.413.42-.413.177,0,.299.122.299.291,0,.229-.222.413-.421.413Z"/>
      <path d="m267.287,82.783c.022-.107.046-.214.046-.321,0-.252-.092-.359-.253-.359-.382,0-.771.39-1.001.917-.054.115-.062.138-.146.138-.061,0-.114-.031-.114-.1,0-.1.474-1.169,1.284-1.169.443,0,.779.298.779.718,0,.115-.015.176-.038.268l-.688,2.736c-.229.918-1.07,1.209-1.537,1.209-.436,0-.719-.191-.719-.482,0-.252.207-.443.429-.443.16,0,.298.1.298.283,0,.068-.03.275-.268.39.016.008.13.038.252.038.467,0,.842-.496.956-.963l.719-2.859Zm.451-1.88c-.184,0-.299-.146-.299-.291,0-.199.199-.413.429-.413.184,0,.298.145.298.291,0,.199-.199.413-.428.413Z"/>
    </g>
    <g class="cls-22">
      <path d="m257.981,83.564c-.293,1.183-1.371,2.136-2.449,2.136-.648,0-1.109-.388-1.109-.91,0-.514.346-.681.586-.681.104,0,.388.042.388.367,0,.199-.104.335-.21.429-.146.126-.282.126-.449.126.178.408.648.439.795.439.481,0,.879-.304,1.151-.659.419-.555.545-1.068.681-1.612-.293.293-.649.471-1.058.471-.617,0-1.276-.314-1.276-1.246,0-.492.188-1.089.606-2.198.073-.199.179-.471.179-.733,0-.335-.179-.335-.262-.335-.356,0-.775.314-1.058,1.298-.053.167-.062.188-.168.188-.021,0-.125,0-.125-.104,0-.094.387-1.612,1.382-1.612.523,0,.858.387.858.858,0,.209-.042.324-.21.753-.355.921-.533,1.57-.533,2.052,0,.387.115.848.648.848.691,0,1.142-.732,1.183-.89l.472-1.884c.062-.283.136-.565.209-.837.042-.188.126-.513.146-.565.095-.157.262-.22.366-.22.157,0,.304.094.304.283,0,.073,0,.094-.042.241l-1.005,3.999Z"/>
    </g>
  </g>
  <g>
    <line class="cls-12" x1="29.635" y1="40.225" x2="30.115" y2="40.225"/>
    <line class="cls-8" x1="31.108" y1="40.225" x2="54.431" y2="40.225"/>
    <line class="cls-12" x1="54.929" y1="40.225" x2="55.409" y2="40.225"/>
  </g>
  <path class="cls-7" d="m29.443,38.783c.796,0,1.442.646,1.442,1.442s-.646,1.442-1.442,1.442-1.443-.646-1.443-1.442.646-1.442,1.443-1.442Z"/>
  <g>
    <line class="cls-18" x1="29.443" y1="43.549" x2="29.443" y2="121.091"/>
    <polygon points="27.519 119.632 29.443 120.448 31.366 119.632 29.443 124.19 27.519 119.632"/>
  </g>
  <g class="cls-22">
    <path d="m23.935,37.384v1.918h1.845v.49h-1.845v1.935h-.522v-1.935h-1.845v-.49h1.845v-1.918h.522Z"/>
  </g>
  <g>
    <line class="cls-12" x1="313.673" y1="40.225" x2="313.194" y2="40.225"/>
    <line class="cls-19" x1="312.204" y1="40.225" x2="288.921" y2="40.225"/>
    <line class="cls-12" x1="288.427" y1="40.225" x2="287.946" y2="40.225"/>
  </g>
  <path class="cls-7" d="m313.868,38.786c.795,0,1.439.645,1.439,1.439s-.645,1.44-1.439,1.44-1.441-.645-1.441-1.44.644-1.439,1.441-1.439Z"/>
  <g>
    <line class="cls-18" x1="313.868" y1="43.549" x2="313.868" y2="121.091"/>
    <polygon points="311.942 119.632 313.868 120.448 315.788 119.632 313.868 124.19 311.942 119.632"/>
  </g>
  <g class="cls-22">
    <path d="m320.72,37.384v1.918h1.846v.49h-1.846v1.935h-.522v-1.935h-1.845v-.49h1.845v-1.918h.522Z"/>
  </g>
  <g>
    <g class="cls-22">
      <path d="m154.79,82.701c0,.146,0,.199-.123.199-.053,0-.107-.023-.115-.084-.015-.214-.053-.841-.91-.841-.726,0-.895.321-.895.55,0,.306.359.466.597.52.03,0,.458.076.52.091.91.168,1.131.704,1.131,1.07,0,.505-.336,1.063-1.307,1.063-.199,0-.558-.016-.902-.33-.039.039-.123.139-.161.176-.138.146-.146.154-.191.154-.1,0-.1-.077-.1-.199v-.948c0-.145,0-.207.122-.207.092,0,.1.039.13.138.099.406.321,1.001,1.093,1.001.704,0,.902-.352.902-.65,0-.519-.589-.626-.948-.695-.512-.092-.688-.123-.994-.352-.023-.022-.306-.244-.306-.626,0-.367.237-.948,1.307-.948.344,0,.566.084.688.168.046.03.062.03.069.03.023,0,.092-.069.107-.076.123-.123.146-.123.184-.123.1,0,.1.077.1.199v.719Z"/>
    </g>
    <g class="cls-22">
      <path d="m156.642,82.701c.077-.229.084-.336.084-.413,0-.214-.077-.252-.184-.252-.229,0-.581.207-.795.933-.023.077-.031.123-.13.123-.062,0-.115-.031-.115-.1,0-.1.321-1.169,1.062-1.169.39,0,.696.268.696.649,0,.13-.092.367-.161.543l-.237.619c-.084.207-.161.413-.237.619-.099.237-.153.375-.153.559,0,.206.092.244.184.244.306,0,.619-.313.795-.925.023-.077.038-.13.13-.13.054,0,.115.023.115.099,0,.1-.313,1.17-1.055,1.17-.405,0-.695-.275-.695-.65,0-.13.038-.222.076-.336l.413-1.055.206-.527Zm.489-1.865c-.176,0-.298-.123-.298-.291,0-.229.222-.413.42-.413.176,0,.298.122.298.29,0,.229-.222.413-.421.413Z"/>
      <path d="m160.315,82.716c.023-.107.046-.214.046-.321,0-.252-.092-.359-.252-.359-.382,0-.772.39-1.001.917-.054.115-.061.138-.146.138-.061,0-.114-.031-.114-.1,0-.1.474-1.169,1.284-1.169.443,0,.78.298.78.718,0,.115-.016.176-.039.268l-.688,2.737c-.229.917-1.07,1.208-1.537,1.208-.436,0-.718-.191-.718-.481,0-.253.207-.444.428-.444.16,0,.298.1.298.283,0,.069-.03.275-.268.391.016.008.13.038.252.038.466,0,.841-.497.956-.964l.719-2.859Zm.451-1.88c-.183,0-.298-.146-.298-.291,0-.199.199-.413.428-.413.184,0,.298.145.298.29,0,.199-.199.413-.428.413Z"/>
    </g>
    <g class="cls-22">
      <path d="m150.744,83.632c-.293,1.183-1.372,2.136-2.45,2.136-.649,0-1.109-.388-1.109-.911,0-.513.345-.681.586-.681.105,0,.388.042.388.366,0,.199-.105.335-.209.429-.146.127-.283.127-.45.127.178.408.649.439.795.439.481,0,.879-.305,1.151-.66.419-.555.544-1.067.681-1.612-.293.293-.649.471-1.057.471-.618,0-1.277-.314-1.277-1.246,0-.492.188-1.089.607-2.198.073-.199.178-.471.178-.733,0-.335-.178-.335-.262-.335-.356,0-.774.314-1.057,1.298-.052.168-.063.188-.167.188-.021,0-.125,0-.125-.104,0-.094.387-1.612,1.381-1.612.523,0,.858.387.858.858,0,.209-.042.325-.209.754-.356.921-.534,1.57-.534,2.052,0,.387.115.848.649.848.691,0,1.141-.732,1.183-.89l.471-1.884c.062-.283.136-.565.209-.837.042-.188.126-.513.146-.565.094-.157.262-.22.367-.22.157,0,.303.094.303.283,0,.073,0,.094-.042.241l-1.005,3.999Z"/>
    </g>
  </g>
  <g class="cls-22">
    <path d="m55.389,21.552c-.265.703-.334.864-.334,1.152,0,.265.081.38.276.38.588,0,.968-.703,1.175-1.428.058-.173.058-.208.173-.208.035,0,.138,0,.138.115,0,.104-.426,1.774-1.509,1.774-.553,0-.944-.403-.944-.945,0-.242.149-.622.265-.922.185-.495.703-1.832.795-2.131.046-.115.127-.357.127-.599,0-.369-.196-.369-.288-.369-.392,0-.853.345-1.164,1.428-.058.185-.069.208-.185.208-.023,0-.138,0-.138-.115,0-.104.438-1.774,1.521-1.774.576,0,.944.426.944.944,0,.219-.058.38-.149.611-.115.311-.115.334-.253.668l-.45,1.209Zm.714-4.931c-.276,0-.438-.196-.438-.415,0-.311.311-.61.622-.61.265,0,.426.184.426.415,0,.346-.346.61-.611.61Z"/>
  </g>
  <g class="cls-22">
    <path d="m288.964,16.77c.046-.196.081-.322.081-.587,0-.484-.208-.53-.369-.53-.634,0-1.163.703-1.451,1.405-.093.219-.104.23-.208.23-.022,0-.138,0-.138-.115,0-.104.656-1.774,1.832-1.774.575,0,1.06.403,1.06,1.06,0,.035,0,.196-.058.426l-1.06,4.216c-.288,1.141-1.359,1.751-2.166,1.751-.553,0-1.014-.253-1.014-.714,0-.415.334-.657.622-.657.311,0,.438.219.438.403,0,.23-.173.53-.519.61.207.104.38.104.449.104.646,0,1.198-.657,1.417-1.532l1.083-4.297Zm.61-2.869c-.265,0-.426-.184-.426-.415,0-.346.346-.61.61-.61.276,0,.438.196.438.415,0,.311-.311.61-.622.61Z"/>
  </g>
  <g>
    <line class="cls-1" x1="59.623" y1="34.367" x2="83.749" y2="34.367"/>
    <polygon points="82.299 36.276 83.112 34.367 82.299 32.456 86.828 34.367 82.299 36.276"/>
  </g>
  <g>
    <line class="cls-11" x1="258.386" y1="34.367" x2="282.446" y2="34.367"/>
    <polygon points="259.868 36.323 259.04 34.367 259.868 32.41 255.231 34.367 259.868 36.323"/>
  </g>
  <g>
    <circle class="cls-16" cx="99.823" cy="40.225" r="9.524" transform="translate(-7.795 41.263) rotate(-22.5)"/>
    <circle class="cls-16" cx="108.309" cy="40.225" r="9.524"/>
  </g>
  <path class="cls-7" d="m136.594,38.786c.795,0,1.439.645,1.439,1.439s-.644,1.44-1.439,1.44-1.44-.645-1.44-1.44.645-1.439,1.44-1.439Z"/>
  <g>
    <line class="cls-15" x1="136.594" y1="42.443" x2="136.594" y2="121.069"/>
    <polygon points="134.657 119.598 136.594 120.423 138.528 119.598 136.594 124.19 134.657 119.598"/>
  </g>
  <line class="cls-5" x1="147.44" y1="125.522" x2="125.671" y2="125.522"/>
  <line class="cls-20" x1="143.358" y1="128.546" x2="129.752" y2="128.546"/>
  <line class="cls-17" x1="139.274" y1="131.569" x2="133.831" y2="131.569"/>
  <g>
    <line class="cls-14" x1="126.408" y1="34.37" x2="150.54" y2="34.37"/>
    <polygon points="149.089 36.283 149.9 34.37 149.089 32.457 153.622 34.37 149.089 36.283"/>
  </g>
  <line class="cls-5" x1="40.328" y1="125.522" x2="18.557" y2="125.522"/>
  <line class="cls-20" x1="36.246" y1="128.546" x2="22.64" y2="128.546"/>
  <line class="cls-17" x1="32.161" y1="131.569" x2="26.718" y2="131.569"/>
  <line class="cls-5" x1="180.337" y1="125.522" x2="158.566" y2="125.522"/>
  <line class="cls-20" x1="176.256" y1="128.546" x2="162.648" y2="128.546"/>
  <line class="cls-17" x1="172.17" y1="131.569" x2="166.726" y2="131.569"/>
  <line class="cls-5" x1="256.305" y1="125.522" x2="234.532" y2="125.522"/>
  <line class="cls-20" x1="252.221" y1="128.546" x2="238.616" y2="128.546"/>
  <line class="cls-17" x1="248.136" y1="131.569" x2="242.694" y2="131.569"/>
  <line class="cls-5" x1="324.831" y1="125.522" x2="303.061" y2="125.522"/>
  <line class="cls-20" x1="320.751" y1="128.546" x2="307.141" y2="128.546"/>
  <line class="cls-17" x1="316.665" y1="131.569" x2="311.22" y2="131.569"/>
  <g>
    <g class="cls-22">
      <path d="m25.255,86.722c.167-.415.208-.516.208-.67,0-.181-.061-.234-.167-.234-.248,0-.542.241-.717.817-.02.074-.027.107-.121.107-.02,0-.114,0-.114-.087,0-.114.308-1.025.971-1.025.369,0,.636.254.636.569,0,.067-.02.147-.04.214-.027.081-.268.69-.328.851-.074.174-.147.355-.214.536-.061.147-.107.274-.107.429,0,.147.034.234.167.234.261,0,.556-.274.71-.811.027-.074.034-.114.127-.114.02,0,.107,0,.107.087,0,.101-.295,1.025-.965,1.025-.368,0-.636-.254-.636-.569,0-.114.033-.194.06-.281l.422-1.079Zm.569-1.956c-.181,0-.268-.141-.268-.254,0-.194.194-.369.375-.369.188,0,.268.147.268.255,0,.181-.181.368-.375.368Z"/>
    </g>
    <g class="cls-22">
      <path d="m21.015,87.188c-.077.125-.115.172-.268.172-.124,0-.163-.029-.191-.22l-.756-5.903c-.029-.239-.039-.325-.574-.325-.153,0-.239,0-.239-.115,0-.182.115-.182.182-.182.163,0,.344.02.517.02s.354.009.526.009c.393,0,.804-.029,1.187-.029.057,0,.134.02.134.105,0,.191-.105.191-.239.191-.44,0-.66.125-.66.287l.651,5.061,2.937-4.669c0-.01.144-.22.144-.364,0-.201-.182-.296-.44-.315-.067,0-.153-.01-.153-.115,0-.182.125-.182.182-.182.306,0,.632.029.947.029.258,0,.536-.029.785-.029.077,0,.125.039.125.115,0,.009-.01.172-.125.182-.354.019-.756.048-1.225.794l-3.444,5.482Z"/>
    </g>
    <g class="cls-22">
      <path d="m20.573,79.384v-.296h3.454v.296h-3.454Z"/>
    </g>
  </g>
  <g>
    <g class="cls-22">
      <path d="m72.736,29.487c.167-.415.208-.516.208-.67,0-.181-.061-.234-.167-.234-.248,0-.542.241-.717.817-.02.074-.027.107-.121.107-.02,0-.114,0-.114-.087,0-.114.308-1.025.971-1.025.369,0,.636.254.636.569,0,.067-.02.147-.04.214-.027.081-.268.69-.328.851-.074.174-.147.355-.214.536-.061.147-.107.274-.107.429,0,.147.034.234.167.234.261,0,.556-.274.71-.811.027-.074.034-.114.127-.114.02,0,.107,0,.107.087,0,.101-.295,1.025-.965,1.025-.368,0-.636-.254-.636-.569,0-.114.033-.194.06-.281l.422-1.079Zm.569-1.956c-.181,0-.268-.141-.268-.254,0-.194.194-.369.375-.369.188,0,.268.147.268.255,0,.181-.181.368-.375.368Z"/>
      <path d="m76.378,29.112c.007-.034.02-.127.02-.201,0-.214-.06-.328-.228-.328-.389,0-.737.416-.904.804-.047.101-.054.121-.134.121-.02,0-.114,0-.114-.087,0-.094.429-1.025,1.172-1.025.402,0,.717.261.717.63,0,.1-.013.161-.034.234l-.603,2.398c-.208.817-.992,1.059-1.394,1.059s-.663-.167-.663-.422c0-.214.174-.395.382-.395.134,0,.261.087.261.248,0,.1-.054.261-.228.341.073.027.154.04.241.04.396,0,.75-.388.864-.851l.643-2.565Zm.402-1.581c-.188,0-.268-.147-.268-.254,0-.181.181-.369.375-.369.181,0,.268.141.268.255,0,.194-.194.368-.375.368Z"/>
    </g>
    <g class="cls-22">
      <path d="m69.601,29.218c-.019.067-.038.144-.038.22,0,.105.038.144.239.163.191.02.239.02.411.02.211,0,.287,0,.287.115,0,.182-.115.182-.191.182-.287,0-.995-.029-1.282-.029-.277,0-.976.029-1.253.029-.029,0-.144,0-.144-.105,0-.191.086-.191.306-.191.756,0,.785-.096.871-.45l1.292-5.157c.02-.086.02-.105.02-.153,0-.182-.258-.182-.66-.182-.182,0-.268,0-.268-.105,0-.191.125-.191.191-.191.287,0,.985.029,1.272.029.277,0,.985-.029,1.263-.029.039,0,.144,0,.144.115,0,.182-.077.182-.306.182-.756,0-.785.096-.871.44l-1.282,5.1Z"/>
    </g>
    <g class="cls-22">
      <path d="m69.115,22.149v-.296h3.454v.296h-3.454Z"/>
    </g>
  </g>
  <g>
    <g class="cls-22">
      <path d="m273.105,28.417c.006-.034.02-.127.02-.201,0-.214-.061-.328-.228-.328-.389,0-.737.416-.904.804-.047.101-.054.121-.134.121-.021,0-.114,0-.114-.087,0-.094.429-1.025,1.173-1.025.401,0,.716.261.716.63,0,.1-.013.161-.033.234l-.603,2.398c-.208.817-.991,1.059-1.394,1.059s-.663-.167-.663-.422c0-.214.174-.395.382-.395.134,0,.262.087.262.248,0,.1-.054.261-.229.341.074.027.154.04.241.04.396,0,.75-.388.864-.851l.644-2.565Zm.401-1.581c-.188,0-.268-.147-.268-.254,0-.181.181-.369.375-.369.181,0,.268.141.268.255,0,.194-.194.368-.375.368Z"/>
    </g>
    <g class="cls-22">
      <path d="m275.716,28.792c.168-.415.208-.516.208-.67,0-.181-.061-.234-.168-.234-.247,0-.542.241-.717.817-.02.074-.026.107-.12.107-.021,0-.114,0-.114-.087,0-.114.309-1.025.972-1.025.368,0,.637.254.637.569,0,.067-.021.147-.041.214-.026.081-.268.69-.328.851-.073.174-.147.355-.214.536-.061.147-.107.274-.107.429,0,.147.033.234.168.234.261,0,.556-.274.71-.811.026-.074.033-.114.127-.114.021,0,.107,0,.107.087,0,.101-.295,1.025-.965,1.025-.368,0-.637-.254-.637-.569,0-.114.034-.194.061-.281l.422-1.079Zm.569-1.956c-.181,0-.268-.141-.268-.254,0-.194.194-.369.375-.369.188,0,.268.147.268.255,0,.181-.181.368-.375.368Z"/>
    </g>
    <g class="cls-22">
      <path d="m269.033,28.522c-.019.067-.038.144-.038.22,0,.105.038.144.239.163.191.02.239.02.411.02.211,0,.287,0,.287.115,0,.182-.114.182-.191.182-.287,0-.995-.029-1.282-.029-.277,0-.976.029-1.253.029-.028,0-.144,0-.144-.105,0-.191.086-.191.307-.191.756,0,.784-.096.87-.45l1.292-5.157c.019-.086.019-.105.019-.153,0-.182-.258-.182-.66-.182-.182,0-.268,0-.268-.105,0-.191.124-.191.191-.191.287,0,.985.029,1.272.029.277,0,.985-.029,1.263-.029.038,0,.144,0,.144.115,0,.182-.076.182-.306.182-.756,0-.785.096-.871.44l-1.282,5.1Z"/>
    </g>
    <g class="cls-22">
      <path d="m268.548,21.452v-.296h3.454v.296h-3.454Z"/>
    </g>
  </g>
  <g>
    <g class="cls-22">
      <path d="m323.871,85.697c.006-.034.02-.127.02-.201,0-.214-.061-.328-.228-.328-.389,0-.737.416-.904.804-.047.101-.054.121-.134.121-.021,0-.114,0-.114-.087,0-.094.429-1.025,1.173-1.025.401,0,.716.261.716.63,0,.1-.013.161-.033.234l-.603,2.397c-.208.818-.991,1.059-1.394,1.059s-.663-.167-.663-.422c0-.215.174-.395.382-.395.134,0,.262.086.262.248,0,.1-.054.261-.229.341.074.026.154.04.241.04.396,0,.75-.389.864-.851l.644-2.565Zm.401-1.581c-.188,0-.268-.147-.268-.254,0-.181.181-.369.375-.369.181,0,.268.141.268.255,0,.194-.194.368-.375.368Z"/>
    </g>
    <g class="cls-22">
      <path d="m318.693,86.538c-.077.124-.115.173-.269.173-.124,0-.162-.029-.191-.221l-.756-5.903c-.028-.239-.038-.325-.573-.325-.153,0-.239,0-.239-.115,0-.182.114-.182.182-.182.162,0,.344.02.517.02.172,0,.354.009.526.009.392,0,.804-.029,1.186-.029.058,0,.135.02.135.105,0,.191-.105.191-.239.191-.44,0-.66.125-.66.287l.65,5.061,2.938-4.669c0-.01.143-.22.143-.364,0-.201-.182-.296-.439-.315-.067,0-.153-.01-.153-.115,0-.182.124-.182.182-.182.307,0,.632.029.947.029.259,0,.536-.029.784-.029.077,0,.125.039.125.115,0,.009-.01.172-.125.182-.354.019-.756.048-1.225.794l-3.443,5.482Z"/>
    </g>
    <g class="cls-22">
      <path d="m318.251,78.735v-.296h3.454v.296h-3.454Z"/>
    </g>
  </g>
  <g>
    <g>
      <path d="m111.795,26.153c.167-.415.208-.516.208-.67,0-.181-.061-.234-.167-.234-.248,0-.542.241-.717.817-.02.074-.027.107-.121.107-.02,0-.114,0-.114-.087,0-.114.308-1.025.971-1.025.369,0,.636.254.636.569,0,.067-.02.147-.04.214-.027.081-.268.69-.328.851-.074.174-.147.355-.214.536-.061.147-.107.274-.107.429,0,.147.034.234.167.234.261,0,.556-.274.71-.811.027-.074.034-.114.127-.114.02,0,.107,0,.107.087,0,.101-.295,1.025-.965,1.025-.368,0-.636-.254-.636-.569,0-.114.033-.194.06-.281l.422-1.079Zm.569-1.956c-.181,0-.268-.141-.268-.254,0-.194.194-.369.375-.369.188,0,.268.147.268.255,0,.181-.181.368-.375.368Z"/>
      <path d="m115.437,25.778c.007-.034.02-.127.02-.201,0-.214-.06-.328-.228-.328-.389,0-.737.416-.904.804-.047.101-.054.121-.134.121-.02,0-.114,0-.114-.087,0-.094.429-1.025,1.172-1.025.402,0,.717.261.717.63,0,.1-.013.161-.034.234l-.603,2.398c-.208.817-.992,1.059-1.394,1.059s-.663-.167-.663-.422c0-.214.174-.395.382-.395.134,0,.261.087.261.248,0,.1-.054.261-.228.341.073.027.154.04.241.04.396,0,.75-.388.864-.851l.643-2.565Zm.402-1.581c-.188,0-.268-.147-.268-.254,0-.181.181-.369.375-.369.181,0,.268.141.268.255,0,.194-.194.368-.375.368Z"/>
    </g>
    <path d="m109.014,24.918c.45-.564.766-1.292.938-1.895.048-.172.048-.201.144-.201.105,0,.115.076.115.096,0,.009-.201,1.119-1.1,2.248-.096.115-.096.134-.096.335,0,.229,0,.976.297.976.019,0,.363,0,.536-.469.029-.067.057-.096.125-.096.057,0,.115.029.115.096,0,.153-.297.68-.804.68-.431,0-.746-.297-.871-.804-.727.583-1.416.804-2.019.804-.976,0-1.55-.728-1.55-1.617,0-1.349,1.263-2.717,2.574-2.717.708,0,1.598.469,1.598,1.971v.593Zm-.66-.354c0-.747,0-2-.947-2-.334,0-.851.182-1.301.88-.306.488-.555,1.521-.555,1.99,0,.612.287,1.042.861,1.042.382,0,1.119-.105,1.961-.842-.019-.163-.019-.717-.019-1.071Z"/>
    <g>
      <path d="m94.513,25.827c0,.354.028.459.89.459h.306v.296c-.335-.029-1.167-.029-1.55-.029s-1.215,0-1.55.029v-.296h.306c.861,0,.89-.115.89-.459v-4.956c-.498.249-1.062.249-1.253.249v-.296c.306,0,1.148,0,1.741-.612.22,0,.22.019.22.249v5.367Z"/>
      <path d="m100.461,23.473c-.278,0-.507-.229-.507-.507s.229-.507.507-.507.507.229.507.507-.229.507-.507.507Zm0,3.109c-.278,0-.507-.229-.507-.507s.229-.507.507-.507.507.229.507.507-.229.507-.507.507Z"/>
    </g>
  </g>
  <g>
    <path d="m131.586,85.519c.167-.415.208-.516.208-.67,0-.181-.061-.234-.167-.234-.248,0-.542.241-.717.817-.02.074-.027.107-.121.107-.02,0-.114,0-.114-.087,0-.114.308-1.025.971-1.025.369,0,.636.254.636.569,0,.067-.02.147-.04.214-.027.081-.268.69-.328.851-.074.174-.147.354-.214.535-.061.148-.107.275-.107.43,0,.146.034.234.167.234.261,0,.556-.275.71-.811.027-.074.034-.114.127-.114.02,0,.107,0,.107.087,0,.101-.295,1.025-.965,1.025-.368,0-.636-.255-.636-.57,0-.113.033-.193.06-.281l.422-1.078Zm.569-1.956c-.181,0-.268-.141-.268-.254,0-.194.194-.369.375-.369.188,0,.268.147.268.255,0,.181-.181.368-.375.368Z"/>
    <path d="m127.345,85.987c-.077.124-.115.173-.268.173-.124,0-.163-.029-.191-.221l-.756-5.903c-.029-.239-.039-.325-.574-.325-.153,0-.239,0-.239-.115,0-.182.115-.182.182-.182.163,0,.344.02.517.02s.354.009.526.009c.393,0,.804-.029,1.187-.029.057,0,.134.02.134.105,0,.191-.105.191-.239.191-.44,0-.66.125-.66.287l.651,5.061,2.937-4.669c0-.01.144-.22.144-.364,0-.201-.182-.296-.44-.315-.067,0-.153-.01-.153-.115,0-.182.125-.182.182-.182.306,0,.632.029.947.029.258,0,.536-.029.785-.029.077,0,.125.039.125.115,0,.009-.01.172-.125.182-.354.019-.756.048-1.225.794l-3.444,5.482Z"/>
    <path d="m126.903,78.182v-.296h3.454v.296h-3.454Z"/>
    <g>
      <path d="m119.272,85.519c.167-.415.208-.516.208-.67,0-.181-.061-.234-.167-.234-.248,0-.542.241-.717.817-.02.074-.027.107-.121.107-.02,0-.114,0-.114-.087,0-.114.308-1.025.971-1.025.369,0,.636.254.636.569,0,.067-.02.147-.04.214-.027.081-.268.69-.328.851-.074.174-.147.354-.214.535-.061.148-.107.275-.107.43,0,.146.034.234.167.234.261,0,.556-.275.71-.811.027-.074.034-.114.127-.114.02,0,.107,0,.107.087,0,.101-.295,1.025-.965,1.025-.368,0-.636-.255-.636-.57,0-.113.033-.193.06-.281l.422-1.078Zm.569-1.956c-.181,0-.268-.141-.268-.254,0-.194.194-.369.375-.369.188,0,.268.147.268.255,0,.181-.181.368-.375.368Z"/>
      <path d="m122.914,85.144c.007-.034.02-.127.02-.201,0-.214-.06-.328-.228-.328-.389,0-.737.416-.904.804-.047.101-.054.121-.134.121-.02,0-.114,0-.114-.087,0-.094.429-1.025,1.172-1.025.402,0,.717.261.717.63,0,.1-.014.161-.034.234l-.603,2.397c-.208.818-.992,1.059-1.394,1.059s-.663-.167-.663-.422c0-.215.174-.395.382-.395.134,0,.261.086.261.248,0,.1-.054.261-.228.341.073.026.154.04.241.04.396,0,.75-.389.864-.851l.643-2.565Zm.402-1.581c-.188,0-.268-.147-.268-.254,0-.181.181-.369.375-.369.181,0,.268.141.268.255,0,.194-.194.368-.375.368Z"/>
    </g>
    <path d="m116.49,84.284c.45-.564.766-1.292.938-1.895.048-.172.048-.201.144-.201.105,0,.115.076.115.096,0,.009-.201,1.119-1.1,2.248-.096.115-.096.134-.096.335,0,.229,0,.976.297.976.019,0,.363,0,.536-.469.029-.067.057-.096.125-.096.057,0,.115.029.115.096,0,.153-.297.68-.804.68-.431,0-.746-.297-.871-.804-.727.583-1.416.804-2.019.804-.976,0-1.55-.728-1.55-1.617,0-1.349,1.263-2.717,2.574-2.717.708,0,1.598.469,1.598,1.971v.593Zm-.66-.354c0-.747,0-2-.947-2-.334,0-.851.182-1.301.88-.306.488-.555,1.521-.555,1.99,0,.612.287,1.042.861,1.042.382,0,1.119-.105,1.961-.842-.019-.163-.019-.717-.019-1.071Z"/>
  </g>
  <g>
    <g>
      <path d="m149.557,28.659c.175-.433.217-.537.217-.697,0-.188-.062-.244-.175-.244-.258,0-.564.251-.746.851-.021.077-.027.111-.125.111-.021,0-.119,0-.119-.091,0-.118.321-1.066,1.012-1.066.383,0,.662.265.662.593,0,.069-.021.153-.042.223-.027.084-.278.719-.342.886-.076.182-.153.37-.223.559-.062.153-.111.285-.111.446,0,.153.034.243.174.243.272,0,.579-.285.739-.844.028-.076.035-.118.133-.118.021,0,.111,0,.111.091,0,.104-.307,1.066-1.004,1.066-.384,0-.663-.265-.663-.593,0-.118.035-.202.063-.292l.438-1.123Zm.593-2.036c-.188,0-.278-.146-.278-.265,0-.203.202-.384.391-.384.195,0,.278.153.278.265,0,.188-.188.384-.391.384Z"/>
      <path d="m153.351,28.269c.007-.035.021-.133.021-.209,0-.224-.063-.342-.237-.342-.404,0-.768.433-.941.837-.049.104-.056.125-.14.125-.021,0-.118,0-.118-.091,0-.097.446-1.066,1.22-1.066.419,0,.746.271.746.655,0,.104-.014.168-.034.244l-.628,2.496c-.216.852-1.032,1.103-1.45,1.103s-.69-.175-.69-.439c0-.224.181-.411.397-.411.14,0,.271.09.271.258,0,.104-.056.271-.237.355.077.027.161.042.252.042.411,0,.78-.404.899-.886l.669-2.671Zm.419-1.646c-.195,0-.279-.153-.279-.265,0-.188.188-.384.391-.384.188,0,.278.146.278.265,0,.202-.202.384-.39.384Z"/>
    </g>
    <path d="m151.623,23.092c.063.027.146.062.146.202,0,.118-.09.223-.216.223-.062,0-.077,0-.258-.139l-.837-.559c.014.161.062.663.076.781.008.07.035.279.035.342,0,.153-.133.209-.216.209-.084,0-.217-.056-.217-.209l.112-1.123-.948.635c-.084.062-.098.062-.146.062-.126,0-.217-.104-.217-.223,0-.133.063-.16.195-.216.175-.084.433-.182,1.004-.433l-1.053-.439c-.062-.028-.146-.062-.146-.202,0-.118.091-.224.217-.224.062,0,.083.021.153.063l.941.634c-.015-.16-.063-.662-.077-.78-.007-.07-.035-.279-.035-.342,0-.153.133-.209.217-.209.209,0,.223.174.209.3l-.104,1.031.948-.634c.084-.063.098-.063.146-.063.126,0,.216.105.216.224,0,.133-.062.16-.195.216-.174.084-.432.182-1.004.433l1.053.439Z"/>
    <g>
      <path d="m137.894,30.257c-.06.169-.09.239-.22.239-.109,0-.199-.09-.199-.199,0-.01,0-.05.05-.18l3.458-9.496c.03-.06.1-.089.169-.089.11,0,.199.089.199.199,0,.01,0,.05-.05.179l-3.407,9.347Z"/>
      <path d="m146.661,26.272c.469-.588.797-1.346.977-1.974.05-.179.05-.209.149-.209.109,0,.12.08.12.1,0,.01-.21,1.166-1.146,2.342-.1.119-.1.14-.1.349,0,.239,0,1.017.309,1.017.021,0,.379,0,.559-.488.029-.07.06-.1.129-.1.061,0,.12.029.12.1,0,.159-.309.707-.837.707-.448,0-.777-.309-.907-.837-.757.608-1.475.837-2.103.837-1.016,0-1.613-.757-1.613-1.684,0-1.405,1.314-2.83,2.68-2.83.737,0,1.664.488,1.664,2.053v.618Zm-.688-.369c0-.777,0-2.082-.986-2.082-.349,0-.887.189-1.355.916-.318.509-.577,1.585-.577,2.073,0,.638.299,1.086.896,1.086.398,0,1.166-.109,2.043-.877-.021-.17-.021-.747-.021-1.116Z"/>
    </g>
    <g>
      <path d="m131.187,27.561c.174-.433.216-.537.216-.697,0-.188-.062-.244-.174-.244-.258,0-.565.251-.746.851-.021.077-.028.111-.126.111-.021,0-.118,0-.118-.09,0-.119.32-1.067,1.011-1.067.384,0,.663.265.663.593,0,.069-.021.153-.042.223-.028.084-.279.719-.342.886-.077.182-.153.37-.224.559-.062.153-.111.285-.111.446,0,.153.035.243.175.243.271,0,.578-.285.739-.844.027-.076.034-.118.132-.118.021,0,.111,0,.111.091,0,.104-.307,1.066-1.004,1.066-.384,0-.662-.265-.662-.593,0-.118.035-.202.062-.292l.439-1.123Zm.593-2.036c-.188,0-.279-.146-.279-.266,0-.202.202-.383.391-.383.195,0,.279.153.279.265,0,.188-.188.384-.391.384Z"/>
      <path d="m134.981,27.17c.007-.035.021-.133.021-.209,0-.224-.062-.342-.237-.342-.404,0-.767.433-.941.837-.049.104-.056.125-.139.125-.021,0-.119,0-.119-.09,0-.098.446-1.067,1.221-1.067.418,0,.746.271.746.655,0,.104-.015.168-.035.244l-.628,2.496c-.216.852-1.031,1.103-1.45,1.103s-.69-.175-.69-.439c0-.224.182-.411.397-.411.14,0,.272.09.272.258,0,.104-.056.271-.237.355.077.027.16.042.251.042.411,0,.781-.404.899-.886l.67-2.671Zm.418-1.646c-.195,0-.279-.153-.279-.266,0-.188.188-.383.391-.383.188,0,.279.146.279.265,0,.202-.202.384-.391.384Z"/>
    </g>
    <path d="m127.922,27.278c-.02.07-.039.149-.039.229,0,.109.039.149.249.169.199.021.249.021.428.021.22,0,.3,0,.3.119,0,.189-.12.189-.199.189-.3,0-1.037-.03-1.336-.03-.289,0-1.016.03-1.305.03-.03,0-.149,0-.149-.109,0-.199.089-.199.318-.199.787,0,.817-.1.907-.469l1.345-5.37c.02-.09.02-.11.02-.16,0-.188-.269-.188-.688-.188-.188,0-.278,0-.278-.11,0-.199.129-.199.199-.199.299,0,1.026.03,1.325.03.289,0,1.026-.03,1.315-.03.039,0,.149,0,.149.12,0,.189-.08.189-.319.189-.787,0-.816.1-.906.458l-1.336,5.311Z"/>
    <path d="m127.416,19.916v-.309h3.597v.309h-3.597Z"/>
  </g>
  <g>
    <line class="cls-14" x1="182.25" y1="69.267" x2="182.25" y2="93.399"/>
    <polygon points="180.337 91.948 182.25 92.759 184.163 91.948 182.25 96.481 180.337 91.948"/>
  </g>
  <g>
    <line class="cls-14" x1="234.532" y1="69.267" x2="234.532" y2="93.399"/>
    <polygon points="232.619 91.948 234.532 92.759 236.445 91.948 234.532 96.481 232.619 91.948"/>
  </g>
  <g>
    <path d="m231.006,84.779c.007-.035.021-.133.021-.209,0-.224-.063-.342-.237-.342-.404,0-.768.433-.941.837-.049.104-.056.125-.14.125-.021,0-.118,0-.118-.091,0-.097.446-1.066,1.22-1.066.419,0,.746.271.746.655,0,.104-.014.168-.034.244l-.628,2.496c-.216.852-1.032,1.103-1.45,1.103s-.69-.175-.69-.439c0-.224.181-.411.397-.411.14,0,.271.09.271.258,0,.104-.056.271-.237.355.077.027.161.042.252.042.411,0,.78-.404.899-.886l.669-2.671Zm.419-1.646c-.195,0-.279-.153-.279-.265,0-.188.188-.384.391-.384.188,0,.278.146.278.265,0,.202-.202.384-.39.384Z"/>
    <path d="m228.241,84.828c0,.133,0,.182-.119.182-.027,0-.111,0-.118-.077-.015-.202-.049-.767-.858-.767-.662,0-.851.271-.851.495,0,.369.453.453,1.012.551.244.042.564.098.829.342.182.167.3.376.3.642,0,.495-.334.982-1.241.982-.167,0-.544-.014-.851-.3-.14.153-.271.3-.334.3-.098,0-.098-.062-.098-.181v-.858c0-.139,0-.188.118-.188.098,0,.104.027.126.118.125.475.369.913,1.038.913s.858-.32.858-.592c0-.468-.565-.565-.914-.628-.432-.07-.697-.119-.962-.349-.167-.14-.265-.321-.265-.544,0-.349.236-.872,1.233-.872.259,0,.523.042.732.188.042-.035.111-.098.126-.104.091-.084.104-.084.14-.084.098,0,.098.063.098.182v.648Z"/>
    <path d="m223.609,84.887c-.021.07-.04.149-.04.229,0,.109.04.149.249.169.199.021.249.021.429.021.219,0,.299,0,.299.119,0,.189-.12.189-.199.189-.3,0-1.037-.03-1.336-.03-.289,0-1.016.03-1.305.03-.03,0-.149,0-.149-.109,0-.199.089-.199.318-.199.787,0,.817-.1.907-.469l1.345-5.37c.02-.09.02-.11.02-.16,0-.188-.269-.188-.688-.188-.188,0-.278,0-.278-.11,0-.199.129-.199.199-.199.299,0,1.026.03,1.325.03.289,0,1.026-.03,1.315-.03.039,0,.149,0,.149.12,0,.189-.08.189-.319.189-.787,0-.816.1-.906.458l-1.335,5.311Z"/>
    <path d="m223.102,77.525v-.309h3.597v.309h-3.597Z"/>
  </g>
  <g>
    <path d="m193.359,85.846c.175-.433.216-.537.216-.697,0-.188-.062-.244-.174-.244-.258,0-.565.251-.746.851-.021.077-.028.111-.125.111-.021,0-.119,0-.119-.091,0-.118.321-1.066,1.011-1.066.384,0,.663.265.663.593,0,.069-.021.153-.042.223-.028.084-.279.719-.342.886-.077.182-.153.37-.224.559-.062.153-.111.285-.111.446,0,.153.035.243.175.243.271,0,.578-.285.739-.844.027-.076.034-.118.132-.118.021,0,.111,0,.111.091,0,.104-.307,1.066-1.004,1.066-.384,0-.662-.265-.662-.593,0-.118.035-.202.063-.292l.439-1.123Zm.593-2.036c-.188,0-.279-.146-.279-.265,0-.203.202-.384.391-.384.195,0,.279.153.279.265,0,.188-.188.384-.391.384Z"/>
    <path d="m191.57,85.505c0,.133,0,.182-.119.182-.028,0-.112,0-.119-.077-.014-.202-.049-.767-.858-.767-.662,0-.851.271-.851.495,0,.369.453.453,1.011.551.244.042.565.098.83.342.182.167.3.376.3.642,0,.495-.334.982-1.241.982-.167,0-.544-.014-.851-.3-.14.153-.272.3-.334.3-.098,0-.098-.062-.098-.181v-.858c0-.139,0-.188.118-.188.098,0,.105.027.125.118.126.475.37.913,1.039.913s.858-.32.858-.592c0-.468-.565-.565-.914-.628-.432-.07-.697-.119-.962-.349-.167-.14-.265-.321-.265-.544,0-.349.237-.872,1.234-.872.258,0,.523.042.732.188.042-.035.111-.098.125-.104.091-.084.104-.084.14-.084.098,0,.098.063.098.182v.648Z"/>
    <path d="m186.938,85.564c-.02.07-.04.149-.04.229,0,.109.04.149.249.169.199.021.249.021.428.021.219,0,.299,0,.299.119,0,.189-.12.189-.199.189-.299,0-1.037-.03-1.335-.03-.289,0-1.016.03-1.305.03-.03,0-.149,0-.149-.109,0-.199.089-.199.319-.199.787,0,.817-.1.907-.469l1.345-5.37c.02-.09.02-.11.02-.16,0-.188-.269-.188-.688-.188-.189,0-.279,0-.279-.11,0-.199.129-.199.199-.199.299,0,1.026.03,1.325.03.289,0,1.026-.03,1.315-.03.04,0,.149,0,.149.12,0,.189-.08.189-.319.189-.787,0-.817.1-.907.458l-1.335,5.311Z"/>
    <path d="m186.432,78.202v-.309h3.597v.309h-3.597Z"/>
  </g>
  <g>
    <line class="cls-14" x1="193.941" y1="51.663" x2="218.073" y2="51.663"/>
    <polygon points="216.622 53.576 217.433 51.663 216.622 49.75 221.155 51.663 216.622 53.576"/>
  </g>
  <g>
    <g>
      <path d="m208.582,61.973c.174-.433.216-.537.216-.697,0-.188-.062-.244-.174-.244-.258,0-.565.251-.746.851-.021.077-.028.111-.125.111-.021,0-.119,0-.119-.091,0-.118.321-1.066,1.011-1.066.383,0,.663.265.663.593,0,.069-.021.153-.042.223-.028.084-.279.719-.342.886-.077.182-.153.37-.223.559-.062.153-.111.285-.111.446,0,.153.035.243.174.243.272,0,.579-.285.739-.844.028-.076.035-.118.132-.118.021,0,.111,0,.111.091,0,.104-.307,1.066-1.004,1.066-.384,0-.663-.265-.663-.593,0-.118.035-.202.063-.292l.439-1.123Zm.593-2.036c-.188,0-.279-.146-.279-.265,0-.203.202-.384.391-.384.195,0,.279.153.279.265,0,.188-.188.384-.391.384Z"/>
      <path d="m212.376,61.582c.007-.035.021-.133.021-.209,0-.224-.063-.342-.237-.342-.404,0-.767.433-.941.837-.049.104-.056.125-.139.125-.021,0-.119,0-.119-.091,0-.097.446-1.066,1.22-1.066.418,0,.746.271.746.655,0,.104-.014.168-.035.244l-.628,2.496c-.216.852-1.032,1.103-1.45,1.103s-.69-.175-.69-.439c0-.224.181-.411.397-.411.14,0,.272.09.272.258,0,.104-.056.271-.237.355.077.027.161.042.251.042.411,0,.781-.404.899-.886l.669-2.671Zm.418-1.646c-.195,0-.279-.153-.279-.265,0-.188.188-.384.391-.384.188,0,.279.146.279.265,0,.202-.202.384-.39.384Z"/>
    </g>
    <path d="m206.487,63.36c0,.3.07.3.523.3v.251c-.265-.021-.523-.028-.788-.028-.279,0-.767.028-.781.028v-.251c.453,0,.523,0,.523-.3v-3.57c0-.342-.056-.391-.523-.391v-.251l1.046-.077v4.289Z"/>
    <path d="m203.062,61.69c-.02.07-.04.149-.04.229,0,.109.04.149.249.169.199.021.249.021.428.021.219,0,.299,0,.299.119,0,.189-.12.189-.199.189-.299,0-1.037-.03-1.335-.03-.289,0-1.016.03-1.305.03-.03,0-.149,0-.149-.109,0-.199.089-.199.319-.199.787,0,.817-.1.907-.469l1.345-5.37c.02-.09.02-.11.02-.16,0-.188-.269-.188-.688-.188-.189,0-.279,0-.279-.11,0-.199.129-.199.199-.199.299,0,1.026.03,1.325.03.289,0,1.026-.03,1.315-.03.04,0,.149,0,.149.12,0,.189-.08.189-.319.189-.787,0-.817.1-.907.458l-1.335,5.311Z"/>
    <path d="m202.556,54.328v-.309h3.597v.309h-3.597Z"/>
  </g>
</svg>