<svg id="Layer_1" data-name="Layer 1" xmlns="http://www.w3.org/2000/svg" viewBox="0 0 202.618 117.322"><defs><style>.cls-1,.cls-4{fill:none;}.cls-1{stroke:#010101;stroke-width:1.9px;}.cls-1,.cls-3,.cls-4{stroke-miterlimit:10;}.cls-2{fill:#231f20;}.cls-3{fill:#fff;}.cls-3,.cls-4{stroke:#231f20;}</style></defs><path d="M27.349,5.311a1.466,1.466,0,0,1-1.6,1.313H22.938V6.4h.171c.553,0,.567-.079.567-.338V2.284c0-.258-.014-.337-.567-.337h-.171V1.725h2.625a1.44,1.44,0,0,1,1.593,1.212c0,.531-.495.99-1.191,1.126A1.408,1.408,0,0,1,27.349,5.311ZM25.312,4A1.083,1.083,0,0,0,26.46,2.937a.953.953,0,0,0-.947-.99h-.89c-.337,0-.351.05-.351.287V4ZM26.632,5.3a1.075,1.075,0,0,0-1.011-1.148H24.272V6.115c0,.237.014.287.351.287h.9A1.085,1.085,0,0,0,26.632,5.3Z" transform="translate(-2.867 -1.567)"/><path d="M29.637,6.7c-1.09,0-1.09-.653-1.09-1.212V4.415c0-.638,0-.66-.56-.66V3.533l1.055-.08V5.835c0,.373.028.71.631.71.524,0,.868-.488.868-1.111V4.156c0-.351-.057-.4-.559-.4V3.533l1.054-.08V6c0,.351.057.4.559.4v.222L30.563,6.7V6.057A.979.979,0,0,1,29.637,6.7Z" transform="translate(-2.867 -1.567)"/><path d="M32.284,4.9a.762.762,0,0,1-.309-.609c0-.4.273-.883,1.148-.883a1.106,1.106,0,0,1,.675.2A1.1,1.1,0,0,0,33.92,3.5c.093-.087.107-.087.143-.087.079,0,.079.051.079.172v.725c0,.136,0,.173-.093.173a.076.076,0,0,1-.086-.065.792.792,0,0,0-.84-.868c-.617,0-.8.293-.8.545,0,.416.48.509.882.588a1.467,1.467,0,0,1,.818.345.923.923,0,0,1,.3.681c0,.517-.33,1-1.155,1a1.073,1.073,0,0,1-.789-.308,1.621,1.621,0,0,0-.143.164c-.137.137-.144.144-.18.144-.079,0-.079-.05-.079-.172V5.584c0-.129,0-.179.094-.179.071,0,.078.029.1.122.136.609.4,1.018,1,1.018.56,0,.811-.286.811-.652,0-.517-.589-.631-.746-.66A1.876,1.876,0,0,1,32.284,4.9Z" transform="translate(-2.867 -1.567)"/><path d="M39.062,6.057c0,.266.022.345.668.345h.229v.222C39.708,6.6,39.084,6.6,38.8,6.6s-.911,0-1.162.021V6.4h.23c.645,0,.667-.086.667-.345V2.341a2.148,2.148,0,0,1-.94.187V2.306a1.769,1.769,0,0,0,1.3-.46c.165,0,.165.014.165.187Z" transform="translate(-2.867 -1.567)"/><line class="cls-1" x1="28.581" y1="7.455" x2="28.581" y2="37.389"/><path class="cls-2" d="M27.317,69.878a1.433,1.433,0,0,1-1.563,1.282H23.009v-.217h.168c.539,0,.554-.077.554-.329V66.923c0-.252-.015-.329-.554-.329h-.168v-.217h2.564a1.406,1.406,0,0,1,1.555,1.183c0,.519-.484.967-1.164,1.1A1.375,1.375,0,0,1,27.317,69.878ZM25.328,68.6a1.056,1.056,0,0,0,1.12-1.037.93.93,0,0,0-.924-.966h-.869c-.329,0-.343.049-.343.28V68.6Zm1.288,1.275a1.049,1.049,0,0,0-.987-1.121H24.312v1.912c0,.231.014.28.343.28h.876A1.057,1.057,0,0,0,26.616,69.872Z" transform="translate(-2.867 -1.567)"/><path class="cls-2" d="M29.548,71.237c-1.064,0-1.064-.637-1.064-1.183V69c0-.623,0-.645-.547-.645v-.216l1.03-.077V70.39c0,.364.028.693.617.693.51,0,.846-.476.846-1.085V68.751c0-.343-.055-.393-.546-.393v-.216l1.03-.077v2.486c0,.343.056.392.547.392v.217l-1.009.077v-.63A.956.956,0,0,1,29.548,71.237Z" transform="translate(-2.867 -1.567)"/><path class="cls-2" d="M32.13,69.48a.749.749,0,0,1-.3-.6c0-.392.266-.861,1.121-.861a1.079,1.079,0,0,1,.658.2.9.9,0,0,0,.119-.112c.091-.084.106-.084.14-.084.077,0,.077.048.077.168V68.9c0,.133,0,.168-.091.168A.075.075,0,0,1,33.769,69a.772.772,0,0,0-.819-.847c-.6,0-.784.287-.784.532,0,.406.468.5.861.574a1.427,1.427,0,0,1,.8.336.906.906,0,0,1,.295.666c0,.5-.323.973-1.128.973a1.048,1.048,0,0,1-.771-.3,1.3,1.3,0,0,0-.139.161c-.134.133-.141.14-.176.14-.077,0-.077-.049-.077-.168v-.924c0-.126,0-.175.092-.175.069,0,.077.028.1.118.133.6.386,1,.974,1,.546,0,.791-.28.791-.637,0-.5-.574-.616-.728-.645A1.846,1.846,0,0,1,32.13,69.48Z" transform="translate(-2.867 -1.567)"/><path class="cls-2" d="M38.487,68.17a1.468,1.468,0,0,1,1.4,1.562,1.5,1.5,0,0,1-1.442,1.583c-.651,0-1.464-.5-1.464-2.368,0-1.548.945-2.451,1.842-2.451.581,0,.89.336.89.756a.323.323,0,1,1-.645.014c0-.315.28-.315.386-.315a.724.724,0,0,0-.616-.28c-.358,0-1.227.252-1.227,2.024v.168A.969.969,0,0,1,38.487,68.17Zm.651,2.493a3.738,3.738,0,0,0-.007-1.9.675.675,0,0,0-.651-.434c-.631,0-.854.7-.854,1.246a3.423,3.423,0,0,0,.126,1.016.805.805,0,0,0,.693.525A.732.732,0,0,0,39.138,70.663Z" transform="translate(-2.867 -1.567)"/><line class="cls-1" x1="101.288" y1="15.079" x2="101.288" y2="45.012"/><path d="M99.949,12.935a1.468,1.468,0,0,1-1.6,1.313H95.537v-.223h.172c.553,0,.567-.079.567-.337V9.908c0-.259-.014-.338-.567-.338h-.172V9.348h2.625a1.44,1.44,0,0,1,1.593,1.212c0,.531-.495.99-1.191,1.126A1.41,1.41,0,0,1,99.949,12.935Zm-2.038-1.313a1.082,1.082,0,0,0,1.148-1.062.953.953,0,0,0-.947-.99h-.889c-.337,0-.352.051-.352.287v1.765Zm1.321,1.3A1.075,1.075,0,0,0,98.22,11.78H96.871v1.958c0,.237.015.287.352.287h.9A1.085,1.085,0,0,0,99.232,12.927Z" transform="translate(-2.867 -1.567)"/><path d="M102.236,14.327c-1.09,0-1.09-.653-1.09-1.213V12.038c0-.639,0-.659-.56-.659v-.223l1.055-.079v2.381c0,.374.029.711.631.711.524,0,.869-.488.869-1.112V11.78c0-.352-.058-.4-.56-.4v-.223l1.055-.079v2.546c0,.352.057.4.559.4v.223l-1.033.079v-.646A.979.979,0,0,1,102.236,14.327Z" transform="translate(-2.867 -1.567)"/><path d="M104.883,12.526a.765.765,0,0,1-.308-.61c0-.4.272-.882,1.147-.882a1.111,1.111,0,0,1,.675.2.941.941,0,0,0,.122-.114c.093-.086.108-.086.144-.086.078,0,.078.05.078.172v.724c0,.137,0,.173-.093.173a.077.077,0,0,1-.086-.065.791.791,0,0,0-.84-.868c-.617,0-.8.294-.8.545,0,.417.481.509.883.589a1.453,1.453,0,0,1,.817.344.925.925,0,0,1,.3.682c0,.516-.33,1-1.155,1a1.072,1.072,0,0,1-.79-.309,1.521,1.521,0,0,0-.143.165c-.136.137-.143.144-.179.144-.079,0-.079-.05-.079-.173v-.947c0-.128,0-.179.093-.179.072,0,.079.029.1.122.137.61.395,1.019,1,1.019.559,0,.81-.287.81-.653,0-.517-.588-.632-.746-.66A1.885,1.885,0,0,1,104.883,12.526Z" transform="translate(-2.867 -1.567)"/><path d="M111.755,13.7a2.359,2.359,0,0,0,.682-.057,2.36,2.36,0,0,0,.157-.639h.18l-.2,1.249h-2.662c0-.172,0-.187.079-.266l1.378-1.535a2.574,2.574,0,0,0,.753-1.585c0-.589-.308-1.17-.961-1.17a1.035,1.035,0,0,0-.969.732.281.281,0,0,1,.093-.007.363.363,0,0,1,.381.373.377.377,0,1,1-.754-.022,1.326,1.326,0,0,1,1.342-1.3,1.41,1.41,0,0,1,1.521,1.393c0,.717-.431,1.1-1.55,2.094l-.76.739Z" transform="translate(-2.867 -1.567)"/><line class="cls-3" x1="28.581" y1="22.422" x2="100.53" y2="22.422"/><line class="cls-1" x1="173.661" y1="87.388" x2="173.661" y2="117.322"/><polyline class="cls-4" points="101.027 37.571 76.831 37.571 76.829 79.647 29.108 79.648"/><line class="cls-3" x1="28.81" y1="94.765" x2="100.759" y2="94.765"/><line class="cls-1" x1="28.581" y1="102.141" x2="28.581" y2="72.207"/><line class="cls-3" x1="101.505" y1="102.448" x2="173.454" y2="102.448"/><path d="M57.958,20.356a1.467,1.467,0,0,1-1.6,1.313H53.546v-.223h.172c.553,0,.567-.078.567-.337V17.328c0-.258-.014-.337-.567-.337h-.172v-.222h2.626a1.44,1.44,0,0,1,1.593,1.212c0,.531-.495.99-1.191,1.127A1.408,1.408,0,0,1,57.958,20.356Zm-2.037-1.313a1.082,1.082,0,0,0,1.148-1.062.953.953,0,0,0-.947-.99h-.89c-.337,0-.351.05-.351.287v1.765Zm1.32,1.306A1.075,1.075,0,0,0,56.23,19.2H54.881V21.16c0,.237.014.286.351.286h.9A1.084,1.084,0,0,0,57.241,20.349Z" transform="translate(-2.867 -1.567)"/><path d="M60.447,18.5a.491.491,0,0,1,.531.439.3.3,0,0,1-.309.315.3.3,0,0,1-.308-.308.309.309,0,0,1,.165-.28.189.189,0,0,0-.079-.007c-.545,0-.847.638-.847,1.348v1.105c0,.259.015.337.546.337h.15v.223c-.287-.022-.624-.022-.911-.022-.2,0-.538.015-.818.022v-.223c.481,0,.56,0,.56-.322V19.2c0-.352-.057-.4-.56-.4v-.222l1-.08v.79A1,1,0,0,1,60.447,18.5Z" transform="translate(-2.867 -1.567)"/><path d="M62.62,21.747c-.452,0-1.148-.179-1.148-.76a1.045,1.045,0,0,1,.718-.932,3.487,3.487,0,0,1,1.32-.259v-.265a.813.813,0,0,0-.761-.918,1.006,1.006,0,0,0-.774.33c.33.007.366.244.366.329a.33.33,0,1,1-.66-.007c0-.473.5-.81,1.083-.81a1.37,1.37,0,0,1,.983.394,1.064,1.064,0,0,1,.258.847v1.435c0,.036.029.358.265.358.079,0,.259-.043.259-.459v-.4h.179v.4a.609.609,0,0,1-.588.682.6.6,0,0,1-.56-.588A.991.991,0,0,1,62.62,21.747Zm-.595-.767a.618.618,0,0,0,.646.61.862.862,0,0,0,.839-.925v-.718C62.326,19.99,62.025,20.586,62.025,20.98Z" transform="translate(-2.867 -1.567)"/><path d="M64.987,18.8v-.222L66,18.5v.754A1.131,1.131,0,0,1,67.06,18.5a.961.961,0,0,1,.754.266c.222.258.222.481.222,1.1v1.37c.008.215.187.215.56.215v.223c-.244-.007-.617-.022-.8-.022s-.559.015-.81.022v-.223c.48,0,.559,0,.559-.322V19.452c0-.409-.079-.8-.53-.8a1.047,1.047,0,0,0-.969,1.147v1.321c0,.322.079.322.559.322v.223c-.243-.007-.617-.022-.8-.022s-.56.015-.811.022v-.223c.481,0,.56,0,.56-.322V19.2C65.547,18.849,65.489,18.8,64.987,18.8Z" transform="translate(-2.867 -1.567)"/><path d="M70.59,21.568a.936.936,0,0,0,.939-.753c.015-.043.029-.072.093-.072.022,0,.094,0,.094.072a1.18,1.18,0,0,1-1.191.932,1.587,1.587,0,0,1-1.542-1.628,1.606,1.606,0,0,1,1.556-1.664c.553,0,1.1.279,1.1.767a.33.33,0,1,1-.66.007.323.323,0,0,1,.337-.329,1.173,1.173,0,0,0-.768-.266c-.38,0-.968.3-.968,1.471S70.209,21.568,70.59,21.568Z" transform="translate(-2.867 -1.567)"/><path d="M72.713,17.393c0-.352-.058-.4-.56-.4v-.222l1.033-.079V19.2a1.137,1.137,0,0,1,1.04-.7.958.958,0,0,1,.753.266c.223.258.223.481.223,1.1v1.37c.007.215.186.215.559.215v.223c-.243-.007-.617-.022-.8-.022s-.56.015-.811.022v-.223c.481,0,.56,0,.56-.322V19.452c0-.409-.079-.8-.531-.8a1.047,1.047,0,0,0-.968,1.147v1.321c0,.322.078.322.559.322v.223c-.244-.007-.617-.022-.8-.022s-.56.015-.811.022v-.223c.481,0,.56,0,.56-.322Z" transform="translate(-2.867 -1.567)"/><path d="M80.4,21.1c0,.266.022.344.667.344h.23v.223c-.251-.022-.875-.022-1.162-.022s-.911,0-1.162.022v-.223H79.2c.646,0,.667-.085.667-.344V17.386a2.153,2.153,0,0,1-.94.186V17.35a1.773,1.773,0,0,0,1.306-.459c.165,0,.165.014.165.186Z" transform="translate(-2.867 -1.567)"/><line class="cls-1" x1="101.288" y1="79.798" x2="101.288" y2="109.732"/><line class="cls-3" x1="101.505" y1="22.422" x2="173.454" y2="22.422"/><line class="cls-1" x1="173.661" y1="7.455" x2="173.661" y2="37.389"/><path d="M172.293,5.153a1.468,1.468,0,0,1-1.6,1.314h-2.812V6.244h.172c.552,0,.566-.079.566-.337V2.126c0-.258-.014-.337-.566-.337h-.172V1.567h2.625A1.44,1.44,0,0,1,172.1,2.779c0,.531-.495.99-1.191,1.126A1.41,1.41,0,0,1,172.293,5.153ZM170.255,3.84A1.081,1.081,0,0,0,171.4,2.779a.953.953,0,0,0-.947-.99h-.889c-.338,0-.352.05-.352.287V3.84Zm1.32,1.306A1.074,1.074,0,0,0,170.564,4h-1.349V5.957c0,.237.014.287.352.287h.9A1.085,1.085,0,0,0,171.575,5.146Z" transform="translate(-2.867 -1.567)"/><path d="M174.58,6.546c-1.09,0-1.09-.653-1.09-1.213V4.257c0-.639,0-.66-.56-.66V3.374l1.055-.078V5.677c0,.374.029.711.631.711.524,0,.868-.488.868-1.112V4c0-.352-.057-.4-.559-.4V3.374l1.054-.078V5.842c0,.352.058.4.56.4v.223l-1.033.079V5.9A.981.981,0,0,1,174.58,6.546Z" transform="translate(-2.867 -1.567)"/><path d="M177.227,4.744a.762.762,0,0,1-.309-.609c0-.4.273-.883,1.148-.883a1.106,1.106,0,0,1,.675.2,1.011,1.011,0,0,0,.122-.114c.093-.087.108-.087.143-.087.079,0,.079.051.079.173v.724c0,.137,0,.172-.093.172-.014,0-.079,0-.086-.064a.792.792,0,0,0-.84-.869c-.617,0-.8.294-.8.546,0,.416.481.509.882.588a1.467,1.467,0,0,1,.818.344.925.925,0,0,1,.3.682c0,.517-.329,1-1.154,1a1.076,1.076,0,0,1-.79-.309,1.521,1.521,0,0,0-.143.165c-.137.136-.144.144-.179.144-.08,0-.08-.051-.08-.173V5.426c0-.129,0-.179.094-.179.072,0,.079.029.1.121.137.611.4,1.02,1,1.02.559,0,.81-.288.81-.653,0-.517-.588-.632-.746-.66A1.874,1.874,0,0,1,177.227,4.744Z" transform="translate(-2.867 -1.567)"/><path d="M185.175,5.24a1.463,1.463,0,0,1-1.528,1.384A1.309,1.309,0,0,1,182.2,5.5a.4.4,0,1,1,.8-.014.393.393,0,0,1-.474.394,1.306,1.306,0,0,0,1.1.545c.315,0,.81-.208.81-1.183,0-.7-.265-1.191-.854-1.191h-.315c-.122,0-.172,0-.172-.079s.05-.079.107-.087.223-.014.28-.021a.7.7,0,0,0,.639-.373,1.8,1.8,0,0,0,.2-.818c0-.645-.394-.8-.688-.8a1.164,1.164,0,0,0-.955.445c.108,0,.445,0,.445.358a.366.366,0,1,1-.731-.007c0-.545.545-.976,1.269-.976.689,0,1.321.4,1.321.99a1.383,1.383,0,0,1-1,1.263A1.384,1.384,0,0,1,185.175,5.24Z" transform="translate(-2.867 -1.567)"/><path d="M172.243,85.245a1.467,1.467,0,0,1-1.6,1.312h-2.812v-.223H168c.553,0,.567-.078.567-.336V82.217c0-.258-.014-.338-.567-.338h-.172v-.222h2.625a1.441,1.441,0,0,1,1.593,1.212c0,.531-.5.99-1.191,1.127A1.409,1.409,0,0,1,172.243,85.245Zm-2.038-1.314a1.082,1.082,0,0,0,1.148-1.062.954.954,0,0,0-.947-.99h-.889c-.338,0-.352.051-.352.287v1.765Zm1.321,1.306a1.076,1.076,0,0,0-1.012-1.148h-1.349v1.959c0,.236.014.286.352.286h.9A1.084,1.084,0,0,0,171.526,85.237Z" transform="translate(-2.867 -1.567)"/><path d="M174.53,86.636c-1.09,0-1.09-.653-1.09-1.212V84.347c0-.638,0-.659-.559-.659v-.223l1.054-.079v2.382c0,.373.028.71.631.71.524,0,.868-.487.868-1.112V84.089c0-.351-.057-.4-.559-.4v-.223l1.054-.079v2.547c0,.351.058.4.56.4v.223l-1.033.079v-.645A.98.98,0,0,1,174.53,86.636Z" transform="translate(-2.867 -1.567)"/><path d="M177.177,84.835a.761.761,0,0,1-.308-.609c0-.4.272-.883,1.147-.883a1.106,1.106,0,0,1,.675.2.945.945,0,0,0,.122-.115c.093-.086.107-.086.143-.086.079,0,.079.05.079.173v.724c0,.136,0,.172-.093.172a.076.076,0,0,1-.086-.065.791.791,0,0,0-.84-.867c-.616,0-.8.294-.8.545,0,.416.48.509.883.588a1.463,1.463,0,0,1,.817.344.928.928,0,0,1,.3.682c0,.516-.329,1-1.154,1a1.072,1.072,0,0,1-.79-.309,1.434,1.434,0,0,0-.143.166c-.137.136-.144.143-.18.143-.078,0-.078-.05-.078-.172v-.947c0-.129,0-.18.093-.18.072,0,.079.029.1.123.136.609.395,1.018,1,1.018.559,0,.81-.287.81-.653,0-.517-.588-.631-.746-.66A1.875,1.875,0,0,1,177.177,84.835Z" transform="translate(-2.867 -1.567)"/><path d="M182.047,85.373v-.222l2.2-3.364c.057-.087.079-.087.143-.087.115,0,.115.043.115.187v3.264h.717v.222h-.717V86c0,.258.015.336.546.336h.15v.223c-.294-.022-.674-.022-.976-.022s-.674,0-.968.022v-.223h.151c.53,0,.544-.078.544-.336v-.625Zm1.952-2.9-1.751,2.676H184Z" transform="translate(-2.867 -1.567)"/><path class="cls-2" d="M100.052,77.46a1.433,1.433,0,0,1-1.562,1.282H95.744v-.218h.169c.539,0,.553-.076.553-.329V74.5c0-.252-.014-.329-.553-.329h-.169v-.217h2.564a1.405,1.405,0,0,1,1.554,1.184c0,.518-.482.966-1.162,1.1A1.376,1.376,0,0,1,100.052,77.46Zm-1.989-1.282a1.056,1.056,0,0,0,1.12-1.036.931.931,0,0,0-.924-.967H97.39c-.329,0-.343.049-.343.281v1.722Zm1.288,1.275a1.049,1.049,0,0,0-.987-1.12H97.047v1.912c0,.231.014.279.343.279h.876A1.058,1.058,0,0,0,99.351,77.453Z" transform="translate(-2.867 -1.567)"/><path class="cls-2" d="M102.283,78.819c-1.064,0-1.064-.638-1.064-1.184v-1.05c0-.624,0-.645-.547-.645v-.217l1.03-.077v2.325c0,.364.028.694.616.694.512,0,.848-.476.848-1.086V76.333c0-.344-.056-.393-.546-.393v-.217l1.029-.077v2.486c0,.344.056.392.546.392v.218l-1.008.077v-.63A.956.956,0,0,1,102.283,78.819Z" transform="translate(-2.867 -1.567)"/><path class="cls-2" d="M104.865,77.061a.748.748,0,0,1-.3-.6c0-.392.266-.861,1.121-.861a1.079,1.079,0,0,1,.658.2.9.9,0,0,0,.119-.112c.091-.084.106-.084.14-.084.077,0,.077.049.077.168v.708c0,.133,0,.167-.09.167-.015,0-.078,0-.084-.062a.774.774,0,0,0-.82-.848c-.6,0-.784.287-.784.533,0,.406.469.5.861.574a1.427,1.427,0,0,1,.8.336.9.9,0,0,1,.3.665c0,.5-.323.974-1.128.974a1.046,1.046,0,0,1-.77-.3,1.274,1.274,0,0,0-.14.161c-.134.133-.141.14-.176.14-.077,0-.077-.049-.077-.168v-.925c0-.126,0-.175.091-.175.07,0,.078.028.1.119.132.6.385,1,.973,1,.546,0,.791-.281.791-.638,0-.5-.574-.616-.728-.644A1.839,1.839,0,0,1,104.865,77.061Z" transform="translate(-2.867 -1.567)"/><path class="cls-2" d="M111.04,78.9a1.286,1.286,0,0,1-1.268-1.282.347.347,0,1,1,.343.315.316.316,0,0,1-.119-.014,1.091,1.091,0,0,0,1.03.785.879.879,0,0,0,.75-.455,2.052,2.052,0,0,0,.167-.96,2.179,2.179,0,0,0-.125-.883.687.687,0,0,0-.6-.448,1.055,1.055,0,0,0-.9.49c-.027.042-.042.063-.09.063-.1,0-.1-.055-.1-.182V74.252c0-.112,0-.168.069-.168a.2.2,0,0,1,.084.021,2.277,2.277,0,0,0,.932.2,2.326,2.326,0,0,0,.953-.2.1.1,0,0,1,.056-.021.068.068,0,0,1,.07.077,1.529,1.529,0,0,1-1.352.729,2.226,2.226,0,0,1-.6-.091v1.365a1.235,1.235,0,0,1,.89-.357,1.438,1.438,0,0,1,1.331,1.534A1.547,1.547,0,0,1,111.04,78.9Z" transform="translate(-2.867 -1.567)"/><path d="M130.774,20.356a1.467,1.467,0,0,1-1.6,1.313h-2.812v-.223h.172c.552,0,.566-.079.566-.337V17.328c0-.258-.014-.337-.566-.337h-.172v-.222h2.625a1.44,1.44,0,0,1,1.593,1.212c0,.531-.495.99-1.191,1.126A1.41,1.41,0,0,1,130.774,20.356Zm-2.037-1.314a1.082,1.082,0,0,0,1.148-1.061.953.953,0,0,0-.947-.99h-.89c-.337,0-.351.05-.351.287v1.764Zm1.32,1.306a1.074,1.074,0,0,0-1.011-1.147H127.7v1.958c0,.237.014.287.351.287h.9A1.084,1.084,0,0,0,130.057,20.348Z" transform="translate(-2.867 -1.567)"/><path d="M133.263,18.5a.489.489,0,0,1,.531.437.3.3,0,0,1-.309.316.3.3,0,0,1-.308-.308.311.311,0,0,1,.165-.28c-.014-.008-.029-.008-.079-.008-.545,0-.846.639-.846,1.349v1.105c0,.258.014.337.545.337h.15v.223c-.286-.022-.624-.022-.911-.022-.2,0-.538.015-.818.022v-.223c.481,0,.56,0,.56-.323V19.2c0-.352-.057-.4-.56-.4v-.223l1-.078v.788A1,1,0,0,1,133.263,18.5Z" transform="translate(-2.867 -1.567)"/><path d="M135.437,21.747c-.453,0-1.148-.179-1.148-.76a1.046,1.046,0,0,1,.717-.933,3.484,3.484,0,0,1,1.32-.258V19.53a.812.812,0,0,0-.76-.918,1,1,0,0,0-.775.331c.33.007.366.243.366.329a.33.33,0,1,1-.66-.007c0-.474.495-.81,1.083-.81a1.368,1.368,0,0,1,.983.394,1.062,1.062,0,0,1,.258.847v1.435c0,.036.029.358.266.358.078,0,.258-.043.258-.459v-.4h.179v.4a.609.609,0,0,1-.588.682.6.6,0,0,1-.56-.589A.99.99,0,0,1,135.437,21.747Zm-.6-.767a.618.618,0,0,0,.646.61.862.862,0,0,0,.839-.926v-.717C135.142,19.99,134.841,20.585,134.841,20.98Z" transform="translate(-2.867 -1.567)"/><path d="M137.8,18.8v-.223l1.011-.078v.753a1.131,1.131,0,0,1,1.062-.753.955.955,0,0,1,.753.265c.223.258.223.481.223,1.1v1.37c.007.215.186.215.559.215v.223c-.244-.007-.617-.022-.8-.022s-.56.015-.811.022v-.223c.481,0,.56,0,.56-.323V19.452c0-.41-.079-.8-.531-.8a1.048,1.048,0,0,0-.969,1.148v1.32c0,.323.079.323.56.323v.223c-.244-.007-.617-.022-.8-.022s-.559.015-.81.022v-.223c.48,0,.559,0,.559-.323V19.2C138.363,18.849,138.306,18.8,137.8,18.8Z" transform="translate(-2.867 -1.567)"/><path d="M143.406,21.568a.938.938,0,0,0,.94-.753c.014-.044.028-.072.093-.072.022,0,.093,0,.093.072a1.179,1.179,0,0,1-1.191.932,1.587,1.587,0,0,1-1.542-1.628,1.608,1.608,0,0,1,1.557-1.664c.552,0,1.1.28,1.1.767a.33.33,0,1,1-.66.008.324.324,0,0,1,.337-.331,1.169,1.169,0,0,0-.767-.265c-.381,0-.969.3-.969,1.47S143.025,21.568,143.406,21.568Z" transform="translate(-2.867 -1.567)"/><path d="M145.529,17.393c0-.352-.058-.4-.56-.4v-.222L146,16.69V19.2a1.135,1.135,0,0,1,1.04-.7.958.958,0,0,1,.754.265c.222.258.222.481.222,1.1v1.37c.007.215.187.215.56.215v.223c-.244-.007-.617-.022-.8-.022s-.559.015-.81.022v-.223c.48,0,.559,0,.559-.323V19.452c0-.41-.079-.8-.531-.8a1.048,1.048,0,0,0-.968,1.148v1.32c0,.323.079.323.559.323v.223c-.243-.007-.617-.022-.8-.022s-.56.015-.811.022v-.223c.481,0,.56,0,.56-.323Z" transform="translate(-2.867 -1.567)"/><path d="M153.312,21.116a2.309,2.309,0,0,0,.681-.058,2.338,2.338,0,0,0,.158-.638h.179l-.2,1.249h-2.661c0-.173,0-.187.079-.266l1.377-1.535a2.569,2.569,0,0,0,.753-1.586c0-.588-.308-1.169-.961-1.169a1.034,1.034,0,0,0-.968.731.277.277,0,0,1,.093-.007.363.363,0,0,1,.38.374.377.377,0,1,1-.753-.022,1.326,1.326,0,0,1,1.341-1.3,1.41,1.41,0,0,1,1.521,1.392c0,.718-.43,1.105-1.549,2.095l-.76.739Z" transform="translate(-2.867 -1.567)"/><path d="M201.819,54.4a1.468,1.468,0,0,1-1.313-1.6V49.989h.223v.172c0,.553.079.567.337.567h3.781c.258,0,.337-.014.337-.567v-.172h.222v2.626a1.44,1.44,0,0,1-1.212,1.592c-.531,0-.99-.495-1.126-1.191A1.41,1.41,0,0,1,201.819,54.4Zm1.313-2.038a1.081,1.081,0,0,0,1.062,1.148.953.953,0,0,0,.99-.947v-.889c0-.337-.05-.352-.287-.352h-1.765Zm-1.306,1.321a1.075,1.075,0,0,0,1.148-1.012V51.323h-1.958c-.238,0-.287.015-.287.352v.9A1.084,1.084,0,0,0,201.826,53.684Z" transform="translate(-2.867 -1.567)"/><path d="M203.677,56.89a.489.489,0,0,1-.438.53.3.3,0,0,1-.315-.308.3.3,0,0,1,.308-.309.311.311,0,0,1,.28.165.18.18,0,0,0,.007-.078c0-.546-.638-.847-1.348-.847h-1.1c-.258,0-.337.014-.337.545v.151h-.223c.022-.287.022-.624.022-.911,0-.2-.015-.538-.022-.818h.223c0,.481,0,.559.322.559h1.923c.352,0,.4-.057.4-.559h.222l.079,1h-.789A1.006,1.006,0,0,1,203.677,56.89Z" transform="translate(-2.867 -1.567)"/><path d="M200.428,59.063c0-.452.179-1.148.76-1.148a1.044,1.044,0,0,1,.932.718,3.463,3.463,0,0,1,.259,1.319h.266a.812.812,0,0,0,.918-.76,1.006,1.006,0,0,0-.331-.775c-.007.33-.243.366-.329.366a.33.33,0,1,1,.007-.66c.473,0,.81.5.81,1.083a1.368,1.368,0,0,1-.394.983,1.062,1.062,0,0,1-.847.258h-1.435c-.036,0-.358.029-.358.266,0,.079.043.258.459.258h.4v.179h-.4a.609.609,0,0,1-.682-.588.6.6,0,0,1,.588-.559A.992.992,0,0,1,200.428,59.063Zm.767-.6a.618.618,0,0,0-.61.646.862.862,0,0,0,.926.839h.717C202.185,58.769,201.59,58.467,201.2,58.467Z" transform="translate(-2.867 -1.567)"/><path d="M203.376,61.43h.222l.079,1.011h-.753a1.132,1.132,0,0,1,.753,1.062.963.963,0,0,1-.265.754c-.258.222-.481.222-1.1.222h-1.37c-.215.007-.215.186-.215.559h-.223c.007-.243.022-.617.022-.8s-.015-.56-.022-.811h.223c0,.481,0,.56.322.56h1.672c.409,0,.8-.079.8-.531a1.047,1.047,0,0,0-1.147-.968h-1.321c-.322,0-.322.078-.322.559h-.223c.007-.244.022-.617.022-.8s-.015-.56-.022-.811h.223c0,.48,0,.56.322.56h1.923C203.326,61.99,203.376,61.932,203.376,61.43Z" transform="translate(-2.867 -1.567)"/><path d="M200.607,67.032a.937.937,0,0,0,.753.94c.043.014.072.029.072.093,0,.022,0,.093-.072.093a1.179,1.179,0,0,1-.932-1.191,1.587,1.587,0,0,1,1.628-1.542,1.608,1.608,0,0,1,1.664,1.557c0,.552-.28,1.1-.768,1.1a.33.33,0,1,1-.007-.659.324.324,0,0,1,.331.337,1.176,1.176,0,0,0,.265-.768c0-.38-.3-.968-1.47-.968S200.607,66.652,200.607,67.032Z" transform="translate(-2.867 -1.567)"/><path d="M204.782,69.155c.352,0,.4-.057.4-.559h.222l.079,1.033h-2.511a1.134,1.134,0,0,1,.7,1.04.959.959,0,0,1-.265.753c-.258.223-.481.223-1.1.223h-1.37c-.215.007-.215.186-.215.559h-.223c.007-.244.022-.617.022-.8s-.015-.56-.022-.811h.223c0,.481,0,.56.322.56h1.672c.409,0,.8-.079.8-.531a1.047,1.047,0,0,0-1.147-.969h-1.321c-.322,0-.322.079-.322.56h-.223c.007-.244.022-.617.022-.8s-.015-.559-.022-.81h.223c0,.48,0,.559.322.559Z" transform="translate(-2.867 -1.567)"/><path d="M201.733,78.014a1.464,1.464,0,0,1-1.385-1.528,1.309,1.309,0,0,1,1.127-1.449.4.4,0,1,1,.014.8.392.392,0,0,1-.394-.474,1.307,1.307,0,0,0-.546,1.1c0,.315.208.81,1.184.81.7,0,1.191-.265,1.191-.854v-.315c0-.122,0-.172.079-.172s.079.05.086.107.014.223.021.28a.7.7,0,0,0,.374.639,1.789,1.789,0,0,0,.817.2c.646,0,.8-.394.8-.688a1.166,1.166,0,0,0-.445-.955c0,.108,0,.445-.359.445a.366.366,0,1,1,.007-.732c.546,0,.976.546.976,1.27,0,.689-.4,1.321-.99,1.321a1.383,1.383,0,0,1-1.263-1A1.383,1.383,0,0,1,201.733,78.014Z" transform="translate(-2.867 -1.567)"/><path d="M130.7,100.382a1.467,1.467,0,0,1-1.6,1.313h-2.812v-.222h.172c.552,0,.566-.079.566-.338V97.354c0-.258-.014-.336-.566-.336h-.172V96.8h2.625a1.44,1.44,0,0,1,1.593,1.213c0,.531-.5.99-1.191,1.126A1.408,1.408,0,0,1,130.7,100.382Zm-2.037-1.313a1.082,1.082,0,0,0,1.148-1.061.953.953,0,0,0-.947-.99h-.89c-.337,0-.351.05-.351.287v1.764Zm1.32,1.306a1.075,1.075,0,0,0-1.011-1.148h-1.349v1.959c0,.237.014.287.351.287h.9A1.085,1.085,0,0,0,129.978,100.375Z" transform="translate(-2.867 -1.567)"/><path d="M133.185,98.524a.489.489,0,0,1,.53.438.3.3,0,0,1-.308.315.3.3,0,0,1-.309-.308.311.311,0,0,1,.165-.28.183.183,0,0,0-.078-.007c-.546,0-.847.638-.847,1.349v1.1c0,.259.014.338.545.338h.15v.222c-.286-.021-.624-.021-.91-.021-.2,0-.539.014-.819.021v-.222c.481,0,.56,0,.56-.323V99.227c0-.352-.057-.4-.56-.4V98.6l1-.079v.789A1,1,0,0,1,133.185,98.524Z" transform="translate(-2.867 -1.567)"/><path d="M135.357,101.774c-.451,0-1.147-.18-1.147-.76a1.044,1.044,0,0,1,.717-.933,3.491,3.491,0,0,1,1.32-.259v-.265a.812.812,0,0,0-.76-.918,1.008,1.008,0,0,0-.775.33c.33.007.365.244.365.33a.33.33,0,1,1-.659-.007c0-.474.5-.811,1.083-.811a1.37,1.37,0,0,1,.983.394,1.064,1.064,0,0,1,.258.847v1.435c0,.036.028.359.266.359.079,0,.257-.043.257-.46v-.4h.18v.4a.609.609,0,0,1-.588.682.6.6,0,0,1-.56-.588A.991.991,0,0,1,135.357,101.774Zm-.595-.768a.618.618,0,0,0,.646.61.861.861,0,0,0,.839-.925v-.718C135.063,100.016,134.762,100.612,134.762,101.006Z" transform="translate(-2.867 -1.567)"/><path d="M137.725,98.825V98.6l1.011-.079v.753a1.132,1.132,0,0,1,1.062-.753.955.955,0,0,1,.753.266c.223.258.223.48.223,1.1v1.37c.007.216.186.216.559.216v.222c-.244-.007-.617-.021-.8-.021s-.559.014-.81.021v-.222c.481,0,.56,0,.56-.323V99.478c0-.409-.079-.8-.531-.8a1.047,1.047,0,0,0-.969,1.147v1.321c0,.323.079.323.559.323v.222c-.243-.007-.616-.021-.8-.021s-.559.014-.81.021v-.222c.48,0,.559,0,.559-.323V99.227C138.284,98.875,138.227,98.825,137.725,98.825Z" transform="translate(-2.867 -1.567)"/><path d="M143.326,101.594a.937.937,0,0,0,.941-.753c.014-.043.028-.071.093-.071.021,0,.093,0,.093.071a1.18,1.18,0,0,1-1.191.933,1.588,1.588,0,0,1-1.542-1.629,1.608,1.608,0,0,1,1.557-1.664c.552,0,1.1.28,1.1.768a.33.33,0,1,1-.659.007.323.323,0,0,1,.336-.33,1.172,1.172,0,0,0-.767-.266c-.381,0-.969.3-.969,1.471S142.947,101.594,143.326,101.594Z" transform="translate(-2.867 -1.567)"/><path d="M145.45,97.419c0-.351-.058-.4-.56-.4V96.8l1.034-.079v2.511a1.134,1.134,0,0,1,1.039-.7.959.959,0,0,1,.754.266c.222.258.222.48.222,1.1v1.37c.007.216.187.216.56.216v.222c-.244-.007-.618-.021-.8-.021s-.56.014-.812.021v-.222c.481,0,.56,0,.56-.323V99.478c0-.409-.079-.8-.53-.8a1.047,1.047,0,0,0-.969,1.147v1.321c0,.323.079.323.56.323v.222c-.244-.007-.618-.021-.8-.021s-.56.014-.811.021v-.222c.481,0,.56,0,.56-.323Z" transform="translate(-2.867 -1.567)"/><path d="M151.231,100.511v-.222l2.2-3.365c.058-.086.08-.086.144-.086.115,0,.115.043.115.187v3.264h.717v.222h-.717v.624c0,.259.014.338.546.338h.15v.222c-.3-.021-.675-.021-.976-.021s-.674,0-.969.021v-.222h.151c.531,0,.545-.079.545-.338v-.624Zm1.952-2.9-1.751,2.676h1.751Z" transform="translate(-2.867 -1.567)"/><path class="cls-2" d="M57.812,92.6a1.432,1.432,0,0,1-1.562,1.281H53.5v-.217h.169c.539,0,.553-.077.553-.329V89.648c0-.252-.014-.329-.553-.329H53.5V89.1h2.564a1.4,1.4,0,0,1,1.554,1.183c0,.519-.482.967-1.162,1.1A1.375,1.375,0,0,1,57.812,92.6Zm-1.989-1.282a1.057,1.057,0,0,0,1.121-1.037.93.93,0,0,0-.925-.966h-.868c-.329,0-.344.049-.344.28v1.723ZM57.112,92.6a1.05,1.05,0,0,0-.988-1.121H54.807v1.912c0,.231.015.28.344.28h.875A1.059,1.059,0,0,0,57.112,92.6Z" transform="translate(-2.867 -1.567)"/><path class="cls-2" d="M60.24,90.79a.478.478,0,0,1,.518.427.294.294,0,0,1-.3.308.29.29,0,0,1-.3-.3.3.3,0,0,1,.161-.273.18.18,0,0,0-.077-.007c-.533,0-.827.623-.827,1.316v1.079c0,.252.014.329.533.329h.146v.217c-.279-.021-.608-.021-.889-.021-.2,0-.525.015-.8.021v-.217c.469,0,.546,0,.546-.315V91.476c0-.343-.056-.392-.546-.392v-.217l.973-.077v.77A.981.981,0,0,1,60.24,90.79Z" transform="translate(-2.867 -1.567)"/><path class="cls-2" d="M62.36,93.963c-.441,0-1.12-.176-1.12-.743a1.018,1.018,0,0,1,.7-.91,3.391,3.391,0,0,1,1.289-.253V91.8a.794.794,0,0,0-.742-.9.984.984,0,0,0-.757.322c.322.007.357.238.357.322a.322.322,0,1,1-.644-.007c0-.462.483-.791,1.057-.791a1.335,1.335,0,0,1,.959.385,1.033,1.033,0,0,1,.253.826v1.4c0,.035.028.35.259.35.077,0,.252-.042.252-.448V92.87H64.4v.392a.594.594,0,0,1-.574.665.586.586,0,0,1-.546-.574A.969.969,0,0,1,62.36,93.963Zm-.581-.75a.6.6,0,0,0,.631.6.841.841,0,0,0,.819-.9v-.7C62.073,92.247,61.779,92.828,61.779,93.213Z" transform="translate(-2.867 -1.567)"/><path class="cls-2" d="M64.669,91.084v-.217l.988-.077v.735a1.1,1.1,0,0,1,1.037-.735.933.933,0,0,1,.735.259c.217.252.217.469.217,1.071v1.338c.007.21.182.21.547.21v.217c-.239-.006-.6-.021-.785-.021s-.546.015-.791.021v-.217c.469,0,.545,0,.545-.315V91.721c0-.4-.076-.777-.517-.777a1.023,1.023,0,0,0-.945,1.121v1.288c0,.315.076.315.545.315v.217c-.238-.006-.6-.021-.784-.021s-.547.015-.792.021v-.217c.47,0,.547,0,.547-.315V91.476C65.216,91.133,65.16,91.084,64.669,91.084Z" transform="translate(-2.867 -1.567)"/><path class="cls-2" d="M70.137,93.787a.915.915,0,0,0,.918-.735c.014-.042.027-.07.091-.07.02,0,.091,0,.091.07a1.152,1.152,0,0,1-1.162.911,1.55,1.55,0,0,1-1.506-1.59,1.568,1.568,0,0,1,1.519-1.625c.539,0,1.072.273,1.072.749a.323.323,0,1,1-.645.007.316.316,0,0,1,.329-.322,1.14,1.14,0,0,0-.749-.259c-.371,0-.945.294-.945,1.436S69.766,93.787,70.137,93.787Z" transform="translate(-2.867 -1.567)"/><path class="cls-2" d="M72.208,89.711c0-.343-.055-.392-.546-.392V89.1l1.008-.077v2.451a1.109,1.109,0,0,1,1.016-.686.932.932,0,0,1,.735.259c.218.252.218.469.218,1.071v1.338c.007.21.182.21.546.21v.217c-.238-.006-.6-.021-.784-.021s-.546.015-.791.021v-.217c.468,0,.546,0,.546-.315V91.721c0-.4-.078-.777-.519-.777a1.023,1.023,0,0,0-.945,1.121v1.288c0,.315.077.315.546.315v.217c-.238-.006-.6-.021-.785-.021s-.545.015-.791.021v-.217c.469,0,.546,0,.546-.315Z" transform="translate(-2.867 -1.567)"/><path class="cls-2" d="M79.272,94.04A1.287,1.287,0,0,1,78,92.758a.348.348,0,1,1,.344.315.312.312,0,0,1-.119-.014,1.091,1.091,0,0,0,1.029.784.876.876,0,0,0,.749-.455,2.026,2.026,0,0,0,.169-.96,2.17,2.17,0,0,0-.126-.882.685.685,0,0,0-.6-.448,1.051,1.051,0,0,0-.9.49c-.028.042-.042.063-.091.063-.1,0-.1-.056-.1-.182V89.4c0-.112,0-.168.07-.168a.209.209,0,0,1,.084.021,2.274,2.274,0,0,0,.932.2,2.32,2.32,0,0,0,.952-.2.1.1,0,0,1,.055-.021.068.068,0,0,1,.071.077,1.527,1.527,0,0,1-1.352.729,2.235,2.235,0,0,1-.6-.092V91.3a1.235,1.235,0,0,1,.89-.357A1.437,1.437,0,0,1,80.8,92.478,1.548,1.548,0,0,1,79.272,94.04Z" transform="translate(-2.867 -1.567)"/><path class="cls-2" d="M6.446,65.686a1.434,1.434,0,0,1,1.282,1.563v2.745H7.511v-.168c0-.539-.077-.554-.329-.554H3.491c-.252,0-.329.015-.329.554v.168H2.944V67.43a1.406,1.406,0,0,1,1.184-1.554c.518,0,.967.483,1.1,1.163A1.376,1.376,0,0,1,6.446,65.686Zm-1.281,1.99a1.057,1.057,0,0,0-1.037-1.121.931.931,0,0,0-.966.924v.869c0,.33.048.343.28.343H5.165Zm1.274-1.288a1.048,1.048,0,0,0-1.12.987v1.316H7.231c.231,0,.28-.013.28-.343v-.876A1.057,1.057,0,0,0,6.439,66.388Z" transform="translate(-2.867 -1.567)"/><path class="cls-2" d="M4.632,63.259a.478.478,0,0,1,.428-.518.294.294,0,0,1,.308.3.29.29,0,0,1-.3.3.3.3,0,0,1-.273-.161.205.205,0,0,0-.006.077c0,.532.623.827,1.316.827H7.182c.252,0,.329-.015.329-.532v-.148h.217c-.021.28-.021.609-.021.89,0,.2.014.525.021.8H7.511c0-.469,0-.546-.315-.546H5.319c-.343,0-.393.055-.393.546H4.709l-.077-.973H5.4A.984.984,0,0,1,4.632,63.259Z" transform="translate(-2.867 -1.567)"/><path class="cls-2" d="M7.805,61.138c0,.442-.175,1.122-.743,1.122a1.021,1.021,0,0,1-.91-.7A3.4,3.4,0,0,1,5.9,60.27H5.641a.793.793,0,0,0-.9.743.98.98,0,0,0,.321.755.318.318,0,0,1,.323-.356.322.322,0,1,1-.007.644c-.463,0-.792-.483-.792-1.057a1.338,1.338,0,0,1,.386-.96,1.035,1.035,0,0,1,.826-.252H7.2c.035,0,.35-.028.35-.26,0-.076-.042-.252-.449-.252H6.712V59.1H7.1a.6.6,0,0,1,.666.575.586.586,0,0,1-.574.546A.969.969,0,0,1,7.805,61.138Zm-.749.582a.6.6,0,0,0,.595-.63.841.841,0,0,0-.9-.82h-.7C6.089,61.426,6.67,61.72,7.056,61.72Z" transform="translate(-2.867 -1.567)"/><path class="cls-2" d="M4.926,58.829H4.709l-.077-.987h.736a1.107,1.107,0,0,1-.736-1.037.929.929,0,0,1,.26-.735c.252-.218.469-.218,1.071-.218H7.3c.21-.006.21-.181.21-.546h.217c-.007.239-.021.6-.021.785s.014.546.021.791H7.511c0-.469,0-.546-.315-.546H5.564c-.4,0-.777.077-.777.518a1.022,1.022,0,0,0,1.12.946H7.2c.315,0,.315-.078.315-.546h.217c-.007.237-.021.6-.021.784s.014.546.021.791H7.511c0-.469,0-.546-.315-.546H5.319C4.976,58.283,4.926,58.339,4.926,58.829Z" transform="translate(-2.867 -1.567)"/><path class="cls-2" d="M7.63,53.361a.914.914,0,0,0-.735-.917c-.042-.014-.07-.028-.07-.091,0-.021,0-.091.07-.091a1.152,1.152,0,0,1,.91,1.163,1.55,1.55,0,0,1-1.59,1.505A1.57,1.57,0,0,1,4.59,53.411c0-.54.273-1.072.75-1.072a.322.322,0,1,1,.007.644.317.317,0,0,1-.323-.329,1.14,1.14,0,0,0-.258.749c0,.372.294.946,1.435.946S7.63,53.733,7.63,53.361Z" transform="translate(-2.867 -1.567)"/><path class="cls-2" d="M3.554,51.29c-.344,0-.392.056-.392.547H2.944l-.077-1.009H5.319a1.109,1.109,0,0,1-.687-1.016.929.929,0,0,1,.26-.735c.252-.217.469-.217,1.071-.217H7.3c.21-.007.21-.182.21-.547h.217c-.007.239-.021.6-.021.785s.014.546.021.791H7.511c0-.469,0-.545-.315-.545H5.564c-.4,0-.777.076-.777.517a1.022,1.022,0,0,0,1.12.945H7.2c.315,0,.315-.076.315-.545h.217c-.007.238-.021.6-.021.784s.014.547.021.792H7.511c0-.47,0-.547-.315-.547Z" transform="translate(-2.867 -1.567)"/><path class="cls-2" d="M4.737,44.045a1.469,1.469,0,0,1,1.562-1.4,1.5,1.5,0,0,1,1.583,1.444c0,.651-.5,1.464-2.367,1.464-1.548,0-2.452-.947-2.452-1.843,0-.581.337-.89.757-.89a.323.323,0,1,1,.014.645c-.315,0-.315-.281-.315-.385a.722.722,0,0,0-.28.616c0,.358.252,1.226,2.024,1.226h.168A.969.969,0,0,1,4.737,44.045Zm2.494-.652a2.339,2.339,0,0,0-.939-.119,2.315,2.315,0,0,0-.959.126.675.675,0,0,0-.435.652c0,.629.7.854,1.247.854a3.423,3.423,0,0,0,1.016-.126.807.807,0,0,0,.525-.693A.733.733,0,0,0,7.231,43.393Z" transform="translate(-2.867 -1.567)"/><path class="cls-2" d="M75.858,69.642A1.433,1.433,0,0,1,77.14,71.2V73.95h-.217v-.169c0-.539-.077-.553-.33-.553H72.9c-.252,0-.33.014-.33.553v.169h-.217V71.386a1.405,1.405,0,0,1,1.184-1.554,1.271,1.271,0,0,1,1.1,1.162A1.376,1.376,0,0,1,75.858,69.642Zm-1.282,1.99a1.056,1.056,0,0,0-1.036-1.121.931.931,0,0,0-.967.924V72.3c0,.329.049.343.281.343h1.722Zm1.275-1.289a1.049,1.049,0,0,0-1.12.987v1.317h1.912c.231,0,.28-.014.28-.343v-.876A1.059,1.059,0,0,0,75.851,70.343Z" transform="translate(-2.867 -1.567)"/><path class="cls-2" d="M74.044,67.215a.479.479,0,0,1,.427-.519.294.294,0,0,1,.308.3.29.29,0,0,1-.3.3.3.3,0,0,1-.273-.161.177.177,0,0,0-.007.077c0,.532.623.826,1.317.826h1.078c.253,0,.33-.014.33-.532v-.147h.217c-.021.28-.021.609-.021.889,0,.2.014.526.021.8h-.217c0-.47,0-.546-.315-.546H74.731c-.344,0-.393.055-.393.546h-.217l-.077-.974h.771A.98.98,0,0,1,74.044,67.215Z" transform="translate(-2.867 -1.567)"/><path class="cls-2" d="M77.217,65.094c0,.441-.175,1.121-.743,1.121a1.02,1.02,0,0,1-.91-.7,3.407,3.407,0,0,1-.252-1.288h-.259a.793.793,0,0,0-.9.742.983.983,0,0,0,.322.756.318.318,0,0,1,.322-.357.323.323,0,1,1-.006.645c-.463,0-.792-.483-.792-1.058A1.337,1.337,0,0,1,74.387,64a1.036,1.036,0,0,1,.827-.253h1.4c.036,0,.351-.027.351-.259,0-.077-.042-.252-.449-.252h-.392v-.175h.392a.6.6,0,0,1,.666.575.586.586,0,0,1-.574.546A.968.968,0,0,1,77.217,65.094Zm-.75.581a.6.6,0,0,0,.6-.63.841.841,0,0,0-.9-.819h-.7C75.5,65.382,76.082,65.675,76.467,65.675Z" transform="translate(-2.867 -1.567)"/><path class="cls-2" d="M74.338,62.785h-.217l-.077-.987h.735a1.106,1.106,0,0,1-.735-1.037.932.932,0,0,1,.259-.735c.252-.218.47-.218,1.072-.218h1.338c.21-.007.21-.182.21-.546h.217c-.007.238-.021.6-.021.785s.014.545.021.791h-.217c0-.47,0-.546-.315-.546H74.976c-.4,0-.778.076-.778.518a1.023,1.023,0,0,0,1.121.945h1.289c.315,0,.315-.077.315-.546h.217c-.007.238-.021.6-.021.784s.014.547.021.792h-.217c0-.469,0-.547-.315-.547H74.731C74.387,62.238,74.338,62.3,74.338,62.785Z" transform="translate(-2.867 -1.567)"/><path class="cls-2" d="M77.042,57.317a.914.914,0,0,0-.736-.917c-.042-.014-.07-.028-.07-.091,0-.021,0-.092.07-.092a1.153,1.153,0,0,1,.911,1.163,1.55,1.55,0,0,1-1.59,1.506A1.569,1.569,0,0,1,74,57.366c0-.539.273-1.071.75-1.071a.322.322,0,1,1,.006.644.316.316,0,0,1-.322-.329,1.141,1.141,0,0,0-.259.749c0,.372.294.946,1.436.946C76.74,58.305,77.042,57.689,77.042,57.317Z" transform="translate(-2.867 -1.567)"/><path class="cls-2" d="M72.966,55.246c-.344,0-.393.056-.393.546h-.217l-.077-1.008h2.452a1.109,1.109,0,0,1-.687-1.016.933.933,0,0,1,.259-.735c.252-.217.47-.217,1.072-.217h1.338c.21-.007.21-.183.21-.547h.217c-.007.239-.021.6-.021.785s.014.546.021.791h-.217c0-.469,0-.546-.315-.546H74.976c-.4,0-.778.077-.778.518a1.023,1.023,0,0,0,1.121.945h1.289c.315,0,.315-.076.315-.545h.217c-.007.237-.021.6-.021.784s.014.546.021.791h-.217c0-.469,0-.546-.315-.546Z" transform="translate(-2.867 -1.567)"/><path class="cls-2" d="M74.205,47.412a3.077,3.077,0,0,0,1.2.434,7.843,7.843,0,0,0,1.148.077h.358c.07,0,.385,0,.385.322s-.315.322-.385.322a4.9,4.9,0,0,1-2.634-.861c-.231-.154-.994-.707-1.106-.784v1.449a3.557,3.557,0,0,0,.042.687,1.956,1.956,0,0,0,.637.175v.175l-1.443-.232V49c.133-.029.225-.042.225-.9V46.4c.147,0,.161,0,.245.063Z" transform="translate(-2.867 -1.567)"/><path class="cls-2" d="M132.3,54.526a1.433,1.433,0,0,1-1.282-1.562V50.218h.218v.168c0,.539.076.554.329.554h3.691c.252,0,.329-.015.329-.554v-.168h.217v2.563a1.406,1.406,0,0,1-1.184,1.555c-.518,0-.966-.483-1.1-1.163A1.377,1.377,0,0,1,132.3,54.526Zm1.282-1.99a1.056,1.056,0,0,0,1.036,1.121.93.93,0,0,0,.967-.924v-.869c0-.329-.049-.343-.281-.343h-1.722Zm-1.275,1.289a1.049,1.049,0,0,0,1.12-.987V51.521h-1.912c-.231,0-.279.014-.279.343v.875A1.058,1.058,0,0,0,132.306,53.825Z" transform="translate(-2.867 -1.567)"/><path class="cls-2" d="M134.113,56.953a.478.478,0,0,1-.427.518.294.294,0,0,1-.308-.3.29.29,0,0,1,.3-.3.3.3,0,0,1,.273.161.177.177,0,0,0,.007-.077c0-.532-.623-.826-1.317-.826h-1.078c-.253,0-.329.014-.329.532v.147h-.218c.021-.28.021-.609.021-.889,0-.2-.014-.526-.021-.8h.218c0,.47,0,.546.315.546h1.876c.344,0,.393-.055.393-.546h.217l.077.973h-.77A.983.983,0,0,1,134.113,56.953Z" transform="translate(-2.867 -1.567)"/><path class="cls-2" d="M130.94,59.073c0-.441.175-1.12.743-1.12a1.02,1.02,0,0,1,.91.7,3.411,3.411,0,0,1,.252,1.289h.259a.793.793,0,0,0,.9-.742.985.985,0,0,0-.322-.757c-.007.322-.238.357-.322.357a.322.322,0,1,1,.007-.644c.462,0,.791.483.791,1.058a1.337,1.337,0,0,1-.385.959,1.037,1.037,0,0,1-.826.252h-1.4c-.035,0-.35.028-.35.26,0,.076.042.252.448.252h.392v.174h-.392a.594.594,0,0,1-.666-.574.586.586,0,0,1,.575-.546A.968.968,0,0,1,130.94,59.073Zm.75-.581a.6.6,0,0,0-.6.631.841.841,0,0,0,.9.819h.7C132.656,58.786,132.075,58.492,131.69,58.492Z" transform="translate(-2.867 -1.567)"/><path class="cls-2" d="M133.819,61.383h.217l.077.987h-.735a1.106,1.106,0,0,1,.735,1.037.932.932,0,0,1-.259.735c-.252.218-.469.218-1.072.218h-1.337c-.21.006-.21.182-.21.546h-.218c.007-.238.021-.6.021-.785s-.014-.546-.021-.791h.218c0,.469,0,.546.315.546h1.631c.4,0,.778-.077.778-.518a1.023,1.023,0,0,0-1.121-.945H131.55c-.315,0-.315.076-.315.546h-.218c.007-.238.021-.6.021-.785s-.014-.546-.021-.791h.218c0,.469,0,.546.315.546h1.876C133.77,61.929,133.819,61.873,133.819,61.383Z" transform="translate(-2.867 -1.567)"/><path class="cls-2" d="M131.115,66.851a.914.914,0,0,0,.736.917c.042.014.07.028.07.091,0,.021,0,.091-.07.091a1.152,1.152,0,0,1-.911-1.162,1.55,1.55,0,0,1,1.59-1.506,1.569,1.569,0,0,1,1.625,1.519c0,.54-.273,1.072-.749,1.072a.322.322,0,1,1-.007-.644.316.316,0,0,1,.322.329,1.141,1.141,0,0,0,.259-.749c0-.372-.294-.946-1.436-.946S131.115,66.479,131.115,66.851Z" transform="translate(-2.867 -1.567)"/><path class="cls-2" d="M135.192,68.922c.343,0,.392-.056.392-.546h.217l.077,1.008h-2.452a1.107,1.107,0,0,1,.687,1.016.933.933,0,0,1-.259.735c-.252.217-.469.217-1.072.217h-1.337c-.21.007-.21.182-.21.547h-.218c.007-.239.021-.6.021-.785s-.014-.546-.021-.791h.218c0,.469,0,.546.315.546h1.631c.4,0,.778-.077.778-.518a1.023,1.023,0,0,0-1.121-.946H131.55c-.315,0-.315.077-.315.546h-.218c.007-.237.021-.6.021-.784s-.014-.546-.021-.791h.218c0,.469,0,.546.315.546Z" transform="translate(-2.867 -1.567)"/><path class="cls-2" d="M133.055,77.225a1.262,1.262,0,0,1-.861.344,1.4,1.4,0,0,1-1.331-1.457,1.337,1.337,0,0,1,1.212-1.45,1.548,1.548,0,0,1,1.289,1.009,4.412,4.412,0,0,1,.378-.511,1.116,1.116,0,0,1,.77-.309,1.218,1.218,0,0,1,1.17,1.268,1.158,1.158,0,0,1-1.044,1.261,1.3,1.3,0,0,1-1.086-.848A2.921,2.921,0,0,1,133.055,77.225Zm-.98-2.213a1.056,1.056,0,0,0-1.016,1.107,1.008,1.008,0,0,0,.883,1.1.937.937,0,0,0,.77-.525l.547-.861A1.375,1.375,0,0,0,132.075,75.012Zm1.583,1.367a1.19,1.19,0,0,0,.98.693.913.913,0,0,0,.869-.96c0-.5-.294-.952-.722-.952a.651.651,0,0,0-.567.349Z" transform="translate(-2.867 -1.567)"/><polyline class="cls-4" points="102.066 37.571 125.593 37.572 125.593 62.546 125.593 87.082 102.1 87.082"/><polyline class="cls-4" points="174.051 22.422 195.078 22.423 195.078 62.79 195.078 102.448 174.085 102.448"/><polyline class="cls-4" points="28.445 22.422 7.418 22.422 7.418 55.039 7.418 87.082 28.411 87.082"/></svg>