<?xml version="1.0" encoding="UTF-8"?>
<svg id="Layer_1" data-name="Layer 1" xmlns="http://www.w3.org/2000/svg" viewBox="0 0 206.618 131.903">
  <defs>
    <style>
      .cls-1, .cls-2, .cls-3, .cls-4 {
        stroke-miterlimit: 10;
      }

      .cls-1, .cls-2, .cls-4 {
        stroke: #231f20;
      }

      .cls-1, .cls-3 {
        fill: none;
      }

      .cls-2 {
        fill: #fff;
      }

      .cls-3 {
        stroke: #010101;
        stroke-width: 1.9px;
      }

      .cls-4 {
        fill: #ed1c24;
        stroke-width: .5px;
      }

      .cls-5 {
        fill: #231f20;
      }
    </style>
  </defs>
  <g>
    <path d="m26.482,3.745c0,.674-.645,1.313-1.599,1.313h-2.812v-.222h.172c.553,0,.567-.079.567-.337V.717c0-.258-.014-.337-.567-.337h-.172v-.222h2.625c.933,0,1.593.588,1.593,1.212,0,.531-.495.99-1.191,1.127.796.086,1.384.624,1.384,1.248Zm-2.037-1.313c.796,0,1.148-.603,1.148-1.062,0-.38-.251-.99-.947-.99h-.89c-.337,0-.351.05-.351.287v1.765h1.04Zm1.32,1.306c0-.481-.301-1.148-1.011-1.148h-1.349v1.959c0,.237.014.287.351.287h.897c.739,0,1.112-.588,1.112-1.097Z"/>
    <path d="m28.77,5.136c-1.09,0-1.09-.653-1.09-1.212v-1.076c0-.638,0-.66-.56-.66v-.222l1.055-.08v2.382c0,.373.028.71.631.71.524,0,.868-.488.868-1.112v-1.278c0-.352-.058-.402-.56-.402v-.222l1.055-.08v2.548c0,.352.057.401.559.401v.222l-1.033.079v-.646c-.208.445-.524.646-.925.646Z"/>
    <path d="m31.417,3.336c-.194-.158-.309-.359-.309-.61,0-.401.273-.882,1.148-.882.108,0,.402,0,.675.201.028-.022.1-.087.122-.115.093-.087.108-.087.144-.087.079,0,.079.051.079.172v.725c0,.136,0,.172-.093.172-.014,0-.079,0-.086-.065-.014-.223-.05-.868-.839-.868-.617,0-.803.294-.803.546,0,.416.481.509.882.588.301.058.581.115.818.344.086.086.301.301.301.681,0,.517-.33.997-1.155.997-.151,0-.474-.007-.789-.308-.129.137-.129.151-.143.165-.136.137-.143.143-.179.143-.079,0-.079-.05-.079-.172v-.947c0-.129,0-.179.093-.179.072,0,.079.029.1.122.136.61.395,1.019.997,1.019.56,0,.811-.287.811-.652,0-.517-.588-.631-.746-.66-.516-.101-.717-.144-.947-.33Z"/>
    <path d="m38.195,4.491c0,.266.022.344.667.344h.23v.222c-.251-.021-.875-.021-1.162-.021s-.911,0-1.162.021v-.222h.229c.645,0,.667-.086.667-.344V.775c-.373.186-.796.186-.94.186v-.222c.23,0,.861,0,1.306-.459.165,0,.165.014.165.186v4.025Z"/>
  </g>
  <line class="cls-3" x1="30.581" y1="7.455" x2="30.581" y2="37.389"/>
  <g>
    <path class="cls-5" d="m26.45,68.312c0,.658-.631,1.282-1.562,1.282h-2.745v-.217h.168c.539,0,.554-.077.554-.329v-3.691c0-.252-.015-.329-.554-.329h-.168v-.217h2.563c.91,0,1.555.574,1.555,1.184,0,.519-.483.967-1.163,1.1.778.084,1.353.609,1.353,1.219Zm-1.989-1.282c.777,0,1.12-.588,1.12-1.037,0-.371-.245-.966-.924-.966h-.869c-.329,0-.343.049-.343.28v1.723h1.016Zm1.288,1.275c0-.469-.294-1.121-.987-1.121h-1.316v1.912c0,.231.014.28.343.28h.876c.722,0,1.085-.574,1.085-1.071Z"/>
    <path class="cls-5" d="m28.681,69.671c-1.064,0-1.064-.638-1.064-1.184v-1.051c0-.623,0-.645-.547-.645v-.217l1.03-.077v2.325c0,.364.027.693.616.693.511,0,.847-.476.847-1.085v-1.247c0-.343-.056-.393-.546-.393v-.217l1.029-.077v2.486c0,.343.057.392.547.392v.217l-1.009.077v-.63c-.203.434-.512.63-.903.63Z"/>
    <path class="cls-5" d="m31.263,67.913c-.189-.154-.302-.351-.302-.596,0-.392.267-.861,1.121-.861.105,0,.393,0,.658.196.028-.021.098-.084.119-.112.091-.084.105-.084.14-.084.077,0,.077.049.077.168v.708c0,.133,0,.168-.091.168-.014,0-.077,0-.084-.063-.014-.217-.049-.847-.819-.847-.603,0-.784.287-.784.532,0,.406.469.497.861.574.294.056.567.112.798.336.084.084.295.294.295.666,0,.504-.322.974-1.128.974-.147,0-.462-.007-.771-.301-.126.133-.126.147-.14.161-.134.133-.141.14-.176.14-.077,0-.077-.049-.077-.168v-.925c0-.126,0-.175.092-.175.069,0,.077.028.098.119.133.596.386.995.974.995.546,0,.791-.28.791-.637,0-.504-.574-.616-.728-.645-.505-.098-.701-.14-.925-.322Z"/>
    <path class="cls-5" d="m37.62,66.603c.777,0,1.4.672,1.4,1.562,0,.924-.665,1.583-1.442,1.583-.651,0-1.464-.498-1.464-2.368,0-1.548.945-2.451,1.842-2.451.581,0,.89.336.89.756,0,.273-.21.336-.322.336-.154,0-.322-.105-.322-.322,0-.315.28-.315.386-.315-.154-.238-.448-.28-.616-.28-.357,0-1.227.252-1.227,2.024v.168c.141-.336.399-.693.876-.693Zm.651,2.494c.119-.252.119-.603.119-.938,0-.343,0-.701-.126-.96-.218-.434-.539-.434-.651-.434-.631,0-.854.701-.854,1.247,0,.126,0,.687.126,1.016.042.105.252.525.693.525.161,0,.483-.035.693-.455Z"/>
  </g>
  <line class="cls-3" x1="103.288" y1="15.079" x2="103.288" y2="45.012"/>
  <g>
    <path d="m99.082,11.368c0,.674-.645,1.313-1.6,1.313h-2.812v-.223h.172c.553,0,.567-.079.567-.337v-3.781c0-.258-.014-.338-.567-.338h-.172v-.222h2.625c.933,0,1.593.589,1.593,1.212,0,.531-.495.99-1.191,1.126.796.086,1.384.624,1.384,1.249Zm-2.037-1.314c.796,0,1.148-.602,1.148-1.062,0-.38-.251-.99-.947-.99h-.889c-.337,0-.351.051-.351.287v1.765h1.04Zm1.32,1.306c0-.48-.301-1.147-1.011-1.147h-1.349v1.958c0,.237.014.287.351.287h.897c.739,0,1.112-.588,1.112-1.097Z"/>
    <path d="m101.369,12.76c-1.09,0-1.09-.652-1.09-1.212v-1.076c0-.639,0-.659-.56-.659v-.223l1.055-.079v2.381c0,.373.028.711.631.711.524,0,.868-.488.868-1.112v-1.277c0-.352-.058-.401-.56-.401v-.223l1.055-.079v2.547c0,.352.057.401.559.401v.223l-1.033.079v-.646c-.208.444-.524.646-.926.646Z"/>
    <path d="m104.016,10.959c-.194-.157-.309-.359-.309-.61,0-.402.273-.882,1.148-.882.108,0,.402,0,.675.2.028-.021.1-.086.122-.115.093-.086.107-.086.143-.086.079,0,.079.05.079.172v.724c0,.136,0,.172-.093.172-.014,0-.079,0-.086-.065-.014-.222-.05-.868-.84-.868-.617,0-.803.294-.803.545,0,.416.481.509.883.588.301.057.581.115.818.344.086.086.301.302.301.682,0,.516-.33.997-1.155.997-.151,0-.474-.007-.789-.309-.129.136-.129.151-.143.165-.136.136-.143.143-.179.143-.079,0-.079-.05-.079-.172v-.947c0-.129,0-.179.094-.179.072,0,.079.029.1.122.136.61.395,1.019.997,1.019.56,0,.811-.287.811-.653,0-.517-.588-.631-.746-.66-.516-.1-.717-.143-.947-.33Z"/>
    <path d="m110.888,12.129c.158,0,.631,0,.681-.058.072-.108.122-.423.158-.638h.179l-.201,1.249h-2.662c0-.172,0-.187.079-.266l1.377-1.535c.394-.445.753-1.012.753-1.586,0-.589-.308-1.169-.961-1.169-.416,0-.804.265-.968.731.021-.007.036-.007.093-.007.251,0,.38.187.38.373,0,.294-.251.38-.373.38-.021,0-.38,0-.38-.402,0-.639.531-1.299,1.342-1.299.875,0,1.521.574,1.521,1.392,0,.717-.43,1.105-1.549,2.095l-.76.739h1.291Z"/>
  </g>
  <line class="cls-2" x1="30.581" y1="22.422" x2="102.53" y2="22.422"/>
  <line class="cls-3" x1="175.661" y1="87.388" x2="175.661" y2="117.322"/>
  <polyline class="cls-1" points="103.027 37.571 78.831 37.571 78.829 79.647 31.108 79.648"/>
  <line class="cls-2" x1="30.81" y1="94.765" x2="102.759" y2="94.765"/>
  <line class="cls-3" x1="30.581" y1="102.141" x2="30.581" y2="72.207"/>
  <line class="cls-2" x1="103.505" y1="102.448" x2="175.454" y2="102.448"/>
  <line class="cls-3" x1="103.288" y1="79.798" x2="103.288" y2="109.732"/>
  <line class="cls-2" x1="103.505" y1="22.422" x2="175.454" y2="22.422"/>
  <line class="cls-3" x1="175.661" y1="7.455" x2="175.661" y2="37.389"/>
  <g>
    <path d="m171.425,3.587c0,.675-.645,1.313-1.6,1.313h-2.812v-.223h.172c.553,0,.567-.079.567-.337V.559c0-.257-.014-.337-.567-.337h-.172v-.222h2.625c.933,0,1.593.588,1.593,1.212,0,.531-.495.99-1.191,1.126.796.086,1.384.624,1.384,1.248Zm-2.037-1.313c.796,0,1.148-.602,1.148-1.062,0-.38-.251-.99-.947-.99h-.889c-.337,0-.351.05-.351.287v1.765h1.04Zm1.32,1.306c0-.481-.301-1.147-1.011-1.147h-1.349v1.958c0,.237.014.287.351.287h.897c.739,0,1.112-.588,1.112-1.098Z"/>
    <path d="m173.713,4.979c-1.09,0-1.09-.653-1.09-1.212v-1.077c0-.638,0-.66-.56-.66v-.222l1.055-.079v2.381c0,.373.028.711.631.711.524,0,.868-.488.868-1.112v-1.277c0-.352-.058-.402-.56-.402v-.222l1.055-.079v2.547c0,.351.057.401.559.401v.223l-1.033.079v-.645c-.208.444-.524.645-.926.645Z"/>
    <path d="m176.36,3.177c-.194-.158-.309-.359-.309-.609,0-.402.273-.883,1.148-.883.108,0,.402,0,.675.201.028-.021.1-.086.122-.115.093-.086.108-.086.143-.086.079,0,.079.051.079.173v.724c0,.136,0,.172-.093.172-.014,0-.079,0-.086-.065-.014-.223-.05-.868-.84-.868-.617,0-.803.294-.803.546,0,.416.481.509.882.588.301.058.581.115.818.345.086.086.301.301.301.682,0,.516-.33.997-1.155.997-.151,0-.473-.007-.789-.309-.129.136-.129.151-.143.165-.136.136-.143.144-.179.144-.079,0-.079-.051-.079-.172v-.947c0-.13,0-.179.094-.179.072,0,.079.029.1.122.136.61.395,1.02.997,1.02.56,0,.811-.288.811-.653,0-.517-.589-.631-.746-.66-.516-.1-.717-.143-.947-.331Z"/>
    <path d="m184.308,3.673c0,.732-.653,1.384-1.528,1.384-.782,0-1.449-.474-1.449-1.126,0-.316.23-.416.402-.416.208,0,.402.143.402.402,0,.273-.223.43-.474.394.251.423.789.545,1.098.545.316,0,.811-.208.811-1.183,0-.703-.265-1.191-.854-1.191h-.315c-.122,0-.172,0-.172-.079,0-.072.05-.079.108-.086.05,0,.223-.014.28-.021.179-.007.423-.029.638-.373.187-.316.201-.732.201-.818,0-.645-.394-.803-.689-.803-.258,0-.732.093-.954.444.108,0,.445,0,.445.359,0,.208-.143.366-.366.366-.208,0-.366-.136-.366-.373,0-.546.545-.976,1.27-.976.689,0,1.32.402,1.32.99,0,.567-.416,1.069-1.004,1.263.746.15,1.198.71,1.198,1.299Z"/>
  </g>
  <g>
    <path d="m171.376,83.678c0,.674-.645,1.313-1.599,1.313h-2.812v-.223h.172c.553,0,.567-.079.567-.337v-3.781c0-.258-.014-.337-.567-.337h-.172v-.222h2.625c.933,0,1.593.588,1.593,1.212,0,.531-.495.99-1.19,1.127.796.086,1.384.624,1.384,1.249Zm-2.038-1.313c.797,0,1.148-.603,1.148-1.062,0-.38-.251-.99-.947-.99h-.889c-.337,0-.351.051-.351.287v1.765h1.04Zm1.32,1.306c0-.48-.302-1.148-1.012-1.148h-1.349v1.958c0,.237.014.287.351.287h.896c.739,0,1.112-.588,1.112-1.097Z"/>
    <path d="m173.663,85.069c-1.09,0-1.09-.653-1.09-1.212v-1.076c0-.639,0-.66-.56-.66v-.223l1.055-.079v2.382c0,.373.028.711.631.711.524,0,.868-.488.868-1.112v-1.277c0-.352-.058-.401-.56-.401v-.223l1.055-.079v2.547c0,.352.058.401.56.401v.223l-1.033.079v-.646c-.208.444-.524.646-.926.646Z"/>
    <path d="m176.31,83.269c-.194-.158-.309-.359-.309-.61,0-.402.273-.882,1.147-.882.108,0,.402,0,.675.2.028-.021.1-.086.122-.115.093-.086.108-.086.143-.086.079,0,.079.05.079.172v.724c0,.136,0,.172-.093.172-.015,0-.079,0-.086-.065-.014-.222-.05-.868-.84-.868-.617,0-.803.294-.803.545,0,.416.48.509.882.588.301.057.581.115.818.344.086.086.301.302.301.682,0,.516-.33.997-1.154.997-.151,0-.474-.007-.79-.309-.129.136-.129.151-.143.165-.136.136-.143.144-.179.144-.079,0-.079-.05-.079-.172v-.947c0-.129,0-.179.093-.179.072,0,.079.029.1.122.136.61.395,1.019.998,1.019.56,0,.811-.287.811-.653,0-.517-.588-.631-.747-.66-.516-.1-.717-.143-.946-.33Z"/>
    <path d="m181.18,83.807v-.222l2.203-3.364c.057-.086.079-.086.143-.086.115,0,.115.043.115.187v3.264h.717v.222h-.717v.624c0,.258.015.337.546.337h.15v.223c-.295-.022-.674-.022-.976-.022s-.674,0-.968.022v-.223h.15c.531,0,.545-.079.545-.337v-.624h-1.908Zm1.952-2.898l-1.751,2.676h1.751v-2.676Z"/>
  </g>
  <g>
    <path class="cls-5" d="m99.185,75.893c0,.658-.63,1.282-1.562,1.282h-2.746v-.217h.168c.539,0,.553-.077.553-.329v-3.691c0-.252-.014-.329-.553-.329h-.168v-.217h2.563c.911,0,1.555.574,1.555,1.184,0,.519-.483.967-1.163,1.1.778.084,1.352.609,1.352,1.219Zm-1.989-1.282c.777,0,1.121-.588,1.121-1.037,0-.371-.245-.966-.924-.966h-.869c-.329,0-.343.049-.343.28v1.723h1.016Zm1.289,1.275c0-.469-.294-1.121-.987-1.121h-1.317v1.912c0,.231.014.28.343.28h.875c.722,0,1.085-.574,1.085-1.071Z"/>
    <path class="cls-5" d="m101.416,77.252c-1.064,0-1.064-.638-1.064-1.184v-1.051c0-.623,0-.645-.546-.645v-.217l1.03-.077v2.325c0,.364.028.693.616.693.511,0,.847-.476.847-1.085v-1.247c0-.343-.056-.393-.546-.393v-.217l1.029-.077v2.486c0,.343.056.392.546.392v.217l-1.009.077v-.63c-.203.434-.511.63-.903.63Z"/>
    <path class="cls-5" d="m103.998,75.494c-.189-.154-.301-.351-.301-.596,0-.392.266-.861,1.121-.861.105,0,.393,0,.659.196.028-.021.098-.084.119-.112.091-.084.105-.084.14-.084.077,0,.077.049.077.168v.708c0,.133,0,.168-.091.168-.014,0-.077,0-.084-.063-.014-.217-.049-.847-.82-.847-.602,0-.784.287-.784.532,0,.406.469.497.861.574.294.056.567.112.798.336.084.084.294.294.294.666,0,.504-.322.974-1.128.974-.147,0-.462-.007-.77-.301-.126.133-.126.147-.14.161-.133.133-.14.14-.175.14-.077,0-.077-.049-.077-.168v-.925c0-.126,0-.175.091-.175.07,0,.077.028.098.119.133.596.385.995.973.995.546,0,.792-.28.792-.637,0-.504-.574-.616-.728-.645-.504-.098-.701-.14-.925-.322Z"/>
    <path class="cls-5" d="m110.173,77.329c-.784,0-1.268-.68-1.268-1.282,0-.322.245-.372.343-.372.231,0,.35.175.35.343s-.119.343-.35.343c-.077,0-.098-.007-.119-.014.119.414.519.785,1.03.785.322,0,.581-.182.75-.455.168-.294.168-.714.168-.96,0-.35-.014-.623-.126-.882-.056-.126-.231-.448-.596-.448-.567,0-.826.378-.903.49-.028.042-.042.063-.091.063-.098,0-.098-.056-.098-.182v-2.073c0-.112,0-.168.07-.168.014,0,.028,0,.084.021.329.147.651.196.932.196.469,0,.812-.14.953-.203.035-.021.049-.021.056-.021.049,0,.07.035.07.077,0,.091-.49.729-1.352.729-.224,0-.456-.049-.596-.091v1.366c.252-.245.554-.357.89-.357.756,0,1.331.7,1.331,1.534,0,.89-.714,1.562-1.527,1.562Z"/>
  </g>
  <polyline class="cls-1" points="104.066 37.571 127.593 37.572 127.593 62.546 127.593 87.082 104.1 87.082"/>
  <polyline class="cls-1" points="175.454 22.422 199.078 22.423 199.078 62.79 199.078 102.448 175.491 102.448"/>
  <polyline class="cls-1" points="30.053 22.422 7.418 22.422 7.418 55.039 7.418 87.082 30.017 87.082"/>
  <rect class="cls-4" x="100.454" y="111.48" width="5.669" height="5.669"/>
  <g>
    <path class="cls-5" d="m15.971,116.582c-.028.091-.042.14-.141.14-.091,0-.112-.07-.133-.133l-1.163-3.565-1.155,3.558c-.028.091-.042.14-.14.14-.092,0-.112-.07-.134-.133l-1.4-4.293c-.084-.259-.112-.294-.638-.294v-.217c.287.007.589.021.854.021s.743,0,.995-.021v.217c-.183,0-.589,0-.589.21,0,.021.007.07.015.091l1.127,3.446.974-3.005-.154-.49c-.084-.252-.23-.252-.63-.252v-.217c.287.007.588.021.854.021s.742,0,.994-.021v.217c-.182,0-.588,0-.588.21,0,.035.014.077.021.105l1.121,3.432,1.051-3.236c.014-.042.035-.098.035-.14,0-.133-.141-.364-.609-.371v-.217c.182.007.63.021.833.021.21,0,.428-.007.638-.021v.217c-.273,0-.574.07-.701.469l-1.337,4.111Z"/>
    <path class="cls-5" d="m19.546,116.645c-.44,0-1.12-.175-1.12-.743,0-.308.175-.672.7-.91.441-.21.932-.231,1.289-.252v-.259c0-.624-.399-.896-.742-.896-.225,0-.567.077-.757.322.322.007.357.238.357.322,0,.182-.126.322-.322.322-.183,0-.322-.119-.322-.329,0-.462.483-.792,1.058-.792.336,0,.687.112.959.385.253.259.253.532.253.826v1.401c0,.035.027.35.259.35.077,0,.252-.042.252-.448v-.392h.175v.392c0,.567-.427.666-.574.666-.329,0-.518-.294-.546-.574-.133.329-.455.609-.918.609Zm-.581-.75c0,.35.287.595.631.595.314,0,.819-.238.819-.903v-.7c-1.156.042-1.45.623-1.45,1.008Z"/>
    <path class="cls-5" d="m22.842,115.714c0,.119,0,.756.47.756.259,0,.47-.266.47-.784v-.385h.175v.399c0,.448-.196.946-.693.946-.252,0-.903-.084-.903-.946v-1.933h-.596v-.154c.687-.028.896-.777.903-1.352h.175v1.289h1.002v.217h-1.002v1.947Z"/>
    <path class="cls-5" d="m25.558,115.714c0,.119,0,.756.47.756.259,0,.47-.266.47-.784v-.385h.175v.399c0,.448-.196.946-.693.946-.252,0-.903-.084-.903-.946v-1.933h-.596v-.154c.687-.028.896-.777.903-1.352h.175v1.289h1.002v.217h-1.002v1.947Z"/>
    <path class="cls-5" d="m27.287,113.766v-.217l.987-.077v.735c.196-.434.525-.735,1.037-.735.315,0,.833.077.932.687.119-.266.427-.687,1.016-.687.406,0,.637.14.735.259.217.252.217.469.217,1.071v1.338c.007.21.183.21.546.21v.217c-.237-.007-.602-.021-.784-.021-.188,0-.546.014-.791.021v-.217c.469,0,.546,0,.546-.315v-1.632c0-.399-.077-.777-.519-.777-.448,0-.945.392-.945,1.121v1.289c0,.315.077.315.547.315v.217c-.238-.007-.603-.021-.785-.021-.188,0-.546.014-.791.021v-.217c.47,0,.546,0,.546-.315v-1.632c0-.399-.076-.777-.518-.777-.448,0-.945.392-.945,1.121v1.289c0,.315.076.315.546.315v.217c-.238-.007-.603-.021-.784-.021-.189,0-.547.014-.792.021v-.217c.47,0,.547,0,.547-.315v-1.877c0-.343-.057-.393-.547-.393Z"/>
    <path class="cls-5" d="m33.881,116.001c.161.259.441.469.791.469.07,0,.701,0,.946-.721.014-.056.027-.098.091-.098.035,0,.091.014.091.084,0,.133-.315.911-1.17.911-.805,0-1.54-.68-1.54-1.618,0-.875.644-1.597,1.456-1.597.876,0,1.254.679,1.254,1.373,0,.147-.021.147-.175.147h-1.954c0,.252,0,.714.21,1.05Zm1.457-1.198c0-.273-.07-1.218-.792-1.218-.238,0-.826.175-.868,1.218h1.66Z"/>
    <path class="cls-5" d="m37.213,115.714c0,.119,0,.756.469.756.26,0,.47-.266.47-.784v-.385h.175v.399c0,.448-.196.946-.693.946-.252,0-.903-.084-.903-.946v-1.933h-.595v-.154c.686-.028.896-.777.903-1.352h.175v1.289h1.002v.217h-1.002v1.947Z"/>
    <path class="cls-5" d="m39.705,116.001c.161.259.441.469.792.469.07,0,.7,0,.945-.721.014-.056.028-.098.091-.098.035,0,.092.014.092.084,0,.133-.315.911-1.17.911-.806,0-1.541-.68-1.541-1.618,0-.875.645-1.597,1.457-1.597.875,0,1.254.679,1.254,1.373,0,.147-.021.147-.176.147h-1.954c0,.252,0,.714.21,1.05Zm1.457-1.198c0-.273-.069-1.218-.791-1.218-.238,0-.826.175-.869,1.218h1.66Z"/>
    <path class="cls-5" d="m43.857,113.472c.301,0,.518.203.518.427s-.175.308-.301.308c-.154,0-.301-.105-.301-.301,0-.182.14-.266.16-.273-.014-.007-.027-.007-.076-.007-.532,0-.827.623-.827,1.316v1.079c0,.252.015.329.532.329h.147v.217c-.28-.021-.609-.021-.89-.021-.196,0-.525.014-.798.021v-.217c.469,0,.546,0,.546-.315v-1.877c0-.343-.056-.393-.546-.393v-.217l.973-.077v.771c.099-.301.351-.771.862-.771Z"/>
    <path class="cls-5" d="m48.693,113.577c.777,0,1.401.672,1.401,1.562,0,.924-.666,1.583-1.443,1.583-.651,0-1.464-.498-1.464-2.368,0-1.548.946-2.451,1.843-2.451.581,0,.889.336.889.756,0,.273-.21.336-.321.336-.154,0-.322-.105-.322-.322,0-.315.28-.315.385-.315-.154-.238-.448-.28-.616-.28-.357,0-1.226.252-1.226,2.024v.168c.14-.336.399-.693.875-.693Zm.651,2.494c.119-.252.119-.603.119-.938,0-.343,0-.701-.126-.96-.217-.434-.539-.434-.651-.434-.63,0-.854.701-.854,1.247,0,.126,0,.687.126,1.016.042.105.253.525.693.525.161,0,.483-.035.693-.455Z"/>
  </g>
  <g>
    <path class="cls-5" d="m88.499,123.928c-.028.091-.042.141-.14.141-.091,0-.112-.07-.133-.134l-1.163-3.564-1.155,3.558c-.028.091-.042.141-.14.141-.091,0-.112-.07-.133-.134l-1.401-4.293c-.084-.259-.112-.294-.637-.294v-.218c.287.008.588.021.854.021s.743,0,.995-.021v.218c-.182,0-.588,0-.588.21,0,.021.007.07.014.091l1.127,3.446.974-3.005-.154-.49c-.084-.252-.231-.252-.63-.252v-.218c.287.008.588.021.854.021s.743,0,.995-.021v.218c-.182,0-.588,0-.588.21,0,.035.014.077.021.104l1.121,3.433,1.051-3.236c.014-.042.035-.098.035-.14,0-.133-.14-.364-.609-.371v-.218c.182.008.63.021.833.021.21,0,.427-.007.637-.021v.218c-.273,0-.574.069-.701.469l-1.337,4.111Z"/>
    <path class="cls-5" d="m92.074,123.991c-.441,0-1.121-.176-1.121-.743,0-.308.175-.672.701-.91.441-.21.932-.231,1.289-.252v-.259c0-.624-.399-.896-.742-.896-.224,0-.567.076-.756.321.322.008.357.238.357.322,0,.183-.126.322-.322.322-.182,0-.322-.119-.322-.329,0-.462.483-.791,1.058-.791.336,0,.687.112.959.385.252.26.252.532.252.826v1.401c0,.035.028.35.259.35.077,0,.252-.042.252-.448v-.392h.175v.392c0,.567-.427.666-.574.666-.329,0-.518-.294-.546-.574-.133.329-.455.609-.917.609Zm-.581-.75c0,.351.287.596.63.596.315,0,.819-.238.819-.903v-.7c-1.156.042-1.45.623-1.45,1.008Z"/>
    <path class="cls-5" d="m95.371,123.06c0,.119,0,.756.47.756.259,0,.469-.266.469-.784v-.385h.175v.398c0,.448-.196.946-.693.946-.252,0-.903-.084-.903-.946v-1.933h-.595v-.154c.686-.027.896-.777.903-1.352h.175v1.289h1.002v.217h-1.002v1.947Z"/>
    <path class="cls-5" d="m98.086,123.06c0,.119,0,.756.47.756.259,0,.469-.266.469-.784v-.385h.175v.398c0,.448-.196.946-.693.946-.252,0-.903-.084-.903-.946v-1.933h-.595v-.154c.686-.027.896-.777.903-1.352h.175v1.289h1.002v.217h-1.002v1.947Z"/>
    <path class="cls-5" d="m99.815,121.112v-.217l.987-.077v.735c.196-.435.525-.735,1.037-.735.315,0,.833.077.932.687.119-.267.427-.687,1.016-.687.406,0,.637.14.735.259.217.252.217.47.217,1.071v1.338c.007.21.182.21.546.21v.218c-.238-.007-.602-.021-.784-.021-.189,0-.546.015-.792.021v-.218c.469,0,.546,0,.546-.314v-1.632c0-.399-.077-.777-.519-.777-.448,0-.945.392-.945,1.12v1.289c0,.314.077.314.546.314v.218c-.238-.007-.603-.021-.785-.021-.189,0-.546.015-.791.021v-.218c.469,0,.546,0,.546-.314v-1.632c0-.399-.077-.777-.518-.777-.448,0-.945.392-.945,1.12v1.289c0,.314.077.314.546.314v.218c-.238-.007-.602-.021-.784-.021-.189,0-.546.015-.792.021v-.218c.469,0,.546,0,.546-.314v-1.877c0-.344-.056-.393-.546-.393Z"/>
    <path class="cls-5" d="m106.409,123.347c.161.259.441.469.792.469.07,0,.701,0,.946-.721.014-.057.028-.099.091-.099.035,0,.091.015.091.084,0,.134-.315.911-1.17.911-.805,0-1.541-.68-1.541-1.618,0-.876.644-1.597,1.457-1.597.875,0,1.254.679,1.254,1.372,0,.147-.021.147-.175.147h-1.954c0,.252,0,.715.21,1.051Zm1.457-1.198c0-.272-.07-1.218-.792-1.218-.238,0-.826.175-.868,1.218h1.66Z"/>
    <path class="cls-5" d="m109.741,123.06c0,.119,0,.756.469.756.259,0,.47-.266.47-.784v-.385h.175v.398c0,.448-.196.946-.693.946-.252,0-.903-.084-.903-.946v-1.933h-.595v-.154c.686-.027.896-.777.903-1.352h.175v1.289h1.002v.217h-1.002v1.947Z"/>
    <path class="cls-5" d="m112.233,123.347c.161.259.441.469.792.469.07,0,.701,0,.946-.721.014-.057.028-.099.091-.099.035,0,.091.015.091.084,0,.134-.315.911-1.17.911-.805,0-1.541-.68-1.541-1.618,0-.876.644-1.597,1.457-1.597.875,0,1.254.679,1.254,1.372,0,.147-.021.147-.175.147h-1.954c0,.252,0,.715.21,1.051Zm1.457-1.198c0-.272-.07-1.218-.792-1.218-.238,0-.826.175-.869,1.218h1.66Z"/>
    <path class="cls-5" d="m116.385,120.819c.301,0,.518.203.518.427s-.175.309-.301.309c-.154,0-.301-.105-.301-.302,0-.182.14-.266.161-.272-.014-.007-.028-.007-.077-.007-.532,0-.827.623-.827,1.316v1.078c0,.253.014.329.532.329h.147v.218c-.28-.021-.609-.021-.889-.021-.196,0-.525.015-.798.021v-.218c.469,0,.546,0,.546-.314v-1.877c0-.344-.056-.393-.546-.393v-.217l.973-.077v.771c.098-.302.351-.771.862-.771Z"/>
    <path class="cls-5" d="m121.039,124.069c-.784,0-1.268-.68-1.268-1.282,0-.322.245-.371.343-.371.231,0,.35.175.35.343,0,.169-.119.344-.35.344-.077,0-.098-.007-.119-.015.119.414.519.785,1.03.785.322,0,.581-.183.75-.455.168-.295.168-.715.168-.96,0-.351-.014-.623-.126-.883-.056-.126-.231-.448-.596-.448-.567,0-.826.379-.903.49-.028.042-.042.063-.091.063-.098,0-.098-.056-.098-.183v-2.072c0-.112,0-.169.07-.169.014,0,.028,0,.084.021.329.147.651.196.932.196.469,0,.812-.141.953-.203.035-.021.049-.021.056-.021.049,0,.07.035.07.077,0,.091-.49.729-1.352.729-.224,0-.456-.049-.596-.091v1.365c.252-.245.554-.356.89-.356.756,0,1.331.7,1.331,1.533,0,.89-.714,1.562-1.527,1.562Z"/>
  </g>
  <g>
    <rect class="cls-4" x="100.454" y="46.893" width="5.669" height="5.669"/>
    <g>
      <path class="cls-5" d="m88.706,59.454c-.028.091-.042.14-.14.14-.091,0-.112-.07-.133-.133l-1.163-3.565-1.155,3.558c-.028.091-.042.14-.14.14-.091,0-.112-.07-.133-.133l-1.401-4.293c-.084-.259-.112-.294-.637-.294v-.217c.287.007.588.021.854.021s.743,0,.995-.021v.217c-.182,0-.588,0-.588.21,0,.021.007.07.014.091l1.127,3.446.974-3.005-.154-.49c-.084-.252-.231-.252-.63-.252v-.217c.287.007.588.021.854.021s.743,0,.995-.021v.217c-.182,0-.588,0-.588.21,0,.035.014.077.021.105l1.121,3.432,1.051-3.236c.014-.042.035-.098.035-.14,0-.133-.14-.364-.609-.371v-.217c.182.007.63.021.833.021.21,0,.427-.007.637-.021v.217c-.273,0-.574.07-.701.469l-1.337,4.111Z"/>
      <path class="cls-5" d="m92.281,59.517c-.441,0-1.121-.175-1.121-.743,0-.308.175-.672.701-.91.441-.21.932-.231,1.289-.252v-.259c0-.624-.399-.896-.742-.896-.224,0-.567.077-.756.322.322.007.357.238.357.322,0,.182-.126.322-.322.322-.182,0-.322-.119-.322-.329,0-.462.483-.792,1.058-.792.336,0,.687.112.959.385.252.259.252.532.252.826v1.401c0,.035.028.35.259.35.077,0,.252-.042.252-.448v-.392h.175v.392c0,.567-.427.666-.574.666-.329,0-.518-.294-.546-.574-.133.329-.455.609-.917.609Zm-.581-.75c0,.35.287.595.63.595.315,0,.819-.238.819-.903v-.7c-1.156.042-1.45.623-1.45,1.008Z"/>
      <path class="cls-5" d="m95.578,58.585c0,.119,0,.756.47.756.259,0,.469-.266.469-.784v-.385h.175v.399c0,.448-.196.946-.693.946-.252,0-.903-.084-.903-.946v-1.933h-.595v-.154c.686-.028.896-.777.903-1.352h.175v1.289h1.002v.217h-1.002v1.947Z"/>
      <path class="cls-5" d="m98.294,58.585c0,.119,0,.756.47.756.259,0,.469-.266.469-.784v-.385h.175v.399c0,.448-.196.946-.693.946-.252,0-.903-.084-.903-.946v-1.933h-.595v-.154c.686-.028.896-.777.903-1.352h.175v1.289h1.002v.217h-1.002v1.947Z"/>
      <path class="cls-5" d="m100.022,56.638v-.217l.987-.077v.735c.196-.434.525-.735,1.037-.735.315,0,.833.077.932.687.119-.266.427-.687,1.016-.687.406,0,.637.14.735.259.217.252.217.469.217,1.071v1.338c.007.21.182.21.546.21v.217c-.238-.007-.602-.021-.784-.021-.189,0-.546.014-.792.021v-.217c.469,0,.546,0,.546-.315v-1.632c0-.399-.077-.777-.519-.777-.448,0-.945.392-.945,1.121v1.289c0,.315.077.315.546.315v.217c-.238-.007-.603-.021-.785-.021-.189,0-.546.014-.791.021v-.217c.469,0,.546,0,.546-.315v-1.632c0-.399-.077-.777-.518-.777-.448,0-.945.392-.945,1.121v1.289c0,.315.077.315.546.315v.217c-.238-.007-.602-.021-.784-.021-.189,0-.546.014-.792.021v-.217c.469,0,.546,0,.546-.315v-1.877c0-.343-.056-.393-.546-.393Z"/>
      <path class="cls-5" d="m106.616,58.872c.161.259.441.469.792.469.07,0,.701,0,.946-.721.014-.056.028-.098.091-.098.035,0,.091.014.091.084,0,.133-.315.911-1.17.911-.805,0-1.541-.68-1.541-1.618,0-.875.644-1.597,1.457-1.597.875,0,1.254.679,1.254,1.373,0,.147-.021.147-.175.147h-1.954c0,.252,0,.714.21,1.05Zm1.457-1.198c0-.273-.07-1.218-.792-1.218-.238,0-.826.175-.868,1.218h1.66Z"/>
      <path class="cls-5" d="m109.948,58.585c0,.119,0,.756.469.756.259,0,.47-.266.47-.784v-.385h.175v.399c0,.448-.196.946-.693.946-.252,0-.903-.084-.903-.946v-1.933h-.595v-.154c.686-.028.896-.777.903-1.352h.175v1.289h1.002v.217h-1.002v1.947Z"/>
      <path class="cls-5" d="m112.44,58.872c.161.259.441.469.792.469.07,0,.701,0,.946-.721.014-.056.028-.098.091-.098.035,0,.091.014.091.084,0,.133-.315.911-1.17.911-.805,0-1.541-.68-1.541-1.618,0-.875.644-1.597,1.457-1.597.875,0,1.254.679,1.254,1.373,0,.147-.021.147-.175.147h-1.954c0,.252,0,.714.21,1.05Zm1.457-1.198c0-.273-.07-1.218-.792-1.218-.238,0-.826.175-.869,1.218h1.66Z"/>
      <path class="cls-5" d="m116.592,56.344c.301,0,.518.203.518.427s-.175.308-.301.308c-.154,0-.301-.105-.301-.301,0-.182.14-.266.161-.273-.014-.007-.028-.007-.077-.007-.532,0-.827.623-.827,1.316v1.079c0,.252.014.329.532.329h.147v.217c-.28-.021-.609-.021-.889-.021-.196,0-.525.014-.798.021v-.217c.469,0,.546,0,.546-.315v-1.877c0-.343-.056-.393-.546-.393v-.217l.973-.077v.771c.098-.301.351-.771.862-.771Z"/>
      <path class="cls-5" d="m121.779,58.901c.154,0,.616,0,.665-.056.07-.105.119-.414.154-.624h.175l-.196,1.219h-2.599c0-.168,0-.182.077-.259l1.345-1.499c.385-.435.735-.988.735-1.548,0-.574-.301-1.142-.938-1.142-.406,0-.785.259-.945.714.021-.007.035-.007.091-.007.245,0,.371.182.371.364,0,.287-.245.372-.364.372-.021,0-.371,0-.371-.393,0-.623.519-1.268,1.31-1.268.854,0,1.485.561,1.485,1.359,0,.7-.42,1.079-1.513,2.045l-.742.722h1.261Z"/>
    </g>
  </g>
  <g>
    <g>
      <path class="cls-5" d="m16.104,51.83c-.028.091-.042.14-.14.14-.091,0-.112-.07-.133-.133l-1.163-3.565-1.155,3.558c-.028.091-.042.14-.14.14-.091,0-.112-.07-.133-.133l-1.401-4.293c-.084-.259-.112-.294-.637-.294v-.217c.287.007.588.021.854.021s.743,0,.995-.021v.217c-.182,0-.588,0-.588.21,0,.021.007.07.014.091l1.127,3.446.974-3.005-.154-.49c-.084-.252-.231-.252-.63-.252v-.217c.287.007.588.021.854.021s.743,0,.995-.021v.217c-.182,0-.588,0-.588.21,0,.035.014.077.021.105l1.121,3.432,1.051-3.236c.014-.042.035-.098.035-.14,0-.133-.14-.364-.609-.371v-.217c.182.007.63.021.833.021.21,0,.427-.007.637-.021v.217c-.273,0-.574.07-.701.469l-1.337,4.111Z"/>
      <path class="cls-5" d="m19.679,51.893c-.441,0-1.121-.175-1.121-.743,0-.308.175-.672.701-.91.441-.21.932-.231,1.289-.252v-.259c0-.624-.399-.896-.742-.896-.224,0-.567.077-.756.322.322.007.357.238.357.322,0,.182-.126.322-.322.322-.182,0-.322-.119-.322-.329,0-.462.483-.792,1.058-.792.336,0,.687.112.959.385.252.259.252.532.252.826v1.401c0,.035.028.35.259.35.077,0,.252-.042.252-.448v-.392h.175v.392c0,.567-.427.666-.574.666-.329,0-.518-.294-.546-.574-.133.329-.455.609-.917.609Zm-.581-.75c0,.35.287.595.63.595.315,0,.819-.238.819-.903v-.7c-1.156.042-1.45.623-1.45,1.008Z"/>
      <path class="cls-5" d="m22.976,50.961c0,.119,0,.756.47.756.259,0,.469-.266.469-.784v-.385h.175v.399c0,.448-.196.946-.693.946-.252,0-.903-.084-.903-.946v-1.933h-.595v-.154c.686-.028.896-.777.903-1.352h.175v1.289h1.002v.217h-1.002v1.947Z"/>
      <path class="cls-5" d="m25.692,50.961c0,.119,0,.756.47.756.259,0,.469-.266.469-.784v-.385h.175v.399c0,.448-.196.946-.693.946-.252,0-.903-.084-.903-.946v-1.933h-.595v-.154c.686-.028.896-.777.903-1.352h.175v1.289h1.002v.217h-1.002v1.947Z"/>
      <path class="cls-5" d="m27.42,49.014v-.217l.987-.077v.735c.196-.434.525-.735,1.037-.735.315,0,.833.077.932.687.119-.266.427-.687,1.016-.687.406,0,.637.14.735.259.217.252.217.469.217,1.071v1.338c.007.21.182.21.546.21v.217c-.238-.007-.602-.021-.784-.021-.189,0-.546.014-.792.021v-.217c.469,0,.546,0,.546-.315v-1.632c0-.399-.077-.777-.519-.777-.448,0-.945.392-.945,1.121v1.289c0,.315.077.315.546.315v.217c-.238-.007-.603-.021-.785-.021-.189,0-.546.014-.791.021v-.217c.469,0,.546,0,.546-.315v-1.632c0-.399-.077-.777-.518-.777-.448,0-.945.392-.945,1.121v1.289c0,.315.077.315.546.315v.217c-.238-.007-.602-.021-.784-.021-.189,0-.546.014-.792.021v-.217c.469,0,.546,0,.546-.315v-1.877c0-.343-.056-.393-.546-.393Z"/>
      <path class="cls-5" d="m34.014,51.249c.161.259.441.469.792.469.07,0,.701,0,.946-.721.014-.056.028-.098.091-.098.035,0,.091.014.091.084,0,.133-.315.911-1.17.911-.805,0-1.541-.68-1.541-1.618,0-.875.644-1.597,1.457-1.597.875,0,1.254.679,1.254,1.373,0,.147-.021.147-.175.147h-1.954c0,.252,0,.714.21,1.05Zm1.457-1.198c0-.273-.07-1.218-.792-1.218-.238,0-.826.175-.868,1.218h1.66Z"/>
      <path class="cls-5" d="m37.346,50.961c0,.119,0,.756.469.756.259,0,.47-.266.47-.784v-.385h.175v.399c0,.448-.196.946-.693.946-.252,0-.903-.084-.903-.946v-1.933h-.595v-.154c.686-.028.896-.777.903-1.352h.175v1.289h1.002v.217h-1.002v1.947Z"/>
      <path class="cls-5" d="m39.838,51.249c.161.259.441.469.792.469.07,0,.701,0,.946-.721.014-.056.028-.098.091-.098.035,0,.091.014.091.084,0,.133-.315.911-1.17.911-.805,0-1.541-.68-1.541-1.618,0-.875.644-1.597,1.457-1.597.875,0,1.254.679,1.254,1.373,0,.147-.021.147-.175.147h-1.954c0,.252,0,.714.21,1.05Zm1.457-1.198c0-.273-.07-1.218-.792-1.218-.238,0-.826.175-.869,1.218h1.66Z"/>
      <path class="cls-5" d="m43.99,48.72c.301,0,.518.203.518.427s-.175.308-.301.308c-.154,0-.301-.105-.301-.301,0-.182.14-.266.161-.273-.014-.007-.028-.007-.077-.007-.532,0-.827.623-.827,1.316v1.079c0,.252.014.329.532.329h.147v.217c-.28-.021-.609-.021-.889-.021-.196,0-.525.014-.798.021v-.217c.469,0,.546,0,.546-.315v-1.877c0-.343-.056-.393-.546-.393v-.217l.973-.077v.771c.098-.301.351-.771.862-.771Z"/>
      <path class="cls-5" d="m49.086,51.263c0,.259.021.336.651.336h.224v.217c-.245-.021-.854-.021-1.135-.021s-.889,0-1.134.021v-.217h.224c.63,0,.651-.084.651-.336v-3.628c-.364.182-.778.182-.917.182v-.217c.224,0,.84,0,1.274-.448.161,0,.161.014.161.182v3.929Z"/>
    </g>
    <rect class="cls-4" x="27.747" y="39.269" width="5.669" height="5.669"/>
  </g>
  <rect class="cls-4" x="172.826" y="39.269" width="5.669" height="5.669"/>
  <rect class="cls-4" x="172.826" y="119.203" width="5.669" height="5.669"/>
  <rect class="cls-4" x="27.747" y="104.022" width="5.669" height="5.669"/>
  <g>
    <path class="cls-5" d="m161.051,51.83c-.028.091-.042.14-.14.14-.091,0-.112-.07-.133-.133l-1.163-3.565-1.155,3.558c-.028.091-.042.14-.14.14-.091,0-.112-.07-.133-.133l-1.401-4.293c-.084-.259-.112-.294-.637-.294v-.217c.287.007.588.021.854.021s.743,0,.995-.021v.217c-.182,0-.588,0-.588.21,0,.021.007.07.014.091l1.127,3.446.974-3.005-.154-.49c-.084-.252-.231-.252-.63-.252v-.217c.287.007.588.021.854.021s.743,0,.995-.021v.217c-.182,0-.588,0-.588.21,0,.035.014.077.021.105l1.121,3.432,1.051-3.236c.014-.042.035-.098.035-.14,0-.133-.14-.364-.609-.371v-.217c.182.007.63.021.833.021.21,0,.427-.007.637-.021v.217c-.273,0-.574.07-.701.469l-1.337,4.111Z"/>
    <path class="cls-5" d="m164.625,51.893c-.441,0-1.121-.175-1.121-.743,0-.308.175-.672.701-.91.441-.21.932-.231,1.289-.252v-.259c0-.624-.399-.896-.742-.896-.224,0-.567.077-.756.322.322.007.357.238.357.322,0,.182-.126.322-.322.322-.182,0-.322-.119-.322-.329,0-.462.483-.792,1.058-.792.336,0,.687.112.959.385.252.259.252.532.252.826v1.401c0,.035.028.35.259.35.077,0,.252-.042.252-.448v-.392h.175v.392c0,.567-.427.666-.574.666-.329,0-.518-.294-.546-.574-.133.329-.455.609-.917.609Zm-.581-.75c0,.35.287.595.63.595.315,0,.819-.238.819-.903v-.7c-1.156.042-1.45.623-1.45,1.008Z"/>
    <path class="cls-5" d="m167.922,50.961c0,.119,0,.756.47.756.259,0,.469-.266.469-.784v-.385h.175v.399c0,.448-.196.946-.693.946-.252,0-.903-.084-.903-.946v-1.933h-.595v-.154c.686-.028.896-.777.903-1.352h.175v1.289h1.002v.217h-1.002v1.947Z"/>
    <path class="cls-5" d="m170.638,50.961c0,.119,0,.756.47.756.259,0,.469-.266.469-.784v-.385h.175v.399c0,.448-.196.946-.693.946-.252,0-.903-.084-.903-.946v-1.933h-.595v-.154c.686-.028.896-.777.903-1.352h.175v1.289h1.002v.217h-1.002v1.947Z"/>
    <path class="cls-5" d="m172.367,49.014v-.217l.987-.077v.735c.196-.434.525-.735,1.037-.735.315,0,.833.077.932.687.119-.266.427-.687,1.016-.687.406,0,.637.14.735.259.217.252.217.469.217,1.071v1.338c.007.21.182.21.546.21v.217c-.238-.007-.602-.021-.784-.021-.189,0-.546.014-.792.021v-.217c.469,0,.546,0,.546-.315v-1.632c0-.399-.077-.777-.519-.777-.448,0-.945.392-.945,1.121v1.289c0,.315.077.315.546.315v.217c-.238-.007-.603-.021-.785-.021-.189,0-.546.014-.791.021v-.217c.469,0,.546,0,.546-.315v-1.632c0-.399-.077-.777-.518-.777-.448,0-.945.392-.945,1.121v1.289c0,.315.077.315.546.315v.217c-.238-.007-.602-.021-.784-.021-.189,0-.546.014-.792.021v-.217c.469,0,.546,0,.546-.315v-1.877c0-.343-.056-.393-.546-.393Z"/>
    <path class="cls-5" d="m178.961,51.249c.161.259.441.469.792.469.07,0,.701,0,.946-.721.014-.056.028-.098.091-.098.035,0,.091.014.091.084,0,.133-.315.911-1.17.911-.805,0-1.541-.68-1.541-1.618,0-.875.644-1.597,1.457-1.597.875,0,1.254.679,1.254,1.373,0,.147-.021.147-.175.147h-1.954c0,.252,0,.714.21,1.05Zm1.457-1.198c0-.273-.07-1.218-.792-1.218-.238,0-.826.175-.868,1.218h1.66Z"/>
    <path class="cls-5" d="m182.293,50.961c0,.119,0,.756.469.756.259,0,.47-.266.47-.784v-.385h.175v.399c0,.448-.196.946-.693.946-.252,0-.903-.084-.903-.946v-1.933h-.595v-.154c.686-.028.896-.777.903-1.352h.175v1.289h1.002v.217h-1.002v1.947Z"/>
    <path class="cls-5" d="m184.785,51.249c.161.259.441.469.792.469.07,0,.701,0,.946-.721.014-.056.028-.098.091-.098.035,0,.091.014.091.084,0,.133-.315.911-1.17.911-.805,0-1.541-.68-1.541-1.618,0-.875.644-1.597,1.457-1.597.875,0,1.254.679,1.254,1.373,0,.147-.021.147-.175.147h-1.954c0,.252,0,.714.21,1.05Zm1.457-1.198c0-.273-.07-1.218-.792-1.218-.238,0-.826.175-.869,1.218h1.66Z"/>
    <path class="cls-5" d="m188.937,48.72c.301,0,.518.203.518.427s-.175.308-.301.308c-.154,0-.301-.105-.301-.301,0-.182.14-.266.161-.273-.014-.007-.028-.007-.077-.007-.532,0-.827.623-.827,1.316v1.079c0,.252.014.329.532.329h.147v.217c-.28-.021-.609-.021-.889-.021-.196,0-.525.014-.798.021v-.217c.469,0,.546,0,.546-.315v-1.877c0-.343-.056-.393-.546-.393v-.217l.973-.077v.771c.098-.301.351-.771.862-.771Z"/>
    <path class="cls-5" d="m195.174,50.618c0,.714-.637,1.352-1.492,1.352-.764,0-1.415-.462-1.415-1.1,0-.309.224-.406.393-.406.203,0,.392.14.392.392,0,.266-.217.42-.462.385.245.413.771.532,1.072.532.308,0,.792-.203.792-1.156,0-.686-.259-1.163-.833-1.163h-.308c-.119,0-.168,0-.168-.077,0-.07.049-.077.105-.084.049,0,.217-.014.273-.021.175-.007.413-.028.624-.364.182-.308.196-.714.196-.798,0-.63-.385-.784-.672-.784-.252,0-.714.091-.932.434.105,0,.435,0,.435.35,0,.203-.14.357-.357.357-.203,0-.357-.133-.357-.364,0-.532.532-.953,1.24-.953.672,0,1.289.392,1.289.966,0,.554-.406,1.044-.98,1.233.728.147,1.169.693,1.169,1.268Z"/>
  </g>
  <g>
    <path class="cls-5" d="m160.925,131.763c-.028.091-.042.14-.14.14-.091,0-.112-.07-.133-.133l-1.163-3.565-1.155,3.558c-.028.091-.042.14-.14.14-.091,0-.112-.07-.133-.133l-1.401-4.293c-.084-.259-.112-.294-.637-.294v-.217c.287.007.588.021.854.021s.743,0,.995-.021v.217c-.182,0-.588,0-.588.21,0,.021.007.07.014.091l1.127,3.446.974-3.005-.154-.49c-.084-.252-.231-.252-.63-.252v-.217c.287.007.588.021.854.021s.743,0,.995-.021v.217c-.182,0-.588,0-.588.21,0,.035.014.077.021.105l1.121,3.432,1.051-3.236c.014-.042.035-.098.035-.14,0-.133-.14-.364-.609-.371v-.217c.182.007.63.021.833.021.21,0,.427-.007.637-.021v.217c-.273,0-.574.07-.701.469l-1.337,4.111Z"/>
    <path class="cls-5" d="m164.499,131.826c-.441,0-1.121-.175-1.121-.743,0-.308.175-.672.701-.91.441-.21.932-.231,1.289-.252v-.259c0-.624-.399-.896-.742-.896-.224,0-.567.077-.756.322.322.007.357.238.357.322,0,.182-.126.322-.322.322-.182,0-.322-.119-.322-.329,0-.462.483-.792,1.058-.792.336,0,.687.112.959.385.252.259.252.532.252.826v1.401c0,.035.028.35.259.35.077,0,.252-.042.252-.448v-.392h.175v.392c0,.567-.427.666-.574.666-.329,0-.518-.294-.546-.574-.133.329-.455.609-.917.609Zm-.581-.75c0,.35.287.595.63.595.315,0,.819-.238.819-.903v-.7c-1.156.042-1.45.623-1.45,1.008Z"/>
    <path class="cls-5" d="m167.796,130.895c0,.119,0,.756.47.756.259,0,.469-.266.469-.784v-.385h.175v.399c0,.448-.196.946-.693.946-.252,0-.903-.084-.903-.946v-1.933h-.595v-.154c.686-.028.896-.777.903-1.352h.175v1.289h1.002v.217h-1.002v1.947Z"/>
    <path class="cls-5" d="m170.512,130.895c0,.119,0,.756.47.756.259,0,.469-.266.469-.784v-.385h.175v.399c0,.448-.196.946-.693.946-.252,0-.903-.084-.903-.946v-1.933h-.595v-.154c.686-.028.896-.777.903-1.352h.175v1.289h1.002v.217h-1.002v1.947Z"/>
    <path class="cls-5" d="m172.24,128.947v-.217l.987-.077v.735c.196-.434.525-.735,1.037-.735.315,0,.833.077.932.687.119-.266.427-.687,1.016-.687.406,0,.637.14.735.259.217.252.217.469.217,1.071v1.338c.007.21.182.21.546.21v.217c-.238-.007-.602-.021-.784-.021-.189,0-.546.014-.792.021v-.217c.469,0,.546,0,.546-.315v-1.632c0-.399-.077-.777-.519-.777-.448,0-.945.392-.945,1.121v1.289c0,.315.077.315.546.315v.217c-.238-.007-.603-.021-.785-.021-.189,0-.546.014-.791.021v-.217c.469,0,.546,0,.546-.315v-1.632c0-.399-.077-.777-.518-.777-.448,0-.945.392-.945,1.121v1.289c0,.315.077.315.546.315v.217c-.238-.007-.602-.021-.784-.021-.189,0-.546.014-.792.021v-.217c.469,0,.546,0,.546-.315v-1.877c0-.343-.056-.393-.546-.393Z"/>
    <path class="cls-5" d="m178.835,131.182c.161.259.441.469.792.469.07,0,.701,0,.946-.721.014-.056.028-.098.091-.098.035,0,.091.014.091.084,0,.133-.315.911-1.17.911-.805,0-1.541-.68-1.541-1.618,0-.875.644-1.597,1.457-1.597.875,0,1.254.679,1.254,1.373,0,.147-.021.147-.175.147h-1.954c0,.252,0,.714.21,1.05Zm1.457-1.198c0-.273-.07-1.218-.792-1.218-.238,0-.826.175-.868,1.218h1.66Z"/>
    <path class="cls-5" d="m182.167,130.895c0,.119,0,.756.469.756.259,0,.47-.266.47-.784v-.385h.175v.399c0,.448-.196.946-.693.946-.252,0-.903-.084-.903-.946v-1.933h-.595v-.154c.686-.028.896-.777.903-1.352h.175v1.289h1.002v.217h-1.002v1.947Z"/>
    <path class="cls-5" d="m184.658,131.182c.161.259.441.469.792.469.07,0,.701,0,.946-.721.014-.056.028-.098.091-.098.035,0,.091.014.091.084,0,.133-.315.911-1.17.911-.805,0-1.541-.68-1.541-1.618,0-.875.644-1.597,1.457-1.597.875,0,1.254.679,1.254,1.373,0,.147-.021.147-.175.147h-1.954c0,.252,0,.714.21,1.05Zm1.457-1.198c0-.273-.07-1.218-.792-1.218-.238,0-.826.175-.869,1.218h1.66Z"/>
    <path class="cls-5" d="m188.81,128.653c.301,0,.518.203.518.427s-.175.308-.301.308c-.154,0-.301-.105-.301-.301,0-.182.14-.266.161-.273-.014-.007-.028-.007-.077-.007-.532,0-.827.623-.827,1.316v1.079c0,.252.014.329.532.329h.147v.217c-.28-.021-.609-.021-.889-.021-.196,0-.525.014-.798.021v-.217c.469,0,.546,0,.546-.315v-1.877c0-.343-.056-.393-.546-.393v-.217l.973-.077v.771c.098-.301.351-.771.862-.771Z"/>
    <path class="cls-5" d="m192.043,130.593v-.217l2.15-3.285c.056-.084.077-.084.14-.084.112,0,.112.042.112.182v3.187h.7v.217h-.7v.609c0,.252.014.329.532.329h.147v.217c-.287-.021-.658-.021-.953-.021s-.658,0-.945.021v-.217h.147c.518,0,.532-.077.532-.329v-.609h-1.863Zm1.905-2.83l-1.709,2.613h1.709v-2.613Z"/>
  </g>
  <g>
    <path d="m70.281,18.789c0,.674-.645,1.313-1.6,1.313h-2.812v-.222h.172c.553,0,.567-.079.567-.338v-3.781c0-.258-.014-.337-.567-.337h-.172v-.222h2.625c.933,0,1.593.588,1.593,1.212,0,.531-.495.99-1.191,1.126.796.086,1.384.624,1.384,1.248Zm-2.037-1.313c.796,0,1.148-.603,1.148-1.062,0-.38-.251-.99-.947-.99h-.889c-.337,0-.352.05-.352.287v1.765h1.04Zm1.32,1.306c0-.481-.301-1.148-1.011-1.148h-1.349v1.959c0,.237.014.287.352.287h.897c.739,0,1.112-.588,1.112-1.098Z"/>
    <path d="m72.77,16.931c.308,0,.531.208.531.438s-.179.316-.309.316c-.158,0-.308-.108-.308-.309,0-.186.143-.273.165-.28-.014-.007-.028-.007-.079-.007-.545,0-.847.638-.847,1.349v1.105c0,.259.014.338.545.338h.15v.222c-.287-.021-.624-.021-.911-.021-.201,0-.538.014-.818.021v-.222c.481,0,.56,0,.56-.323v-1.923c0-.352-.057-.401-.56-.401v-.222l.997-.08v.79c.1-.309.359-.79.882-.79Z"/>
    <path d="m74.943,20.181c-.452,0-1.148-.179-1.148-.76,0-.316.179-.689.718-.933.452-.216.954-.237,1.32-.259v-.265c0-.638-.409-.918-.761-.918-.229,0-.581.079-.775.33.33.007.366.244.366.33,0,.187-.129.331-.33.331-.187,0-.33-.122-.33-.337,0-.473.495-.811,1.083-.811.345,0,.703.115.983.394.258.266.258.546.258.847v1.435c0,.036.029.359.266.359.079,0,.258-.043.258-.459v-.402h.179v.402c0,.581-.437.681-.588.681-.337,0-.531-.301-.56-.588-.136.337-.466.624-.94.624Zm-.595-.767c0,.359.294.61.646.61.323,0,.839-.244.839-.925v-.718c-1.184.044-1.485.639-1.485,1.034Z"/>
    <path d="m77.31,17.233v-.222l1.012-.08v.754c.201-.445.538-.754,1.062-.754.416,0,.653.144.753.266.222.258.222.481.222,1.097v1.37c.007.215.186.215.559.215v.222c-.244-.007-.617-.021-.803-.021-.194,0-.56.014-.811.021v-.222c.481,0,.56,0,.56-.323v-1.672c0-.408-.079-.796-.531-.796-.459,0-.969.401-.969,1.147v1.32c0,.323.079.323.559.323v.222c-.244-.007-.617-.021-.803-.021-.194,0-.56.014-.811.021v-.222c.481,0,.56,0,.56-.323v-1.923c0-.352-.058-.401-.56-.401Z"/>
    <path d="m82.912,20.001c.265,0,.731-.086.94-.753.014-.043.029-.072.093-.072.022,0,.093,0,.093.072s-.23.932-1.191.932c-.832,0-1.542-.71-1.542-1.628,0-.889.66-1.664,1.557-1.664.552,0,1.098.28,1.098.768,0,.215-.143.337-.33.337-.201,0-.33-.144-.33-.33,0-.093.043-.309.337-.33-.251-.258-.703-.266-.768-.266-.38,0-.968.302-.968,1.471,0,1.155.631,1.463,1.011,1.463Z"/>
    <path d="m85.035,15.826c0-.352-.058-.402-.56-.402v-.222l1.033-.079v2.511c.122-.272.437-.703,1.04-.703.416,0,.653.144.753.266.222.258.222.481.222,1.097v1.37c.007.215.186.215.559.215v.222c-.244-.007-.617-.021-.803-.021-.194,0-.56.014-.811.021v-.222c.481,0,.56,0,.56-.323v-1.672c0-.408-.079-.796-.531-.796-.459,0-.969.401-.969,1.147v1.32c0,.323.079.323.559.323v.222c-.244-.007-.617-.021-.803-.021-.194,0-.56.014-.811.021v-.222c.481,0,.56,0,.56-.323v-3.731Z"/>
    <path d="m92.725,19.535c0,.266.022.345.667.345h.23v.222c-.251-.021-.875-.021-1.162-.021s-.911,0-1.162.021v-.222h.229c.645,0,.667-.086.667-.345v-3.716c-.373.186-.796.186-.94.186v-.222c.23,0,.861,0,1.306-.459.165,0,.165.014.165.186v4.025Z"/>
  </g>
  <g>
    <path d="m129.907,18.789c0,.674-.645,1.313-1.599,1.313h-2.812v-.223h.172c.553,0,.567-.079.567-.337v-3.781c0-.258-.014-.337-.567-.337h-.172v-.222h2.625c.933,0,1.593.588,1.593,1.212,0,.531-.495.99-1.191,1.126.796.086,1.384.624,1.384,1.249Zm-2.037-1.313c.796,0,1.148-.603,1.148-1.062,0-.38-.251-.99-.947-.99h-.889c-.337,0-.352.051-.352.287v1.765h1.04Zm1.32,1.306c0-.48-.301-1.148-1.011-1.148h-1.349v1.958c0,.237.014.287.352.287h.897c.739,0,1.112-.588,1.112-1.097Z"/>
    <path d="m132.396,16.931c.308,0,.531.208.531.437s-.179.316-.309.316c-.158,0-.308-.108-.308-.308,0-.187.143-.273.165-.28-.014-.008-.028-.008-.079-.008-.545,0-.846.639-.846,1.349v1.104c0,.258.014.337.545.337h.15v.223c-.287-.022-.624-.022-.911-.022-.201,0-.538.015-.818.022v-.223c.481,0,.56,0,.56-.323v-1.922c0-.351-.057-.402-.56-.402v-.223l.997-.079v.789c.101-.308.359-.789.882-.789Z"/>
    <path d="m134.569,20.181c-.452,0-1.148-.179-1.148-.761,0-.315.179-.688.718-.932.452-.215.954-.237,1.32-.258v-.266c0-.638-.409-.918-.76-.918-.23,0-.581.079-.774.33.33.007.365.243.365.33,0,.186-.129.33-.33.33-.187,0-.33-.122-.33-.337,0-.474.495-.811,1.083-.811.344,0,.703.115.983.395.258.265.258.545.258.846v1.435c0,.036.029.359.266.359.079,0,.258-.044.258-.459v-.402h.179v.402c0,.581-.437.681-.588.681-.337,0-.531-.302-.56-.589-.136.338-.466.624-.94.624Zm-.596-.768c0,.359.294.61.646.61.323,0,.839-.244.839-.926v-.717c-1.184.043-1.485.638-1.485,1.033Z"/>
    <path d="m136.936,17.233v-.223l1.011-.079v.753c.201-.444.538-.753,1.062-.753.416,0,.653.143.753.265.222.259.222.481.222,1.098v1.37c.007.215.186.215.559.215v.223c-.244-.007-.617-.022-.803-.022-.194,0-.56.015-.811.022v-.223c.481,0,.56,0,.56-.323v-1.671c0-.409-.079-.797-.531-.797-.459,0-.969.402-.969,1.148v1.32c0,.323.079.323.559.323v.223c-.244-.007-.617-.022-.803-.022-.194,0-.56.015-.811.022v-.223c.48,0,.56,0,.56-.323v-1.922c0-.351-.058-.402-.56-.402Z"/>
    <path d="m142.539,20.001c.266,0,.732-.087.94-.753.014-.044.029-.072.093-.072.022,0,.093,0,.093.072s-.23.932-1.191.932c-.832,0-1.542-.71-1.542-1.629,0-.889.66-1.664,1.557-1.664.552,0,1.097.28,1.097.767,0,.216-.143.337-.33.337-.201,0-.33-.143-.33-.33,0-.094.043-.309.337-.331-.251-.258-.703-.265-.768-.265-.38,0-.968.301-.968,1.47,0,1.155.631,1.464,1.011,1.464Z"/>
    <path d="m144.662,15.826c0-.352-.058-.402-.56-.402v-.222l1.033-.079v2.511c.122-.273.437-.703,1.04-.703.416,0,.653.143.753.265.223.259.223.481.223,1.098v1.37c.007.215.186.215.559.215v.223c-.244-.007-.617-.022-.803-.022-.194,0-.56.015-.811.022v-.223c.481,0,.56,0,.56-.323v-1.671c0-.409-.079-.797-.531-.797-.459,0-.969.402-.969,1.148v1.32c0,.323.079.323.559.323v.223c-.244-.007-.617-.022-.803-.022-.194,0-.56.015-.811.022v-.223c.481,0,.56,0,.56-.323v-3.73Z"/>
    <path d="m152.445,19.549c.158,0,.631,0,.681-.058.072-.108.122-.423.158-.639h.179l-.201,1.249h-2.662c0-.172,0-.187.079-.266l1.377-1.535c.394-.445.753-1.012.753-1.586,0-.588-.308-1.169-.961-1.169-.416,0-.803.265-.969.731.021-.007.036-.007.093-.007.251,0,.381.187.381.373,0,.294-.251.38-.373.38-.021,0-.38,0-.38-.402,0-.639.531-1.299,1.341-1.299.875,0,1.521.574,1.521,1.392,0,.717-.43,1.105-1.549,2.095l-.76.739h1.291Z"/>
  </g>
  <g>
    <path d="m202.952,52.834c-.674,0-1.313-.645-1.313-1.6v-2.812h.223v.172c0,.553.079.567.337.567h3.781c.258,0,.337-.014.337-.567v-.172h.222v2.625c0,.933-.588,1.593-1.212,1.593-.531,0-.99-.495-1.126-1.191-.086.796-.624,1.384-1.249,1.384Zm1.313-2.037c0,.796.602,1.148,1.062,1.148.38,0,.99-.251.99-.947v-.889c0-.337-.051-.351-.287-.351h-1.765v1.04Zm-1.306,1.32c.481,0,1.148-.301,1.148-1.011v-1.349h-1.958c-.238,0-.287.014-.287.351v.897c0,.739.588,1.112,1.097,1.112Z"/>
    <path d="m204.81,55.323c0,.308-.208.531-.438.531s-.315-.179-.315-.309c0-.158.107-.308.308-.308.187,0,.273.143.28.165.007-.014.007-.028.007-.079,0-.545-.638-.847-1.349-.847h-1.105c-.258,0-.337.014-.337.545v.15h-.223c.022-.287.022-.624.022-.911,0-.201-.015-.538-.022-.818h.223c0,.481,0,.56.322.56h1.923c.352,0,.401-.057.401-.56h.222l.08.997h-.79c.309.101.79.359.79.882Z"/>
    <path d="m201.56,57.496c0-.452.179-1.148.76-1.148.316,0,.689.179.932.718.216.452.238.954.259,1.32h.266c.638,0,.918-.409.918-.76,0-.229-.079-.581-.331-.774-.007.33-.243.365-.33.365-.186,0-.33-.129-.33-.33,0-.187.122-.33.337-.33.473,0,.811.495.811,1.083,0,.344-.114.703-.394.983-.265.258-.545.258-.846.258h-1.435c-.036,0-.359.029-.359.266,0,.079.044.258.459.258h.401v.179h-.401c-.582,0-.681-.437-.681-.588,0-.337.301-.531.588-.56-.337-.136-.624-.466-.624-.94Zm.767-.595c-.359,0-.61.294-.61.646,0,.323.244.839.926.839h.717c-.044-1.184-.639-1.485-1.034-1.485Z"/>
    <path d="m204.509,59.863h.222l.08,1.012h-.753c.444.201.753.538.753,1.062,0,.416-.144.653-.265.753-.259.222-.481.222-1.098.222h-1.37c-.215.007-.215.186-.215.559h-.223c.007-.244.022-.617.022-.803,0-.194-.015-.56-.022-.811h.223c0,.481,0,.56.322.56h1.672c.409,0,.796-.079.796-.531,0-.459-.401-.968-1.147-.968h-1.32c-.322,0-.322.079-.322.559h-.223c.007-.244.022-.617.022-.803,0-.194-.015-.56-.022-.811h.223c0,.481,0,.56.322.56h1.923c.352,0,.401-.058.401-.56Z"/>
    <path d="m201.74,65.466c0,.265.086.732.753.94.043.014.072.029.072.093,0,.022,0,.093-.072.093s-.932-.229-.932-1.191c0-.832.71-1.542,1.628-1.542.89,0,1.664.66,1.664,1.557,0,.552-.28,1.098-.768,1.098-.215,0-.337-.143-.337-.33,0-.201.144-.33.331-.33.093,0,.309.043.331.337.257-.251.265-.703.265-.768,0-.38-.302-.968-1.47-.968-1.156,0-1.464.631-1.464,1.011Z"/>
    <path d="m205.915,67.589c.352,0,.402-.058.402-.56h.222l.079,1.033h-2.511c.272.122.703.437.703,1.04,0,.416-.144.653-.265.753-.259.222-.481.222-1.098.222h-1.37c-.215.007-.215.186-.215.559h-.223c.007-.244.022-.617.022-.803,0-.194-.015-.56-.022-.811h.223c0,.481,0,.56.322.56h1.672c.409,0,.796-.079.796-.531,0-.459-.401-.969-1.147-.969h-1.32c-.322,0-.322.079-.322.559h-.223c.007-.244.022-.617.022-.803,0-.194-.015-.56-.022-.811h.223c0,.48,0,.56.322.56h3.731Z"/>
    <path d="m202.866,76.448c-.732,0-1.385-.653-1.385-1.528,0-.782.474-1.449,1.126-1.449.316,0,.416.23.416.402,0,.208-.144.402-.401.402-.273,0-.431-.223-.394-.474-.423.251-.546.789-.546,1.098,0,.316.208.811,1.184.811.703,0,1.191-.265,1.191-.854v-.315c0-.122,0-.172.079-.172.072,0,.079.05.086.108,0,.05.014.222.021.28.008.179.03.423.374.638.315.186.731.201.817.201.645,0,.804-.394.804-.689,0-.258-.094-.732-.445-.954,0,.107,0,.445-.359.445-.208,0-.366-.143-.366-.366,0-.208.136-.366.373-.366.546,0,.976.545.976,1.27,0,.689-.401,1.32-.99,1.32-.567,0-1.069-.416-1.263-1.004-.151.746-.71,1.198-1.298,1.198Z"/>
  </g>
  <g>
    <path d="m116.915,98.815c0,.674-.645,1.313-1.599,1.313h-2.812v-.222h.172c.553,0,.567-.079.567-.338v-3.781c0-.258-.014-.337-.567-.337h-.172v-.222h2.625c.933,0,1.593.588,1.593,1.212,0,.531-.495.99-1.191,1.126.796.086,1.384.624,1.384,1.248Zm-2.037-1.313c.796,0,1.148-.603,1.148-1.062,0-.38-.251-.99-.947-.99h-.89c-.337,0-.351.05-.351.287v1.765h1.04Zm1.32,1.306c0-.481-.301-1.148-1.011-1.148h-1.349v1.959c0,.237.014.287.351.287h.897c.739,0,1.112-.589,1.112-1.098Z"/>
    <path d="m119.404,96.957c.308,0,.53.208.53.438s-.179.316-.308.316c-.158,0-.309-.108-.309-.309,0-.186.143-.273.165-.28-.015-.007-.029-.007-.079-.007-.546,0-.847.638-.847,1.349v1.105c0,.259.014.338.545.338h.15v.222c-.287-.021-.624-.021-.911-.021-.201,0-.538.014-.818.021v-.222c.481,0,.56,0,.56-.323v-1.923c0-.352-.057-.401-.56-.401v-.222l.997-.079v.79c.101-.309.359-.79.883-.79Z"/>
    <path d="m121.577,100.207c-.451,0-1.147-.179-1.147-.76,0-.316.179-.689.717-.932.452-.216.955-.237,1.32-.259v-.265c0-.638-.409-.918-.761-.918-.229,0-.581.079-.775.33.33.007.365.244.365.33,0,.187-.129.331-.329.331-.187,0-.33-.122-.33-.337,0-.473.495-.811,1.083-.811.344,0,.703.115.983.394.259.266.259.546.259.847v1.435c0,.036.028.359.266.359.079,0,.257-.043.257-.459v-.401h.18v.401c0,.582-.437.681-.588.681-.337,0-.531-.301-.56-.588-.136.337-.466.624-.94.624Zm-.595-.767c0,.359.294.61.645.61.323,0,.839-.244.839-.925v-.718c-1.184.044-1.485.639-1.485,1.034Z"/>
    <path d="m123.944,97.259v-.222l1.012-.079v.754c.201-.445.538-.754,1.062-.754.416,0,.652.144.753.266.223.258.223.481.223,1.097v1.37c.007.215.186.215.559.215v.222c-.244-.007-.617-.021-.804-.021-.193,0-.56.014-.81.021v-.222c.48,0,.56,0,.56-.323v-1.672c0-.409-.079-.796-.532-.796-.458,0-.968.401-.968,1.147v1.32c0,.323.079.323.559.323v.222c-.243-.007-.617-.021-.803-.021-.194,0-.56.014-.811.021v-.222c.48,0,.56,0,.56-.323v-1.923c0-.352-.058-.401-.56-.401Z"/>
    <path d="m129.546,100.028c.266,0,.732-.086.94-.753.015-.043.029-.072.093-.072.021,0,.093,0,.093.072s-.229.932-1.191.932c-.832,0-1.542-.71-1.542-1.629,0-.889.66-1.664,1.557-1.664.552,0,1.098.28,1.098.768,0,.215-.143.338-.33.338-.2,0-.329-.144-.329-.33,0-.093.042-.309.337-.33-.251-.258-.703-.266-.768-.266-.38,0-.968.302-.968,1.471,0,1.155.631,1.463,1.011,1.463Z"/>
    <path d="m131.669,95.852c0-.352-.058-.401-.56-.401v-.222l1.034-.079v2.511c.121-.272.437-.703,1.039-.703.416,0,.653.144.754.266.222.258.222.481.222,1.097v1.37c.007.215.187.215.56.215v.222c-.243-.007-.617-.021-.803-.021-.194,0-.56.014-.811.021v-.222c.481,0,.56,0,.56-.323v-1.672c0-.409-.079-.796-.53-.796-.46,0-.969.401-.969,1.147v1.32c0,.323.079.323.56.323v.222c-.244-.007-.617-.021-.804-.021-.193,0-.56.014-.811.021v-.222c.481,0,.56,0,.56-.323v-3.731Z"/>
    <path d="m137.45,98.945v-.223l2.202-3.365c.058-.086.079-.086.143-.086.115,0,.115.043.115.186v3.264h.717v.223h-.717v.624c0,.259.014.338.545.338h.15v.222c-.295-.021-.675-.021-.976-.021s-.674,0-.969.021v-.222h.151c.531,0,.545-.079.545-.338v-.624h-1.908Zm1.952-2.898l-1.751,2.675h1.751v-2.675Z"/>
  </g>
  <g>
    <path class="cls-5" d="m57.445,91.037c0,.658-.63,1.282-1.562,1.282h-2.746v-.217h.169c.539,0,.553-.077.553-.329v-3.691c0-.252-.014-.329-.553-.329h-.169v-.217h2.563c.911,0,1.555.574,1.555,1.184,0,.519-.482.967-1.162,1.1.777.084,1.352.609,1.352,1.219Zm-1.989-1.282c.777,0,1.121-.588,1.121-1.037,0-.371-.245-.966-.925-.966h-.868c-.329,0-.344.049-.344.28v1.723h1.016Zm1.289,1.275c0-.469-.294-1.121-.987-1.121h-1.317v1.912c0,.231.015.28.344.28h.875c.722,0,1.086-.574,1.086-1.071Z"/>
    <path class="cls-5" d="m59.872,89.223c.301,0,.519.203.519.427s-.175.308-.302.308c-.153,0-.301-.105-.301-.301,0-.182.14-.266.161-.273-.014-.007-.028-.007-.077-.007-.532,0-.826.623-.826,1.316v1.079c0,.252.014.329.532.329h.146v.217c-.279-.021-.608-.021-.889-.021-.196,0-.525.014-.799.021v-.217c.47,0,.546,0,.546-.315v-1.877c0-.343-.056-.393-.546-.393v-.217l.974-.077v.771c.098-.301.351-.771.861-.771Z"/>
    <path class="cls-5" d="m61.993,92.396c-.44,0-1.12-.175-1.12-.743,0-.308.175-.672.7-.91.441-.21.932-.231,1.289-.252v-.259c0-.624-.399-.896-.742-.896-.225,0-.567.077-.757.322.322.007.357.238.357.322,0,.182-.126.322-.322.322-.183,0-.322-.119-.322-.329,0-.462.483-.792,1.058-.792.336,0,.687.112.959.385.253.259.253.532.253.826v1.401c0,.035.027.35.259.35.077,0,.252-.042.252-.448v-.392h.175v.392c0,.567-.427.666-.574.666-.329,0-.518-.294-.546-.574-.133.329-.455.609-.918.609Zm-.581-.75c0,.35.287.595.631.595.314,0,.819-.238.819-.903v-.7c-1.156.042-1.45.623-1.45,1.008Z"/>
    <path class="cls-5" d="m64.302,89.517v-.217l.987-.077v.735c.196-.434.525-.735,1.037-.735.406,0,.638.14.735.259.217.252.217.469.217,1.071v1.338c.007.21.183.21.547.21v.217c-.238-.007-.603-.021-.785-.021-.188,0-.546.014-.791.021v-.217c.47,0,.546,0,.546-.315v-1.632c0-.399-.076-.777-.518-.777-.448,0-.945.392-.945,1.121v1.289c0,.315.076.315.546.315v.217c-.238-.007-.603-.021-.784-.021-.189,0-.547.014-.792.021v-.217c.47,0,.547,0,.547-.315v-1.877c0-.343-.057-.393-.547-.393Z"/>
    <path class="cls-5" d="m69.77,92.221c.259,0,.715-.084.918-.735.014-.042.027-.07.091-.07.021,0,.091,0,.091.07,0,.07-.224.911-1.162.911-.812,0-1.506-.693-1.506-1.59,0-.869.644-1.625,1.52-1.625.539,0,1.071.273,1.071.75,0,.21-.14.329-.322.329-.196,0-.322-.14-.322-.322,0-.091.042-.301.329-.322-.245-.252-.686-.259-.749-.259-.371,0-.945.294-.945,1.436,0,1.127.616,1.429.987,1.429Z"/>
    <path class="cls-5" d="m71.841,88.144c0-.343-.056-.392-.546-.392v-.217l1.008-.077v2.452c.119-.266.428-.687,1.016-.687.406,0,.638.14.735.259.218.252.218.469.218,1.071v1.338c.007.21.182.21.546.21v.217c-.238-.007-.603-.021-.784-.021-.189,0-.546.014-.791.021v-.217c.469,0,.546,0,.546-.315v-1.632c0-.399-.077-.777-.519-.777-.448,0-.945.392-.945,1.121v1.289c0,.315.077.315.546.315v.217c-.237-.007-.602-.021-.784-.021-.188,0-.546.014-.791.021v-.217c.469,0,.546,0,.546-.315v-3.642Z"/>
    <path class="cls-5" d="m78.905,92.473c-.784,0-1.268-.68-1.268-1.282,0-.322.245-.372.344-.372.23,0,.35.175.35.343s-.119.343-.35.343c-.077,0-.099-.007-.119-.014.119.414.519.785,1.029.785.322,0,.581-.182.749-.455.169-.294.169-.714.169-.96,0-.35-.015-.623-.126-.882-.057-.126-.231-.448-.596-.448-.567,0-.826.378-.903.49-.028.042-.042.063-.091.063-.099,0-.099-.056-.099-.182v-2.073c0-.112,0-.168.07-.168.014,0,.028,0,.084.021.329.147.651.196.932.196.469,0,.812-.14.952-.203.035-.021.049-.021.056-.021.05,0,.07.035.07.077,0,.091-.49.729-1.352.729-.224,0-.455-.049-.596-.091v1.366c.253-.245.554-.357.89-.357.757,0,1.331.7,1.331,1.534,0,.89-.715,1.562-1.527,1.562Z"/>
  </g>
  <g>
    <path class="cls-5" d="m3.579,64.12c.658,0,1.282.631,1.282,1.563v2.745h-.217v-.168c0-.539-.077-.554-.329-.554H.624c-.252,0-.329.015-.329.554v.168H.077v-2.563c0-.91.574-1.555,1.184-1.555.519,0,.967.483,1.1,1.163.084-.778.609-1.353,1.219-1.353Zm-1.282,1.989c0-.777-.588-1.12-1.037-1.12-.371,0-.966.245-.966.924v.869c0,.329.049.343.28.343h1.723s0-1.016,0-1.016Zm1.275-1.288c-.469,0-1.121.294-1.121.987v1.316s1.912,0,1.912,0c.231,0,.28-.014.28-.343v-.876c0-.722-.574-1.085-1.071-1.085Z"/>
    <path class="cls-5" d="m1.765,61.692c0-.301.203-.518.427-.518s.308.175.308.301-.105.301-.301.301c-.182,0-.266-.14-.273-.16-.007.014-.007.027-.007.076,0,.532.623.827,1.316.827h1.079c.252,0,.329-.015.329-.532v-.147h.217c-.021.28-.021.609-.021.89,0,.196.014.525.021.798h-.217c0-.469,0-.546-.315-.546h-1.877c-.343,0-.393.056-.393.546h-.217l-.077-.973h.771c-.301-.099-.771-.351-.771-.862Z"/>
    <path class="cls-5" d="m4.938,59.572c0,.441-.175,1.121-.743,1.121-.308,0-.672-.176-.91-.701-.21-.44-.231-.932-.252-1.288h-.259c-.624,0-.896.399-.896.742,0,.224.077.567.322.756.007-.321.238-.356.322-.356.182,0,.322.126.322.322,0,.182-.119.322-.329.322-.462,0-.792-.483-.792-1.058,0-.337.112-.687.385-.96.259-.252.532-.252.826-.252h1.401c.035,0,.35-.028.35-.26,0-.076-.042-.252-.448-.252h-.392v-.175h.392c.567,0,.666.427.666.574,0,.329-.294.519-.574.547.329.133.609.455.609.917Zm-.75.581c.35,0,.595-.287.595-.63,0-.315-.238-.819-.903-.819h-.7c.042,1.155.623,1.449,1.008,1.449Z"/>
    <path class="cls-5" d="m2.059,57.262h-.217l-.077-.987h.735c-.434-.196-.735-.525-.735-1.036,0-.406.14-.638.259-.735.252-.218.469-.218,1.071-.218h1.338c.21-.007.21-.182.21-.546h.217c-.007.238-.021.603-.021.784,0,.189.014.546.021.791h-.217c0-.469,0-.546-.315-.546h-1.632c-.399,0-.777.077-.777.519s.392.945,1.121.945h1.289c.315,0,.315-.077.315-.546h.217c-.007.237-.021.602-.021.784,0,.188.014.546.021.791h-.217c0-.469,0-.546-.315-.546h-1.877c-.343,0-.393.056-.393.546Z"/>
    <path class="cls-5" d="m4.763,51.795c0-.259-.084-.714-.735-.917-.042-.014-.07-.028-.07-.091,0-.021,0-.092.07-.092.07,0,.911.225.911,1.163,0,.812-.693,1.506-1.59,1.506-.869,0-1.625-.645-1.625-1.52,0-.54.273-1.072.75-1.072.21,0,.329.141.329.322,0,.196-.14.322-.322.322-.091,0-.301-.042-.322-.329-.252.245-.259.687-.259.749,0,.372.294.946,1.436.946,1.127,0,1.429-.616,1.429-.988Z"/>
    <path class="cls-5" d="m.687,49.723c-.343,0-.392.057-.392.547H.077l-.077-1.009h2.452c-.266-.119-.687-.427-.687-1.016,0-.406.14-.638.259-.735.252-.217.469-.217,1.071-.217h1.338c.21-.007.21-.183.21-.547h.217c-.007.238-.021.603-.021.785s.014.546.021.791h-.217c0-.47,0-.546-.315-.546h-1.632c-.399,0-.777.076-.777.518s.392.945,1.121.945h1.289c.315,0,.315-.076.315-.546h.217c-.007.238-.021.603-.021.784,0,.189.014.547.021.792h-.217c0-.47,0-.547-.315-.547H.687Z"/>
    <path class="cls-5" d="m1.87,42.478c0-.778.672-1.401,1.562-1.401.924,0,1.583.666,1.583,1.443,0,.651-.498,1.464-2.368,1.464-1.548,0-2.451-.946-2.451-1.843,0-.581.336-.89.756-.89.273,0,.336.211.336.322,0,.154-.105.322-.322.322-.315,0-.315-.28-.315-.385-.238.154-.28.448-.28.616,0,.357.252,1.226,2.024,1.226h.168c-.336-.14-.693-.399-.693-.875Zm2.494-.651c-.252-.119-.603-.119-.938-.119-.343,0-.701,0-.96.126-.434.217-.434.539-.434.651,0,.63.701.854,1.247.854.126,0,.687,0,1.016-.126.105-.042.525-.253.525-.693,0-.161-.035-.483-.455-.693Z"/>
  </g>
  <g>
    <path class="cls-5" d="m74.99,68.076c.658,0,1.282.63,1.282,1.562v2.746h-.217v-.168c0-.539-.077-.553-.329-.553h-3.691c-.252,0-.329.014-.329.553v.168h-.217v-2.563c0-.911.574-1.555,1.184-1.555.519,0,.967.483,1.1,1.163.084-.778.609-1.352,1.219-1.352Zm-1.282,1.989c0-.777-.588-1.121-1.037-1.121-.371,0-.966.245-.966.924v.869c0,.329.049.343.28.343h1.723s0-1.016,0-1.016Zm1.275-1.289c-.469,0-1.121.294-1.121.987v1.317s1.912,0,1.912,0c.231,0,.28-.014.28-.343v-.875c0-.722-.574-1.085-1.071-1.085Z"/>
    <path class="cls-5" d="m73.176,65.648c0-.301.203-.518.427-.518s.308.175.308.301c0,.154-.105.301-.301.301-.182,0-.266-.14-.273-.161-.007.014-.007.028-.007.077,0,.532.623.827,1.316.827h1.079c.252,0,.329-.014.329-.532v-.147h.217c-.021.28-.021.609-.021.889,0,.196.014.525.021.798h-.217c0-.469,0-.546-.315-.546h-1.877c-.343,0-.393.056-.393.546h-.217l-.077-.973h.771c-.301-.098-.771-.351-.771-.862Z"/>
    <path class="cls-5" d="m76.349,63.528c0,.441-.175,1.121-.743,1.121-.308,0-.672-.175-.91-.701-.21-.441-.231-.932-.252-1.289h-.259c-.624,0-.896.399-.896.742,0,.224.077.567.322.756.007-.322.238-.357.322-.357.182,0,.322.126.322.322,0,.182-.119.322-.329.322-.462,0-.792-.483-.792-1.058,0-.336.112-.687.385-.959.259-.252.532-.252.826-.252h1.401c.035,0,.35-.028.35-.259,0-.077-.042-.252-.448-.252h-.392v-.175h.392c.567,0,.666.427.666.574,0,.329-.294.518-.574.546.329.133.609.455.609.917Zm-.75.581c.35,0,.595-.287.595-.63,0-.315-.238-.819-.903-.819h-.7c.042,1.156.623,1.45,1.008,1.45Z"/>
    <path class="cls-5" d="m73.47,61.218h-.217l-.077-.987h.735c-.434-.196-.735-.525-.735-1.037,0-.406.14-.638.259-.735.252-.217.469-.217,1.071-.217h1.338c.21-.007.21-.182.21-.546h.217c-.007.238-.021.603-.021.785s.014.546.021.791h-.217c0-.469,0-.546-.315-.546h-1.632c-.399,0-.777.077-.777.518s.392.945,1.121.945h1.289c.315,0,.315-.077.315-.546h.217c-.007.238-.021.602-.021.784s.014.546.021.792h-.217c0-.469,0-.546-.315-.546h-1.877c-.343,0-.393.056-.393.546Z"/>
    <path class="cls-5" d="m76.174,55.75c0-.259-.084-.714-.735-.917-.042-.014-.07-.028-.07-.091,0-.021,0-.091.07-.091.07,0,.911.224.911,1.163,0,.812-.693,1.506-1.59,1.506-.869,0-1.625-.644-1.625-1.52,0-.54.273-1.072.75-1.072.21,0,.329.14.329.322s-.14.322-.322.322c-.091,0-.301-.042-.322-.329-.252.245-.259.686-.259.749,0,.372.294.946,1.436.946,1.127,0,1.429-.616,1.429-.988Z"/>
    <path class="cls-5" d="m72.098,53.679c-.343,0-.392.056-.392.546h-.217l-.077-1.008h2.452c-.266-.119-.687-.427-.687-1.016,0-.406.14-.638.259-.735.252-.217.469-.217,1.071-.217h1.338c.21-.007.21-.182.21-.546h.217c-.007.238-.021.603-.021.785,0,.189.014.546.021.791h-.217c0-.469,0-.546-.315-.546h-1.632c-.399,0-.777.077-.777.518,0,.448.392.945,1.121.945h1.289c.315,0,.315-.077.315-.546h.217c-.007.238-.021.602-.021.784,0,.189.014.546.021.792h-.217c0-.469,0-.546-.315-.546h-3.642Z"/>
    <path class="cls-5" d="m73.337,45.845c.434.308,1.037.406,1.198.434.378.056.763.077,1.148.077h.357c.07,0,.385,0,.385.322,0,.322-.315.322-.385.322-.714,0-1.688-.231-2.634-.861-.231-.154-.994-.707-1.106-.784v1.45c0,.091,0,.637.042.687.084.091.525.154.637.175v.175l-1.442-.231v-.175c.133-.028.224-.042.224-.896v-1.702c.147,0,.161,0,.245.063l1.331.946Z"/>
  </g>
  <g>
    <path class="cls-5" d="m131.432,52.959c-.658,0-1.282-.63-1.282-1.562v-2.746h.217v.168c0,.539.077.553.329.553h3.691c.252,0,.329-.014.329-.553v-.168h.217v2.563c0,.911-.574,1.555-1.184,1.555-.519,0-.967-.483-1.1-1.163-.084.778-.609,1.352-1.219,1.352Zm1.282-1.989c0,.777.588,1.121,1.037,1.121.371,0,.966-.245.966-.924v-.869c0-.329-.049-.343-.28-.343h-1.723v1.016Zm-1.275,1.289c.469,0,1.121-.294,1.121-.987v-1.317h-1.912c-.231,0-.28.014-.28.343v.875c0,.722.574,1.085,1.071,1.085Z"/>
    <path class="cls-5" d="m133.246,55.387c0,.301-.203.518-.427.518s-.308-.175-.308-.301c0-.154.105-.301.301-.301.182,0,.266.14.273.161.007-.014.007-.028.007-.077,0-.532-.623-.827-1.316-.827h-1.079c-.252,0-.329.014-.329.532v.147h-.217c.021-.28.021-.609.021-.889,0-.196-.014-.525-.021-.798h.217c0,.469,0,.546.315.546h1.877c.343,0,.393-.056.393-.546h.217l.077.973h-.771c.301.098.771.351.771.862Z"/>
    <path class="cls-5" d="m130.073,57.507c0-.441.175-1.121.743-1.121.308,0,.672.175.91.701.21.441.231.932.252,1.289h.259c.624,0,.896-.399.896-.742,0-.224-.077-.567-.322-.756-.007.322-.238.357-.322.357-.182,0-.322-.126-.322-.322,0-.182.119-.322.329-.322.462,0,.792.483.792,1.058,0,.336-.112.687-.385.959-.259.252-.532.252-.826.252h-1.401c-.035,0-.35.028-.35.259,0,.077.042.252.448.252h.392v.175h-.392c-.567,0-.666-.427-.666-.574,0-.329.294-.518.574-.546-.329-.133-.609-.455-.609-.917Zm.75-.581c-.35,0-.595.287-.595.63,0,.315.238.819.903.819h.7c-.042-1.156-.623-1.45-1.008-1.45Z"/>
    <path class="cls-5" d="m132.952,59.816h.217l.077.987h-.735c.434.196.735.525.735,1.037,0,.406-.14.638-.259.735-.252.217-.469.217-1.071.217h-1.338c-.21.007-.21.182-.21.546h-.217c.007-.238.021-.603.021-.785,0-.189-.014-.546-.021-.791h.217c0,.469,0,.546.315.546h1.632c.399,0,.777-.077.777-.518,0-.448-.392-.945-1.121-.945h-1.289c-.315,0-.315.077-.315.546h-.217c.007-.238.021-.602.021-.784,0-.189-.014-.546-.021-.792h.217c0,.469,0,.546.315.546h1.877c.343,0,.393-.056.393-.546Z"/>
    <path class="cls-5" d="m130.248,65.284c0,.259.084.714.735.917.042.014.07.028.07.091,0,.021,0,.091-.07.091-.07,0-.911-.224-.911-1.163,0-.812.693-1.506,1.59-1.506.869,0,1.625.644,1.625,1.52,0,.54-.273,1.072-.75,1.072-.21,0-.329-.14-.329-.322,0-.196.14-.322.322-.322.091,0,.301.042.322.329.252-.245.259-.686.259-.749,0-.372-.294-.946-1.436-.946-1.127,0-1.429.616-1.429.988Z"/>
    <path class="cls-5" d="m134.324,67.355c.343,0,.392-.056.392-.546h.217l.077,1.008h-2.452c.266.119.687.427.687,1.016,0,.406-.14.638-.259.735-.252.217-.469.217-1.071.217h-1.338c-.21.007-.21.182-.21.546h-.217c.007-.238.021-.603.021-.785,0-.189-.014-.546-.021-.791h.217c0,.469,0,.546.315.546h1.632c.399,0,.777-.077.777-.518,0-.448-.392-.945-1.121-.945h-1.289c-.315,0-.315.077-.315.546h-.217c.007-.238.021-.602.021-.784,0-.189-.014-.546-.021-.792h.217c0,.469,0,.546.315.546h3.642Z"/>
    <path class="cls-5" d="m132.188,75.659c-.294.267-.609.344-.861.344-.75,0-1.331-.666-1.331-1.457,0-.735.469-1.45,1.212-1.45.693,0,1.085.603,1.289,1.009.119-.175.294-.434.378-.511.329-.295.644-.309.771-.309.651,0,1.169.567,1.169,1.268,0,.638-.399,1.261-1.043,1.261-.462,0-.827-.343-1.086-.848-.28.448-.35.561-.497.693Zm-.98-2.213c-.582,0-1.016.504-1.016,1.106,0,.574.364,1.1.882,1.1.427,0,.638-.329.771-.525l.546-.861c-.329-.595-.777-.819-1.184-.819Zm1.583,1.366c.245.42.581.693.98.693.504,0,.868-.448.868-.96,0-.497-.294-.952-.721-.952-.119,0-.357.027-.567.35l-.56.869Z"/>
  </g>
  <g>
    <rect class="cls-4" x="51.292" y="19.879" width="5.669" height="5.669"/>
    <g>
      <path class="cls-5" d="m39.418,32.44c-.028.091-.042.14-.14.14-.091,0-.112-.07-.133-.133l-1.163-3.565-1.155,3.558c-.028.091-.042.14-.14.14-.091,0-.112-.07-.133-.133l-1.401-4.293c-.084-.259-.112-.294-.637-.294v-.217c.287.007.588.021.854.021s.743,0,.995-.021v.217c-.182,0-.588,0-.588.21,0,.021.007.07.014.091l1.127,3.446.974-3.005-.154-.49c-.084-.252-.231-.252-.63-.252v-.217c.287.007.588.021.854.021s.743,0,.995-.021v.217c-.182,0-.588,0-.588.21,0,.035.014.077.021.105l1.121,3.432,1.051-3.236c.014-.042.035-.098.035-.14,0-.133-.14-.364-.609-.371v-.217c.182.007.63.021.833.021.21,0,.427-.007.637-.021v.217c-.273,0-.574.07-.701.469l-1.337,4.111Z"/>
      <path class="cls-5" d="m42.993,32.503c-.441,0-1.121-.175-1.121-.743,0-.308.175-.672.701-.91.441-.21.932-.231,1.289-.252v-.259c0-.624-.399-.896-.742-.896-.224,0-.567.077-.756.322.322.007.357.238.357.322,0,.182-.126.322-.322.322-.182,0-.322-.119-.322-.329,0-.462.483-.792,1.058-.792.336,0,.687.112.959.385.252.259.252.532.252.826v1.401c0,.035.028.35.259.35.077,0,.252-.042.252-.448v-.392h.175v.392c0,.567-.427.666-.574.666-.329,0-.518-.294-.546-.574-.133.329-.455.609-.917.609Zm-.581-.75c0,.35.287.595.63.595.315,0,.819-.238.819-.903v-.701c-1.156.042-1.45.624-1.45,1.009Z"/>
      <path class="cls-5" d="m46.29,31.571c0,.119,0,.756.47.756.259,0,.469-.266.469-.784v-.385h.175v.399c0,.448-.196.946-.693.946-.252,0-.903-.084-.903-.946v-1.933h-.595v-.154c.686-.028.896-.777.903-1.352h.175v1.289h1.002v.217h-1.002v1.947Z"/>
      <path class="cls-5" d="m49.006,31.571c0,.119,0,.756.47.756.259,0,.469-.266.469-.784v-.385h.175v.399c0,.448-.196.946-.693.946-.252,0-.903-.084-.903-.946v-1.933h-.595v-.154c.686-.028.896-.777.903-1.352h.175v1.289h1.002v.217h-1.002v1.947Z"/>
      <path class="cls-5" d="m50.734,29.624v-.217l.987-.077v.735c.196-.434.525-.735,1.037-.735.315,0,.833.077.932.687.119-.266.427-.687,1.016-.687.406,0,.637.14.735.259.217.252.217.469.217,1.071v1.338c.007.21.182.21.546.21v.217c-.238-.007-.602-.021-.784-.021-.189,0-.546.014-.792.021v-.217c.469,0,.546,0,.546-.315v-1.632c0-.399-.077-.777-.519-.777-.448,0-.945.392-.945,1.121v1.289c0,.315.077.315.546.315v.217c-.238-.007-.603-.021-.785-.021-.189,0-.546.014-.791.021v-.217c.469,0,.546,0,.546-.315v-1.632c0-.399-.077-.777-.518-.777-.448,0-.945.392-.945,1.121v1.289c0,.315.077.315.546.315v.217c-.238-.007-.602-.021-.784-.021-.189,0-.546.014-.792.021v-.217c.469,0,.546,0,.546-.315v-1.877c0-.343-.056-.392-.546-.392Z"/>
      <path class="cls-5" d="m57.329,31.858c.161.259.441.469.792.469.07,0,.701,0,.946-.721.014-.056.028-.098.091-.098.035,0,.091.014.091.084,0,.133-.315.911-1.17.911-.805,0-1.541-.68-1.541-1.618,0-.875.644-1.597,1.457-1.597.875,0,1.254.679,1.254,1.373,0,.147-.021.147-.175.147h-1.954c0,.252,0,.714.21,1.05Zm1.457-1.198c0-.273-.07-1.218-.792-1.218-.238,0-.826.175-.868,1.218h1.66Z"/>
      <path class="cls-5" d="m60.661,31.571c0,.119,0,.756.469.756.259,0,.47-.266.47-.784v-.385h.175v.399c0,.448-.196.946-.693.946-.252,0-.903-.084-.903-.946v-1.933h-.595v-.154c.686-.028.896-.777.903-1.352h.175v1.289h1.002v.217h-1.002v1.947Z"/>
      <path class="cls-5" d="m63.152,31.858c.161.259.441.469.792.469.07,0,.701,0,.946-.721.014-.056.028-.098.091-.098.035,0,.091.014.091.084,0,.133-.315.911-1.17.911-.805,0-1.541-.68-1.541-1.618,0-.875.644-1.597,1.457-1.597.875,0,1.254.679,1.254,1.373,0,.147-.021.147-.175.147h-1.954c0,.252,0,.714.21,1.05Zm1.457-1.198c0-.273-.07-1.218-.792-1.218-.238,0-.826.175-.869,1.218h1.66Z"/>
      <path class="cls-5" d="m67.304,29.33c.301,0,.518.203.518.427s-.175.308-.301.308c-.154,0-.301-.105-.301-.301,0-.182.14-.266.161-.273-.014-.007-.028-.007-.077-.007-.532,0-.827.623-.827,1.316v1.079c0,.252.014.329.532.329h.147v.217c-.28-.021-.609-.021-.889-.021-.196,0-.525.014-.798.021v-.217c.469,0,.546,0,.546-.315v-1.877c0-.343-.056-.392-.546-.392v-.217l.973-.077v.771c.098-.301.351-.771.862-.771Z"/>
      <path class="cls-5" d="m72.729,29.491c-.308.434-.406,1.037-.434,1.198-.056.378-.077.763-.077,1.148v.357c0,.07,0,.385-.322.385s-.322-.315-.322-.385c0-.714.231-1.688.862-2.634.154-.231.708-.994.784-1.106h-1.45c-.091,0-.637,0-.687.042-.091.084-.154.525-.175.637h-.175l.231-1.442h.175c.028.133.042.224.896.224h1.702c0,.147,0,.161-.063.245l-.946,1.331Z"/>
    </g>
  </g>
  <g>
    <path class="cls-5" d="m137.795,112.344c-.028.091-.042.14-.14.14-.091,0-.112-.07-.133-.133l-1.163-3.565-1.155,3.558c-.028.091-.042.14-.14.14-.091,0-.112-.07-.133-.133l-1.401-4.293c-.084-.259-.112-.294-.637-.294v-.217c.287.007.588.021.854.021s.743,0,.995-.021v.217c-.182,0-.588,0-.588.21,0,.021.007.07.014.091l1.127,3.446.974-3.005-.154-.49c-.084-.252-.231-.252-.63-.252v-.217c.287.007.588.021.854.021s.743,0,.995-.021v.217c-.182,0-.588,0-.588.21,0,.035.014.077.021.105l1.121,3.432,1.051-3.236c.014-.042.035-.098.035-.14,0-.133-.14-.364-.609-.371v-.217c.182.007.63.021.833.021.21,0,.427-.007.637-.021v.217c-.273,0-.574.07-.701.469l-1.337,4.111Z"/>
    <path class="cls-5" d="m141.37,112.407c-.441,0-1.121-.175-1.121-.743,0-.308.175-.672.701-.91.441-.21.932-.231,1.289-.252v-.259c0-.624-.399-.896-.742-.896-.224,0-.567.077-.756.322.322.007.357.238.357.322,0,.182-.126.322-.322.322-.182,0-.322-.119-.322-.329,0-.462.483-.792,1.058-.792.336,0,.687.112.959.385.252.259.252.532.252.826v1.401c0,.035.028.35.259.35.077,0,.252-.042.252-.448v-.392h.175v.392c0,.567-.427.666-.574.666-.329,0-.518-.294-.546-.574-.133.329-.455.609-.917.609Zm-.581-.75c0,.35.287.595.63.595.315,0,.819-.238.819-.903v-.701c-1.156.042-1.45.624-1.45,1.009Z"/>
    <path class="cls-5" d="m144.667,111.475c0,.119,0,.756.47.756.259,0,.469-.266.469-.784v-.385h.175v.399c0,.448-.196.946-.693.946-.252,0-.903-.084-.903-.946v-1.933h-.595v-.154c.686-.028.896-.777.903-1.352h.175v1.289h1.002v.217h-1.002v1.947Z"/>
    <path class="cls-5" d="m147.383,111.475c0,.119,0,.756.47.756.259,0,.469-.266.469-.784v-.385h.175v.399c0,.448-.196.946-.693.946-.252,0-.903-.084-.903-.946v-1.933h-.595v-.154c.686-.028.896-.777.903-1.352h.175v1.289h1.002v.217h-1.002v1.947Z"/>
    <path class="cls-5" d="m149.111,109.528v-.217l.987-.077v.735c.196-.434.525-.735,1.037-.735.315,0,.833.077.932.687.119-.266.427-.687,1.016-.687.406,0,.637.14.735.259.217.252.217.469.217,1.071v1.338c.007.21.182.21.546.21v.217c-.238-.007-.602-.021-.784-.021-.189,0-.546.014-.792.021v-.217c.469,0,.546,0,.546-.315v-1.632c0-.399-.077-.777-.519-.777-.448,0-.945.392-.945,1.121v1.289c0,.315.077.315.546.315v.217c-.238-.007-.603-.021-.785-.021-.189,0-.546.014-.791.021v-.217c.469,0,.546,0,.546-.315v-1.632c0-.399-.077-.777-.518-.777-.448,0-.945.392-.945,1.121v1.289c0,.315.077.315.546.315v.217c-.238-.007-.602-.021-.784-.021-.189,0-.546.014-.792.021v-.217c.469,0,.546,0,.546-.315v-1.877c0-.343-.056-.392-.546-.392Z"/>
    <path class="cls-5" d="m155.705,111.762c.161.259.441.469.792.469.07,0,.701,0,.946-.721.014-.056.028-.098.091-.098.035,0,.091.014.091.084,0,.133-.315.911-1.17.911-.805,0-1.541-.68-1.541-1.618,0-.875.644-1.597,1.457-1.597.875,0,1.254.679,1.254,1.373,0,.147-.021.147-.175.147h-1.954c0,.252,0,.714.21,1.05Zm1.457-1.198c0-.273-.07-1.218-.792-1.218-.238,0-.826.175-.868,1.218h1.66Z"/>
    <path class="cls-5" d="m159.037,111.475c0,.119,0,.756.469.756.259,0,.47-.266.47-.784v-.385h.175v.399c0,.448-.196.946-.693.946-.252,0-.903-.084-.903-.946v-1.933h-.595v-.154c.686-.028.896-.777.903-1.352h.175v1.289h1.002v.217h-1.002v1.947Z"/>
    <path class="cls-5" d="m161.529,111.762c.161.259.441.469.792.469.07,0,.701,0,.946-.721.014-.056.028-.098.091-.098.035,0,.091.014.091.084,0,.133-.315.911-1.17.911-.805,0-1.541-.68-1.541-1.618,0-.875.644-1.597,1.457-1.597.875,0,1.254.679,1.254,1.373,0,.147-.021.147-.175.147h-1.954c0,.252,0,.714.21,1.05Zm1.457-1.198c0-.273-.07-1.218-.792-1.218-.238,0-.826.175-.869,1.218h1.66Z"/>
    <path class="cls-5" d="m165.681,109.234c.301,0,.518.203.518.427s-.175.308-.301.308c-.154,0-.301-.105-.301-.301,0-.182.14-.266.161-.273-.014-.007-.028-.007-.077-.007-.532,0-.827.623-.827,1.316v1.079c0,.252.014.329.532.329h.147v.217c-.28-.021-.609-.021-.889-.021-.196,0-.525.014-.798.021v-.217c.469,0,.546,0,.546-.315v-1.877c0-.343-.056-.392-.546-.392v-.217l.973-.077v.771c.098-.301.351-.771.862-.771Z"/>
    <path class="cls-5" d="m171.575,110.291c.266.294.343.609.343.861,0,.75-.666,1.331-1.457,1.331-.735,0-1.45-.469-1.45-1.212,0-.693.603-1.085,1.009-1.289-.175-.119-.434-.294-.511-.378-.294-.329-.308-.644-.308-.771,0-.651.567-1.169,1.268-1.169.637,0,1.261.399,1.261,1.043,0,.462-.343.827-.848,1.086.448.28.561.35.693.497Zm-2.213.98c0,.582.504,1.016,1.106,1.016.574,0,1.1-.364,1.1-.882,0-.427-.329-.638-.525-.771l-.861-.546c-.595.329-.819.777-.819,1.184Zm1.366-1.583c.42-.245.693-.581.693-.98,0-.504-.448-.868-.959-.868-.498,0-.953.294-.953.721,0,.119.028.357.35.567l.869.56Z"/>
  </g>
  <rect class="cls-4" x="149.473" y="99.783" width="5.669" height="5.669"/>
</svg>